<?xml version="1.0" encoding="UTF-8"?>
<svg id="Layer_1" data-name="Layer 1" xmlns="http://www.w3.org/2000/svg" viewBox="0 0 647.13 426.85">
  <g id="freepik--background-complete--inject-51">
    <path d="m548.02,305.15c0-1.59-.07-117.47-.19-304.89l.19.2L.22.52H.22l.26-.26v304.89l-.24-.24,547.84.24L.24,305.39h-.24V0h.3l547.8.06h.2v.2c-.22,187.46-.22,303.3-.28,304.89Z" fill="#e0e0e0"/>
    <rect x=".18" y=".26" width="547.85" height="23.35" fill="#e0e0e0"/>
    <path d="m18.08,11.24c0,2.08-1.69,3.77-3.77,3.77s-3.77-1.69-3.77-3.77c0-2.08,1.69-3.77,3.77-3.77,0,0,0,0,0,0,2.08,0,3.76,1.68,3.76,3.76,0,0,0,0,0,.01Z" fill="#fff"/>
    <path d="m29.72,11.24c0,2.08-1.69,3.77-3.77,3.77s-3.77-1.69-3.77-3.77c0-2.08,1.69-3.77,3.77-3.77,0,0,0,0,0,0,2.08,0,3.76,1.68,3.76,3.76,0,0,0,0,0,.01Z" fill="#fff"/>
    <path d="m41.38,11.24c0,2.08-1.69,3.77-3.77,3.77s-3.77-1.69-3.77-3.77,1.69-3.77,3.77-3.77h0c2.08,0,3.76,1.67,3.77,3.75,0,0,0,.01,0,.02Z" fill="#fff"/>
  </g>
  <g id="freepik--Page--inject-51">
    <rect x="41.25" y="46.84" width="554.08" height="369.38" fill="#fafafa"/>
    <rect x="41.25" y="46.84" width="554.08" height="23.61" fill="#263238"/>
    <path d="m595.33,70.45c0-.48,0-7.45-.07-23.61l.07.07-554,.19h0l.26-.26v23.61l-.26-.26,554.08.26-554.16.27h-.26v-24.14h.29l554.05.19h.07v.07c-.05,16.16-.07,23.13-.07,23.61Z" fill="#263238"/>
    <path d="m59.35,57.94c0,2.1-1.71,3.81-3.81,3.81-2.1,0-3.81-1.71-3.81-3.81,0-2.1,1.71-3.81,3.81-3.81h0c2.1,0,3.81,1.71,3.81,3.81Z" fill="#e0e0e0"/>
    <path d="m71.13,57.94c0,2.1-1.71,3.81-3.81,3.81-2.1,0-3.81-1.71-3.81-3.81,0-2.1,1.71-3.81,3.81-3.81h0c2.1,0,3.8,1.69,3.81,3.79,0,0,0,.01,0,.02Z" fill="#e0e0e0"/>
    <path d="m82.92,57.94c0,2.1-1.71,3.81-3.81,3.81-2.1,0-3.81-1.71-3.81-3.81,0-2.1,1.71-3.81,3.81-3.81h0c2.1,0,3.81,1.71,3.81,3.81Z" fill="#e0e0e0"/>
    <path d="m186.3,150.23h-22l-4.2,10.16h-11.24l21.12-47.4h10.84l21.19,47.4h-11.51l-4.2-10.16Zm-3.45-8.33l-7.52-18.15-7.51,18.15h15.03Z" fill="#455a64"/>
    <path d="m245.9,142.13c0,11.45-7.93,18.76-18.15,18.76-4.88,0-8.81-1.56-11.45-4.74v4.2h-10.09v-50.25h10.57v17.68c2.71-3,6.43-4.4,11-4.4,10.19,0,18.12,7.31,18.12,18.75Zm-10.7,0c0-6.29-4-10.09-9.28-10.09s-9.28,3.8-9.28,10.09,4,10.09,9.28,10.09,9.28-3.79,9.28-10.09Z" fill="#455a64"/>
    <path d="m250.23,142.13c0-11,8.46-18.75,20-18.75s20,7.78,20,18.75-8.4,18.76-20,18.76-20-7.79-20-18.76Zm29.32,0c0-6.29-4-10.09-9.28-10.09s-9.34,3.8-9.34,10.09,4.06,10.1,9.34,10.1,9.32-3.8,9.32-10.1h-.04Z" fill="#455a64"/>
    <path d="m334,123.92v36.43h-10v-4.33c-2.87,3.2-7,4.97-11.3,4.87-9.15,0-15.58-5.14-15.58-16.39v-20.58h10.56v19c0,6.09,2.71,8.8,7.39,8.8s8.39-3.12,8.39-9.82v-18l10.54.02Z" fill="#455a64"/>
    <path d="m367.31,158.59c-2.57,1.62-5.57,2.42-8.6,2.3-8.6,0-13.61-4.4-13.61-13.07v-15h-5.62v-8.09h5.62v-8.87h10.57v8.87h9.07v8.13h-9.07v14.83c0,3.11,1.69,4.8,4.53,4.8,1.53.02,3.03-.45,4.27-1.35l2.84,7.45Z" fill="#455a64"/>
    <path d="m531.34,416.19c-21.38-22.47-52.77-33.47-83.82-33.25-22.68.15-46.34,6.92-67.41-1.44-19.51-7.74-31.89-26.53-47.06-41-23.62-22.35-54.84-34.9-87.36-35.14-21.82-.07-45.84,4.94-63.84-7.4-12.14-8.33-18.35-22.68-26.88-34.69-25-35.21-73.13-49.89-113.41-34.33v187l489.78.25Z" fill="#ebebeb"/>
    <path d="m595.33,416.22c0-1.7-.08-144.19-.21-369.38l.21.21H41.33l.26-.26v369.38l-.24-.24,554.08.24-554.08.24h-.24V46.53h554.52v.21c-.22,225.29-.3,367.78-.3,369.48Z" fill="#263238"/>
    <path d="m110.66,127.64c0,.37-2.72.68-6.09.68s-6.09-.31-6.09-.68,2.73-.67,6.09-.67,6.09.3,6.09.67Z" fill="#263238"/>
    <path d="m117.13,111.08c.37,0,.67,2.76.67,6.18s-.3,6.18-.67,6.18-.67-2.77-.67-6.18.3-6.18.67-6.18Z" fill="#263238"/>
    <path d="m124.02,127.25c0-.38,2.72-.68,6.08-.68s6.09.3,6.09.68-2.72.67-6.09.67-6.08-.3-6.08-.67Z" fill="#263238"/>
    <path d="m117.55,143.81c-.37,0-.67-2.77-.67-6.18s.3-6.18.67-6.18.67,2.77.67,6.18-.3,6.18-.67,6.18Z" fill="#263238"/>
    <path d="m127.39,136.72c-.28.23-1.48-.73-2.68-2.17s-1.93-2.78-1.65-3,1.49.73,2.68,2.16,1.94,2.76,1.65,3.01Z" fill="#263238"/>
    <path d="m126.82,117.92c.27.26-.53,1.49-1.77,2.74s-2.46,2.06-2.72,1.8.53-1.49,1.77-2.75,2.46-2.05,2.72-1.79Z" fill="#263238"/>
    <path d="m112.86,122.72c-.23.28-1.38-.28-2.57-1.27s-1.94-2-1.71-2.3,1.39.28,2.58,1.27,1.92,2,1.7,2.3Z" fill="#263238"/>
    <path d="m112.32,130.98c.27.26-.42,1.46-1.55,2.7s-2.26,2-2.53,1.78.41-1.45,1.54-2.69,2.3-2.05,2.54-1.79Z" fill="#263238"/>
    <path d="m454.26,95.59c0,.21-1.55.38-3.46.38s-3.46-.17-3.46-.38,1.55-.38,3.46-.38,3.46.17,3.46.38Z" fill="#263238"/>
    <path d="m457.93,86.19c.21,0,.38,1.57.38,3.5s-.17,3.51-.38,3.51-.38-1.57-.38-3.51.17-3.5.38-3.5Z" fill="#263238"/>
    <path d="m461.84,95.36c0-.21,1.55-.38,3.46-.38s3.45.17,3.45.38-1.54.39-3.45.39-3.46-.17-3.46-.39Z" fill="#263238"/>
    <path d="m458.17,104.77c-.21,0-.38-1.57-.38-3.51s.17-3.51.38-3.51.38,1.57.38,3.51-.17,3.51-.38,3.51Z" fill="#263238"/>
    <path d="m463.76,100.72c-.17.13-.85-.42-1.53-1.23s-1.09-1.58-.93-1.72.84.42,1.52,1.23,1.1,1.6.94,1.72Z" fill="#263238"/>
    <path d="m463.43,90.07c.15.15-.3.85-1,1.56s-1.4,1.16-1.55,1,.3-.84,1-1.55,1.4-1.16,1.55-1.01Z" fill="#263238"/>
    <path d="m455.51,92.79c-.14.16-.79-.16-1.46-.72s-1.11-1.14-1-1.3.79.15,1.46.71,1.13,1.15,1,1.31Z" fill="#263238"/>
    <path d="m455.2,97.49c.15.14-.24.82-.88,1.53s-1.28,1.15-1.44,1,.24-.83.88-1.53,1.32-1.14,1.44-1Z" fill="#263238"/>
    <path d="m297.21,174.25c-1.75.39-3.55.39-5.3,0,1.74-.4,3.56-.4,5.3,0Z" fill="#263238"/>
    <path d="m300.08,167.04c.39,1.77.39,3.6,0,5.37-.4-1.77-.4-3.6,0-5.37Z" fill="#263238"/>
    <path d="m303.02,174.07c1.75-.39,3.55-.39,5.3,0-1.74.4-3.56.4-5.3,0Z" fill="#263238"/>
    <path d="m300.21,181.28c-.39-1.77-.39-3.61,0-5.38.39,1.77.39,3.61,0,5.38Z" fill="#263238"/>
    <path d="m304.49,178.19c-.12.1-.64-.32-1.16-.94s-.85-1.21-.72-1.32.65.32,1.17.94.84,1.22.71,1.32Z" fill="#263238"/>
    <path d="m304.25,170.01c.11.12-.23.65-.77,1.2s-1.08.89-1.19.78.23-.65.77-1.19,1.07-.9,1.19-.79Z" fill="#263238"/>
    <path d="m298.17,172.1c-.1.12-.6-.12-1.12-.55s-.85-.88-.74-1,.6.12,1.12.55.84.87.74,1Z" fill="#263238"/>
    <path d="m297.93,175.72c.12.11-.18.63-.67,1.17s-1,.89-1.1.78.18-.63.67-1.17.98-.91,1.1-.78Z" fill="#263238"/>
    <path d="m438,185.46c0,.21-1.55.38-3.46.38s-3.46-.12-3.46-.38,1.54-.39,3.45-.39,3.47.18,3.47.39Z" fill="#e0e0e0"/>
    <path d="m441.67,176.05c.21,0,.38,1.57.38,3.51s-.17,3.51-.38,3.51-.38-1.57-.38-3.51.17-3.51.38-3.51Z" fill="#e0e0e0"/>
    <path d="m445.58,185.23c0-.21,1.55-.38,3.46-.38s3.45.17,3.45.38-1.54.38-3.45.38-3.46-.17-3.46-.38Z" fill="#e0e0e0"/>
    <path d="m441.91,194.64c-.21,0-.38-1.58-.38-3.51s.17-3.51.38-3.51.38,1.57.38,3.51-.21,3.51-.38,3.51Z" fill="#e0e0e0"/>
    <path d="m447.5,190.6c-.17.14-.85-.41-1.53-1.22s-1.09-1.59-.93-1.72.84.41,1.52,1.22,1.1,1.59.94,1.72Z" fill="#e0e0e0"/>
    <path d="m447.17,179.94c.15.15-.3.84-1,1.55s-1.4,1.17-1.55,1,.3-.84,1-1.56,1.4-1.14,1.55-.99Z" fill="#e0e0e0"/>
    <path d="m439.25,182.65c-.14.17-.79-.15-1.46-.71s-1.11-1.15-1-1.31.79.16,1.46.72,1.13,1.14,1,1.3Z" fill="#e0e0e0"/>
    <path d="m438.94,187.35c.15.15-.24.83-.88,1.53s-1.28,1.16-1.44,1,.24-.83.88-1.53,1.28-1.14,1.44-1Z" fill="#e0e0e0"/>
    <path d="m255.76,96.2l.45,1.08c.79,1.88,2.29,3.37,4.18,4.14l1.18.48-1.13.45c-1.92.78-3.44,2.31-4.21,4.23l-.32.78-.48-1c-.86-1.8-2.39-3.19-4.27-3.87l-1-.38,1.34-.64c1.69-.83,3.01-2.26,3.72-4l.54-1.27Z" fill="#e0e0e0"/>
    <path d="m80.13,177.12l.3.72c.52,1.25,1.52,2.24,2.78,2.75l.78.32-.75.3c-1.27.52-2.28,1.53-2.8,2.81l-.21.52-.32-.65c-.57-1.2-1.59-2.12-2.83-2.58l-.68-.24.89-.43c1.11-.55,1.99-1.48,2.47-2.62l.37-.9Z" fill="#e0e0e0"/>
    <path d="m522.68,107.36l.29.72c.53,1.25,1.53,2.24,2.78,2.76l.78.31-.74.31c-1.28.51-2.29,1.52-2.81,2.8l-.21.53-.31-.66c-.58-1.19-1.59-2.12-2.84-2.57l-.68-.25.89-.43c1.12-.54,2-1.47,2.47-2.62l.38-.9Z" fill="#e0e0e0"/>
    <path d="m524.01,137.72l.45,1.08c.78,1.89,2.29,3.38,4.18,4.15l1.18.47-1.13.46c-1.92.78-3.44,2.3-4.22,4.22l-.31.79-.48-1c-.86-1.8-2.39-3.19-4.27-3.87l-1-.37,1.34-.65c1.68-.82,3-2.22,3.72-3.94l.54-1.34Z" fill="#263238"/>
    <path d="m339.24,89.65l.21.51c.38.89,1.1,1.59,2,1.94l.55.23-.53.21c-.91.36-1.64,1.09-2,2l-.15.37-.23-.46c-.4-.85-1.12-1.5-2-1.82l-.48-.17.63-.31c.79-.38,1.41-1.04,1.75-1.85l.25-.65Z" fill="#263238"/>
    <path d="m199.84,172.55l.27.65c.47,1.14,1.38,2.04,2.52,2.5l.71.29-.68.27c-1.16.47-2.08,1.39-2.54,2.55l-.19.48-.29-.6c-.52-1.08-1.45-1.92-2.58-2.33l-.62-.23.81-.39c1.01-.49,1.81-1.34,2.25-2.38l.34-.81Z" fill="#263238"/>
  </g>
  <g>
    <path d="m385.03,113.85c13.53-.88,21.75-.88,27.28,8.07,5.55,8.94-14.04,40.24,5.93,45.52s29.73-10.9,37.99-26.83c8.29-15.91,12.22-35.01,12.25-44.55" fill="none" stroke="#f49f35" stroke-linecap="round" stroke-linejoin="round" stroke-width="24"/>
    <path d="m388,171.14c5.93-7.95,12.85-9.3,21.61-10.43" fill="none" stroke="#f49f35" stroke-linecap="round" stroke-linejoin="round" stroke-width="24"/>
  </g>
  <g id="freepik--speech-bubble--inject-51">
    <path d="m604.4,147.31c-23.47.01-42.48,19.05-42.47,42.51,0,11.7,4.83,22.87,13.35,30.9l-5.74,20.1,20.3-11.1c22.06,8.04,46.46-3.33,54.5-25.38s-3.33-46.46-25.38-54.5c-4.66-1.7-9.59-2.57-14.55-2.57v.04Z" fill="#f5f5f5"/>
    <path d="m604.4,147.31h.76l2.22.09c.49,0,1,0,1.64.09l2,.29c.71.12,1.48.19,2.29.37l2.55.64c10.29,2.78,19.14,9.36,24.75,18.42l1.32,2.17c.38.76.76,1.54,1.14,2.33,2.42,5.04,3.78,10.52,4,16.11.1,2,.07,4-.1,6-.07,1-.28,2-.42,3-.08.51-.15,1-.23,1.53l-.39,1.52c-.98,4.2-2.62,8.21-4.87,11.89-4.79,8-12.06,14.21-20.71,17.69-9.32,3.68-19.62,4.03-29.17,1l-1.38-.48h.21c-6.92,3.79-13.71,7.51-20.3,11.1l-.53.3.16-.59c2-6.93,3.91-13.65,5.75-20.1l.07.25c-2.64-2.51-4.97-5.34-6.92-8.42-1.85-2.97-3.34-6.15-4.44-9.48-1.03-3.19-1.67-6.48-1.93-9.82-.08-.81-.11-1.62-.12-2.42-.05-.8-.05-1.6,0-2.4.02-1.56.16-3.13.41-4.67.84-5.74,2.86-11.25,5.92-16.18,2.62-4.23,5.93-7.97,9.81-11.08l2.64-2,2.67-1.62c.83-.51,1.7-.97,2.59-1.36.86-.39,1.66-.84,2.5-1.14,2.79-1.11,5.68-1.93,8.64-2.45l3.22-.47,2.36-.1h1.94-.49l-1.44.1-2.36.14-3.2.5c-2.94.55-5.81,1.39-8.58,2.51-.83.3-1.62.76-2.47,1.15-.89.4-1.75.86-2.58,1.37l-2.68,1.63-2.57,2c-3.83,3.09-7.1,6.81-9.68,11-3,4.9-4.97,10.37-5.77,16.06-.24,1.53-.37,3.08-.4,4.63-.05.79-.05,1.58,0,2.37,0,.79,0,1.59.12,2.4.27,3.3.91,6.55,1.93,9.7,2.22,6.74,6.09,12.82,11.26,17.69l.11.1-.05.15c-1.83,6.44-3.75,13.16-5.72,20.1l-.37-.3,20.29-11.1.1-.06h.12l1.37.47c9.43,3,19.61,2.65,28.81-1,8.55-3.43,15.75-9.57,20.49-17.47,2.23-3.63,3.86-7.6,4.84-11.75.13-.5.26-1,.38-1.5l.24-1.52c.13-1,.34-2,.42-3,.17-1.97.2-3.95.11-5.92-.19-5.54-1.52-10.99-3.91-16l-1.12-2.31-1.3-2.15c-3.14-5.09-7.32-9.45-12.28-12.79-3.74-2.51-7.87-4.41-12.21-5.63l-2.54-.67c-.8-.18-1.57-.26-2.27-.39l-2-.31c-.6-.09-1.15-.08-1.63-.12l-2.22-.14c-.55.08-.8.05-.8.05Z" fill="#263238"/>
    <path d="m595.08,184h3l6.56-9.15v-6s4.65-.28,4.1,7.58,0,5.85,0,5.85c0,0,9.86,0,10.68.9.6.62.87,10.42,1,15.74.13,2.64-1.55,5.02-4.07,5.79-.35.09-.71.14-1.07.14-2.46,0-15-2-15-2h-5.2v-18.85Z" fill="#263238"/>
    <polygon points="586.51 182.35 588.36 202.91 593.51 202.91 593.51 182.76 586.51 182.35" fill="#263238"/>
  </g>
  <g id="freepik--character-1--inject-51">
    <path d="m173.24,190.79c-.17,3.21-4.35,7.49-3.06,10.43,2.38,5.42,1,11.91-2.08,17s-7.69,9-12.22,12.78c.23-7.9-.46-15.81-2.05-23.55-.5-2.42-1.32-5.12-3.53-6.22-2.87-1.42-6.51.63-9.45-.63-3.13-1.36-3.76-5.64-6.4-7.8-2.39-1.95-5.9-1.74-8.83-.76s-5.62,2.63-8.63,3.3-6.64.07-8.31-2.53c-1-1.6-.29-.62-1.27-2.25,0,0-5.87.2-7.89-6.63,0,0-2.76-7.59,3.35-10.94,0,0,1.39-13.72,15.18-7.55,4,1.78,8.66-3.94,12.53-2,3.22,1.63,4.17,6.11,7.39,7.75,3.7,1.88,8-.92,12.14-1.09,5.52,0,10,4.48,10,10,0,0,.65-2.74,5.14-1.54s8.31,5.97,7.99,12.23Z" fill="#263238"/>
    <path d="m167.39,212.87c.09-1.55-.2-3.1-.84-4.52-.58-1.17-2.75-3.83-5.13-4l.35-14.13c.05-2.91-2.11-5.38-5-5.7l-27.69-2.92c-9.27-.98-17.57,5.74-18.55,15-.03.24-.05.48-.06.72-.67,10.65-1.07,23.68.19,31.62,2.54,16,14.78,18,14.78,18l-.3,11.16c-.47,11.89,8.43,19.05,17.61,19.05s17.66-7.93,17.39-19.7l.9-36c1.55-.14,2.99-.86,4.05-2,1.52-1.85,2.34-4.18,2.3-6.58Z" fill="#ffbe9d"/>
    <path d="m116.61,205.99c0,1.12.88,2.04,2,2.07,1.09.06,2.03-.76,2.11-1.85.04-1.1-.82-2.03-1.93-2.07-.02,0-.05,0-.07,0-1.09-.06-2.03.76-2.11,1.85Z" fill="#263238"/>
    <path d="m113.25,204.1c.25.27,1.8-.88,4-.88s3.82,1.11,4.06.84c.11-.12-.15-.6-.85-1.11-.95-.66-2.09-1.01-3.25-1-1.14-.02-2.26.33-3.19,1-.67.55-.94,1.03-.77,1.15Z" fill="#263238"/>
    <path d="m137.89,206.4c-.01,1.12.88,2.04,2,2.07,1.09.06,2.03-.76,2.11-1.85.01-1.12-.88-2.04-2-2.07-1.09-.06-2.03.76-2.11,1.85Z" fill="#263238"/>
    <path d="m134.92,204.51c.25.27,1.8-.88,4-.87s3.82,1.1,4.06.83c.11-.12-.14-.6-.85-1.11-.95-.66-2.09-1.01-3.25-1-1.14-.01-2.26.34-3.19,1-.67.55-.9,1.03-.77,1.15Z" fill="#263238"/>
    <path d="m126.91,220.86c-1.16-.36-2.36-.58-3.58-.65-.56-.05-1.09-.17-1.19-.55-.04-.58.09-1.16.38-1.67l1.66-4.27c2.32-6.11,4-11.13,3.74-11.22s-2.32,4.78-4.63,10.89c-.56,1.5-1.09,2.94-1.59,4.31-.36.68-.46,1.46-.3,2.21.17.4.51.7.93.82.33.09.66.14,1,.14,1.19.15,2.39.15,3.58-.01Z" fill="#263238"/>
    <path d="m125.39,246.95c7.52.11,14.93-1.86,21.4-5.71,0,0-5.54,12-21.53,10.53l.13-4.82Z" fill="#eb996e"/>
    <path d="m133.92,200.65c.22.6,2.42.32,5,.63s4.68,1,5,.48c.15-.26-.21-.82-1.05-1.4-1.12-.72-2.4-1.17-3.73-1.31-1.32-.16-2.66,0-3.91.46-.92.39-1.4.86-1.31,1.14Z" fill="#263238"/>
    <path d="m112.89,198.97c.39.5,1.9,0,3.73,0s3.37.33,3.73-.19c.16-.26-.09-.76-.76-1.23-1.85-1.15-4.22-1.08-6,.19-.66.47-.87.98-.7,1.23Z" fill="#263238"/>
    <path d="m127.4,233.34s.15-.32.6-.6c.61-.36,1.3-.55,2-.54.7,0,1.39.17,2,.52.45.28.65.54.61.59-.83-.31-1.7-.51-2.58-.58-.9.07-1.79.27-2.63.61Z" fill="#eb996e"/>
    <path d="m159.95,217.12c.52-.21,1.03-.46,1.52-.74,1.11-.73,1.8-1.95,1.85-3.28.02-1.34-.59-2.6-1.66-3.41-.45-.31-.97-.52-1.52-.59-.05-.06.74-.33,1.73.28,1.27.81,2.02,2.22,2,3.72-.01.82-.27,1.62-.74,2.29-.37.54-.87.99-1.44,1.31-.51.35-1.13.5-1.74.42Z" fill="#eb996e"/>
    <path d="m107.41,177.79c-2.58,6.9,3.55,11.9,8.33,13,6.68,1.56,13.78-2.66,18.35-.87,3.41,1.34,6.63,4,10.25,3.45,1.76-.26,3.5-1.27,5.21-.81,2.19.6,3.08,3.26,3,5.53-.06,2.8-1,5.58-.65,8.36s2.83,5.65,5.54,4.91c2.61-.87,4.41-3.25,4.54-6,.32-3.85-.39-8.43-.2-12.29.17-3.4.18-7.14-2-9.77s-5.86-3.34-9.25-3.8c-14.3-1.97-28.73-2.73-43.16-2.28" fill="#263238"/>
    <path d="m99,179.26c-.09-.23-.13-.47-.14-.72-.04-.71.11-1.43.42-2.07.49-1.03,1.35-1.85,2.41-2.29.67-.25,1.39-.33,2.1-.23.75.07,1.5.27,2.29.31.82.05,1.64-.13,2.36-.52.79-.44,1.53-.97,2.19-1.59.72-.62,1.45-1.3,2.29-1.91.87-.64,1.88-1.08,2.94-1.29,2.29-.35,4.64.05,6.69,1.14,2.13,1.18,4.12,2.6,5.92,4.23,1.75,1.63,3.75,2.98,5.91,4,1.03.43,2.14.6,3.25.5,1.05-.16,2.06-.5,3-1,1.75-1.05,3.62-1.91,5.56-2.56,1.75-.5,3.59-.56,5.36-.17,1.46.33,2.81,1.05,3.89,2.09.81.78,1.44,1.73,1.85,2.78.26.66.39,1.36.41,2.07.01.18.01.37,0,.55v.18c-.01-.93-.2-1.85-.54-2.72-.43-1-1.06-1.91-1.86-2.65-1.06-.97-2.36-1.64-3.77-1.94-1.71-.35-3.48-.27-5.16.22-1.91.66-3.74,1.53-5.47,2.58-1,.52-2.08.86-3.2,1-1.19.12-2.39-.06-3.49-.51-2.21-1.03-4.25-2.4-6.05-4.06-1.77-1.61-3.73-3.01-5.82-4.17-1.95-1.04-4.18-1.44-6.37-1.13-2.09.35-3.6,1.82-5,3.06-.7.63-1.47,1.17-2.29,1.61-.79.41-1.68.6-2.57.54-.83-.06-1.58-.27-2.3-.36-.67-.11-1.36-.05-2,.18-1,.4-1.83,1.15-2.33,2.11-.32.62-.5,1.3-.5,2-.02.49.1.73.02.74Z" fill="#455a64"/>
    <path d="m106.73,190.38c-.23.06-.47.06-.7,0-.68-.13-1.27-.56-1.62-1.16-.48-.97-.62-2.08-.38-3.14.24-1.4.8-2.73,1.64-3.87,1.02-1.4,2.44-2.47,4.07-3.06,1.87-.7,3.92-.75,5.83-.15,2.03.76,3.92,1.83,5.61,3.18,1.76,1.43,3.75,2.55,5.89,3.3,2.19.55,4.49.43,6.6-.36,2-.72,3.92-1.63,5.73-2.73,1.66-1,3.38-1.9,5.15-2.71,1.55-.71,3.22-1.14,4.92-1.27,2.5-.21,4.98.62,6.85,2.3.48.47.88,1.02,1.18,1.62.11.21.19.43.24.66-.39-.8-.91-1.52-1.55-2.13-1.86-1.56-4.27-2.31-6.69-2.09-1.66.16-3.28.6-4.78,1.31-1.74.81-3.44,1.72-5.08,2.73-1.84,1.12-3.78,2.06-5.81,2.79-2.21.83-4.62.96-6.91.38-2.18-.77-4.21-1.92-6-3.38-1.64-1.33-3.48-2.38-5.45-3.14-1.81-.58-3.76-.55-5.55.09-1.56.56-2.92,1.56-3.92,2.88-.83,1.09-1.39,2.36-1.64,3.7-.26,1-.16,2.06.27,3,.3.58.82,1.01,1.45,1.19.21.04.43.06.65.06Z" fill="#455a64"/>
    <path d="m167.97,217.03s.36-.48.89-1.4c.73-1.31,1.13-2.78,1.19-4.28.05-1.01-.08-2.03-.38-3-.37-1.12-.91-2.18-1.6-3.14-.7-1-1.53-2.1-2.26-3.3-.83-1.23-1.28-2.68-1.31-4.16.14-1.46.6-2.88,1.34-4.15.64-1.13,1.02-2.39,1.12-3.68.06-2.22-1.07-4.31-2.95-5.49-1.29-.76-2.81-1.06-4.29-.84-.54.1-1.08.23-1.6.39.11-.09.24-.16.37-.22.39-.17.79-.29,1.2-.37,1.54-.31,3.14-.05,4.5.72,2.05,1.21,3.29,3.44,3.25,5.82-.09,1.36-.48,2.69-1.14,3.89-.7,1.21-1.14,2.55-1.28,3.94.02,1.39.45,2.74,1.23,3.89.7,1.16,1.52,2.22,2.22,3.29.71,1.01,1.25,2.12,1.62,3.29.3,1.03.41,2.11.33,3.18-.09,1.52-.55,3.01-1.34,4.31-.22.36-.47.69-.75,1-.25.22-.35.32-.36.31Z" fill="#455a64"/>
    <path d="m126.08,205.36c-.09-.84-.23-1.67-.42-2.49-1.4-5.43-6.94-8.69-12.37-7.29-.31.08-.62.18-.92.29-1.86.7-3.47,1.91-4.65,3.51-2.59,3.52-2.59,8.33,0,11.85.58.83,1.3,1.55,2.12,2.14.77.59,1.62,1.05,2.53,1.37,3.21,1.18,6.8.66,9.54-1.4,1.83-1.38,3.15-3.33,3.75-5.55.19-.82.33-1.65.42-2.48.06.85-.01,1.7-.22,2.53-.53,2.34-1.87,4.42-3.78,5.88-2.82,2.18-6.56,2.77-9.92,1.56-.96-.33-1.86-.81-2.67-1.42-.86-.62-1.61-1.37-2.23-2.23-2.75-3.7-2.75-8.76,0-12.46,1.24-1.68,2.94-2.95,4.9-3.66,1.77-.63,3.67-.78,5.52-.43,4,.78,7.18,3.82,8.13,7.78.22.81.31,1.66.27,2.5Z" fill="#263238"/>
    <path d="m149.52,205.36c-.09-.84-.23-1.67-.42-2.49-1.4-5.42-6.93-8.69-12.35-7.29-.31.08-.62.18-.93.29-1.86.69-3.48,1.91-4.66,3.51-2.59,3.52-2.59,8.33,0,11.85.59.82,1.3,1.55,2.12,2.14.77.58,1.63,1.05,2.54,1.37,5.27,1.91,11.09-.81,13-6.08.1-.27.18-.54.26-.82.19-.82.33-1.65.42-2.48.07.85,0,1.71-.22,2.53-.52,2.31-1.83,4.37-3.7,5.83-2.82,2.18-6.56,2.77-9.92,1.56-.96-.33-1.86-.81-2.67-1.42-.86-.62-1.62-1.37-2.24-2.23-2.73-3.7-2.73-8.76,0-12.46,1.24-1.67,2.95-2.95,4.91-3.66,1.77-.63,3.67-.78,5.52-.43,3.99.78,7.17,3.82,8.12,7.78.21.82.28,1.66.22,2.5Z" fill="#263238"/>
    <path d="m129.52,203.64h0v.1h0v-.18h0v.2c-.55.12-1.12.18-1.68.16-1,0-1.83-.12-1.83-.26s.82-.26,1.83-.26c.56-.02,1.13.03,1.68.16v.2h0v-.18h0v.1h0v-.04Z" fill="#263238"/>
    <path d="m161.87,205.9c-2.1.11-4.21.05-6.3-.19-2.1-.06-4.2-.3-6.26-.71,2.1-.1,4.21-.04,6.3.19,2.1.07,4.2.3,6.26.71Z" fill="#263238"/>
    <path d="m136.08,220.31c.19.52.21,1.08.07,1.61-.44,2.75-2.87,4.74-5.66,4.63-.55.03-1.1-.1-1.57-.39,0-.08.62.08,1.57,0,2.54-.09,4.71-1.86,5.3-4.33.29-.91.23-1.52.29-1.52Z" fill="#263238"/>
    <path d="m96.47,292.1c.01.11.01.21,0,.32v.94c0,.86,0,2.08.05,3.62,0,3.17,0,7.7.07,13.29,0,11.22-.34,26.72-1.21,43.82s-1.77,32.55-2.38,43.79c-.28,5.57-.51,10.1-.67,13.27-.08,1.54-.14,2.74-.18,3.6,0,.39-.05.7-.06.94.01.11.01.21,0,.32-.02-.11-.02-.21,0-.32v-.94c0-.86.05-2.07.09-3.61.09-3.14.25-7.68.5-13.28.47-11.21,1.38-26.69,2.23-43.79s1.31-32.59,1.37-43.81c0-5.58.07-10.11.09-13.28,0-1.54,0-2.76.05-3.62v-.94c0-.11.02-.22.05-.32Z" fill="#263238"/>
    <path d="m193.08,274.88c-5.38-6.21-15.89-7.12-20.55-3.75s-7.25,9.09-7.72,14.82,1,11.48,3.18,16.79c3.51,8.52,8.7,15.42,16.45,24.2l20,26.22-38.55,37.64,16,25.21,32.77-26.4,27.1-28.72" fill="#ff7200"/>
    <path d="m53.69,355.72c.63-.46,1.33-.8,2.08-1,1.77-.6,3.64-.85,5.51-.75,1.87.1,3.71.56,5.41,1.34.74.28,1.42.69,2,1.22,0,.07-.8-.37-2.1-.88-1.69-.67-3.48-1.06-5.29-1.16-1.81-.09-3.63.11-5.38.58-1.39.37-2.19.73-2.23.65Z" fill="#263238"/>
    <path d="m198.27,280.77h0c-13.45-17.84-27.93-16.37-35.31-16.58v-7.83c-5.45,0-12.9,4.91-16.75,8.42l-3.81,5.23h0c-1.98-5.81-6.6-10.33-12.44-12.21-2.08-.66-4.21-1.14-6.37-1.44v7c-18.08.51-27.75,5.45-39.83,19.43-.62.72-1.85,1.95-3.26,3.34h0l-35.74,42c-7.3,8.08-14,19.2-12.43,30h0c1.71,12.16,8.8,20.16,22.37,29.33l37.6,24.37-.18,4.19h89.73s60.85-44.89,62.34-61.52c1.16-13.14-19.8-40.99-45.92-73.73Zm-104.46,95.31l-26.31-19.63,28.42-29.41-2.11,49.04Zm86.16,1.56l-.71-14.53,3.82-38.17c7.5,8.6,21.38,25.67,21.38,28.22l-24.49,24.48Z" fill="#ff7200"/>
    <path d="m162.94,264.23c-.19.42-.42.81-.68,1.19-.48.74-1.17,1.81-2.08,3.1-2.34,3.38-4.98,6.55-7.87,9.48-.85.86-1.71,1.67-2.55,2.44l-.42.39v-.57c-.05-3.29-1.37-6.43-3.68-8.76-.61-.73-1.4-1.29-2.29-1.62-.34-.07-.7,0-1,.17.24-.3.63-.43,1-.35.96.27,1.83.81,2.49,1.56,1.08,1.03,1.98,2.24,2.64,3.58.83,1.69,1.28,3.53,1.32,5.41l-.42-.19c.82-.77,1.68-1.57,2.52-2.43,2.87-2.91,5.53-6.03,7.95-9.32l2.2-3c.25-.39.54-.75.87-1.08Z" fill="#263238"/>
    <path d="m123.57,263.4c.29.28.55.59.78.93l2,2.63c1.67,2.24,3.93,5.36,6.41,8.82l1.62,2.26-.45.07c.48-1.62,1.15-3.17,2-4.63.7-1.19,1.69-2.17,2.89-2.85.79-.46,1.68-.7,2.59-.72.34-.03.68.01,1,.14h-1c-.86.09-1.69.37-2.43.83-1.11.7-2.03,1.66-2.68,2.8-.8,1.44-1.45,2.97-1.92,4.55l-.16.47-.29-.4-1.62-2.26c-2.48-3.46-4.7-6.61-6.29-8.9-.73-1.09-1.35-2-1.85-2.73-.24-.31-.44-.65-.6-1.01Z" fill="#263238"/>
    <g opacity=".1">
      <path d="m142.38,270.05c3.03,3.32,4.46,7.81,3.91,12.27-.19,1.46-.36,3.41,1,3.95.95.37,2-.28,2.77-.92,5.83-4.7,10.63-10.56,14.1-17.2.34-.52.52-1.13.52-1.75-.02-.64-.53-1.15-1.17-1.17-.41.11-.77.37-1,.73-4.16,4.8-8.76,9.79-12.92,14.58.19-2.67-.64-5.31-2.31-7.39-1.65-2-3.45-4.07-4.87-3.1"/>
    </g>
    <path d="m180.75,414.34c-.12-.13-.22-.27-.31-.42-.22-.32-.49-.74-.84-1.26l-3.07-4.76c-2.61-4.14-6.26-9.91-10.51-16.62l-.1-.17.14-.13,9.38-9.36,20.41-20.2c2.6-2.54,4.72-4.6,6.22-6.08l1.72-1.63c.19-.2.4-.38.62-.55-.16.22-.35.43-.55.62-.41.43-1,1-1.64,1.71l-6.14,6.23-20.31,20.31c-3.3,3.29-6.48,6.44-9.39,9.33v-.3c4.18,6.75,7.78,12.55,10.35,16.72,1.24,2,2.24,3.66,2.95,4.84.32.53.57,1,.77,1.3.12.13.22.27.3.42Z" fill="#263238"/>
    <path d="m169.72,274.37l-.15.19-.46.54c-.43.46-1,1.18-1.72,2.12-1.98,2.7-3.29,5.83-3.83,9.13-.64,4.92.14,9.93,2.23,14.43,1.14,2.69,2.62,5.22,4.4,7.53,1.89,2.41,3.89,4.82,5.94,7.41,8.07,10.17,15,19.64,20.1,26.44l6,8.07c.69.92,1.23,1.66,1.63,2.2l.41.58.13.2s-.07-.05-.17-.17l-.45-.55-1.7-2.19c-1.47-1.87-3.57-4.59-6.15-8-5.16-6.74-12.15-16.18-20.2-26.33-2-2.55-4-5-5.94-7.37-1.8-2.35-3.29-4.93-4.44-7.66-2.11-4.59-2.85-9.68-2.15-14.68.77-4.25,2.82-8.17,5.88-11.23l.5-.5c.07-.11.13-.17.14-.16Z" fill="#263238"/>
    <path d="m203.45,287.28s-.55.24-1.49.74c-1.31.73-2.51,1.65-3.55,2.73-1.53,1.62-2.87,3.41-4,5.34-1.37,2.41-2.86,4.74-4.47,7-3.06,4.16-7.84,6.71-13,6.92-1.53.08-3.06-.07-4.55-.43-.4-.09-.8-.21-1.19-.35-.14-.05-.27-.1-.4-.17,2,.48,4.06.68,6.12.58,2.22-.15,4.39-.73,6.39-1.71,2.44-1.2,4.56-2.97,6.18-5.16,1.77-2.3,3.11-4.76,4.47-6.9,1.16-1.94,2.56-3.74,4.15-5.35,1.09-1.09,2.34-1.98,3.72-2.66.38-.18.76-.33,1.16-.45.15-.06.3-.11.46-.13Z" fill="#fafafa"/>
    <path d="m179.6,375.21h-.24l-.67-.16c-.3-.08-.67-.13-1.11-.2-.5-.08-1.01-.14-1.52-.17-3.26-.15-6.53.27-9.65,1.24-2.17.62-4.29,1.4-6.35,2.32-2.22,1-4.52,2.22-7,3.39-2.59,1.27-5.3,2.3-8.08,3.06-1.49.38-3.01.62-4.54.72-1.58.08-3.17-.04-4.73-.34-3.04-.69-5.95-1.89-8.59-3.54-2.58-1.54-4.89-3.29-7.1-4.91-4.37-3.28-8.55-6-12.52-7.18-1.77-.55-3.61-.85-5.47-.9-1.4-.03-2.8.14-4.15.49-1.15.32-2.26.77-3.32,1.33l.19-.14.6-.36c.79-.43,1.62-.76,2.48-1,1.37-.39,2.79-.58,4.21-.58,1.88.02,3.75.3,5.56.83,4.06,1.15,8.31,3.89,12.7,7.15,2.22,1.62,4.53,3.34,7.08,4.86,2.59,1.62,5.44,2.8,8.43,3.47,1.51.3,3.06.41,4.6.33,1.5-.09,2.99-.32,4.44-.69,2.75-.75,5.43-1.75,8-3,2.48-1.16,4.79-2.38,7-3.35,2.08-.91,4.23-1.68,6.42-2.28,3.16-.95,6.47-1.32,9.76-1.09,1.22.07,2.42.3,3.57.7Z" fill="#fafafa"/>
    <path d="m80.75,366.33s.05.12.08.35c.06.33.1.66.12,1,.1,1.24.05,2.48-.16,3.71-.3,1.84-1.01,3.59-2.08,5.12-1.37,1.82-3.12,3.31-5.13,4.39-2,1.23-4.07,2.26-5.72,3.46-1.49,1.01-2.8,2.27-3.86,3.73-.7.98-1.1,2.15-1.15,3.36,0,.86.13,1.33.07,1.34-.06-.1-.1-.21-.12-.33-.09-.33-.14-.66-.16-1-.04-1.26.31-2.51,1-3.57,1.05-1.53,2.37-2.86,3.89-3.92,1.68-1.25,3.71-2.3,5.73-3.51,1.94-1.05,3.64-2.49,5-4.23,1.05-1.46,1.77-3.13,2.11-4.9.23-1.2.34-2.42.32-3.64-.01-.45,0-.91.06-1.36Z" fill="#fafafa"/>
    <path d="m231.66,324.94c-2.05.34-4.05.97-5.93,1.86-2.01.98-3.82,2.34-5.33,4-.88.98-1.64,2.07-2.26,3.24-.66,1.21-1.11,2.58-1.76,3.93-.6,1.36-1.5,2.56-2.63,3.52-1.07.87-2.28,1.55-3.58,2-2.19.73-4.5,1.01-6.8.84-1.54-.09-3.06-.27-4.58-.54-.56-.07-1.11-.19-1.65-.35.56,0,1.13.05,1.68.15,1.08.11,2.63.32,4.56.37,2.25.11,4.5-.2,6.63-.93,2.62-.85,4.76-2.76,5.9-5.27.63-1.32,1.09-2.7,1.78-3.95.66-1.19,1.46-2.3,2.39-3.29,1.56-1.7,3.44-3.08,5.53-4.06,1.4-.66,2.88-1.13,4.4-1.38.41-.07.83-.11,1.25-.14.13-.02.27-.02.4,0Z" fill="#fafafa"/>
    <path d="m181.96,333.38l-.23.07-.68.15c-.6.13-1.49.29-2.65.47-3.27.5-6.57.74-9.87.7-4.92-.03-9.8-.86-14.45-2.45-2.73-.99-5.36-2.23-7.86-3.69-2.65-1.57-5.43-2.93-8.3-4.05-1.46-.52-2.98-.85-4.52-1-1.5-.11-3.01-.04-4.49.22-2.79.57-5.49,1.55-8,2.9-4.85,2.57-8.93,5.43-12.62,7.42-2.85,1.69-5.96,2.91-9.21,3.6-.88.19-1.77.29-2.67.29h-.7c-.08.01-.16.01-.24,0h.24l.69-.08c.89-.05,1.77-.18,2.64-.39,3.2-.76,6.26-2.01,9.07-3.71,3.63-2,7.69-4.91,12.57-7.53,2.56-1.4,5.31-2.41,8.17-3,1.52-.27,3.08-.35,4.62-.24,1.59.16,3.15.51,4.65,1.05,2.9,1.13,5.7,2.5,8.37,4.1,2.48,1.45,5.09,2.68,7.78,3.68,4.6,1.59,9.42,2.45,14.29,2.53,3.29.07,6.57-.1,9.83-.53,1.16-.15,2.05-.28,2.66-.38l.69-.09c.07-.02.15-.04.22-.04Z" fill="#fafafa"/>
    <path d="m84.21,339.16c.1-.51.08-1.04-.06-1.54-.57-1.31-1.74-2.27-3.14-2.57-.87-.26-1.86-.41-2.92-.65-1.18-.22-2.28-.72-3.21-1.47-.98-.88-1.74-1.98-2.22-3.2-.49-1.3-.88-2.64-1.15-4-.26-1.33-.64-2.62-1.14-3.88-.48-1.16-1.11-2.25-1.87-3.24-1.28-1.7-2.94-3.09-4.83-4.07-1.26-.66-2.61-1.14-4-1.42-1-.2-1.57-.24-1.57-.29.14-.03.28-.03.42,0,.4.01.79.05,1.18.11,1.46.2,2.87.64,4.19,1.29,1.96.97,3.67,2.37,5,4.11.81,1.02,1.49,2.14,2,3.33.52,1.29.91,2.63,1.18,4,.27,1.32.64,2.63,1.11,3.89.45,1.14,1.16,2.17,2.06,3,.87.71,1.9,1.2,3,1.42,1,.26,2,.43,2.93.72,1.49.36,2.7,1.43,3.23,2.86.1.4.1.81,0,1.21-.03.14-.1.28-.19.39Z" fill="#fafafa"/>
    <path d="m163.19,287.87c-.93-.51-1.92-.91-2.94-1.19-1.21-.25-2.47-.25-3.68,0-1.62.32-3.19.85-4.67,1.57-1.67.75-3.43,1.73-5.35,2.74-2.03,1.13-4.19,2.03-6.43,2.67-2.52.62-5.14.7-7.69.25-2.72-.5-5.36-1.37-7.84-2.59-5.11-2.49-9.36-5.83-13.46-8.43-3.53-2.46-7.48-4.26-11.65-5.33-2.82-.69-5.76-.73-8.59-.1-1.02.28-2.02.61-3,1,.94-.53,1.95-.93,3-1.19,2.86-.71,5.85-.73,8.72-.06,4.23,1.03,8.24,2.81,11.83,5.28,4.14,2.59,8.39,5.92,13.42,8.37,2.44,1.2,5.03,2.06,7.7,2.56,2.49.44,5.03.37,7.49-.22,2.21-.61,4.34-1.48,6.35-2.58,1.92-1,3.7-2,5.4-2.7,1.52-.71,3.12-1.22,4.77-1.52,1.26-.21,2.54-.17,3.78.14.77.21,1.51.52,2.2.92.22.12.43.26.64.41Z" fill="#fafafa"/>
    <path d="m157.54,414.83l2.78,1.39h16l3.23-2.64-11.64-19.26c-1.43.63-7.71,1.61-9.74,2.32-1.75.61-3.59.93-5.45.92-2.07.05-4.14-.13-6.17-.51l-.44-.14c-.27-.12-.56-.18-.86-.18-1.73-.15-3.1,1.66-2.13,3.09s5.7,3.34,11.74,3.17h.29c5.3,0,.44,4.44-2.71,7.08-1.13.91-1.71,2.35-1.52,3.79.04.52.3.99.71,1.3,1.34.85,5.91-.33,5.91-.33Z" fill="#ffbe9d"/>
    <path d="m92.25,412.44c-.01-.09-.01-.19,0-.28v-.83c0-.77.06-1.84.11-3.19.12-2.8.28-6.79.49-11.71.41-9.92,1-23.56,1.61-38.63s1-28.76,1.28-38.65c.11-4.92.19-8.91.25-11.72,0-1.35.05-2.42.07-3.19v-.82c-.01-.1-.01-.19,0-.29.01.1.01.19,0,.29v4.01c0,2.77,0,6.77-.08,11.72-.14,9.9-.54,23.57-1.13,38.67s-1.24,28.75-1.76,38.63c-.28,4.91-.5,8.9-.66,11.7-.09,1.35-.16,2.42-.21,3.18l-.07.83c.04.09.08.18.1.28Z" fill="#263238"/>
    <path d="m135.78,414.34c-.02-.12-.02-.25,0-.37,0-.27-.05-.63-.09-1.09l-.29-4.21c-.12-1.82-.27-4.06-.35-6.66s-.27-5.55-.29-8.82-.14-6.86-.09-10.71v-6c0-2.09.09-4.16.14-6.32.25-8.65.7-18.15,1.4-28.11,1.4-19.93,3.18-37.92,4.32-50.95.56-6.5,1-11.76,1.34-15.44.15-1.79.28-3.2.36-4.19.05-.46.08-.82.11-1.09s.05-.37.05-.37c.01.12.01.25,0,.37l-.05,1.1c-.07,1-.16,2.4-.27,4.2-.23,3.65-.64,8.93-1.17,15.45-1.05,13-2.77,31-4.17,50.95-.7,10-1.16,19.45-1.44,28.09,0,2.16-.11,4.27-.16,6.32s0,4-.07,6c-.06,3.84,0,7.42,0,10.69s.15,6.23.21,8.82.17,4.84.26,6.66.15,3.22.2,4.21v1.1c.03.12.05.25.05.37Z" fill="#263238"/>
    <path d="m143.14,315.82c-.05-.05.51-.28,1.13.25.36.32.54.79.49,1.27-.18.8-.97,1.31-1.78,1.13-.4-.09-.74-.34-.95-.68-.2-.43-.18-.93.05-1.35.41-.71,1-.67,1-.6s-.43.17-.66.76c-.15.32-.15.68,0,1,.36.46,1.03.54,1.49.19.16-.13.29-.3.35-.5.04-.34-.06-.67-.28-.93-.38-.51-.84-.45-.84-.54Z" fill="#263238"/>
    <path d="m140.33,360.72c-.05-.05.52-.29,1.14.25.35.32.53.79.48,1.26-.11.61-.6,1.08-1.21,1.15-.6.12-1.21-.16-1.52-.69-.2-.44-.17-.94.06-1.36.41-.71,1-.66,1-.6s-.43.18-.66.76c-.15.32-.15.68,0,1,.29.47.9.62,1.38.33.23-.14.4-.37.45-.64.05-.33-.06-.67-.28-.92-.37-.54-.84-.47-.84-.54Z" fill="#263238"/>
    <path d="m212.08,391.57c-.45-.01-.9-.07-1.34-.17-1.21-.26-2.39-.64-3.52-1.13-3.77-1.67-6.92-4.49-9-8.05-1.05-1.98-1.89-4.07-2.49-6.23-.49-1.73-1.24-3.38-2.21-4.9-.67-1.01-1.53-1.87-2.54-2.54-.73-.45-1.19-.6-1.17-.65.12,0,.23.04.34.08.32.1.63.24.93.4,1.09.62,2.02,1.47,2.74,2.5,1.04,1.54,1.84,3.22,2.37,5,.61,2.12,1.44,4.17,2.48,6.12,2.03,3.48,5.07,6.27,8.71,8,1.52.64,3.09,1.17,4.7,1.57Z" fill="#fafafa"/>
  </g>
  <g id="freepik--character-2--inject-51">
    <path d="m314.52,416.19l-17-49.34,7.86-47.34c2.29-12.77,3.57-24,.14-30.43-9.17-17.13-20.24-18.67-35.36-22.6-3.12-.81-26.85-1.61-29.46-1-20.59,2.31-33.77,13.23-41,31l-7.84,31.6-10.77,33c-1.83,3.88-5.32,6.73-9.49,7.73l-41.52,14.19.35,8.13-.35,11,55.3-10.41c11.08-2.08,22.35-6.17,25.53-16.86l5.95-17.62c2.91,7.46,6.08,14.3,6.08,14.3l-4,44.43,95.58.22Z" fill="#455a64"/>
    <path d="m300.28,328.53l-15.8,52.83c-2.45,8.18-8.83,14.59-17,17.08l-65.76,17.52-8.72-22.7,59.44-22.1,14.59-52.9s3.37-29.58,30.12-28.06" fill="#455a64"/>
    <path d="m297.14,290.2h-.8c-.53,0-1.31-.06-2.34,0-3.01.09-5.99.69-8.79,1.79-2.03.79-3.94,1.86-5.67,3.18-2.06,1.58-3.88,3.45-5.41,5.54-3.67,5.21-6.04,11.22-6.93,17.53h0c-4,14.72-9,32.74-14.53,52.93v.12h-.11l-59.48,22.21.15-.33,1.55,4c2.45,6.4,4.87,12.7,7.16,18.67l-.31-.16,56.5-15,6.37-1.7c1-.28,2.09-.54,3.11-.84,1-.32,1.98-.69,2.94-1.12,5.48-2.48,9.89-6.84,12.43-12.3.76-1.69,1.38-3.43,1.86-5.22,1.05-3.49,2.05-6.83,3-10,3.85-12.74,6.94-23,9.07-30l2.47-8.1.65-2.09c.15-.47.24-.71.24-.71,0,0-.06.25-.19.72s-.34,1.19-.61,2.11c-.55,1.87-1.35,4.6-2.38,8.13l-8.92,30.07c-.94,3.19-1.94,6.53-3,10-.48,1.81-1.1,3.57-1.86,5.28-.81,1.78-1.81,3.45-3,5-2.54,3.26-5.83,5.86-9.58,7.58-.98.44-1.98.82-3,1.15-1,.3-2.07.56-3.12.85l-6.37,1.7-56.49,15.08-.22.06-.08-.21c-2.29-6-4.72-12.28-7.17-18.67l-1.55-4-.09-.24.24-.09,59.45-22.08-.15.16c5.59-20.17,10.58-38.19,14.65-52.89h0c.91-6.36,3.33-12.42,7.06-17.65,1.55-2.11,3.4-3.99,5.49-5.57,1.76-1.32,3.69-2.38,5.74-3.17,2.83-1.1,5.83-1.67,8.86-1.71.78-.04,1.56-.04,2.34,0h.82Z" fill="#263238"/>
    <path d="m255.71,359.29c-.26.06-.53.08-.79.06-.72,0-1.43-.09-2.13-.25-2.33-.54-4.48-1.68-6.24-3.29-1.79-1.58-3.18-3.56-4.06-5.77-.16-.38-.29-.77-.39-1.17-.09-.29-.16-.6-.2-.9-.08-.5-.11-.78-.07-.78s.27,1.08,1,2.7c.95,2.11,2.34,3.99,4.06,5.53,1.71,1.56,3.77,2.69,6,3.32,1.7.46,2.82.44,2.82.55Z" fill="#263238"/>
    <path d="m216.66,319.11c-.14.53-.32,1.05-.55,1.55-.39,1-1,2.41-1.63,4.19-1.3,3.53-3.13,8.54-3.32,14.3-.09,2.71.27,5.41,1.09,8,.67,2.1,1.58,4.11,2.71,6,.76,1.28,1.59,2.52,2.49,3.71.36.42.7.87,1,1.34,0,0-.12-.09-.32-.3s-.47-.5-.81-.91c-.98-1.15-1.86-2.37-2.66-3.65-1.19-1.9-2.14-3.94-2.85-6.07-.85-2.62-1.24-5.37-1.15-8.13.31-4.97,1.49-9.85,3.47-14.42.71-1.76,1.35-3.16,1.79-4.13.21-.51.45-1.01.74-1.48Z" fill="#263238"/>
    <path d="m258.22,378.21c-.64-1.46-1.45-2.84-2.42-4.1-1.1-1.15-2.34-2.16-3.69-3,.49.04.95.2,1.36.47,2.09,1.12,3.68,2.97,4.48,5.2.21.45.3.94.27,1.43Z" fill="#263238"/>
    <path d="m194.21,396.42s-18.81,1.68-18.55,13.9l23.42-1.19-4.87-12.71Z" fill="#b78876"/>
    <path d="m224.53,191.65c-1.72,8.32-3.36,16.65-4.92,25-2,10.58-3.8,21.64-.81,32,1.64,5.68,4.66,10.84,7.65,15.94,1.68,2.86,3.52,5.88,6.5,7.36,4.05,2,9.17.42,12.4-2.75s4.86-7.59,6-12c2.17-8.54,2.65-17.41,3-26.22s.53-17.95-2-26.49-8.07-16.62-16.32-20" fill="#263238"/>
    <path d="m225.89,184.97c2.35-1.83,5.21-2.89,8.19-3.05,2.4-4.86,8.09-7.09,13.41-8.12,7.84-1.53,7-1.74,14.29,1.48s17.67,12.32,19,20.2c1.21,6.91,3.42,13.61,6.57,19.88,2,4.15,5.9,7,8.21,11,2.53,4.4,2.88,9.71.95,14.4-1.88,4.51-5.87,8.49-5.49,13.35.21,2.83.11,4.85,1.23,7.46,3.79,8.84,2,20.62-6.14,25.72s-19.92,3.32-26.21-4c-5.46-6.32-6.51-15.34-6-23.68s2.43-16.63,1.89-25" fill="#263238"/>
    <path d="m235.23,415.96l-.12-2.88-42.4-4.47-18.58-53.41-79.57-1.8,24.07,62.56c39.34.3,78.21.3,116.6,0Z" fill="#263238"/>
    <path d="m138.71,385.54c1.15,1.99,3.69,2.68,5.68,1.53,1.99-1.15,2.68-3.69,1.53-5.68-1.15-1.99-3.69-2.68-5.68-1.53,0,0,0,0,0,0-1.99,1.15-2.68,3.69-1.53,5.68Z" fill="#fff"/>
    <path d="m254.54,287.14c9.54,0,18.12-8.13,17.84-20.21l1.72-69h0c.06-3-2.18-5.54-5.16-5.85l-28.43-3c-9.51-1-18.04,5.9-19.04,15.41-.03.24-.05.49-.06.73-.68,10.92-1.09,24.29.2,32.44,2.6,16.39,15.17,18.48,15.17,18.48l-.31,11.45c-.48,12.2,8.65,19.54,18.07,19.54h0Z" fill="#b78876"/>
    <path d="m227.77,214.12c-.01,1.13.87,2.07,2,2.12,1.1.09,2.07-.73,2.16-1.83,0-.02,0-.04,0-.06.02-1.13-.87-2.07-2-2.12-1.1-.09-2.07.73-2.16,1.83,0,.02,0,.04,0,.06Z" fill="#263238"/>
    <path d="m224.31,212.18c.26.27,1.86-.9,4.12-.9s3.92,1.14,4.16.86c.12-.12-.14-.61-.86-1.14-.98-.67-2.15-1.02-3.34-1-1.17,0-2.32.37-3.27,1.06-.7.5-.93,1-.81,1.12Z" fill="#263238"/>
    <path d="m249.61,214.54c-.02,1.13.87,2.07,2,2.12,1.1.1,2.07-.72,2.17-1.82,0-.02,0-.05,0-.07.01-1.13-.87-2.07-2-2.12-1.1-.1-2.07.72-2.17,1.82,0,.02,0,.05,0,.07Z" fill="#263238"/>
    <path d="m246.55,212.6c.26.28,1.85-.9,4.11-.9s3.92,1.14,4.17.86c.12-.12-.14-.61-.87-1.14-.98-.66-2.14-1.01-3.33-1-1.18,0-2.33.37-3.28,1.06-.69.5-.93,1-.8,1.12Z" fill="#263238"/>
    <path d="m238.34,229.38c-1.19-.37-2.42-.59-3.67-.66-.58-.06-1.13-.18-1.23-.57-.05-.6.09-1.2.39-1.72.54-1.39,1.11-2.86,1.71-4.39,2.37-6.27,4.09-11.42,3.83-11.51s-2.38,4.91-4.75,11.17c-.57,1.55-1.12,3-1.64,4.43-.36.7-.46,1.49-.3,2.26.17.41.52.73.95.85.33.09.66.13,1,.13,1.23.16,2.48.17,3.71.01Z" fill="#263238"/>
    <path d="m236.78,256.15c7.72.12,15.32-1.91,21.95-5.86,0,0-5.33,11.26-21.73,9.73l-.22-3.87Z" fill="#aa6550"/>
    <path d="m239.3,234.83c.87-1.11,2.25-1.68,3.65-1.51,1.01.09,1.93.58,2.57,1.37.62.77.69,1.85.18,2.7-.75.85-1.94,1.15-3,.75-1.07-.38-2.05-.96-2.89-1.72-.25-.18-.47-.41-.64-.67-.18-.26-.18-.59,0-.85" fill="#aa6550"/>
    <path d="m245,230.94c-.37,0-.38,2.44-2.48,4.18s-4.71,1.47-4.73,1.82c0,.15.58.47,1.69.5,1.45.03,2.87-.45,4-1.37,1.07-.88,1.75-2.14,1.91-3.51.05-1.02-.23-1.63-.39-1.62Z" fill="#263238"/>
    <path d="m245.53,208.64c.22.62,2.48.33,5.14.65s4.8,1,5.15.49c.16-.27-.22-.84-1.08-1.44-1.15-.74-2.46-1.2-3.82-1.34-1.35-.16-2.72,0-4,.47-.99.4-1.48.88-1.39,1.17Z" fill="#263238"/>
    <path d="m225.14,205.63c.4.52,2,0,3.84,0s3.46.34,3.82-.19c.16-.26-.09-.78-.78-1.26-1.9-1.2-4.35-1.13-6.17.19-.66.48-.88,1.01-.71,1.26Z" fill="#263238"/>
    <path d="m221.75,202.5c6.17-3.58,12.18-6.89,16-12.89,2.13,6,6.29,9,11.81,12.19s11.69,5.06,17.8,6.89c-3.09,3-3.5,7.85-2.79,12.1s2.34,8.34,2.61,12.64c.35,5.74-1.75,11.37-1.88,17.12-.18,7.89,3.3,15.34,6.71,22.45l14.81-8.63-2.13-38.45.18-27.21-23.09-21.46-29.24,3.2-10.79,22.05Z" fill="#263238"/>
    <path d="m218.46,283.35c7.51,7.59,6.71,21.12,15,27.91,5.06,4.16,12.45,4.55,18.66,2.45s11.43-6.35,16.22-10.83,9.32-9.29,14.77-12.92c5.29-3.53,14.35-5.7,15.63-11.94.94-4.56-3.86-10.05-4.76-14.62-1.43-7.26,6.42-12.87,7.73-20.15,2.62-14.55-5.06-31.63-13.06-44s-12.52-26.38-32.8-27.53c-18.15-.81-30.51,7.9-36.55,20.5-3,6.31-3.73,13.45-4.32,20.43-1.37,16.3-2.13,33.58,5.4,48.1,1.56,3,3.42,6.82,1.32,9.48-1.92,2.43-6.27,2.33-7.49,5.18s1.99,5.65,4.25,7.94Zm22.62-96.63c2.43-.1,9.64,0,17.68,10.71,4.81,6.41,4.8,16.79,4.7,25.84-.09,6.73,0,23.76,0,23.76,0,0,1.06,21.51-6.25,23.41-9,2.34-16.83.73-23.54-5.66s-10.55-15.36-12.08-24.5-2.39-18.46-1.19-27.65c.63-5.64,2.5-11.07,5.46-15.91,3.41-5.35,8.95-8.99,15.22-10Z" fill="#ff7200"/>
    <g opacity=".3">
      <path d="m297.14,270.99c-6,3.26-10.15,8.11-15,12.89s-10.34,9.41-17,11.13-14.67-.33-18-6.32c18.77,3.2,40.56-11.79,47-29.72-.38,1.56-.41,3.18-.06,4.75.87,2.48,1.89,4.91,3.06,7.27Z"/>
    </g>
    <g opacity=".3">
      <path d="m222.51,266.04c1.32,4.91,4.6,9.05,9.07,11.46,1.03.43,1.99,1,2.86,1.69.88.73,1.22,1.92.87,3-.65,1.11-2,1.61-3.22,1.18-1.15-.46-2.18-1.19-3-2.12-3.27-3.16-6.64-6.36-7.56-10.8.53-.65.9-1.41,1.08-2.23.05-.73.01-1.46-.1-2.18Z"/>
    </g>
    <path d="m292.65,262.52c-.07.2-.16.4-.28.58-.21.37-.48.94-.91,1.62-1.18,1.95-2.47,3.83-3.88,5.62-2.07,2.68-4.36,5.18-6.85,7.47-3.03,2.85-6.47,5.23-10.2,7.07-1.97.86-3.99,1.58-6.06,2.17-1.92.56-3.88.99-5.86,1.3-3.35.55-6.75.67-10.13.38-2.27-.21-4.52-.64-6.71-1.28-.78-.21-1.36-.45-1.76-.59-.21-.06-.41-.14-.6-.25,0,0,.86.24,2.42.64,2.19.57,4.43.94,6.69,1.11,3.34.24,6.7.08,10-.48,1.95-.32,3.88-.76,5.78-1.32,2.05-.58,4.05-1.3,6-2.15,3.68-1.83,7.08-4.19,10.09-7,2.48-2.26,4.79-4.71,6.88-7.34,1.43-1.76,2.76-3.6,4-5.5.45-.66.75-1.21,1-1.56.11-.17.24-.34.38-.49Z" fill="#263238"/>
    <path d="m246.62,281.07c-.38.16-.78.26-1.19.31-1.1.2-2.22.3-3.34.3-7.62.03-14.63-4.18-18.2-10.91-.53-.99-.97-2.03-1.31-3.1-.15-.39-.24-.79-.28-1.2.57,1.41,1.21,2.78,1.92,4.12,3.64,6.48,10.43,10.56,17.86,10.72,2.81.08,4.53-.35,4.54-.24Z" fill="#263238"/>
    <path d="m242.73,305.85c.19-.08.38-.13.58-.15.38-.09,1-.17,1.68-.35,2.06-.44,4.08-1.01,6.07-1.69,6.55-2.32,12.7-5.62,18.27-9.77,5.56-4.17,10.82-8.72,15.75-13.61l4.54-4.4c.5-.49.92-.88,1.24-1.19.14-.15.29-.28.46-.39-.11.17-.24.32-.38.46l-1.18,1.26c-1,1.08-2.53,2.63-4.42,4.52-4.87,4.99-10.12,9.59-15.7,13.78-5.6,4.18-11.83,7.45-18.46,9.69-2.01.66-4.07,1.17-6.15,1.54-.73.15-1.32.2-1.71.25-.19.04-.39.06-.59.05Z" fill="#263238"/>
  </g>
  <g id="freepik--character-3--inject-51">
    <path d="m594.89,326.83l-35.28-41.6-.08.08c-1.39-1.37-2.61-2.59-3.23-3.3-12.22-14.16-21.93-19-40.64-19.26h0l-36.36.78c-6.76.56-22.1-2.33-36.29,16.48h0c-25.85,32.39-46.58,59.94-45.41,72.94,1.47,16.45,64.21,63.35,64.21,63.35l86.24-.07-.18-6.57,37.21-24.15c13.42-9.07,20.43-17,22.13-29,1.49-10.68-5.13-21.68-12.32-29.68Zm-158,24.76c0-2.53,13.6-18.48,21-27l3.85,36.83-.66,14.39-24.19-24.22Zm109.41,22.67l-2.05-48.54h0l28.12,29.09-26.07,19.45Z" fill="#455a64"/>
    <rect x="433.38" y="360.15" width="77.95" height="53.35" rx="3.42" ry="3.42" transform="translate(-122.5 249.33) rotate(-26.3)" fill="#e0e0e0"/>
    <path d="m472.08,382.91c1.86-1.14,4.29-.55,5.43,1.31,1.14,1.86.55,4.29-1.31,5.43-1.86,1.14-4.29.55-5.43-1.31,0,0,0,0,0,0-1.14-1.86-.55-4.29,1.31-5.43Z" fill="#fff"/>
    <path d="m543.71,291.18c.01.11.01.21,0,.32v4.5c0,3.14.06,7.62.1,13.15.06,11.1.49,26.42,1.35,43.34s1.74,32.23,2.21,43.32c.24,5.54.4,10,.49,13.14,0,1.52.06,2.72.08,3.57v.93c.01.11.01.21,0,.32-.01-.11-.01-.21,0-.32,0-.24,0-.54-.06-.93,0-.85-.11-2-.18-3.57-.16-3.13-.39-7.61-.66-13.12-.61-11.12-1.44-26.42-2.36-43.32s-1.24-32.26-1.2-43.36c0-5.52,0-10,.07-13.15,0-1.52,0-2.72.05-3.57v-.93c.03-.11.06-.22.11-.32Z" fill="#263238"/>
    <path d="m453.92,269.43c4.6-3.35,9.95-2.34,14.56,1s7.17,9,7.63,14.67-1,11.35-3.15,16.61c-3.47,8.43-8.6,15.25-16.27,23.93l-19.76,25.95,38.15,37.24-15.81,24.94-31.94-25.71c-10.91-9.21-20.19-18.63-27-28.37" fill="#455a64"/>
    <path d="m400.32,359.72l.23.3.67.9c.59.79,1.47,2,2.66,3.46,3.42,4.28,7.1,8.35,11,12.19,2.5,2.49,5.35,5.16,8.53,8s6.76,5.65,10.56,8.7l25.4,20.38-.35.06c4.91-7.75,10.24-16.17,15.79-24.95v.32l-19.68-19.2-18.46-18-.16-.15.13-.18c7-9.15,13.62-17.85,19.78-25.94h0c3.76-4.14,7.25-8.53,10.45-13.12,2.85-4.19,5.16-8.72,6.87-13.49,1.62-4.23,2.38-8.75,2.24-13.28-.17-3.81-1.33-7.52-3.37-10.74-1.68-2.59-4.02-4.69-6.78-6.08-2.02-1.08-4.3-1.58-6.59-1.46-1.42.11-2.8.52-4.05,1.2-.86.46-1.26.77-1.27.75l.3-.23c.3-.22.61-.42.93-.59,1.25-.71,2.64-1.15,4.08-1.28,2.32-.15,4.64.34,6.7,1.42,2.81,1.38,5.2,3.49,6.91,6.11,2.1,3.27,3.3,7.02,3.48,10.9.17,4.52-.55,9.03-2.12,13.27-1.7,4.81-4.02,9.39-6.88,13.61-3.2,4.61-6.69,9.02-10.45,13.18h0c-6.16,8.09-12.79,16.8-19.75,26v-.34l18.47,18,19.67,19.21.15.15-.11.17c-5.56,8.78-10.9,17.19-15.82,24.93l-.14.23-.21-.17-25.35-20.45c-3.79-3.06-7.39-5.9-10.54-8.74s-6-5.51-8.51-8c-3.9-3.88-7.55-7.99-10.95-12.31-1.17-1.5-2-2.7-2.6-3.51-.28-.39-.49-.7-.64-.92s-.22-.31-.22-.31Z" fill="#263238"/>
    <path d="m586.08,354.12c-.68-.16-1.35-.37-2-.62-3.2-1.02-6.66-.83-9.73.51-.62.32-1.27.6-1.93.83.51-.49,1.11-.89,1.77-1.17,3.11-1.58,6.74-1.77,10-.52.68.21,1.32.54,1.89.97Z" fill="#263238"/>
    <path d="m482.89,412.6l-6.94,3.45c-3.44,1.71-7.56,1.25-10.54-1.18l-4.33-3.53,12-18.87c1.41.61,7.21,1.43,9.21,2.14,1.73.61,3.56.91,5.39.9,2.05.04,4.1-.12,6.11-.5.13-.05.31-.09.43-.14.27-.11.57-.16.86-.15,1.71-.16,3.07,1.64,2.11,3s-5.64,3.3-11.62,3.13h-.28c-5.25,0-.43,4.39,2.68,7,1.12.9,1.69,2.32,1.5,3.75-.03.51-.29.98-.7,1.29-1.36.88-5.88-.29-5.88-.29Z" fill="#f09563"/>
    <path d="m498.95,280.12c-9.2,0-17.47-7.84-17.39-19.52l-1.66-66.51h.19c-.06-2.9,2.12-5.35,5-5.64l27.42-2.9c9.17-.97,17.38,5.68,18.35,14.85.03.24.05.48.06.71.66,10.53,1.06,23.42-.19,31.28-2.54,15.83-14.65,17.85-14.65,17.85l.29,11c.47,11.76-8.34,18.84-17.42,18.84v.04Z" fill="#f09563"/>
    <path d="m524.76,209.72c0,1.09-.86,1.97-1.95,2-1.06.09-2-.7-2.09-1.76,0-.02,0-.05,0-.07,0-1.1.9-2,2-2,1.06-.02,1.95.78,2.04,1.83Z" fill="#263238"/>
    <path d="m528.08,207.84c-.25.27-1.78-.87-4-.86s-3.77,1.09-4,.83.14-.6.84-1.11c.94-.65,2.06-1,3.21-1,1.13,0,2.24.34,3.16,1,.7.55.93,1.02.79,1.14Z" fill="#263238"/>
    <path d="m503.71,210.12c.03,1.1-.85,2.02-1.95,2.05-.02,0-.03,0-.05,0-1.08.05-2-.76-2.09-1.83-.03-1.1.85-2.02,1.95-2.05.02,0,.03,0,.05,0,1.08-.05,2,.76,2.09,1.83Z" fill="#263238"/>
    <path d="m506.65,208.25c-.25.27-1.79-.87-4-.87s-3.78,1.1-4,.83c-.12-.11.14-.59.84-1.1.94-.66,2.06-1.01,3.21-1,1.13,0,2.24.34,3.16,1,.69.54.92,1.02.79,1.14Z" fill="#263238"/>
    <path d="m514.57,224.43c1.15-.37,2.34-.58,3.54-.64.56-.06,1.09-.17,1.18-.55.05-.57-.08-1.15-.37-1.65-.53-1.35-1.07-2.76-1.65-4.24-2.29-6-3.94-11-3.7-11.1s2.3,4.73,4.58,10.77c.56,1.49,1.08,2.91,1.58,4.27.35.67.46,1.45.29,2.19-.17.39-.5.69-.91.81-.31.08-.63.13-.95.13-1.19.15-2.4.15-3.59.01Z" fill="#263238"/>
    <path d="m516.08,250.24c-7.44.11-14.77-1.85-21.17-5.65,0,0,5.48,11.89,21.29,10.41l-.12-4.76Z" fill="#a27152"/>
    <path d="m507.63,204.43c-.21.6-2.39.31-4.95.62s-4.63,1-5,.48c-.16-.26.2-.82,1-1.39,2.26-1.43,5.05-1.74,7.56-.83,1.01.41,1.49.84,1.39,1.12Z" fill="#263238"/>
    <path d="m527.29,201.53c-.38.5-1.89,0-3.69,0s-3.34.33-3.69-.19c-.16-.25.09-.74.75-1.21.89-.58,1.94-.86,3-.81,1.06.01,2.09.36,2.94,1,.65.46.86.97.69,1.21Z" fill="#263238"/>
    <path d="m480.08,209.2c2.69-.48,4.84.35,5.6,3,1.13,3.95.36,5.9.55,8.62l4-1.2c-1-9.11,1.27-15.85.28-25,5.56,1.8,13.2-1.64,15.57-7.4,4.82,3.54,11.24,3.99,16.5,1.16,1.33,2.42,4.08,3.71,6.79,3.18,3-.85,6.18-5.12,7.05-8.15,1.56-5.45.8-13.27-3.62-16.82s-13.28-2.7-16.72,1.81c-1.36,1.78-1.52,5.07-3.71,5.52-1.95.4-3.72-1-5.5-1.92-5.55-2.75-13.22.9-14.59,6.94-4.64-2.77-10.26-4.58-15.45-3.09s-9.33,7.25-7.56,12.35c.73,2.14,2.38,4,2.56,6.23.35,4.35-4.87,8.29-3.2,12.32.93,2.26,3.66,3.26,4.89,5.37,1.38,2.36.52,5.34.64,8.07.18,4.56,2.52,11.31,6.89,12.61" fill="#263238"/>
    <path d="m480.49,209.15c-1.37.19-2.52,1.12-3,2.41-.58,1.21-.86,2.55-.81,3.89-.09,2.1.59,4.16,1.9,5.8,1.38,1.63,3.65,2.21,5.64,1.43" fill="#c37152"/>
    <path d="m483.22,219.25s-.59.27-1.52-.06c-.54-.21-1.01-.55-1.37-1-.43-.58-.69-1.28-.73-2-.05-.69.09-1.38.41-2,.27-.51.65-.94,1.12-1.27.82-.54,1.46-.51,1.45-.45-.43.22-.83.47-1.22.75-.88.74-1.35,1.86-1.24,3,.06,1.13.72,2.14,1.73,2.65.45.16.9.29,1.37.38Z" fill="#8f5039"/>
    <path d="m507.63,232.15c2,1.37,5.78.65,7.2-1.38-3.05-1.66-5.86-3.73-8.36-6.15,0,0-2.84,4.72,1.16,7.53Z" fill="#fafafa"/>
    <path d="m514.08,236.77c-.81-.32-1.67-.53-2.54-.6-.87.07-1.72.26-2.54.57,0,0,.15-.31.6-.58,1.2-.69,2.69-.69,3.89,0,.45.29.65.56.59.61Z" fill="#aa6550"/>
  </g>
  <g id="freepik--character-4--inject-51">
    <path d="m489.75,300.8c4.22-6.23,8.06-12.71,11.49-19.4,4.13-7.88,3.43-8.28,2.44-8.63-2.66-.95-7.79,13.57-8.47,9.77s8.3-17,5.48-17.84c-3.68-1.14-8.77,14.17-9.29,15.43s-2.35.49-1.81-.62c.77-1.59,8.43-18.58,4.82-19.73-2-.63-2.72,3.11-2.72,3.11,0,0-6,16.45-7.69,15.85s1.5-10.39,2.81-13.61.33-5.13-1.54-4.57c-1.28.38-5.53,10.14-6.75,13.35s-4.42,12.1-6.36,6.35c0-.09-.07-.17-.11-.26-1.75-5.72-5-9.54-6.69-10s-2.92,1.4-2.22,3c.09.28.24.54.44.75.09.1.18.25.27.36,1,1.79,1.82,3.67,2.44,5.62.59,1.74.89,3.56.87,5.4,0,2.13,1,8.33.92,9.86" fill="#ffad9d"/>
    <path d="m467.08,292.72l-24.19,48s-13.68-39.57-21.06-55.31c-2.81-6-8.45-10.16-13.86-12.92v-.11l-1.13-.45c-3.88-1.86-7.96-3.27-12.16-4.21-25.52-7.31-49.56-4.76-77.39,5,0,0-14.45,3.88-21.46,22.73-6.3,17-13.37,43-14.58,47.6-8.67,29.18,3.71,45.43,20.94,43.43,7.1-1.12,13.14-7,15.81-9.28l9.11-8.56.2,6.63-10.23,40.95,104.74-.22-18.9-48.49,4.2-22.23,7.19,17.08c6.41,15.24,23.95,22.4,39.19,15.99,6.97-2.93,12.57-8.39,15.68-15.28l24.49-61.66-26.59-8.69Z" fill="#ff7200"/>
    <path d="m340.95,352.56c-.28.47-.59.93-.94,1.35-.63.84-1.58,2.05-2.79,3.5-2.41,2.91-5.88,6.82-9.91,10.95s-7.87,7.68-10.75,10.13c-1.43,1.24-2.62,2.2-3.46,2.84-.41.38-.86.71-1.34,1,.37-.4.78-.77,1.21-1.11.8-.69,1.95-1.7,3.35-3,2.8-2.53,6.59-6.11,10.61-10.23s7.54-8,10-10.82c1.25-1.42,2.23-2.59,2.91-3.39.33-.44.71-.85,1.11-1.22Z" fill="#263238"/>
    <path d="m403.26,365.95c0-.19,0-.38.05-.56.08-.42.16-.94.27-1.58l1.09-5.82c.92-4.91,2.18-11.69,3.18-19.24.25-1.89.48-3.72.68-5.51.25-1.7.34-3.41.29-5.13-.19-2.91-.62-5.8-1.29-8.63-.54-2.44-1-4.4-1.31-5.77-.14-.69-.22-1.23-.26-1.59-.02-.19-.02-.38,0-.57.06.18.1.36.12.55.07.36.19.89.36,1.57.33,1.35.88,3.29,1.47,5.73.73,2.85,1.2,5.76,1.41,8.69.06,1.74-.03,3.48-.26,5.2-.19,1.79-.42,3.64-.67,5.53-1,7.57-2.33,14.35-3.34,19.24-.52,2.39-.94,4.35-1.25,5.79-.15.63-.27,1.15-.36,1.57-.04.18-.1.36-.18.53Z" fill="#263238"/>
    <path d="m440.76,352.46c.38-3.94,1.11-7.84,2.17-11.66-.11,1.99-.39,3.98-.85,5.92-.28,1.95-.72,3.87-1.32,5.74Z" fill="#263238"/>
    <path d="m444.45,353.88c-.5-2.22-.84-4.48-1-6.75-.35-2.25-.53-4.53-.53-6.81.5,2.22.84,4.48,1,6.75.35,2.25.53,4.53.53,6.81Z" fill="#263238"/>
    <path d="m367.19,416c-.14,0-.26-16.08-.26-35.9s.12-35.91.26-35.91.26,16.07.26,35.91-.12,35.9-.26,35.9Z" fill="#263238"/>
    <g opacity=".2">
      <path d="m406.49,314.45c4.91,9.41,9.18,18.77,9.57,29.38.3,8.25-3,15.13.41,22.65-.17.13-3.08-6.35-4.37-9.39-2.65-6.26-5-11.85-5-11.85,0,0,1.82-14.13,2-16.54s-2.61-14.25-2.61-14.25Z"/>
    </g>
    <g opacity=".2">
      <path d="m284.96,362.26c0,4.72-2.93-10.86-.19-14.69,1.93-2.69,5.23-4,8.43-4.79s6.55-1.32,9.39-3c3.67-2.17,6-6,8.57-9.36s6-17.75,10.24-18.06v21c-10.15,6.57-20.72,12.5-31.62,17.73-3.14,2.85-4.9,6.93-4.82,11.17Z"/>
    </g>
    <g opacity=".2">
      <path d="m327.08,368.65c6.85-3.85,11.85-9,19.59-10.33,7.45-1.32,15.12,0,22.66-.52-.41-3.81-.82-7.62-1.25-11.44l-21.57-.24-19.43,22.53Z"/>
    </g>
    <path d="m321.4,312.12c.14,0,.26,4.67.26,10.43s-.12,10.44-.26,10.44c-.26-3.47-.35-6.96-.26-10.44-.09-3.48,0-6.96.26-10.43Z" fill="#263238"/>
    <path d="m284.94,362.15c-.16-.61-.2-1.24-.12-1.86.1-1.51.46-2.98,1.06-4.37.59-1.39,1.42-2.66,2.45-3.76.39-.49.88-.89,1.42-1.2-1.35,1.57-2.49,3.31-3.39,5.17-.75,1.93-1.22,3.96-1.42,6.02Z" fill="#263238"/>
    <path d="m289.25,351.28c.54-.14,1.06-.33,1.57-.57,1-.4,2.44-1,4.19-1.83,3.5-1.6,8.27-4,13.33-7s9.47-5.95,12.56-8.21c1.55-1.14,2.79-2.08,3.62-2.75.45-.33.87-.69,1.26-1.09-.49.27-.96.58-1.4.92l-3.71,2.6c-3.15,2.18-7.57,5.09-12.62,8.06s-9.77,5.39-13.22,7.08l-4.1,2c-.52.22-1.01.48-1.48.79Z" fill="#263238"/>
    <path d="m420.65,222.54c-1.72-2.25-4.45-4-5-6.75-.69-3.69,3-7.15,2.33-10.85-.44-2.53-2.77-4.31-5.15-5.29s-5-1.45-7.18-2.76c-2.62-1.68-4.63-4.15-5.73-7.06-.33-.79-.61-1.61-.85-2.43-.22-1.77-.63-3.51-1.21-5.19-.09-.44-.17-.88-.25-1.32l.11,1c-.33-.83-.77-1.62-1.3-2.34-1.83-2.44-5.49-3.8-8-2.09l1.2-.8c-3.09-7.46-9.85-12.77-17.83-14-1.5-.21-3.01-.26-4.52-.15-5.39-.28-13.18,1.29-16.47,3.38-4.2,2.66-8.5,6.31-10.61,10.82-1.13,2.43-1.9,5.24-4,6.86-2.86,2.16-6.87,1.32-10.44,1.72-5.88.67-11,5.18-13,10.75-1.88,5.7-1.29,11.93,1.64,17.17.62,1.15,1.35,2.48.86,3.69-.51.9-1.3,1.6-2.25,2-2.4,1.24-4.31,3.24-5.44,5.69-1,2.49-.62,5.64,1.4,7.4,1.72,1.38,4.06,1.71,6.1.87-.6,1.51-.91,3.11-.93,4.73-.09,3.61,1.79,6.97,4.91,8.79,3.13,1.63,7.51.77,9.35-2.24-.04,6.79,5.44,12.33,12.23,12.36,2.4.01,4.75-.68,6.77-1.98,1.48-1,3-2.32,4.75-2s2.74,2,3.94,3.22c3.2,3.33,8.66,3.71,12.87,1.82s7.31-5.67,9.54-9.71c2.28,3.42,6.9,4.34,10.32,2.05,1.4-.93,2.44-2.31,2.95-3.91,4.2,5.44,12.01,6.44,17.45,2.23,2.9-2.24,4.66-5.64,4.82-9.29,5.58-.83,9.44-6.02,8.62-11.6-.25-1.71-.94-3.33-1.99-4.71v-.08Zm-100.58,3.09v-.06l.1-.05-.1.11Z" fill="#263238"/>
    <path d="m383.52,250.72s12.81-2.12,15.46-18.83c1.32-8.31.9-21.93.2-33.06-.61-9.73-8.99-17.12-18.72-16.51-.25.02-.49.04-.74.06l-29,3.07c-3.05.32-5.34,2.93-5.26,6l3.05,72.58c-2.11.45-6.9,1.49-9.25,2.17,0,0,22.42,50.11,27.91,49.53s27.43-48,27.43-48c-3.82-1.15-7.7-2.1-11.62-2.85-.06-4.73.12-9.45.54-14.16Z" fill="#ffad9d"/>
    <path d="m392.7,207.93c.01,1.16-.9,2.12-2.06,2.16-1.1.12-2.08-.68-2.2-1.78,0-.05,0-.1-.01-.15-.01-1.16.9-2.12,2.06-2.16,1.13-.09,2.12.75,2.21,1.88,0,.02,0,.03,0,.05Z" fill="#263238"/>
    <path d="m396.23,205.95c-.27.28-1.89-.92-4.2-.91s-4,1.16-4.24.88c-.13-.13.14-.63.88-1.17,1.01-.68,2.2-1.04,3.41-1.03,1.2,0,2.37.38,3.34,1.08.66.52.94,1.03.81,1.15Z" fill="#263238"/>
    <path d="m370.45,208.36c.01,1.16-.91,2.12-2.07,2.16-1.1.12-2.08-.68-2.2-1.78,0-.05,0-.1-.01-.15-.01-1.16.91-2.12,2.07-2.16,1.13-.09,2.12.75,2.21,1.88,0,.02,0,.03,0,.05Z" fill="#263238"/>
    <path d="m373.56,206.38c-.26.28-1.89-.92-4.19-.91s-4,1.16-4.25.88c-.12-.13.15-.63.89-1.17,1-.69,2.19-1.06,3.4-1.05,1.2,0,2.37.38,3.34,1.08.7.51.94,1.05.81,1.17Z" fill="#263238"/>
    <path d="m381.93,223.48c1.22-.38,2.48-.61,3.75-.67.58-.06,1.14-.18,1.24-.58.05-.61-.08-1.22-.39-1.75-.56-1.42-1.13-2.92-1.74-4.48-2.42-6.38-4.17-11.63-3.91-11.73s2.42,5,4.84,11.39l1.67,4.51c.37.71.48,1.53.3,2.31-.18.43-.55.75-1,.86-.33.08-.66.13-1,.14-1.25.16-2.51.16-3.76,0Z" fill="#263238"/>
    <path d="m383.52,250.72c-7.87.11-15.61-1.97-22.37-6,0,0,5.43,11.47,22.15,9.91l.22-3.91Z" fill="#ed9482"/>
    <path d="m375.44,227.09c.51-.36,1.08-.6,1.69-.73.63-.12,1.26.18,1.57.74.06.2.14.39.24.58.34.46,1.05.29,1.59.45.85.36,1.25,1.35.89,2.2h0c-.41.83-1.13,1.45-2,1.73-1.13.47-2.36.63-3.58.49-.86-.03-1.67-.43-2.21-1.1-.52-.9-.45-2.02.17-2.86.62-.81,1.4-1.49,2.29-2" fill="#ed9482"/>
    <path d="m375.15,225.08c.37,0,.38,2.48,2.52,4.25s4.8,1.5,4.82,1.85c0,.16-.59.49-1.72.52-1.46.01-2.87-.48-4-1.4-1.1-.89-1.82-2.17-2-3.57-.07-1.01.21-1.67.38-1.65Z" fill="#263238"/>
    <path d="m374.6,202.35c-.23.62-2.53.33-5.23.65s-4.9,1.07-5.25.5c-.16-.26.22-.85,1.1-1.46,2.39-1.51,5.34-1.83,8-.88.98.4,1.48.89,1.38,1.19Z" fill="#263238"/>
    <path d="m395.38,200.72c-.41.53-2,0-3.91,0s-3.52.35-3.89-.2c-.17-.26.09-.79.79-1.28,1.94-1.22,4.43-1.14,6.29.19.68.52.9,1.06.72,1.29Z" fill="#263238"/>
    <path d="m389.41,179.94c-2.58,12.25-14.6,20.08-26.85,17.5-.19-.04-.38-.08-.57-.13-.98,7.46-5.8,13.87-12.69,16.9,4.62,8.38,6.51,18,5.39,27.51-.49,4-1.66,8.27-4.7,11-4.64,4.16-12.46,3.15-16.92-1.19-4.28-4.17-5.79-10.69-4.58-16.54s4.88-11,9.49-14.76c-5.76-.99-9.64-6.46-8.65-12.23.39-2.27,1.51-4.36,3.19-5.93,1.31-1.24,3-2.16,4-3.67s1.16-3.19,1.73-4.8c1.49-4.21,5.25-7.12,8.83-9.8,3-2.26,6.36-4.62,10.14-4.61,2,0,4,.7,6,.43,2.75-.37,4.9-2.46,7.17-4,3.16-2.35,7.09-3.42,11-3,3.87.61,7.48,3.5,8.21,7.34" fill="#263238"/>
    <path d="m387.92,181.59c-.59,3.23,1,6.54,3.42,8.8s5.41,3.66,8.4,5c-1.04-3.18-2.5-6.2-4.33-9-1.87-2.84-4.79-4.81-8.12-5.48" fill="#263238"/>
    <path d="m314.44,220.11c-.11-.34-.15-.7-.09-1.05.15-1.02.69-1.95,1.5-2.58,1.32-.96,2.94-1.4,4.56-1.24,1.87,0,3.94.62,6.23.48,2.51-.21,4.77-1.61,6.08-3.77.71-1.19,1.11-2.54,1.14-3.93.1-1.43,0-2.93.05-4.49.02-1.64.52-3.23,1.46-4.57,1.04-1.34,2.42-2.38,4-3,3.15-1.43,6.74-1.45,10.18-2.09,1.71-.28,3.35-.85,4.86-1.7,1.41-.9,2.64-2.06,3.61-3.43,1.95-2.68,3.26-5.67,5.05-8.22,4.43-6.59,12.79-9.3,20.24-6.55,1.5.54,2.92,1.29,4.21,2.23,1.12.77,2.11,1.71,2.95,2.78-.07-.05-.14-.11-.2-.18l-.55-.55c-.72-.69-1.49-1.31-2.31-1.88-3.03-2.09-6.65-3.17-10.33-3.09-5.48.19-10.55,2.98-13.63,7.52-1.75,2.5-3.05,5.49-5,8.25-1.01,1.42-2.29,2.63-3.76,3.56-1.55.88-3.24,1.48-5,1.77-3.52.65-7,.67-10.08,2-1.49.6-2.81,1.58-3.8,2.84-.89,1.26-1.37,2.76-1.38,4.3-.09,1.51,0,3-.07,4.49-.05,1.46-.47,2.88-1.23,4.13-1.39,2.26-3.78,3.71-6.42,3.9-2.39.12-4.45-.5-6.28-.55-1.56-.18-3.13.21-4.42,1.11-.79.6-1.33,1.47-1.52,2.44-.06.35-.08.71-.05,1.07Z" fill="#fafafa"/>
    <polygon points="339.28 297.3 340.34 323.94 343.02 349.44 371.35 348.23 369.31 297.88 339.28 297.3" fill="#263238"/>
    <polygon points="335.12 297.21 336.18 323.94 338.86 349.44 367.19 348.23 365.15 297.8 335.12 297.21" fill="#455a64"/>
    <path d="m332.46,352.56c7.52-.34,15.01-1.14,22.43-2.4,8.78-1.41,8.69-2.2,8.38-3.21-.84-2.7-15.54,1.88-12.9-.94s18.57-3.5,17.57-6.28c-1.29-3.63-16.6,1.45-17.92,1.78s-1.8-1.58-.59-1.82c1.74-.34,19.93-4.36,18.69-7.94-.68-2-4.11-.32-4.11-.32,0,0-16.78,5-17.31,3.33s9.23-5,12.59-5.9,4.31-2.81,2.74-4c-1.07-.79-11.43,1.64-14.73,2.59s-12.34,3.69-8.9-1.31c.06-.08.1-.16.15-.24,3.53-4.82,4.64-9.71,4-11.35s-2.87-1.49-3.72,0c-.17.24-.28.51-.34.8,0,.13-.09.3-.13.44-.82,1.87-1.82,3.65-3,5.31-1.03,1.52-2.32,2.85-3.81,3.93-1.71,1.25-6,5.83-7.35,6.64" fill="#ffad9d"/>
    <polygon points="325.97 330.2 340.95 352.56 316.26 377.74 317.1 336.9 325.97 330.2" fill="#ff7200"/>
  </g>
</svg>