<?xml version="1.0" encoding="UTF-8"?>
<svg id="Layer_1" data-name="Layer 1" xmlns="http://www.w3.org/2000/svg" viewBox="0 0 464.89 438.2">
  <g id="freepik--background-complete--inject-13">
    <rect x="384.25" y="121.1" width="77.56" height="80.85" fill="#e0e0e0"/>
    <rect x="379" y="121.1" width="77.56" height="80.85" fill="#fafafa"/>
    <path d="m456.58,201.97h-77.6v-80.89h77.6v80.89Zm-77.56-.05h77.51v-80.8h-77.51v80.8Z" fill="#e0e0e0"/>
    <rect x="389.43" y="131.97" width="56.71" height="59.11" fill="#fafafa"/>
    <path d="m389.43,191.47c-.41.59-.88,1.14-1.4,1.63-.91,1-2.18,2.25-3.61,3.65s-2.74,2.66-3.7,3.55c-.49.52-1.04.97-1.64,1.36.4-.59.87-1.13,1.39-1.62.91-.95,2.18-2.25,3.61-3.66s2.75-2.66,3.71-3.55c.49-.52,1.04-.97,1.64-1.36Z" fill="#e0e0e0"/>
    <path d="m446.13,191.33c.6.4,1.15.87,1.63,1.4,1,.9,2.25,2.17,3.65,3.6s2.66,2.74,3.55,3.7c.52.49.97,1.04,1.36,1.64-.59-.4-1.14-.87-1.62-1.39-.95-.9-2.25-2.18-3.66-3.61s-2.66-2.75-3.55-3.71c-.51-.49-.97-1.04-1.36-1.63Z" fill="#e0e0e0"/>
    <path d="m445.98,132.13c.39-.6.86-1.15,1.4-1.63.9-1,2.17-2.25,3.6-3.66s2.74-2.65,3.71-3.54c.49-.52,1.04-.98,1.63-1.37-.39.6-.86,1.14-1.39,1.62-.9,1-2.18,2.25-3.61,3.66s-2.74,2.67-3.71,3.56c-.49.51-1.04.97-1.63,1.36Z" fill="#e0e0e0"/>
    <path d="m389.27,132.27c-.59-.4-1.14-.87-1.63-1.4-.95-.9-2.24-2.18-3.65-3.6s-2.66-2.74-3.55-3.71c-.51-.49-.97-1.04-1.36-1.64.59.4,1.13.87,1.62,1.39.95.91,2.25,2.19,3.66,3.62s2.66,2.74,3.55,3.71c.51.49.97,1.04,1.36,1.63Z" fill="#e0e0e0"/>
    <path d="m445.98,191.08c-.01-.1-.01-.19,0-.29v-4.01c0-2.8,0-6.88-.06-12.05,0-10.35-.07-25.1-.11-42.76l.22.22h-56.55l.25-.25v59.11l-.21-.22,40.94.11,11.5.06h3.83-3.74l-11.45.05-41.08.11h-.22v-59.57h57.03v.22c-.05,17.71-.09,32.51-.12,42.9,0,5.15,0,9.21-.05,12v3.95c0,.2-.18.42-.18.42Z" fill="#e0e0e0"/>
    <rect x="408.32" y="152.06" width="18.92" height="18.92" fill="#ebebeb"/>
    <rect x="133.45" y="6.15" width="257.59" height="378.18" transform="translate(-5.35 7.4) rotate(-1.6)" fill="#e0e0e0"/>
    <rect x="43.2" y="67.07" width="378.18" height="257.59" transform="translate(24 417.08) rotate(-86.86)" fill="#f5f5f5"/>
    <rect x="82.74" y="87.2" width="378.18" height="257.59" transform="translate(33.54 468.51) rotate(-85.13)" fill="#ebebeb"/>
    <path d="m23.01,338.05c-3.91-2.45-8.32-3.97-12.91-4.45-2.11-.21-4.42-.15-6.11,1.13-.4.23-.64.65-.63,1.11.1.32.31.59.6.76,5.59,3.99,12.92,4.55,19.05,1.45" fill="#e0e0e0"/>
    <path d="m22.68,337.68c-2.99-2.19-5.78-4.65-8.34-7.34-2.57-2.7-4.38-6.04-5.23-9.67-.35-1.08-.2-2.27.41-3.23,6.65,5.19,11.87,11.91,13.16,20.24" fill="#e0e0e0"/>
    <path d="m22.94,338c-.62-3.63-.56-7.34.15-10.95.75-3.62,2.84-6.84,5.84-9,1.15,2.69.65,5.78-.16,8.59-1.26,4.34-3.21,8.45-5.78,12.17" fill="#e0e0e0"/>
    <path d="m29.46,349.68c-3.91.63-7.54,2.46-10.36,5.24-2.97,2.7-5.04,6.25-5.92,10.17,3.88-.24,7.17-3,9.56-6.05s4-6.43,6.66-9.3" fill="#e0e0e0"/>
    <path d="m30.88,351.54c-3.16-8.03-2.05-17.12,2.95-24.16,2.26,8,1.43,17.08-2.95,24.16" fill="#e0e0e0"/>
    <path d="m39.48,361.8c-7.39-.45-14.33,3.55-17.66,10.16-.21.44-.41,1-.11,1.39.31.3.75.43,1.17.34,3.48-.22,6.56-2.32,9.11-4.7s4.76-5.14,7.57-7.2" fill="#e0e0e0"/>
    <path d="m39.21,361.24c-1.85-5.97-1.97-12.34-.33-18.37.65-2.37,1.74-4.86,3.92-6,.18-.11.39-.15.6-.1.18.09.32.25.38.44.74,1.65,1.06,3.46.93,5.27-.13,1.8-.41,3.58-.83,5.33-.69,3.27-1.06,6.77-2.84,9.58-.43.69-.82,1.4-1.16,2.14-.34.71-.34,1-.65,1.53" fill="#e0e0e0"/>
    <path d="m62,364.64c-1.54-6.79-.02-13.91,4.16-19.48.29-.39.69-.81,1.18-.76.74.07.94,1.06.9,1.81-.31,6.61-2.47,13-6.24,18.43" fill="#e0e0e0"/>
    <path d="m64.06,366.04c8.07,1.9,16.57.17,23.25-4.73-3.89-1.95-8.34-2.5-12.59-1.54-4.2,1-8,2.84-10.66,6.27" fill="#e0e0e0"/>
    <path d="m65.79,361.76c4.37-7.12,12.75-11.77,21.1-12.2-1,3.4-3.75,6-6.9,7.63-3.22,1.47-6.63,2.48-10.13,3-1.34.27-3.19.55-4.07,1.61" fill="#e0e0e0"/>
    <path d="m62.44,341.01c1.32-4.02,2.22-8.16,2.7-12.36.45-4.22-.41-8.47-2.46-12.18-4.09,7.9-4.5,17.13-.36,25" fill="#e0e0e0"/>
    <path d="m76.19,334.06c4.77-8.68,14.51-15.61,24.37-16.58-3.8,9.47-14.17,16.78-24.37,16.58" fill="#e0e0e0"/>
    <path d="m73.18,335.76c7.12,1.09,13.19,5.63,19.84,8.39,1.4.67,2.94.97,4.49.86,1.94-.02,3.49-1.61,3.47-3.55-.01-1.03-.48-2-1.27-2.66-.94-.88-2.05-1.56-3.26-2-7.25-3-15-3.09-22.66-1.26" fill="#e0e0e0"/>
    <path d="m69.06,340.76c1.61.46,2.16,1.29,3.44,2.38,4.34,3.7,9.47,6.34,15,7.73.57.14,1.33.2,1.61-.32s-.07-1-.39-1.41c-2.42-2.83-5.56-4.96-9.08-6.17-3.48-1.29-6.48-2.85-10.63-2.51" fill="#e0e0e0"/>
    <path d="m64.41,310.59c5.9,5.44,13.83,8.14,21.83,7.43.37,0,.72-.12,1-.36.55-.6-.11-1.52-.75-2-6.42-5-14.2-7.08-22.08-5.05" fill="#e0e0e0"/>
    <path d="m69.88,308.57c7.84-5.77,17.97-7.44,27.25-4.49-3.57,3.31-8.15,5.32-13,5.7-4.78.43-9.61.02-14.25-1.21" fill="#e0e0e0"/>
    <path d="m67.73,294.71c-.63-6.41-.22-11.46-.66-17.9,0-.51-.15-1.13-.63-1.32-.67-.26-1.23.57-1.45,1.25-1.89,6.05-.88,12.63,2.73,17.83" fill="#e0e0e0"/>
    <path d="m67.27,295.47c4.19-2.72,7.8-6.24,10.61-10.37,2.1-2.86,3.87-6.3,3.39-9.82-2.99.08-5.78,1.47-7.65,3.8-1.83,2.32-3.17,4.99-3.91,7.85-.85,2.82-1.44,5.72-2.44,8.49" fill="#e0e0e0"/>
    <path d="m77.7,292.52c9.56-3.53,18.4-8.75,26.12-15.4-3.12-1.25-6.7-.5-9.81.76-7.09,2.68-12.94,7.88-16.45,14.59" fill="#e0e0e0"/>
    <path d="m70.2,298.92c4.81.69,9.69.71,14.51.07,4.7-.78,9.14-2.64,13.53-4.49.38-.11.71-.36.92-.7.16-.42.03-.89-.33-1.16-.33-.27-.73-.46-1.15-.54-4.78-1.34-9.93-.71-14.63.87-4.48,1.54-8.78,3.53-12.85,5.95" fill="#e0e0e0"/>
    <path d="m42.67,310.81c-3.29-6.64-3.07-14.39-.23-21.23,2,3.05,2.24,6.93,1.88,10.55s-1.44,7.34-1.54,11.01" fill="#e0e0e0"/>
    <path d="m29.53,304.18c-8.33-.11-16.31,3.29-22,9.38,4.15.49,8.35-.29,12.05-2.24,3.66-1.95,7.11-4.26,10.3-6.91" fill="#e0e0e0"/>
    <path d="m20.7,301.23c-4-.33-7.89-.83-11.75.36-3.95,1.11-7.21,3.88-8.95,7.59,3.79.3,7.59-.42,11-2.08,3.4-1.66,6.64-3.63,9.69-5.87" fill="#e0e0e0"/>
    <path d="m33.78,301.36c-3.62-2.37-7.33-4.78-11.54-5.76s-9.08-.25-12,2.92c3.4,2,7.53,2.23,11.48,2.23s8.8,0,12.52,1.27" fill="#e0e0e0"/>
    <path d="m33.8,301.55c-6.18-6.06-8.52-17-6-25.26,4.86,7.47,6.99,16.4,6,25.26" fill="#e0e0e0"/>
    <path d="m50.79,284.36c1.17-2.71,2-5.55,3-8.31.96-2.8,2.42-5.39,4.32-7.66,1.93-2.29,4.68-3.72,7.66-4-1.92,8.46-7.31,15.72-14.86,20" fill="#e0e0e0"/>
    <path d="m47.72,287.94c-1.93-2.65-4.16-6.25-6.77-8.23s-6-3.19-9.22-2.42c3.36,5.87,9.29,9.82,16,10.65" fill="#e0e0e0"/>
    <path d="m48.33,284.58c-1.37-3.17-2.37-6.48-3-9.87-.63-3.41-.08-6.94,1.55-10,3.39,6.41,4.48,13.3,1.67,20" fill="#e0e0e0"/>
    <path d="m50.82,264.67c1.92-6.35,7.74-11,14-13.18.78-.32,1.62-.45,2.46-.37.85.1,1.56.69,1.81,1.51.23,1.09-.67,2-1.51,2.77-4.91,4.2-10.62,7.35-16.79,9.27" fill="#e0e0e0"/>
    <path d="m50.88,259.47c.25-4.1.5-8.26,1.83-12.14s3.91-7.53,7.64-9.23c.64,4.14-1.19,8.26-3.39,11.82s-4.86,6.92-6.18,10.9" fill="#e0e0e0"/>
    <path d="m50.79,262.3c-1.59-4.64-1.75-10.52-4.52-14.56-1.94-2.82-5-4.74-6.72-7.73-1.01,2.87-.87,6.01.39,8.78,1.26,2.73,3,5.22,5.13,7.35,2.06,2.19,3.81,3.84,5.72,6.16" fill="#e0e0e0"/>
    <path d="m50.82,398.71c-.12,0-.23-30.9-.24-69s.09-69,.21-69,.23,30.9.24,69-.08,69-.21,69Z" fill="#e0e0e0"/>
    <path d="m77.88,306.15c-.38.18-.77.32-1.17.43l-3.19,1.08c-2.7.92-6.4,2.25-10.42,3.9s-7.74,3.09-9.87,4.94c-.86.72-1.54,1.61-2,2.63-.3.72-.36,1.17-.4,1.16-.02-.11-.02-.22,0-.33.05-.31.13-.61.23-.9.41-1.08,1.07-2.04,1.94-2.79,1.29-1.09,2.73-1.99,4.28-2.66,1.71-.8,3.61-1.64,5.63-2.47,4-1.65,7.76-2.94,10.49-3.78,1.36-.42,2.47-.74,3.24-.94.4-.13.82-.22,1.24-.27Z" fill="#e0e0e0"/>
    <path d="m86.68,284.4s-.1.14-.33.35l-1,.93-3.7,3.37-12.32,11c-4.81,4.28-9,8.37-11.85,11.45-1.44,1.54-2.58,2.81-3.35,3.7l-.9,1c-.1.13-.21.24-.33.34.07-.14.16-.27.26-.39.19-.25.46-.62.84-1.08.73-.93,1.83-2.24,3.25-3.81,3.72-4.06,7.65-7.92,11.78-11.57,4.83-4.27,9.22-8.1,12.41-10.87l3.8-3.26,1-.86c.13-.12.28-.22.44-.3Z" fill="#e0e0e0"/>
    <path d="m64.15,304.37c-.13-.06.87-2.38,1.88-5.31s1.48-5.41,1.61-5.39c-.1,1.89-.51,3.76-1.19,5.53-.43,1.27-.93,2.51-1.5,3.72-.2.52-.47,1-.8,1.45Z" fill="#e0e0e0"/>
    <path d="m50.88,323.07c-.28-.26-.52-.55-.74-.86l-1.9-2.43c-1.59-2.06-3.8-4.91-6.27-8s-4.74-5.91-6.39-7.93l-1.97-2.38c-.25-.28-.48-.59-.67-.92.29.24.56.51.8.8.5.54,1.2,1.33,2,2.32,1.71,2,4,4.73,6.5,7.85s4.64,6,6.17,8.11c.77,1.05,1.38,1.92,1.79,2.52.26.28.49.59.68.92Z" fill="#e0e0e0"/>
    <path d="m44.93,315.47c-1.19-1.32-2.04-2.91-2.48-4.64-.47-1.51-.66-3.1-.56-4.68h.19c-.08.36-.15.55-.18.54s0-.2,0-.57h.2c.09,1.54.36,3.07.79,4.55.56,1.65,1.24,3.25,2.04,4.8Z" fill="#e0e0e0"/>
    <path d="m37.29,305.86c-.54-.4-1.12-.74-1.74-1-1.55-.47-3.19-.6-4.8-.38-1.64.13-3.26.39-4.85.78-.66.2-1.32.36-2,.48.59-.36,1.24-.62,1.91-.78,1.59-.49,3.23-.81,4.89-.93,1.69-.23,3.4-.04,5,.54.66.24,1.22.69,1.59,1.29Z" fill="#e0e0e0"/>
    <path d="m35.47,303.53c0,.07-1-.41-2.65-1-4.3-1.46-8.9-1.81-13.37-1-1.71.31-2.75.63-2.77.55.22-.13.45-.23.7-.3.66-.22,1.32-.41,2-.56,2.24-.49,4.55-.65,6.84-.48,2.29.18,4.55.69,6.7,1.51.65.25,1.28.54,1.89.86.45.25.68.36.66.42Z" fill="#e0e0e0"/>
    <path d="m50.79,293.67c-.78-2.2-1.41-4.44-1.91-6.72-.65-2.24-1.15-4.52-1.51-6.83.79,2.2,1.44,4.44,1.94,6.72.64,2.24,1.13,4.52,1.48,6.83Z" fill="#e0e0e0"/>
    <path d="m50.88,293.67c-.62-1.38-1.33-2.72-2.14-4-.91-1.22-1.97-2.32-3.16-3.26.45.11.87.32,1.22.63.9.65,1.68,1.46,2.31,2.37.96,1.24,1.57,2.71,1.77,4.26Z" fill="#e0e0e0"/>
    <path d="m50.82,382.24s-.14-.75-.48-2.06c-.52-1.85-1.21-3.64-2.07-5.35-2.99-5.59-6.69-10.78-11-15.43-2.44-2.8-4.81-5.43-6.83-8-1.81-2.22-3.44-4.58-4.89-7.05-.97-1.67-1.79-3.42-2.46-5.23-.23-.64-.4-1.14-.49-1.49-.06-.17-.1-.36-.12-.54,0,0,.26.71.77,2,.75,1.78,1.62,3.5,2.63,5.14,1.47,2.43,3.12,4.76,4.93,6.95,2,2.5,4.4,5.12,6.85,7.92,4.95,5.56,8.83,11.16,10.9,15.59.87,1.74,1.54,3.56,2,5.45.12.51.21,1.03.28,1.55.02.18,0,.37-.02.55Z" fill="#e0e0e0"/>
    <path d="m75.22,354.68c-.41.26-.83.5-1.27.71-1.16.65-2.27,1.38-3.32,2.2-1.56,1.22-3.01,2.55-4.36,4-1.53,1.61-3.1,3.49-4.71,5.5-3.21,4-6.22,7.6-8,10.45-.91,1.41-1.58,2.6-2,3.44-.21.44-.45.87-.71,1.29.02-.13.07-.25.12-.37.1-.23.23-.57.43-1,.56-1.21,1.2-2.39,1.9-3.53,2.44-3.67,5.09-7.19,7.94-10.56,1.61-2,3.21-3.89,4.76-5.51,1.38-1.43,2.87-2.75,4.47-3.94,1.07-.8,2.21-1.51,3.41-2.12.43-.21.77-.34,1-.44s.34-.14.34-.12Z" fill="#e0e0e0"/>
    <path d="m75.7,363.62c-.89.19-1.79.32-2.7.39-2.17.22-4.32.64-6.41,1.26-2.07.67-4.01,1.69-5.74,3-1.33,1-2,1.87-2,1.82.1-.23.23-.44.4-.62.42-.53.89-1.01,1.41-1.44,1.71-1.42,3.68-2.51,5.8-3.19,2.12-.63,4.31-1.02,6.52-1.16.9-.11,1.81-.13,2.72-.06Z" fill="#e0e0e0"/>
    <path d="m59.63,369.12c-.14-.08,1.08-1.94,2-4.44s1.09-4.74,1.25-4.72c.09.48.09.97,0,1.45-.25,2.34-1.06,4.59-2.36,6.55-.23.43-.53.83-.89,1.16Z" fill="#e0e0e0"/>
    <path d="m83.13,330.67c-.14.09-.29.17-.44.23l-1.27.58c-.55.24-1.23.54-2,.94s-1.65.8-2.58,1.36l-1.48.84c-.51.29-1,.64-1.55,1-1.09.66-2.18,1.47-3.34,2.3-2.48,1.87-4.82,3.92-7,6.13-2.14,2.24-4.11,4.64-5.89,7.17-.79,1.19-1.56,2.31-2.18,3.42-.32.55-.65,1.06-.93,1.59l-.79,1.5c-.52.94-.9,1.85-1.27,2.63s-.65,1.45-.87,2-.39.95-.53,1.29c-.05.16-.13.3-.22.44.03-.16.07-.32.13-.47.12-.35.27-.79.46-1.32.23-.7.5-1.39.81-2.06.34-.79.7-1.71,1.21-2.67l.77-1.53c.27-.53.59-1.05.91-1.61.61-1.12,1.38-2.26,2.16-3.46,3.53-5.17,7.91-9.7,12.95-13.4,1.18-.83,2.29-1.64,3.39-2.29.55-.33,1.06-.67,1.58-1l1.5-.82c.94-.54,1.85-.93,2.62-1.3.65-.33,1.32-.62,2-.88l1.3-.5c.18-.06.36-.09.55-.11Z" fill="#e0e0e0"/>
    <path d="m63.81,343.61c.19-.62.56-1.18,1.07-1.58,1.19-1.03,2.7-1.62,4.28-1.64,1.54,0,3.07.29,4.5.88.6.19,1.18.46,1.7.82-.62-.12-1.23-.29-1.81-.53-1.41-.48-2.89-.72-4.38-.73-1.48.04-2.91.54-4.09,1.44-.45.42-.88.87-1.27,1.34Z" fill="#e0e0e0"/>
    <path d="m60.93,346.59c.57-1.26.98-2.59,1.21-3.95.1-1.4.01-2.8-.26-4.17.26.34.43.73.5,1.15.26.98.33,1.99.22,3-.12,1.01-.43,1.99-.91,2.89-.39.76-.72,1.11-.76,1.08Z" fill="#e0e0e0"/>
    <path d="m29.48,386.66c.67,11.81,4.22,23.82,9.7,36h23.8c5.22-12,8.53-24,9.12-36H29.48Z" fill="#e0e0e0"/>
    <path d="m68.24,405.77c0,.13-7.83.23-17.5.23s-17.5-.1-17.5-.23,7.83-.22,17.5-.22,17.5.1,17.5.22Z" fill="#fafafa"/>
    <path d="m67.71,410.05c0,.12-7.34.22-16.4.22s-16.43-.1-16.43-.22,7.34-.22,16.41-.22,16.42.1,16.42.22Z" fill="#fafafa"/>
    <path d="m39.56,394.47c.31,3.66.31,7.34,0,11-.3-3.66-.3-7.34,0-11Z" fill="#fafafa"/>
    <path d="m52.32,394.47c.29,3.78.29,7.57,0,11.35-.31-3.78-.31-7.57,0-11.35Z" fill="#fafafa"/>
    <path d="m64.29,394.32c.29,3.85.29,7.73,0,11.58-.31-3.85-.31-7.73,0-11.58Z" fill="#fafafa"/>
    <path d="m71.35,394.47c0,.12-9.2.22-20.53.22s-20.53-.1-20.53-.22,9.19-.23,20.53-.23,20.53.05,20.53.23Z" fill="#fafafa"/>
    <rect x="9.39" y="36.3" width="95.42" height="138.31" fill="#e0e0e0"/>
    <rect x="4.61" y="36.3" width="95.42" height="138.31" fill="#f5f5f5"/>
    <rect x="16.46" y="51.28" width="71.71" height="108.35" fill="#fff"/>
    <path d="m88.17,159.62v-8.06c0-5.19,0-12.76-.06-22.31,0-19.11-.07-46.16-.12-78l.24.23H16.53l.26-.26c0,40.87,0,78.55-.05,108.34l-.21-.2,52.2.11,14.42.05h5.09-5.01l-14.38.05-52.32.11h-.21V50.87h72.21v.24c0,31.92-.09,59-.12,78.17,0,9.54,0,17.09-.06,22.27v7.4c0,.35-.18.67-.18.67Z" fill="#e0e0e0"/>
    <path d="m100.29,36.3c-.49.87-1.06,1.7-1.7,2.47-1.11,1.48-2.68,3.5-4.48,5.68s-3.47,4.11-4.71,5.48c-.63.78-1.34,1.49-2.1,2.14.54-.85,1.14-1.64,1.82-2.38l4.59-5.57,4.59-5.58c.6-.8,1.27-1.55,1.99-2.24Z" fill="#e0e0e0"/>
    <path d="m88.54,159.27c3.56,5.67,7.75,10.92,12.5,15.65" fill="#fff"/>
    <path d="m101.04,174.92c-.79-.59-1.52-1.26-2.18-2-1.66-1.69-3.24-3.47-4.72-5.32-1.48-1.85-2.86-3.78-4.15-5.77-.58-.8-1.06-1.66-1.45-2.57.64.75,1.22,1.53,1.75,2.36,1.06,1.48,2.53,3.5,4.26,5.66s3.37,4,4.58,5.39c.7.7,1.34,1.45,1.91,2.25Z" fill="#e0e0e0"/>
    <path d="m4.59,174.47l12.5-15.42" fill="#fff"/>
    <path d="m17.09,159.07c-1.88,2.73-3.9,5.36-6.05,7.88-2.02,2.62-4.17,5.13-6.45,7.52,1.88-2.72,3.9-5.35,6.05-7.87,2.02-2.62,4.17-5.13,6.45-7.53Z" fill="#e0e0e0"/>
    <path d="m4.61,36.3c2.15,2.3,4.17,4.72,6.06,7.25,2.02,2.42,3.91,4.94,5.66,7.57-2.16-2.3-4.18-4.72-6.07-7.25-2.02-2.42-3.91-4.94-5.65-7.57Z" fill="#e0e0e0"/>
    <rect x="41.82" y="73.27" width="24.01" height="68.17" fill="#e0e0e0"/>
  </g>
  <g id="freepik--Floor--inject-13">
    <path d="m454.1,422.85c0,.15-100,.26-223.21.26s-223.23-.11-223.23-.26,99.92-.26,223.23-.26,223.21.12,223.21.26Z" fill="#263238"/>
  </g>
  <g id="freepik--Manual--inject-13">
    <path d="m99.29,29.04h284.23c5.94,0,10.75,4.81,10.76,10.75v371.6c0,5.94-4.82,10.76-10.76,10.76H99.29V29.04h0Z" fill="#ff7200"/>
    <g opacity=".3">
      <path d="m99.29,29.04h284.23c5.94,0,10.75,4.81,10.76,10.75v371.6c0,5.94-4.82,10.76-10.76,10.76H99.29V29.04h0Z"/>
    </g>
    <rect x="228.41" y="41.21" width="157.7" height="380.93" fill="#e0e0e0"/>
    <path d="m98.06,25.94h264.16c5.94,0,10.76,4.82,10.76,10.76h0v374.69c0,5.94-4.82,10.76-10.76,10.76H98.06V25.94h0Z" fill="#ff7200"/>
    <path d="m126.32,422.86c-.15,0-.26-88.86-.26-198.45s.11-198.47.26-198.47.26,88.84.26,198.47-.12,198.45-.26,198.45Z" fill="#263238"/>
    <path d="m133.74,422.86c-.14,0-.26-88.86-.26-198.45s.12-198.47.26-198.47.26,88.84.26,198.47-.12,198.45-.26,198.45Z" fill="#263238"/>
    <g opacity=".3">
      <rect x="126.32" y="25.94" width="7.43" height="396.92"/>
    </g>
    <polygon points="289.88 71.29 289.88 25.94 333.56 25.94 333.56 72.13 312.14 93.55 289.88 71.29" fill="#455a64"/>
    <path d="m376.88,41.21c.14,0,.26,84.36.26,188.4s-.12,188.42-.26,188.42-.26-84.34-.26-188.42.14-188.4.26-188.4Z" fill="#263238"/>
    <path d="m381.38,41.21c.14,0,.26,84.36.26,188.4s-.12,188.42-.26,188.42-.26-84.34-.26-188.42.11-188.4.26-188.4Z" fill="#263238"/>
    <polygon points="376.91 96.02 387.85 96.02 397.85 103.6 388.88 112.56 376.91 112.56 376.91 96.02" fill="#455a64"/>
    <rect x="381.38" y="128.5" width="20.66" height="13.76" fill="#ff7200"/>
    <path d="m339.69,378.32c0,.15-37.54.26-83.83.26s-83.84-.11-83.84-.26,37.53-.26,83.84-.26,83.83.12,83.83.26Z" fill="#fff"/>
    <path d="m311.72,386.31c0,.14-24.69.26-55.13.26s-55.14-.12-55.14-.26,24.69-.26,55.14-.26,55.13.11,55.13.26Z" fill="#fff"/>
    <rect x="249.25" y="393.98" width="13.21" height="13.21" fill="#e0e0e0"/>
  </g>
  <g id="freepik--Character--inject-13">
    <path d="m110.77,404.59l-2.78,20.22s19.61,9.61,19.46,13.39l-39.38-4,3-31.67,19.7,2.06Z" fill="#455a64"/>
    <path d="m95.98,421.87c-.81.16-1.36.9-1.29,1.72.13.81.87,1.38,1.69,1.3.86-.17,1.45-.96,1.37-1.83-.23-.84-1.07-1.35-1.92-1.16" fill="#e0e0e0"/>
    <g opacity=".6">
      <path d="m88.07,434.23l.43-3.18,37.6,5s1.68.94,1.35,2.15l-39.38-3.97Z" fill="#fff"/>
    </g>
    <path d="m108.65,424.67c0,.19-1,.18-2,.71s-1.59,1.28-1.76,1.18.23-1.17,1.46-1.79,2.36-.3,2.3-.1Z" fill="#263238"/>
    <path d="m112.61,426.8c0,.19-.84.43-1.58,1.18s-1,1.59-1.2,1.56-.2-1.13.73-2,2.06-.93,2.05-.74Z" fill="#263238"/>
    <path d="m114.45,431.98c-.18,0-.35-1,.25-2s1.55-1.33,1.61-1.16-.55.67-1,1.5-.66,1.66-.86,1.66Z" fill="#263238"/>
    <path d="m108.77,419.99c-.1.17-1-.18-2-.22s-2,.22-2.06.05.8-.78,2.09-.72,2.08.75,1.97.89Z" fill="#263238"/>
    <path d="m57.24,267.92s-7.23,51.32-3.59,59.71c2.81,6.49,7.79,9.31,14.16,10.95,9.19,2.36,23.93,4.05,23.93,4.05l5-29.57-11.23-2.45,10.34-36.79-18.33-12.53-20.28,6.63Z" fill="#263238"/>
    <path d="m95.81,273.82l-9.06,141.77,25,1.27,11.13-70.33s11.88-58,12.69-65.09,0-22.15,0-22.15l-39.76,14.53Z" fill="#263238"/>
    <path d="m95.1,284.89c.01.09.01.19,0,.28v.82c0,.75-.06,1.8-.11,3.13-.13,2.72-.33,6.66-.62,11.52-.57,9.72-1.52,23.15-2.5,38-.45,7.42-.88,14.48-1.27,20.92s-1.09,12.19-1.57,17-.85,8.77-1.06,11.48c-.1,1.33-.18,2.37-.24,3.13,0,.33,0,.6-.07.81.01.09.01.18,0,.27v-1.09c0-.72.07-1.77.15-3.13.15-2.72.44-6.66.89-11.51s1-10.62,1.46-17,.72-13.5,1.23-20.91c1-14.81,2-28.21,2.65-38,.33-4.83.6-8.75.78-11.51.1-1.33.17-2.37.22-3.13,0-.33,0-.6.07-.81-.01-.09-.02-.18-.01-.27Z" fill="#455a64"/>
    <path d="m89.27,297.21c0,.37-.05.75-.15,1.11-.14.71-.36,1.74-.66,3-.59,2.51-1.54,6-2.81,9.7s-2.62,7.05-3.68,9.41c-.53,1.18-1,2.13-1.31,2.77-.14.36-.33.69-.56,1,.09-.37.22-.72.38-1.06.31-.78.7-1.72,1.15-2.83,1-2.39,2.26-5.71,3.53-9.44s2.26-7.14,3-9.63l.81-2.94c.06-.37.16-.74.3-1.09Z" fill="#455a64"/>
    <path d="m80.4,142.97l-6,4.79s-19.1,3.41-20.73,6.39l6.21,38.32,4.82,32.88s-7.22,19.39-7.42,27.57,0,15,0,15h3.58c8.34,0,16.35,3.23,22.37,9h0l6.59-6,1.29,11.38s25.86,1.59,32.44-3.4,15.51-15.57,15.51-15.57c0,0,1.54-26.54-6.33-39.94s-9.85-16.18-9.85-16.18c0,0,2.8-23.12,2.8-23.92s2.39-32.34,2.39-32.34l-19.84-5-5.74-4.39-22.09,1.41Z" fill="#455a64"/>
    <g opacity=".3">
      <path d="m64,227.2c2.48,2.29,5.86,3.32,9.19,2.82,2.21-.3,4.34-1.25,6.58-1.22,3.26.05,6.07,2.13,8.91,3.72,6.18,3.43,13.31,4.77,20.31,3.82,8-1.11,15.33-5.16,22.13-9.55.51-.29.97-.67,1.35-1.13.71-1.11.64-2.55-.18-3.58-.82-1-1.99-1.66-3.27-1.84-2.28-.43-4.61.13-6.89.5-4.87.8-9.84.76-14.7-.13-6.16-1.12-12-3.58-18.24-4.41-6.99-.93-14.09.22-20.42,3.32-1.38.6-2.63,1.47-3.67,2.57-1.02,1.49-1.42,3.33-1.1,5.11"/>
    </g>
    <path d="m85.58,163.81c.02.1.02.2,0,.3,0,.23,0,.53.06.9l.24,3.46c.16,3,.4,7.37.69,12.7.53,10.76,1.27,25.57,2.08,41.92.19,4.09.38,8.09.56,11.95s.37,7.58.36,11.14c0,1.78,0,3.52-.16,5.2s-.32,3.3-.3,4.87c0,3.14.26,6.1.21,8.78s.4,5.08.62,7.2.45,3.93.63,5.43.29,2.62.38,3.44c0,.37.06.67.08.9,0,.1,0,.21,0,.31-.03-.1-.06-.2-.07-.31,0-.22-.07-.52-.13-.89l-.47-3.42-.72-5.43c-.25-2.12-.57-4.52-.7-7.22,0-2.7-.24-5.61-.27-8.79,0-1.59.17-3.23.27-4.9s.15-3.4.14-5.17c0-3.54-.2-7.26-.39-11.12s-.38-7.86-.57-11.95c-.76-16.35-1.44-31.16-1.93-41.92-.22-5.34-.4-9.67-.52-12.71,0-1.47-.09-2.63-.12-3.45v-.9c0-.23.03-.32.03-.32Z" fill="#263238"/>
    <path d="m61.06,161.33l-.58,40.14,3,7-2.49,19.12-10.11-5.68c-5.03-2.77-7.92-8.28-7.34-14v-.13c.93-7.78,2.47-20.18,3.76-28.05,2-12.18,3.4-21.76,6.39-25.55l7.37,7.15Z" fill="#455a64"/>
    <path d="m128.1,150.95s5.79-1.19,8.79,12.78,5.39,38.32,5.39,38.32c1.07.28,1.71,1.37,1.43,2.44-.05.2-.13.39-.24.56,0,0-.4,13.15-2,14.74l-16.67-9.84-1.9-2.77,5.2-56.23Z" fill="#455a64"/>
    <polygon points="60.99 227.2 83.38 224.71 85.1 213.82 63.14 212.06 60.99 227.2" fill="#dbb386"/>
    <path d="m89.43,158.94c-.22.4-.47.79-.75,1.15-.58.79-1.32,1.79-2.19,3l-3.3,4.43c-.11.16-.29.27-.49.29-.19,0-.37-.06-.52-.17-.23-.17-.44-.36-.63-.56-.42-.37-.81-.78-1.18-1.2-.78-.88-1.5-1.82-2.13-2.82-2.19-3.53-3.32-7.62-3.26-11.77.01-1.25.16-2.49.43-3.71.09-.45.22-.89.39-1.31-.27,1.65-.42,3.32-.45,5,0,5.25,1.92,10.32,5.4,14.25.36.41.74.81,1.14,1.18.18.18.36.36.56.52.2.11.24.12.37,0,1.24-1.65,2.41-3.12,3.37-4.35l2.33-2.9c.26-.38.57-.72.91-1.03Z" fill="#263238"/>
    <path d="m108.26,145.96c.05.13.07.27.06.41.02.39.02.77,0,1.16-.02,1.44-.24,2.87-.64,4.25-.63,2.03-1.4,4.01-2.32,5.92-1.08,2.36-2.32,4.65-3.7,6.85-.73,1.18-1.46,2.31-2.17,3.4-.18.27-.35.54-.53.8-.17.29-.37.57-.6.82-.17.15-.4.22-.63.19-.2-.03-.38-.13-.53-.27-.22-.22-.42-.47-.6-.73l-3.72-5.07-2.53-3.44c-.33-.41-.62-.85-.87-1.31.36.37.7.76,1,1.18.68.87,1.58,2,2.66,3.35l3.9,5c.35.47.77,1,1,.72.19-.22.36-.46.51-.71l.52-.81c.71-1.09,1.43-2.22,2.15-3.39,1.37-2.18,2.61-4.44,3.71-6.77.92-1.89,1.73-3.84,2.41-5.83.54-1.86.85-3.78.92-5.72Z" fill="#263238"/>
    <path d="m77,161.52c0,.09-1.06.27-2.67,1-2.13.99-3.97,2.52-5.33,4.44l-.15.21-.22-.16c-.55-.41-1.14-.78-1.75-1.1-2.49-1.33-5.33-1.88-8.14-1.57-1.16.19-2.3.44-3.43.75.26-.19.55-.33.85-.43.82-.32,1.66-.54,2.53-.68,2.91-.43,5.87.09,8.46,1.49.63.34,1.23.74,1.8,1.17h-.37c1.42-1.98,3.37-3.52,5.62-4.45.65-.27,1.32-.47,2-.62.26-.06.53-.08.8-.05Z" fill="#263238"/>
    <path d="m127.39,163.99c-1.15-.62-2.42-.96-3.72-1-1.4-.03-2.8.24-4.1.77-1.6.68-3.13,1.51-4.57,2.47l-.48.3-.2.13-.14-.19c-1.9-2.36-4.66-3.87-7.67-4.2-1.24-.09-2.49-.06-3.73.11.32-.15.65-.25,1-.3.91-.19,1.85-.24,2.78-.17,1.39.11,2.74.47,4,1.06,1.56.74,2.93,1.83,4,3.19l-.35-.06.48-.31c1.47-.99,3.04-1.82,4.68-2.48,1.36-.53,2.83-.77,4.29-.69.99.05,1.95.31,2.83.76.34.14.65.34.9.61Z" fill="#263238"/>
    <path d="m121.99,251.09s-.13.13-.39.33l-1.17.85-.86.6c-.32.21-.69.41-1.07.64-.86.54-1.75,1.03-2.67,1.47l-1.59.77c-.56.26-1.16.47-1.78.73-1.31.52-2.64.98-4,1.37-6.25,1.78-12.82,2.16-19.24,1.14-1.47-.28-2.87-.51-4.15-.89-.64-.17-1.26-.31-1.85-.51l-1.67-.58c-.96-.33-1.9-.71-2.82-1.14-.41-.18-.79-.34-1.14-.51l-.92-.5-1.27-.7c-.28-.17-.43-.26-.42-.28.16.04.32.11.47.19l1.31.61.94.46c.34.15.73.3,1.15.47.82.32,1.74.74,2.82,1.06l1.67.54c.58.18,1.2.31,1.84.47,1.27.36,2.66.57,4.11.84,3.17.44,6.38.59,9.58.43,3.2-.21,6.37-.74,9.47-1.57,1.41-.43,2.76-.8,4-1.31.61-.24,1.21-.44,1.77-.69l1.59-.73c1-.44,1.9-1,2.68-1.39.39-.22.76-.4,1.09-.6l.87-.56,1.23-.77c.13-.1.27-.18.42-.24Z" fill="#263238"/>
    <path d="m115.88,236.99c-.36.41-.74.8-1.16,1.15-.38.36-.86.8-1.45,1.26s-1.23,1-2,1.55-1.61,1.15-2.57,1.72-2,1.16-3.07,1.75c-4.82,2.5-10.04,4.13-15.43,4.83-1.24.13-2.42.28-3.53.31s-2.14.07-3.08.05-1.8-.08-2.54-.13c-.64-.03-1.28-.1-1.91-.21-.54-.05-1.08-.15-1.61-.28.54-.02,1.09,0,1.63.08.52,0,1.16.11,1.9.12s1.59.09,2.53,0,2,0,3.06-.11,2.26-.21,3.49-.36c5.32-.73,10.48-2.35,15.27-4.77,1.09-.58,2.14-1.11,3.07-1.7s1.8-1.12,2.58-1.65,1.44-1,2-1.48,1.1-.84,1.5-1.18c.41-.35.85-.67,1.32-.95Z" fill="#263238"/>
    <path d="m56.1,164.85c.13.43.21.88.25,1.33.13,1,.29,2.18.49,3.65.42,3.18,1,7.38,1.59,12s1.27,8.84,1.73,12c.21,1.46.38,2.68.52,3.65.08.44.12.89.13,1.34-.16-.42-.27-.86-.33-1.31-.18-.85-.41-2.09-.69-3.62-.54-3.06-1.23-7.3-1.88-12s-1.14-9-1.44-12.06c-.15-1.55-.26-2.8-.32-3.67-.05-.43-.07-.87-.05-1.31Z" fill="#263238"/>
    <path d="m128.07,156.75c.02.17.02.34,0,.51,0,.39,0,.87-.08,1.45-.08,1.26-.22,3.09-.41,5.34-.38,4.5-1,10.71-1.81,17.56s-1.68,13-2.36,17.5c-.34,2.23-.63,4-.85,5.28-.11.57-.2,1.05-.27,1.43-.02.17-.06.34-.12.5-.02-.17-.02-.34,0-.51,0-.39.1-.87.17-1.45.17-1.33.4-3.12.69-5.3.59-4.48,1.39-10.67,2.21-17.51s1.48-13.05,2-17.54c.24-2.18.43-4,.58-5.31.07-.58.13-1.06.17-1.45,0-.17.03-.34.08-.5Z" fill="#263238"/>
    <polygon points="131.63 188.95 103.02 206.19 95.63 204.11 61.71 197.57 54.7 219.82 81.39 222.34 93.16 227.98 98.85 225.52 123.67 208.47 131.63 188.95" fill="#ff7200"/>
    <path d="m93.15,227.9c.37-1.1.82-2.17,1.34-3.2.88-2,2.09-4.65,3.38-7.64s2.43-5.73,3.24-7.71c.4-1.09.87-2.15,1.41-3.17-.03.31-.11.62-.23.91-.18.57-.47,1.39-.83,2.4-.73,2-1.81,4.77-3.11,7.77s-2.56,5.68-3.52,7.6c-.48,1-.89,1.72-1.18,2.25-.13.28-.3.55-.5.79Z" fill="#263238"/>
    <path d="m92.35,211.61c.22-1.29.61-2.54,1.17-3.72.4-1.24.96-2.42,1.66-3.52-.22,1.28-.61,2.53-1.17,3.71-.4,1.24-.96,2.43-1.66,3.53Z" fill="#263238"/>
    <path d="m99.07,205.08s.86-3.42,3.45-4.75,24.07-12.5,24.07-12.5l2.55,2.62-26.12,15.74-3.95-1.11Z" fill="#e0e0e0"/>
    <path d="m64.66,198.14l4.35-2.18s12.32-1.33,19.44,0,10.85,5.31,10.62,9.12l-34.41-6.94Z" fill="#e0e0e0"/>
    <path d="m115.15,207.33c-2.21.95-3.98,2.71-4.93,4.92-1.71,3.79-2.84,5.69-4.93,7s-3.22,2.27-5.68,1.13-6.46-4.86-8.35-5.16c-1.12-.18-1.51,1.56-1.51,1.56,0,0-4.92-3.28-6.63-2.68s-.19,1.92,1,3.25c.7.83,1.34,1.71,1.89,2.65.37-.15-3.42-3.72-5.76-3-.75.13-1.25.84-1.12,1.58.01.06.03.13.05.19l2.85,2.1s-1.51,2.71-.19,3.28,10.81,7.2,12.89,7.2,11.56,1.71,15.54.76,8.42-2.31,8.42-2.31c0,0,15.65-5.08,20.38-11.14l-14.21-8.72s-9.47,12.32-10,11c-.83-2.24-1.03-4.66-.57-7,.48-2.82,2.5-7.53.86-6.61Z" fill="#dbb386"/>
    <path d="m102.02,225.84c-.77-.06-1.52-.28-2.2-.64-1.63-.84-3.2-1.8-4.69-2.87-1.58-.97-3.02-2.16-4.27-3.52-.56-.54-.94-1.24-1.11-2,.43.62.89,1.21,1.38,1.77,1.31,1.25,2.74,2.37,4.28,3.32,1.82,1.17,3.33,2.36,4.57,3s2.07.86,2.04.94Z" fill="#724a44"/>
    <path d="m98.79,229.84c-.71-.31-1.39-.7-2-1.18-1.2-.79-2.82-1.94-4.56-3.28s-3.25-2.63-4.32-3.59c-.61-.49-1.16-1.04-1.64-1.66.67.39,1.3.85,1.88,1.37l4.4,3.47,4.46,3.39c.64.43,1.24.93,1.78,1.48Z" fill="#724a44"/>
    <path d="m90.88,228.58c-.12.1-1.82-2-4.32-4.1s-4.8-3.51-4.72-3.64c1.87.77,3.58,1.87,5.06,3.25,1.58,1.25,2.93,2.77,3.98,4.49Z" fill="#724a44"/>
    <path d="m93.76,172.87c-.07-.22-.13-.44-.18-.67-.17-.57-.52-1.08-1-1.44-1.18-.85-2.82-.59-3.67.59-.32.44-.49.97-.5,1.52.01,1.08.68,2.04,1.69,2.43.83.31,1.77.18,2.49-.33.48-.36.83-.87,1-1.44.05-.22.11-.44.18-.66,0,0,.09.25,0,.71-.12.66-.47,1.26-1,1.68-.81.65-1.89.83-2.87.49-1.59-.56-2.43-2.31-1.87-3.9.31-.87.99-1.56,1.87-1.87.98-.34,2.06-.16,2.87.49.52.42.88,1.02,1,1.68.11.46.02.72-.01.72Z" fill="#263238"/>
    <path d="m94.77,191.95s-.06-.25-.19-.67c-.18-.57-.53-1.07-1-1.43-1.15-.86-2.79-.63-3.65.53-.86,1.15-.63,2.79.53,3.65.19.15.41.26.64.35.83.31,1.77.19,2.49-.33.47-.36.82-.86,1-1.43.13-.42.14-.67.19-.67.06.23.06.48,0,.71-.12.66-.48,1.26-1,1.68-.81.65-1.89.83-2.87.49-1.59-.55-2.43-2.29-1.88-3.88.31-.88,1-1.57,1.88-1.88.98-.35,2.06-.16,2.87.48.52.43.87,1.02,1,1.68.06.24.06.48,0,.72Z" fill="#263238"/>
    <path d="m96.64,237.16c-.08-.22-.14-.44-.19-.66-.17-.57-.52-1.08-1-1.44-.72-.51-1.65-.64-2.48-.33-1.34.5-2.03,2-1.52,3.35.26.7.82,1.26,1.52,1.52.83.31,1.76.18,2.48-.33.48-.36.83-.87,1-1.44.14-.41.15-.67.19-.67s.09.26,0,.72c-.12.66-.48,1.26-1,1.68-.81.65-1.89.83-2.87.49-1.59-.56-2.43-2.31-1.86-3.9.31-.87.99-1.56,1.86-1.86.98-.34,2.06-.16,2.87.49.53.42.88,1.02,1,1.68.09.46.03.72,0,.71Z" fill="#263238"/>
    <path d="m96.21,254.97s-.06-.26-.19-.67c-.18-.57-.53-1.07-1-1.44-.72-.51-1.66-.64-2.49-.33-1.34.5-2.03,2-1.52,3.35.26.7.82,1.26,1.52,1.52.83.31,1.77.18,2.49-.33.48-.36.83-.87,1-1.44.13-.41.14-.67.19-.66.06.23.06.48,0,.71-.12.66-.48,1.26-1,1.68-.81.65-1.89.83-2.87.49-1.59-.56-2.43-2.31-1.86-3.9.31-.87.99-1.56,1.86-1.86.98-.34,2.06-.16,2.87.49.52.43.87,1.02,1,1.68.06.24.06.48,0,.72Z" fill="#263238"/>
    <path d="m70.93,94.03c1.03-3.68,3.49-6.79,6.83-8.64,3.75-1.88,8.03-2.4,12.12-1.46,4.05.94,7.91,2.54,11.44,4.73,2.07,1.07,3.92,2.51,5.46,4.26,2.64,3.32,3,7.85,3.26,12.08.2,3.43.38,7-1.07,10.13-1.37,2.89-3.98,5-7.09,5.74" fill="#263238"/>
    <path d="m108.12,111.2c4.02-4.64,5.98-10.71,5.45-16.83-.19-2-.75-4.18-2.31-5.49-.8-.67-1.79-1.07-2.61-1.72-1.48-1.18-2.21-3.1-3.61-4.37-2.36-2.13-6.01-1.94-8.13.42-.58.65-1.01,1.42-1.26,2.26-.74,2.57.37,5.27,1.45,7.72l5,11.34c.56,1.45,1.34,2.79,2.31,4,.99,1.23,2.5,1.92,4.08,1.87" fill="#263238"/>
    <path d="m72.65,91.47c-6.18,6.7-6.9,16.79-1.72,24.29,2.11-9.3,5.03-18.39,8.72-27.18" fill="#263238"/>
    <path d="m69.04,104.13c.44-6.74,4.93-15,11.65-14.28l15.54,4c4.9,1.26,8.41,5.57,8.65,10.62,0,.26,0-.06,0,.14l-1,38.05-14.46,16.32h0l-9.92-15.26c0-3.28,0-5.9,0-5.88s-8.62-1.49-10.37-12.73c-.87-5.59-.57-13.49-.09-20.98Z" fill="#dbb386"/>
    <path d="m84.49,100.61c-1.05.38-2.15.6-3.26.67-1.1.16-2.23.16-3.33,0,0-.08,1.49-.08,3.3-.27s3.27-.48,3.29-.4Z" fill="#724a44"/>
    <path d="m81.98,100.21c-1.32.45-2.73.54-4.1.26.66-.09,1.33-.13,2-.12.7-.1,1.4-.15,2.1-.14Z" fill="#724a44"/>
    <path d="m86.66,122.47c-.08,0-.18-.45-.63-.74s-.9-.22-.92-.29.09-.11.3-.14c.27-.03.55.04.77.2.23.15.4.38.49.64.05.19.02.33-.01.33Z" fill="#724a44"/>
    <path d="m73.2,112.86c-.01.78.6,1.43,1.38,1.46.76.06,1.43-.5,1.49-1.26,0-.01,0-.02,0-.04.01-.78-.6-1.42-1.38-1.45-.75-.07-1.42.49-1.49,1.24,0,.02,0,.03,0,.05Z" fill="#263238"/>
    <path d="m71.02,108.9c.18.19,1.27-.62,2.82-.61s2.69.78,2.86.6-.1-.43-.59-.79c-.67-.47-1.47-.71-2.29-.71-.81,0-1.59.25-2.25.72-.47.36-.64.7-.55.79Z" fill="#263238"/>
    <path d="m87.66,112.86c-.01.78.6,1.43,1.38,1.46.77.06,1.43-.52,1.49-1.28,0,0,0-.01,0-.02.01-.78-.6-1.42-1.38-1.45-.75-.07-1.41.47-1.49,1.22,0,.02,0,.05,0,.07Z" fill="#263238"/>
    <path d="m86.26,109.22c.18.19,1.28-.61,2.83-.61s2.68.79,2.85.6-.09-.42-.59-.79c-.67-.47-1.47-.71-2.29-.71-.8,0-1.59.25-2.24.72-.48.37-.64.71-.56.79Z" fill="#263238"/>
    <path d="m80.61,120.71c-.82-.26-1.66-.42-2.52-.46-.39,0-.77-.12-.83-.39-.03-.41.06-.82.26-1.17.38-1,.77-2,1.18-3,1.64-4.29,2.82-7.81,2.65-7.88s-1.64,3.36-3.28,7.65c-.39,1.06-.77,2.07-1.12,3-.25.48-.33,1.03-.21,1.56.12.28.36.5.65.58.22.06.44.09.67.09.85.12,1.7.12,2.55.02Z" fill="#263238"/>
    <path d="m94.4,133.8s-3.65,7.72-14.9,6.64v-2.64c5.24.07,10.4-1.31,14.9-4Z" fill="#724a44"/>
    <path d="m81.26,124.47c.61-.74,1.56-1.12,2.51-1,.7.08,1.34.44,1.76,1,.42.53.47,1.27.11,1.84-.5.56-1.29.76-2,.51-.74-.26-1.42-.66-2-1.18-.17-.12-.32-.28-.44-.46-.12-.18-.12-.4,0-.58" fill="#cc847a"/>
    <path d="m85.17,121.79c-.25,0-.26,1.67-1.7,2.86s-3.23,1-3.25,1.24.4.33,1.16.35c.99.02,1.95-.32,2.71-.94.73-.6,1.21-1.45,1.32-2.39.07-.71-.12-1.13-.24-1.12Z" fill="#263238"/>
    <path d="m85.88,104.68c.15.42,1.7.23,3.52.45s3.29.72,3.53.34c.11-.18-.14-.57-.74-1-1.6-1.03-3.58-1.25-5.37-.61-.66.29-.94.61-.94.82Z" fill="#263238"/>
    <path d="m71.6,104.41c.27.35,1.34,0,2.63,0s2.37.24,2.62-.13c.11-.18-.06-.53-.53-.86-1.3-.83-2.98-.78-4.23.12-.46.34-.61.7-.49.87Z" fill="#263238"/>
    <path d="m72.1,93.86c.81-1.68,2.5-2.76,4.36-2.79,1.84-.01,3.64.51,5.19,1.51,6.69,3.87,10.45,11.55,17.06,15.55,1.71.84,3.32,1.87,4.81,3.05,1.38,1.3,2.28,3.39,1.51,5.13.95-1.18,1.72-2.48,2.3-3.88.57-1.42.5-3.02-.19-4.38-.57-1-1.58-1.75-1.86-2.86s.14-2,.1-3c-.1-1.02-.44-2-1-2.86-2.49-4.68-6.2-8.59-10.74-11.31-3-1.73-6.4-2.61-9.86-2.55-3.47.08-6.81,1.41-9.39,3.73-1.47,1.38-3,2.8-2.26,4.67" fill="#263238"/>
    <path d="m104.95,116.34s.13-.15.35-.46c.32-.44.56-.94.72-1.46.52-1.97.3-4.07-.62-5.89-.5-1.17-1.22-2.38-2-3.71-.77-1.42-1.46-2.89-2.06-4.39-.65-1.65-1.44-3.24-2.36-4.76-1.01-1.61-2.27-3.05-3.72-4.28-2.8-2.41-6.21-3.98-9.86-4.54-2.97-.52-6.03-.11-8.75,1.18-1.82.91-3.29,2.38-4.21,4.2-.24.49-.42,1.01-.56,1.54-.03.19-.08.38-.15.56,0-.05,0-.09,0-.14.02-.14.04-.29.07-.43.12-.54.3-1.07.54-1.57.9-1.86,2.38-3.38,4.22-4.33,2.75-1.34,5.86-1.78,8.88-1.26,3.7.56,7.16,2.14,10,4.58,1.47,1.25,2.75,2.71,3.77,4.35.93,1.53,1.72,3.14,2.36,4.81.59,1.49,1.25,2.95,2,4.37.72,1.33,1.43,2.55,1.93,3.75.92,1.86,1.12,4,.54,6-.17.53-.44,1.03-.78,1.47-.09.14-.2.28-.31.41Z" fill="#455a64"/>
    <path d="m110.13,110.47c-.01-.11-.01-.21,0-.32v-.92c0-.79.06-1.94,0-3.36-.04-1.66-.22-3.31-.55-4.94-.36-2-1.18-3.88-2.4-5.51-1.29-1.57-2.73-3.01-4.31-4.29-1.43-1.23-2.75-2.28-3.9-3.11s-2.13-1.45-2.81-1.85l-.8-.46c-.1-.05-.19-.1-.27-.17.11.02.21.06.3.12.19.09.47.23.82.42.99.53,1.95,1.13,2.87,1.78,1.17.81,2.52,1.85,3.95,3.07,1.6,1.29,3.06,2.73,4.37,4.32,1.24,1.66,2.07,3.58,2.43,5.62.32,1.65.49,3.32.49,5,0,1.43,0,2.58-.11,3.38,0,.4-.06.7-.08.91.01.1.01.21,0,.31Z" fill="#455a64"/>
    <path d="m105.2,83.3c.16.41.27.83.31,1.27.16,1.05.21,2.11.15,3.17-.06,1.06-.24,2.1-.53,3.12-.09.43-.25.84-.46,1.23.33-1.44.57-2.9.71-4.37.04-1.48-.02-2.95-.18-4.42Z" fill="#455a64"/>
    <path d="m113.1,91.62c-.05.34-.18.66-.38.94-.41.71-.97,1.33-1.63,1.81-.66.48-1.42.82-2.22,1-.32.1-.66.13-1,.09.33-.12.66-.21,1-.28,1.52-.46,2.84-1.43,3.74-2.74.15-.28.31-.56.49-.82Z" fill="#455a64"/>
    <path d="m113.66,99.18c-.7.31-1.47.45-2.24.4-.77,0-1.53-.17-2.21-.53,0-.09,1,.21,2.22.26s2.21-.22,2.23-.13Z" fill="#455a64"/>
    <path d="m108.77,118.82c-.26-.14-.13-.88-.1-2.09.04-.68-.04-1.35-.23-2-.06-.16-.13-.31-.21-.45-.04-.07-.08-.14-.13-.2l-.18-.26c-.28-.38-.59-.74-.93-1.08-.28-.3-.62-.53-1-.68-.12,0-.15,0-.1,0l-.39.08-.42.1c-.55.14-1.09.34-1.6.6-.27.14-.53.29-.81.46l-.2.14-.35.2c-.23.13-.47.24-.71.34-1,.41-2.08.59-3.16.53-.66-.04-1.3-.2-1.9-.47l-.24-.13-.19-.11c-.13-.07-.26-.15-.38-.24-.25-.17-.48-.36-.7-.56-.8-.75-1.45-1.64-1.93-2.63-.45-.89-.79-1.76-1.12-2.55-1.18-2.88-2.81-5.56-4.83-7.93-1.66-1.96-3.55-3.71-5.63-5.22-1.35-1.05-2.84-1.91-4.43-2.54-1.12-.42-1.85-.53-1.9-.83s.67-.73,2.14-.77c2.01.08,3.97.64,5.71,1.63,2.58,1.33,4.93,3.07,6.94,5.16,2.49,2.57,4.47,5.6,5.83,8.92.35.85.65,1.62,1,2.27.25.56.59,1.07,1,1.52.08.09.18.17.27.24.04.04.09.07.14.09h.07c.14.08.3.12.46.14.5.05,1,0,1.48-.16l.33-.13.15-.07.28-.15c.38-.21.78-.39,1.18-.55.78-.31,1.6-.53,2.44-.65l.58-.07h.6c.62-.03,1.24.12,1.78.43.71.41,1.33.98,1.8,1.66.38.52.72,1.07,1,1.65.06.14.12.25.18.42.07.16.13.32.17.49.09.3.15.61.17.92.06.94-.1,1.88-.47,2.74-.57,1.44-1.22,1.91-1.46,1.79Z" fill="#263238"/>
    <path d="m103.36,112.57c.11-.32,6-2.44,6,3.79.08,6.06-6,4.87-6,4.69s0-8.48,0-8.48Z" fill="#dbb386"/>
    <path d="m105.22,118.74s.1.07.28.15c.25.1.54.1.79,0,.79-.51,1.25-1.41,1.19-2.35,0-.52-.1-1.03-.31-1.51-.12-.38-.42-.68-.8-.8-.25-.07-.52.06-.62.3-.08.17,0,.29-.08.3s-.13-.1-.08-.35c.03-.15.11-.29.23-.38.17-.13.38-.19.59-.16.5.09.92.44,1.11.92.26.53.39,1.1.38,1.69.07,1.1-.53,2.14-1.52,2.63-.34.11-.71.05-1-.15-.15-.14-.18-.28-.16-.29Z" fill="#724a44"/>
    <path d="m108.02,112.47c-.07-.14-.16-.28-.25-.41-.28-.37-.66-.65-1.09-.8-.69-.24-1.42-.31-2.14-.19-.95.2-1.87.54-2.72,1-1.06.57-2.24.87-3.44.87-1.39-.16-2.67-.84-3.58-1.91-.98-1.17-1.71-2.54-2.14-4-.51-1.48-1-3-1.57-4.55-1.05-2.91-2.67-5.59-4.77-7.87-1.73-1.84-3.95-3.15-6.4-3.78-.94-.24-1.9-.37-2.87-.37-.73.01-1.46.1-2.17.26-1.17.29-1.76.62-1.78.58l.11-.06.33-.15c.42-.2.86-.36,1.31-.47.72-.19,1.46-.3,2.2-.31.98-.02,1.96.09,2.91.33,2.5.61,4.77,1.93,6.55,3.79,2.13,2.31,3.78,5.04,4.84,8,.61,1.53,1.07,3.09,1.56,4.56.43,1.42,1.14,2.74,2.08,3.89.86,1.02,2.08,1.68,3.41,1.85,1.17,0,2.32-.27,3.35-.82.87-.45,1.8-.77,2.77-.95.74-.11,1.5-.03,2.2.24.45.17.83.47,1.09.87.07.1.13.21.17.32.04.08.05.08.04.08Z" fill="#455a64"/>
    <path d="m105.76,109.47c-.13-.06-.25-.12-.36-.2-.23-.15-.59-.35-1-.65-1.19-.88-2.28-1.89-3.26-3-1.43-1.66-2.76-3.39-4-5.19-1.49-2.21-3.16-4.29-5-6.22-.98-.97-2.06-1.82-3.23-2.55-1.09-.67-2.26-1.2-3.48-1.58-2.07-.67-4.24-.93-6.41-.79-1.46.09-2.91.37-4.3.84-.49.15-.86.32-1.12.42-.13.06-.26.11-.39.14.11-.08.24-.14.37-.19.36-.18.73-.34,1.11-.47,1.38-.52,2.84-.83,4.31-.93,2.2-.18,4.41.07,6.51.74,1.24.38,2.43.91,3.54,1.59,1.19.74,2.29,1.6,3.28,2.58,1.84,1.94,3.52,4.04,5,6.27,1.22,1.8,2.53,3.54,3.93,5.21.96,1.1,2.03,2.11,3.19,3,.41.32.76.53,1,.69.11.09.22.18.31.29Z" fill="#455a64"/>
    <path d="m105.88,119.81c.65-.12,1.27.3,1.39.95.12.65-.3,1.27-.95,1.39-.65.12-1.27-.3-1.39-.95-.1-.54.17-1.07.67-1.3" fill="#fff"/>
    <path d="m105.62,119.9c-.25.21-.44.49-.54.81-.09.34,0,.69.23.95.29.31.72.44,1.13.33.4-.15.68-.5.74-.92.04-.34-.1-.68-.36-.91-.26-.21-.58-.33-.92-.35.09-.05.19-.07.29-.07.27,0,.54.1.75.27.34.25.53.67.49,1.09-.05.72-.67,1.26-1.38,1.21-.36-.02-.7-.2-.93-.48-.28-.32-.36-.77-.23-1.17.08-.26.24-.49.46-.65.16-.11.27-.12.27-.11Z" fill="#263238"/>
  </g>
  <g id="freepik--Plant--inject-13">
    <path d="m431.6,358.03c.89-3.08,2.79-6.05,5.73-7.31s6.59-.57,9.72.56,6.2,2.66,9.52,2.87,7.07-1.37,8.07-4.55c.93-3-.87-6.17-3.12-8.34-7.83-7.54-20.29-7.31-27.83.52-1.98,2.06-3.49,4.52-4.42,7.22" fill="#263238"/>
    <path d="m405.28,371.37c-4.87-4.63-4.63-12.69-2.2-18.95s7.74-11.09,13.67-14.26c11.72-6.16,25.62-6.61,37.71-1.22-5.94.25-11.36,3.44-14.47,8.5-2.67,4.44-3.27,9.82-5.47,14.5-5.16,10.97-18,15.99-29.24,11.43" fill="#455a64"/>
    <path d="m402.94,343.56c-5.4-6.37-6.12-16.6-5.32-24.91s2.72-16.67,1.41-24.92c-.78-4.88-2.67-9.55-3.31-14.45s.26-10.45,4.06-13.62c4.37-3.64,11.25-2.78,15.79.64s7.18,8.78,9.1,14.13c4.23,11.75,5.78,24.79,2.31,36.78s-11.62,22.72-23.57,26.35" fill="#455a64"/>
    <path d="m400.35,395.82c-.03-.25-.03-.49,0-.74v-2.1c.07-1.83.24-4.47.64-7.72.48-3.8,1.17-7.57,2.07-11.3,1.11-4.58,2.85-8.98,5.16-13.09,2.31-4.11,5.14-7.89,8.43-11.27,2.67-2.76,5.64-5.22,8.84-7.34,1.35-.93,2.66-1.64,3.78-2.29s2.16-1.1,3-1.5l1.95-.81c.21-.09.43-.15.66-.19-.21.13-.43.24-.65.34l-1.9.9c-.81.42-1.8.94-2.93,1.56s-2.39,1.4-3.71,2.34c-7.01,4.8-12.83,11.15-17,18.56-5,8.68-6.32,17.79-7.31,24.19-.45,3.23-.68,5.86-.81,7.68-.05.87-.09,1.57-.13,2.1-.02.23-.05.46-.09.68Z" fill="#263238"/>
    <path d="m353.8,318.47c-10,6-9.95,11.5-8.28,16.68s7.79,8.77,12.87,6.83c2.87-1.09,4.95-3.59,6.73-6.1s3.45-5.19,5.94-7,6.1-2.49,8.6-.71" fill="#263238"/>
    <path d="m346.33,325.03c2.61-3.61,9.06-4.65,13.13-2.85s7.05,5.37,9.72,8.93,5.27,7.33,9,9.81,8.87,3.37,12.55.88c2.38-1.77,3.92-4.44,4.27-7.39.32-2.91.12-5.86-.59-8.7-.88-4.19-2.32-8.56-5.67-11.22-3.73-3-8.92-3.11-13.68-2.95-5.47.18-11,.59-16.15,2.48s-10.37,6-12.55,11" fill="#455a64"/>
    <path d="m392.05,387.82c-.05-.28-.07-.57-.07-.86,0-.61-.05-1.44-.09-2.48-.07-2.2-.16-5.3-.28-9.11s-.28-8.43-.56-13.51-.66-10.66-1.43-16.47c-.33-2.83-.88-5.62-1.66-8.36-.79-2.53-1.81-4.97-3.05-7.31-2.05-3.99-4.77-7.61-8.03-10.69-2.23-2.05-4.74-3.77-7.46-5.1-.74-.37-1.5-.71-2.27-1-.28-.09-.54-.21-.8-.35.28.07.56.15.83.25.79.24,1.57.55,2.32.9,2.78,1.26,5.35,2.95,7.62,5,3.34,3.08,6.11,6.71,8.21,10.74,1.27,2.36,2.31,4.83,3.12,7.39.79,2.76,1.35,5.58,1.68,8.44.78,5.84,1.14,11.43,1.4,16.52s.37,9.67.45,13.52.1,7,.11,9.12v2.48c.01.29,0,.59-.04.88Z" fill="#263238"/>
    <path d="m395.64,392.33c-.48-1.39-.85-2.83-1.11-4.28-.7-3.98-.85-8.03-.47-12.05.62-5.97,1.9-11.85,3.82-17.53,2-6.42,4.83-13.29,7.21-20.67,2.27-6.91,3.7-14.07,4.26-21.33.46-5.94.57-11.9.33-17.85-.17-5.08-.44-9.19-.6-12-.08-1.39-.14-2.48-.19-3.27v-.85c-.01-.1-.01-.19,0-.29.02.1.02.19,0,.29l.09.84c.06.79.16,1.88.28,3.27.23,2.84.55,6.95.76,12,.32,5.95.27,11.92-.14,17.86-.27,3.52-.74,7.02-1.4,10.49-.73,3.72-1.69,7.4-2.87,11-2.38,7.41-5.18,14.27-7.24,20.67-1.93,5.63-3.23,11.46-3.89,17.37-.42,4-.31,8.03.3,12,.25,1.4.47,2.48.66,3.21l.2.83c.01.1.01.19,0,.29Z" fill="#263238"/>
    <polygon points="420.39 396.85 373.51 396.85 372.44 387.82 420.39 387.82 420.39 396.85" fill="#263238"/>
    <polygon points="378.55 395.82 384.41 422.89 409.88 422.89 415.36 395.82 378.55 395.82" fill="#263238"/>
    <path d="m420.39,396.85c0,.14-10.3.23-23,.19s-23-.18-23-.32,10.3-.23,23-.2,23,.18,23,.33Z" fill="#455a64"/>
    <path d="m412.35,410.21c-1.28-.94-2.67-1.73-4.14-2.35-1.6-.62-3.29-.96-5-1-2.1,0-4.19.39-6.16,1.13-2.14.72-4.13,1.56-6.08,2-1.73.37-3.51.43-5.26.16-1.18-.18-2.32-.54-3.38-1.09-.28-.15-.55-.33-.81-.52-.18-.13-.26-.21-.25-.23,1.39.78,2.91,1.28,4.49,1.47,1.7.21,3.43.13,5.1-.25,1.87-.47,3.87-1.32,6-2,2.03-.76,4.18-1.14,6.34-1.12,1.77.06,3.51.44,5.14,1.13,1.08.46,2.08,1.07,3,1.8.25.2.5.41.73.63.21.14.29.22.28.24Z" fill="#455a64"/>
    <path d="m411.99,412.01c-1.25-.9-2.59-1.68-4-2.31-1.54-.63-3.18-.97-4.84-1-2.03,0-4.04.37-5.95,1.07-2.07.69-4,1.49-5.86,2-1.64.47-3.35.66-5.06.56-1.15-.07-2.28-.38-3.31-.9-.28-.15-.54-.32-.79-.51-.16-.13-.25-.2-.24-.22s.4.22,1.12.55c1.03.43,2.13.67,3.25.71,1.66.05,3.31-.17,4.9-.65,1.81-.52,3.73-1.32,5.82-2,1.97-.72,4.05-1.08,6.14-1.06,1.72.05,3.42.43,5,1.12,1.05.46,2.03,1.06,2.92,1.79.25.19.48.4.7.62.15.15.21.22.2.23Z" fill="#fff"/>
    <path d="m412.81,408.41c-1.32-.97-2.75-1.8-4.25-2.47-1.63-.7-3.37-1.11-5.14-1.23-2.17-.05-4.33.34-6.35,1.12-2.06.81-4.16,1.49-6.3,2.06-1.8.31-3.63.31-5.43,0-1.2-.2-2.37-.57-3.46-1.12-.29-.15-.57-.33-.84-.53-.18-.14-.27-.22-.26-.23s.42.23,1.19.58c1.11.46,2.27.78,3.46.93,1.75.25,3.54.22,5.28-.1,2.11-.59,4.18-1.28,6.22-2.08,2.09-.81,4.31-1.18,6.55-1.11,3.06.24,5.98,1.36,8.4,3.24.26.2.51.42.74.65.12.19.2.28.19.29Z" fill="#fff"/>
  </g>
  <g>
    <path d="m186.9,220.3c21.07-1.35,33.9-1.35,42.51,12.57,8.63,13.93-21.9,62.71,9.23,70.93,31.13,8.25,46.33-16.99,59.23-41.8,12.92-24.78,19.06-54.56,19.08-69.42" fill="none" stroke="#fff" stroke-linecap="round" stroke-linejoin="round" stroke-width="35"/>
    <path d="m191.53,309.58c9.25-12.39,20.04-14.5,33.67-16.24" fill="none" stroke="#fff" stroke-linecap="round" stroke-linejoin="round" stroke-width="35"/>
  </g>
  <g>
    <path d="m205.8,129.89l-1.14,4.68h-5.61l5.88-20.22h7.2l6.03,20.22h-5.85l-1.29-4.68h-5.22Zm4.47-4.02l-.93-3.63c-.3-1.14-.69-2.79-.99-3.99h-.06c-.3,1.2-.6,2.88-.9,4.02l-.87,3.6h3.75Z" fill="#fff"/>
    <path d="m237.84,127.34c-.06-2.31-.12-5.01-.09-8.16h-.09c-.63,2.67-1.47,5.7-2.13,7.92l-2.01,7.05h-4.23l-1.71-7.02c-.51-2.19-1.14-5.19-1.59-7.95h-.06c-.12,2.85-.24,5.85-.33,8.16l-.3,7.23h-4.98l1.23-20.22h7.29l1.35,5.43c.54,2.25,1.14,4.95,1.56,7.41h.12c.57-2.46,1.23-5.31,1.83-7.44l1.5-5.4h7.14l1.02,20.22h-5.28l-.24-7.23Z" fill="#fff"/>
    <path d="m252,129.89l-1.14,4.68h-5.61l5.88-20.22h7.2l6.03,20.22h-5.85l-1.29-4.68h-5.22Zm4.47-4.02l-.93-3.63c-.3-1.14-.69-2.79-.99-3.99h-.06c-.3,1.2-.6,2.88-.9,4.02l-.87,3.6h3.75Z" fill="#fff"/>
    <path d="m266.94,134.57v-20.22h6.39l3.21,6.21c1.11,2.01,2.28,4.71,3.18,7.08h.09c-.3-2.67-.42-5.49-.42-8.52v-4.77h4.95v20.22h-5.7l-3.42-6.72c-1.14-2.16-2.46-4.86-3.42-7.32h-.09c.12,2.73.18,5.79.18,9.06v4.98h-4.95Z" fill="#fff"/>
    <path d="m293.48,114.35v11.46c0,3.06,1.05,4.8,3.18,4.8s3.21-1.59,3.21-4.8v-11.46h5.43v11.16c0,6.24-3.12,9.39-8.79,9.39s-8.46-3.03-8.46-9.54v-11.01h5.43Z" fill="#fff"/>
    <path d="m220.34,165.32c-1.95.66-5.62,1.52-9.05,1.52-5.19,0-8.7-1.29-11.08-3.55-2.46-2.34-3.74-5.73-3.74-9.52.04-9.13,6.83-13.77,15.37-13.77,3.55,0,6.24.62,7.6,1.29l-1.4,5.62c-1.48-.62-3.24-1.09-6.24-1.09-4.33,0-7.92,2.26-7.92,7.61,0,4.91,3.16,7.76,7.49,7.76.94,0,1.87-.12,2.18-.23v-4.52h-3.51v-5.46h10.3v14.35Z" fill="#fff"/>
    <path d="m231.76,140.28v14.9c0,3.98,1.36,6.24,4.13,6.24s4.17-2.07,4.17-6.24v-14.9h7.06v14.51c0,8.11-4.06,12.21-11.43,12.21s-11-3.94-11-12.4v-14.31h7.06Z" fill="#fff"/>
    <path d="m258.98,140.28v26.29h-7.06v-26.29h7.06Z" fill="#fff"/>
    <path d="m263.82,140.63c2.26-.35,5.27-.55,8.39-.55,5.03,0,8.19.82,10.8,2.61,2.89,1.99,4.76,5.27,4.76,10.1,0,5.34-2.03,8.81-4.6,10.8-2.89,2.26-7.18,3.28-12.32,3.28-3.39,0-5.66-.23-7.02-.47v-25.78Zm7.06,20.67c.35.08,1.01.08,1.48.08,4.56.08,7.92-2.46,7.92-8.39,0-5.11-3.04-7.53-7.25-7.53-1.13,0-1.79.08-2.14.16v15.68Z" fill="#fff"/>
    <path d="m308.01,155.96h-9.44v4.84h10.57v5.77h-17.63v-26.29h17.08v5.73h-10.02v4.25h9.44v5.69Z" fill="#fff"/>
  </g>
</svg>