<?xml version="1.0" encoding="utf-8"?>
<!-- Generator: Adobe Illustrator 27.2.0, SVG Export Plug-In . SVG Version: 6.00 Build 0)  -->
<svg version="1.1" id="Layer_1" xmlns="http://www.w3.org/2000/svg" xmlns:xlink="http://www.w3.org/1999/xlink" x="0px" y="0px"
	 viewBox="0 0 239.55 368.64" style="enable-background:new 0 0 239.55 368.64;" xml:space="preserve">
<g id="freepik--Character--inject-105">
	<path style="fill:#FF7200;" d="M42.3,152.55L42.3,152.55C42.3,152.55,42.31,152.51,42.3,152.55z"/>
	<path style="fill:#FF7200;" d="M239.53,291.97c-0.33-7.19-11.11-103.84-12.74-116.25c-2.6-19.82-18.54-24.79-18.54-24.79l0,0
		l-54.19-18.7h-53.62l-58.11,20.3v1c0-0.54,0-0.87,0-1c-0.58,0.32-14.88,4.39-18.31,18.48c-1.87,7.7-23.7,116.93-24,120.14
		s2.57,22.79,18,25.36c5.77,1,18.26,0.07,31.61-1.41l-10.51,53.54h168.44l-6-38.27c13.39-5.22,27.41-11,29.75-13.48
		C235.93,312.17,239.83,299.15,239.53,291.97z"/>
	<g style="opacity:0.3;">
		<path d="M93.02,280.64c-0.25-3.45-1.09-6.83-2.48-10c-1.52-3.09-4.15-5.8-7.49-6.66c-3.34-0.86-7.34,0.53-8.82,3.65
			c-6.08,17-0.55,26.66,11,35.87c1.84,1.47,4.11,2.61,6.36,1.94s2.66-2.29,2.77-4.6C94.7,293.99,93.83,287.4,93.02,280.64z"/>
	</g>
	<path style="fill:#263238;" d="M69.28,261.24c-0.36,0.1-0.73,0.16-1.1,0.18l-3,0.32c-2.6,0.25-6.23,0.58-10.38,0.93h0.12
		c-0.95,0.66-1.93,1.35-2.92,2.07c-3.51,2.43-6.72,5.27-9.55,8.47c-0.83,0.99-1.59,2.03-2.27,3.13c-0.21,0.43-0.46,0.84-0.75,1.22
		c0.14-0.46,0.33-0.9,0.57-1.32c0.62-1.15,1.35-2.24,2.16-3.26c2.78-3.3,5.99-6.21,9.54-8.66c1-0.73,2-1.41,2.93-2.07h0.06h0.06
		c4.16-0.32,7.8-0.59,10.41-0.75l3.06-0.17C68.57,261.26,68.92,261.23,69.28,261.24z"/>
	<path style="fill:#263238;" d="M95.49,279.96c0.04,0.1,0.07,0.2,0.08,0.3l0.19,0.9c0.15,0.79,0.36,2,0.53,3.47
		c0.48,4.29,0.71,8.6,0.7,12.92c0,1.36,0,2.79,0,4.28c0.08,1.61-0.46,3.2-1.51,4.43c-1.15,1.28-2.75,2.08-4.47,2.24l-5.19,0.9
		c-7.1,1.25-14.89,2.75-23.12,4.08c-8.23,1.33-16.11,2.27-23.3,2.9s-13.7,1.13-19.17,0.74c-1.3-0.09-2.59-0.27-3.87-0.54
		c-1.15-0.27-2.24-0.72-3.25-1.33c-1.57-0.99-3.03-2.16-4.35-3.48c-1.1-1.07-1.9-1.94-2.45-2.53l-0.61-0.67
		c-0.07-0.08-0.14-0.16-0.2-0.25l0.24,0.21l0.65,0.64c0.56,0.57,1.4,1.41,2.51,2.45c1.33,1.28,2.79,2.41,4.36,3.38
		c0.98,0.59,2.05,1.01,3.17,1.26c1.26,0.25,2.54,0.42,3.83,0.49c5.43,0.35,11.92-0.15,19.09-0.85s15.06-1.6,23.27-2.94
		c8.21-1.34,16-2.81,23.11-4l5.2-0.89c1.62-0.12,3.14-0.86,4.23-2.07c0.99-1.15,1.5-2.64,1.42-4.15c0.05-1.48,0.07-2.91,0.07-4.27
		c0.05-4.3-0.13-8.61-0.53-12.89c-0.14-1.52-0.32-2.69-0.43-3.49c-0.06-0.37-0.1-0.67-0.14-0.9
		C95.51,280.19,95.49,280.08,95.49,279.96z"/>
	<path style="fill:#263238;" d="M60.96,198.94c0.15,0-1.13,14.24-2.86,31.76s-3.23,31.73-3.38,31.71s1.11-14.23,2.87-31.77
		S60.83,198.93,60.96,198.94z"/>
	<path style="fill:#263238;" d="M199.12,186.56c0.01,0.08,0.01,0.17,0,0.25c0,0.19,0,0.42,0,0.71c0,0.66-0.05,1.57-0.09,2.72
		c-0.08,2.37-0.24,5.79-0.46,10c-0.45,8.46-1.25,20.14-2.25,33s-1.86,24.55-2.4,33c-0.26,4.2-0.48,7.6-0.63,10
		c-0.07,1.15-0.14,2.06-0.18,2.72c0,0.29,0,0.52-0.06,0.71c0.01,0.08,0.01,0.16,0,0.24c-0.01-0.08-0.01-0.16,0-0.24v-0.71
		c0-0.67,0-1.58,0.08-2.73c0.08-2.37,0.24-5.79,0.46-10c0.45-8.46,1.26-20.13,2.25-33s1.86-24.55,2.4-33c0.27-4.19,0.48-7.6,0.63-10
		c0.08-1.15,0.14-2,0.18-2.72c0-0.28,0.05-0.52,0.06-0.71C199.1,186.72,199.11,186.64,199.12,186.56z"/>
	<path style="fill:#263238;" d="M234.52,290.26c-0.94-1.54-1.98-3.02-3.11-4.42c-2.82-3.3-6.47-5.79-10.58-7.2
		c-2.28-0.73-4.63-1.28-7-1.63c-3.24-0.5-6.56,0.04-9.48,1.55c-0.42,0.25-0.85,0.47-1.3,0.65c0,0,0.09-0.1,0.29-0.24
		c0.3-0.21,0.6-0.41,0.92-0.59c1.15-0.67,2.4-1.19,3.69-1.53c1.94-0.47,3.96-0.58,5.94-0.31c2.4,0.32,4.77,0.86,7.08,1.61
		c4.21,1.44,7.92,4.03,10.72,7.49c0.84,1.04,1.59,2.15,2.23,3.32C234.16,289.37,234.37,289.81,234.52,290.26z"/>
	<path style="fill:#263238;" d="M206.29,328.57c-0.18,0.12-0.37,0.22-0.58,0.3l-1.72,0.77c-1.49,0.66-3.65,1.62-6.35,2.75
		c-3.13,1.41-6.38,2.55-9.7,3.42c-2.01,0.49-4.09,0.55-6.12,0.17c-2.17-0.51-4.15-1.62-5.72-3.2c-1.55-1.58-2.75-3.46-3.54-5.53
		c-0.79-1.87-1.42-3.81-1.89-5.79c-0.82-3.33-1.43-6.71-1.84-10.12c-0.35-2.91-0.55-5.26-0.69-6.89c-0.06-0.77-0.1-1.4-0.14-1.88
		c-0.02-0.22-0.02-0.44,0-0.66c0.06,0.21,0.1,0.43,0.12,0.65c0.06,0.48,0.14,1.1,0.23,1.87c0.2,1.62,0.46,4,0.86,6.86
		c0.44,3.38,1.07,6.74,1.9,10.05c0.47,1.95,1.11,3.86,1.89,5.71c0.77,2,1.94,3.82,3.43,5.35c1.5,1.52,3.4,2.58,5.47,3.08
		c1.96,0.37,3.97,0.32,5.91-0.14c3.3-0.84,6.53-1.94,9.66-3.29l6.41-2.6l1.76-0.68C205.85,328.68,206.07,328.61,206.29,328.57z"/>
	<g style="opacity:0.3;">
		<path d="M95.6,305.79c-1.5,2.09-4.67,2.51-7.2,2.94c-13.37,2.27-25.45,4.44-39,5.91l-1.72,8.84c13.68-2.19,27.76-5.08,40.67-10.09
			c1.79-0.6,3.45-1.5,4.93-2.67C94.78,309.53,95.63,307.7,95.6,305.79z"/>
	</g>
	<g style="opacity:0.3;">
		<path d="M173.08,304.83c0.51,7.33,2.62,14.47,6.18,20.9c0.83,1.43,2.09,3,3.74,2.82c1.28-0.14,2.17-1.29,2.84-2.38
			c2.59-4.18,4.94-8.16,5.74-13l-12.75-5.09L173.08,304.83z"/>
	</g>
	<path style="fill:#263238;" d="M145.24,303.33c0.09,0.12-9.63,7.74-21.69,17s-21.92,16.73-22,16.62c-0.08-0.11,9.63-7.74,21.69-17
		S145.15,303.22,145.24,303.33z"/>
	<path style="fill:#263238;" d="M198.4,285.64c0.09,0.55,0.13,1.11,0.14,1.67c0.04,0.67,0.04,1.33,0,2c0,0.76-0.1,1.63-0.21,2.58
		c-0.66,4.97-1.87,9.86-3.62,14.56c-1.68,4.72-3.8,9.27-6.34,13.59c-0.78,1.31-1.62,2.57-2.54,3.78c-0.32,0.45-0.68,0.88-1.08,1.27
		c0.27-0.49,0.57-0.95,0.92-1.39c0.59-0.88,1.44-2.18,2.38-3.85c2.43-4.35,4.5-8.89,6.17-13.58c1.73-4.67,2.98-9.5,3.74-14.42
		c0.13-0.95,0.25-1.8,0.29-2.56s0.12-1.41,0.1-1.94C198.32,286.78,198.33,286.21,198.4,285.64z"/>
	<path style="fill:#FFBE9D;" d="M123.69,252.52c0,0-14.85-23.72-26.5-19.06c0,0-5.92-4.85-9.7-1.74s-2.43,9.41-2.43,9.41
		s-7.18-5.82-10.39-2.81s-0.87,8.15,0,10.68c0.68,2.58,1.14,5.21,1.36,7.86c0,0-4.37-2.23-6.41,1.36
		c-2.04,3.59,5.73,15.63,6.9,17.28c1.17,1.65,8.64,9,13.78,7.09c5.14-1.91,8.74-7.09,8.74-7.09L123.69,252.52z"/>
	<path style="fill:#EB996E;" d="M85.05,242.04c0.47,0.24,0.92,0.52,1.34,0.84l3.56,2.44l5.22,3.68c0.53,0.36,1.01,0.79,1.43,1.27
		c0.46,0.53,0.74,1.19,0.79,1.89c-0.02,1.5-0.9,2.86-2.26,3.48c-1.29,0.59-2.74,0.75-4.13,0.44c-1.25-0.28-2.46-0.74-3.59-1.35
		c-2.14-1.11-4-2.2-5.57-3.16s-2.77-1.79-3.6-2.39c-0.45-0.29-0.87-0.63-1.25-1c0.48,0.23,0.93,0.51,1.37,0.81
		c0.86,0.54,2.1,1.32,3.67,2.24s3.46,2,5.6,3c1.09,0.58,2.26,1.01,3.47,1.27c1.27,0.29,2.6,0.15,3.79-0.39c1.19-0.53,1.97-1.7,2-3
		c-0.21-1.18-0.95-2.21-2-2.79l-5.16-3.68l-3.45-2.57C85.84,242.76,85.43,242.42,85.05,242.04z"/>
	<path style="fill:#EB996E;" d="M85.25,241.32c0,0,0.16,0.09,0.44,0.29l1.21,0.92c1.05,0.79,2.56,1.95,4.48,3.3
		c2.2,1.63,4.62,2.95,7.17,3.94c1.51,0.55,3.09,0.88,4.69,1c1.7,0.2,3.42-0.03,5-0.67c0.75-0.37,1.38-0.96,1.79-1.69
		c0.37-0.71,0.45-1.54,0.2-2.31c-0.61-1.47-1.52-2.8-2.67-3.9c-1.91-1.98-3.96-3.81-6.14-5.48c-1.85-1.44-3.4-2.54-4.48-3.3
		l-1.24-0.87c-0.28-0.2-0.43-0.31-0.42-0.33c0.17,0.06,0.33,0.14,0.48,0.24c0.3,0.17,0.73,0.44,1.29,0.79
		c1.12,0.71,2.7,1.77,4.59,3.18c2.23,1.64,4.33,3.46,6.27,5.44c0.53,0.58,1.07,1.18,1.57,1.84c0.54,0.67,0.96,1.43,1.24,2.25
		c0.29,0.9,0.2,1.87-0.24,2.7c-0.45,0.83-1.15,1.49-2,1.9c-1.66,0.69-3.48,0.94-5.27,0.72c-1.65-0.14-3.27-0.51-4.81-1.1
		c-2.59-1.02-5.02-2.4-7.22-4.09c-1.91-1.39-3.39-2.6-4.4-3.45l-1.15-1C85.36,241.46,85.23,241.33,85.25,241.32z"/>
	<path style="fill:#FFBE9D;" d="M75.36,256.82l10.44,5c1.18,0.57,2.56,1.43,2.51,2.74c-0.06,0.61-0.33,1.17-0.76,1.61
		c-1.81,1.85-4.36,2.78-6.94,2.51c-2.54-0.29-5.01-0.97-7.35-2"/>
	<path style="fill:#EB996E;" d="M73.26,266.72c0-0.11,1.74,0.62,4.57,1.34c1.65,0.43,3.36,0.52,5.05,0.28c0.98-0.17,1.93-0.5,2.79-1
		c0.92-0.49,1.69-1.23,2.21-2.14c0.21-0.44,0.21-0.95,0-1.39c-0.24-0.44-0.58-0.82-1-1.09c-0.86-0.53-1.75-1-2.67-1.4l-4.64-2.3
		l-3.12-1.58c-0.39-0.18-0.76-0.4-1.11-0.65c0.41,0.12,0.82,0.27,1.2,0.46l3.18,1.44l4.7,2.19c0.95,0.41,1.87,0.89,2.75,1.43
		c0.49,0.31,0.9,0.75,1.17,1.27c0.28,0.58,0.28,1.25,0,1.83c-1.18,1.89-3.17,3.13-5.39,3.37c-1.75,0.23-3.53,0.1-5.22-0.4
		c-1.13-0.31-2.23-0.69-3.31-1.15C74.02,267.1,73.63,266.93,73.26,266.72z"/>
	<path style="fill:#FFBE9D;" d="M91.63,281.99L75.9,293.86c0,0-7.63-10.63-2.56-23.51h3.79l-0.86,4.22l7.16,1.5L91.63,281.99z"/>
	<path style="fill:#FFBE9D;" d="M73.01,270.06l5.82,7.58c0.63,0.91,1.38,1.73,2.24,2.43c0.87,0.7,1.99,1.02,3.1,0.87"/>
	<path style="fill:#EB996E;" d="M84.13,280.89c-0.78,0.29-1.65,0.21-2.37-0.21c-0.79-0.39-1.5-0.93-2.08-1.6
		c-0.66-0.73-1.29-1.59-2-2.46c-1.36-1.77-2.56-3.39-3.41-4.57c-0.51-0.61-0.94-1.29-1.29-2c0.59,0.53,1.12,1.12,1.58,1.76
		c0.93,1.13,2.18,2.71,3.53,4.48c0.69,0.88,1.3,1.74,1.92,2.46c0.52,0.64,1.16,1.18,1.88,1.59
		C82.59,280.69,83.35,280.88,84.13,280.89z"/>
	<path style="fill:#E0E0E0;" d="M77.53,271.75l19.3-18.42c1.88-1.8,4.4-2.77,7-2.71l98.82,2.89c1.14,0.03,2.04,0.99,2.01,2.13
		c-0.02,0.64-0.33,1.23-0.85,1.61l-27.76,20.39c-0.48,0.35-1.07,0.53-1.67,0.5l-96-4.16c-0.71-0.02-1.27-0.61-1.26-1.32
		C77.13,272.31,77.28,271.99,77.53,271.75z"/>
	<path style="fill:#263238;" d="M204.61,255.99c-0.12,0.02-0.23,0.02-0.35,0h-1l-3.91-0.06l-14.39-0.29l-47.43-1.27l-26.11-0.73
		l-5.86-0.18c-0.92-0.06-1.85-0.06-2.77,0c-0.88,0.11-1.72,0.38-2.5,0.8c-0.74,0.44-1.41,0.97-2,1.59l-1.86,1.71l-3.5,3.23
		l-10.6,9.72l-2.9,2.63l-0.76,0.67l-0.27,0.22c0,0,0.07-0.1,0.23-0.26l0.73-0.71l2.83-2.7l10.49-9.84l3.48-3.25l1.85-1.73
		c0.62-0.64,1.33-1.2,2.1-1.66c0.82-0.45,1.72-0.74,2.65-0.86c0.95-0.06,1.89-0.06,2.84,0l5.86,0.16l26.12,0.72l47.42,1.42
		l14.37,0.49l3.91,0.16l1,0.06C204.39,256.01,204.5,255.99,204.61,255.99z"/>
	<path style="fill:#FFFFFF;" d="M224.19,204.03c0.13,0.06-4.79,9.57-11,21.23s-11.33,21.06-11.46,21s4.8-9.57,11-21.23
		S224.07,203.96,224.19,204.03z"/>
	<path style="fill:#FFFFFF;" d="M188,202.07c0.14,0-1.83,8.53-4.41,19s-4.78,18.89-4.92,18.85s1.84-8.53,4.42-19
		S187.83,202.03,188,202.07z"/>
	<path style="fill:#FFFFFF;" d="M36.83,217.64c0.11-0.09,6.16,6.65,13.5,15.05s13.23,15.3,13.12,15.39s-6.16-6.64-13.51-15
		S36.7,217.7,36.83,217.64z"/>
	<path style="fill:#FFFFFF;" d="M60.68,184.16c0.13,0,3.29,10.4,7.05,23.32c3.76,12.92,6.7,23.41,6.56,23.45s-3.3-10.39-7.06-23.31
		C63.47,194.7,60.54,184.21,60.68,184.16z"/>
	<path style="fill:#FFFFFF;" d="M158.42,172.73c0.04,0.23,0.05,0.47,0.05,0.7c0,0.52,0,1.19,0,2v7.47c0,6.36-0.1,15-0.17,24.64
		s-0.24,18.29-0.32,24.64c-0.07,3.11-0.12,5.65-0.16,7.47c0,0.84,0,1.52-0.07,2c0.01,0.24-0.01,0.48-0.06,0.71
		c-0.02-0.24-0.02-0.47,0-0.71c0-0.51,0-1.19,0-2c0-1.82,0-4.36,0-7.47c0-6.36,0.1-15,0.17-24.64s0.24-18.28,0.33-24.64
		c0.06-3.11,0.11-5.64,0.15-7.47c0-0.84,0.05-1.51,0.07-2C158.39,173.2,158.39,172.96,158.42,172.73z"/>
	<path style="fill:#263238;" d="M192.17,50.58c-3.73-4-8.25-7.77-9.55-13.08c-1.2-4.89,0.52-10.48-2.06-14.79
		c-3.18-5.31-11.11-5.75-14.93-10.61c-1.86-2.36-2.5-5.48-4.33-7.85c-3.12-4-8.92-5-14-4.25s-9.89,2.69-15,3.21
		c-7,0.72-14.25-1.33-20.89,0.9c-7.32,2.45-11.63,9.14-16.24,15.63l-6,7.56c-1.24,1.3-2.6,2.48-4.07,3.52
		c-2.59,1.8-5.57,3.07-7.77,5.32c-4.7,4.82-4,13.76,1.39,17.78c-5.43,2.07-8.87,7.45-8.48,13.25c0.28,3.1,1.66,6,2.69,8.89
		s1.69,6.22,0.54,9.1s-4.72,5-7.47,3.53c1.14,4.03,4.03,7.34,7.88,9c-1.43,1.56-3.4,2.51-5.51,2.67
		c6.11,13.11,21.74,19.59,36.2,19.18s28.11-6.35,41.33-12.2l38.58-11.43c3.39-0.89,4.67-5.1,4.51-8.6s-1.18-7.12,0-10.44
		c1.56-4.55,6.7-7.1,8.35-11.62C199.21,60.12,195.91,54.57,192.17,50.58z"/>
	<path style="fill:#263238;" d="M101.3,89.19c-3.12-8.7-6.2-17.47-7.77-26.57s-1.58-18.65,1.38-27.4
		c0.45-1.33,4.34-10.25,5.74-10.16c1,0.07-1.32,8.36-0.79,9.21c5.05,8.11,6.65,18,6.17,27.54C105.48,71.08,103.89,80.27,101.3,89.19
		"/>
	<path style="fill:#FFBE9D;" d="M135.46,9.98h-2.14c-23.16,0.8-35.42,20.92-34,44.05l0.66,79.76c0.13,14.43,11.53,26.23,25.95,26.85
		l0,0c14.97,0.66,27.64-10.94,28.29-25.91c0.01-0.14,0.01-0.28,0.02-0.42c0.12-4.19,0.22-7.12,0.23-7.12s22.32-2.93,23.12-25.15
		c0.39-10.74-0.61-32.91-1.75-53C174.61,27.49,157.04,10.49,135.46,9.98z"/>
	<path style="fill:#EB996E;" d="M154.47,127.16c0,0-14,0.48-28.74-9.25c0,0,6.32,16.54,28.55,15.07L154.47,127.16z"/>
	<path style="fill:#263238;" d="M166.05,69.57c-0.03,1.72-1.42,3.1-3.14,3.13c-1.65,0.11-3.08-1.14-3.19-2.79
		c0-0.05-0.01-0.1-0.01-0.15c0.03-1.71,1.41-3.09,3.12-3.12c1.65-0.12,3.09,1.12,3.21,2.77C166.05,69.46,166.05,69.52,166.05,69.57z
		"/>
	<path style="fill:#263238;" d="M170.83,58.16c-0.4,0.4-2.76-1.43-6.18-1.51s-6,1.58-6.32,1.15c-0.18-0.19,0.24-0.92,1.35-1.69
		c1.52-1.02,3.32-1.53,5.15-1.47c1.78,0.04,3.5,0.64,4.91,1.72C170.73,57.22,171.07,57.98,170.83,58.16z"/>
	<path style="fill:#263238;" d="M135.13,69.57c-0.03,1.72-1.42,3.1-3.14,3.13c-1.65,0.11-3.08-1.14-3.19-2.79
		c0-0.05-0.01-0.1-0.01-0.15c0.02-1.72,1.41-3.11,3.13-3.14c1.65-0.12,3.09,1.13,3.2,2.78C135.13,69.46,135.13,69.51,135.13,69.57z"
		/>
	<path style="fill:#263238;" d="M137.38,58.74c-0.4,0.41-2.77-1.43-6.18-1.5c-3.41-0.07-6,1.58-6.33,1.15
		c-0.17-0.19,0.24-0.93,1.36-1.7c1.5-0.99,3.27-1.49,5.07-1.43c1.78,0.03,3.5,0.64,4.91,1.72
		C137.24,57.81,137.58,58.56,137.38,58.74z"/>
	<path style="fill:#263238;" d="M149.01,85.29c0-0.2,2.12-0.52,5.57-0.87c0.87-0.07,1.7-0.23,1.87-0.82c0.09-0.9-0.09-1.8-0.52-2.6
		l-2.43-6.7c-3.35-9.54-5.76-17.38-5.38-17.51s3.42,7.49,6.78,17c0.81,2.36,1.58,4.6,2.31,6.74c0.53,1.07,0.66,2.29,0.37,3.44
		c-0.27,0.62-0.81,1.07-1.46,1.24c-0.49,0.12-0.99,0.18-1.49,0.17C151.17,85.51,149.02,85.48,149.01,85.29z"/>
	<path style="fill:#263238;" d="M138.9,87.41c0.56,0,0.47,3.69,3.59,6.4s7.06,2.39,7.08,2.91c0.05,0.23-0.9,0.7-2.57,0.7
		c-2.17-0.02-4.27-0.81-5.92-2.22c-1.58-1.36-2.57-3.28-2.77-5.36C138.21,88.29,138.65,87.38,138.9,87.41z"/>
	<path style="fill:#263238;" d="M137.52,44.88c-0.36,0.92-3.76,0.4-7.78,0.78c-4.02,0.38-7.28,1.41-7.8,0.56
		c-0.22-0.4,0.36-1.26,1.69-2.13c3.59-2.14,7.97-2.51,11.87-1C136.95,43.69,137.68,44.44,137.52,44.88z"/>
	<path style="fill:#263238;" d="M169.73,46.77c-0.62,0.76-2.95-0.1-5.78-0.21s-5.24,0.4-5.77-0.42c-0.23-0.4,0.16-1.17,1.23-1.88
		c2.92-1.73,6.6-1.53,9.31,0.51C169.7,45.64,170.01,46.4,169.73,46.77z"/>
	<path style="fill:#FFBE9D;" d="M100.76,70.48c-0.37-0.17-15.16-4.88-15,10.33s15.37,12,15.39,11.51S100.76,70.48,100.76,70.48z"/>
	<path style="fill:#EB996E;" d="M96.42,86.64c-0.07-0.05-0.26,0.18-0.71,0.39c-0.63,0.28-1.35,0.31-2,0.06
		c-1.61-0.58-3-3.12-3.08-5.86c-0.05-1.3,0.19-2.6,0.71-3.8c0.29-0.97,1.03-1.74,2-2.05c0.63-0.17,1.28,0.13,1.56,0.72
		c0.21,0.42,0.12,0.73,0.2,0.75s0.32-0.26,0.2-0.88c-0.09-0.38-0.3-0.71-0.61-0.95c-0.42-0.31-0.95-0.45-1.47-0.38
		c-1.27,0.26-2.31,1.16-2.75,2.38c-0.64,1.32-0.94,2.78-0.88,4.25c0.12,3.06,1.71,5.92,3.92,6.54c0.83,0.23,1.72,0.08,2.42-0.43
		C96.39,86.96,96.47,86.64,96.42,86.64z"/>
	<path style="fill:#263238;" d="M165.58,24.02c2.44-1.4-5.08-9.24-11.18-11.89c-9.21-4-23.21-6.31-31.6-3.77
		c-10.1,3-18.44,8.24-23.38,17.56s-6.67,20.12-6.2,30.65c0.15,3.22,0.54,6.57,2.3,9.26c2.18,3.32,6.29,5.37,6.19,10
		c-0.08,1.7,0.52,3.36,1.66,4.62c2.84,2.91,6.19,0.07,7.71-2.74c3.24-6,3.49-13.13,3.67-20c0.13-4.85,0.24-9.81-1.21-14.45
		c-0.78-2.52-2-4.89-2.66-7.46s-0.62-5.48,0.94-7.61c0.37-0.46,0.78-0.88,1.22-1.27c4.25-3.84,10.25-5.08,15.68-3.26
		c8.62,2.89,23.32,7.16,27.09,4.19c5.42-4.27,6.69-7,6.69-7L165.58,24.02z"/>
	<path style="fill:#263238;" d="M123.56,6.28c8.31-2.94,17.82-3,25.71,1c4.19,2.09,8,5.47,9.34,10s-0.48,10.05-4.78,11.89l-0.3,0.19
		c-6.45,2.29-10.68,1.5-17.19-0.63c-5.47-1.79-10.37-5.07-15.86-6.84c-5.87-1.87-12.17-1.95-18.09-0.22
		C108.09,14.88,115.25,9.22,123.56,6.28z"/>
	<path style="fill:#455A64;" d="M88.08,71.64c-0.28-0.27-0.53-0.56-0.75-0.88c-0.67-0.9-1.21-1.89-1.61-2.93
		c-1.55-3.92-1.06-8.35,1.33-11.82c0.76-1.15,1.71-2.16,2.8-3c1.18-0.91,2.5-1.62,3.9-2.12c2.84-1.1,6.14-1.67,8.84-3.71
		c1.38-1.01,2.37-2.46,2.81-4.12c0.38-1.76,0.48-3.57,0.29-5.36c-0.25-3.69-0.4-7.66,0.83-11.5c1.29-3.7,3.78-6.87,7.08-9
		c2.99-2.04,6.37-3.44,9.93-4.12c3.21-0.63,6.52-0.63,9.73,0c2.8,0.57,5.45,1.69,7.8,3.31c3.43,2.32,6.07,5.62,7.59,9.47
		c0.41,1.04,0.71,2.11,0.91,3.21l0.12,0.86c0.01,0.1,0.01,0.2,0,0.3c-0.27-1.47-0.68-2.9-1.23-4.29
		c-2.72-6.43-8.45-11.09-15.3-12.43c-3.15-0.62-6.4-0.62-9.55,0c-3.49,0.68-6.8,2.06-9.73,4.07c-3.2,2.08-5.62,5.16-6.87,8.76
		c-1.2,3.72-1.07,7.62-0.82,11.31c0.19,1.85,0.08,3.71-0.32,5.52c-0.47,1.76-1.53,3.3-3,4.37c-2.84,2.12-6.19,2.67-9,3.74
		c-2.65,0.89-4.95,2.61-6.55,4.91c-1.31,1.91-2.06,4.14-2.18,6.45c-0.09,1.74,0.18,3.48,0.78,5.12
		C86.44,69.15,87.17,70.46,88.08,71.64z"/>
	<path style="fill:#455A64;" d="M86.44,75.09c-0.41-0.2-0.8-0.42-1.17-0.68c-1.08-0.72-2.06-1.57-2.93-2.54
		c-1.37-1.54-2.43-3.32-3.14-5.26c-0.92-2.58-1.13-5.37-0.62-8.06c0.59-3.29,2.2-6.31,4.61-8.62c2.56-2.52,5.95-4.32,9.11-6.66
		c1.64-1.16,3.08-2.59,4.27-4.21c1.19-1.73,2.1-3.63,2.71-5.64c1.36-4.06,2-8.56,3.91-12.8c1.94-4.09,4.99-7.56,8.8-10
		c3.54-2.32,7.62-3.69,11.84-3.98c3.79-0.25,7.6,0.31,11.16,1.64c3.1,1.15,5.96,2.84,8.46,5c3.59,3.16,6.37,7.15,8.1,11.61
		c0.66,1.61,1.14,3.28,1.42,5c-0.04-0.1-0.08-0.21-0.1-0.32c-0.07-0.25-0.15-0.57-0.26-1c-0.34-1.24-0.76-2.46-1.25-3.65
		c-1.78-4.39-4.57-8.3-8.15-11.4c-2.47-2.12-5.31-3.78-8.37-4.89c-3.51-1.29-7.26-1.83-11-1.58c-4.12,0.29-8.1,1.63-11.56,3.88
		c-3.73,2.4-6.71,5.8-8.61,9.81c-1.9,4.13-2.52,8.62-3.89,12.74c-0.63,2.06-1.58,4-2.8,5.77c-1.22,1.66-2.7,3.11-4.38,4.3
		c-3.22,2.36-6.58,4.14-9.09,6.59c-2.36,2.24-3.96,5.17-4.56,8.37c-0.52,2.64-0.33,5.37,0.54,7.91c1.09,3.15,3.14,5.87,5.85,7.8
		C86.05,74.84,86.46,75.06,86.44,75.09z"/>
	<path style="fill:#FFBE9D;" d="M176.34,273.1c0,0-41.31-9.61-47.62-10.08c-5.92-0.44-7.46,3.27-7.46,3.27s-8.86-1.11-10.81,4.06
		c0,0-1.56,3,2.07,4.54c3.63,1.54,23.33,5.87,27.38,9.64s38,23.05,38,23.05l13.69,5.59c0,0,6.15-16.07,6.43-20.68
		c0.26-2.46-0.22-4.94-1.4-7.12c0,0,8.52-8.66,9.5-12.15s7.13-15.51,7.13-15.51s-5.77-5.88-11.48,1c-5.71,6.88-8.91,10-10.46,11.25
		C186.83,273.54,178.97,273.93,176.34,273.1z"/>
	<path style="fill:#EB996E;" d="M162.59,285.15c0,0-0.16,0-0.44-0.17l-1.21-0.58l-4.45-2.13c-3.77-1.76-9-4.09-15-6.27
		c-3-1.09-5.85-2.06-8.48-2.88s-5-1.42-7-2.27c-1.57-0.59-2.95-1.6-4-2.91c-0.26-0.37-0.48-0.78-0.65-1.2
		c-0.07-0.14-0.11-0.29-0.12-0.45c0.27,0.53,0.58,1.04,0.93,1.53c1.08,1.22,2.46,2.15,4,2.69c1.91,0.78,4.34,1.33,7,2.15
		s5.53,1.75,8.52,2.85c5.11,1.88,10.12,4.02,15,6.43c1.87,0.93,3.36,1.72,4.38,2.28l1.17,0.67
		C162.37,284.97,162.48,285.05,162.59,285.15z"/>
	<path style="fill:#EB996E;" d="M189.43,271.33c-0.96,1.32-2.25,2.38-3.73,3.07c-1.4,0.84-3,1.3-4.63,1.35
		c0-0.15,2.08-0.57,4.39-1.81S189.32,271.21,189.43,271.33z"/>
</g>
</svg>
