<?xml version="1.0" encoding="UTF-8"?>
<svg id="Layer_1" data-name="Layer 1" xmlns="http://www.w3.org/2000/svg" viewBox="0 0 432.25 459.08">
  <g id="freepik--background-complete--inject-17">
    <rect x="352" y="105.1" width="58.32" height="86.52" transform="translate(162.85 494.25) rotate(-79.01)" fill="#ebebeb"/>
    <path d="m429.33,128.74c-.29.23-.6.43-.93.61l-2.77,1.61-10.26,5.81-34.06,18.91-.28.16-.21-.25-.51-.59-25.52-30.12-7.66-9.2-2.05-2.52c-.26-.28-.48-.59-.68-.92.29.25.56.52.8.81.54.62,1.26,1.42,2.16,2.43l7.86,9,25.69,30,.51.59-.49-.08,34.17-18.75,10.38-5.6,2.84-1.48c.32-.17.66-.31,1.01-.42Z" fill="#e0e0e0"/>
    <path d="m333.28,169.49c-.14-.17,7.78-6.78,17.67-14.76s18-14.31,18.16-14.14-7.77,6.77-17.67,14.76-18.02,14.33-18.16,14.14Z" fill="#e0e0e0"/>
    <path d="m397.48,145.36c.2-.1,5,8.91,10.72,20.13s10.21,20.4,10,20.5-5-8.92-10.72-20.14-10.19-20.39-10-20.49Z" fill="#e0e0e0"/>
    <rect x="367.24" y="26.05" width="60.15" height="40.55" transform="translate(3.28 115.16) rotate(-16.56)" fill="#ebebeb"/>
    <path d="m420.69,18.68c-.11.23-.24.46-.39.67l-1.18,1.89c-1.09,1.67-2.6,4-4.46,6.88-3.83,5.83-9.08,13.8-14.9,22.64l-.12.18-.21-.08-.49-.18-25.44-10.39-7.68-3.21-2.08-.9c-.25-.09-.48-.21-.71-.34.26.06.51.14.75.24l2.12.8c1.88.75,4.52,1.78,7.75,3l25.49,10.28.5.2-.33.11,15-22.55,4.6-6.79,1.27-1.83c.15-.22.32-.43.51-.62Z" fill="#e0e0e0"/>
    <path d="m374.59,74.68c-.14-.06,2.61-6.68,6.14-14.78s6.51-14.62,6.65-14.56-2.61,6.68-6.15,14.78-6.5,14.64-6.64,14.56Z" fill="#e0e0e0"/>
    <path d="m406.4,39.18c.09-.13,5.94,3.89,13.08,9s12.85,9.29,12.77,9.41-5.95-3.89-13.09-9-12.85-9.29-12.76-9.41Z" fill="#e0e0e0"/>
    <rect x="379.56" y="221.23" width="29.63" height="43.96" transform="translate(149.58 636.61) rotate(-89.77)" fill="#f5f5f5"/>
    <path d="m416.57,228.85c-.13.14-.26.27-.41.39l-1.22,1.07c-1.11.94-2.67,2.25-4.57,3.87l-15.21,12.69-.12.11-.13-.1-.31-.25-15.6-12.64-4.7-3.86-1.26-1.07c-.15-.12-.3-.25-.43-.39.17.09.33.21.48.33l1.31,1,4.78,3.76,15.67,12.55.31.24h-.22l15.28-12.61,4.65-3.77,1.27-1c.13-.12.28-.23.43-.32Z" fill="#ebebeb"/>
    <path d="m372.48,258.3c-.08-.07,3.24-4.12,7.42-9s7.64-8.86,7.73-8.78-3.24,4.12-7.42,9-7.64,8.85-7.73,8.78Z" fill="#ebebeb"/>
    <path d="m402.24,240.16c.09-.06,3.34,4,7.26,9s7,9.21,6.95,9.28-3.34-4-7.26-9-7.03-9.21-6.95-9.28Z" fill="#ebebeb"/>
    <path d="m52.09,228.07c6.13-.81,11.18-5.19,12.85-11.14,2.43-8.18-1.82-16.67-9.49-19s-15.87,2.5-18.3,10.69c-1.89,5.96,0,12.47,4.79,16.49-22.33-3.04-28.16,20.57-28.16,20.57l50.57,15s8.03-23.19-12.26-32.61Z" fill="#ebebeb"/>
    <rect x="7.47" y="208.48" width="21.88" height="4.88" transform="translate(-189.19 169.35) rotate(-73.69)" fill="#ebebeb"/>
    <rect x="15.97" y="199.99" width="4.88" height="21.88" transform="translate(-189.21 169.36) rotate(-73.69)" fill="#ebebeb"/>
    <path d="m226.62,429.75c-1.8-1.55-5.82-6.44-2.72-12.14,1.14-2.08,3.55-3.12,5.73-4s4.48-1.72,6.29-3.25c3.41-2.9,4.35-7.72,6.61-11.59,2.6-4.44,7.45-7.77,12.57-7.54,5.87.27,10.76,5.06,13,10.52s2.3,11.53,2.34,17.43c0,3.26-.12,6.94-2.51,9.14-2.21,2-5.54,2.06-8.53,2l-32.06-1" fill="#f5f5f5"/>
    <path d="m287.94,341.59h-84.31l15.18,90.56c.64,3.85,3.45,6.99,7.2,8.06l.3.08c.25.07.49.15.75.2.56.11,1.14.17,1.71.19v.09l.41-.06h37.58c.69,0,1.38-.07,2.06-.21,4.51-.7,8-4.32,8.53-8.85l7.32-62.4.33-2.48h0l2.9-24.71.04-.47Zm-15.91,57.77h-8.65l.87-26.29h10l-2.22,26.29Zm3.09-26.29h8.28l-3.08,26.29h-7.45l2.25-26.29Zm-24.72,55.42l-.53-22.81h12.46l-.76,22.83-11.17-.02Zm-13.46-22.81h12.1l.52,22.83h-10.86l-1.76-22.83Zm.93,22.83h-10.16c-1-6.16-2.22-14.17-3.58-22.83h12l1.74,22.83Zm-1.42-29.13l-2-26.29h13.89l.6,26.29h-12.49Zm13.29,0l-.61-26.29h14.3l-.88,26.29h-12.81Zm-.8-32.61l-.56-24.34h16l-.8,24.34h-14.64Zm-.84,0h-14.16l-1.9-24.34h15.57l.49,24.34Zm-15.07,0h-15.02c-.54-3.36-1-6.54-1.5-9.41-1.57-9.84-2.16-13.54-2.49-14.93h17.16l1.85,24.34Zm.49,6.3l2,26.29h-12.37c-.42-2.67-.85-5.37-1.27-8.07-1-6.2-2-12.41-2.87-18.22h14.51Zm-11.26,26.29h-8.14l-4.41-26.29h8.41c1.32,8.13,2.75,17.17,4.18,26.29h-.04Zm1,6.3l3.58,22.83h-7.82l-3.8-22.81,8.04-.02Zm39.12,22.83l.76-22.83h8.32l-1.95,22.83h-7.13Zm2-61.72l.81-24.34h11.75l-2.08,24.34h-10.48Zm-51.24-24.34c.34,1.76,1.88,11.34,3.94,24.34h-8.46l-4.09-24.34h8.61Zm63.8,86.06h-6.52l1.91-22.81h7.25l-2.64,22.81Zm7.24-61.72h-8.48l2.08-24.34h9.26l-2.86,24.34Z" fill="#e0e0e0"/>
    <rect x="92.62" y="3.63" width="6.31" height="135.72" fill="#e0e0e0"/>
    <rect x="1.05" y="4.68" width="90.61" height="134.86" rx=".09" ry=".09" fill="#f5f5f5"/>
    <path d="m92.62,140.59H.09s-.09-.04-.09-.09V3.68s.04-.09.09-.09h92.53s.09.04.09.09v136.82s-.04.09-.09.09Zm-90.43-2.1h88.32s.09-.03.1-.08c0,0,0,0,0-.01V5.82s-.04-.09-.09-.09c0,0,0,0-.01,0H2.19s-.09.04-.09.09h0v132.58s.04.09.09.09Z" fill="#ebebeb"/>
    <rect x="10.17" y="13" width="72.52" height="118.13" rx=".09" ry=".09" fill="#fafafa"/>
    <rect x="25.99" y="46.49" width="40.72" height="47.73" rx=".06" ry=".06" fill="#ebebeb"/>
    <path d="m63.49,88.37c0,.16-2,1-5.78.59-2.35-.31-4.59-1.2-6.5-2.6-2.59-1.94-4.37-4.77-5-7.94-.76-4.05.71-8.2,3.86-10.86.86-.72,1.83-1.3,2.87-1.71,1.17-.43,2.42-.58,3.66-.42,1.36.13,2.64.69,3.67,1.59,1.16,1.1,1.7,2.7,1.44,4.27-.28,1.39-.98,2.67-2,3.66-.91.9-1.94,1.66-3.07,2.26-2.25,1.25-4.75,1.96-7.32,2.09-2.71.15-5.42-.46-7.8-1.77-2.46-1.37-4.46-3.44-5.73-5.95-1.32-2.57-1.67-5.52-1-8.33.65-2.72,2.2-5.14,4.39-6.87,1.1-.85,2.35-1.48,3.68-1.86,1.33-.35,2.73-.39,4.08-.12,1.46.27,2.78,1.02,3.77,2.12.95,1.12,1.47,2.54,1.47,4,0,1.34-.34,2.66-1,3.83-.58,1.06-1.34,2.01-2.24,2.81-1.69,1.42-3.65,2.46-5.77,3.06-1.97.58-4.04.74-6.07.47-1.89-.25-3.7-.93-5.28-2-2.74-1.82-4.56-4.74-5-8-.27-2.44.4-4.89,1.87-6.85.88-1.22,2.08-2.17,3.46-2.76,1-.36,1.49-.35,1.52-.26s-.43.34-1.21.85c-1.09.76-2.01,1.74-2.68,2.89-1.06,1.75-1.45,3.83-1.1,5.85.53,2.61,2.13,4.88,4.4,6.27,2.81,1.64,6.19,1.96,9.25.88,1.7-.54,3.27-1.43,4.61-2.61,1.33-1.05,2.13-2.64,2.17-4.34-.02-1.59-1.21-2.91-2.79-3.08-.88-.16-1.79-.12-2.66.12-.91.28-1.77.73-2.52,1.32-1.58,1.27-2.69,3.03-3.16,5-.46,2.03-.18,4.15.77,6,.98,1.92,2.51,3.5,4.39,4.55,1.83,1.01,3.91,1.5,6,1.41,2.07-.09,4.1-.64,5.93-1.62.87-.44,1.66-1,2.37-1.67.59-.53,1.01-1.23,1.2-2,.12-.57-.07-1.16-.49-1.57-.56-.49-1.26-.79-2-.87-.78-.12-1.57-.05-2.31.2-.76.31-1.46.74-2.07,1.28-2.48,1.99-3.73,5.15-3.28,8.3.44,2.68,1.81,5.12,3.88,6.88,1.62,1.35,3.52,2.32,5.57,2.82,3.45.8,5.52.4,5.55.69Z" fill="#e0e0e0"/>
    <polygon points="54.42 398.7 60.59 439.26 96.45 439.26 104.77 399.29 54.42 398.7" fill="#ebebeb"/>
    <path d="m99.76,424.68c0,.11-9.19.21-20.52.21s-20.52-.1-20.52-.21,9.18-.21,20.52-.21,20.52.11,20.52.21Z" fill="#fafafa"/>
    <path d="m99.94,422.68c0,.12-9.24.21-20.65.21s-20.66-.09-20.66-.21,9.25-.21,20.66-.21,20.65.12,20.65.21Z" fill="#fafafa"/>
    <path d="m99.82,420.45c0,.12-9.25.21-20.65.21s-20.66-.09-20.66-.21,9.24-.21,20.66-.21,20.65.09,20.65.21Z" fill="#fafafa"/>
    <path d="m64.71,436.95c-.5-1.67-.87-3.38-1.1-5.11-.36-1.7-.59-3.42-.67-5.16.5,1.67.86,3.38,1.1,5.11.36,1.7.59,3.42.67,5.16Z" fill="#fafafa"/>
    <path d="m67.15,436.52c-.26-1.66-.4-3.33-.44-5-.19-1.66-.27-3.33-.24-5,.39,1.64.62,3.31.66,5,.17,1.66.18,3.34.02,5Z" fill="#fafafa"/>
    <path d="m71.6,436.52c-.5-1.66-.81-3.38-.94-5.11-.27-1.72-.36-3.46-.27-5.19.33,1.7.56,3.41.69,5.14.27,1.71.44,3.43.52,5.16Z" fill="#fafafa"/>
    <path d="m74.72,436.73c-.55-3.44-.67-6.93-.34-10.4.18,1.72.27,3.46.26,5.19.13,1.73.15,3.47.08,5.21Z" fill="#fafafa"/>
    <path d="m80.24,436.52c-.26-1.63-.39-3.28-.38-4.93-.14-1.64-.14-3.3,0-4.94.26,1.63.38,3.28.37,4.93.15,1.64.15,3.3,0,4.94Z" fill="#fafafa"/>
    <path d="m84.28,436.73c-.2-1.69-.26-3.4-.17-5.1-.06-1.7.02-3.4.25-5.09.19,1.69.25,3.4.17,5.1.05,1.7-.04,3.4-.25,5.09Z" fill="#fafafa"/>
    <path d="m88.06,436.19c.05-3.56.38-7.11,1-10.61.03,1.78-.07,3.56-.31,5.32-.09,1.78-.32,3.55-.69,5.29Z" fill="#fafafa"/>
    <path d="m92.94,435.68c0-1.53.21-3.05.6-4.53.26-1.51.71-2.97,1.33-4.37-.22,1.5-.53,2.99-.92,4.46-.25,1.5-.59,2.98-1.01,4.44Z" fill="#fafafa"/>
    <path d="m89.48,318.68v.19c0,.12-.1.35-.17.58-.16.53-.39,1.26-.68,2.19s-.67,2.1-1.05,3.47-.87,2.89-1.29,4.62-1,3.61-1.4,5.65-.92,4.23-1.38,6.53c-.86,4.62-1.65,9.74-2.2,15.14s-.77,10.57-.84,15.27c0,2.35,0,4.59.07,6.68s.14,4,.25,5.81.24,3.38.35,4.79.24,2.62.35,3.61.18,1.72.23,2.28c0,.24,0,.43.06.59,0,.07,0,.14,0,.21,0-.07,0-.13,0-.2,0-.16,0-.35-.09-.59-.08-.56-.18-1.31-.31-2.27s-.3-2.2-.42-3.61-.32-3-.42-4.79-.25-3.73-.3-5.82-.09-4.34-.11-6.69c.05-4.72.28-9.9.81-15.32s1.35-10.53,2.23-15.16c.48-2.31.92-4.51,1.43-6.54s1-3.93,1.45-5.65,1-3.26,1.35-4.61.79-2.51,1.13-3.45l.75-2.17.21-.56v-.18Z" fill="#ebebeb"/>
    <path d="m83.01,343.79c.99-2.91,2.97-5.38,5.58-7,.83-.66,1.94-.86,2.95-.54,1.25.6,1.35,2.36,1,3.7-.62,2.27-2.04,4.23-4,5.53-1.75,1.29-3.94,1.84-6.09,1.54" fill="#ebebeb"/>
    <path d="m80.83,360.75c.93-3.5,3.72-8.48,6.62-10.65.45-.36.96-.63,1.51-.8.56-.16,1.16-.03,1.61.35.5.66.64,1.54.36,2.32-1.21,5.21-5.26,9.28-10.46,10.53" fill="#ebebeb"/>
    <path d="m80.23,375.68c1.45-3.35,3.77-6.25,6.71-8.4.63-.58,1.47-.88,2.33-.83,1.27.23,1.84,1.77,1.73,3.06-.23,2.64-2.25,4.75-4.33,6.39-1.91,1.32-3.98,2.39-6.17,3.18" fill="#ebebeb"/>
    <path d="m80.57,386.4c1.4-2.54,3.33-4.75,5.68-6.46.5-.39,1.09-.65,1.71-.77.63-.11,1.27.14,1.67.64.57.83,0,2-.58,2.77-2,2.81-4.84,4.91-8.11,6" fill="#ebebeb"/>
    <path d="m80.29,382.04c-2.45-3-5.17-5.76-8.12-8.27-.46-.39-1-.8-1.62-.61-.45.18-.74.61-.75,1.09,0,.47.11.94.31,1.36,1.97,4.37,5.82,7.61,10.46,8.79" fill="#ebebeb"/>
    <path d="m80.55,368.08l-6.38-7.78c-.56-.79-1.26-1.47-2.07-2-.84-.51-1.89-.51-2.73,0-.75.62-1.09,1.62-.87,2.57.23.93.66,1.81,1.25,2.56,1.24,1.92,2.81,3.59,4.65,4.94,1.87,1.29,3.57,2.13,5.82,1.79" fill="#ebebeb"/>
    <path d="m81.44,352.36c-1.25-3.73-3.47-7.05-6.43-9.64-.46-.47-1.04-.82-1.67-1-1.34-.11-2.57.76-2.93,2.06-.4,1.43-.19,2.96.59,4.22.78,1.25,1.8,2.32,3,3.17,2.15,1.64,4.55,2.94,7.1,3.84" fill="#ebebeb"/>
    <path d="m83.99,338.34c-.62-4.51-3-8.26-5.69-11.91-.57-.77-1.37-1.59-2.32-1.44-.61.13-1.11.56-1.33,1.14-.21.58-.3,1.19-.26,1.8.25,5.57,3.79,10.46,9,12.45" fill="#ebebeb"/>
    <path d="m85.77,331.18c-.29-2.32-.37-4.66-.23-7,.14-2.34.95-4.6,2.32-6.5.58-.82,1.38-1.46,2.31-1.84.95-.38,2.03-.24,2.85.37.7.64,1.06,1.57,1,2.51-.08.93-.33,1.83-.72,2.67-1.7,4.09-4.54,8.62-7.5,9.76" fill="#ebebeb"/>
    <path d="m57.94,336.56c.02.19.02.38,0,.57v4.23c0,1.01,0,2.15.13,3.42.11,2.54.35,5.55.74,8.89s1,7,1.76,10.77,1.76,7.36,2.72,10.57,2,6.07,2.89,8.44c.43,1.19.89,2.25,1.26,3.19s.72,1.73,1,2.38l.64,1.51c.09.17.16.35.2.54-.1-.16-.19-.33-.27-.51l-.72-1.47c-.31-.64-.67-1.43-1.07-2.36s-.87-2-1.32-3.17c-1-2.36-2-5.22-3-8.43s-1.95-6.8-2.76-10.6-1.2-7.47-1.6-10.85-.58-6.37-.65-8.92c-.06-1.27,0-2.42-.06-3.43s0-1.88,0-2.59,0-1.22.06-1.64c0-.18.02-.36.05-.54Z" fill="#e0e0e0"/>
    <path d="m58.94,355.05c.04-2.2.85-4.33,2.28-6,.43-.63,1.13-1,1.89-1,1,.15,1.43,1.32,1.46,2.31.05,1.69-.5,3.33-1.57,4.64-.91,1.25-2.28,2.1-3.81,2.36" fill="#e0e0e0"/>
    <path d="m61.14,367.06c-.13-2.58.7-6.57,2.21-8.67.22-.34.51-.64.85-.87.35-.23.79-.27,1.17-.11.49.34.77.91.75,1.51.29,3.81-1.59,7.45-4.86,9.42" fill="#e0e0e0"/>
    <path d="m63.94,377.36c.26-2.59,1.21-5.06,2.74-7.16.31-.53.82-.91,1.41-1.06.91-.12,1.63.81,1.83,1.71.41,1.84-.5,3.72-1.57,5.28-1.01,1.31-2.2,2.49-3.52,3.49" fill="#e0e0e0"/>
    <path d="m66.48,384.59c.4-2.04,1.25-3.96,2.48-5.63.26-.37.6-.67,1-.88.41-.22.9-.19,1.28.07.57.45.44,1.33.2,2-.76,2.33-2.25,4.37-4.24,5.8" fill="#e0e0e0"/>
    <path d="m65.35,381.68c-2.31-1.52-4.76-2.81-7.31-3.88-.38-.23-.84-.26-1.24-.07-.26.22-.37.57-.27.9.1.32.27.61.5.86,2.28,2.55,5.59,3.92,9,3.74" fill="#e0e0e0"/>
    <path d="m62.52,372.12l-6-3.92c-.55-.41-1.17-.72-1.83-.9-.68-.17-1.4.05-1.86.57-.37.59-.37,1.34,0,1.93.35.59.83,1.09,1.39,1.48,1.24,1.04,2.65,1.85,4.17,2.4,1.39.59,2.97.59,4.36,0" fill="#e0e0e0"/>
    <path d="m59.74,361.22c-1.66-2.26-3.88-4.05-6.45-5.18-.42-.22-.88-.32-1.35-.3-.93.21-1.57,1.05-1.55,2,.04,1.06.51,2.06,1.31,2.75.8.68,1.73,1.2,2.73,1.51,1.81.66,3.72,1.02,5.65,1.08" fill="#e0e0e0"/>
    <path d="m58.46,351.13c-1.39-2.94-3.8-5-6.44-6.89-.5-.48-1.22-.66-1.89-.48-.39.22-.63.62-.66,1.07-.02.44.06.87.22,1.28,1.35,3.77,4.83,6.36,8.83,6.57" fill="#e0e0e0"/>
    <path d="m58.14,345.87c-.7-1.51-1.26-3.08-1.66-4.69-.41-1.62-.35-3.33.17-4.92.22-.68.63-1.29,1.18-1.76.56-.46,1.32-.59,2-.36.61.29,1.05.84,1.2,1.5.15.66.18,1.33.09,2-.28,3.15-1.24,6.85-3,8.26" fill="#e0e0e0"/>
    <path d="m103.3,336.17c.02.19.02.38,0,.57,0,.41,0,1,.06,1.63s.05,1.58,0,2.6,0,2.16-.06,3.43c-.07,2.55-.29,5.57-.65,8.92s-.95,7-1.74,10.81-1.77,7.38-2.75,10.6-2,6.08-3,8.43c-.45,1.2-.93,2.24-1.32,3.17s-.76,1.73-1.07,2.37-.53,1.1-.72,1.47c-.07.18-.16.34-.27.5.05-.18.12-.36.2-.53.16-.39.37-.89.64-1.51s.63-1.45,1-2.39.83-2,1.26-3.18c.92-2.37,1.91-5.23,2.9-8.44s1.9-6.78,2.71-10.57,1.35-7.45,1.76-10.78.63-6.34.75-8.88c.08-1.27.09-2.42.12-3.43s0-1.87,0-2.59v-1.63c.05-.19.11-.38.18-.57Z" fill="#ebebeb"/>
    <path d="m102.3,354.68c-.04-2.2-.85-4.33-2.28-6-.42-.63-1.13-1-1.89-1-1,.14-1.43,1.32-1.46,2.31-.05,1.69.5,3.33,1.57,4.64.91,1.26,2.29,2.1,3.82,2.36" fill="#ebebeb"/>
    <path d="m100.14,366.68c.12-2.58-.71-6.57-2.22-8.67-.22-.34-.51-.64-.85-.87-.35-.23-.79-.27-1.17-.11-.49.34-.77.91-.75,1.51-.29,3.81,1.59,7.45,4.86,9.42" fill="#ebebeb"/>
    <path d="m97.33,376.96c-.26-2.59-1.2-5.05-2.74-7.15-.3-.53-.81-.92-1.4-1.07-.92-.11-1.64.82-1.84,1.71-.41,1.85.51,3.73,1.57,5.29,1.02,1.31,2.2,2.48,3.52,3.49" fill="#ebebeb"/>
    <path d="m94.79,384.2c-.4-2.04-1.24-3.96-2.47-5.63-.26-.37-.6-.67-1-.89-.41-.21-.9-.18-1.28.08-.56.44-.44,1.33-.2,2,.77,2.33,2.25,4.35,4.24,5.79" fill="#ebebeb"/>
    <path d="m95.94,381.29c2.31-1.52,4.76-2.82,7.31-3.89.38-.23.84-.25,1.24-.07.26.22.37.58.27.91-.1.32-.27.61-.5.86-2.28,2.55-5.59,3.92-9,3.74" fill="#ebebeb"/>
    <path d="m98.75,371.73l6-3.93c.55-.41,1.17-.71,1.83-.89.68-.18,1.39.04,1.86.56.37.59.37,1.35,0,1.94-.36.58-.83,1.09-1.4,1.47-1.26,1.04-2.69,1.84-4.23,2.37-1.39.59-2.97.59-4.36,0" fill="#ebebeb"/>
    <path d="m101.53,360.83c1.65-2.25,3.86-4.02,6.41-5.15.42-.22.88-.33,1.35-.31.93.21,1.57,1.05,1.55,2-.03,1.06-.5,2.07-1.31,2.76-.8.67-1.72,1.19-2.72,1.51-1.82.65-3.73,1.02-5.66,1.08" fill="#ebebeb"/>
    <path d="m102.81,350.74c1.39-2.94,3.8-5,6.44-6.89.5-.48,1.22-.66,1.89-.48.39.22.64.62.66,1.07.02.44-.05.87-.22,1.28-1.38,3.74-4.85,6.31-8.83,6.53" fill="#ebebeb"/>
    <path d="m103.14,345.48c.7-1.51,1.25-3.09,1.66-4.7.4-1.62.34-3.33-.18-4.92-.22-.68-.63-1.29-1.18-1.75-.56-.46-1.32-.59-2-.36-.6.29-1.04.84-1.2,1.49-.14.66-.17,1.33-.09,2,.28,3.15,1.24,6.84,3,8.26" fill="#ebebeb"/>
    <path d="m50.31,390.68v7.59c0,1.66,1.34,3,3,3h51.93c1.66,0,3-1.34,3-3h0v-7.59h-57.93Z" fill="#ebebeb"/>
    <polygon points="54.81 401.25 55.24 403.67 103.15 407.08 104.36 401.25 54.81 401.25" fill="#e0e0e0"/>
  </g>
  <g id="freepik--Plant--inject-17">
    <path d="m365.39,360.17c-.08.11-.76-.3-1.52-.91s-1.31-1.18-1.23-1.28.77.3,1.52.91,1.31,1.18,1.23,1.28Z" fill="#263238"/>
    <path d="m386.08,329.25c.29-2.89.05-5.8-.71-8.6-.91-2.74-3-5.27-5.86-5.85-3.23-.67-6.54,1.37-8.35,4.13s-2.44,6.11-3,9.36c-3.69,22.47-5.05,45.25-4.05,68l13.22,1.85c5.84-23.73,7.69-44.46,8.75-68.89Z" fill="#455a64"/>
    <path d="m377.68,314.68s0,.08-.06.22l-.22.6c-.22.55-.51,1.32-.88,2.28-.19.5-.43,1-.63,1.65l-.64,2c-.23.72-.48,1.48-.74,2.3s-.45,1.7-.68,2.62c-1.11,4.31-1.96,8.68-2.56,13.09-.71,5-1.18,10.48-1.55,16.27-.68,11.59-.79,22.11-1.08,29.71-.14,3.81-.28,6.89-.42,9-.07,1-.13,1.85-.17,2.44,0,.26,0,.47-.05.64,0,.07,0,.15,0,.22v-.86c0-.6,0-1.42.08-2.45.08-2.13.16-5.2.26-9,.22-7.6.27-18.12.94-29.73.37-5.8.86-11.32,1.6-16.3.62-4.42,1.51-8.81,2.66-13.12l.72-2.62c.28-.81.54-1.58.78-2.3l.68-2c.21-.62.47-1.15.67-1.65.4-1,.73-1.7,1-2.25l.26-.58c0-.06.02-.12.03-.18Z" fill="#263238"/>
    <path d="m378.94,314.68c.69.82,1.24,1.74,1.62,2.74,1.01,2.73,1.42,5.65,1.21,8.55-.36,7.31-1,17.38-1.88,28.5s-1.84,21.18-2.62,28.44c-.39,3.64-.73,6.57-1,8.6-.13.98-.23,1.76-.3,2.34l-.09.6c0,.07-.02.14-.05.21v-.82c.06-.58.13-1.36.22-2.35.19-2.07.48-5,.82-8.61.7-7.27,1.61-17.33,2.49-28.44s1.58-21.19,2-28.48c.26-2.86-.08-5.75-1-8.47-.39-.98-.86-1.92-1.42-2.81Z" fill="#263238"/>
    <path d="m388.07,348.93c-.87-.06-1.71-.27-2.5-.64-.84-.23-1.64-.6-2.35-1.1.87.07,1.72.29,2.51.65.84.22,1.63.59,2.34,1.09Z" fill="#263238"/>
    <path d="m389.67,335.45c-1.52,1.03-3.22,1.78-5,2.22.72-.57,1.53-1.01,2.39-1.32.81-.45,1.7-.75,2.61-.9Z" fill="#263238"/>
    <path d="m388.84,324.45c-1.31.22-2.65.13-3.91-.27,1.31-.22,2.65-.13,3.91.27Z" fill="#263238"/>
    <path d="m375.19,317.4c-.11.07-.69-.65-1.29-1.61s-1-1.79-.89-1.86.68.65,1.29,1.61,1,1.79.89,1.86Z" fill="#263238"/>
    <path d="m370.68,324.05c0,.14-.84.22-1.88.2-.64.06-1.28-.03-1.87-.27,0-.14.85-.22,1.88-.2.64-.06,1.28.03,1.87.27Z" fill="#263238"/>
    <path d="m367.44,337.37c-.7-.03-1.38-.22-2-.55-1-.42-1.85-.86-1.8-1,.7.03,1.39.21,2,.55,1.05.44,1.85.87,1.8,1Z" fill="#263238"/>
    <path d="m367.1,348.56c0,.13-.73.39-1.69.59-.57.19-1.18.24-1.78.14,0-.13.73-.4,1.69-.6s1.75-.26,1.78-.13Z" fill="#263238"/>
    <path d="m365.57,366.87c0,.13-.77.38-1.78.56-.61.18-1.25.22-1.87.1,0-.13.77-.38,1.78-.56s1.85-.23,1.87-.1Z" fill="#263238"/>
    <path d="m364.56,376.98c.06.11-.6.59-1.49,1.05s-1.65.76-1.71.64.61-.59,1.49-1.05,1.65-.76,1.71-.64Z" fill="#263238"/>
    <path d="m372.82,388.45c-.12.07-.7-.74-1.3-1.79-.43-.6-.74-1.28-.89-2,.11-.06.69.74,1.3,1.79.43.6.73,1.28.89,2Z" fill="#263238"/>
    <path d="m375.2,369.39c.09.09-.56.87-1.45,1.74s-1.68,1.51-1.78,1.42.56-.88,1.45-1.75,1.69-1.51,1.78-1.41Z" fill="#263238"/>
    <path d="m374.67,359.38c-.1.09-.7-.4-1.34-1.1s-1.09-1.33-1-1.42.7.4,1.35,1.1,1.09,1.33.99,1.42Z" fill="#263238"/>
    <path d="m376.31,346.6c.09.09-.45.85-1.21,1.7s-1.46,1.47-1.56,1.38.45-.84,1.21-1.69,1.46-1.48,1.56-1.39Z" fill="#263238"/>
    <path d="m377.23,337.33c-.09.09-.85-.5-1.68-1.33s-1.45-1.56-1.35-1.66.84.5,1.68,1.33,1.44,1.56,1.35,1.66Z" fill="#263238"/>
    <path d="m379.04,324.79c-.14.68-.43,1.31-.84,1.87-.58,1-1.14,1.71-1.25,1.64s.26-.91.84-1.88,1.15-1.74,1.25-1.63Z" fill="#263238"/>
    <path d="m382.45,313.17c-.11.67-.36,1.32-.75,1.88-.53,1-1.05,1.71-1.16,1.65s.22-.9.74-1.88,1.05-1.72,1.17-1.65Z" fill="#263238"/>
    <path d="m386.31,318.44c.06.12-.47.49-1.18.83s-1.33.52-1.39.4.48-.49,1.19-.82,1.32-.52,1.38-.41Z" fill="#263238"/>
    <path d="m386.4,360.18c-.9,0-1.78-.21-2.58-.63-.86-.28-1.64-.78-2.25-1.44.84.25,1.66.59,2.43,1,.84.27,1.64.63,2.4,1.07Z" fill="#263238"/>
    <path d="m384.82,369.01c0,.13-.77.39-1.77.59s-1.85.25-1.87.12.77-.39,1.78-.59c.6-.19,1.24-.23,1.86-.12Z" fill="#263238"/>
    <path d="m382.88,384.17c-.81-.4-1.5-1.01-2-1.77-.62-.66-1.06-1.47-1.26-2.36.6.64,1.15,1.33,1.63,2.07.6.64,1.15,1.33,1.63,2.06Z" fill="#263238"/>
    <path d="m361.62,391.1c-.08-.1.46-.7,1.2-1.34s1.43-1.07,1.51-1-.45.7-1.2,1.34-1.42,1.1-1.51,1Z" fill="#263238"/>
    <path d="m355.51,358.02c-.86-2.69-2.48-5.82-5.3-5.86-1.72.09-3.25,1.11-4,2.66-.77,1.5-1.14,3.18-1.07,4.86.35,11.97,2.39,23.83,6.07,35.23h10.32c-.11-12.53-2.14-24.97-6.02-36.89Z" fill="#455a64"/>
    <path d="m336.83,341.1c-1.05-5.17-5.48-8.95-10.75-9.18-4.56.8-6.33,5.29-6.87,9.9s.88,9.18,2.3,13.59l13.59,42.52,12.85-1.4c-4.07-18.99-6.41-36.59-11.12-55.43Z" fill="#455a64"/>
    <path d="m350.21,352.16c-.32.47-.61.95-.87,1.46-.53,1.46-.7,3.03-.49,4.57.2,2,.43,4.32.76,6.91s.8,5.44,1.38,8.41c1.17,5.93,2.48,11.25,3.32,15.13.42,1.94.74,3.52.94,4.61.09.5.16.92.22,1.26.02.15.02.29,0,.44-.06-.13-.11-.27-.13-.42-.09-.34-.19-.75-.31-1.24-.27-1.15-.64-2.7-1.09-4.57-.91-3.86-2.28-9.17-3.45-15.12-.58-3-1-5.83-1.35-8.44-.17-1.31-.28-2.55-.38-3.71s-.22-2.24-.28-3.24c-.19-1.58.04-3.19.65-4.66.26-.54.62-1.01,1.08-1.39Z" fill="#263238"/>
    <path d="m326.27,331.55c-.57.66-1.08,1.36-1.55,2.09-1.2,2.04-1.89,4.35-2,6.72-.04,3.51.51,7,1.63,10.32,1.13,3.82,2.37,8,3.67,12.42,2.56,8.81,4.88,16.77,6.57,22.6l1.94,6.87.51,1.87c.07.21.12.44.14.66-.09-.2-.17-.41-.23-.63-.15-.47-.35-1.08-.59-1.85l-2.09-6.82c-1.73-5.82-4.09-13.78-6.71-22.57-1.28-4.41-2.51-8.61-3.63-12.44-1.1-3.38-1.61-6.93-1.5-10.48.13-2.41.86-4.75,2.13-6.8.46-.74,1.04-1.4,1.71-1.96Z" fill="#263238"/>
    <path d="m345.14,395.16c-.11-.2-.21-.41-.29-.62-.16-.41-.44-1-.73-1.81-.61-1.58-1.4-3.9-2.21-6.82s-1.62-6.44-2.39-10.36-1.56-8.25-2.42-12.78-1.89-8.8-3-12.62c-1-3.39-2.26-6.7-3.75-9.9-1.01-2.16-2.17-4.24-3.46-6.24-.44-.72-.85-1.24-1.09-1.62-.14-.18-.25-.37-.35-.58.16.16.3.34.43.53.27.36.69.86,1.16,1.57,1.36,1.97,2.57,4.04,3.61,6.19,1.55,3.2,2.84,6.52,3.86,9.92,1.24,4.16,2.26,8.39,3.05,12.66.85,4.53,1.65,8.85,2.39,12.79s1.51,7.43,2.29,10.35,1.5,5.26,2.06,6.85c.26.8.5,1.41.64,1.83.09.21.16.43.2.66Z" fill="#263238"/>
    <path d="m321.73,353.29c0,.13-.66.41-1.56.62s-1.64.29-1.67.17.67-.41,1.56-.62,1.64-.29,1.67-.17Z" fill="#263238"/>
    <path d="m320.37,344.52c-.7.21-1.43.29-2.16.24-.73.11-1.46.08-2.18-.07.68-.31,1.42-.45,2.16-.4.73-.1,1.48-.02,2.18.23Z" fill="#263238"/>
    <path d="m321.82,336.52c-.08.1-.78-.36-1.56-1s-1.34-1.27-1.25-1.37.78.36,1.56,1,1.37,1.27,1.25,1.37Z" fill="#263238"/>
    <path d="m325.74,329.1c.13,0,.09.66.07,1.41s0,1.38-.15,1.4-.34-.6-.32-1.41.28-1.43.4-1.4Z" fill="#263238"/>
    <path d="m333.75,332.6c.11.07-.21.7-.7,1.41s-1,1.22-1.09,1.14.21-.71.7-1.41.98-1.22,1.09-1.14Z" fill="#263238"/>
    <path d="m338.94,341.62c0,.13-.62.51-1.49.87s-1.61.54-1.66.42.61-.51,1.48-.86,1.67-.55,1.67-.43Z" fill="#263238"/>
    <path d="m342.1,350.91c-1.24.86-2.76,1.21-4.26,1,.68-.27,1.39-.45,2.12-.54.69-.24,1.41-.4,2.14-.46Z" fill="#263238"/>
    <path d="m327.62,348.28c-.12,0,0-.69.2-1.44s.53-1.33.66-1.29,0,.68-.2,1.43-.53,1.33-.66,1.3Z" fill="#263238"/>
    <path d="m329.64,359.94c.04-.68.24-1.34.58-1.93.44-1,.9-1.8,1-1.75-.04.68-.24,1.35-.58,1.94-.42,1.01-.88,1.79-1,1.74Z" fill="#263238"/>
    <path d="m324.65,363.13c-.64,0-1.27-.15-1.85-.41-1-.3-1.78-.59-1.75-.72.65-.08,1.3.01,1.9.27.99.32,1.75.74,1.7.86Z" fill="#263238"/>
    <path d="m327.53,372.68c.08.11-.47.63-1.23,1.17s-1.43.89-1.5.78.47-.63,1.23-1.17,1.42-.93,1.5-.78Z" fill="#263238"/>
    <path d="m329.84,382.12c0,.13-.65.4-1.52.61s-1.61.28-1.64.16.65-.4,1.52-.62,1.61-.28,1.64-.15Z" fill="#263238"/>
    <path d="m342.35,358.83c.07.11-.51.58-1.36.9s-1.59.35-1.61.23.64-.37,1.44-.68,1.47-.6,1.53-.45Z" fill="#263238"/>
    <path d="m344.14,373.58c-.05.12-.75-.09-1.55-.46s-1.4-.78-1.35-.9.75.09,1.55.47,1.41.78,1.35.89Z" fill="#263238"/>
    <path d="m347.3,384.14c-.71-.03-1.41-.22-2.05-.55-1.08-.42-1.92-.87-1.87-1,.71.03,1.41.22,2.05.55,1.08.43,1.92.88,1.87,1Z" fill="#263238"/>
    <path d="m330.34,392.41c-.06-.12.78-.69,1.75-1.46s1.73-1.45,1.83-1.35-.52.93-1.53,1.72c-.57.54-1.28.92-2.05,1.09Z" fill="#263238"/>
    <path d="m338.69,387.04c-.14,0-.32-.69-.64-1.52s-.66-1.47-.55-1.55.65.49,1,1.38.31,1.68.19,1.69Z" fill="#263238"/>
    <path d="m336.47,374.35c-.07.1-.61-.15-1.2-.58s-1-.85-.93-.95.62.15,1.21.57,1,.85.92.96Z" fill="#263238"/>
    <path d="m355.94,354.45c.08.11-.45.63-1.17,1.16s-1.38.89-1.46.78.45-.62,1.17-1.16,1.37-.88,1.46-.78Z" fill="#263238"/>
    <path d="m358.86,362.47c0,.13-.81.3-1.83.19s-1.78-.46-1.74-.58.83,0,1.79.11,1.77.15,1.78.28Z" fill="#263238"/>
    <path d="m346.26,364.27c0,.12-.73.39-1.72.46s-1.77-.1-1.76-.23.78-.18,1.73-.24,1.72-.12,1.75.01Z" fill="#263238"/>
    <path d="m347.34,356.68c0,.12-.78.14-1.62-.25s-1.33-1-1.24-1.07.67.3,1.44.65,1.44.54,1.42.67Z" fill="#263238"/>
    <path d="m359.94,371.07c-.07.11-.86-.26-1.76-.83s-1.57-1.11-1.51-1.22.86.26,1.76.82,1.58,1.12,1.51,1.23Z" fill="#263238"/>
    <rect x="323.46" y="393.56" width="67.24" height="11.92" fill="#ff7200"/>
    <polygon points="328.48 403.12 336.65 438.73 376.73 438.73 385.67 403.12 328.48 403.12" fill="#ff7200"/>
    <path d="m390.65,405.5c0,.13-15.16.23-33.87.23s-33.84-.05-33.84-.23,15.16-.24,33.87-.24,33.84.11,33.84.24Z" fill="#263238"/>
    <path d="m353.26,364.53c-.11.07-.57-.47-1-1.2s-.74-1.38-.63-1.45.57.47,1,1.2.74,1.38.63,1.45Z" fill="#263238"/>
    <path d="m353.29,374.11c-.13,0,0-.85.35-1.81s.68-1.7.8-1.66c.04.62-.08,1.25-.35,1.81-.32.96-.68,1.71-.8,1.66Z" fill="#263238"/>
    <path d="m356.57,384.18c-.12.06-.62-.75-1.12-1.8-.38-.61-.61-1.29-.7-2,.12-.06.62.75,1.12,1.8.38.61.62,1.29.7,2Z" fill="#263238"/>
    <path d="m349.47,392.28c-.1-.09.3-.71.89-1.4s1.16-1.16,1.26-1.08-.31.71-.9,1.39-1.15,1.17-1.25,1.09Z" fill="#263238"/>
    <path d="m347.94,377.57c0,.13-.67.13-1.45,0s-1.38-.35-1.36-.48.67-.12,1.44,0,1.43.36,1.37.48Z" fill="#263238"/>
  </g>
  <g id="freepik--character-1--inject-17">
    <path d="m141.99,396.59c-.15,1.12-2.9,32.3-2.9,32.3h-14.28l-2.5-32.21,19.68-.09Z" fill="#eb996e"/>
    <path d="m140.71,426.74v1.12s19.23,7.09,19.54,10.69l-37.77.9.22-12.58c5.74,2.58,12.31,2.53,18.01-.13Z" fill="#ff7200"/>
    <g opacity=".6">
      <path d="m126.66,430.8c-.74.26-1.16,1.02-1,1.78.23.75,1.01,1.19,1.77,1,.79-.26,1.26-1.08,1.07-1.89-.31-.77-1.17-1.16-1.95-.87" fill="#fff"/>
    </g>
    <g opacity=".6">
      <path d="m122.52,439.45l.06-3,36.17.25s1.7.7,1.54,1.88l-37.77.87Z" fill="#fff"/>
    </g>
    <path d="m140.88,427.97c0,.18-.92.29-1.81.9s-1.36,1.4-1.53,1.33.07-1.14,1.17-1.86,2.23-.54,2.17-.37Z" fill="#263238"/>
    <path d="m144.88,429.51c.05.18-.75.51-1.35,1.3s-.77,1.63-1,1.62-.32-1,.45-2,1.89-1.1,1.9-.92Z" fill="#263238"/>
    <path d="m147.24,434.2c-.17,0-.44-.88,0-1.9s1.3-1.44,1.38-1.29-.44.71-.8,1.55-.4,1.61-.58,1.64Z" fill="#263238"/>
    <path d="m129.42,402.55c-.14,1.11-2.89,32.29-2.89,32.29h-14.28l-2.5-32.16,19.67-.13Z" fill="#ffbe9d"/>
    <path d="m112.21,430.2s10,7.11,14.89,1l1.26,3,5.71,21.27c.4,1.38-.29,2.84-1.61,3.41-.99.41-2.13.19-2.91-.55-4.13-3.93-19.23-18.44-19.09-20.41l.06-5.22c0-1.08.68-2.05,1.69-2.44v-.06Z" fill="#ff7200"/>
    <g opacity=".6">
      <path d="m131.94,458.97l-21.51-22.92v1.14c-.06.95.31,1.87,1,2.52,1.74,2.34,6.56,7.59,18,18.56.67.64,1.61.9,2.51.7Z" fill="#fff"/>
    </g>
    <g opacity=".6">
      <path d="m113.61,432.68c.69.5.88,1.44.46,2.18-.47.71-1.42.92-2.15.48-.73-.53-.94-1.53-.48-2.31.57-.69,1.59-.8,2.29-.25" fill="#fff"/>
    </g>
    <path d="m125.77,447.23c.64-.85,1.44-1.56,2.35-2.1.99-.4,2.04-.6,3.1-.61,0-.07-.32-.27-.95-.36-1.69-.17-3.33.64-4.22,2.09-.31.56-.35.96-.28.98Z" fill="#263238"/>
    <path d="m127.7,450.83c.77-.44,1.56-.83,2.38-1.17.87-.17,1.75-.29,2.63-.35.08-.14-1.22-.7-2.8-.22s-2.35,1.67-2.21,1.74Z" fill="#263238"/>
    <path d="m122.18,442.62c.13.13,1.44-1.23,3.55-2.05s4-.77,4-.95c-2.88-.55-5.82.62-7.54,3h-.01Z" fill="#263238"/>
    <path d="m121.7,436.15c.07.16,1.56-.47,3.49-.55s3.48.38,3.53.22-1.47-.92-3.55-.81c-1.25-.04-2.48.36-3.47,1.14Z" fill="#263238"/>
    <path d="m126.3,435.54c.02-.34-.03-.68-.15-1-.27-.9-.7-1.74-1.29-2.48-.39-.57-.95-1-1.6-1.22-.45-.11-.93.08-1.18.47-.22.38-.29.84-.2,1.27.47,1.8,2.14,3.02,4,2.92,1.82-.16,3.37-1.4,3.93-3.14.13-.44.07-.91-.17-1.3-.29-.37-.78-.51-1.22-.35-.63.26-1.17.69-1.58,1.23-.61.71-1.09,1.52-1.42,2.39-.16.31-.24.65-.23,1,.51-1.13,1.18-2.17,2-3.1.38-.44.86-.78,1.4-1,.24-.1.52-.02.67.19.14.27.16.58.06.86-.52,1.49-1.86,2.55-3.44,2.68-1.58.1-3.01-.91-3.45-2.43-.08-.3-.04-.62.1-.89.14-.22.4-.33.65-.27.55.19,1.03.53,1.37,1,.76.95,1.35,2.02,1.75,3.17Z" fill="#263238"/>
    <path d="m92.07,229.04l70.19,14.26.19,13.57c.03,2.23-.09,4.45-.37,6.66l-8.41,66.4-12.26,92.2-11.79-.66-.13,3.63-19.74-1.14s-12.25-56.66-11.27-69.28c2-25.84-2.23-38.8-5.44-52-3.46-14.29-16.17-48.16-.97-73.64Z" fill="#263238"/>
    <path d="m136.94,258.43c.01.12.01.24,0,.36v1c0,.94-.08,2.27-.15,4-.14,3.48-.35,8.48-.61,14.63-.56,12.38-1.35,29.44-2.21,48.28s-1.75,35.89-2.36,48.27c-.32,6.16-.59,11.15-.77,14.63-.1,1.7-.18,3-.24,4,0,.43,0,.77-.07,1s0,.35,0,.35c-.02-.12-.02-.23,0-.35v-1c0-.94.08-2.27.14-4,.15-3.48.35-8.47.61-14.63.57-12.38,1.35-29.44,2.21-48.28s1.76-35.89,2.36-48.26c.33-6.16.59-11.15.78-14.63.1-1.71.18-3,.23-4,0-.43.06-.78.08-1-.01-.12-.01-.25,0-.37Z" fill="#455a64"/>
    <path d="m130.47,394.02c.07.4.1.81.08,1.22v3.34c0,2.81,0,6.7-.17,11s-.3,8.18-.48,11c-.1,1.41-.19,2.54-.26,3.32-.02.41-.08.82-.17,1.22-.05-.41-.05-.82,0-1.23,0-.89.06-2,.1-3.33.09-2.92.2-6.75.33-11s.23-8.06.32-11c.06-1.32.11-2.44.15-3.33,0-.41.02-.81.1-1.21Z" fill="#455a64"/>
    <path d="m150.85,129.08s9.23-.38,12.24.24,24.84,3,24.84,3l-11.7-5.94-6.22-19.88,40.07,18.18c3.79,2.43,6.19,6.51,6.47,11h0c.41,6.62-3.85,12.63-10.23,14.44l-44.68,9.16-10.79-30.2Z" fill="#ffbe9d"/>
    <path d="m116.16,130.37c-.58.19-17.73,6.39-22.72,9.67-3.52,2.31-3.86,8.21-2.14,12.06l8.54,19.2,4.77,23.75-15.45,37.15-1.55,6.12,74.65,5.28,3.28-7.74-3.9-35.12v-44.14l-10.79-27.52-18.5.24-16.19,1.05Z" fill="#ff7200"/>
    <g opacity=".3">
      <path d="m156.79,217.02c-.83-.79-1.87-1.32-3-1.54-13.48-3.92-27.21-6.89-41.1-8.89-3.22-.46-6.59-.84-9.68.2s-6.6,4-6.31,7.24l-.45,1.08c5.72,3.37,12.32,4.96,18.95,4.57,4-.17,8.26-1,11.56,1.2,2.24,1.46,3.52,4,5.44,5.85,2.57,2.44,6.09,3.62,9.61,3.2,3.51-.47,6.65-2.45,8.59-5.41,1-1.62,2-3.7,3.87-4.06.8-.15,1.69,0,2.38-.4.88-.74.99-2.04.25-2.92-.04-.04-.07-.08-.11-.12Z"/>
    </g>
    <path d="m94.11,139.58s-2.89,1.21-5.68,5.37-12.09,31.56-12.09,31.56l23.71,9.83,5.89-12.59-11.83-34.17Z" fill="#ff7200"/>
    <path d="m99.94,159.68c.13.29.22.59.26.91.14.6.31,1.46.5,2.54.38,2.14.81,5.12,1.11,8.44s.44,6.32.46,8.5v2.58c.02.32-.01.64-.09.95-.16-1.17-.25-2.34-.26-3.52-.11-2.17-.3-5.16-.6-8.47s-.68-6.27-1-8.43c-.2-1.16-.32-2.33-.38-3.5Z" fill="#263238"/>
    <path d="m161.64,159.28l21.14-4.35-2.52-23.83s-16.66-2.07-20.85-2.1-11.78,0-11.78,0" fill="#ff7200"/>
    <path d="m149.07,97.68c2.1-2.56,2.53-6.1,1.1-9.08-.2-.29-.29-.65-.26-1,.11-.29.31-.55.56-.73,1.29-1.15,2.06-2.78,2.11-4.51.03-1.74-.88-3.37-2.38-4.26,2.2-1.47,2.4-5,.69-7-1.87-1.96-4.75-2.58-7.26-1.56.44-1.6-.23-3.3-1.64-4.17-1.4-.83-3.03-1.18-4.64-1-2.16.15-4.58,1-5.33,3-.43-1.25-1.94-1.8-3.27-1.79-3.71.11-6.73,3.01-7,6.71-1.24-.6-2.64-.79-4-.55-1.38.27-2.4,1.44-2.49,2.84-.99-.95-2.4-1.33-3.73-1-.97.1-1.89.49-2.63,1.12-.75.66-1,1.72-.63,2.64-2.07-.26-3.96,1.2-4.23,3.27-.23,1.85.91,3.59,2.7,4.11-1.92,1.84-1.98,4.89-.14,6.82.51.53,1.12.93,1.81,1.18-.64.35-.87,1.16-.51,1.8.04.07.09.14.14.2.6.58,1.43.83,2.25.69.36,2.78.73,5.57,1.09,8.36.15,1.81.58,3.59,1.27,5.27.73,1.69,2.21,2.94,4,3.38" fill="#263238"/>
    <path d="m147.94,89.68c-1.24-6.7-9.33-12.55-16-11l-21.31,6.8.51,3.62,5.32,44.22c.86,7.01,7.15,12.05,14.17,11.36h0c7.15-.67,12.4-7,11.74-14.15-.03-.28-.06-.57-.11-.85l-.61-3.75s8.45-2.48,8.87-13.94c.21-5.77-1.18-14.91-2.58-22.31Z" fill="#ffbe9d"/>
    <path d="m146.5,98.49c.11.78-.43,1.5-1.21,1.62-.75.16-1.49-.33-1.64-1.08,0-.01,0-.03,0-.04-.09-.78.45-1.49,1.22-1.62.75-.15,1.48.33,1.63,1.07,0,.02,0,.03,0,.05Z" fill="#263238"/>
    <path d="m146.55,94.68c-.16.21-1.35-.47-2.9-.28s-2.6,1.11-2.79.94.05-.44.5-.86c.62-.55,1.39-.9,2.21-1,.8-.1,1.62.06,2.33.45.52.31.73.63.65.75Z" fill="#263238"/>
    <path d="m132.76,100.76c.1.78-.44,1.5-1.22,1.62-.75.15-1.48-.33-1.63-1.07,0-.02,0-.03,0-.05-.1-.78.43-1.5,1.21-1.62.75-.16,1.49.33,1.64,1.08,0,.01,0,.03,0,.04Z" fill="#263238"/>
    <path d="m131.4,97.12c-.15.21-1.34-.46-2.89-.27s-2.6,1.11-2.79.94,0-.44.5-.86c.61-.56,1.38-.91,2.2-1,.81-.11,1.63.05,2.34.45.52.3.72.65.64.74Z" fill="#263238"/>
    <path d="m138.35,107.68c.79-.35,1.62-.61,2.47-.76.39-.09.76-.22.79-.5-.02-.41-.16-.81-.41-1.14-.49-.91-1-1.87-1.53-2.88-2.15-4.1-3.76-7.49-3.6-7.57s2.05,3.17,4.2,7.27l1.49,2.9c.3.45.44.99.39,1.53-.08.3-.3.54-.58.66-.21.09-.43.15-.66.17-.84.21-1.7.32-2.56.32Z" fill="#263238"/>
    <path d="m141.65,125.87c-5.29.72-10.67-.04-15.55-2.19,0,0,5,7.37,16.08,4.95l-.53-2.76Z" fill="#eb996e"/>
    <path d="m138.15,111.45c-.69-.68-1.68-.96-2.63-.74-.69.15-1.28.56-1.65,1.16-.37.58-.33,1.33.1,1.87.58.51,1.41.62,2.1.27.71-.35,1.35-.83,1.87-1.43.16-.14.29-.32.39-.51.09-.19.06-.42-.08-.58" fill="#eb996e"/>
    <path d="m133.94,109.25c.26,0,.46,1.64,2.05,2.67s3.36.61,3.4.85-.36.37-1.12.49c-.98.13-1.98-.09-2.82-.62-.81-.51-1.38-1.31-1.61-2.24-.18-.72-.04-1.14.1-1.15Z" fill="#263238"/>
    <path d="m131.2,91.52c-.1.44-1.68.43-3.47.87s-3.21,1.11-3.5.77c-.13-.17.08-.6.63-1.08.73-.61,1.59-1.03,2.51-1.24.92-.22,1.87-.22,2.79,0,.71.18,1.08.47,1.04.68Z" fill="#263238"/>
    <path d="m145.43,90.23c-.23.39-1.34.15-2.63.29s-2.35.52-2.64.19c-.13-.17,0-.54.43-.94,1.21-.97,2.89-1.12,4.25-.38.5.29.69.65.59.84Z" fill="#263238"/>
    <path d="m141.75,77.24c1.35,2.72.25,6.02-2.47,7.37-1.36.68-2.93.76-4.36.24.79.73.91,1.94.28,2.81-.65.83-1.6,1.36-2.65,1.49-2.19.39-4.44-.19-6.16-1.59-.02,3.08-2.54,5.56-5.62,5.54-.58,0-1.16-.1-1.71-.28,2.27,1.68,2.75,4.88,1.07,7.15-1.68,2.27-4.88,2.75-7.15,1.07-.8-.59-1.41-1.41-1.76-2.34-3.03-.87-4.78-4.04-3.9-7.07.14-.49.35-.96.61-1.39-1.19-.28-2.13-1.18-2.48-2.35-.33-1.16-.36-2.38-.07-3.55.49-2.92,2.15-5.52,4.6-7.19,2.52-1.64,5.78-1.58,8.24.15.23.24.53.4.86.46.45,0,.8-.38,1.06-.75,1.2-1.61,2.44-3.33,4.29-4.09,2.33-.89,4.97-.07,6.37,2,1.05-2.56,3.66-4.13,6.41-3.86,2.65.41,4.73,3.4,3.82,5.93" fill="#263238"/>
    <path d="m116.94,99.33c.17,2.3,0,4.61-.49,6.86-.08.99-.65,1.87-1.52,2.36-.88.22-1.81-.15-2.29-.93-.45-.78-.7-1.65-.74-2.54-.26-3.15-.31-6.32-.16-9.48" fill="#263238"/>
    <path d="m114.83,102.27c-.15-.05-5.92-1.29-5.32,4.46s6.25,4,6.25,3.8-.93-8.26-.93-8.26Z" fill="#ffbe9d"/>
    <path d="m113.77,108.53s-.09.08-.25.18c-.23.13-.5.16-.75.09-.81-.4-1.33-1.2-1.38-2.1-.07-.49-.02-1,.13-1.47.07-.38.32-.69.67-.84.23-.09.49,0,.62.21.1.15.07.27.1.28s.12-.11,0-.35c-.04-.14-.13-.26-.26-.33-.17-.11-.38-.14-.57-.09-.49.13-.87.51-1,1-.19.52-.26,1.09-.18,1.64.05,1.05.73,1.97,1.72,2.33.32.06.65-.03.9-.25.25-.15.27-.29.25-.3Z" fill="#eb996e"/>
    <path d="m147.03,104.14c1.33-.33,3-.84,3.4-1.4.63-.84,1-3.67,1.31-6.34,0-.34.06-.57.07-.63l-.54-.15c0,.07,0,.19-.09.72-.16,1.43-.57,5.23-1.2,6.05s-7.9,2.35-8.64,1.95c-.46-.3-1.9-3.46-2.78-5.62l-.08-.19-2.88.29v.2c-.36,1.57-1.52,5.87-2.68,6.79-1.45,1.15-7.67,1.5-8.22.91-1.18-2.11-2.2-4.3-3.06-6.56l-.09-.21-8.7,1.5.09.56,8.26-1.43c.49,1.17,2.44,5.84,3.09,6.52.89.94,7.52.31,9-.85s2.58-5.86,2.83-6.91l2.06-.21c.5,1.22,2.18,5.21,2.93,5.68s4.27-.29,4.67-.37.75-.17,1.25-.3Z" fill="#455a64"/>
    <path d="m135.57,99.81l.43-1c-4.1-1.69-11-1.72-14.94,1.18l.67.91c3.53-2.63,10-2.67,13.84-1.09Z" fill="#455a64"/>
    <path d="m151.55,96.39l.27-1.09c-4.85-1.24-10.7.13-13.89,3.25l.79.81c2.88-2.83,8.39-4.1,12.83-2.97Z" fill="#455a64"/>
    <path d="m125.94,86.46h.73c.67,0,1.35-.09,2-.26.48-.12.94-.3,1.37-.54.51-.28.96-.67,1.32-1.14.41-.53.68-1.16.79-1.82.12-.75-.03-1.52-.44-2.16l-.17.18c1.45.79,3.13,1.08,4.76.83.89-.13,1.75-.42,2.54-.85.41-.22.79-.5,1.12-.84.35-.35.58-.8.69-1.28.11-.56.09-1.14-.06-1.69-.13-.52-.31-1.03-.52-1.53-.18-.5-.44-.96-.77-1.38-.32-.44-.82-.72-1.37-.75v.28c1.01.17,2.04,0,2.94-.48.83-.42,1.52-1.06,2-1.86.42-.71.62-1.53.57-2.35-.04-.7-.23-1.39-.58-2-.47-.87-1.2-1.57-2.09-2-.31-.16-.65-.27-1-.31,0,0,.36.09,1,.39.85.45,1.55,1.15,2,2,.31.59.49,1.25.52,1.92.04.78-.16,1.55-.56,2.22-.46.75-1.12,1.35-1.9,1.75-.85.44-1.82.6-2.77.43v.28c.46.03.88.27,1.15.65.31.4.55.84.73,1.31.46.93.66,1.97.55,3-.24.86-.85,1.57-1.66,1.94-2.19,1.16-4.81,1.16-7,0l-.46-.25.29.43c.38.59.53,1.3.42,2-.1.63-.34,1.23-.72,1.74-.33.45-.76.83-1.25,1.1-.41.24-.86.43-1.32.56-.65.18-1.32.29-2,.32-.57.15-.85.14-.85.16Z" fill="#fff"/>
    <path d="m143.41,81.79s.13.08.4.14c.39.07.79.07,1.18,0,.59-.11,1.13-.4,1.55-.83.26-.27.4-.63.41-1,0-.43-.25-.83-.65-1l-.08.28h.1c1.34.2,2.69-.2,3.71-1.09.3-.26.56-.57.77-.91.14-.24.2-.39.18-.4-.32.42-.68.8-1.08,1.15-.99.81-2.27,1.17-3.53,1h-.09l-1.42-.21,1.34.49c.28.14.46.43.46.74,0,.3-.11.6-.32.82-.38.39-.87.67-1.4.8-.51.08-1.02.09-1.53.02Z" fill="#fff"/>
    <path d="m132.61,110.01s.09-.12.21-.27c.16-.2.37-.36.6-.47.55-.25,1.1-.32,1.08-.42-.41-.11-.84-.05-1.21.16-.28.12-.51.34-.64.62-.1.22-.08.37-.04.38Z" fill="#eb996e"/>
    <path d="m131.62,110.97c.09,0,.15-.44.32-1s.35-.93.28-1-.39.32-.56.88-.11,1.13-.04,1.12Z" fill="#eb996e"/>
    <path d="m129.41,203.54l-32.58-12.44,1.63-5.7-19.37-7.72c-2.75,7.73-4.78,12.75-5.52,18.58,0,.35-.08.71-.11,1.05-.5,8,5.56,14.95,13.49,16.14l39.91,2.67,2.55-12.58Z" fill="#ffbe9d"/>
    <path d="m144.67,218.56l-.21-.61s1.34,3.21,0,5.22c-.2.3-.45.56-.74.76-.45,1.96-2.41,3.18-4.37,2.73-.61-.14-1.17-.44-1.63-.86-.51-.37-.74-1.02-.57-1.63.16-.29.39-.52.67-.69.14-.1.27-.21.39-.34l-2.27-1.06s-5.84-1.76-6.68-5.3c-.14-.57-13.08-2.58-13.08-2.58l4.33-14.1,20.56,7.92s14.64,5.3,16.11,5.64c.82.08,1.41.82,1.33,1.63-.02.17-.07.34-.14.5-.28,1-1.1,1.16-2.57.88l-9.6-2h0c.5,1.3,1,3.34-.31,3.72l-1.22.17Z" fill="#ffbe9d"/>
    <path d="m139.94,219.22c0-.06.44,0,1.08.24.87.29,1.65.78,2.29,1.43.67.68.98,1.64.83,2.59-.15.72-.54,1-.57,1s.17-.39.21-1c.03-.82-.28-1.61-.85-2.2-.6-.6-1.29-1.08-2.06-1.44-.59-.35-.93-.55-.93-.62Z" fill="#eb996e"/>
    <path d="m141.18,214.79c0-.06.51,0,1.19.47.89.55,1.63,1.32,2.14,2.24.51.92.78,1.95.78,3,0,.8-.17,1.27-.23,1.26.07-2.86-1.41-5.54-3.88-7v.03Z" fill="#eb996e"/>
    <path d="m143.46,212.92c0-.13.9,0,1.78.63s1.33,1.35,1.22,1.43-.7-.47-1.51-1-1.54-.92-1.49-1.06Z" fill="#eb996e"/>
    <path d="m140.56,224.5c-.14,0-.4-.49-1-.84s-1.16-.36-1.19-.5.69-.41,1.46.07.87,1.26.73,1.27Z" fill="#eb996e"/>
    <path d="m170.59,128.26c0,1-2,.33-2.92.06-.97-.22-1.71-1.02-1.86-2,.07-.91.49-1.75,1.18-2.34.69-.58,1.2-1.35,1.47-2.21.04-.67.04-1.33,0-2,0-.66.49-1.41,1.16-1.39.46.05.86.37,1,.81.12.43.16.88.11,1.32-.17,2.64-.02,5.06-.14,7.75Z" fill="#ffbe9d"/>
    <path d="m168.73,104.53s5.25,3.47,5.14,4.36c-.21.71-.64,1.34-1.23,1.79,0,0,5.47,1.23,5.14,4.92,0,0,1.45,1.11,1.22,2.34s-1.78,1-1.78,1c0,0,1.67,2.56-1,2.56-2.85-.19-5.68-.56-8.48-1.11,0,0-2.35-1.45-1.79-2.46.3-.57.77-1.04,1.34-1.34-.66-.82-1.15-1.77-1.42-2.79-.15-.76.27-1.52,1-1.79,0,0-2-2.34-1-3.12s1.57-.11,1.57-.11c0,0-1-2.57-.33-3.35.43-.47,1-.79,1.62-.9Z" fill="#ffbe9d"/>
    <path d="m177.22,118.94c-1.72-.15-3.42-.47-5.08-.94-1.71-.32-3.38-.8-5-1.43,1.72.14,3.42.45,5.08.93,1.71.31,3.39.8,5,1.44Z" fill="#eb996e"/>
    <path d="m172.64,110.68c-.94-.02-1.87-.21-2.74-.57-.93-.2-1.8-.64-2.51-1.27.92.16,1.81.43,2.67.78.92.2,1.79.56,2.58,1.06Z" fill="#eb996e"/>
    <path d="m177.81,115.68c-1.9-.35-3.76-.88-5.57-1.57-1.86-.52-3.67-1.21-5.41-2.06,1.9.37,3.76.9,5.57,1.58,1.86.53,3.67,1.21,5.41,2.05Z" fill="#eb996e"/>
    <path d="m178.8,127.68c-2.8-1.19-7.16.93-8.79,1.07-.89-3,.36-9.22.36-9.22l5.8,1,2.63,7.15Z" fill="#ffbe9d"/>
    <path d="m171.24,121.19c.92,1.2,1.08,2.81.42,4.17-.21.44-.56.79-1,1,.23-.39.39-.81.47-1.25.1-.42.17-.85.2-1.28.05-.88.02-1.76-.09-2.64Z" fill="#eb996e"/>
    <path d="m171.35,125.36c.25-.71.68-1.33,1.26-1.81.55-.5,1.18-.92,1.86-1.23,1.34-.68,2.86-.89,4.33-.6-2.08.36-4.06,1.14-5.83,2.29-.6.37-1.15.83-1.62,1.35Z" fill="#eb996e"/>
  </g>
  <g id="freepik--Screen--inject-17">
    <path d="m316.87.32h-24.63c-3.38.07-6.07,2.86-6,6.24,0,0,0,0,0,.01v4.47c.07,3.38-2.61,6.18-5.99,6.25,0,0,0,0-.01,0h-48c-3.38-.07-6.07-2.86-6-6.24,0,0,0,0,0-.01v-4.52c.08-3.38-2.6-6.18-5.98-6.26,0,0-.02,0-.02,0h-30.15c-10.7,0-19.38,8.67-19.39,19.37h0s-.07,279.75-.07,279.75c0,10.7,8.67,19.37,19.37,19.38l126.79.08c10.7,0,19.38-8.68,19.39-19.38l.06-279.78c-.01-10.69-8.68-19.35-19.37-19.36Z" fill="#fff"/>
    <path d="m316.87.32h.62c.62,0,1.24.05,1.85.13,2.41.28,4.75,1.03,6.88,2.2,1.56.88,3.01,1.95,4.3,3.2,1.53,1.53,2.8,3.29,3.77,5.23,1.13,2.26,1.81,4.73,2,7.25.1,1.35.06,2.73.07,4.16s0,2.9,0,4.42c0,24.25,0,59.33.06,102.68.06,43.35,0,95,0,152.28v16.27c.05,1.86-.11,3.72-.48,5.54-.41,1.82-1.07,3.57-1.95,5.21-2.75,5.04-7.58,8.62-13.2,9.79-1.87.33-3.77.47-5.67.41h-124.45c-2.09.04-4.16-.23-6.17-.8-2.01-.6-3.91-1.5-5.64-2.68-3.46-2.4-6.06-5.85-7.43-9.83-.66-1.97-1.02-4.04-1.05-6.12V22.21c0-1.5,0-3,.1-4.52.09-.74.2-1.49.34-2.23s.33-1.46.61-2.16c.97-2.81,2.54-5.36,4.62-7.48,2.04-2.07,4.53-3.65,7.26-4.63.67-.25,1.35-.46,2.05-.62.69-.18,1.39-.31,2.09-.39,1.39-.15,2.8-.21,4.2-.17h27.93c.65-.02,1.29.03,1.93.15.63.15,1.24.4,1.79.74,1.17.67,2.1,1.7,2.64,2.93.47,1.17.66,2.43.56,3.68v3.63c.02,1.17.37,2.31,1,3.3.94,1.47,2.49,2.43,4.22,2.61.56.05,1.14,0,1.72,0h45.35c.84.04,1.68.01,2.52-.09,1.61-.3,3.01-1.27,3.87-2.67.42-.66.71-1.39.85-2.15.11-.75.16-1.51.12-2.27v-2.25c-.03-.73,0-1.46.09-2.18.2-1.4.87-2.7,1.91-3.67.96-.92,2.2-1.49,3.53-1.62,1.27-.06,2.47,0,3.64,0h21.54-25.15c-1.29.12-2.49.68-3.42,1.58-1,.95-1.66,2.2-1.85,3.57-.09.71-.11,1.43-.08,2.15v2.25c.03.77,0,1.55-.12,2.31-.15.79-.45,1.55-.88,2.23-.89,1.44-2.34,2.45-4,2.77-.85.11-1.71.14-2.56.1h-47.14c-.59-.07-1.18-.23-1.73-.45-1.11-.49-2.06-1.29-2.73-2.31-.67-1.03-1.04-2.23-1.07-3.46v-3.64c.1-1.21-.08-2.42-.54-3.54-.49-1.12-1.31-2.06-2.35-2.7-.52-.32-1.09-.55-1.69-.69-.61-.12-1.23-.17-1.85-.15h-27.94c-1.39-.03-2.77.03-4.15.18-.67.09-1.34.22-2,.38-.68.15-1.35.36-2,.61-5.56,2.02-9.87,6.5-11.67,12.14-.23.7-.43,1.4-.59,2.12-.14.72-.24,1.45-.34,2.18-.1,1.47-.1,3-.09,4.48v199.31c0,15.59,0,31.45,0,47.58v30.46c.02,2.04.35,4.06,1,6,1.33,3.88,3.86,7.23,7.23,9.57,1.69,1.15,3.54,2.03,5.49,2.62,1.95.55,3.97.81,6,.77h124.46c1.87.06,3.73-.08,5.57-.4,1.8-.4,3.55-1.03,5.18-1.89,1.61-.89,3.09-1.99,4.41-3.27,1.28-1.31,2.38-2.77,3.29-4.36.86-1.6,1.5-3.32,1.9-5.09.36-1.78.51-3.59.46-5.4v-16.27c0-57.31.06-108.93.09-152.28s.08-78.43.1-102.68v-4.42c0-1.42,0-2.82-.06-4.15-.17-2.5-.82-4.94-1.93-7.19-.96-1.92-2.21-3.68-3.72-5.21-1.28-1.24-2.71-2.31-4.26-3.19-2.12-1.18-4.44-1.94-6.84-2.25-.8-.14-1.43-.11-1.84-.16l-.58-.04Z" fill="#263238"/>
    <path d="m320.82,28.73c0,.09-3.2.18-7.15.21s-7.16,0-7.16-.09,3.2-.18,7.16-.21,7.15.04,7.15.09Z" fill="#263238"/>
    <path d="m320.85,32.39c0,.09-3.2.18-7.15.21s-7.16,0-7.16-.09,3.2-.18,7.16-.21,7.15,0,7.15.09Z" fill="#263238"/>
    <path d="m320.88,36.05c0,.09-3.2.18-7.15.22s-7.16,0-7.16-.1,3.2-.18,7.16-.21,7.15,0,7.15.09Z" fill="#263238"/>
    <path d="m186.01,35.68c-.09,0-.18-.04-.25-.1l-3.08-3.06c-.07-.06-.1-.15-.1-.24,0-.09.04-.18.1-.25l3.09-3c.13-.14.35-.14.48,0,0,0,0,0,0,0,.13.14.13.35,0,.49l-2.83,2.74,2.83,2.8c.14.13.14.35,0,.48,0,0,0,0,0,0-.06.08-.15.13-.25.13Z" fill="#263238"/>
    <path d="m236.48,37.31l-1.43-2h-2.06v2h-.94v-6.63h2.58c1.73,0,2.77.87,2.77,2.31.04.95-.56,1.81-1.46,2.09l1.57,2.23h-1.03Zm0-4.32c0-1-.63-1.49-1.85-1.49h-1.61v3h1.61c1.19-.01,1.82-.56,1.82-1.51h.03Z" fill="#263238"/>
    <path d="m243.32,35.1h-4.07c.11.89.91,1.54,1.81,1.47.55.02,1.08-.2,1.45-.61l.51.59c-1.05,1.08-2.78,1.1-3.86.05-.49-.48-.78-1.12-.82-1.8-.06-1.36,1-2.5,2.36-2.56.05,0,.11,0,.16,0,1.34-.04,2.45,1.02,2.49,2.35,0,.08,0,.16,0,.24,0,.09,0,.18-.02.27Zm-4.07-.65h3.22c-.1-.89-.9-1.53-1.79-1.43-.75.08-1.35.68-1.43,1.43Z" fill="#263238"/>
    <path d="m249.34,32.29v6.86h-.91v-2.6c-.42.54-1.08.84-1.76.82-1.42-.09-2.49-1.31-2.4-2.73.08-1.29,1.11-2.32,2.4-2.4.7-.03,1.37.28,1.79.84v-.79h.88Zm-.9,2.51c-.04-.94-.83-1.67-1.77-1.63-.94.04-1.67.83-1.63,1.77.04.91.79,1.63,1.71,1.63.92.02,1.67-.71,1.69-1.63,0-.05,0-.1,0-.14Z" fill="#263238"/>
    <path d="m255.74,32.29v5h-.86v-.76c-.4.54-1.04.84-1.71.82-1.1.09-2.07-.72-2.16-1.82-.01-.12,0-.24,0-.37v-2.87h.93v2.78c0,1,.49,1.48,1.36,1.48.82.05,1.51-.58,1.56-1.4,0-.09,0-.18-.01-.27v-2.59h.89Z" fill="#263238"/>
    <path d="m261.99,35.1h-4.05c.12.9.92,1.54,1.82,1.47.55.02,1.08-.2,1.45-.61l.5.59c-1.05,1.08-2.78,1.1-3.86.05-.49-.48-.78-1.12-.82-1.8-.06-1.36,1-2.5,2.36-2.56.05,0,.11,0,.16,0,1.34-.04,2.45,1.02,2.49,2.35,0,.08,0,.16,0,.24,0,.09-.02.18-.04.27Zm-4.05-.65h3.22c-.1-.89-.9-1.53-1.79-1.43-.75.08-1.35.68-1.43,1.43Z" fill="#263238"/>
    <path d="m262.64,36.78l.37-.72c.53.34,1.14.52,1.77.52.84,0,1.19-.26,1.19-.68,0-1.13-3.17-.15-3.17-2.15,0-.9.8-1.51,2.09-1.51.64-.01,1.27.14,1.83.45l-.39.72c-.44-.27-.94-.4-1.45-.39-.79,0-1.18.29-1.18.69,0,1.18,3.18.22,3.18,2.17,0,.91-.83,1.49-2.17,1.49-.73.02-1.46-.19-2.07-.59Z" fill="#263238"/>
    <path d="m270.84,37.02c-.32.24-.7.36-1.1.35-.79.09-1.5-.48-1.59-1.27-.01-.1-.01-.2,0-.31v-2.75h-.85v-.75h.85v-1.1h.91v1.1h1.44v.75h-1.44v2.72c-.06.4.23.78.63.84.05,0,.11,0,.16,0,.26,0,.51-.08.71-.24l.28.66Z" fill="#263238"/>
    <path d="m271.3,36.78l.38-.72c.53.34,1.14.52,1.77.52.84,0,1.19-.26,1.19-.68,0-1.13-3.17-.15-3.17-2.15,0-.9.8-1.51,2.09-1.51.64,0,1.27.15,1.83.45l-.39.72c-.44-.27-.94-.4-1.45-.39-.8,0-1.18.29-1.18.69,0,1.18,3.18.22,3.18,2.17,0,.91-.83,1.49-2.17,1.49-.74.02-1.46-.19-2.08-.59Z" fill="#263238"/>
    <rect x="181.56" y="62.83" width="143.74" height="240.42" rx="15.84" ry="15.84" fill="#f5f5f5"/>
    <rect x="201.21" y="227.31" width="104.44" height="24.73" rx="3" ry="3" fill="#ff7200"/>
    <path d="m241.79,241.42h-3.52l-.73,1.65h-1l3-6.63h.94l3,6.63h-1l-.69-1.65Zm-.33-.76l-1.43-3.25-1.43,3.27,2.86-.02Z" fill="#fff"/>
    <path d="m243.86,240.56c-.03-1.39,1.07-2.53,2.46-2.56.06,0,.13,0,.19,0,.83-.05,1.62.36,2.05,1.07l-.69.45c-.3-.46-.82-.73-1.37-.72-.97.07-1.71.92-1.63,1.9.07.87.76,1.57,1.63,1.63.55.02,1.07-.26,1.37-.72l.69.44c-.43.71-1.22,1.12-2.05,1.08-1.39.07-2.58-1-2.65-2.39,0-.06,0-.12,0-.18Z" fill="#fff"/>
    <path d="m249.19,240.56c-.03-1.39,1.07-2.53,2.46-2.56.06,0,.13,0,.19,0,.83-.05,1.62.36,2.05,1.07l-.69.45c-.3-.46-.81-.73-1.36-.72-.97.07-1.71.92-1.63,1.9.07.87.76,1.57,1.63,1.63.55.02,1.07-.26,1.36-.72l.69.44c-.43.71-1.22,1.13-2.05,1.08-1.39.07-2.58-1-2.65-2.39,0-.06,0-.12,0-.18Z" fill="#fff"/>
    <path d="m259.51,240.87h-4.08c.12.89.92,1.53,1.82,1.46.55.02,1.08-.2,1.45-.6l.51.59c-1.07,1.07-2.8,1.08-3.87.02-.48-.47-.76-1.11-.81-1.78-.06-1.36,1-2.5,2.36-2.56.05,0,.11,0,.16,0,1.34-.04,2.45,1.02,2.49,2.35,0,.08,0,.16,0,.24,0,.09-.01.19-.02.28Zm-4.08-.66h3.23c-.12-.89-.94-1.52-1.84-1.39-.73.1-1.3.67-1.39,1.39Z" fill="#fff"/>
    <path d="m265.99,240.56c.07,1.35-.96,2.5-2.3,2.57-.08,0-.16,0-.24,0-.68.02-1.33-.28-1.75-.81v2.59h-.91v-6.86h.87v.8c.42-.56,1.09-.88,1.79-.85,1.35-.06,2.48.99,2.54,2.33,0,.08,0,.15,0,.23Zm-.92,0c-.04-.93-.84-1.65-1.77-1.61-.93.04-1.65.84-1.61,1.77.04.9.78,1.61,1.69,1.61.92.02,1.67-.71,1.69-1.63,0-.05,0-.1,0-.14h0Z" fill="#fff"/>
    <path d="m270.07,242.78c-.31.24-.7.37-1.1.35-.78.09-1.5-.47-1.59-1.25-.01-.11-.01-.21,0-.32v-2.76h-.85v-.75h.85v-1.1h.91v1.1h1.44v.75h-1.44v2.72c-.06.4.23.78.63.84.05,0,.11,0,.16,0,.26,0,.51-.08.71-.23l.28.65Z" fill="#fff"/>
    <path d="m302.66,286.68s.23,0,.64-.1c.62-.15,1.18-.51,1.59-1,.3-.35.51-.78.62-1.23.09-.56.11-1.12.07-1.68v-4.26c0-3.21,0-7.12-.05-11.67-.06-1.13.21-2.38-.46-3.35-.32-.5-.78-.88-1.33-1.1-.59-.19-1.21-.26-1.82-.2h-8.17l-89.51.07c-1.02,0-1.95.57-2.43,1.47-.23.45-.34.95-.32,1.45v17.52c-.03.5-.03,1.01,0,1.51.09.47.29.9.59,1.27.63.74,1.59,1.12,2.55,1h20.71l40.24.06,27.13.08,7.38.05h2.57-9.95l-27.13.09h-60.93c-.54.03-1.09-.04-1.6-.22-.53-.21-.99-.56-1.34-1-.36-.44-.6-.96-.7-1.51-.04-.53-.04-1.07,0-1.6v-17.52c-.02-.59.11-1.17.38-1.69.57-1.07,1.68-1.75,2.89-1.75l89.51.08h8.17c.66-.06,1.32.02,1.94.23,1.22.49,2.02,1.68,2,3v17.67c.03.57,0,1.15-.1,1.71-.11.62-.41,1.18-.86,1.62-.43.51-1.01.86-1.66,1-.21.03-.41.03-.62,0Z" fill="#ff7200"/>
    <path d="m236.17,270.35h2.77c1.83-.1,3.4,1.3,3.5,3.13.1,1.83-1.3,3.4-3.13,3.5-.12,0-.24,0-.36,0h-2.79l.02-6.63Zm2.73,5.81c1.38,0,2.5-1.12,2.5-2.5s-1.12-2.5-2.5-2.5h-1.79v5h1.79Z" fill="#ff7200"/>
    <path d="m248.38,274.77h-4.08c.12.89.92,1.54,1.82,1.47.55.02,1.08-.2,1.45-.61l.51.59c-.51.56-1.24.86-2,.82-1.38.11-2.59-.93-2.69-2.31,0-.09,0-.17,0-.26-.05-1.36,1.01-2.51,2.38-2.56.05,0,.1,0,.15,0,1.34-.04,2.45,1.02,2.49,2.35,0,.08,0,.16,0,.24,0,.09,0,.18-.01.27Zm-4.08-.65h3.23c-.12-.89-.94-1.52-1.84-1.39-.73.1-1.3.67-1.39,1.39Z" fill="#ff7200"/>
    <path d="m249.19,274.47c-.03-1.39,1.07-2.53,2.46-2.56.06,0,.13,0,.19,0,.85-.07,1.66.34,2.1,1.07l-.69.45c-.29-.46-.81-.74-1.36-.72-.97.07-1.71.92-1.63,1.9.07.87.76,1.57,1.63,1.63.55.01,1.06-.26,1.36-.72l.69.44c-.43.71-1.22,1.13-2.05,1.08-1.39.1-2.59-.94-2.69-2.33,0-.08,0-.16,0-.24Z" fill="#ff7200"/>
    <path d="m255,269.95h.94v7h-.91l-.03-7Z" fill="#ff7200"/>
    <path d="m257.48,270.4c0-.33.28-.6.61-.59,0,0,0,0,.01,0,.33,0,.59.26.59.59,0,.33-.26.59-.59.59h0c-.33.02-.6-.23-.62-.56,0-.01,0-.02,0-.03Zm.16,1.56h.91v5h-.91v-5Z" fill="#ff7200"/>
    <path d="m265.05,274.09v2.89h-.91v-2.79c0-1-.49-1.46-1.35-1.46-.81-.07-1.53.54-1.6,1.35,0,.1,0,.2,0,.31v2.59h-.91v-5h.87v.7c.43-.55,1.11-.85,1.81-.81,1.07-.09,2.01.7,2.09,1.77.01.15,0,.3-.01.45Z" fill="#ff7200"/>
    <path d="m271.29,274.77h-4.08c.12.9.92,1.54,1.82,1.47.55.02,1.08-.2,1.45-.61l.5.59c-1.05,1.08-2.78,1.1-3.86.05-.49-.48-.78-1.12-.82-1.8-.06-1.36,1-2.5,2.36-2.56.05,0,.11,0,.16,0,1.34-.04,2.45,1.02,2.49,2.35,0,.08,0,.16,0,.24,0,.09,0,.18-.01.27Zm-4.08-.65h3.22c-.1-.89-.9-1.53-1.79-1.43-.75.08-1.35.68-1.43,1.43Z" fill="#ff7200"/>
  </g>
  <circle cx="253.83" cy="134.53" r="56.55" transform="translate(-20.78 218.89) rotate(-45)" fill="#e0e0e0"/>
  <g>
    <path d="m203.96,110.81c16.85-1.09,27.09-1.09,33.98,10.05,6.91,11.14-17.49,50.13,7.39,56.71,24.88,6.58,37.03-13.58,47.33-33.42,10.33-19.82,15.23-43.61,15.25-55.5" fill="none" stroke="#ffca9f" stroke-linecap="round" stroke-linejoin="round" stroke-width="25"/>
    <path d="m207.66,182.19c7.39-9.91,16.01-11.59,26.93-12.99" fill="none" stroke="#ffca9f" stroke-linecap="round" stroke-linejoin="round" stroke-width="25"/>
  </g>
  <g id="freepik--character-2--inject-17">
    <path d="m271.29,72.48c-2.38-5.69-5.49-11.05-9.24-15.94l-1.11-3.6c.07-3.2,2.74-6,5.84-6.74,3.17-.64,6.47.09,9.08,2,2.57,1.91,4.75,4.28,6.44,7,1.16,1.73,2.59,3.72,4.67,3.73.74,0,1.47-.25,2.2-.17,1.41.27,2.39,1.57,2.25,3-.18,1.39-1.1,2.56-2.4,3.07,1.8,1.16,2.32,3.57,1.15,5.36-1.16,1.8-3.57,2.32-5.36,1.15-.1-.06-.19-.13-.28-.2.51,1.45.17,3.06-.89,4.17-1.06,1.08-2.43,1.81-3.91,2.11-1.95.48-4.18.48-5.78-.73-1.36-1.02-2.01-2.68-2.66-4.22Z" fill="#263238"/>
    <path d="m288.46,71.31c.12-.04.23-.11.33-.2.27-.25.45-.57.54-.93.15-.57.08-1.18-.19-1.7-.37-.68-.93-1.23-1.6-1.61-.8-.43-1.62-.8-2.47-1.13-.92-.43-1.76-1-2.5-1.7-1.62-1.7-2.95-3.65-3.94-5.78-1-2.17-2.32-4.17-3.93-5.94-1.35-1.47-3.19-2.39-5.18-2.57-1.34-.09-2.67.29-3.75,1.08-.41.27-.75.63-1,1.06.33-.34.68-.65,1.06-.94,1.08-.7,2.36-1.02,3.64-.91,1.9.22,3.66,1.12,4.94,2.54,1.56,1.76,2.85,3.73,3.83,5.87,1,2.17,2.37,4.15,4.05,5.86.77.72,1.65,1.31,2.62,1.74.84.31,1.65.67,2.45,1.07.65.33,1.2.84,1.58,1.46.26.47.35,1.03.24,1.56-.09.46-.35.88-.72,1.17Z" fill="#455a64"/>
    <path d="m258.84,51.05c.98-.77,2.26-1.05,3.47-.76,1.19.29,2.32.8,3.33,1.51,1.83.98,3.32,2.48,4.3,4.31.83,1.87.49,4.39-1.23,5.51s-4,.44-5.71-.72c-2.47-1.71-4.27-3.57-4.73-6.54-.63-1.1-.39-2.49.57-3.31Z" fill="#ff7200"/>
    <path d="m266.85,57.68c.64-.18,1.2-.57,1.6-1.11.3-.36.54-.76.71-1.2.14-.35,0-.6,0-.58-.02.18-.07.36-.15.52-.2.39-.45.76-.73,1.1-.45.45-.93.88-1.43,1.27Z" fill="#263238"/>
    <path d="m263.58,55.98c.6-.49,1.14-1.04,1.62-1.65.54-.55,1.01-1.16,1.42-1.81-1.12,1.05-2.12,2.21-3,3.46h-.04Z" fill="#263238"/>
    <path d="m261.33,52.82c.38-.36.71-.76,1-1.2.22-.28.48-.53.77-.73.22-.15.38-.22.37-.26s-.19,0-.46.11c-.34.17-.64.42-.87.72-.36.39-.64.86-.81,1.36Z" fill="#263238"/>
    <path d="m221.13,105.12c2.51-3.08,13.37-5,14.14-5l24.47-2.12c6.32,1.64,12.54,3.68,18.6,6.1l-1.58,25.73-4.18,26.34c6.48,7.94,12.15,17.87,13.52,24.86-19.68,13-39.4,13.06-57.66,6.38l1-27.26-8.31-55.03Z" fill="#ff7200"/>
    <path d="m223.34,103.49s-7.91,3.86-10.75,9.12c-1.44,2.67-6.3,19.89-6.3,19.89,0,0,3.65,9.68,18.93,7l1.38-4.25-3.26-31.76Z" fill="#ff7200"/>
    <path d="m278.14,104.19c3.71,2.31,6.45,5.9,7.69,10.1,1.2,5.14,2,10.37,2.37,15.63l-15,2.8,4.94-28.53Z" fill="#ff7200"/>
    <path d="m229.32,159.32c0-.49-.04-.97-.13-1.45-.14-1-.32-2.35-.54-3.94-.49-3.32-1.19-7.9-2-12.95s-1.56-9.63-2.14-12.93c-.28-1.59-.52-2.9-.7-3.92-.06-.48-.17-.96-.33-1.42,0,.49.04.97.13,1.45.14,1,.33,2.34.55,3.93.48,3.32,1.18,7.9,2,13s1.57,9.63,2.14,12.94c.28,1.58.52,2.89.7,3.91.07.47.17.93.32,1.38Z" fill="#263238"/>
    <path d="m225.7,133.38c-.09.33-.12.66-.09,1,0,.89.11,1.78.33,2.64,1.43,6.01,7.12,10.01,13.26,9.31.88-.09,1.75-.28,2.59-.58.32-.09.61-.23.88-.42-1.15.3-2.32.52-3.5.64-5.9.49-11.31-3.29-12.88-9-.3-1.18-.49-2.38-.59-3.59Z" fill="#263238"/>
    <path d="m262.48,160.06c1.72-.39,3.42-.86,5.09-1.43,1.72-.4,3.41-.88,5.08-1.46-1.78.09-3.53.43-5.22,1-1.73.4-3.4,1.03-4.95,1.89Z" fill="#263238"/>
    <path d="m259.18,156.79c4.37.38,8.77-.03,13-1.21,0-.15-2.91.35-6.49.68s-6.51.42-6.51.53Z" fill="#263238"/>
    <path d="m272.55,156.3c.14-.43.25-.86.31-1.31.17-.95.39-2.16.66-3.61.53-3,1.23-7.27,2-11.94s1.39-8.9,1.83-12c.2-1.46.37-2.68.5-3.64.09-.44.12-.89.11-1.34-.14.43-.25.86-.31,1.31l-.65,3.61c-.54,3.05-1.24,7.27-2,11.94s-1.4,8.91-1.84,12c-.2,1.46-.37,2.68-.5,3.64-.08.44-.12.89-.11,1.34Z" fill="#263238"/>
    <g opacity=".2">
      <path d="m261.94,148.03c-3-.44-4.37-1.81-6.8-3.12s-5.18-2.52-7.85-1.83c-1.86.49-3.4,1.86-5.26,2.36-1.28.24-2.58.37-3.89.39-1.32.03-2.57.6-3.47,1.57-.82,1.19-.88,2.75-.15,4,.73,1.2,1.86,2.12,3.19,2.59,2.05.81,4.31.87,6.4.17,1.64-.57,3.14-1.59,4.86-1.88,1.45-.17,2.93,0,4.3.52,1.39.45,2.74,1,4.16,1.38,1.41.4,2.91.36,4.3-.13,1.4-.53,2.36-1.82,2.47-3.31,0-1.47-1.18-2.67-2.65-2.67-.04,0-.09,0-.13,0"/>
    </g>
    <path d="m253.1,143.48s.18.22.56.57c.23.21.48.4.73.58.32.24.66.47,1,.68.93.55,1.91,1,2.93,1.34,1.26.4,2.56.66,3.88.77,1.34.09,2.68.02,4-.2,1.06-.19,2.1-.49,3.1-.9.38-.15.76-.32,1.12-.52.28-.14.54-.29.8-.47.43-.29.66-.45.64-.48s-1,.53-2.69,1.14c-.99.35-2.01.61-3.05.77-1.27.18-2.56.23-3.84.15-1.28-.1-2.54-.34-3.77-.71-1.01-.31-1.98-.71-2.91-1.2-1.58-.85-2.43-1.6-2.5-1.52Z" fill="#263238"/>
    <path d="m206.94,133.38s-4.88,24.92-3.49,36.32c.5,4.07,21.68,12.28,21.68,12.28l5.28-8.72-12.12-11.58,6.93-22.17c-5.84,1.06-13.28-2.25-18.28-6.13Z" fill="#b78876"/>
    <path d="m235.45,191.95c6.56,1.28,13.3,1.28,19.86,0v-24.81h-19.86v24.81Z" fill="#455a64"/>
    <path d="m232.94,170.89c-.5.31-2.16,1.5-3.24,2.22-1.42.95-3.54,5.16-4.61,7.81-.21.75-.34,1.51-.36,2.29-.31,2.24.46,2.94,1.55,3.56s7.67,2.78,8.36,2,0-2,0-2c0,0,1.94.46,2.79-.62.49-.58.49-1.42,0-2,0,0,5.35,2.32,6.66,1.78s.89-1.84.19-2.38c-.63-.51-1.23-1.06-1.81-1.63.23.21,3.64.13,3.09-1.26s-9.75-7.2-9.75-7.2c0,0,.95-2,1.61-3.93.94-2.67.71-3.07-.13-4-.43-.48-1.53-.3-2.51,3-.4.93-1.04,1.74-1.84,2.36Z" fill="#b78876"/>
    <path d="m230.77,172.93s-.13-.18-.5-.17c-.5.05-.94.32-1.22.74-.37.51-.52,1.21-.91,1.78-.23.29-.5.54-.81.75-.38.25-.69.6-.9,1-.34.69-.35,1.5-.05,2.21l.15-.32c-.58.25-1.05.71-1.31,1.29-.22.41-.37.86-.45,1.32-.14.77,0,1.23.08,1.21s0-.44.21-1.15c.12-.41.29-.81.51-1.18.24-.45.62-.8,1.09-1l.26-.08-.1-.25c-.23-.58-.21-1.24.07-1.8.3-.73,1.16-1,1.64-1.75s.54-1.39.82-1.83c.21-.37.55-.64.95-.76.28-.05.45.03.47-.01Z" fill="#aa6550"/>
    <path d="m229.19,183.54c0,.14,1.34.64,2.84,1.59s2.58,1.94,2.69,1.83c-1.31-1.84-3.3-3.07-5.53-3.42Z" fill="#aa6550"/>
    <path d="m232.4,180.33c1.55,1.51,3.32,2.77,5.26,3.73-.71-.82-1.55-1.52-2.48-2.08-.83-.69-1.77-1.25-2.78-1.65Z" fill="#aa6550"/>
    <path d="m234.94,177.07c1.22.93,2.5,1.78,3.83,2.54,1.24.9,2.54,1.71,3.9,2.41-2.24-2.14-4.86-3.84-7.73-5v.05Z" fill="#aa6550"/>
    <path d="m237.99,184.2c.23.2.5.36.78.47.53.27,1.31.63,2.3,1,.54.25,1.11.43,1.7.55.72.19,1.49.05,2.09-.38.15-.12.3-.25.43-.4.1-.1.16-.23.18-.37.03-.12.03-.25,0-.37-.17-.37-.39-.7-.66-1-.53-.64-1.1-1.23-1.72-1.78l-.25.43c.64.26,1.36.26,2,0,.46-.23.82-.62,1-1.11v.07c.09-.17.11-.36.05-.54-.04-.12-.1-.24-.18-.34-.13-.19-.27-.37-.43-.54-.3-.31-.62-.6-.93-.87-.63-.53-1.27-1-1.87-1.44-1.22-.88-2.34-1.61-3.28-2.22s-1.72-1.06-2.26-1.37c-.27-.18-.56-.32-.86-.43.23.23.48.43.76.59l2.17,1.5c.92.64,2,1.4,3.2,2.29.59.45,1.21.93,1.82,1.45.3.27.61.55.88.84.14.14.27.3.38.47.07.09.12.2.13.32h0v.07c-.13.34-.38.63-.71.8-.51.21-1.08.21-1.59,0l-1.11-.35.86.78c.6.53,1.17,1.09,1.69,1.7.24.27.43.57.58.89.02.06.02.12,0,.18l-.06.1c-.11.13-.23.25-.36.36-.51.36-1.14.49-1.75.34-.56-.1-1.12-.26-1.65-.47-1-.36-1.79-.67-2.34-.89-.32-.15-.65-.26-.99-.33Z" fill="#aa6550"/>
    <path d="m253.07,185.34c0,.16.23.43.85.65.89.27,1.83.33,2.75.17,1.41-.24,2.73-.89,3.78-1.86,2.69-2.57,3.19-6.68,1.19-9.82-.79-1.19-1.92-2.13-3.23-2.7-.85-.38-1.78-.55-2.71-.49-.65.06-1,.26-1,.42,0,.38,1.31.56,2.84,1.65.87.61,1.58,1.41,2.08,2.34,1.17,2.27.84,5.02-.84,6.94-.71.78-1.6,1.39-2.58,1.78-1.73.69-3.05.55-3.13.92Z" fill="#455a64"/>
    <path d="m219.05,162.6s-.32-.49-1.17-.82c-1.12-.4-2.34-.38-3.44.05-1.08.43-2.03,1.12-2.79,2-.58.66-.85,1.13-.79,1.17s.42-.34,1-.91c.79-.76,1.71-1.36,2.72-1.78,1.01-.39,2.11-.45,3.15-.19.84.21,1.27.56,1.32.48Z" fill="#aa6550"/>
    <path d="m237.8,168.47c.8.42,1.65.73,2.54.91,2.11.54,4.29.75,6.47.63,2.18-.12,4.32-.57,6.36-1.34.86-.28,1.67-.68,2.42-1.18-.06-.18-3.78,1.76-8.81,2s-8.94-1.21-8.98-1.02Z" fill="#263238"/>
    <path d="m275.74,148.47c-.14-1.47.64-16.26.64-16.26l9.75-1.88,1.38-25.41,11.2.72s4.55,48.24-1.26,56c-5.41,7.25-13.39,3.07-13.39,3.07,0,0-7.21-4.4-8.32-16.24Z" fill="#b78876"/>
    <path d="m287.72,106.2s-2.15-2.74-2-5.15,4.2-15.71,4.2-15.71c0,0,1.86.18,2,3-.03,2.2-.19,4.4-.48,6.59l6-9.08c1.34-2,3.49-5,4.7-4.64s-1.3,4.39-2,6.28-1.8,4.54-1.8,4.54c0,0,5.47-7.91,7.55-9.64,1.51-1.27,2.85.83,1.44,2.6,0,0,2.17-1.15,1.92.79s-5.76,9.66-5.17,10,5.43-5.73,6.66-5.63c.7.06.81,1.11-.35,2.7-1.16,1.59-10,13.49-11.55,14.82-.74.72-1.68,1.2-2.7,1.35l-8.42-2.82Z" fill="#b78876"/>
    <path d="m298.32,101.1c-.52-.22-1.08-.32-1.64-.28-1.37-.04-2.73.2-4,.71l.34.24v-.17c.03-1.39-.19-2.78-.66-4.09-.15-.56-.41-1.08-.77-1.53.57,1.82.88,3.71.93,5.61v.55l.35-.15c1.75-.61,3.6-.91,5.45-.89Z" fill="#aa6550"/>
    <path d="m307.47,84.68c-1.4,1.46-2.69,3.03-3.85,4.69-1.3,1.57-2.39,3.3-3.24,5.15.11.07,1.61-2.18,3.64-4.85,1.29-1.56,2.45-3.23,3.45-4.99Z" fill="#aa6550"/>
    <path d="m295.53,107.95c0-.14-1.33-.11-2.89-.42s-2.78-.84-2.84-.71c1.65,1.21,3.75,1.62,5.73,1.13Z" fill="#aa6550"/>
    <path d="m285.48,158.29c.06,0-.23-.69-.55-2-.43-1.81-.66-3.67-.67-5.53-.13-4.73,1.31-11.18,1.85-18.41s.95-13.77,1.23-18.5c.13-2.32.24-4.22.31-5.61,0-.62.06-1.12.08-1.53.02-.18.02-.35,0-.53-.06.17-.09.34-.09.52-.05.41-.1.91-.17,1.52-.13,1.32-.29,3.24-.47,5.6-.37,4.73-.75,11.28-1.38,18.49s-1.92,13.66-1.7,18.46c.04,1.88.32,3.76.83,5.57.14.49.31.98.51,1.45.05.18.13.34.22.5Z" fill="#aa6550"/>
    <path d="m267,58.94c.06-2-1.8-3.57-3.67-4.3s-3.95-1-5.62-2.14c-1.48-1-2.48-2.55-3.73-3.82-4.8-4.87-12.64-4.93-17.51-.13-1.62,1.6-2.77,3.61-3.32,5.82-.72,2.86-.23,6.25,2,8.15,2.62,2.21,6.51,1.72,9.86,1s7.16-1.37,10,.6c1.69,1.19,2.66,3.13,3.69,4.92s2.33,3.61,4.29,4.29,4.61-.49,4.68-2.56" fill="#263238"/>
    <path d="m227.01,70.92c.64-1.55,1.75-2.87,2.38-4.41.79-1.94.79-4.09,1.24-6.13,1.7-7.7,9.33-12.56,17.03-10.86,1.51.33,2.96.91,4.28,1.71l15.12,8.45c-.3,2.52,1.89,4.2,3,5.51s1.64,2,1.68,3.71c.05,2-1.22,3.11-1,5.08.14,1.25,1.77,3.4,2.24,4.58.65,1.64.36,4.08,0,5.8-.69,2.34-1.98,4.46-3.75,6.15-3.94,3.47-8.8,5.73-14,6.5-4.88.47-9.81.24-14.62-.69-4.92-.65-9.15-3.84-11.12-8.4-1.46-3.03-2.53-6.23-3.16-9.53-.58-2.5-.34-5.12.68-7.47Z" fill="#263238"/>
    <path d="m231.3,66.96c.38-5.74,4.2-12.78,9.92-12.16l17.85,4.55c1.73.2,3.03,1.68,3,3.42l-2,42.12c-.03.72-.2,1.42-.49,2.08-1.33,2.92-5.73,10.35-15.3,7.34-2.34-.73-3.41-3.3-3.88-5.93,0-.31-.13-.59-.13-.89-.23-1.96-.25-3.94-.07-5.91,0-3.48,0-4.9,0-4.87s-7.33-1.24-8.83-10.81c-.74-4.76-.43-12.56-.07-18.94Z" fill="#b78876"/>
    <path d="m233.85,73.89c-.02.67.51,1.22,1.18,1.24,0,0,0,0,0,0,.65.05,1.22-.43,1.27-1.08,0,0,0-.01,0-.02,0-.66-.52-1.21-1.18-1.24-.64-.06-1.21.42-1.27,1.06,0,.01,0,.02,0,.04Z" fill="#263238"/>
    <path d="m246.49,73.89c-.01.67.51,1.22,1.18,1.24.64.06,1.21-.42,1.27-1.06,0-.01,0-.02,0-.04,0-.66-.52-1.21-1.18-1.24-.64-.06-1.21.42-1.27,1.06,0,.01,0,.02,0,.04Z" fill="#263238"/>
    <path d="m246.21,71.48c.2.08,1.14-.59,2.63-.85s2.69,0,2.83-.16-.15-.23-.68-.35c-.76-.15-1.53-.15-2.29,0-.74.13-1.44.41-2.07.82-.41.28-.52.51-.42.54Z" fill="#263238"/>
    <path d="m233.21,70.6c.17.14,1.27-.2,2.77,0s2.56.84,2.73.74-.07-.26-.53-.55c-.67-.38-1.41-.63-2.17-.73-.74-.11-1.5-.07-2.22.13-.48.17-.66.35-.58.41Z" fill="#263238"/>
    <path d="m241.16,81.08c-.7-.22-1.42-.35-2.15-.39-.34,0-.66-.1-.71-.33-.03-.35.05-.7.23-1,.31-.82.65-1.67,1-2.57.93-2.17,1.68-4.42,2.25-6.71-1.1,2.09-2.03,4.27-2.79,6.51-.33.9-.66,1.76-1,2.58-.21.41-.27.88-.18,1.33.1.24.31.42.56.49.19.05.38.08.57.08.74.1,1.48.11,2.22,0Z" fill="#263238"/>
    <path d="m240.21,96.68c4.5.08,8.94-1.09,12.82-3.39,0,0-3.23,6.61-12.81,5.7v-2.31Z" fill="#aa6550"/>
    <path d="m241.71,84.26c.51-.64,1.32-.97,2.13-.87.59.05,1.13.34,1.5.8.36.45.4,1.08.1,1.58-.43.48-1.12.65-1.73.43-.62-.22-1.2-.56-1.69-1-.15-.1-.27-.24-.37-.39-.1-.15-.1-.34,0-.49" fill="#aa6550"/>
    <path d="m245.04,82c-.21,0-.22,1.42-1.45,2.44s-2.75.85-2.77,1,.34.28,1,.3c.84.01,1.66-.27,2.31-.8.62-.5,1.02-1.21,1.12-2,.05-.59-.11-.95-.21-.94Z" fill="#263238"/>
    <path d="m245.48,68.1c.13.36,1.45.19,3,.38s2.8.61,3,.29c.09-.15-.13-.49-.63-.84-1.37-.86-3.06-1.05-4.58-.51-.55.26-.84.51-.79.68Z" fill="#263238"/>
    <path d="m233.48,67.2c.23.3,1.14,0,2.24,0s2,.2,2.23-.11c.1-.15-.05-.45-.45-.74-.54-.35-1.18-.52-1.82-.49-.64,0-1.27.21-1.78.6-.39.28-.52.59-.42.74Z" fill="#263238"/>
    <path d="m235.13,53.21l2.33-2.53c4.25,1.91,9,2.24,13.6,3.11s9.36,2.5,12.2,6.19c2.6,3.38,3.13,7.87,3.28,12.12.17,4.91-.06,9.82-.38,14.71,0,1.21-.24,2.4-.67,3.53-.46,1.14-1.48,1.95-2.69,2.13-1.89.15-3.31-1.81-3.66-3.67s0-3.82-.54-5.65c-.33-1.25-1-2.39-1.29-3.66-.47-2.33.58-4.82-.08-7.1-.85-3-4.13-4.4-7.08-5.29s-6.26-1.88-7.73-4.58c-.11,1.19-.23,2.38-.34,3.57-5.07-2.11-7.96-7.48-6.95-12.88Z" fill="#263238"/>
    <path d="m239.68,61.34c-1.15-1.74-2.03-3.65-2.59-5.66-.43-2.05-.55-4.16-.34-6.25-.23.58-.36,1.2-.39,1.83-.29,3.05.46,6.1,2.12,8.67.32.54.72,1.01,1.2,1.41Z" fill="#455a64"/>
    <path d="m265.37,80.45c.09-.14.16-.29.21-.45.19-.44.35-.9.48-1.36.51-1.7.75-3.47.69-5.24-.07-2.66-.96-5.24-2.55-7.37-.95-1.24-2.15-2.27-3.53-3-1.5-.75-3.13-1.22-4.8-1.39-1.7-.23-3.36-.32-4.93-.54-1.51-.2-2.99-.61-4.38-1.22-4-1.81-7.11-5.15-8.62-9.28-.1-.29-.2-.55-.28-.78s-.11-.41-.16-.58c-.04-.16-.09-.33-.16-.48,0,.17.03.34.08.5,0,.17.08.37.13.59s.15.51.24.8c.55,1.69,1.39,3.27,2.49,4.66,1.61,2.09,3.71,3.76,6.12,4.86,1.42.64,2.93,1.07,4.48,1.27,1.6.24,3.26.33,4.93.55,1.63.17,3.21.63,4.68,1.35,1.34.72,2.5,1.71,3.42,2.92,1.56,2.07,2.45,4.56,2.55,7.15.08,1.75-.11,3.5-.55,5.19-.16.6-.3,1.06-.4,1.37-.06.15-.11.32-.14.48Z" fill="#455a64"/>
    <path d="m266.85,61.35c.26.31.5.65.71,1,.69.83,1.43,1.6,2.23,2.33.53.55,1,1.15,1.41,1.79.45.78.71,1.65.76,2.55.07.98-.07,1.97-.4,2.9-.48.84-.64,1.82-.47,2.77.33.89,1.15,1.62,1.6,2.56.44.88.72,1.82.83,2.8.16,1.63-.03,3.28-.55,4.84-.34,1.03-.76,2.03-1.24,3-.15.36-.35.69-.58,1-.1,0,.69-1.56,1.46-4.17.46-1.52.6-3.11.43-4.68-.11-.92-.38-1.81-.8-2.63-.6-.84-1.14-1.72-1.64-2.62-.17-.54-.17-1.13,0-1.67.14-.49.31-.98.51-1.45.32-.86.46-1.77.41-2.69-.04-.83-.27-1.64-.66-2.37-.39-.62-.83-1.21-1.32-1.76-.77-.76-1.48-1.59-2.12-2.47-.24-.31-.44-.66-.57-1.03Z" fill="#455a64"/>
    <path d="m255.03,57.07c1.29.1,2.6.1,3.89,0,1.27-.25,2.52-.58,3.75-1-1.03.94-2.34,1.51-3.73,1.61-1.33.24-2.71.03-3.91-.61Z" fill="#455a64"/>
    <path d="m252.04,53.61c.08-.17,2.24,1.17,5.24,1.47,1.82.08,3.63-.12,5.39-.58-.43.34-.94.58-1.48.7-1.29.4-2.65.53-4,.39-1.33-.13-2.62-.5-3.81-1.09-.5-.21-.96-.51-1.34-.89Z" fill="#455a64"/>
  </g>
  <g id="freepik--speech-bubble--inject-17">
    <path d="m98.94,115.91l-6.81-12c9.3-15.11,4.59-34.9-10.52-44.2-15.11-9.3-34.9-4.59-44.2,10.52-9.3,15.11-4.59,34.9,10.52,44.2,11.39,7.01,25.93,6.23,36.5-1.95h0l14.51,3.43Z" fill="#fff"/>
    <path d="m98.94,115.91l-14.55-3.3h-.2l.12-.16h0l.19.18c-4.47,3.5-9.8,5.76-15.43,6.52-1.69.23-3.39.32-5.09.26-.88,0-1.77-.07-2.67-.15l-2.72-.4c-8.1-1.59-15.29-6.21-20.11-12.91-2.68-3.71-4.54-7.95-5.44-12.43-.93-4.74-.8-9.63.38-14.31,1.22-4.9,3.58-9.44,6.9-13.24,3.36-3.9,7.62-6.94,12.4-8.85,4.58-1.81,9.51-2.57,14.42-2.22,4.65.32,9.17,1.66,13.24,3.92,7.32,4.07,12.78,10.8,15.27,18.8,1,3.39,1.47,6.92,1.39,10.46-.17,5.65-1.83,11.15-4.81,15.95v-.13c4.24,7.63,6.28,11.3,6.7,12.07l-6.92-11.95v-.13c2.91-4.78,4.52-10.23,4.66-15.82.06-3.52-.42-7.02-1.43-10.39-2.48-7.87-7.89-14.5-15.11-18.5-4-2.22-8.44-3.53-13-3.84-4.83-.34-9.68.41-14.19,2.2-4.7,1.89-8.88,4.88-12.2,8.71-3.26,3.73-5.59,8.19-6.79,13-1.16,4.61-1.29,9.42-.39,14.09.89,4.42,2.71,8.6,5.34,12.26,4.74,6.61,11.82,11.17,19.8,12.77l2.68.42c.89.07,1.77.1,2.64.15,1.67.07,3.34,0,5-.23,5.58-.74,10.86-2.94,15.32-6.36l.8-.62-.62.8h0l-.07-.2,14.49,3.58Z" fill="#263238"/>
    <polygon points="48.63 89.62 53.12 85.13 61.79 92.83 78.81 76.46 82.98 80.95 61.15 101.5 48.63 89.62" fill="#ff7200"/>
  </g>
  <g>
    <path d="m123.77,169.57c4.45-.29,7.16-.29,8.97,2.65,1.83,2.94-4.62,13.24,1.95,14.98s9.78-3.58,12.5-8.83c2.73-5.23,4.02-11.52,4.03-14.66" fill="none" stroke="#ffc59f" stroke-linecap="round" stroke-linejoin="round" stroke-width="8"/>
    <path d="m124.75,188.42c1.95-2.62,4.23-3.06,7.11-3.43" fill="none" stroke="#ffc59f" stroke-linecap="round" stroke-linejoin="round" stroke-width="8"/>
  </g>
  <g>
    <path d="m123.77,169.57c4.45-.29,7.16-.29,8.97,2.65,1.83,2.94-4.62,13.24,1.95,14.98s9.78-3.58,12.5-8.83c2.73-5.23,4.02-11.52,4.03-14.66" fill="none" stroke="#fff" stroke-linecap="round" stroke-linejoin="round" stroke-width="8"/>
    <path d="m124.75,188.42c1.95-2.62,4.23-3.06,7.11-3.43" fill="none" stroke="#fff" stroke-linecap="round" stroke-linejoin="round" stroke-width="8"/>
  </g>
  <g>
    <path d="m239.43,214.26h-3.56v2.77h3.98v1.41h-5.7v-9.44h5.49v1.41h-3.77v2.44h3.56v1.4Z" fill="#263238"/>
    <path d="m242.43,211.63l.81,1.29c.22.36.42.7.62,1.05h.04c.2-.38.39-.73.59-1.08l.76-1.26h1.88l-2.28,3.28,2.33,3.54h-1.95l-.84-1.36c-.22-.36-.42-.73-.62-1.11h-.03c-.2.39-.39.73-.62,1.11l-.79,1.36h-1.9l2.37-3.47-2.28-3.35h1.92Z" fill="#263238"/>
    <path d="m248.2,213.89c0-.9-.03-1.62-.06-2.27h1.51l.08,1.05h.03c.5-.77,1.3-1.2,2.34-1.2,1.57,0,2.87,1.34,2.87,3.47,0,2.47-1.55,3.66-3.11,3.66-.85,0-1.57-.36-1.92-.91h-.03v3.53h-1.72v-7.33Zm1.72,1.69c0,.17.01.32.06.48.17.7.79,1.2,1.51,1.2,1.09,0,1.74-.91,1.74-2.25,0-1.21-.59-2.19-1.69-2.19-.71,0-1.37.52-1.54,1.27-.04.14-.07.29-.07.43v1.05Z" fill="#263238"/>
    <path d="m257.61,215.52c.04,1.23,1.01,1.77,2.1,1.77.8,0,1.37-.11,1.89-.31l.25,1.19c-.59.24-1.4.43-2.38.43-2.21,0-3.52-1.37-3.52-3.46,0-1.89,1.15-3.67,3.33-3.67s2.94,1.82,2.94,3.32c0,.32-.03.57-.06.73h-4.57Zm3-1.2c.01-.63-.27-1.67-1.42-1.67-1.06,0-1.51.97-1.58,1.67h3Z" fill="#263238"/>
    <path d="m263.61,213.82c0-.92-.01-1.58-.06-2.2h1.5l.06,1.3h.06c.34-.97,1.13-1.46,1.86-1.46.17,0,.27.01.41.04v1.62c-.14-.03-.29-.06-.5-.06-.83,0-1.39.53-1.54,1.3-.03.15-.06.34-.06.53v3.53h-1.72v-4.62Z" fill="#263238"/>
    <path d="m270.89,209.87v1.75h1.64v1.29h-1.64v3.01c0,.83.22,1.26.88,1.26.32,0,.48-.03.67-.08l.03,1.32c-.25.1-.7.18-1.25.18-.63,0-1.16-.22-1.48-.57-.36-.39-.53-1.01-.53-1.91v-3.21h-.98v-1.29h.98v-1.26l1.68-.49Z" fill="#263238"/>
  </g>
</svg>