<?xml version="1.0" encoding="utf-8"?>
<!-- Generator: Adobe Illustrator 27.2.0, SVG Export Plug-In . SVG Version: 6.00 Build 0)  -->
<svg version="1.1" id="Layer_1" xmlns="http://www.w3.org/2000/svg" xmlns:xlink="http://www.w3.org/1999/xlink" x="0px" y="0px"
	 viewBox="0 0 286.26 330.65" style="enable-background:new 0 0 286.26 330.65;" xml:space="preserve">
<g id="freepik--Character--inject-140">
	<path style="fill:#263238;" d="M2.57,268.91c0,0,6.71,4.34,9.81,4.19s15.29-15.26,15.29-15.26l-6.35-4.8l-15.64,2.59l-3.09,13.14"
		/>
	<path style="fill:#263238;" d="M135.6,47.3c2.7,10.21,0.03,21.09-7.07,28.9c-3.21,3.46-7.3,6.29-9.33,10.55
		c-2.25,4.72-1.52,10.27-2.52,15.41s-5.36,10.6-10.36,9.36c4.74,7,11.94,12.11,19.66,15.62c7.72,3.51,16,5.57,24.23,7.62
		c4.58,1.13,9.52,2.25,13.9,0.49c5.67-2.27,8.49-8.5,10.76-14.17l19.78-49.41"/>
	<path style="fill:#B5715A;" d="M203.32,27.6c-0.01-3.84-2.95-7.04-6.78-7.36l-34.87-16c-12.59-1.06-25.16,21.47-25.68,34.09
		c-0.58,14,1.24,30.88,3.12,41.29c3.78,20.94,17.91,21.34,17.91,21.34l1.2,33.88l43.76-0.08L203.32,27.6z"/>
	<path style="fill:#263238;" d="M145.17,55.08c0.02,1.46,1.2,2.64,2.66,2.66c1.42,0.08,2.64-1.01,2.72-2.43c0-0.02,0-0.04,0-0.06
		c-0.02-1.46-1.19-2.64-2.65-2.66c-1.42-0.09-2.64,0.99-2.73,2.4C145.17,55.02,145.17,55.05,145.17,55.08z"/>
	<path style="fill:#263238;" d="M141.72,47.92c0.29,0.25,2.41-0.09,5.24,0.54s4.78,1.83,5.12,1.72c0.16-0.05-0.12-0.45-1-1
		c-1.26-0.76-2.63-1.3-4.07-1.6c-1.38-0.32-2.8-0.39-4.2-0.2C141.91,47.54,141.57,47.84,141.72,47.92z"/>
	<path style="fill:#263238;" d="M172.51,53.68c0.02,1.46,1.2,2.65,2.66,2.67c1.42,0.08,2.64-1.01,2.72-2.43c0-0.02,0-0.04,0-0.06
		c-0.02-1.46-1.19-2.64-2.65-2.67c-1.43-0.08-2.65,1.02-2.73,2.44C172.51,53.65,172.51,53.67,172.51,53.68z"/>
	<path style="fill:#263238;" d="M168.54,49.5c0.42,0.1,2.25-1.37,5.27-2.25s5.53-0.71,5.79-1c0.13-0.14-0.35-0.39-1.45-0.48
		c-1.59-0.09-3.19,0.1-4.72,0.56c-1.49,0.4-2.88,1.08-4.11,2C168.53,49.02,168.32,49.47,168.54,49.5z"/>
	<path style="fill:#263238;" d="M158.32,68.84c0-0.17-1.8-0.44-4.73-0.75c-0.74-0.06-1.44-0.19-1.58-0.7
		c-0.07-0.76,0.08-1.53,0.45-2.2c0.66-1.81,1.35-3.7,2.07-5.69c2.87-8.09,4.93-14.73,4.6-14.85s-2.92,6.36-5.79,14.45
		c-0.68,2-1.34,3.9-2,5.71c-0.45,0.9-0.56,1.94-0.32,2.92c0.23,0.56,0.71,0.97,1.3,1.11c0.41,0.1,0.84,0.15,1.26,0.14
		C156.51,69.05,158.32,69.02,158.32,68.84z"/>
	<path style="fill:#884C3B;" d="M157.02,101.2c9.9-0.06,19.6-2.86,28-8.1c0,0-6.17,15.46-27.23,13.94L157.02,101.2z"/>
	<path style="fill:#884C3B;" d="M158.97,75.89c1.16-2.03,3.18-3.43,5.49-3.81c1.36-0.16,2.67,0.54,3.31,1.75
		c0.68,1.57,0.54,3.38-0.36,4.83c-0.87,1.54-2.58,2.41-4.34,2.22c-1.42-0.37-2.71-1.16-3.68-2.27c-0.33-0.27-0.59-0.61-0.76-1
		c-0.18-0.51-0.1-1.07,0.19-1.52"/>
	<path style="fill:#263238;" d="M166.92,70.68c-0.48,0-0.42,3.13-3.06,5.42s-6,2-6,2.46c0,0.2,0.76,0.59,2.18,0.6
		c1.83-0.02,3.6-0.68,5-1.87c1.34-1.15,2.19-2.78,2.36-4.54C167.5,71.43,167.13,70.66,166.92,70.68z"/>
	<path style="fill:#263238;" d="M166.32,35.73c0.38,0.75,3.21,0,6.63,0s6.27,0.58,6.64-0.18c0.15-0.36-0.41-1-1.6-1.66
		c-3.21-1.52-6.94-1.48-10.11,0.12C166.71,34.68,166.16,35.37,166.32,35.73z"/>
	<path style="fill:#263238;" d="M139.09,44.41c0.65,0.65,3.12-0.1,6.1-0.21s5.52,0.31,6.09-0.4c0.24-0.34-0.17-1-1.29-1.58
		c-1.55-0.76-3.27-1.1-5-1c-1.71,0.06-3.37,0.56-4.83,1.45C139.14,43.41,138.81,44.1,139.09,44.41z"/>
	<path style="fill:#263238;" d="M224.81,79.49C223,70.17,217.34,40.31,209,24.74s-17.87-21.72-27.13-24
		c-7.15-1.94-14.79-0.01-20.16,5.1c-4.07,3.82-5.24,14.68-5.24,14.68s22.33,4.41,30.1,16.9c8.94,14.34,11.19,21.61,11.19,21.61
		l3,7.89c0,0,2.36,38.41,1.58,46l33.54,12.11C228.68,110.22,226.63,88.84,224.81,79.49z"/>
	<path style="fill:#263238;" d="M157.84,20.35c0,0-14.72-0.76-19.08,13.69c-2,6.54-2.2,25.55-2.2,25.55s-3.15-15.07-2.67-23.58
		s4.47-19.34,10.84-25.44c6.19-5.93,11.47-8.77,22.8-8.35c0,0-1.62,3.22-4.41,7.58C161.72,11.99,159.52,12.23,157.84,20.35z"/>
	<path style="fill:#B5715A;" d="M197.63,60.14c0.13-4.66,5.12-7.88,9.2-5.64c2.24,1.22,4,3.75,3.91,8.7
		c-0.23,13.17-13.41,10.22-13.43,9.84C197.32,72.84,197.49,65.59,197.63,60.14z"/>
	<path style="fill:#884C3B;" d="M201.42,68.12c0.06,0,0.23,0.17,0.62,0.35c0.54,0.24,1.15,0.27,1.71,0.07c1.4-0.49,2.61-2.68,2.72-5
		c0.05-1.13-0.15-2.26-0.59-3.3c-0.23-0.84-0.86-1.51-1.69-1.79c-0.54-0.16-1.12,0.09-1.37,0.6c-0.18,0.37-0.1,0.63-0.17,0.65
		s-0.28-0.22-0.16-0.76c0.07-0.33,0.26-0.62,0.53-0.82c0.37-0.26,0.82-0.38,1.27-0.31c1.1,0.23,2,1.02,2.37,2.08
		c0.54,1.15,0.79,2.42,0.73,3.69c-0.13,2.65-1.54,5.11-3.45,5.63c-0.72,0.19-1.49,0.05-2.09-0.39
		C201.44,68.44,201.38,68.14,201.42,68.12z"/>
	<path style="fill:#455A64;" d="M172.76,0.33c0,0.1-1.5,0.42-3.78,1.43c-2.97,1.32-5.53,3.42-7.4,6.08
		c-1.84,2.68-3.27,5.61-4.26,8.71c-0.8,2.37-1.2,3.88-1.29,3.85c0.02-0.37,0.08-0.73,0.18-1.08c0.14-0.69,0.41-1.67,0.76-2.88
		c0.9-3.18,2.31-6.19,4.19-8.91c1.06-1.49,2.34-2.81,3.8-3.92c1.19-0.89,2.49-1.63,3.87-2.19c0.52-0.22,1.06-0.41,1.61-0.57
		c0.4-0.14,0.82-0.26,1.24-0.34C172.03,0.4,172.4,0.34,172.76,0.33z"/>
	<path style="fill:#455A64;" d="M218.97,102.32c-0.05-0.09-0.09-0.18-0.12-0.28c-0.08-0.21-0.17-0.49-0.3-0.83
		c-0.37-1.08-0.66-2.18-0.86-3.3c-0.59-4.14-0.59-8.34,0-12.48c0.27-2.63,0.65-5.5,0.9-8.58c0.32-3.27,0.26-6.57-0.19-9.82
		c-0.6-3.58-1.86-7.01-3.7-10.13c-1.98-3.35-4.42-6.42-7.25-9.1c-5.79-5.57-12.55-9.36-18.65-12.68s-11.74-6.18-16.2-9
		c-3.53-2.22-6.94-4.63-10.21-7.21c-1.16-0.92-2-1.66-2.62-2.16l-0.67-0.58c-0.14-0.14-0.22-0.21-0.21-0.22l0.25,0.18
		c0.18,0.14,0.41,0.31,0.69,0.54l2.69,2.08c2.34,1.78,5.79,4.29,10.28,7.06s10.06,5.64,16.23,8.91s12.92,7.09,18.78,12.73
		c2.86,2.72,5.33,5.82,7.34,9.21c1.87,3.18,3.13,6.68,3.73,10.32c0.44,3.29,0.49,6.63,0.14,9.93c-0.27,3.1-0.67,6-1,8.57
		c-0.61,4.11-0.66,8.29-0.15,12.42c0.18,1.11,0.44,2.22,0.76,3.3c0.11,0.35,0.19,0.62,0.25,0.84
		C218.92,102.13,218.95,102.23,218.97,102.32z"/>
	<path style="fill:#263238;" d="M7.43,252.21c0.23-0.21,0.49-0.38,0.78-0.5c0.75-0.4,1.54-0.74,2.35-1c2.7-0.87,5.57-1.02,8.35-0.45
		c2.77,0.58,5.35,1.86,7.49,3.71c0.64,0.56,1.23,1.17,1.76,1.83c0.38,0.48,0.55,0.76,0.52,0.78s-0.87-1-2.52-2.32
		c-4.34-3.52-10.11-4.71-15.49-3.2C8.63,251.64,7.47,252.3,7.43,252.21z"/>
	<path style="fill:#263238;" d="M21.88,244.76c0.68,0.35,1.3,0.8,1.83,1.35c2.72,2.49,4.64,5.74,5.52,9.32
		c0.22,0.73,0.33,1.49,0.31,2.25c-0.66-2.44-1.61-4.79-2.83-7C25.34,248.52,23.72,246.54,21.88,244.76z"/>
	<path style="fill:#263238;" d="M98.24,330.55c0,0,10.62-51.71,33.13-61.71l89.25-2.62c0,0,29.49,19.75,34.21,64.62L98.24,330.55z"
		/>
	<path style="fill:#E0E0E0;" d="M157.46,110.29c0,0,2.63,16.55,20.29,14.55s24.57-11.87,24.57-11.87l24.54,7.87l3.86,47.47
		c-13.99,27.25-21.84,57.24-23,87.85c-0.2,5.13-0.38,10.76-3.8,14.59c-2.1,2.36-5.14,3.65-8.14,4.67
		c-19.3,6.46-40.41,4.72-58.4-4.81c0,0-7.5-81.22-6.58-83.52s13.2-70.63,13.2-70.63L157.46,110.29z"/>
	<path style="fill:#455A64;" d="M131.37,114.04c0,0-15.6,1.1-19.78,3.19s-58.87,70.7-61,71.75c-1.74,0.87-34.29,31.12-47.72,60.4
		c-2.65,5.77-4.7,14-0.34,19.46c0,0,15.68-19.69,25.1-11.05l42.12-42.69l44-25.66L131.37,114.04z"/>
	<g style="opacity:0.3;">
		<path d="M147.32,248.13c18.52-35.76,18.52-87.58,9.69-135.16l-7.92,67.61L147.32,248.13z"/>
	</g>
	<path style="fill:#455A64;" d="M107.38,126.58l1.39,58c0,0,5.55,64.26,6.62,64.26s4.18,22.64,0,32.74s-17.76,23.69-17.76,23.69
		l17.07,18.46c0,0,16-25.43,20.9-41.8s18.46-41.09,20.55-87.09s1.23-90.88,1.23-90.88l-13.42,9.72l-12.9,0.27L107.38,126.58z"/>
	<path style="fill:#263238;" d="M138.32,278.84c0,0,0-0.19,0.14-0.55s0.25-0.91,0.45-1.6l1.69-6.17c1.42-5.37,3.43-13.16,5.29-22.91
		c0.93-4.87,1.82-10.24,2.43-16c0.29-2.9,0.51-5.91,0.58-9c0.1-3.19-0.08-6.37-0.52-9.53c-0.25-1.63-0.63-3.24-1.15-4.8
		c-0.53-1.59-1-3.21-1.71-4.79l-1-2.4l-1.08-2.38c-0.7-1.6-1.5-3.18-2.29-4.78c-3.2-6.37-6.94-12.76-11-19.16
		c-3.5-5.53-7.09-10.86-10.73-15.9l-0.14-0.2l0.19-0.15l26.11-21.43l0.17,0.4l-23,2.65l-0.46,0.05l0.29-0.36
		c6.57-8,11.9-14.56,15.59-19.09l4.25-5.17l1.12-1.34c0.26-0.3,0.4-0.44,0.4-0.44l-0.36,0.48l-1.07,1.37l-4.19,5.13l-15.45,19.2
		l-0.17-0.3l23-2.73l0.77-0.09l-0.6,0.49l-26.08,21.5l0.05-0.35c3.65,5.05,7.24,10.38,10.75,15.92c4,6.41,7.8,12.81,11,19.22
		c0.8,1.6,1.6,3.18,2.3,4.8l1.08,2.39l1,2.41c0.68,1.59,1.18,3.22,1.72,4.82c0.52,1.59,0.9,3.22,1.15,4.88
		c0.44,3.18,0.61,6.4,0.5,9.61c-0.07,3.12-0.3,6.14-0.6,9.05c-0.63,5.82-1.54,11.19-2.49,16.07c-1.92,9.76-4,17.54-5.46,22.9
		c-0.75,2.67-1.36,4.74-1.79,6.14c-0.22,0.68-0.38,1.21-0.5,1.59S138.32,278.84,138.32,278.84z"/>
	<path style="fill:#455A64;" d="M202.32,98.73c0,0,8.64,13.32,9.54,14.24c0,0,36.5,10.33,38.66,14.68c8.88,17.94,1.71,24.39,0,49.05
		c-2.13,30.65-12.39,73.31-12.39,73.31s14.44,55.65,16,58.72s-49.15,21.72-54.53,14.7s-9.59-31.2-9.59-31.2s-5-49.13-3.07-68.7
		s11-39.69,14.2-63.33C204.4,135.22,202.32,98.73,202.32,98.73z"/>
	<path style="fill:#263238;" d="M188.77,235.84c0.01-0.24,0.05-0.48,0.11-0.72c0.11-0.51,0.25-1.19,0.42-2s0.44-2,0.71-3.21
		s0.83-2.62,1.32-4.15c2.8-7.93,6.61-15.47,11.32-22.43c4.71-6.96,10.01-13.5,15.86-19.53c2.25-2.31,4.15-4.1,5.5-5.3
		c0.67-0.6,1.22-1,1.59-1.34c0.19-0.15,0.39-0.29,0.6-0.4c0,0-3,2.62-7.42,7.29c-5.75,6.09-10.99,12.64-15.69,19.57
		c-4.68,6.92-8.51,14.38-11.42,22.22c-0.5,1.52-1,2.89-1.38,4.11s-0.57,2.29-0.79,3.18s-0.39,1.5-0.52,2
		C188.93,235.37,188.86,235.61,188.77,235.84z"/>
	<path style="fill:#263238;" d="M211.82,113.59c0.15,0.21,0.27,0.44,0.37,0.68c0.24,0.5,0.56,1.17,1,2c0.83,1.8,2,4.32,3.45,7.41
		c0.73,1.57,1.51,3.28,2.36,5.12l1.32,2.85c0.44,1,0.94,2,1.31,3.06c1.6,4.28,3.36,9,5.21,13.89l4.14,11.12l0.1,0.27l-0.28,0.06
		l-9.75,2.11l0.14-0.3l4.9,10.76c0.55,1.26,1,2.27,1.33,3l0.33,0.8c0.04,0.09,0.08,0.18,0.09,0.28c-0.06-0.08-0.11-0.16-0.15-0.25
		l-0.39-0.77l-1.43-2.95l-5.06-10.69l-0.12-0.24l0.27-0.06l9.73-2.17l-0.17,0.33l-4.2-11.06c-1.83-4.93-3.57-9.62-5.16-13.89
		c-0.37-1.09-0.86-2.08-1.3-3.07l-1.28-2.86l-2.26-5.18c-1.37-3.11-2.5-5.65-3.3-7.46l-0.87-2
		C212.02,114.13,211.91,113.86,211.82,113.59z"/>
	<path style="fill:#455A64;" d="M235.85,243.78c0,0,18.67,18.67,28.27,17.6s22.14-21.87,22.14-29.07s-9-53.62-9-53.62l3.73-17.47
		l-35-0.67l-7,53.81L235.85,243.78z"/>
	<path style="fill:#263238;" d="M258.56,119.06c-0.02,0.13-0.06,0.27-0.12,0.39l-0.42,1.11l-0.7,1.8c-0.31,0.7-0.65,1.51-1.05,2.41
		c-0.81,1.81-1.87,4-3.2,6.48s-3,5.23-5,8.15c-4.7,6.86-10.27,13.09-16.57,18.52c-3.7,3.23-7.68,6.12-11.9,8.64
		c-4.53,2.75-9.47,4.73-14.64,5.87c-5.2,1.13-10.6,1-15.74-0.38c-2.44-0.68-4.77-1.69-6.93-3c-2.06-1.28-3.92-2.85-5.53-4.66
		c-2.87-3.4-5.34-7.13-7.35-11.1c-2-3.65-3.82-7.08-5.34-10.28c-1.39-2.88-2.59-5.83-3.61-8.86c-0.76-2.29-1.34-4.63-1.76-7
		c-0.36-2.02-0.52-4.08-0.48-6.13c0.01,0.14,0.01,0.27,0,0.41c0,0.29,0,0.68,0.07,1.18c0.11,1.51,0.3,3.02,0.57,4.51
		c0.45,2.36,1.06,4.68,1.84,6.95c1.04,3,2.27,5.94,3.66,8.79c1.54,3.18,3.38,6.59,5.39,10.23c2.01,3.94,4.46,7.63,7.32,11
		c1.59,1.77,3.42,3.3,5.44,4.55c2.13,1.28,4.42,2.26,6.81,2.92c5.06,1.35,10.37,1.47,15.49,0.36c5.11-1.13,10.01-3.09,14.49-5.8
		c4.19-2.5,8.16-5.37,11.85-8.56c6.28-5.39,11.85-11.57,16.57-18.37c2-2.9,3.66-5.65,5.06-8.08s2.43-4.63,3.27-6.42
		c0.41-0.9,0.77-1.7,1.09-2.39l0.74-1.78l0.47-1.09C258.41,119.3,258.48,119.18,258.56,119.06z"/>
	<path style="fill:#263238;" d="M251.17,120.34c-0.18,0.23-0.37,0.45-0.59,0.65l-1.74,1.78l-6.52,6.47l-9.63,9.6
		c-1.93,1.88-4.05,3.55-6.32,5c-2.45,1.6-5.25,2.59-8.16,2.91c-2.93,0.34-5.9-0.23-8.49-1.63c-2.42-1.37-4.17-3.66-4.87-6.35
		c-0.59-2.38-0.87-4.82-0.82-7.27c0-2.28,0.08-4.4,0.12-6.34c0.19-3.04-0.03-6.09-0.64-9.08c-0.21-0.8-0.5-1.57-0.85-2.32
		c-0.13-0.26-0.25-0.53-0.35-0.8c0.17,0.24,0.32,0.49,0.44,0.75c0.4,0.74,0.72,1.51,0.95,2.32c0.7,2.99,0.97,6.07,0.82,9.14
		c0,1.94-0.09,4.06-0.06,6.33c-0.02,2.4,0.26,4.8,0.85,7.13c0.67,2.56,2.35,4.75,4.66,6.05c2.51,1.34,5.37,1.88,8.19,1.55
		c2.83-0.31,5.55-1.27,7.94-2.82c2.25-1.43,4.35-3.09,6.26-4.94c1.86-1.74,3.52-3.53,5.17-5.09s3.16-3.06,4.55-4.41l6.62-6.36
		l1.81-1.71C250.72,120.7,250.94,120.51,251.17,120.34z"/>
	<path style="fill:#263238;" d="M118.73,256.27c-0.03-0.09-0.05-0.18-0.06-0.27l-0.12-0.81c-0.09-0.75-0.22-1.8-0.39-3.12
		c-0.34-2.76-0.82-6.67-1.41-11.49c-1.18-9.7-2.85-23.11-4.42-37.94c-0.79-7.42-1.45-14.49-2-20.94s-0.9-12.25-1.11-17.14
		c-0.14-2.44-0.21-4.65-0.27-6.59s-0.11-3.61-0.11-5s0-2.39,0-3.15v-0.81c-0.01-0.09-0.01-0.19,0-0.28c0.01,0.09,0.01,0.18,0,0.27
		c0,0.22,0,0.49,0.05,0.82c0,0.76,0.04,1.81,0.12,3.15c0,1.36,0.1,3,0.2,5s0.19,4.15,0.34,6.58c0.26,4.88,0.71,10.68,1.23,17.12
		s1.23,13.51,2,20.93c1.58,14.82,3.19,28.23,4.27,37.94c0.52,4.83,1,8.76,1.25,11.51c0.13,1.33,0.23,2.38,0.3,3.14
		c0,0.33,0.02,0.6,0.06,0.81C118.7,256.09,118.72,256.18,118.73,256.27z"/>
	<path style="fill:#263238;" d="M281.03,161.22h-2.56l-7.18-0.07l-25.3-0.38l0.24-0.19c-1.42,7.51-2.57,16.07-3.46,25.12
		c-1.58,16.61-2.24,31.71-3.05,42.62c-0.39,5.46-0.76,9.87-1,12.91c-0.15,1.5-0.28,2.67-0.36,3.51c-0.05,0.37-0.08,0.67-0.11,0.91
		c-0.01,0.1-0.02,0.2-0.05,0.3c-0.01-0.1-0.01-0.21,0-0.31c0-0.23,0-0.54,0.05-0.91c0.07-0.84,0.16-2,0.27-3.51
		c0.23-3,0.54-7.47,0.88-12.92c0.72-10.91,1.32-26,2.91-42.65c0.88-9.07,2.05-17.64,3.51-25.16v-0.2h0.2l25.29,0.57l7.19,0.2
		l1.9,0.07h0.49C280.98,161.2,281.03,161.21,281.03,161.22z"/>
	<circle style="fill:#E0E0E0;" cx="272.48" cy="171.16" r="2.74"/>
	<path style="fill:#263238;" d="M275.22,171.16c-0.07-0.21-0.13-0.43-0.18-0.65c-0.18-0.56-0.53-1.04-1-1.39
		c-0.7-0.5-1.6-0.61-2.4-0.31c-1.3,0.49-1.96,1.93-1.47,3.23c0.25,0.68,0.79,1.21,1.47,1.47c0.8,0.3,1.7,0.18,2.4-0.32
		c0.47-0.34,0.82-0.83,1-1.39C275.09,171.58,275.15,171.37,275.22,171.16c0,0,0.09,0.24,0,0.69c-0.13,0.65-0.49,1.23-1,1.64
		c-0.79,0.63-1.84,0.81-2.79,0.47c-1.55-0.59-2.32-2.33-1.72-3.88c0.3-0.79,0.93-1.42,1.72-1.72c0.95-0.34,2-0.16,2.79,0.47
		c0.52,0.41,0.87,0.99,1,1.63C275.32,170.91,275.25,171.16,275.22,171.16z"/>
	<circle style="fill:#E0E0E0;" cx="194.6" cy="255.5" r="2.74"/>
	<path style="fill:#263238;" d="M197.32,255.5c0,0-0.06-0.24-0.19-0.64c-0.18-0.56-0.53-1.04-1-1.39c-1.12-0.82-2.7-0.58-3.52,0.55
		c-0.82,1.12-0.58,2.7,0.55,3.52c0.89,0.65,2.09,0.65,2.97,0c0.47-0.35,0.82-0.83,1-1.39C197.26,255.75,197.27,255.5,197.32,255.5
		c0.06,0.23,0.06,0.47,0,0.7c-0.13,0.65-0.48,1.23-1,1.63c-0.78,0.63-1.83,0.81-2.78,0.48c-1.55-0.59-2.33-2.32-1.74-3.87
		c0.3-0.8,0.94-1.44,1.74-1.74c0.95-0.33,2-0.15,2.78,0.48c0.52,0.4,0.87,0.98,1,1.63C197.39,255.04,197.39,255.28,197.32,255.5z"/>
	<path style="fill:#E0E0E0;" d="M203.01,297.25c0,1.52-1.23,2.75-2.75,2.75s-2.75-1.23-2.75-2.75s1.23-2.75,2.75-2.75l0,0
		C201.78,294.5,203.01,295.73,203.01,297.25z"/>
	<path style="fill:#263238;" d="M203.01,297.25c-0.05,0-0.06-0.25-0.19-0.65c-0.17-0.56-0.53-1.05-1-1.39
		c-1.11-0.85-2.7-0.63-3.55,0.48c-0.85,1.11-0.63,2.7,0.48,3.55c0.2,0.15,0.43,0.28,0.66,0.36c0.8,0.3,1.7,0.18,2.4-0.32
		c0.48-0.34,0.83-0.83,1-1.39C202.95,297.49,202.96,297.24,203.01,297.25c0.06,0.23,0.06,0.46,0,0.69c-0.12,0.65-0.48,1.23-1,1.63
		c-0.79,0.63-1.84,0.81-2.79,0.48c-1.55-0.59-2.33-2.32-1.74-3.87c0.3-0.8,0.94-1.44,1.74-1.74c0.95-0.33,2-0.15,2.79,0.48
		c0.52,0.4,0.88,0.98,1,1.63C203.07,296.78,203.07,297.02,203.01,297.25z"/>
	<path style="fill:#263238;" d="M277.32,178.69c0,0.15-7.18-0.07-16-0.47s-16-0.85-16-1s7.18,0.07,16,0.48
		S277.32,178.55,277.32,178.69z"/>
	<path style="fill:#E0E0E0;" d="M119.09,232.25l-10.32,4.12l-22.45-56.18c-5.29-13.25-20.33-19.71-33.59-14.42
		c-13.25,5.29-19.71,20.33-14.41,33.59l0,0l22.45,56.18l-10.32,4.13l-22.46-56.18c-7.57-18.95,1.65-40.44,20.59-48.02
		c18.95-7.57,40.44,1.65,48.02,20.6l0,0L119.09,232.25z"/>
	<path style="fill:#263238;" d="M119.09,232.25l-0.46-1.12l-1.31-3.29l-5-12.48c-2.18-5.42-4.85-12-7.94-19.72
		c-1.55-3.84-3.19-7.94-4.94-12.3c-1.83-4.31-3.31-9.11-6.15-13.47c-2.95-4.59-6.89-8.45-11.55-11.29c-0.61-0.37-1.21-0.75-1.83-1.1
		l-1.94-0.95c-1.3-0.62-2.64-1.17-4-1.63c-0.69-0.26-1.42-0.4-2.13-0.61s-1.43-0.43-2.17-0.53c-1.49-0.3-2.99-0.5-4.5-0.6
		c-3.09-0.23-6.2-0.08-9.26,0.44l-2.31,0.54l-1.16,0.27l-1.14,0.38l-2.28,0.79c-0.75,0.29-1.47,0.66-2.21,1
		c-6.1,2.84-11.29,7.32-15,12.93c-5.98,9.01-7.67,20.21-4.61,30.58c1.1,3.48,2.6,6.91,4,10.4l17.25,43.16l2.36,5.89l-0.34-0.14
		l10.32-4.13l-0.14,0.34c-4.47-11.17-8.83-22.11-13.08-32.73l-6.26-15.7l-3.06-7.65c-0.99-2.54-1.61-5.22-1.83-7.94
		c-0.35-5.32,0.93-10.62,3.67-15.2c0.3-0.56,0.64-1.11,1-1.64l1.15-1.54c1.64-1.94,3.53-3.65,5.62-5.09c0.52-0.36,1.07-0.65,1.61-1
		l0.8-0.47l0.85-0.39c2.22-1.07,4.57-1.81,7-2.22c2.36-0.37,4.76-0.44,7.13-0.19c4.57,0.53,8.92,2.26,12.61,5
		c3.5,2.53,6.28,5.93,8.07,9.86c0.21,0.47,0.43,0.94,0.64,1.4s0.38,0.95,0.56,1.42l1.12,2.79c0.73,1.85,1.45,3.66,2.16,5.43
		l7.76,19.49c4.66,11.76,8.31,21,10.74,27.08l-0.1-0.05l7.8-3.07l1.91-0.74l0.64-0.24l-0.6,0.26c-0.42,0.17-1,0.42-1.88,0.77
		l-7.81,3.16h-0.07v-0.07c-2.46-6.1-6.15-15.28-10.87-27c-2.36-5.87-5-12.38-7.82-19.47l-2.17-5.42c-0.37-0.92-0.75-1.85-1.12-2.79
		l-0.57-1.42c-0.21-0.46-0.42-0.92-0.64-1.38c-0.88-1.89-1.98-3.66-3.28-5.29c-1.38-1.65-2.95-3.13-4.68-4.41
		c-3.65-2.68-7.93-4.35-12.42-4.87c-2.33-0.23-4.68-0.17-7,0.2c-2.37,0.41-4.68,1.15-6.85,2.19l-0.83,0.38l-0.79,0.47
		c-0.52,0.32-1.07,0.61-1.58,0.95c-1.02,0.7-1.99,1.48-2.91,2.31c-0.93,0.84-1.8,1.74-2.6,2.7l-1.13,1.52c-0.4,0.5-0.68,1.07-1,1.6
		c-2.68,4.5-3.94,9.7-3.59,14.93c0.23,2.67,0.83,5.29,1.8,7.79c1,2.53,2,5.09,3.07,7.66l6.27,15.69l13.09,32.73l0.1,0.24l-0.24,0.1
		c-3.36,1.33-6.81,2.72-10.32,4.12l-0.25,0.1l-0.09-0.24l-2.36-5.9c-5.91-14.78-11.67-29.22-17.24-43.16
		c-1.37-3.5-2.86-6.89-4-10.45c-1-3.54-1.51-7.19-1.5-10.87c0.08-3.6,0.65-7.17,1.69-10.62c1.07-3.35,2.59-6.54,4.51-9.49
		c3.75-5.68,8.99-10.21,15.15-13.09c0.76-0.33,1.49-0.7,2.25-1l2.3-0.79c0.39-0.12,0.77-0.27,1.15-0.38l1.18-0.27l2.34-0.54
		c3.1-0.53,6.25-0.68,9.38-0.44c1.53,0.11,3.04,0.31,4.54,0.62c0.74,0.14,1.48,0.31,2.2,0.53c0.72,0.22,1.46,0.36,2.15,0.62
		c1.4,0.48,2.77,1.03,4.1,1.66l2,1c0.62,0.35,1.23,0.75,1.84,1.11c4.7,2.88,8.68,6.79,11.65,11.44c2.86,4.43,4.33,9.25,6.15,13.58
		l4.92,12.36c3.06,7.71,5.69,14.35,7.85,19.78l4.93,12.48l1.28,3.24C118.96,231.84,119.09,232.25,119.09,232.25z"/>
	<path style="fill:#FF7200;" d="M35.1,225.09l78.43-31.35c5.13-2.05,10.96,0.45,13.01,5.58l24.18,60.48
		c2.05,5.13-0.45,10.96-5.58,13.01L66.7,304.15c-5.13,2.05-10.96-0.45-13.01-5.58L29.52,238.1
		C27.46,232.96,29.96,227.14,35.1,225.09z"/>
	<g style="opacity:0.3;">
		<path d="M35.45,224.94l77.72-31.07c5.33-2.13,11.37,0.46,13.5,5.79l23.89,59.77c2.13,5.33-0.46,11.37-5.79,13.5l-77.72,31.07
			c-5.33,2.13-11.37-0.46-13.5-5.79l-23.89-59.77C27.53,233.12,30.12,227.07,35.45,224.94z"/>
	</g>
	<path style="fill:#FF7200;" d="M30.65,226.86l71.47-28.57c5.12-2.05,10.93,0.44,12.97,5.56l24.2,60.53
		c2.05,5.12-0.44,10.93-5.56,12.97l-71.47,28.57c-5.12,2.05-10.93-0.44-12.97-5.56l-24.2-60.53
		C23.04,234.71,25.53,228.91,30.65,226.86z"/>
	<g style="opacity:0.3;">
		<path d="M91.89,240.15c-2.41-6.11-9.32-9.11-15.42-6.7c-6.11,2.41-9.11,9.32-6.7,15.42c1.96,4.96,6.98,8.01,12.29,7.46l5.39,13.5
			c0.67,1.66,2.56,2.46,4.22,1.8l0,0c1.66-0.66,2.47-2.55,1.81-4.21c0,0,0,0,0,0l-5.4-13.5C92.29,250.71,93.84,245.08,91.89,240.15z
			"/>
	</g>
	<path style="fill:#263238;" d="M140.06,266.22c-0.14,0.05-5.69-13.7-12.4-30.71c-6.71-17.01-12.06-30.85-11.92-30.9
		s5.68,13.7,12.4,30.71C134.86,252.33,140.19,266.17,140.06,266.22z"/>
	<path style="fill:#263238;" d="M91.05,255.07c1.09-1.13,2.04-2.39,2.82-3.75c0.81-1.49,1.35-3.11,1.6-4.79
		c0.69-4.15-0.67-8.38-3.65-11.35c-1.17-1.23-2.55-2.25-4.08-3c-1.43-0.64-2.94-1.12-4.48-1.41c0.43-0.02,0.86,0,1.28,0.08
		c1.16,0.17,2.29,0.51,3.35,1c1.6,0.73,3.04,1.75,4.27,3c3.13,3.06,4.54,7.46,3.78,11.77c-0.27,1.72-0.87,3.38-1.75,4.89
		c-0.58,1.02-1.3,1.95-2.15,2.76C91.75,254.58,91.41,254.85,91.05,255.07z"/>
	<path style="fill:#FFFFFF;" d="M91.52,205.31c0.05,0.13-11.95,5.24-26.81,11.41s-27,11.07-27,10.94s11.95-5.24,26.82-11.42
		S91.46,205.18,91.52,205.31z"/>
	<path style="fill:#FFFFFF;" d="M71.83,255.07c-0.27-0.13-0.52-0.3-0.74-0.51c-0.62-0.52-1.18-1.11-1.68-1.75
		c-3.46-4.34-3.86-10.37-1-15.13c0.41-0.7,0.9-1.35,1.45-1.95c0.19-0.24,0.41-0.44,0.66-0.6c0.08,0.07-0.83,1-1.79,2.73
		c-2.58,4.67-2.21,10.43,0.95,14.73C70.88,254.22,71.89,254.99,71.83,255.07z"/>
	<path style="fill:#FFFFFF;" d="M78.32,258.55c0,0.15-0.78,0.14-1.69,0s-1.64-0.39-1.61-0.54s0.78-0.13,1.69,0
		S78.32,258.41,78.32,258.55z"/>
	<path style="fill:#FFFFFF;" d="M46.02,158.84c-0.57,0.36-1.15,0.7-1.75,1c-1.58,0.91-3.09,1.95-4.51,3.1
		c-11.05,9.08-14.88,24.32-9.44,37.55c0.49,1.2,0.8,1.85,0.76,1.87c-0.11-0.14-0.2-0.29-0.27-0.45c-0.16-0.3-0.42-0.74-0.68-1.34
		c-0.77-1.68-1.38-3.43-1.82-5.22c-3.11-12.17,1.31-25.03,11.25-32.72c1.45-1.14,3-2.15,4.64-3c0.58-0.31,1.05-0.5,1.36-0.64
		C45.71,158.93,45.86,158.88,46.02,158.84z"/>
	<path style="fill:#FFFFFF;" d="M34.13,212.37c-0.6-0.85-1.06-1.79-1.36-2.79c-0.46-0.94-0.75-1.96-0.88-3
		c0.61,0.85,1.07,1.79,1.36,2.79C33.71,210.32,34.01,211.33,34.13,212.37z"/>
	<g style="opacity:0.3;">
		<path d="M108.95,153.28c-4.49,12.85-2.27,27.3,2.73,40C111.68,193.24,109.07,166.73,108.95,153.28z"/>
	</g>
	<g style="opacity:0.3;">
		<path d="M187.57,247.09c4.95-11.18,9.91-22.4,16.29-32.83s14-20.34,23.75-27.67c2.64-2,7.57-5.72,7.57-5.72s-1.32-2.5-2.62-4.57
			c-1.5-2.4-4-6.56-5.32-8.61l5.85,1.17c0,0-4-9.22-3.89-8.6c-2.61,0.68-5.26,1.22-7.93,1.63c2.05,4.9,4.23,9.33,6.28,14.23
			c-11,8.75-20,19.76-27.54,31.4s-12.76,25.15-12.49,39"/>
	</g>
	<path style="fill:#E0E0E0;" d="M208.48,71.6c0.13-0.11,0.44,0,0.79,0.39c0.47,0.6,0.71,1.36,0.68,2.12c0,0.55-0.12,1.1-0.34,1.6
		c-0.28,0.61-0.7,1.14-1.23,1.55c-1.93,1.52-4.73,1.2-6.25-0.73c-0.46-0.58-0.76-1.26-0.89-1.98c-0.24-1.21,0.1-2.47,0.91-3.4
		c0.49-0.59,1.16-0.99,1.91-1.13c0.53-0.07,0.82,0.06,0.86,0.23c0.08,0.36-0.78,0.82-1.25,1.94c-0.26,0.57-0.3,1.22-0.1,1.81
		c0.35,1.21,1.63,1.91,2.84,1.56c0.21-0.06,0.41-0.15,0.59-0.27c0.54-0.31,0.95-0.81,1.13-1.41
		C208.51,72.73,208.17,71.84,208.48,71.6z"/>
	<path style="fill:#B5715A;" d="M27.89,285.32c0,0,3.41,11,5.17,13.21c1.76,2.21,13.53,3.4,13.53,3.4L27.89,285.32z"/>
	<path style="fill:#B5715A;" d="M41.99,267.84l6.53,5.24l19.38,14.94c0,0-0.12,3.6-4.48,2.78c-3.54-0.67-11.39-5-11.39-5
		s9.22,8.66,9.54,12.71v0.74c-0.01,0.9-0.37,1.75-1,2.39l0,0l-10.77-7.19c0,0,2.31,4.06,4.58,8.27c0.69,1.72,0.41,3.68-0.74,5.14
		l0,0l-24-20.13l-0.15-15l12.45-4.9"/>
	<path style="fill:#884C3B;" d="M39.44,277.24c0.31,0.02,0.61,0.09,0.9,0.2c0.28,0.1,0.61,0.25,1,0.42s0.79,0.42,1.25,0.68
		c1.82,1.08,4.13,2.83,6.69,4.75c2.14,1.67,4.4,3.18,6.75,4.54c1.83,1,3.07,1.38,3,1.47c-0.31-0.02-0.61-0.09-0.89-0.2
		c-0.34-0.1-0.67-0.22-1-0.36c-0.44-0.17-0.88-0.36-1.3-0.58c-2.43-1.27-4.75-2.76-6.91-4.45c-2.56-1.93-4.82-3.72-6.57-4.86
		l-1.19-0.73l-0.94-0.49C39.95,277.54,39.69,277.4,39.44,277.24z"/>
	<path style="fill:#884C3B;" d="M37.24,284.55c0.74,0.35,1.44,0.78,2.08,1.29c1.23,0.85,2.89,2.09,4.66,3.53s3.32,2.81,4.41,3.84
		c0.62,0.52,1.18,1.1,1.67,1.75c-0.69-0.42-1.33-0.91-1.92-1.47l-4.49-3.72l-4.55-3.64C38.43,285.67,37.81,285.14,37.24,284.55z"/>
	<path style="fill:#B5715A;" d="M4.87,266.22c-0.17,0.19,0.08,0.55,0.24,0.89c2.61,5.45,25,20.93,25,20.93l12.21-20.81
		c0,0,8.87,4.29,12.51,3.3c3-0.82,8.64-1.43,6-6.69c0,0-12.51-2.3-16.76-4.13s-6.91-2.78-6.91-2.78c-4.85,0.12-9.7-0.36-14.44-1.43
		C22.72,255.5,15.24,254.45,4.87,266.22z"/>
	<path style="fill:#884C3B;" d="M53.07,307.37c-0.99-0.67-1.94-1.4-2.83-2.2c-1.84-1.49-4.16-3.38-6.74-5.46s-5-4.11-6.64-5.59
		c-0.83-0.73-1.49-1.34-1.94-1.77c-0.25-0.21-0.47-0.45-0.66-0.71c1,0.67,1.95,1.4,2.84,2.2l6.73,5.46c2.63,2.14,5,4.11,6.64,5.59
		c0.83,0.73,1.5,1.34,1.94,1.77S53.1,307.35,53.07,307.37z"/>
	<path style="fill:#E0E0E0;" d="M262.94,85.52l7.71,1.21l0.93-5.89l-3-0.47l0.42-2.68l-2.78-0.44l0.37-2.35l3.21,0.5l0.32-2
		l-5.14-0.81l0.12-0.77l-0.12,0.77l0,0l0.12-0.77c0.09-1.01-0.66-1.9-1.67-2c-1.01-0.07-1.88,0.67-2,1.67
		c-1.49,9.53-2.99,19.06-4.49,28.57l-1.2,7.62c-5.52,0.15-9.87,4.75-9.72,10.27c0.15,5.52,4.75,9.87,10.27,9.72
		s9.87-4.75,9.72-10.27c-0.11-4.13-2.76-7.77-6.66-9.15c1.16-7.33,2.32-14.67,3.47-22l0,0L262.94,85.52z M263.37,118.81
		c-0.64,4.05-4.45,6.82-8.5,6.18c-4.05-0.64-6.82-4.45-6.18-8.5c0.64-4.05,4.44-6.82,8.49-6.18l0,0
		C261.24,110.95,264.01,114.76,263.37,118.81c0,0.01,0,0.02,0,0.03V118.81z"/>
	<path style="fill:none;" d="M262.94,85.52l7.71,1.21l0.93-5.89l-3-0.47l0.42-2.68l-2.78-0.44l0.37-2.35l3.21,0.5l0.32-2l-5.14-0.81
		l0.12-0.77l-0.12,0.77l0,0l0.12-0.77c0.09-1.01-0.66-1.9-1.67-2c-1.01-0.07-1.88,0.67-2,1.67c-1.49,9.53-2.99,19.06-4.49,28.57
		l-1.2,7.62c-5.52,0.15-9.87,4.75-9.72,10.27c0.15,5.52,4.75,9.87,10.27,9.72s9.87-4.75,9.72-10.27c-0.11-4.13-2.76-7.77-6.66-9.15
		c1.16-7.33,2.32-14.67,3.47-22l0,0L262.94,85.52z M263.37,118.81c-0.64,4.05-4.45,6.82-8.5,6.18c-4.05-0.64-6.82-4.45-6.18-8.5
		c0.64-4.05,4.44-6.82,8.49-6.18l0,0C261.24,110.95,264.01,114.76,263.37,118.81c0,0.01,0,0.02,0,0.03V118.81z"/>
	<path style="fill:#263238;" d="M263.37,118.84c0.06-1.06-0.05-2.12-0.33-3.14c-0.34-1.16-0.97-2.21-1.83-3.06
		c-1.09-1.11-2.52-1.84-4.06-2.07l0.13-0.43l0,0l1.55,0.68l-1.68-0.25c-3.92-0.6-7.6,2.09-8.2,6.01c-0.23,1.51,0.02,3.05,0.72,4.4
		c0.64,1.27,1.65,2.32,2.9,3c2.14,1.2,4.73,1.23,6.9,0.09c1.45-0.77,2.61-2,3.3-3.5C263,120.01,263.2,119.44,263.37,118.84
		c0.02,0.17,0.02,0.32,0,0.48c-0.08,0.46-0.2,0.9-0.37,1.33c-0.64,1.59-1.81,2.91-3.31,3.74c-3.69,2.03-8.33,0.68-10.36-3.02
		c-0.03-0.05-0.05-0.1-0.08-0.15c-1.95-3.76-0.48-8.38,3.28-10.33c1.45-0.75,3.11-1.02,4.72-0.76l-0.13,0.43l0,0l-1.62-0.74
		l1.75,0.31c1.63,0.27,3.12,1.06,4.26,2.26c0.87,0.91,1.5,2.03,1.82,3.25c0.2,0.78,0.27,1.58,0.22,2.38
		C263.52,118.3,263.46,118.58,263.37,118.84z"/>
	<path style="fill:#263238;" d="M262.94,85.52c0,0,0,0.24-0.08,0.72h-0.07l0,0h0.07c-0.28,2.17-1.49,10.16-3.32,22l-0.11-0.2
		c5.2,1.95,7.83,7.74,5.88,12.94c-1.95,5.2-7.74,7.83-12.94,5.88c-5.2-1.95-7.83-7.74-5.88-12.94c1.31-3.49,4.45-5.97,8.15-6.44
		c0.37-0.06,0.74-0.07,1.1-0.1l-0.25,0.22c1.28-8.08,2.51-15.87,3.66-23.17c0.58-3.65,1.14-7.18,1.68-10.56
		c0.13-0.85,0.27-1.68,0.4-2.51c0.14-0.95,0.9-1.68,1.85-1.79c0.93-0.09,1.81,0.46,2.13,1.34c0.13,0.42,0.13,0.86,0,1.28v0.29v0.08
		l0,0l-0.43-0.06v-0.06V72.3l0.1-0.58l0.42,0.07l-0.12,0.77L265,72.32l5.14,0.82h0.2v0.2c-0.12,0.72-0.22,1.38-0.33,2v0.19h-0.19
		l-3.21-0.52l0.21-0.15c-0.14,0.85-0.26,1.61-0.38,2.35l-0.15-0.2l2.79,0.45h0.16v0.17c-0.16,1-0.3,1.84-0.44,2.67l-0.13-0.18
		l3,0.49h0.14v0.14c-0.37,2.24-0.71,4.2-1,5.89v0.11h-0.11l-5.69-1l-1.49-0.26l-0.51-0.1h0.48l1.47,0.21l5.78,0.84l-0.13,0.09
		c0.26-1.69,0.55-3.65,0.89-5.89l0.12,0.16l-3-0.45h-0.15V80.2l0.41-2.68l0.14,0.19l-2.78-0.43h-0.18v-0.17
		c0.11-0.75,0.23-1.51,0.36-2.36v-0.18h0.18l3.22,0.49l-0.23,0.16c0.11-0.65,0.21-1.31,0.32-2l0.17,0.23l-5.15-0.8h-0.21v-0.21
		l0.12-0.78l0.42,0.07l-0.09,0.58v0.14v0.06c-0.86-0.14-0.23,0-0.43-0.08l0,0v-0.07v-0.29c0.11-0.35,0.11-0.71,0-1.06
		c-0.25-0.69-0.94-1.12-1.67-1.05c-0.75,0.08-1.35,0.67-1.45,1.42l-0.39,2.5l-1.65,10.57c-1.14,7.3-2.37,15.09-3.63,23.17v0.2h-0.22
		c-0.34,0-0.7,0-1.05,0.09c-5.33,0.73-9.06,5.64-8.33,10.97c0.4,2.88,2.06,5.44,4.54,6.97c2.11,1.31,4.65,1.76,7.08,1.26
		c5.3-1.12,8.69-6.31,7.57-11.61c-0.7-3.32-3.07-6.05-6.27-7.2l-0.14-0.05v-0.15c1.9-11.84,3.21-19.82,3.6-22l0,0
		C262.89,85.71,262.94,85.52,262.94,85.52z"/>
	<path style="fill:#B5715A;" d="M245.96,114.5l12.36-3.25l6.42,0.82c1.19,0.16,2.21,0.91,2.71,2l4.16,9.06c0,0,6,5,5.31,8
		s-6.26,29.92-6.26,29.92l-16.57-0.5c-2.9-3.59-4.64-7.98-5-12.58c-0.18-3.78,1.26-6.09,0.9-8.09c-0.24-1.37,0.61-3.81,1-5.69
		l0.5-1.82l-1.1,0.53c-1.66,0.81-3.67,0.12-4.48-1.54c-0.15-0.31-0.25-0.63-0.3-0.97c0-0.1,0-0.19,0-0.29l0,0
		c-0.11-2.15,0.71-4.25,2.25-5.76l6.25-6.14C254.11,118.2,247.2,122.14,245.96,114.5z"/>
	<path style="fill:#884C3B;" d="M266.99,129.53c-0.39,0.01-0.77-0.04-1.15-0.13l-3.07-0.55l-4.55-0.88
		c-0.85-0.16-1.75-0.39-2.66-0.47c-0.9-0.15-1.82,0.15-2.47,0.79c-0.54,0.76-0.88,1.64-1,2.56c-0.2,0.93-0.39,1.82-0.57,2.68
		c-0.39,1.48-0.66,2.98-0.81,4.5c-0.05,1.01,0.39,1.99,1.19,2.61c0.31,0.2,0.64,0.34,1,0.43c-0.1,0.03-0.2,0.03-0.3,0
		c-0.3-0.02-0.58-0.12-0.83-0.28c-0.92-0.61-1.47-1.65-1.45-2.75c0.09-1.55,0.32-3.1,0.7-4.61c0.17-0.86,0.35-1.76,0.54-2.68
		c0.14-1.02,0.54-1.99,1.16-2.81c0.76-0.76,1.84-1.11,2.9-0.94c0.92,0.12,1.82,0.28,2.72,0.5l4.52,1l3,0.71
		C266.25,129.27,266.63,129.38,266.99,129.53z"/>
	<path style="fill:#884C3B;" d="M260.55,143.21c0,0,0,0.51-0.63,1c-0.4,0.27-0.88,0.41-1.37,0.39c-0.62-0.03-1.23-0.15-1.81-0.35
		c-1.59-0.4-2.99-1.35-3.95-2.68c-0.97-1.8-1-3.96-0.08-5.79c0.39-0.95,0.91-1.84,1.54-2.65c0.33-0.4,0.76-0.71,1.25-0.89
		c0.47-0.15,0.97-0.18,1.46-0.1c1.56,0.32,3.08,0.81,4.54,1.45c0.98,0.42,1.93,0.9,2.85,1.44c0.37,0.17,0.7,0.4,1,0.67
		c0,0.08-1.46-0.8-3.95-1.77c-1.44-0.58-2.94-1.02-4.46-1.32c-0.42-0.06-0.84-0.03-1.24,0.1c-0.39,0.16-0.74,0.43-1,0.76
		c-0.59,0.77-1.08,1.61-1.44,2.51c-0.86,1.67-0.86,3.66,0,5.33c0.89,1.25,2.17,2.17,3.65,2.59c0.55,0.21,1.13,0.35,1.71,0.41
		c0.43,0.04,0.87-0.06,1.25-0.27C260.17,143.83,260.41,143.55,260.55,143.21z"/>
	<path style="fill:#884C3B;" d="M260.39,141.41c0,0.06-0.29,0.23-0.85,0.29c-1.49,0.15-2.93-0.59-3.67-1.9
		c-0.27-0.48-0.31-0.83-0.25-0.85s0.67,1.18,2.05,1.88C258.54,141.18,259.46,141.38,260.39,141.41z"/>
	<path style="fill:#884C3B;" d="M261.59,144.76c-0.08,0.11-0.86-0.35-1.42-1.28s-0.63-1.84-0.49-1.85s0.42,0.74,0.93,1.58
		S261.69,144.64,261.59,144.76z"/>
	<path style="fill:#884C3B;" d="M261.26,153.93c-1.4-2.86-1.29-6.23,0.29-9c-0.35,1.47-0.6,2.96-0.74,4.47
		C260.85,150.92,261,152.43,261.26,153.93z"/>
	<path style="fill:#884C3B;" d="M260.95,145.74c-2.93,1.16-5.27,3.45-6.5,6.35c-0.01-0.48,0.1-0.95,0.32-1.38
		c0.45-1.06,1.1-2.02,1.92-2.83c0.82-0.8,1.8-1.43,2.87-1.85C259.99,145.82,260.47,145.72,260.95,145.74z"/>
	<path style="fill:#884C3B;" d="M255.87,125.15c0.15,0,0.23,0.51,0.06,1.09s-0.5,1-0.63,0.9s0-0.52,0.13-1
		S255.73,125.14,255.87,125.15z"/>
	<path style="fill:#884C3B;" d="M270.57,125.33c-0.86-0.36-1.69-0.8-2.47-1.32c-1.5-0.86-3.54-2.09-5.77-3.48
		c-1.02-0.66-2.11-1.23-3.24-1.69c-0.92-0.36-1.9-0.53-2.88-0.5c-0.91,0.06-1.8,0.31-2.61,0.72c0,0,0.16-0.23,0.59-0.48
		c0.61-0.35,1.3-0.56,2-0.61c1.04-0.08,2.08,0.06,3.06,0.42c1.17,0.44,2.3,1.01,3.35,1.7c2.24,1.38,4.25,2.66,5.69,3.61
		C269.1,124.18,269.86,124.72,270.57,125.33z"/>
	<path style="fill:#263238;" d="M262.93,85.84c0.08-2.27,0.32-4.53,0.74-6.76c0.24-2.26,0.66-4.49,1.26-6.68
		c-0.08,2.27-0.32,4.53-0.74,6.76C263.94,81.42,263.52,83.65,262.93,85.84z"/>
	<g style="opacity:0.3;">
		<path d="M264.93,72.74c1.06,4.24,0.37,8.72-1.93,12.44C263.72,81.53,264.44,76.59,264.93,72.74"/>
	</g>
</g>
</svg>
