<?xml version="1.0" encoding="UTF-8"?>
<svg id="Layer_1" data-name="Layer 1" xmlns="http://www.w3.org/2000/svg" viewBox="0 0 439.9 428.51">
  <g id="freepik--background-complete--inject-34">
    <path d="m192,.23h102.61v54.23h-75.48c-2.23,3.43-6.94,11.23-6.94,11.23l-5.43-11.23h-14.76V.23Z" fill="#fafafa"/>
    <path d="m192,.23v14.66c0,9.38.06,22.91.1,39.59l-.19-.2h14.89l.06.12c1.71,3.52,3.55,7.32,5.44,11.23h-.39l6.94-11.24.06-.11h75.61l-.26.26V.31l.24.24-73.85-.1-21.15-.08h-7.11,7.05l21.17-.08,74-.29h.24v54.73h-75.74l.2-.1-7,11.21-.21.35-.18-.36-5.42-11.24.19.12h-14.96v-.19c0-16.73.08-30.3.11-39.71V1.23c0-.64.16-1,.16-1Z" fill="#e0e0e0"/>
    <path d="m216.28,26.92c1.78-.75,2.93-2.49,2.93-4.42.27-2.48-1.53-4.71-4.01-4.97-2.48-.27-4.71,1.53-4.97,4.01-.03.28-.03.56-.01.84-.05,1.94,1.07,3.72,2.84,4.52-6.95,1-6.7,8.52-6.7,8.52l16.4.22s.39-7.64-6.47-8.72Z" fill="#e0e0e0"/>
    <path d="m280.59,19.27c0,.1-10.46.18-23.36.18s-23.35-.08-23.35-.18,10.45-.19,23.35-.19,23.36.08,23.36.19Z" fill="#e0e0e0"/>
    <path d="m280.59,24.86c0,.1-10.46.18-23.36.18s-23.35-.08-23.35-.18,10.45-.19,23.35-.19,23.36.08,23.36.19Z" fill="#e0e0e0"/>
    <path d="m280.59,30.45c0,.1-10.46.19-23.36.19s-23.35-.09-23.35-.19,10.45-.19,23.35-.19,23.36.08,23.36.19Z" fill="#e0e0e0"/>
    <path d="m261.81,37.52c0,.11-6.25.19-14,.19s-14-.08-14-.19,6.25-.2,14-.2,14,.09,14,.2Z" fill="#e0e0e0"/>
    <path d="m234.08,348.15l5.13,4.85c.32.31.78.44,1.22.34l6.91-1.5c.73-.16,1.45.3,1.61,1.03.07.29.03.6-.1.87l-3,6.4c-.19.4-.17.87.05,1.26l3.57,6.11c.36.65.13,1.47-.52,1.84-.25.14-.54.2-.82.16l-7-.89c-.44-.05-.88.12-1.18.45l-4.74,5.28c-.49.56-1.35.61-1.91.12-.23-.2-.38-.47-.43-.77l-1.32-6.94c-.08-.44-.38-.82-.79-1l-6.47-2.85c-.68-.3-1-1.09-.7-1.78.12-.27.33-.5.59-.64l6.2-3.41c.38-.21.64-.58.7-1l.71-7c.02-.75.64-1.33,1.39-1.31.34,0,.66.15.9.38Z" fill="#ebebeb"/>
    <path d="m371,25.88l6.38,7.65c.4.49,1.01.74,1.64.68l9.92-.92c1.05-.1,1.98.68,2.08,1.73.04.42-.06.84-.29,1.19l-5.3,8.43c-.34.53-.39,1.19-.14,1.77l3.92,9.15c.42.97-.03,2.09-1,2.51-.39.17-.82.2-1.22.1l-9.66-2.44c-.61-.16-1.26,0-1.73.41l-7.49,6.58c-.8.69-2,.61-2.69-.19-.27-.31-.44-.71-.47-1.12l-.66-9.94c-.04-.63-.39-1.19-.93-1.51l-8.57-5.09c-.9-.54-1.2-1.72-.66-2.62.21-.36.54-.63.93-.79l9.25-3.71c.58-.23,1.01-.74,1.15-1.35l2.19-9.72c.22-1.03,1.24-1.69,2.27-1.46.42.09.81.33,1.08.66Z" fill="#ebebeb"/>
    <path d="m431.65,251.61l.85,3.2c.05.2.2.37.4.44l3.12,1.12c.33.12.5.48.38.8-.05.14-.14.25-.26.33l-2.78,1.79c-.18.11-.29.31-.29.52l-.11,3.31c-.03.35-.34.61-.69.58-.11,0-.21-.05-.31-.11l-2.56-2.1c-.16-.13-.38-.17-.58-.11l-3.18.92c-.33.1-.69-.08-.79-.41-.04-.14-.04-.29.02-.43l1.2-3.09c.08-.19.05-.41-.07-.58l-1.9-2.79c-.21-.28-.14-.67.14-.88.12-.09.27-.13.42-.12l3.31.19c.21.01.41-.08.54-.24l2-2.62c.2-.28.59-.35.88-.15.14.1.24.26.26.43Z" fill="#ebebeb"/>
    <path d="m429.06,184.7l-.83,9.93c-.05.62.21,1.23.69,1.63l7.71,6.31c.82.67.94,1.87.27,2.69-.27.33-.63.56-1.04.65l-9.7,2.28c-.61.14-1.11.58-1.34,1.16l-3.61,9.28c-.38.98-1.49,1.47-2.47,1.08-.39-.15-.72-.43-.94-.78l-5.17-8.52c-.32-.54-.89-.88-1.52-.92l-9.94-.57c-1.05-.06-1.86-.96-1.8-2.02.02-.42.18-.82.46-1.13l6.51-7.55c.41-.48.56-1.12.4-1.73l-2.53-9.63c-.27-1.02.34-2.06,1.36-2.33.4-.11.83-.08,1.22.08l9.19,3.86c.58.24,1.24.18,1.77-.16l8.38-5.38c.89-.57,2.07-.31,2.64.58.22.35.33.77.29,1.19Z" fill="#f5f5f5"/>
    <path d="m32.44,179.13l5.64,5.6c.35.36.86.51,1.35.42l7.78-1.47c.82-.16,1.62.38,1.78,1.21.06.33.01.67-.14.97l-3.55,7.14c-.23.44-.23.98,0,1.42l3.81,7c.41.73.14,1.66-.59,2.07-.29.16-.64.22-.97.17l-7.86-1.22c-.49-.07-.99.1-1.34.46l-5.45,5.78c-.57.61-1.54.64-2.15.07-.25-.23-.41-.54-.46-.87l-1.25-7.88c-.08-.5-.4-.92-.85-1.14l-7.18-3.4c-.75-.37-1.07-1.28-.7-2.03.15-.3.39-.55.7-.7l7.07-3.63c.44-.23.75-.66.81-1.16l1-7.88c.1-.83.85-1.43,1.69-1.33.32.04.63.18.86.4Z" fill="#ebebeb"/>
    <rect x="114.74" y="65.4" width="34.76" height="12.93" transform="translate(6.2 154.1) rotate(-61.69)" fill="#e0e0e0"/>
    <rect x="117.82" y="67.06" width="34.76" height="12.93" transform="translate(6.35 157.68) rotate(-61.69)" fill="#ebebeb"/>
    <path d="m137.21,64.4c-.77,1.42-.24,3.19,1.18,3.96,1.42.77,3.19.24,3.96-1.18.77-1.42.24-3.19-1.18-3.96,0,0,0,0,0,0-1.41-.77-3.18-.24-3.95,1.17,0,0,0,0,0,0Z" fill="#fff"/>
    <path d="m132.21,58.11c.38.96.58,1.97.61,3,.2,1.01.23,2.04.08,3.06-.36-.96-.57-1.97-.6-3-.2-1.01-.23-2.04-.09-3.06Z" fill="#ebebeb"/>
    <path d="m130.38,61.49c.36.96.57,1.97.6,3,.2,1.01.23,2.04.09,3.06-.36-.96-.57-1.97-.6-3-.2-1.01-.23-2.04-.09-3.06Z" fill="#ebebeb"/>
    <path d="m128.56,64.88c.36.96.57,1.97.6,3,.2,1.01.23,2.04.09,3.06-.38-.96-.58-1.97-.61-3-.2-1.01-.23-2.04-.08-3.06Z" fill="#ebebeb"/>
    <path d="m126.73,68.26c.37.96.58,1.97.61,3,.2,1.01.23,2.04.08,3.06-.36-.96-.57-1.97-.6-3-.2-1.01-.23-2.04-.09-3.06Z" fill="#ebebeb"/>
    <path d="m124.91,71.65c.36.96.57,1.97.6,3,.2,1.01.23,2.04.09,3.06-.37-.96-.57-1.97-.6-3-.2-1.01-.23-2.04-.09-3.06Z" fill="#ebebeb"/>
    <path d="m123.09,75c.37.96.57,1.97.6,3,.2,1.01.23,2.04.09,3.06-.38-.96-.58-1.97-.61-3-.2-1.01-.23-2.04-.08-3.06Z" fill="#ebebeb"/>
    <path d="m121.26,78.42c.38.96.58,1.97.61,3,.2,1.01.23,2.05.08,3.07-.36-.96-.57-1.97-.6-3-.2-1.01-.23-2.05-.09-3.07Z" fill="#ebebeb"/>
    <path d="m133.84,55.14c.38.96.58,1.97.61,3,.2,1.01.23,2.04.08,3.06-.37-.96-.57-1.97-.6-3-.2-1.01-.23-2.04-.09-3.06Z" fill="#ebebeb"/>
    <path d="m135.88,54.15c.14,0,.35.77.46,1.76s.09,1.81-.06,1.83-.35-.78-.46-1.77-.09-1.81.06-1.82Z" fill="#ebebeb"/>
    <path d="m113.72,78.6l14-27.38s-5.39-4.41-6.35-15.48c-.63-7.33,3.77-12.36,4.37-15.11.36-1.68-3.22-3.23-4.82-3.87-2.13-.92-4.59-.68-6.49.65-4.13,3.18-6.94,14.59-6.94,14.59,0,0,0,2.63-2.83,1.1l-10.15-5.51c-1.31-.72-2.84-.95-4.31-.65-1.53.29-2.82,1.34-3.41,2.79-1.78,4-.68,6.85-1.12,7.66s-2.32,1.61-2.76,4.41.17,2.85-.44,4c-1.04,1.94-1.77,4.03-2.15,6.2-.15,1.12-.1,2.27.16,3.37,0,0-2.43,3.49-2.41,6.17,0,3.53,5.76,8.94,9.21,9.16,1.61.11,8.43,1.92,11.66,2.74s12.75,2.36,14.78,5.16Z" fill="#e0e0e0"/>
    <path d="m117.21,80.86l14.73-27.35s-5.41-4.41-6.36-15.51c-.52-5.11-.28-10.27.72-15.31.35-1.66-.53-3.34-2.1-4-1.89-.88-4.12-.58-5.72.76-4.08,3.18-6.74,14.82-6.74,14.82,0,0,0,2.63-2.82,1.1l-10.16-5.47c-1.31-.72-2.84-.96-4.3-.65-1.53.29-2.81,1.32-3.42,2.75-1.78,4-.67,6.85-1.11,7.66s-2.33,1.64-2.77,4.41.17,2.85-.43,4c-1.04,1.93-1.77,4.02-2.15,6.18-.15,1.12-.1,2.26.15,3.37,0,0-2.27,3.49-2.41,6.18s3.54,6.1,5,6.86,12.69,4.21,15.92,5,11.97,2.4,13.97,5.2Z" fill="#ebebeb"/>
    <path d="m109.48,26c.56,1.22.99,2.49,1.3,3.8.46,1.26.8,2.56,1,3.89-.69-1.16-1.2-2.42-1.51-3.74-.47-1.27-.73-2.6-.79-3.95Z" fill="#ebebeb"/>
    <path d="m110.9,22c.53,1.11.97,2.25,1.31,3.43.53,1.11.89,2.29,1.07,3.5-.67-1.03-1.19-2.15-1.56-3.32-.52-1.13-.8-2.36-.82-3.61Z" fill="#ebebeb"/>
    <path d="m112.96,18.89c.46.87.86,1.77,1.2,2.7.53.86.85,1.83.94,2.84-.57-.82-1.04-1.7-1.41-2.62-.51-.89-.76-1.9-.73-2.92Z" fill="#ebebeb"/>
    <path d="m115.56,16.74c.13-.05.59.82,1,1.94.34.66.53,1.39.55,2.13-.14.06-.6-.81-1-1.94s-.69-2.08-.55-2.13Z" fill="#ebebeb"/>
    <path d="m118.49,16.23c.13-.08.5.38.84,1s.51,1.19.38,1.26-.5-.39-.84-1-.5-1.19-.38-1.26Z" fill="#ebebeb"/>
    <path d="m107.68,31.24c.13-.06.61.87,1.07,2.06.36.7.56,1.47.59,2.25-.5-.6-.87-1.3-1.07-2.06-.36-.7-.56-1.47-.59-2.25Z" fill="#ebebeb"/>
    <path d="m86.02,31.87c.88,1.14,1.61,2.38,2.19,3.69.74,1.23,1.32,2.55,1.73,3.92-.88-1.13-1.62-2.37-2.19-3.69-.74-1.23-1.32-2.55-1.73-3.92Z" fill="#ebebeb"/>
    <path d="m88.67,27.32c.61.61,1.08,1.35,1.4,2.15.46.73.78,1.54.94,2.39-.13.07-.76-.89-1.4-2.15-.47-.73-.79-1.54-.94-2.39Z" fill="#ebebeb"/>
    <path d="m84,39.34c.77.75,1.38,1.64,1.8,2.62.56.92.94,1.94,1.1,3-.63-.85-1.15-1.77-1.56-2.75-.57-.9-1.02-1.86-1.34-2.87Z" fill="#ebebeb"/>
    <path d="m82.64,45.41c.67.82,1.2,1.74,1.57,2.73.53.93.89,1.95,1.08,3-.66-.82-1.19-1.75-1.55-2.74-.53-.93-.9-1.94-1.1-2.99Z" fill="#ebebeb"/>
    <path d="m80.47,52.28c.69,1.02,1.27,2.1,1.74,3.23.61,1.05,1.12,2.17,1.51,3.32-.85-.9-1.53-1.95-2-3.09-.63-1.07-1.05-2.24-1.25-3.46Z" fill="#ebebeb"/>
    <path d="m78.95,58.23c.77,1.2,1.44,2.46,2,3.77.69,1.24,1.29,2.53,1.77,3.87-.94-1.08-1.7-2.31-2.24-3.64-.72-1.24-1.24-2.59-1.53-4Z" fill="#ebebeb"/>
    <rect x="35.67" y="94.85" width="24.16" height="8.99" transform="translate(-62.43 102.39) rotate(-65.91)" fill="#e0e0e0"/>
    <rect x="33.45" y="93.86" width="24.16" height="8.99" transform="translate(-62.84 99.78) rotate(-65.91)" fill="#ebebeb"/>
    <path d="m44.63,104.78c.45-1.01,0-2.19-1.02-2.64s-2.19,0-2.64,1.02c-.44.99,0,2.16.98,2.62,1,.47,2.19.04,2.66-.96,0-.01.01-.03.02-.04Z" fill="#fff"/>
    <path d="m48.39,108.89c-.29-.63-.48-1.31-.57-2-.19-.69-.26-1.41-.21-2.12.3.65.49,1.34.57,2.05.18.67.25,1.37.21,2.07Z" fill="#ebebeb"/>
    <path d="m49.48,106.45c-.29-.63-.48-1.31-.57-2-.19-.69-.26-1.41-.21-2.12.3.65.5,1.34.57,2.05.19.67.26,1.37.21,2.07Z" fill="#ebebeb"/>
    <path d="m50.58,104c-.51-1.33-.77-2.74-.79-4.17.3.63.49,1.31.57,2,.19.71.27,1.44.22,2.17Z" fill="#ebebeb"/>
    <path d="m51.67,101.57c-.49-1.34-.76-2.75-.79-4.17.3.63.49,1.31.57,2,.2.71.27,1.44.22,2.17Z" fill="#ebebeb"/>
    <path d="m52.76,99.12c-.31-.64-.5-1.34-.57-2.05-.19-.69-.27-1.41-.22-2.12.3.65.49,1.35.57,2.06.19.69.27,1.4.22,2.11Z" fill="#ebebeb"/>
    <path d="m53.85,96.68c-.3-.65-.5-1.34-.57-2.05-.19-.69-.27-1.41-.22-2.12.49,1.34.76,2.75.79,4.17Z" fill="#ebebeb"/>
    <path d="m54.94,94.24c-.3-.65-.5-1.34-.57-2.05-.19-.69-.27-1.41-.22-2.12.49,1.34.76,2.75.79,4.17Z" fill="#ebebeb"/>
    <path d="m47.41,111c-.31-.64-.5-1.34-.57-2.05-.19-.69-.27-1.41-.22-2.12.3.63.49,1.31.57,2,.2.71.27,1.44.22,2.17Z" fill="#ebebeb"/>
    <path d="m46.05,111.82c-.1,0-.28-.52-.41-1.2-.13-.41-.15-.85-.06-1.27.1,0,.29.52.42,1.2s.15,1.25.05,1.27Z" fill="#ebebeb"/>
    <path d="m60.21,93.74l-8.27,19.69s4,2.78,5.19,10.41c.82,5-2,8.76-2.25,10.7-.17,1.18,2.39,2.07,3.53,2.43,1.52.53,3.21.24,4.47-.77,2.67-2.42,4-10.45,4-10.45,0,0-.15-1.82,1.9-.9l7.32,3.27c.94.43,2,.51,3,.23,1.05-.29,1.88-1.08,2.22-2.11,1-2.88.12-4.78.38-5.37s1.53-1.25,1.7-3.2-.27-2,.09-2.77c.63-1.39,1.02-2.88,1.18-4.4.04-.78-.05-1.57-.28-2.32,0,0,1.51-2.55,1.35-4.41-.2-2.44-4.45-5.9-6.85-5.88-1.12,0-5.94-.9-8.23-1.3s-8.95-1.02-10.45-2.85Z" fill="#e0e0e0"/>
    <path d="m57.64,92.34l-8.82,19.72s4,2.78,5.2,10.41c.62,3.52.71,7.11.28,10.65-.18,1.18.52,2.32,1.66,2.7,1.36.52,2.89.2,3.93-.82,2.66-2.41,3.91-10.62,3.91-10.62,0,0-.15-1.82,1.9-.91l7.32,3.28c.94.43,2,.51,3,.23,1.05-.28,1.89-1.08,2.23-2.11,1-2.88.12-4.78.38-5.37s1.53-1.25,1.69-3.2-.26-2,.1-2.77c.62-1.39,1.02-2.88,1.17-4.4.05-.78-.04-1.57-.28-2.32.76-1.36,1.22-2.86,1.36-4.41,0-1.87-2.76-4.05-3.79-4.51s-9-2.27-11.29-2.67-8.38-1.04-9.95-2.88Z" fill="#ebebeb"/>
    <path d="m65.79,130c-.45-.82-.81-1.69-1.09-2.58-.39-.85-.7-1.73-.9-2.64.53.77.95,1.62,1.24,2.51.39.86.64,1.77.75,2.71Z" fill="#ebebeb"/>
    <path d="m65.01,132.81c-.43-.73-.8-1.5-1.11-2.29-.42-.74-.73-1.54-.92-2.37.51.68.92,1.43,1.23,2.22.43.75.7,1.58.8,2.44Z" fill="#ebebeb"/>
    <path d="m63.74,135.1c-.37-.58-.7-1.19-1-1.81-.41-.57-.68-1.23-.8-1.93.44.54.81,1.13,1.12,1.75.41.59.65,1.28.68,1.99Z" fill="#ebebeb"/>
    <path d="m62.05,136.72c-.09,0-.46-.54-.82-1.3-.27-.44-.43-.94-.48-1.45.09,0,.45.54.81,1.3.27.44.44.94.49,1.45Z" fill="#ebebeb"/>
    <path d="m60.04,137.22c-.08.06-.37-.23-.63-.65s-.42-.81-.33-.86.37.25.63.66.41.8.33.85Z" fill="#ebebeb"/>
    <path d="m66.77,126.26c-.09.05-.47-.57-.85-1.37-.28-.47-.46-.99-.52-1.53.09,0,.47.57.85,1.37.28.47.46.99.52,1.53Z" fill="#ebebeb"/>
    <path d="m81.76,124.72c-1.24-1.56-2.28-3.27-3.11-5.08,1.24,1.56,2.28,3.27,3.11,5.08Z" fill="#ebebeb"/>
    <path d="m80.15,128c-.09.05-.57-.59-1.08-1.42-.36-.48-.62-1.03-.77-1.61.08-.06.57.58,1.08,1.42.36.48.62,1.03.77,1.61Z" fill="#ebebeb"/>
    <path d="m82.78,119.43c-1.08-1.03-1.87-2.32-2.3-3.74.48.56.89,1.17,1.22,1.83.43.59.79,1.23,1.08,1.91Z" fill="#ebebeb"/>
    <path d="m83.41,115.16c-.5-.54-.91-1.15-1.22-1.82-.4-.62-.71-1.29-.9-2,.51.53.92,1.15,1.22,1.82.41.61.71,1.29.9,2Z" fill="#ebebeb"/>
    <path d="m84.56,110.28c-.52-.67-.96-1.39-1.34-2.15-.48-.7-.88-1.45-1.21-2.23.62.57,1.13,1.25,1.52,2,.49.72.84,1.53,1.03,2.38Z" fill="#ebebeb"/>
    <path d="m85.31,106.08c-.58-.79-1.1-1.63-1.55-2.51-.55-.82-1.02-1.69-1.42-2.6.7.71,1.29,1.52,1.73,2.41.56.83.98,1.74,1.24,2.7Z" fill="#ebebeb"/>
  </g>
  <g id="freepik--Stars--inject-34">
    <path d="m140.65,123.59l3.22,4.69c.2.29.53.47.89.47h5.68c.6,0,1.09.5,1.08,1.1,0,.24-.08.46-.22.65l-3.46,4.5c-.22.28-.29.66-.17,1l1.74,5.4c.18.57-.13,1.19-.71,1.37-.23.07-.47.07-.69-.01l-5.35-1.9c-.34-.12-.71-.07-1,.14l-4.6,3.33c-.49.35-1.17.25-1.52-.24-.14-.19-.21-.43-.21-.67l.16-5.67c0-.36-.16-.7-.45-.91l-4.59-3.35c-.48-.36-.58-1.04-.23-1.52.14-.19.34-.33.57-.4l5.42-1.57c.35-.1.62-.36.73-.7l1.76-5.4c.17-.58.77-.91,1.35-.75.25.07.46.22.6.44Z" fill="#ff7200"/>
    <path d="m391.9,237.91l4,2.08c.25.13.55.13.8,0l4-2.13c.43-.22.95-.06,1.17.37.09.17.12.35.09.54l-.74,4.46c-.04.28.05.57.26.77l3.26,3.14c.35.33.36.88.03,1.23-.13.14-.31.23-.5.26l-4.48.67c-.28.04-.53.22-.65.48l-2,4.07c-.21.43-.72.61-1.15.4-.18-.08-.32-.23-.4-.4l-2-4.05c-.13-.25-.38-.43-.66-.47l-4.48-.63c-.47-.06-.8-.49-.74-.96.02-.19.11-.37.25-.51l3.23-3.18c.2-.2.29-.49.24-.77l-.79-4.46c-.09-.47.22-.92.69-1,.2-.04.4,0,.57.09Z" fill="#ff7200"/>
    <path d="m167.48,104.45l.85,2.59c.06.16.19.28.35.33l2.61.77c.28.08.43.37.35.64-.03.11-.1.21-.19.28l-2.19,1.6c-.14.1-.22.27-.22.44l.08,2.72c.01.28-.2.52-.48.53-.12,0-.24-.03-.34-.1l-2.21-1.59c-.14-.1-.32-.12-.48-.07l-2.56.92c-.27.1-.57-.04-.66-.31-.04-.11-.04-.23,0-.34l.83-2.59c.05-.16.02-.34-.08-.48l-1.66-2.15c-.18-.23-.14-.55.09-.73.09-.07.2-.11.32-.11h2.72c.17,0,.33-.08.42-.22l1.54-2.25c.16-.24.49-.3.72-.14.09.06.16.15.2.26Z" fill="#ff7200"/>
    <path d="m242.29,89.43l34.14,69.18c2.16,4.36,6.32,7.38,11.13,8.08l76.34,11.09c8.08,1.17,13.68,8.67,12.51,16.75-.47,3.22-1.99,6.2-4.32,8.47l-55.24,53.84c-3.48,3.4-5.07,8.29-4.25,13.08l22.06,80.74c.58,10.48-15.87,17.61-30.46,10.87l-68.28-35.89c-4.3-2.27-9.45-2.27-13.75,0l-68.28,35.89c-7.23,3.8-16.16,1.01-19.96-6.21-1.51-2.87-2.03-6.17-1.48-9.37l13-76c.83-4.8-.75-9.71-4.24-13.12l-55.21-53.83c-5.85-5.69-5.97-15.05-.28-20.9,2.28-2.34,5.26-3.86,8.49-4.32l76.34-11.09c4.81-.7,8.97-3.72,11.12-8.08l33.19-67.24c4.13-8.37,9.15-11.67,25-11.67,5.21,0-.28,4.24,2.43,9.73Z" fill="#ff7200"/>
    <path d="m242.29,89.43l34.14,69.18c2.16,4.36,6.32,7.38,11.13,8.08l76.34,11.09c8.08,1.17,13.68,8.67,12.51,16.75-.47,3.22-1.99,6.2-4.32,8.47l-55.24,53.84c-3.48,3.4-5.07,8.29-4.25,13.08l22.06,80.74c.58,10.48-15.87,17.61-30.46,10.87l-68.28-35.89c-4.3-2.27-9.45-2.27-13.75,0l-68.28,35.89c-7.23,3.8-16.16,1.01-19.96-6.21-1.51-2.87-2.03-6.17-1.48-9.37l13-76c.83-4.8-.75-9.71-4.24-13.12l-55.21-53.83c-5.85-5.69-5.97-15.05-.28-20.9,2.28-2.34,5.26-3.86,8.49-4.32l76.34-11.09c4.81-.7,8.97-3.72,11.12-8.08l33.19-67.24c4.13-8.37,9.15-11.67,25-11.67,5.21,0-.28,4.24,2.43,9.73Z" isolation="isolate" opacity=".3"/>
    <path d="m149.98,255.65c-1.62.43-3.27.71-4.94.81-1.65.27-3.33.37-5,.3,1.61-.44,3.27-.71,4.94-.82,1.65-.27,3.33-.37,5-.29Z" fill="#ff7200"/>
    <path d="m151.53,262.11c-.85.36-1.77.55-2.69.57-.9.18-1.84.18-2.74,0,.86-.35,1.77-.54,2.69-.56.9-.17,1.83-.18,2.74-.01Z" fill="#ff7200"/>
    <path d="m145.21,250.08c-1.78.46-3.59.75-5.42.87-1.81.29-3.65.41-5.48.36,1.77-.47,3.59-.76,5.42-.87,1.81-.29,3.65-.41,5.48-.36Z" fill="#ff7200"/>
    <path d="m139.85,244.75c-1.77.47-3.59.76-5.42.87-1.81.29-3.65.41-5.48.36,1.77-.47,3.59-.76,5.42-.87,1.81-.29,3.65-.41,5.48-.36Z" fill="#ff7200"/>
    <path d="m134.5,239.42c-1.77.47-3.59.76-5.42.87-1.81.29-3.65.41-5.48.36,1.78-.46,3.59-.75,5.42-.87,1.81-.29,3.65-.41,5.48-.36Z" fill="#ff7200"/>
    <path d="m129.15,234.09c-1.77.47-3.59.76-5.42.88-1.81.28-3.65.4-5.48.35,1.78-.46,3.59-.75,5.42-.87,1.81-.29,3.65-.41,5.48-.36Z" fill="#ff7200"/>
    <path d="m123.8,228.76c-1.77.47-3.59.76-5.42.88-1.81.28-3.65.4-5.48.35,1.78-.46,3.59-.75,5.42-.87,1.81-.29,3.65-.41,5.48-.36Z" fill="#ff7200"/>
    <path d="m118.45,223.44c-1.78.46-3.59.75-5.42.87-1.81.29-3.65.41-5.48.35,1.78-.46,3.59-.75,5.42-.87,1.81-.3,3.65-.41,5.48-.35Z" fill="#ff7200"/>
    <path d="m113.1,218.11c-1.78.46-3.59.75-5.42.87-1.81.29-3.65.41-5.48.35,1.78-.46,3.59-.75,5.42-.87,1.81-.3,3.65-.41,5.48-.35Z" fill="#ff7200"/>
    <path d="m107.75,212.78c-1.78.46-3.59.75-5.42.87-1.81.3-3.65.41-5.48.35,1.78-.46,3.59-.75,5.42-.87,1.81-.3,3.65-.41,5.48-.35Z" fill="#ff7200"/>
    <path d="m92.03,189.61c-1.67.34-3.37.5-5.07.48-1.69.16-3.4.15-5.09-.05,1.67-.32,3.37-.48,5.07-.47,1.69-.16,3.4-.14,5.09.04Z" fill="#ff7200"/>
    <path d="m93.68,183.93c-1.58.23-3.19.27-4.78.14-1.6.04-3.19-.09-4.76-.38,1.58-.23,3.19-.27,4.78-.14,1.6-.04,3.19.09,4.76.38Z" fill="#ff7200"/>
    <path d="m98.88,178.57c-1.24.29-2.52.41-3.79.34-1.27.11-2.54.05-3.79-.19,1.24-.28,2.51-.39,3.78-.33,1.27-.11,2.55-.05,3.8.18Z" fill="#ff7200"/>
    <path d="m102.4,207.45c-1.78.46-3.59.75-5.42.87-1.81.3-3.65.41-5.48.35,1.78-.46,3.59-.75,5.42-.87,1.81-.3,3.65-.41,5.48-.35Z" fill="#ff7200"/>
    <path d="m97.65,201.71c-1.78.47-3.6.76-5.43.88-1.81.28-3.65.4-5.48.35,1.78-.46,3.59-.75,5.42-.87,1.81-.29,3.65-.41,5.49-.36Z" fill="#ff7200"/>
    <path d="m93.21,196c-1.77.46-3.58.75-5.4.87-1.8.29-3.63.41-5.45.35,1.77-.46,3.57-.75,5.39-.87,1.81-.28,3.63-.4,5.46-.35Z" fill="#ff7200"/>
    <path d="m310.21,354.51c-1.39.93-2.86,1.72-4.41,2.35-1.47.78-3.03,1.41-4.63,1.88,2.85-1.72,5.86-3.13,9-4.23h.04Z" fill="#ff7200"/>
    <path d="m313.73,360.14c-.69.6-1.49,1.08-2.36,1.39-.8.46-1.67.78-2.58.92,1.49-1.08,3.16-1.86,4.94-2.31h0Z" fill="#ff7200"/>
    <path d="m303.88,350.77c-1.54,1-3.16,1.86-4.86,2.56-1.62.86-3.32,1.56-5.08,2.09,3.16-1.86,6.49-3.42,9.94-4.65h0Z" fill="#ff7200"/>
    <path d="m297.11,347.43c-3.16,1.87-6.48,3.43-9.94,4.66,1.54-1.01,3.16-1.87,4.86-2.57,1.62-.85,3.33-1.55,5.08-2.09Z" fill="#ff7200"/>
    <path d="m290.33,344.1c-1.53,1.01-3.16,1.86-4.86,2.56-1.62.86-3.32,1.56-5.08,2.1,1.53-1.01,3.16-1.87,4.86-2.57,1.63-.85,3.33-1.55,5.08-2.09Z" fill="#ff7200"/>
    <path d="m283.56,340.76c-3.16,1.87-6.48,3.43-9.94,4.66,3.16-1.86,6.49-3.42,9.94-4.66Z" fill="#ff7200"/>
    <path d="m276.78,337.43c-1.54,1.01-3.16,1.87-4.86,2.57-1.62.85-3.33,1.55-5.08,2.09,1.54-1.01,3.16-1.87,4.86-2.57,1.62-.85,3.33-1.55,5.08-2.09Z" fill="#ff7200"/>
    <path d="m270,334.1c-3.16,1.86-6.49,3.42-9.94,4.65,1.54-1,3.17-1.86,4.86-2.56,1.62-.86,3.32-1.56,5.08-2.09Z" fill="#ff7200"/>
    <path d="m263.21,330.76c-3.16,1.87-6.48,3.43-9.94,4.66,1.53-1.01,3.16-1.86,4.86-2.56,1.62-.86,3.32-1.56,5.08-2.1Z" fill="#ff7200"/>
    <path d="m256.45,327.43c-1.53,1.01-3.16,1.86-4.86,2.56-1.62.86-3.32,1.56-5.08,2.1,3.16-1.87,6.48-3.43,9.94-4.66h0Z" fill="#ff7200"/>
    <path d="m249.68,324.1c-3.16,1.86-6.49,3.42-9.94,4.65,1.54-1,3.16-1.86,4.86-2.56,1.62-.86,3.32-1.56,5.08-2.09Z" fill="#ff7200"/>
    <path d="m243.33,320.19c-1.54,1.01-3.16,1.87-4.86,2.57-1.62.85-3.33,1.55-5.08,2.09,3.16-1.87,6.48-3.43,9.94-4.66h0Z" fill="#ff7200"/>
    <path d="m235.01,317.3c-.7.61-1.5,1.09-2.37,1.4-.8.47-1.68.78-2.6.93.7-.61,1.51-1.09,2.38-1.4.8-.47,1.68-.78,2.59-.93Z" fill="#ff7200"/>
    <path d="m253.05,87.94l34.16,69.17c2.15,4.36,6.31,7.39,11.12,8.08l76.34,11.1c8.07,1.17,13.67,8.66,12.5,16.73-.47,3.22-1.98,6.2-4.31,8.47l-55.24,53.85c-3.48,3.4-5.07,8.29-4.25,13.08l13,76c1.38,8.04-4.02,15.68-12.06,17.06-3.2.55-6.49.03-9.36-1.48l-68.28-35.89c-4.3-2.27-9.45-2.27-13.75,0l-68.28,35.89c-7.22,3.79-16.15,1.01-19.94-6.21-1.51-2.87-2.03-6.15-1.49-9.34l13-76c.82-4.79-.77-9.68-4.25-13.08l-55.24-53.85c-5.84-5.69-5.97-15.04-.28-20.89,2.27-2.33,5.25-3.85,8.47-4.31l76.34-11.1c4.81-.69,8.97-3.72,11.12-8.08l34.14-69.17c3.59-7.33,12.44-10.37,19.77-6.78,2.94,1.44,5.32,3.81,6.77,6.75Z" fill="#ff7200"/>
    <path d="m188.94,161.29c-.92-1.4-1.69-2.88-2.3-4.44-.77-1.49-1.38-3.05-1.82-4.66.92,1.4,1.69,2.88,2.3,4.44.77,1.49,1.38,3.05,1.82,4.66Z" fill="#ff7200"/>
    <path d="m183.27,164.76c-.6-.7-1.06-1.51-1.36-2.38-.46-.8-.77-1.68-.9-2.59.61.7,1.07,1.5,1.37,2.38.45.8.76,1.68.89,2.59Z" fill="#ff7200"/>
    <path d="m192.76,155c-.99-1.55-1.82-3.19-2.5-4.89-.84-1.63-1.5-3.34-2-5.11.99,1.55,1.82,3.19,2.5,4.89.82,1.64,1.49,3.35,2,5.11Z" fill="#ff7200"/>
    <path d="m196.21,148.29c-.99-1.55-1.83-3.18-2.51-4.89-.82-1.63-1.49-3.34-2-5.1.99,1.55,1.83,3.19,2.51,4.89.82,1.63,1.49,3.34,2,5.1Z" fill="#ff7200"/>
    <path d="m199.59,141.56c-.99-1.55-1.82-3.19-2.5-4.89-.82-1.64-1.49-3.35-2-5.11.99,1.55,1.82,3.19,2.5,4.89.82,1.64,1.49,3.35,2,5.11Z" fill="#ff7200"/>
    <path d="m203.01,134.83c-.98-1.55-1.82-3.19-2.51-4.89-.82-1.64-1.49-3.35-2-5.11.99,1.55,1.83,3.18,2.51,4.89.82,1.64,1.49,3.35,2,5.11Z" fill="#ff7200"/>
    <path d="m206.43,128.09c-1-1.54-1.84-3.18-2.51-4.89-.82-1.64-1.49-3.34-2-5.1.99,1.55,1.82,3.18,2.5,4.89.83,1.63,1.5,3.34,2.01,5.1Z" fill="#ff7200"/>
    <path d="m209.84,121.36c-.99-1.55-1.82-3.19-2.5-4.89-.83-1.63-1.5-3.35-2-5.11.99,1.55,1.82,3.19,2.5,4.89.82,1.64,1.49,3.35,2,5.11Z" fill="#ff7200"/>
    <path d="m213.26,114.62c-.99-1.55-1.83-3.19-2.51-4.89-.82-1.63-1.49-3.34-2-5.1.99,1.55,1.83,3.19,2.51,4.89.82,1.63,1.49,3.34,2,5.1Z" fill="#ff7200"/>
    <path d="m216.67,107.89c-.97-1.55-1.79-3.19-2.46-4.89-.82-1.64-1.49-3.35-2-5.11.99,1.55,1.82,3.19,2.5,4.89.82,1.64,1.47,3.35,1.96,5.11Z" fill="#ff7200"/>
    <path d="m220.09,101.15c-.99-1.55-1.82-3.19-2.5-4.89-.83-1.63-1.5-3.34-2-5.1,1,1.54,1.84,3.18,2.51,4.89.82,1.63,1.49,3.34,1.99,5.1Z" fill="#ff7200"/>
    <path d="m224.07,94.86c-.99-1.55-1.82-3.19-2.5-4.89-.82-1.64-1.49-3.35-2-5.11.99,1.55,1.82,3.19,2.5,4.89.83,1.63,1.5,3.35,2,5.11Z" fill="#ff7200"/>
    <path d="m227.07,86.57c-.61-.7-1.08-1.51-1.38-2.39-.45-.81-.76-1.69-.89-2.61.61.72,1.09,1.54,1.41,2.43.44.8.73,1.67.86,2.57Z" fill="#ff7200"/>
    <path d="m229.97,92.48c.13.07-7.68,15.68-17.44,34.87s-17.77,34.65-17.9,34.65,7.68-15.67,17.44-34.87,17.77-34.71,17.9-34.65Z" fill="#fff"/>
    <path d="m178.21,172.13s-.29.06-.84.14l-2.44.32-8.95,1.06-29.53,3.35-16.24,1.74c-2.5.27-4.88.51-7.07.92-2.03.35-4.01.96-5.88,1.81-2.74,1.24-4.99,3.35-6.4,6-.47.99-.8,2.04-1,3.12-.01-.07-.01-.15,0-.22,0-.15,0-.36.07-.64.15-.81.39-1.6.74-2.35,1.37-2.75,3.64-4.94,6.42-6.23,1.91-.9,3.92-1.53,6-1.9,2.21-.44,4.6-.7,7.1-1l16.27-1.8,29.58-3.17,9-.9,2.44-.22c.24-.03.49-.04.73-.03Z" fill="#fff"/>
    <path d="m307.55,352.09c-.07.12-9.81-5.24-21.76-12s-21.57-12.31-21.5-12.44,9.81,5.24,21.76,12,21.57,12.35,21.5,12.44Z" fill="#fff"/>
    <path d="m250.47,320c-1.61-.69-3.29-1.23-5-1.61-4.19-.74-8.5-.46-12.57.8-4.08,1.31-8,3.07-11.69,5.24l-3.39,1.92c-.4.26-.83.48-1.27.65.36-.31.76-.59,1.17-.83.77-.5,1.89-1.21,3.3-2.05,3.66-2.28,7.58-4.09,11.68-5.4,4.14-1.3,8.54-1.53,12.79-.67,1.28.29,2.52.71,3.7,1.27.33.14.64.31.94.5.24.12.35.18.34.18Z" fill="#fff"/>
  </g>
  <g>
    <path d="m191.32,220.08c14.67-.95,23.58-.95,29.58,8.75,6.02,9.7-15.23,43.64,6.43,49.36s32.23-11.82,41.2-29.09c8.99-17.25,13.25-37.96,13.28-48.31" fill="none" stroke="#fff" stroke-linecap="round" stroke-linejoin="round" stroke-width="24"/>
    <path d="m194.53,282.21c6.43-8.63,13.94-10.09,23.44-11.31" fill="none" stroke="#fff" stroke-linecap="round" stroke-linejoin="round" stroke-width="24"/>
  </g>
  <g id="freepik--speech-bubble-2--inject-34">
    <path d="m383.65,145.38l10.92-3.38c13.45,8.87,31.55,5.16,40.43-8.29,8.87-13.45,5.16-31.55-8.29-40.43-13.45-8.87-31.55-5.16-40.43,8.29-6.69,10.14-6.39,23.37.74,33.21h0l-3.37,10.6Z" fill="#fff"/>
    <path d="m383.65,145.38s.05-.22.19-.67l.61-2,2.44-8c.02-.06.09-.1.15-.08,0,0,0,0,0,0h0l-.17.16c-2.97-4.03-4.84-8.76-5.44-13.73-.8-6.76.77-13.58,4.44-19.31,2.13-3.3,4.89-6.14,8.13-8.37,3.49-2.39,7.45-4,11.62-4.72,4.43-.72,8.96-.44,13.26.82,2.22.66,4.35,1.57,6.37,2.71,4.06,2.42,7.51,5.74,10.08,9.7,1.23,1.96,2.24,4.05,3,6.23,1.43,4.23,1.89,8.72,1.35,13.15-.51,4.18-1.94,8.2-4.18,11.77-3.98,6.41-10.27,11.05-17.57,12.96-3.08.79-6.26,1.08-9.43.86-5-.36-9.83-2.01-14-4.79h.1l-8.2,2.49-2.08.62-.68.2,10.89-3.54s.07-.02.1,0c4.16,2.7,8.94,4.3,13.89,4.64,3.13.19,6.26-.11,9.3-.89,3.39-.91,6.6-2.42,9.46-4.45,3.13-2.24,5.78-5.08,7.81-8.35,2.2-3.51,3.6-7.47,4.1-11.58.52-4.35.06-8.77-1.35-12.92-2.29-6.56-6.83-12.11-12.81-15.65-1.98-1.12-4.08-2.01-6.26-2.66-4.22-1.24-8.66-1.53-13-.83-8,1.38-15.06,6.04-19.47,12.85-6.5,10.01-6.17,22.99.82,32.66.03.06,0,.14-.06.17-.04.02-.08.02-.12,0h0l.19-.05c-2.2,6.67-3.23,9.82-3.48,10.6Z" fill="#263238"/>
    <path d="m416.4,125.86l.26-11.8s-2.59-.57-4.83-4.15c-1.06-1.64-1.87-3.43-2.4-5.31-.16-.63-.75-1.05-1.4-1-.79.03-1.5.52-1.81,1.25-.83,1.78.28,6.18.28,6.18,0,0,.46.89-.77.86l-4.38-.1c-.57-.01-1.13.17-1.57.53-.47.36-.73.94-.68,1.53.1,1.67,1,2.44.95,2.79-.28.63-.34,1.33-.18,2,.33,1,.55.94.54,1.42-.02.84.1,1.67.34,2.47.14.41.36.78.64,1.11-.09.84,0,1.7.25,2.51.42.93,2.25,1.45,2.86,1.46s5-.76,6.26-1,4.45-1.34,5.64-.75Z" fill="#ff7200"/>
    <rect x="414.68" y="117.7" width="12.13" height="4.51" transform="translate(291.42 537.92) rotate(-88.72)" fill="#ff7200"/>
  </g>
  <g id="freepik--speech-bubble-1--inject-34">
    <path d="m85.31,241.5H.31v44.95h62.5c1.85,2.84,5.76,9.31,5.76,9.31l4.5-9.31h12.24v-44.95Z" fill="#fafafa"/>
    <path d="m85.31,241.5v12.03c0,7.8.06,19.05.1,32.92v.19h-12.43l.19-.12c-1.41,2.92-2.92,6.07-4.49,9.31l-.18.37-.21-.35-5.76-9.29.19.1H0v-45.45h.24l61.27.1,17.55.08h5.84-5.9l-17.53.08-61.2.1.24-.24v44.95l-.26-.26h62.65l.07.11c2,3.24,4,6.39,5.75,9.32h-.39c1.57-3.24,3.09-6.39,4.51-9.31l.06-.12h12.37l-.2.2c0-13.82.08-25,.11-32.81v-11.34c0-.54.13-.57.13-.57Z" fill="#263238"/>
    <path d="m20.14,263.63c1.45-.63,2.39-2.05,2.41-3.63.13-2.06-1.43-3.84-3.5-3.97-2.06-.13-3.84,1.43-3.97,3.5,0,.12,0,.25,0,.37-.04,1.6.88,3.08,2.34,3.74-5.75.82-5.54,7.07-5.54,7.07l13.59.18s.36-6.36-5.33-7.26Z" fill="#ff7200"/>
    <path d="m73.45,257.28c0,.08-8.67.15-19.36.15s-19.36-.07-19.36-.15,8.67-.16,19.36-.16,19.36.07,19.36.16Z" fill="#263238"/>
    <path d="m73.45,261.91c0,.09-8.67.16-19.36.16s-19.36-.07-19.36-.16,8.67-.15,19.36-.15,19.36.07,19.36.15Z" fill="#263238"/>
    <path d="m73.45,266.55c0,.08-8.67.15-19.36.15s-19.36-.07-19.36-.15,8.67-.16,19.36-.16,19.36.07,19.36.16Z" fill="#263238"/>
    <path d="m57.88,272.41c0,.09-5.18.16-11.57.16s-11.58-.07-11.58-.16,5.18-.16,11.58-.16,11.57.07,11.57.16Z" fill="#263238"/>
  </g>
  <g id="freepik--character-2--inject-34">
    <g opacity=".3">
      <path d="m327.82,213.8c-1.39-11.35-3.12-23.06-9.22-32.74s-17.75-16.78-28.85-14.06h0c-2,11.83-4.19,24.39,2.55,34.33,1.55,2.29,3.56,4.39,4.25,7.07.74,2.91-.2,5.94-.9,8.85-5.31,21.78,2,44.43,9.24,65.65,7.9,23.17,16.1,46.89,31.62,65.81-.12-5.73-1.1-10.05-1.81-14.37-1.13-6.86-2.3-13.29-3.84-22.26-1.76-10.28-6-32.66-7.56-44.25-.37-2.86.08-5.77,1.3-8.38,1.12-2.08,2.61-3.92,4.41-5.45l2-1.91c-1.31-17.51-1.06-20.89-3.19-38.29Z"/>
    </g>
    <path d="m368.88,380.69l-11.51,17.31s13.67,17.49,11.86,20.89l-34.27-21.12,16.83-27.62,17.09,10.54Z" fill="#ff7200"/>
    <g opacity=".3">
      <path d="m368.88,380.69l-11.51,17.31s13.67,17.49,11.86,20.89l-34.27-21.12,16.83-27.62,17.09,10.54Z"/>
    </g>
    <path d="m347.69,389.93c-.83-.24-1.7.2-2,1-.24.81.2,1.67,1,1.95.86.22,1.75-.24,2.06-1.07.17-.87-.38-1.71-1.24-1.91" fill="#e0e0e0"/>
    <g opacity=".6">
      <path d="m334.96,397.72l1.81-2.72,32.17,21.27s1.12,1.6.29,2.57l-34.27-21.12Z" fill="#fff"/>
    </g>
    <path d="m358.03,398.11c-.11.17-1-.27-2.15-.24s-2,.46-2.14.3.73-1,2.13-1,2.34.83,2.16.94Z" fill="#263238"/>
    <path d="m360.71,401.82c-.07.18-1,0-2,.38s-1.63,1-1.79.89.31-1.12,1.57-1.54,2.31.1,2.22.27Z" fill="#263238"/>
    <path d="m360.1,407.38c-.18-.06.1-1,1.1-1.69s2-.54,2-.35-.81.37-1.61.92-1.32,1.2-1.49,1.12Z" fill="#263238"/>
    <path d="m360.21,393.89c-.17.11-.79-.59-1.78-1.11s-1.91-.68-1.9-.87,1.07-.36,2.23.27,1.62,1.63,1.45,1.71Z" fill="#263238"/>
    <path d="m362.47,390.37c0,.07-.76-.24-1.71-1.07-.55-.49-1.04-1.05-1.45-1.66-.25-.36-.47-.74-.67-1.13-.12-.23-.21-.47-.27-.72-.07-.39.12-.77.48-.94.32-.14.7-.11,1,.07.22.13.41.3.58.49.32.3.6.64.85,1,.41.61.73,1.29.94,2,.25.64.3,1.33.15,2-.11,0-.18-.75-.61-1.86-.26-.64-.59-1.25-1-1.81-.24-.32-.51-.63-.8-.91-.3-.32-.61-.51-.8-.41s-.09.07-.08.22c.04.19.11.36.2.53.18.38.38.74.58,1.08.37.59.8,1.14,1.27,1.65.78.93,1.4,1.38,1.34,1.47Z" fill="#263238"/>
    <path d="m362.11,390.47c-.08,0,0-.81.57-1.93.36-.66.83-1.25,1.39-1.74.33-.29.7-.55,1.08-.77.47-.35,1.09-.42,1.63-.19.3.21.46.56.42.92-.04.25-.11.5-.21.73-.18.42-.42.81-.71,1.16-.49.58-1.12,1.04-1.83,1.32-1.22.48-2,.25-2,.18.62-.17,1.23-.38,1.82-.62.6-.31,1.13-.75,1.54-1.28.24-.3.43-.64.57-1,.18-.39.22-.77.06-.82-.33-.08-.68,0-.95.19-.35.19-.69.42-1,.67-.53.43-1,.94-1.39,1.51-.68.97-.89,1.7-.99,1.67Z" fill="#263238"/>
    <path d="m365.71,384.33l3.74,20.4s22,3,23.06,6.75l-39.3,8.68-7.14-31.55,19.64-4.28Z" fill="#ff7200"/>
    <path d="m356.92,405.71c-.73.42-1.03,1.31-.7,2.08.38.75,1.28,1.06,2.05.72.77-.44,1.09-1.39.74-2.21-.49-.73-1.46-.95-2.22-.51" fill="#e0e0e0"/>
    <g opacity=".6">
      <path d="m353.21,420.16l-.6-3.21,37.91-7.12s1.91.38,2,1.65l-39.31,8.68Z" fill="#fff"/>
    </g>
    <path d="m370.04,404.39c0,.19-.9.49-1.71,1.32s-1.13,1.74-1.32,1.71-.16-1.21.84-2.2,2.2-1.01,2.19-.83Z" fill="#263238"/>
    <path d="m374.54,405.19c.09.17-.67.68-1.14,1.64s-.47,1.85-.67,1.89-.55-1,.06-2.2,1.71-1.52,1.75-1.33Z" fill="#263238"/>
    <path d="m377.97,409.6c-.16.08-.64-.82-.38-2s1.07-1.77,1.18-1.63-.31.82-.51,1.78-.05,1.79-.29,1.85Z" fill="#263238"/>
    <path d="m368.68,399.84c-.05.19-1,.12-2.05.43s-1.84.84-2,.7.53-1,1.79-1.36,2.32.05,2.26.23Z" fill="#263238"/>
    <path d="m367.84,395.73c-.61.33-1.31.48-2,.43-.73.03-1.47-.03-2.19-.18-.43-.09-.86-.2-1.27-.35-.24-.08-.48-.19-.69-.33-.32-.22-.45-.63-.32-1,.13-.32.41-.55.75-.63.25-.06.51-.08.76-.06.44,0,.88.06,1.31.15.73.15,1.43.42,2.08.79,1.1.64,1.57,1.29,1.51,1.34s-.65-.42-1.73-.91c-.64-.28-1.31-.48-2-.6-.4-.06-.8-.1-1.21-.1-.44,0-.8.06-.86.27s0,.11.09.21c.16.1.33.18.51.24.38.14.77.26,1.17.36.68.17,1.37.27,2.07.31.67-.02,1.35,0,2.02.06Z" fill="#263238"/>
    <path d="m367.66,396.06c-.07.05-.6-.56-.94-1.78-.2-.72-.27-1.47-.21-2.22.03-.44.11-.88.24-1.3.09-.57.47-1.05,1-1.27.36-.06.72.08.95.36.15.21.27.44.36.68.16.43.26.87.29,1.33.05.76-.08,1.52-.39,2.21-.54,1.19-1.29,1.6-1.32,1.54s.5-.6.87-1.71c.22-.64.29-1.33.21-2-.04-.39-.14-.77-.28-1.13-.16-.4-.39-.7-.54-.63s-.45.43-.54.8c-.12.38-.21.77-.25,1.17-.08.68-.06,1.37.05,2.05.23,1.18.59,1.84.5,1.9Z" fill="#263238"/>
    <path d="m357.9,214.29l47.83,73.79c4.56,6.68,7.15,13.55,6.47,21.48-.49,5.1-2.25,10-5.12,14.24l-39,68.19-19.47-19.91,28.74-60.73-27.42-36.92-14.56-60.14h22.53Z" fill="#263238"/>
    <path d="m371.69,398.71l-24.08-166.5-1.34-16.89-41.21-2.23s-6.65,21.34-7.2,32.39,24.52,69.78,24.52,69.78l5.83,29.38,16.71,59.6,26.77-5.53Z" fill="#263238"/>
    <path d="m301.9,209.66c-.74-1.21,4.92-6,14-13.38l7.44-6.09c3.14-2.74,6.7-4.95,10.54-6.54,4.72-1.76,9.84-2.1,14.75-1,2.64.59,5.17,1.6,7.48,3,2.56,1.53,4.74,3.61,6.39,6.1.49.74.91,1.53,1.24,2.35.48,1.17.71,2.42.68,3.68-.06,1.63-.63,3.2-1.64,4.48-.6.75-1.34,1.37-2.18,1.83-.47.25-.97.45-1.48.58-.48.13-.97.2-1.46.22-1.49.04-2.95-.34-4.23-1.1-.81-.48-1.25-.81-1.49-1s-.16-.09-.09-.06c.08.03.17.05.26.06q.17,0,0,0c-.81.15-1.62.35-2.4.62-.66.18-1.33.33-2,.45-.68.1-1.37.19-2,.22-2.29.08-4.59-.07-6.85-.43-1.7-.28-3.42-.47-5.14-.57-1.35-.06-2.7.09-4,.45-2.73.93-5.34,2.19-7.77,3.75-2.4,1.51-4.94,2.78-7.59,3.81-2.13.82-4.4,1.23-6.69,1.22-1.47.02-2.93-.32-4.24-1-.87-.51-1.2-1-1.09-1.32.24-.73,2.09-.55,4.82-1.54,1.68-.61,3.28-1.42,4.76-2.41,2.09-1.41,4.09-2.95,6-4.59,2.7-2.35,5.73-4.29,9-5.76,2.1-.84,4.34-1.32,6.6-1.43,2.09-.07,4.19,0,6.27.19,1.71.18,3.43.2,5.15.07.37,0,.7-.1,1.05-.16s.6-.14,1-.27c1.2-.43,2.44-.77,3.7-1,1.06-.18,2.15-.18,3.21,0,.62.11,1.22.29,1.8.53.47.19.92.41,1.35.67.69.42,1.14.72,1.28.78h0v.1l-.24.51c-.2.4-.37.81-.51,1.23-.08.24-.15.49-.19.74,0,.09,0,.18,0,.27h0c-.06-.23.08.3.07.24s0,0,0-.08c-.09-.15-.2-.28-.34-.38-.1-.08-.21-.15-.33-.2h.17-.63c-.29,0-.57.02-.85.09-.24.05-.48.11-.72.19l-.22.07h0c-.1-.22-.21-.42-.35-.62-1.47-2.32-4.54-4.17-7.71-5-3.11-.81-6.37-.76-9.45.15-3.08,1.09-5.99,2.61-8.65,4.52-2.89,1.9-5.71,3.68-8.29,5.19-10.48,6.11-17.49,8.74-18.19,7.57Z" fill="#f5f5f5"/>
    <path d="m342.94,129.52c.85.15,9.06,3.6,12.78,5.17,1.18.5,2.14,1.41,2.71,2.55l18.3,36.94-14.15,9.82s1.66,28.85-2,30.31c-1.37.54-50.84.45-50.84.45,0,0-5.35,1.9-7.26,0-1.48-1.46-.91-4.31-.91-4.31v-60.23l-2.67-16.58s25.53-7.39,44.04-4.12Z" fill="#455a64"/>
    <path d="m308.64,146.46l.78,29.95-25.52,2.44c0-.16-2.75-38.82,15-45.21l9.74,12.82Z" fill="#455a64"/>
    <path d="m361.52,178.85c-.15-1-.32-2.1-.59-3.93-.39-2.7-.89-6.21-1.45-10.08s-1-7.37-1.42-10.08c-.16-1.2-.3-2.22-.42-3.06-.08-.37-.11-.75-.09-1.13.15.35.25.72.3,1.09.15.72.36,1.75.58,3,.46,2.57,1,6.13,1.58,10.07s1,7.51,1.29,10.11c.15,1.29.24,2.34.29,3.07v.98s0,.09-.09,0h0s.01-.04.02-.04Z" fill="#263238"/>
    <g opacity=".3">
      <path d="m359.89,195.94c-1.25-3.37-3.84-6.08-7.15-7.47-3.29-1.36-6.84-1.98-10.39-1.82-6.22-.03-12.32,1.65-17.65,4.86-7.83,5-13.07,13.73-21.68,17.16l-1.06,1.51c6.71.34,13.37-1.26,19.2-4.59,3.78-2.17,7.2-5.07,11.33-6.48,3.65-1.24,7.59-1.22,11.44-1.19,3.64,0,7.52.14,10.54,2.17.8.72,1.78,1.23,2.83,1.46,1.25-.01,2.35-.82,2.74-2,.35-1.19.3-2.46-.15-3.61Z"/>
    </g>
    <path d="m348.82,175.19l3.06-7.73c.3-.79,1.06-1.31,1.9-1.3h14.52c.81,0,1.47.65,1.48,1.46,0,.18-.03.37-.1.54l-9.32,25.26c-.11.3-.39.5-.71.5h-17.19c-.42-.01-.75-.36-.74-.78,0-.07.02-.15.04-.22l7.06-17.73Z" fill="#263238"/>
    <path d="m367.05,191.23l1.72-9.4-1.42-7.4-2.27,6.16v2.49c-.84-.22-8.63-6.82-10.72-5.4s-7.44,9.22-7.44,9.22c0,0,9.41,9.2,10.92,9.89,0,0,.5,5.81.57,8.81.06,2.55.54,3.52,3.85,4.63s7.51-4.66,7.51-9.81c0-3.21-2.72-9.19-2.72-9.19Z" fill="#ffbe9d"/>
    <path d="m306.42,177l.82,9.88,23.79-8.69,10.59-4.9,4.63,1.16s14.57,1,14.7,1.88.79,1.72,0,1.86-12.31.66-12.31.66c0,0,12.42.79,12.69,1.72s-.12,2.38-.78,2.38h-13.5s12.71.8,12.84,1.33,1.06,1.45-.13,1.85-12.84.79-12.84.79l11,2s.4,1.72-.52,1.72-24.9,1.59-24.9,1.59c0,0-28.06,17.9-33.36,19.2s-9.93-4.83-10.59-9.16c-1-6.53-1.89-23.53-1.89-23.53l19.76-1.74Z" fill="#ffbe9d"/>
    <path d="m332.48,192.2l.49-.06,1.43-.12,5.49-.4,8.68-.6,5.41-.37,3-.2c.46.03.93-.09,1.32-.34.23-.24-.13-.76-.48-1.07l.1.05-11-2c-.12-.03-.2-.15-.18-.27.02-.09.09-.16.18-.18l6.51-.29,3.39-.2c.58,0,1.15-.09,1.73-.15s1.2-.07,1.51-.38.15-.94-.2-1.15c-.26-.06-.52-.11-.79-.13l-.89-.11-3.64-.38-7.51-.7c-.14,0-.24-.13-.23-.27,0,0,0,0,0-.01,0-.14.12-.25.26-.24,0,0,0,0,0,0h13.44c.18,0,.39-.22.52-.49.33-.51.21-1.18-.27-1.55-.47-.15-.94-.26-1.43-.31l-1.54-.22-3.08-.37-6.08-.63c-.15-.02-.25-.14-.24-.29.02-.13.12-.22.25-.24l7.84-.37,3.81-.22c.27,0,.54-.04.8-.12.18-.14.26-.36.21-.58-.04-.25-.16-.48-.35-.65-.22-.15-.47-.25-.74-.29-2.37-.49-4.8-.72-7.12-1s-4.62-.48-6.84-.68h0l-4.64-1.18h.15l-10.6,4.87h0l-17.43,6.28-4.75,1.68-1.24.43c-.14.05-.28.09-.43.12.13-.07.27-.13.41-.18l1.22-.47,4.72-1.78,17.31-6.39h0l10.58-4.92s.1-.02.14,0l4.64,1.16h0c2.22.19,4.51.41,6.85.65s4.74.49,7.2,1c.35.06.67.2.95.41.29.26.47.61.51,1,.07.41-.1.84-.44,1.08-.32.13-.66.19-1,.19l-3.82.23-7.84.38v-.53l6.09.63,3.08.37,1.56.22c.55.06,1.1.19,1.62.38.38.23.64.62.69,1.06.04.41-.03.81-.21,1.18-.08.19-.2.36-.35.51-.08.09-.17.16-.28.21-.11.06-.24.08-.37.08h-13.51v-.53l7.51.71,3.64.39.9.11c.34.02.68.08,1,.19.32.2.54.53.61.9.07.36-.04.74-.3,1-.26.23-.58.38-.93.42-.29,0-.59.08-.88.1-.59.06-1.17.1-1.74.14l-3.41.2-6.52.26v-.45l11,2h0s.06,0,.09,0c.21.2.39.42.54.67.22.3.22.7,0,1-.45.34-1.01.51-1.58.47l-3,.18-5.42.32-8.68.51-5.5.3-1.44.06c-.15,0-.31-.01-.46-.04Z" fill="#eb996e"/>
    <path d="m299.69,198.1c-.06-.7,0-1.4.18-2.08.33-1.67.98-3.25,1.9-4.68.95-1.41,2.18-2.61,3.6-3.54.56-.42,1.2-.74,1.87-.94.13.17-2.87,1.56-5,4.78-.9,1.38-1.57,2.88-2,4.47-.12.68-.31,1.34-.55,1.99Z" fill="#eb996e"/>
    <path d="m360.83,172.57c.33.62.1,1.39-.52,1.72-.62.33-1.39.1-1.72-.52-.33-.62-.1-1.39.52-1.72.03-.02.06-.03.1-.05.6-.29,1.33-.03,1.62.57Z" fill="#fafafa"/>
    <path d="m363.64,182.15c.11-.5.26-.99.45-1.46l1.41-3.91,2.14-5.77c.21-.55.42-1.1.63-1.67s.57-1.23.41-1.59c-.07-.15-.3-.23-.6-.21h-13.85c-.44-.08-.88.11-1.13.47-.19.36-.36.85-.53,1.23-.65,1.56-1.19,2.85-1.61,3.84-.18.48-.4.94-.65,1.38.12-.49.28-.98.47-1.45l1.46-3.9c.15-.45.33-.88.53-1.31.15-.24.37-.43.63-.55.26-.1.55-.15.83-.13h13.84c.42-.08.84.12,1.05.49.13.36.11.75-.06,1.09l-.33.86-.65,1.66-2.25,5.75c-.63,1.57-1.15,2.87-1.56,3.86-.17.46-.38.9-.63,1.32Z" fill="#455a64"/>
    <path d="m321.85,72.46c-2.44-1.55-3-5.13-1.71-7.69,1.49-2.53,4.08-4.22,7-4.57,4.18-.62,8.41.79,11.38,3.8,1.57,1.62,2.84,3.73,5,4.47,1.87.65,3.94.06,5.9.31,2.65.49,4.94,2.14,6.24,4.5,1.26,2.35,2.01,4.93,2.22,7.59.29,2.42.47,5.07,2.15,6.84s4.23,2.09,6.26,3.31c3.89,2.56,5.02,7.75,2.55,11.7-.81,1.18-2,2.25-2.06,3.68s.75,2.45,1.15,3.69c.79,3.1-1.08,6.25-4.18,7.04-.25.06-.51.11-.77.14-1.69.1-3.5-.56-5,.19s-2.06,2.57-3,3.94c-2.03,2.75-5.7,3.7-8.81,2.28-1.24-.61-2.42-1.61-3.8-1.52s-2.46,1.27-3.81,1.53c-1.78.34-3.46-1-4.52-2.43s-1.79-3.2-3.14-4.4c-1.76-1.57-4.25-2-6.48-2.73-9.56-3.29-14.64-13.7-11.35-23.26.28-.82.62-1.61,1.01-2.38" fill="#263238"/>
    <path d="m347.57,104.25c.55-.59,1.24-1.03,2-1.3h-.16l.43-.07c.52-.15,1.07-.08,1.54.19h0c.86.31,1.58.93,2,1.74.68,1.46.48,3.18-.51,4.45-.81,1.14-2.2,1.72-3.58,1.48-1.23-.38-2.17-1.37-2.48-2.61-.42-1.34-.14-2.8.76-3.88Z" fill="#455a64"/>
    <path d="m315.49,130.11l-2.59-47.43c-.11-2.09,1.41-3.92,3.49-4.18l21.2-6c6.82-.92,11.61,7.38,12.24,14.23.7,7.61,1.25,16.93.5,22.65-1.49,11.49-10.22,13.2-10.22,13.2l.13,6.55-.69,17.87-24.06-16.89Z" fill="#ffbe9d"/>
    <path d="m346.87,96.66c.03.8-.58,1.47-1.37,1.52-.77.09-1.46-.47-1.55-1.24,0-.01,0-.03,0-.04-.03-.79.58-1.47,1.37-1.52.77-.09,1.46.47,1.55,1.24,0,.01,0,.03,0,.04Z" fill="#263238"/>
    <path d="m347.94,91.63c-.17.2-1.31-.6-2.89-.55s-2.71.88-2.89.69.09-.44.58-.82c.67-.49,1.48-.77,2.31-.78.82-.03,1.63.2,2.31.67.49.36.67.7.58.79Z" fill="#263238"/>
    <path d="m332.28,96.66c.03.8-.58,1.48-1.38,1.52-.77.09-1.46-.47-1.55-1.24,0-.01,0-.03,0-.04-.02-.8.59-1.47,1.38-1.52.77-.08,1.47.48,1.55,1.26,0,0,0,.02,0,.02Z" fill="#263238"/>
    <path d="m332.43,92.36c-.18.2-1.32-.59-2.89-.54s-2.72.87-2.89.68.08-.43.58-.81c.67-.49,1.48-.77,2.31-.79.82-.03,1.63.21,2.3.68.5.36.67.7.59.78Z" fill="#263238"/>
    <path d="m338.49,103.91c.83-.28,1.68-.46,2.55-.53.41-.06.78-.15.85-.42.02-.42-.09-.83-.31-1.19-.4-1-.83-2-1.28-3-1.78-4.32-3.08-7.88-2.9-7.95s1.76,3.37,3.54,7.7c.42,1.07.84,2.08,1.23,3.06.26.48.35,1.03.25,1.57-.11.29-.35.52-.65.61-.22.07-.45.11-.68.12-.86.12-1.74.13-2.6.03Z" fill="#263238"/>
    <path d="m340.11,122.57c-5.38.23-10.73-1.03-15.44-3.65,0,0,3.94,7.75,15.37,6.36l.07-2.71Z" fill="#eb996e"/>
    <path d="m338.36,107.67c-.75-1.03-1.96-1.63-3.24-1.6-.84.03-1.6.48-2.05,1.19-.66,1.1-.3,2.52.8,3.18.57.34,1.26.42,1.9.22.87-.31,1.66-.83,2.29-1.51.2-.16.37-.37.48-.6.12-.26.08-.57-.09-.8" fill="#eb996e"/>
    <path d="m333.88,105.14c.25,0,.3,1.69,1.81,2.86s3.32.94,3.34,1.18-.4.34-1.17.39c-1.01.04-1.99-.28-2.79-.89-.76-.59-1.27-1.45-1.41-2.4-.08-.72.1-1.15.22-1.14Z" fill="#263238"/>
    <path d="m332.94,85.84c-.14.44-1.72.28-3.57.55s-3.33.83-3.59.45c-.11-.18.14-.59.73-1,.79-.54,1.69-.88,2.64-1,.94-.15,1.91-.06,2.81.25.69.22,1.04.55.98.75Z" fill="#263238"/>
    <path d="m347.21,86.21c-.27.37-1.36,0-2.67.05s-2.41.3-2.68-.06c-.11-.18.05-.55.52-.9.64-.43,1.39-.66,2.16-.65.77,0,1.52.22,2.15.66.52.36.66.69.52.9Z" fill="#263238"/>
    <path d="m357.54,84.31c-.47-1.75-1.53-3.28-3-4.33-.87-.45-1.72-.94-2.54-1.48-1.66-1.33-2-3.66-3.06-5.52-1.36-2.43-3.81-4.06-6.58-4.37-2.27-.23-4.61.45-6.82-.11-1.63-.41-3.06-1.47-4.71-1.78-3.23-.62-6.22,1.7-8.56,4,0,2.31,1.83,3.85,3.6,5.33,1.81,1.49,4.17,2.12,6.48,1.71,1.76-.32,3.69-1.21,5.21-.27s1.67,3.4,3.09,4.63c2,1.77,5.27.11,7.85.88,2,.59,3.23,2.49,4.56,4.1s3.3,3.12,5.29,2.53c-.06-1.8-.33-3.58-.81-5.32Z" fill="#263238"/>
    <path d="m333.54,74c-1.51-.43-4.59-1.41-5.4-2.71-1.65-2.86-4.7-4.61-8-4.61-3.36.26-6.14,2.7-6.84,6-4,.13-7.6,2.43-9.4,6-.23.45-.43.92-.6,1.4-1.21,2.14-1.41,4.7-.56,7,.53,1.36,1.41,2.88.71,4.16-.7,1.28-2.51,1.34-3.91,1.82-2.5.94-3.97,3.54-3.48,6.17.33.87.47,1.79.43,2.72-.34.9-.9,1.71-1.62,2.35-2.45,2.9-2.08,7.23.81,9.68.91.77,2.01,1.29,3.19,1.51,1.09.04,2.17.29,3.17.72,1.06.66,1.53,1.94,2.28,2.94,1.52,1.93,4.07,2.73,6.42,2,.46-.16.89-.37,1.29-.65.89,1.17,2.32,1.8,3.78,1.67l-.43-25.17c.28.62.85,1.07,1.52,1.19,4,.92,4.63-7.41,3.73-9.67,1.53-1.24,2.89-2.67,4.05-4.26,1.3-2.52,1.94-5.33,1.86-8.17,1.46.1,7.67-1.95,7-2.09Z" fill="#263238"/>
    <path d="m316.99,98.62c-.12-2.45-3.12-3-5.25-1.75-1.16.68-2,2-1.95,4.64.29,6.94,7.2,5.22,7.2,5s.15-5.02,0-7.89Z" fill="#ffbe9d"/>
    <path d="m314.76,104s-.11.09-.31.19c-.28.14-.61.16-.91.06-.93-.54-1.5-1.55-1.49-2.63-.05-.6.04-1.2.27-1.75.1-.46.43-.84.87-1,.28-.09.58.04.72.3.11.19.07.33.1.34s.15-.12.08-.41c-.05-.17-.15-.32-.29-.42-.2-.14-.44-.19-.68-.15-.57.14-1.03.57-1.22,1.13-.27.61-.38,1.28-.34,1.95.11,1.4.88,2.68,1.89,2.93.38.1.79.01,1.1-.23.21-.15.24-.31.21-.31Z" fill="#eb996e"/>
    <path d="m323.78,72.69c-.54.28-1.02.68-1.39,1.16-.78,1.47-.97,3.19-.51,4.8v.17l-.17.05c-2.03.54-3.68,2-4.47,3.94-.22.54-.34,1.11-.36,1.69.01.62.08,1.23.21,1.83.14.66.23,1.33.27,2,.05.73-.14,1.45-.55,2.05-.91,1.15-2.09,2.04-3.45,2.59-1.18.52-2.27,1.23-3.22,2.11-1.57,1.54-2.5,3.62-2.59,5.82-.05,1.48.26,2.96.91,4.29.46.94.85,1.4.81,1.43-.11-.09-.21-.2-.29-.32-.26-.31-.49-.65-.69-1-1.9-3.45-1.27-7.74,1.53-10.51.98-.92,2.1-1.67,3.33-2.22,1.27-.52,2.39-1.36,3.25-2.43.77-1,.42-2.43.22-3.67-.13-.64-.2-1.28-.21-1.93.03-.63.16-1.26.4-1.85.85-2.07,2.64-3.6,4.81-4.13l-.13.22c-.45-1.69-.2-3.5.7-5,.29-.38.66-.69,1.09-.89.34-.17.49-.22.5-.2Z" fill="#455a64"/>
    <path d="m312.21,106.59c.55-.59,1.24-1.03,2-1.3h-.15c.14-.03.29-.06.43-.07.52-.15,1.07-.08,1.54.19h0c.86.31,1.58.93,2,1.74.68,1.46.48,3.18-.51,4.45-.81,1.14-2.2,1.72-3.58,1.48-1.23-.38-2.17-1.37-2.48-2.62-.43-1.33-.14-2.79.75-3.87Z" fill="#455a64"/>
    <path d="m371.69,398.71c-.15,0-5.81-37.84-12.65-84.54s-12.27-84.61-12.12-84.63,5.8,37.83,12.64,84.55,12.27,84.6,12.13,84.62Z" fill="#455a64"/>
    <path d="m329.81,216.32c.02.3-.02.6-.1.89-.16.8-.4,1.58-.7,2.33-2.01,5.12-6.46,8.87-11.84,10-.8.16-1.61.26-2.42.3-.3.03-.6.01-.89-.05,0-.09,1.27-.11,3.23-.61,5.18-1.29,9.46-4.92,11.58-9.82.82-1.81,1.05-3.06,1.14-3.04Z" fill="#455a64"/>
    <path d="m342.9,217.67c-.47.15-.89.45-1.19.84-.29.42-.39.94-.27,1.44.33.84,1.29,1.25,2.13.92.3-.12.56-.32.74-.59.22-.46.24-.99.06-1.46-.21-.46-.56-.84-1-1.09,0,0,.17,0,.44.07.37.19.67.5.85.87.28.58.28,1.26,0,1.84-.61.98-1.9,1.28-2.88.68-.42-.26-.73-.65-.88-1.12-.14-.63.03-1.29.45-1.78.25-.32.6-.55,1-.65.39-.05.55,0,.55.03Z" fill="#455a64"/>
    <path d="m386.31,307.92c0,.15-2,.74-4.48,1.74s-4.35,2-4.43,1.87c1.26-1.03,2.69-1.83,4.23-2.36,1.48-.68,3.06-1.11,4.68-1.25Z" fill="#455a64"/>
    <path d="m309.33,164.84c-.38-.04-.75-.14-1.1-.3-.97-.41-1.87-.95-2.68-1.62-1-.82-2.15-1.93-3.41-3.11-1.28-1.33-2.81-2.39-4.51-3.11-1.74-.59-3.63-.59-5.37,0-1.43.46-2.78,1.14-4,2-2.13,1.49-3.35,2.57-3.41,2.5s.26-.32.8-.82c.76-.71,1.56-1.38,2.39-2,1.24-.94,2.63-1.68,4.1-2.19,1.84-.64,3.85-.64,5.69,0,1.77.74,3.37,1.85,4.68,3.25,1.24,1.21,2.31,2.34,3.3,3.17,1.06.91,2.24,1.67,3.52,2.23Z" fill="#fff"/>
    <path d="m358.29,157.88s-.54-.52-1.59-1.33c-1.5-1.13-3.2-1.97-5-2.48-2.67-.76-5.51-.74-8.16.08-3,.92-5.89,2.88-9,4.76-1.52.94-3.13,1.74-4.81,2.37-1.57.57-3.2.97-4.86,1.2-2.79.37-5.62.42-8.42.16-2.4-.2-4.31-.48-5.64-.68l-1.52-.25c-.18-.02-.35-.06-.52-.12.18-.02.36-.02.54,0l1.53.15c1.33.14,3.25.36,5.63.51,2.78.2,5.57.12,8.33-.26,1.62-.24,3.21-.65,4.75-1.21,1.65-.63,3.23-1.41,4.73-2.34,3.1-1.86,6-3.84,9.14-4.77,4.64-1.37,9.66-.36,13.41,2.7.4.33.77.69,1.12,1.07.13.13.24.28.34.44Z" fill="#fff"/>
    <path d="m368.6,157.55c.01.58-.14,1.15-.44,1.65-.63,1.27-1.66,2.3-2.93,2.93-1.27.62-2.71.8-4.1.52-.58-.06-1.13-.29-1.59-.66,0-.08.64.18,1.64.3,2.67.35,5.29-.94,6.65-3.26.53-.87.69-1.5.77-1.48Z" fill="#fff"/>
    <path d="m283.9,178.85c.6-.13,1.21-.22,1.82-.28l5-.56c4.21-.45,10-1,16.45-1.65l2.24-.21-.24.27c-.15-5.94-.26-11.23-.31-15v-4.48c-.02-.55,0-1.1.06-1.64.09.54.13,1.08.14,1.63.05,1.14.12,2.65.2,4.49.15,3.79.32,9.08.48,15v.24h-.25l-2.24.21c-6.43.62-12.25,1.15-16.47,1.5l-5,.39c-.62.08-1.25.11-1.88.09Z" fill="#263238"/>
  </g>
  <g id="freepik--character-1--inject-34">
    <path d="m69.21,388.53l-21.67,12.17-19.9,4.69c-1.37.32-2.22,1.7-1.89,3.07.01.05.03.11.04.16h0c.25.79.86,1.41,1.64,1.67,5,1.63,23.37,7.15,24.58,6.6,1.92-.87,24-11.34,24-11.34l-6.8-17.02Z" fill="#ff7200"/>
    <g opacity=".6">
      <path d="m25.79,408.62l28,7.47-.92.49c-.81.41-1.73.54-2.62.37-2.38-.52-8.91-2.11-22.81-6.6-.81-.26-1.44-.91-1.67-1.73h.02Z" fill="#fff"/>
    </g>
    <g opacity=".6">
      <path d="m58.49,407.82c-.71-.36-1.58-.11-2,.57-.39.71-.15,1.59.55,2,.75.35,1.65.09,2.08-.62.32-.77-.03-1.66-.79-2" fill="#fff"/>
    </g>
    <path d="m45.05,407.52c.07-1.02.07-2.04,0-3.06-.23-1.02-.54-2.02-.92-3,.78.82,1.25,1.88,1.35,3,.24,1.04.08,2.13-.43,3.06Z" fill="#263238"/>
    <path d="m50.21,406.28c-.16,0-.3-1.46-1.08-3.07s-1.83-2.65-1.72-2.77c1.94,1.28,3.02,3.53,2.8,5.84Z" fill="#263238"/>
    <path d="m54.67,404.2c-.18-1.12-.52-2.2-1-3.23-.64-.94-1.4-1.79-2.28-2.52,0-.06.43,0,1,.38.73.48,1.33,1.12,1.76,1.87.44.75.69,1.59.74,2.45-.03.66-.15,1.06-.22,1.05Z" fill="#263238"/>
    <path d="m54.74,399.51s.25-.23.81-.47c.8-.33,1.66-.5,2.52-.5.64-.05,1.27.11,1.81.45.34.26.48.71.34,1.12-.15.38-.44.69-.81.88-1.58.71-3.43.19-4.42-1.22-.94-1.4-.94-3.24,0-4.64.23-.34.59-.57,1-.63.45-.02.86.25,1,.68.16.6.16,1.24,0,1.84-.16.85-.47,1.66-.91,2.4-.32.52-.55.76-.58.74.52-1.01.89-2.08,1.1-3.2.14-.53.14-1.08,0-1.61-.07-.23-.28-.38-.52-.37-.27.05-.51.21-.66.45-.77,1.22-.77,2.78,0,4,.84,1.22,2.42,1.68,3.79,1.11.26-.12.46-.32.58-.58.08-.22.02-.48-.17-.63-.46-.28-.98-.42-1.52-.4-1.15,0-2.28.19-3.36.58Z" fill="#263238"/>
    <path d="m80.95,394.05l14.54,12.77s-8.1,19.06-5.64,21.68l25.76-27.3-21.83-20.82-12.83,13.67Z" fill="#ff7200"/>
    <path d="m102.27,397.26c.68-.39,1.54-.2,2,.43.43.67.25,1.56-.41,2-.72.42-1.63.22-2.11-.46-.35-.73-.06-1.61.65-2" fill="#e0e0e0"/>
    <g opacity=".6">
      <path d="m115.61,401.2l-2.28-2-23.85,26.92s-.61,1.72.37,2.39l25.76-27.31Z" fill="#fff"/>
    </g>
    <path d="m94.93,407.13c.14.12.83-.49,1.88-.74s1.93-.07,2-.25-.9-.7-2.16-.37-1.87,1.23-1.72,1.36Z" fill="#263238"/>
    <path d="m93.41,411.11c.1.15.88-.21,1.87-.13s1.71.51,1.83.37-.56-.94-1.79-1-2.03.65-1.91.76Z" fill="#263238"/>
    <path d="m95.31,416c.14-.1-.35-.91-1.41-1.26s-1.93,0-1.87.17.81.14,1.67.44,1.51.74,1.61.65Z" fill="#263238"/>
    <path d="m91.94,403.85c.18.06.57-.73,1.33-1.43s1.55-1.07,1.51-1.25-1.06-.06-1.95.78-1.06,1.87-.89,1.9Z" fill="#263238"/>
    <path d="m89.06,401.22c.05,0,.63-.39,1.28-1.37.36-.58.65-1.2.87-1.85.14-.38.24-.78.32-1.18.06-.23.09-.47.07-.71-.02-.36-.29-.67-.65-.73-.32-.05-.64.06-.86.29-.16.18-.3.37-.41.58-.2.36-.37.74-.51,1.13-.22.64-.34,1.32-.36,2-.08.64.05,1.28.35,1.85.1,0,0-.72.1-1.82.07-.64.23-1.27.46-1.87.14-.34.31-.68.5-1,.2-.36.43-.61.63-.56s.09,0,.12.17c.03.18.03.35,0,.53-.07.38-.16.75-.27,1.11-.19.62-.44,1.22-.74,1.8-.53,1.02-.98,1.56-.9,1.63Z" fill="#263238"/>
    <path d="m89.41,401.23c.07,0-.16-.75-1-1.61-.48-.5-1.05-.92-1.67-1.23-.37-.18-.76-.32-1.16-.43-.51-.2-1.08-.12-1.51.22-.23.25-.3.62-.16.93.09.22.22.43.37.61.26.34.57.63.92.87.59.42,1.28.67,2,.75.64.15,1.31.03,1.86-.32-.6,0-1.19-.05-1.78-.12-.62-.13-1.2-.4-1.7-.78-.29-.22-.55-.48-.76-.77-.25-.32-.38-.65-.25-.73.28-.15.61-.17.9-.05.36.09.72.21,1.06.36.58.25,1.12.59,1.61,1,.82.74,1.18,1.35,1.27,1.3Z" fill="#263238"/>
    <path d="m80.95,354.39l-16.28-16.1,32.92-60.46c3.02-3.46,6.85-6.12,11.15-7.75l10.23-3.89,25.64-2.12,15.78,4.57c4.56,1.79,10.31,5.08,9.74,9.95l-5.64,41.11-2.78,51.77-69-17,15.31-19.82-5.52-23.57-21.55,43.31Z" fill="#455a64"/>
    <path d="m106.27,346.07l35.59-14.23c3.19-1.29,4.26-4.82,4.52-8.25l2.9-38s-.34-16.17,9.76-16.95l5.74,2.26c7.42,3.94,9.26,14.75,8.25,23.09-1.43,11.86-2,28.63-3.64,38.92-1.31,8.42-6.37,15.08-14.37,18l-44.81,9.6-3.94-14.44Z" fill="#455a64"/>
    <path d="m107.61,347.33h-4.8s-10.83-3.92-13-3.54c-2,.33-9.35,5.21-10.79,6.18-.16.11-.28.26-.35.44h0c-.29.79.1,1.68.88,2l.15.06-.07.22c-.08.29-.12.58-.11.88.02.59.5,1.05,1.09,1.03.38-.01.73-.23.91-.57l-.28.49c-.11.2-.16.43-.15.66v.44c.02.5.35.93.83,1.08h0c.45.15.94.02,1.26-.33.93-1,2.94-3.08,4.3-3.3,1.47-.18,2.96-.25,4.44-.23.63.01,1.19.41,1.4,1h0c-.81.05-6.43,3-8.42,4-.63.31-1.06.91-1.16,1.6-.07.63.24,1.28,1.47,1,2.53-.76,5.01-1.69,7.41-2.81,0,0,2.46-.7,4,.42,2.24,1.58,3.26,2.16,5.18,1.53,1.17-.39,2.29-.92,3.34-1.56l3.79-.37s3.58-8.95-1.32-10.32Z" fill="#916b5c"/>
    <path d="m93.31,349.15s-.77-.2-2-.28c-1.65-.1-3.3.18-4.83.82-1.51.66-2.86,1.66-3.92,2.92-.82,1-1.17,1.68-1.21,1.66.06-.17.14-.34.24-.5.25-.44.53-.86.85-1.25,2.13-2.68,5.47-4.11,8.88-3.79.5.04,1,.13,1.49.25.17.04.34.09.5.17Z" fill="#6d5046"/>
    <path d="m92.21,346.52c-.69-.2-1.4-.32-2.12-.36-1.74-.01-3.45.47-4.93,1.39-1.47.94-2.82,2.07-4,3.36l-1.08,1.15c-.12.15-.27.29-.42.41.11-.16.23-.31.36-.46.24-.29.59-.7,1-1.2,1.16-1.33,2.51-2.49,4-3.43,1.5-.94,3.24-1.41,5-1.37.54.02,1.07.12,1.58.29.18.05.31.12.4.15l.21.07Z" fill="#6d5046"/>
    <path d="m152.13,291.38c-.06.29-.1.58-.12.87l-.24,2.51c-.19,2.22-.46,5.36-.78,9.21s-.69,8.54-1.1,13.68c-.1,1.28-.21,2.6-.31,4-.07,1.37-.23,2.73-.48,4.07-.25,1.34-.89,2.58-1.84,3.56-1.01.94-2.16,1.71-3.42,2.27-10.22,4.73-19.64,8.64-26.48,11.38l-8.15,3.14-2.21.87c-.26.09-.52.21-.76.34.27-.05.54-.13.79-.23l2.24-.78c1.94-.69,4.74-1.72,8.18-3,6.88-2.65,16.31-6.5,26.57-11.25,1.31-.59,2.51-1.39,3.55-2.37,1.03-1.05,1.73-2.38,2-3.83.24-1.37.4-2.75.47-4.14.1-1.34.2-2.66.29-3.95.38-5.14.71-9.78,1-13.69s.47-7,.62-9.23c.06-1,.11-1.89.15-2.51.03-.31.04-.61.03-.92Z" fill="#263238"/>
    <path d="m157.89,338.64c-.11-.75-.36-1.47-.73-2.12-1.64-3.27-4.52-5.75-8-6.87-.7-.26-1.45-.39-2.2-.38,0,.09.82.26,2.08.74,1.64.63,3.15,1.54,4.49,2.67,1.33,1.14,2.46,2.49,3.34,4,.64,1.19.93,1.99,1.02,1.96Z" fill="#263238"/>
    <g opacity=".3">
      <path d="m115.9,342.73c4.24-2.4,8.38-4.24,12.81-6.25s8.78-4.6,11.68-8.51c5.47-7.37,4.84-18,10.44-25.29-.36,4.89-.72,9.78-1.09,14.68-.34,4.48.35,8.92-2.54,12-2.43,2.57-7.18,4.54-10.54,5.65-6.75,2.22-14,5.53-20.76,7.76"/>
    </g>
    <path d="m36.73,340.76s-8.65,3.08-8.69,12.78c-.07,18.58,37.53,39.06,37.53,39.06l50.05-33.16,3.13-1.27s-67.54-25.38-82.02-17.41Z" fill="#263238"/>
    <path d="m90.27,376.19c-.46-.26-.9-.56-1.31-.89-.82-.59-2-1.48-3.42-2.58-2.86-2.22-6.76-5.36-11-9s-7.88-7-10.5-9.47c-1.32-1.25-2.36-2.28-3.08-3-.39-.35-.74-.74-1.07-1.15.43.3.84.63,1.21,1l3.22,2.9c2.68,2.43,6.41,5.76,10.6,9.36s8,6.77,10.85,9.05c1.34,1.11,2.46,2,3.32,2.71.42.32.82.68,1.18,1.07Z" fill="#455a64"/>
    <path d="m50.85,347.7c1.62-.26,3.28-.11,4.82.44,1.6.38,3.07,1.15,4.29,2.25-.08.13-1.91-1-4.43-1.76s-4.68-.77-4.68-.93Z" fill="#455a64"/>
    <path d="m55.21,344.77c1.21.41,2.26,1.19,3,2.23.86.94,1.4,2.11,1.56,3.37-.15.05-.7-1.51-2-3.05s-2.69-2.42-2.56-2.55Z" fill="#455a64"/>
    <path d="m40.3,314.37l14.24,38.35c.81,2.19,2.91,3.63,5.25,3.6l78.37-1v-6l-29.08,1.06-12.35-38.28c-.42-1.3-1.63-2.18-3-2.17l-50.52.17c-1.73,0-3.13,1.41-3.12,3.14,0,.39.07.77.21,1.13Z" fill="#e0e0e0"/>
    <path d="m40.3,314.37v-.12c0-.08-.07-.2-.1-.36-.11-.47-.11-.97,0-1.44.21-.77.7-1.43,1.38-1.85.43-.27.92-.42,1.42-.45h50.27c.73-.08,1.46.08,2.09.46.62.39,1.08.99,1.29,1.7,3.73,11.58,7.88,24.45,12.31,38.22v.08h.09l29.16-1.15-.13-.12v6l.13-.12-49.28.66-21.42.29-4.94.07h-2.4c-.77.04-1.55-.07-2.28-.33-1.42-.52-2.56-1.6-3.14-3l-1.54-4.13-9.4-25.21-2.6-6.83c-.59-1.56-.91-2.37-.91-2.37,0,0,.29.83.86,2.39l2.52,6.85,9.32,25.23,1.53,4.09c.6,1.45,1.77,2.59,3.24,3.14.75.27,1.55.39,2.35.35h2.4l4.94-.06,21.42-.27,49.28-.64h.12v-6.21h-.13l-29.08,1.07.13.08c-4.45-13.76-8.61-26.63-12.34-38.2-.23-.75-.72-1.4-1.39-1.82-.66-.39-1.43-.56-2.2-.49h-12.66l-14.78.12-21.09.1h-1.74c-1.33.11-2.45,1.05-2.79,2.34-.12.48-.12.98,0,1.46.02.16.05.32.09.47Z" fill="#263238"/>
    <path d="m75.05,328.87c-1.24-.63-2.73-.47-3.81.41-.91.87-1.21,2.2-.74,3.37.5,1.16,1.6,1.93,2.86,2,1.33.08,2.56-.74,3-2,.44-1.42-.1-2.95-1.33-3.78" fill="#fff"/>
    <path d="m57.14,394.68s70.62-45.23,73.74-47c2.65-1.51,9.75-5.88,16.74-3.95s13.27,8.21,16.41,17.37c1.79,5.24,2.64,14.18,3,20.88.48,8-.57,14.68-5.81,20.76-2.3,2.87-5.35,5.03-8.81,6.26-.74.23-1.5.43-2.29.6-13.37,2.89-28.54-1.79-36.05-13.22l-1.65-2.51s-46.25,17-47,16.75l-8.28-15.94Z" fill="#263238"/>
    <path d="m144.61,381.92l-.39.17-1.16.46-4.48,1.73-16.66,6.27c-7.07,2.64-15.55,5.78-25.06,9.24s-20.05,7.21-31.3,11.06l-.21.07-.1-.19c-1.77-3.37-3.63-6.94-5.52-10.55-1-1.84-1.93-3.67-2.82-5.38l-.11-.21.2-.12,53.93-34.24,16.2-10.23,4.4-2.75,1.15-.7c.26-.16.4-.23.4-.23,0,0-.12.1-.37.27l-1.13.74-4.37,2.85-16.11,10.35-53.83,34.37.09-.33c.9,1.7,1.85,3.53,2.82,5.37l5.52,10.56-.31-.13c11.25-3.8,21.8-7.57,31.32-11l25.09-9.14,16.71-6.13,4.52-1.64,1.17-.41c.13-.05.27-.1.41-.13Z" fill="#455a64"/>
    <path d="m106.46,220.65s-4.24,18.21-4.24,31v4.26s10.94,8.5,19.9,8.75l6.89-18.66-22.55-25.35Z" fill="#263238"/>
    <path d="m154.15,230.19c-2.33-8.74-3.44-19-10.95-24.47-5.57-4.08-11.8-5.07-18.69-4.56-3.39.26-7.18,2-10.08,3.72-4,2.43-5.55,7.14-7.37,11.44-3.65,8.6-2.78,20.06,0,23.16l36,17.56c6.95-3.91,11.33-5.52,12.16-15,.33-3.98-.03-7.99-1.07-11.85Z" fill="#263238"/>
    <path d="m142.66,212.74l-22.45-5.85c-7.22-.81-12.08,8.05-12.59,15.29-.56,8.05-.93,17.89,0,23.9,1.83,12.09,11.08,13.69,11.08,13.69,0,0,0,.18.07,3.77l-.05,5.82c-.06,2.36.71,4.67,2.18,6.51,3.43,4.15,9.44,4.53,16.42,1.68,4-1.64,6.79-4.78,7-8.95l2.2-51.52c.06-2.24-1.63-4.14-3.86-4.34Z" fill="#eead6a"/>
    <path d="m110.51,233.88c-.01.84.64,1.54,1.48,1.58.82.07,1.54-.54,1.61-1.36,0,0,0-.02,0-.03.01-.84-.64-1.53-1.48-1.57-.81-.08-1.53.51-1.61,1.32,0,.02,0,.04,0,.06Z" fill="#263238"/>
    <path d="m109.68,229.39c.19.2,1.37-.66,3-.64s2.88.86,3.07.65-.11-.45-.64-.84c-.72-.5-1.57-.78-2.45-.78-.87,0-1.72.26-2.42.77-.48.39-.66.75-.56.84Z" fill="#263238"/>
    <path d="m125.21,233.88c-.01.84.65,1.54,1.49,1.58.81.07,1.53-.54,1.6-1.35,0-.01,0-.03,0-.04.02-.84-.64-1.54-1.48-1.57-.81-.07-1.53.53-1.61,1.34,0,.01,0,.03,0,.04Z" fill="#263238"/>
    <path d="m126.06,229.05c.19.21,1.37-.65,3-.64s2.89.86,3.07.66-.1-.46-.64-.85c-.72-.51-1.57-.77-2.45-.77-.87,0-1.71.26-2.42.76-.48.39-.66.79-.56.84Z" fill="#263238"/>
    <path d="m119.92,240.06c-.87-.29-1.78-.46-2.7-.51-.43-.05-.83-.13-.9-.42-.03-.44.07-.88.3-1.26.4-1,.83-2.11,1.28-3.24,1.78-4.6,3.07-8.38,2.88-8.45s-1.78,3.6-3.56,8.2l-1.23,3.25c-.27.51-.35,1.1-.23,1.67.12.31.38.54.7.63.23.07.48.1.72.11.91.12,1.83.13,2.74.02Z" fill="#263238"/>
    <path d="m118.64,259.77c5.68.13,11.29-1.33,16.2-4.2,0,0-4,8.42-16.13,7.21l-.07-3.01Z" fill="#a78564"/>
    <path d="m125.41,243.21c-.48-.75-1.31-1.2-2.2-1.21-1.26-.11-2.48.49-3.18,1.55-.25.48-.3,1.04-.15,1.56.11.27,0,.14.23.32.69.72,1.54,1.25,2.48,1.56,1.04.27,2.14-.12,2.76-1,.54-.84.56-1.92.06-2.78Z" fill="#d0803f"/>
    <path d="m125.12,241.31c-.27,0-.3,1.79-1.86,3.05s-3.49,1-3.5,1.3c0,.11.42.35,1.23.38,1.06.02,2.1-.33,2.93-1,.8-.64,1.31-1.56,1.44-2.57.08-.72-.15-1.17-.24-1.16Z" fill="#263238"/>
    <path d="m125.21,223c.13.46,1.81.36,3.74.72s3.48,1,3.77.6c.13-.18-.12-.63-.73-1.1-1.65-1.2-3.76-1.57-5.72-1-.71.21-1.06.54-1.06.78Z" fill="#263238"/>
    <path d="m109.67,224.91c.39.31,1.58-.3,3.1-.59s2.84-.25,3.07-.69c.1-.21-.17-.55-.8-.8-1.72-.61-3.64-.22-5,1-.44.5-.55.92-.37,1.08Z" fill="#263238"/>
    <path d="m120.43,205.58c-.02.09-.04.18-.05.27h0l.05-.27Z" fill="#263238"/>
    <path d="m137.93,264c.24-3.17-1.14-6.31-.87-9.48.28-3.36,2.35-6.3,3.14-9.59,1.26-5.25-.88-10.73-1.77-16.09-3.1-.4-5.94-1.92-8-4.27-2.51-2.74-4.08-6.19-5.62-9.58.2,3.39,1.46,6.63,3.59,9.27-1.37.26-2.78-.15-3.8-1.1-1-.94-1.79-2.08-2.32-3.35-1.41-3.01-2.24-6.26-2.45-9.58-.3,4.75.38,9.52,2,14-.88-.13-1.77-.07-2.62.18-.86.25-1.79.09-2.51-.45-.39-.44-.65-.99-.73-1.58-.97-4.01-1.24-8.16-.8-12.27-1.08,2.21-1.93,4.52-2.55,6.9-.62,2.39-.56,4.9.18,7.26-.41.41-1.08.41-1.49,0-.4-.41-.65-.94-.71-1.5-.27-2.04-.2-4.1.2-6.12-1.14,2.18-1.46,4.67-2.05,7.05s-1.57,4.84-3.58,6.26c-.45-3.07-.45-6.2,0-9.27.47-2.58,1.3-5.09,2.47-7.44,1.09-2.61,2.68-4.99,4.67-7,3.46-3.23,5-1.94,7.3-.83l.27.11c0-.06,0-.11,0-.17l.09-.49c5.91-1.53,12.13-1.44,18,.26,4.91,1.73,9.12,5.01,12,9.35l.14.22c5.34,8.94,9.45,21.8,6.31,42.81h0l-18.49,6.49Z" fill="#263238"/>
    <path d="m104.58,288.4c-1.92,5.72-3.85,11.53-4.16,17.55s1.21,12.4,5.39,16.75" fill="#455a64"/>
    <path d="m105.81,322.7s-.11-.06-.29-.23c-.25-.24-.49-.5-.72-.77-.85-.99-1.59-2.08-2.18-3.24-1.88-3.89-2.71-8.21-2.41-12.53.33-4.28,1.2-8.49,2.6-12.55.51-1.56.95-2.81,1.27-3.66.14-.46.33-.9.55-1.32-.08.47-.2.93-.35,1.38-.3,1-.67,2.22-1.12,3.71-1.3,4.06-2.13,8.26-2.48,12.51-.28,4.23.5,8.47,2.27,12.33.8,1.55,1.76,3.01,2.86,4.37Z" fill="#263238"/>
    <path d="m173.21,291.38c.02.22.02.44,0,.66,0,.48-.05,1.11-.08,1.88-.08,1.63-.23,4-.45,6.9-.43,5.83-1.24,13.86-2,22.73-.29,4.2-.96,8.36-2,12.44-.41,1.8-1.03,3.54-1.84,5.2-.78,1.42-1.8,2.7-3,3.78-1.75,1.54-3.83,2.67-6.08,3.3-.6.17-1.22.31-1.84.41-.22.04-.44.06-.66.07,0-.06.89-.18,2.44-.68,2.18-.69,4.19-1.84,5.89-3.38,1.16-1.06,2.13-2.31,2.87-3.7.77-1.64,1.36-3.35,1.76-5.12,1.01-4.06,1.67-8.19,1.99-12.36.75-8.88,1.62-16.9,2.14-22.72.26-2.86.47-5.19.62-6.88.07-.77.13-1.39.17-1.88,0-.22.02-.44.07-.65Z" fill="#263238"/>
  </g>
</svg>