<?xml version="1.0" encoding="UTF-8"?>
<svg id="Layer_1" data-name="Layer 1" xmlns="http://www.w3.org/2000/svg" viewBox="0 0 704.72 412.67">
  <g id="freepik--background-complete--inject-47">
    <rect x="41.54" y="6.13" width="125.06" height="224.66" fill="#ebebeb"/>
    <rect x="46.53" y="12.64" width="113.78" height="211.46" fill="#fafafa"/>
    <polygon points="171.89 232.82 166.6 230.79 166.6 2.32 171.89 2.32 171.89 232.82" fill="#e0e0e0"/>
    <path d="m74.43,149.23l29.54-27.46c3.75-3.48,8.64-7.23,13.46-5.52,2.31.83,4.06,2.81,6.33,3.75,4.53,1.89,9.72-.84,13.2-4.3s6.25-7.79,10.47-10.3,10.79-2.19,12.88,2.26v29.89l-42.96,18.38-42.92-6.7Z" fill="#f5f5f5"/>
    <path d="m46.53,132.05c10.89-4.43,21.76-.66,29.55,8.14,1.64,1.85,3.13,4,5.39,5,3,1.39,6.58.35,9.91,0,9.33-.93,18.38,3.46,23.43,11.36l-36.35,17.83-31.93-.23v-42.1Z" fill="#e0e0e0"/>
    <path d="m160.35,132.2c-7.17-3.46-13.48.73-20.1,5.16s-12.76,10.12-20.53,11.9c-5.18,1.2-10.74.54-15.75,2.32-10.21,3.64-16.12,16.61-26.94,17.23-5.88.33-11.15-3.23-16.4-5.9s-9.38-5.21-14.06-1.64v62.83h113.78v-91.9Z" fill="#ebebeb"/>
    <rect x="46.53" y="73.47" width="116.25" height="2.25" fill="#e0e0e0"/>
    <rect x="46.53" y="123.83" width="116.25" height="2.25" fill="#e0e0e0"/>
    <rect x="46.53" y="174.19" width="116.25" height="2.25" fill="#e0e0e0"/>
    <rect x="100.54" y="74.6" width="5.75" height="155.5" fill="#e0e0e0"/>
    <rect x="68.44" y="12.64" width="2.6" height="61.96" fill="#e0e0e0"/>
    <rect x="90.9" y="12.64" width="2.6" height="61.96" fill="#e0e0e0"/>
    <rect x="113.36" y="12.64" width="2.6" height="61.96" fill="#e0e0e0"/>
    <rect x="135.82" y="12.64" width="2.6" height="61.96" fill="#e0e0e0"/>
    <rect x="36.25" y="2.32" width="5.29" height="229.87" fill="#e0e0e0"/>
    <rect x="36.25" width="135.64" height="6.13" fill="#e0e0e0"/>
    <rect x="32.49" y="233.57" width="142.97" height="5.71" fill="#e0e0e0"/>
    <polygon points="166.6 230.79 175.47 233.57 32.49 233.57 41.54 230.79 166.6 230.79" fill="#ebebeb"/>
    <rect x="534.9" y="6.13" width="125.06" height="224.66" fill="#ebebeb"/>
    <rect x="539.9" y="12.64" width="113.78" height="211.46" fill="#fafafa"/>
    <polygon points="665.25 232.82 659.96 230.79 659.96 2.32 665.25 2.32 665.25 232.82" fill="#e0e0e0"/>
    <path d="m567.79,149.23l29.56-27.46c3.74-3.48,8.64-7.23,13.45-5.52,2.32.83,4.06,2.81,6.33,3.75,4.54,1.89,9.72-.84,13.21-4.3s6.24-7.79,10.47-10.3,10.79-2.19,12.88,2.26v29.89l-43,18.38-42.9-6.7Z" fill="#f5f5f5"/>
    <path d="m539.9,132.05c10.89-4.43,21.75-.66,29.55,8.14,1.64,1.85,3.13,4,5.38,5,3.06,1.39,6.58.35,9.91,0,9.33-.93,18.39,3.46,23.44,11.36l-36.35,17.83-31.93-.23v-42.1Z" fill="#e0e0e0"/>
    <path d="m653.68,132.2c-7.17-3.46-13.49.73-20.1,5.16s-12.77,10.12-20.53,11.9c-5.19,1.2-10.74.54-15.75,2.32-10.22,3.64-16.12,16.61-27,17.23-5.88.33-11.15-3.23-16.39-5.9s-9.38-5.21-14.06-1.64v62.83h113.83v-91.9Z" fill="#ebebeb"/>
    <rect x="539.9" y="73.47" width="116.25" height="2.25" fill="#e0e0e0"/>
    <rect x="539.9" y="123.83" width="116.25" height="2.25" fill="#e0e0e0"/>
    <rect x="539.9" y="174.19" width="116.25" height="2.25" fill="#e0e0e0"/>
    <rect x="593.91" y="74.59" width="5.75" height="155.5" fill="#e0e0e0"/>
    <rect x="561.81" y="12.64" width="2.6" height="61.96" fill="#e0e0e0"/>
    <rect x="584.27" y="12.64" width="2.6" height="61.96" fill="#e0e0e0"/>
    <rect x="606.73" y="12.64" width="2.6" height="61.96" fill="#e0e0e0"/>
    <rect x="629.19" y="12.64" width="2.6" height="61.96" fill="#e0e0e0"/>
    <rect x="529.61" y="2.32" width="5.29" height="229.87" fill="#e0e0e0"/>
    <rect x="529.61" width="135.64" height="6.13" fill="#e0e0e0"/>
    <rect x="525.86" y="233.57" width="142.97" height="5.71" fill="#e0e0e0"/>
    <polygon points="659.96 230.79 668.83 233.57 525.86 233.57 534.9 230.79 659.96 230.79" fill="#ebebeb"/>
    <polygon points="330.31 14.1 330.31 83.52 230.6 83.52 227.01 14.58 330.31 14.1" fill="#e0e0e0"/>
    <rect x="227.01" y="14.58" width="99.71" height="68.79" fill="#fff"/>
    <path d="m327.19,83.85h-100.65V14.11h100.65v69.74Zm-99.71-1h98.77V15.06h-98.77v67.79Z" fill="#e0e0e0"/>
    <rect x="237.81" y="23.13" width="78.11" height="51.7" fill="#fff"/>
    <path d="m315.92,23.13h-5.78l-16.1.06-56.23.19.23-.22v51.69h0l-.25-.25h78.11l-.19.2c0-15.74.07-28.64.1-37.62v-14.13,3.6c0,2.4,0,5.89.05,10.36,0,9,.06,22,.11,37.74v.19h-78.56v-.24h0V22.78h.23l56.38.11,16,.06h5.33l.57.18Z" fill="#e0e0e0"/>
    <path d="m227.01,14.38c.62.3,1.19.67,1.72,1.11,1,.74,2.41,1.78,3.9,3s2.82,2.34,3.75,3.19c.54.43,1.02.92,1.43,1.46-.09.1-2.49-1.87-5.48-4.26-1.87-1.38-3.64-2.89-5.32-4.5Z" fill="#e0e0e0"/>
    <path d="m326.72,14.58c-1.64,1.62-3.39,3.11-5.25,4.47-1.75,1.49-3.6,2.86-5.55,4.08,1.64-1.61,3.4-3.11,5.25-4.47,1.75-1.49,3.61-2.85,5.55-4.08Z" fill="#e0e0e0"/>
    <path d="m326.64,83.38l-11.12-9" fill="#fff"/>
    <path d="m315.52,74.38c2,1.31,3.91,2.75,5.72,4.32,1.91,1.44,3.71,3,5.4,4.69-2-1.3-3.91-2.74-5.71-4.31-1.91-1.44-3.72-3.01-5.41-4.7Z" fill="#e0e0e0"/>
    <path d="m227.01,83.38c1.63-1.59,3.36-3.07,5.19-4.42,1.74-1.46,3.58-2.8,5.5-4-1.62,1.59-3.36,3.07-5.19,4.42-1.73,1.47-3.57,2.8-5.5,4Z" fill="#e0e0e0"/>
    <rect x="253.67" y="39.24" width="49.15" height="17.31" fill="#e0e0e0"/>
    <path d="m669.29,345.32c3.61-1.7,7.67-2.19,11.58-1.41,2.1.35,4.29,1,5.72,2.55s1.7,4.36.06,5.71c-1.06.72-2.34,1.04-3.61.92-3.06,0-6.46-.58-8.9,1.26-1.39,1-2.32,2.8-4,3.32-1.71.38-3.47-.4-4.34-1.93-.8-1.54-.97-3.33-.49-5,.41-2.33,1.88-4.33,3.98-5.42Z" fill="#ebebeb"/>
    <path d="m661.23,329.75c2.15,3.07,6.33,2.05,8.27.18s2.76-4.6,3.51-7.2c1.71-5.92,3.43-12.14,2.16-18.18-.31-1.83-1.12-3.54-2.33-4.94-1.25-1.41-3.16-2.04-5-1.66-2.11.55-3.42,2.62-4.36,4.59-2.8,5.8-4.26,12.16-4.29,18.6,0,3,.35,6.13,2,8.61" fill="#ebebeb"/>
    <path d="m655.35,334.16c2.25-2.94,2.9-6.79,1.74-10.3-1.18-3.45-3.29-6.51-6.09-8.84-3.19-2.84-6.9-5.03-10.92-6.45-1.56-.63-3.23-.91-4.91-.83-1.7.1-3.25,1.03-4.13,2.49-1.15,2.19,0,4.85,1.15,7,2.1,3.83,4.49,7.49,7.16,10.94,2.15,2.77,4.61,5.51,7.89,6.76s6.68,1.11,8.42-1.17" fill="#ebebeb"/>
    <path d="m661.08,376.13c.12-.46.18-.93.19-1.4.1-1,.23-2.29.38-3.81.19-1.88.47-3.74.85-5.59.49-2.25,1.16-4.46,2-6.6.83-2.15,1.97-4.17,3.37-6,1.14-1.48,2.6-2.69,4.26-3.54,1.13-.56,2.34-.94,3.59-1.12.47-.02.94-.08,1.39-.2-.47-.05-.95-.05-1.42,0-1.3.11-2.56.45-3.74,1-1.75.83-3.29,2.06-4.49,3.58-1.47,1.84-2.65,3.9-3.5,6.09-.86,2.18-1.53,4.42-2,6.71-.36,1.87-.61,3.76-.74,5.66-.12,1.62-.17,2.93-.19,3.84-.03.46-.02.92.05,1.38Z" fill="#e0e0e0"/>
    <path d="m661.35,373.2c.03-.22.03-.43,0-.65v-1.86c0-1.61,0-3.93.08-6.81.14-5.75.64-11.94,1.59-20.66.91-8.21,2.12-17.76,3.41-24,.27-1.41.55-2.69.81-3.8s.46-2.07.66-2.85.32-1.33.44-1.8c.06-.21.1-.42.11-.64-.1.19-.18.39-.22.6-.15.47-.32,1.06-.54,1.78s-.49,1.73-.77,2.84-.59,2.37-.89,3.78c-1.58,7.35-2.77,14.77-3.55,22.25-1,8.75-1.39,16.71-1.43,22.47,0,2.89,0,5.22.1,6.83.05.75.08,1.37.11,1.85,0,.23.04.45.09.67Z" fill="#e0e0e0"/>
    <path d="m661.35,357.84c.05-.65.05-1.29,0-1.94-.11-1.76-.31-3.5-.6-5.24-.42-2.58-.99-5.13-1.7-7.65-.84-3.08-1.91-6.08-3.2-9-2.21-5.41-5.38-10.36-9.37-14.63-.69-.74-1.43-1.42-2.21-2.05-.33-.29-.63-.58-.94-.8l-.86-.59c-.52-.38-1.06-.71-1.63-1,1.88,1.48,3.67,3.07,5.35,4.77,3.85,4.28,6.95,9.18,9.16,14.49,1.27,2.93,2.35,5.93,3.22,9,.73,2.49,1.34,5.02,1.81,7.57.4,2.18.63,4,.77,5.19.02.63.09,1.26.2,1.88Z" fill="#e0e0e0"/>
    <polygon points="646.54 384.93 648.08 406.01 675.16 406.01 676.7 384.93 646.54 384.93" fill="#e0e0e0"/>
    <rect x="643.92" y="376.62" width="36" height="8.31" fill="#e0e0e0"/>
    <polygon points="643.93 405.2 643.93 407.5 645.62 407.5 679.33 407.5 679.33 405.2 643.93 405.2" fill="#ebebeb"/>
    <polygon points="647.27 411.56 645.62 407.5 678.04 407.5 676.11 411.56 647.27 411.56" fill="#e0e0e0"/>
    <path d="m676.19,391.82s0,.07-.12.19l-.41.54c-.38.49-.91,1.16-1.57,2l-.07.08-.07-.09-3.88-5.36h.22l-3.81,5.4-.12.17-.13-.16-4.53-5.38h.26l-.25.31-4,5.07-.14.17-.12-.17-3.82-5.41h.22l-4.7,5.36-.08.1-.07-.11-1.47-2.47-.38-.66c-.08-.15-.12-.23-.11-.24l.16.21c.11.17.24.38.41.63l1.55,2.43h-.15l4.63-5.42.11-.14.11.15c1.17,1.63,2.47,3.44,3.85,5.38h-.26l4-5.08c.08-.11.17-.21.25-.31l.13-.16.13.15,4.51,5.4h-.25l3.85-5.38.11-.16.11.16,3.8,5.42h-.14l1.64-2,.44-.51c.1-.06.16-.12.16-.11Z" fill="#f5f5f5"/>
    <path d="m677.07,384.79c0,.09-6.78.17-15.15.17s-15.15-.08-15.15-.17,6.78-.17,15.15-.17,15.15.08,15.15.17Z" fill="#f5f5f5"/>
    <path d="m678.44,407.73c0,.09-7.37.17-16.47.17s-16.47-.08-16.47-.17,7.38-.17,16.47-.17,16.47.08,16.47.17Z" fill="#f5f5f5"/>
  </g>
  <g id="freepik--Floor--inject-47">
    <path d="m692.7,412.38c0,.14-155.08.26-346.33.26s-346.37-.16-346.37-.26,155-.26,346.37-.26,346.33.07,346.33.26Z" fill="#263238"/>
  </g>
  <g id="freepik--character-3--inject-47">
    <path d="m554.74,325.7l12.7,19.53,18.5-7.87,10.51-5.5,12.84,1.42-18.14,11.18h0l-17.71,16.63c-3.91,4.58-10.79,5.12-15.37,1.22-.97-.83-1.79-1.82-2.41-2.93l-14.39-25.59,13.47-8.09Z" fill="#ffbe9d"/>
    <path d="m673.98,384.43l14.22,9.56s13.42-11.88,16.22-10.37l-16.48,28.88-22.77-14,8.81-14.07Z" fill="#ff7200"/>
    <path d="m681.55,401.97c-.18.67.17,1.36.82,1.61.66.2,1.37-.15,1.61-.8.19-.71-.19-1.44-.88-1.7-.71-.14-1.41.3-1.58,1" fill="#fff"/>
    <path d="m687.94,412.5l-2.29-1.41,16.88-27.33c.66-.42,1.48-.48,2.19-.17l-16.78,28.91Z" fill="#fff"/>
    <path d="m688.35,393.45c.13.09-.23.82-.21,1.77s.38,1.68.24,1.77-.8-.61-.81-1.76.66-1.85.78-1.78Z" fill="#fff"/>
    <path d="m691.4,391.25c.16.05,0,.79.31,1.62s.83,1.35.74,1.49-.93-.27-1.27-1.31.09-1.88.22-1.8Z" fill="#fff"/>
    <path d="m695.99,391.77c0,.14-.85-.1-1.39-.92s-.43-1.65-.28-1.64.31.66.75,1.33,1,1.08.92,1.23Z" fill="#fff"/>
    <path d="m684.85,391.63c.09.13-.49.65-.92,1.46s-.56,1.57-.73,1.57-.29-.89.23-1.84,1.36-1.33,1.42-1.19Z" fill="#fff"/>
    <g opacity=".3">
      <polygon points="676.79 386.33 679.33 388.03 670.58 401.83 668.23 400.4 676.79 386.33"/>
    </g>
    <path d="m681.95,389.75c.06,0-.2.63-.89,1.41-.4.46-.86.86-1.37,1.2-.3.2-.61.38-.94.54-.18.11-.38.18-.59.22-.32.07-.64-.09-.78-.39-.1-.26-.08-.56.06-.8.11-.18.25-.34.41-.48.26-.26.54-.49.84-.7.52-.34,1.08-.6,1.67-.77.53-.21,1.11-.25,1.67-.12,0,.09-.63.14-1.54.5-.53.21-1.04.48-1.5.82-.27.2-.52.42-.75.66-.27.25-.43.5-.34.66s.05.07.18.07c.15-.04.29-.09.43-.17.31-.14.61-.3.9-.48.49-.29.95-.63,1.37-1,.73-.71,1.1-1.22,1.17-1.17Z" fill="#fff"/>
    <path d="m682.04,390.05c0,.07-.68,0-1.6-.47-.54-.3-1.03-.69-1.43-1.16-.24-.27-.45-.57-.63-.89-.29-.39-.35-.9-.16-1.35.17-.25.46-.38.76-.34.21.03.42.09.61.17.36.15.7.35,1,.6.48.41.85.92,1.08,1.51.39,1,.2,1.68.14,1.66-.14-.51-.31-1.01-.5-1.5-.24-.49-.58-.92-1-1.27-.26-.2-.54-.36-.84-.48-.33-.15-.64-.18-.68,0-.06.27,0,.56.16.78.16.29.34.57.55.83.36.44.78.83,1.24,1.15.71.5,1.32.68,1.3.76Z" fill="#fff"/>
    <path d="m640.92,396.32l4.12,7.51v8.84h36s1.47-3.14-.84-4.12-20.18-9.06-20.18-9.06l-7.46-11-11.64,7.83Z" fill="#ff7200"/>
    <polygon points="645.04 412.67 645.04 410.28 681.46 411.48 681 412.67 645.04 412.67" fill="#fff"/>
    <circle cx="650.84" cy="405.34" r="1.53" fill="#fff"/>
    <path d="m663.12,400.9c.09.12-.56.75-1.24,1.6s-1.16,1.61-1.29,1.55.15-1,.89-1.88,1.56-1.38,1.64-1.27Z" fill="#fff"/>
    <path d="m659.86,399.26c.06.14-.47.53-1,1.1s-.94,1.1-1.07,1,.07-.77.69-1.41,1.32-.81,1.38-.69Z" fill="#fff"/>
    <path d="m657.71,396.56c0,.15-.61.25-1.26.59s-1.09.76-1.22.68.2-.75,1-1.14,1.49-.31,1.48-.13Z" fill="#fff"/>
    <path d="m666.87,402.69c.09.12-.29.59-.72,1.18s-.77,1.1-.9,1,0-.7.48-1.34,1.05-.94,1.14-.84Z" fill="#fff"/>
    <path d="m658.08,396.51h0v.12s-.09.08-.13.08h-.16c-.33.03-.67.01-1-.05-.48-.09-.94-.25-1.38-.47-.28-.13-.53-.31-.75-.53-.31-.31-.35-.8-.09-1.15.26-.26.63-.39,1-.34.3.02.6.1.88.23.46.21.86.53,1.16.93.5.71.47,1.28.41,1.27s-.18-.48-.69-1c-.3-.32-.66-.57-1.07-.73-.41-.17-1.09-.26-1.33,0-.09.16-.05.36.08.49.17.17.37.32.59.43.39.23.81.41,1.24.54.29.09.59.16.89.21h.21c.06,0,0,0,0,0l.14-.03Z" fill="#fff"/>
    <path d="m657.89,396.73s-.14-.11-.21-.4c-.07-.39-.07-.8,0-1.19.08-.57.2-1.14.36-1.69.09-.32.19-.64.31-1,.08-.2.19-.39.33-.55.2-.22.53-.28.8-.16.21.12.38.31.47.53.09.19.14.39.16.6.03.37-.01.74-.12,1.09-.19.57-.46,1.1-.82,1.58-.61.8-1.17,1.11-1.2,1.06s.4-.47.9-1.27c.29-.47.51-.97.65-1.5.09-.29.11-.6.08-.9-.01-.28-.14-.54-.35-.72-.08-.09-.31.13-.42.42s-.24.64-.33.94c-.2.6-.35,1.15-.46,1.62-.14.5-.19,1.02-.15,1.54Z" fill="#fff"/>
    <path d="m619.13,346.77s9.75.76,13.23,3.05,46.83,35.92,46.83,35.92l-11.15,15.85-29.41-15.37-19.5-39.45Z" fill="#263238"/>
    <path d="m515.35,385.19s3.71,16.25,4.66,18.76c1.35,3.52,15.17,11.51,32.05,7.19,17.44-4.46,59-38.2,59-38.2l4.15,3.05,26,24.12s14.91-6.15,14.91-12.31c0,0-31.56-48.17-34.44-49.08s-5.83-1.8-9.32-1.07-56,29.52-56,29.52h0l-41.01,18.02Z" fill="#263238"/>
    <path d="m641.16,400.11l.36-.11,1-.39c1.3-.5,2.56-1.07,3.79-1.72,1.92-.98,3.72-2.18,5.37-3.56,1.02-.85,1.96-1.8,2.8-2.83.96-1.13,1.71-2.42,2.23-3.81v-.14l-10.2-15.07c-6-8.81-11.56-16.7-15.7-22.33-2.06-2.81-3.76-5.07-5-6.62l-1.38-1.78-.36-.45c-.09-.11-.13-.16-.14-.15l.1.17.34.48,1.32,1.82,4.85,6.7c4.07,5.66,9.59,13.57,15.59,22.38l10.24,15.05v-.15c-.51,1.34-1.23,2.6-2.15,3.7-.82,1.02-1.73,1.96-2.73,2.81-1.63,1.39-3.4,2.59-5.29,3.6-1.21.66-2.46,1.27-3.73,1.8l-1,.44-.31.16Z" fill="#455a64"/>
    <path d="m611.26,365.51c1.18,2.39,1.1,5.22-.23,7.53-.15-.06.49-1.67.54-3.75s-.46-3.73-.31-3.78Z" fill="#455a64"/>
    <path d="m614.91,366.91c-.6,2.27-1.79,4.34-3.45,6,.46-1.05,1.02-2.06,1.67-3,.5-1.05,1.1-2.06,1.78-3Z" fill="#455a64"/>
    <path d="m547.56,290.71c-1.08,3.12.81,6.45,2.85,9.05s4.42,5.33,4.46,8.63c-.13,1.78-.5,3.53-1.12,5.21-.61,1.69-.55,3.55.16,5.2,1,1.8,3.17,2.71,4.08,4.55.61,1.38.61,2.94,0,4.32-.62,1.35-1.44,2.61-2.41,3.74-.46.59-1.14,1.24-1.84,1-.41-.21-.72-.57-.87-1-3.84-7.72-7.46-15.54-10.86-23.47-.82-1.67-1.36-3.46-1.61-5.3-.31-3.86,2-7.59,1.6-11.45" fill="#263238"/>
    <path d="m588.96,338.51c5.17-1.86,10.5-3.27,15.91-4.23.33.35-.11,1.53-.51,1.83-.46.35-.99.59-1.55.71-.54.06-1.07.21-1.57.43-.66.46-1.18,1.1-1.5,1.84-1.43,2.32-4.8,3.83-8.1,3.63" fill="#ffbe9d"/>
    <path d="m591.64,342.72c.11.03.23.05.34.05.33.02.67.02,1,0,1.21-.06,2.41-.34,3.52-.83.78-.34,1.5-.78,2.14-1.33.36-.3.7-.64,1-1,.29-.39.53-.84.78-1.25.23-.42.58-.77,1-1,.49-.18.99-.31,1.51-.37.57-.14,1.1-.39,1.57-.75.24-.22.41-.49.52-.79.13-.3.19-.62.17-.94-.02-.14-.08-.27-.17-.38l-.06-.07h-.11c-3.84.65-7.63,1.59-11.34,2.8-1.42.46-2.56.85-3.34,1.14-.41.13-.82.29-1.2.49.42-.09.84-.2,1.25-.34l3.37-1c3.71-1.14,7.49-2.03,11.32-2.68l-.17-.06s.05.1.06.16c0,.51-.2,1-.54,1.37-.42.32-.9.55-1.41.68-.55.07-1.08.21-1.59.41-.5.25-.9.64-1.17,1.13-.78,1.58-2.1,2.84-3.71,3.55-1.08.49-2.24.81-3.42.92-.85.08-1.32.05-1.32.09Z" fill="#eb996e"/>
    <path d="m578.16,357.61h0c-.8-1.25-.43-2.9.82-3.7.01,0,.02-.01.03-.02l31.47-19.34,5.74-39.4c.17-1.11,1.13-1.93,2.26-1.91h0c1.24.03,2.22,1.05,2.19,2.29,0,.08,0,.16-.02.24l-5.51,41.39-36.98,20.45Z" fill="#455a64"/>
    <path d="m519.1,294.98c-.89.86-13.16,5.62-14.28,15.67-.5,4.49,11.18,80,11.18,80l1.37.39c8.06,2.36,16.74-.51,21.81-7.2l2.3-3.09c1.86-2.48,4.09-4.66,6.61-6.46l12.4-9.44-9-8.27.88-9.19s4-14.1,1.76-21.15-12.86-21.86-12.86-21.86l-5.26-5.92-16.91-3.48Z" fill="#ff7200"/>
    <path d="m517.53,382.94s.18.17.54.43c.23.16.46.3.7.43.32.19.66.36,1,.5.86.39,1.76.69,2.68.9,1.13.24,2.29.36,3.45.35,1.16-.03,2.31-.19,3.43-.46.92-.24,1.81-.58,2.66-1,.33-.16.64-.33.95-.53.24-.13.47-.28.68-.45.36-.27.55-.43.53-.45s-.84.53-2.28,1.18c-.84.37-1.72.67-2.62.88-1.1.25-2.23.39-3.36.42-1.13.01-2.25-.09-3.36-.31-.91-.18-1.79-.45-2.65-.8-1.53-.59-2.31-1.16-2.35-1.09Z" fill="#263238"/>
    <path d="m518.23,376.51c.37.4.8.74,1.27,1,1.11.7,2.31,1.24,3.57,1.6,1.26.37,2.57.55,3.88.54.54.04,1.09-.03,1.61-.18-1.81-.06-3.62-.3-5.38-.74-1.72-.56-3.38-1.31-4.95-2.22Z" fill="#263238"/>
    <path d="m514.85,299.21s12.34-3,15.43,8.88c2.23,8.14,4.97,16.14,8.2,23.94l-28.26,5.94s-9.23-31.37,4.63-38.76Z" fill="#ff7200"/>
    <path d="m542.04,345.32c.45,0,.89-.08,1.3-.27,2.05-.73,3.78-2.14,4.91-4,.25-.37.43-.78.53-1.22-1.54,2.56-3.92,4.5-6.74,5.48h0Z" fill="#263238"/>
    <path d="m509.35,333.04c-.02-.36-.09-.72-.19-1.07-.15-.67-.34-1.66-.55-2.88-1.11-6.36-1.07-12.87.14-19.22.23-1.22.44-2.2.6-2.87.11-.34.17-.7.2-1.06-.15.32-.26.66-.35,1-.21.66-.46,1.64-.73,2.85-.66,3.18-.99,6.41-1,9.66-.03,3.25.28,6.49.91,9.68.25,1.22.49,2.19.68,2.86.07.36.17.71.29,1.05Z" fill="#263238"/>
    <path d="m510.22,337.97c.19,0,.38-.03.56-.08l1.62-.3,6-1.2,20.15-4.17h.23l-.08-.22c-.58-1.49-1.15-3.06-1.7-4.68-1.51-4.42-2.79-8.68-3.77-12.61-.25-1-.44-2-.71-2.88s-.56-1.82-.87-2.66-.65-1.66-1-2.43c-.29-.76-.65-1.48-1.08-2.17-.82-1.15-1.83-2.14-3-2.93-.86-.6-1.79-1.1-2.77-1.47-.62-.24-1.26-.4-1.92-.48-.23-.03-.47-.03-.7,0,0,0,.24,0,.69.08.64.11,1.27.29,1.87.54.96.4,1.86.9,2.7,1.51,1.12.79,2.08,1.77,2.85,2.9.4.68.74,1.4,1,2.14.32.77.64,1.57,1,2.42s.59,1.72.85,2.64.44,1.89.69,2.88c1,3.94,2.23,8.22,3.74,12.65.56,1.62,1.13,3.2,1.71,4.69l.14-.26-20.07,4.26-6,1.31-1.6.37c-.18.04-.36.09-.53.15Z" fill="#263238"/>
    <path d="m509.11,330.85c1.74.55,3.61,1.09,5.33.52,1.23-.58,2.4-1.29,3.49-2.11,2.06-1.18,4.54-1.34,6.9-1.63s4.87-.84,6.53-2.55c-1.64.52-3.39-.07-5.11-.13-1.07,0-2.14.11-3.19.33l-7.79,1.32c-.7.15-1.42.21-2.13.16-.74-.08-1.45-.37-2.19-.42-.77-.11-1.52.3-1.85,1" fill="#fff"/>
    <path d="m532.68,313.8c-.2-.53-.23-1.06-.43-1.58l-.38-.13c-2.65.02-5.28.52-7.76,1.48-1.27.61-2.62,1.06-4,1.33-1.68.2-3.46-.31-5.06.26,1.44,1.34,3.61,1.54,5.56,1.29,1.92-.41,3.86-.7,5.82-.88,1.88,0,3.8.52,5.62,0,.29-.06.55-.2.74-.42.19-.44.14-.94-.11-1.35Z" fill="#fff"/>
    <path d="m546.23,311.74c-.61,1.35-1.3,2.66-2.07,3.92-.38.58-.92,1.03-1.54,1.33-.59.16-1.2.25-1.81.25-1.3.11-2.54.61-3.57,1.42.94.11,1.89.2,2.84.25,1.75.11,3.73,0,4.94-1.27.97-1.32,1.72-2.78,2.22-4.33l-1.01-1.57Z" fill="#fff"/>
    <path d="m548.61,327.23c0-.12-.17-.16-.29-.19l-2.08-.52c-1.02-.3-2.08-.48-3.15-.51-1.37,0-2.89.41-4-.35-.44-.36-.85-.76-1.23-1.18-.63-.57-1.43-.92-2.28-1l1.42,2.93c.31.56.91.9,1.55.86.62,0,1.23-.19,1.85-.25,1.36-.03,2.72.19,4,.65,1.29.47,2.71.47,4,0,.1-.15.26-.29.21-.44Z" fill="#fff"/>
    <path d="m547.4,337.78c-.59.31-1.27.4-1.92.26-.5-.18-.9-.63-1.42-.7-1.13-.15-1.86,1.51-3,1.43-.93-.07-1.35-1.23-2.15-1.7-.78-.46-1.78-.2-2.23.58-.17.29-.24.62-.22.95l1,2.08c.81.85,2.19.46,3.36.41.64,0,1.27.07,1.91.05.91-.07,1.81-.29,2.66-.64,1.29-.49,2.53-1.08,3.73-1.76,1-.56,2-1.31,2.13-2.42l-3.85,1.46Z" fill="#fff"/>
    <path d="m511.96,361.97c1.91-.13,3.69.92,5.55,1.42,4.86,1.31,10-1.19,15-.61-2.23,1.28-4.58,2.36-7,3.22-2.85,1.15-5.95,1.57-9,1.22-1.4-.37-2.84-.61-4.28-.73" fill="#fff"/>
    <path d="m543.97,368.51c-.97,1.42-2.26,2.58-3.78,3.38-1.58,1.05-3.26,1.97-5,2.73-4.37,1.79-9.24,1.81-14,1.79,3.37,2.42,7.67,3.15,11.65,2,.58-.21,1.19-.35,1.8-.42,1.09-.05,2.13.5,3.22.59,1.9.16,3.61-1.09,5.11-2.27,2.73-1.94,5.15-4.27,7.21-6.91l-5.47-.54" fill="#fff"/>
    <g opacity=".3">
      <path d="m532.5,372.38c-2-1.13-4.52-2.33-5.81-4.26-1-1.46-1.06-3.43-1.82-5-1.04-2.08-1.92-4.22-2.64-6.43-2.07-6.78-4.64-12.95-6.71-19.73l-2,.25c1.53,8.17,4.77,15.91,7.13,23.89.8,3.26,1.92,6.43,3.35,9.46,1.57,3,4,5.62,7.2,6.64s7.15,0,8.85-2.89c-2.66.16-5.3-.52-7.55-1.93Z"/>
    </g>
    <path d="m534.42,333.11l7.43,18,32.5-6.24,14.36-11.16,4,.55,6.55-.17,5.82,3.14,1,.17-27.1,16.78-31.47,17.92c-4.2,2.81-9.53,3.35-14.21,1.45h0c-3.98-1.61-7.09-4.83-8.57-8.86l-10.14-27.52,19.83-4.06Z" fill="#ffbe9d"/>
    <path d="m604.71,337.04c-.57-.21-1.16-.36-1.76-.45-1.1-.22-2.62-.51-4.31-.81l-1.57-.26h-.09c-1.27.4-2.36.76-3.13,1-.42.12-.83.29-1.21.5.44-.03.87-.12,1.28-.26.79-.21,1.9-.52,3.17-.9h-.09l1.57.28c1.69.3,3.22.54,4.33.7.59.14,1.2.21,1.81.2Z" fill="#eb996e"/>
    <path d="m603.03,339.16c-1.77-.22-3.55-.32-5.33-.28h-1.35c-1.26.52-2.47,1.14-3.62,1.86,1.3-.4,2.56-.91,3.78-1.51h-.08,1.27c1.78.11,3.56.08,5.33-.07Z" fill="#eb996e"/>
    <path d="m534.42,333.11c.03.12.06.23.11.34.1.25.22.58.38,1l1.47,3.69,5.31,13.05v.13h.15l15.6-3,16.91-3.28h0l10.35-8.15,2.89-2.3.76-.62.25-.23c-.1.05-.2.11-.29.18l-.78.58-2.95,2.23c-2.55,2-6.15,4.73-10.45,8h.08l-16.88,3.22-15.6,3,.2.1-5.45-13c-.66-1.55-1.19-2.78-1.56-3.66-.18-.39-.32-.71-.43-1-.02-.09-.04-.19-.07-.28Z" fill="#eb996e"/>
    <path d="m537.35,364c.19-.66.32-1.32.41-2,.63-3.22,1.75-6.32,3.33-9.2.37-.58.71-1.18,1-1.8-.48.5-.88,1.05-1.21,1.66-.87,1.41-1.59,2.91-2.16,4.47-.56,1.56-.97,3.18-1.2,4.82-.14.67-.2,1.36-.17,2.05Z" fill="#eb996e"/>
    <path d="m519.01,349.02c-2.09,1.87-5,2.37-7.64,3.36-.11,0-.23.1-.25.21,0,.09.03.19.1.25.7.56,1.62.75,2.49.52,2.03-.17,4.04-.52,6-1.05.22-.06.46-.16.53-.37.03-.17,0-.35-.08-.5l-1.14-2.73" fill="#fff"/>
    <path d="m523.35,251.75c.55-1.35.96-2.75,1.21-4.18.24-1.45,0-2.94-.7-4.23-1.37-2.04-3.84-3.04-6.24-2.53-2.35.55-4.42,1.95-5.81,3.93-.86,1.14-1.57,2.6-1.13,4,.51,1.14,1.43,2.05,2.59,2.52,2.87,1.52,6.02,2.44,9.26,2.71" fill="#263238"/>
    <path d="m516.43,241.23c-.44.36-.77.85-.92,1.4-.12.61-.12,1.24,0,1.85.09.77.29,1.51.6,2.22.54,1.29,1.56,2.31,2.85,2.86.56.18,1.13.31,1.71.4-.6.21-1.25.19-1.83-.05-1.45-.49-2.62-1.59-3.2-3-.33-.75-.54-1.55-.61-2.37-.09-.67-.03-1.35.15-2,.14-.45.42-.85.81-1.12.24-.2.43-.22.44-.19Z" fill="#455a64"/>
    <path d="m523.41,242.57c0,.09-.51.15-1.28.41-1.01.32-1.94.85-2.74,1.54-.8.69-1.45,1.53-1.93,2.47-.37.73-.51,1.23-.59,1.21-.05-.47.04-.94.25-1.36.84-2.13,2.67-3.71,4.91-4.22.45-.14.92-.15,1.38-.05Z" fill="#455a64"/>
    <path d="m519.35,253.71c-.54,0-1.08.1-1.62.1-.55.05-1.09-.2-1.41-.65-.23-.51-.14-1.11.24-1.53.38-.4.85-.71,1.36-.92l4.93-2.49c.31-.18.65-.31,1-.38.37-.06.74.06,1,.33.45.55,0,1.38-.48,1.86-.91.83-1.92,1.54-3,2.11-.74.47-1.44.99-2.09,1.57" fill="#ff7200"/>
    <path d="m548.77,254.38c2.9,1.96,4.41,5.42,3.89,8.88-.3,1.28-.88,2.56-.63,3.85.36,1.09.9,2.11,1.62,3,2.57,4.26,1.19,9.79-3.06,12.35-2.46,1.48-5.49,1.7-8.14.59" fill="#263238"/>
    <path d="m550.68,271.1c7.83-17.22-10.8-25.87-21-23-9.55,2.69-13.63,7.45-15.2,13.84-1.72,6.41-1.37,13.2,1,19.4,1.23,3,3.46,6.05,6.68,6.42" fill="#263238"/>
    <path d="m541.58,306.81c.14-8.22.16-13.12.16-13.07s7.07-1.18,8.54-10.41c.73-4.59.5-12.11.11-18.26-.35-5.54-4-12.33-9.54-11.75l-17.22,4.35c-1.68.18-2.94,1.61-2.91,3.3h0l1.13,35.63" fill="#ffbe9d"/>
    <path d="m548.35,271.12c.01.64-.48,1.17-1.12,1.2-.62.06-1.17-.4-1.23-1.02,0,0,0-.02,0-.03-.01-.64.48-1.17,1.12-1.2.62-.06,1.17.4,1.23,1.02,0,0,0,.02,0,.03Z" fill="#263238"/>
    <path d="m536.25,271.12c.01.64-.48,1.17-1.12,1.2-.62.05-1.17-.41-1.22-1.03,0,0,0-.01,0-.02-.02-.64.48-1.17,1.12-1.2.62-.05,1.17.41,1.22,1.03,0,0,0,.01,0,.02Z" fill="#263238"/>
    <path d="m548.58,268.55c-.14.16-1.06-.47-2.33-.43s-2.19.72-2.33.57.07-.36.47-.66c.54-.4,1.19-.63,1.86-.65.66-.02,1.31.17,1.86.54.4.29.54.56.47.63Z" fill="#263238"/>
    <path d="m536.49,268.86c-.14.15-1-.52-2.31-.52s-2.21.63-2.35.47.08-.34.49-.64c.55-.38,1.21-.58,1.88-.57.66,0,1.31.21,1.85.6.38.31.52.59.44.66Z" fill="#263238"/>
    <path d="m540.86,278.66c.67-.21,1.37-.33,2.07-.37.32,0,.63-.1.69-.32.03-.35-.04-.7-.22-1-.31-.79-.63-1.62-1-2.48-.9-2.1-1.62-4.26-2.16-6.48,1.07,2.05,1.98,4.18,2.71,6.37l.92,2.49c.21.39.27.85.17,1.28-.09.23-.29.41-.53.47-.18.05-.36.08-.55.08-.7.08-1.41.07-2.1-.04Z" fill="#263238"/>
    <path d="m541.74,293.74c-4.35.07-8.63-1.08-12.36-3.3,0,0,3.12,6.42,12.36,5.56v-2.26Z" fill="#eb996e"/>
    <path d="m540.35,281.73c-.5-.62-1.27-.94-2.06-.85-.57.05-1.09.33-1.44.78-.35.43-.4,1.04-.11,1.52.42.46,1.08.63,1.67.42.6-.23,1.16-.56,1.63-1,.15-.1.27-.23.37-.38.1-.14.1-.33,0-.47" fill="#eb996e"/>
    <path d="m537.11,279.54c.21,0,.21,1.38,1.39,2.36s2.66.83,2.67,1-.33.27-1,.28c-.81.02-1.6-.26-2.23-.77-.61-.5-1-1.22-1.08-2,0-.53.16-.87.25-.87Z" fill="#263238"/>
    <path d="m536.81,266.99c-.13.34-1.4.18-2.89.36s-2.71.59-2.9.28c-.09-.15.12-.48.61-.81.64-.42,1.38-.69,2.15-.76.76-.08,1.54,0,2.26.27.55.22.82.49.77.66Z" fill="#263238"/>
    <path d="m548.29,265.29c-.23.29-1.1,0-2.16,0s-1.95.19-2.15-.11c-.09-.15,0-.44.44-.71,1.07-.67,2.44-.62,3.47.11.37.28.46.57.4.71Z" fill="#263238"/>
    <path d="m522.35,273.06c-.14-.07-4.94-2.19-5,3.33s5.5,4.45,5.51,4.29-.51-7.62-.51-7.62Z" fill="#ffbe9d"/>
    <path d="m521.16,278.57s-.1.06-.26.14c-.23.1-.49.1-.72,0-.72-.46-1.14-1.28-1.08-2.14,0-.48.09-.95.28-1.38.11-.35.38-.62.73-.73.23-.06.47.05.57.27.07.15,0,.26.06.27s.12-.09.08-.32c-.03-.13-.1-.25-.21-.34-.15-.12-.34-.17-.53-.15-.46.09-.84.41-1,.85-.24.47-.36,1-.35,1.53-.06,1,.48,1.95,1.38,2.4.3.1.62.05.88-.13.16-.14.19-.26.17-.27Z" fill="#eb996e"/>
    <path d="m504.62,297.76c.57-1.38,1.33-2.67,2.26-3.84l.45-.61c-2.46-1.8-3.46-4.74-3-8.48.27-2.22,1.14-3.72,4.68-8.09,2.88-3.68,4.64-8.11,5.07-12.76l2.45,7-1,8.12,2.35,4.83,1.45.6,2.26-3.71c1.54,4.17,3.07,5.47,6.16,7.59s6.79,3.17,8.77,7.95c4.74,11.38-1.28,21.78-2.11,22.53,0,0-2.73-12.73-5.66-15.42-3.46-3.2-5.88-5-10.11-4.61-3,.53-4.88.5-7,2.68-1,1-2,2.28-3.39,2.55-1.51.19-2.98-.62-3.62-2-.57-1.39-.58-2.94-.01-4.33Z" fill="#263238"/>
    <path d="m519.02,270.54c1.32-.09,1.91,1.62,2,2.93s.56,3,1.88,3.09c1,.05,1.77-1.08,1.85-2.11s-.26-2.06-.24-3.09c.16-1.82,1.06-3.49,2.49-4.62,1.34-1.19,2.93-2.08,4.35-3.17,3.29-2.53,6.42-5.17,7.31-9.22,4,2.49,7.34,3.89,11.39,6.38-.16-2.47-1.35-4.77-3.29-6.31-1.93-1.52-4.15-2.62-6.53-3.24-3.9-1.29-8.05-1.6-12.1-.91-4.07.72-7.68,3.06-10,6.49-2.28,3.51-2.36,8.01-.22,11.61" fill="#263238"/>
    <path d="m523.01,250.71c4.79,2.45,10.09,3.75,15.47,3.8-.77.2-1.57.27-2.37.21-1.92,0-3.84-.24-5.71-.71-1.87-.45-3.67-1.13-5.38-2-.73-.33-1.41-.77-2.01-1.3Z" fill="#455a64"/>
    <path d="m521.19,252.38c.16,1.2.5,2.37,1,3.47.58,1.16,1.4,2.18,2.4,3,2.44,2.17,5.96,2.63,8.88,1.17,1.19-.55,2.24-1.33,3.11-2.31.77-.94,1.39-1.99,1.85-3.11-.01.34-.09.68-.23,1-.31.86-.76,1.66-1.34,2.37-.86,1.06-1.95,1.93-3.18,2.52-1.52.74-3.22,1.03-4.9.84-1.67-.25-3.23-.97-4.5-2.08-1.04-.89-1.87-2-2.43-3.25-.38-.83-.61-1.73-.69-2.64-.05-.33-.04-.66.03-.98Z" fill="#455a64"/>
    <path d="m540.48,249.65s.27.22.44.73c.4,1.36.01,2.84-1,3.83-.39.36-.71.48-.74.43.55-.71.97-1.5,1.27-2.34.15-.88.16-1.77.03-2.65Z" fill="#455a64"/>
    <path d="m546.57,251.92c.06,0,.26.35.34,1,.2,1.79-.73,3.52-2.34,4.34-.59.3-1,.33-1,.26.98-.57,1.81-1.36,2.42-2.31.44-1.04.64-2.16.58-3.29Z" fill="#455a64"/>
    <path d="m533.96,315.51c.47-.97.85-1.97,1.16-3,1.95-6.91-2.07-14.09-8.98-16.04-.34-.1-.68-.18-1.02-.25-2.36-.53-4.94-.63-7.6-1.08-1.37-.21-2.72-.59-4-1.12-1.32-.57-2.51-1.41-3.48-2.47-.99-1.08-1.6-2.45-1.76-3.9-.09-1.41.17-2.81.76-4.09,1.1-2.51,2.89-4.44,4.1-6.53,1.12-2,1.81-4.22,2-6.5.27-2.15.35-4.18.57-6,.19-2.97,1.26-5.82,3.06-8.19.52-.61,1.13-1.14,1.81-1.57.23-.15.43-.23.55-.3s.19-.09.2-.08c-.91.56-1.73,1.26-2.41,2.08-1.7,2.37-2.69,5.18-2.84,8.1-.2,1.83-.26,3.86-.51,6-.2,2.35-.9,4.63-2.06,6.69-1.24,2.15-3,4.08-4,6.5-.55,1.2-.8,2.51-.72,3.83.15,1.34.73,2.6,1.64,3.6,1.84,2.1,4.57,3,7.14,3.44s5.2.56,7.62,1.12c2.32.48,4.48,1.56,6.25,3.13,1.55,1.37,2.76,3.08,3.53,5,1.1,2.78,1.23,5.85.35,8.71-.29,1.04-.75,2.03-1.36,2.92Z" fill="#455a64"/>
  </g>
  <g id="freepik--big-speech-bubble--inject-47">
    <path d="m482.23,169.67h-255.17c-13.99,0-25.33,11.35-25.34,25.34v145.75c0,13.99,11.35,25.33,25.34,25.34h106l34.29,43.73,32.51-43.73h82.41c13.99,0,25.33-11.35,25.34-25.34v-145.75c0-14-11.36-25.35-25.36-25.34,0,0-.01,0-.02,0Z" fill="#fff"/>
    <path d="m508.17,197.11c.07-2.39-.1-4.79-.5-7.15-.86-4.11-2.68-7.96-5.32-11.23-2.09-2.6-4.66-4.76-7.59-6.36l-.16-.08c-1.09-.6-2.23-1.11-3.41-1.53-.93-.35-1.88-.65-2.85-.87l-.3-.07c-1.43-.34-2.89-.53-4.36-.59l-1.46-.06h-2.6l-252.24-.2c-.58,0-1.16,0-1.74.07l-1,.05c-.58,0-1.16.14-1.75.24l-1,.15c-.58.12-1.15.27-1.72.42l-.93.24c-11.09,3.46-18.56,13.82-18.35,25.43v146.27c.02.94.1,1.87.26,2.8.32,2.16.9,4.26,1.73,6.28,1.74,4.02,4.44,7.56,7.86,10.29,3.45,2.75,7.56,4.57,11.92,5.28l1.65.25,1.61.08c.78.05,1.55.05,2.3.05h104.46l34.24,43.7c.09.13.24.2.4.2h0c.16,0,.31-.08.4-.21l32.47-43.7h80.34c5.18.25,10.33-1,14.82-3.6,6.56-3.82,11.13-10.31,12.5-17.78l.27-1.77c.06-.4.09-.81.09-1.21v-.6c.07-.86.06-1.71.06-2.54v-1l-.1-141.25Zm-20.34-26.24l.29.07c.93.22,1.84.5,2.73.85,1.12.41,2.2.91,3.25,1.48l.17.09c2.78,1.53,5.23,3.6,7.21,6.09,2.49,3.14,4.2,6.82,5,10.74.38,2.28.54,4.6.46,6.91l-.07,141.28v1c0,.81,0,1.65-.06,2.46v.63c0,.36-.03.72-.08,1.08l-.26,1.71c-.41,2.29-1.16,4.51-2.22,6.58-1.03,2.11-2.38,4.05-4,5.76-1.62,1.76-3.51,3.26-5.58,4.45-4.29,2.45-9.19,3.61-14.12,3.33h-80.85c-.16,0-.31.07-.4.2l-32,43-33.73-43.07c-.09-.12-.24-.19-.39-.19h-107.04l-1.54-.07-1.57-.24c-4.1-.68-7.96-2.4-11.21-5-3.23-2.57-5.77-5.89-7.39-9.68-.78-1.9-1.33-3.89-1.64-5.92-.24-1.76-.34-3.54-.29-5.31v-143.56c-.07-3.6.64-7.16,2.1-10.45,2.89-6.49,8.41-11.43,15.18-13.58l.93-.24c.54-.14,1.08-.28,1.58-.39l.94-.15c.55-.08,1.09-.17,1.62-.22h.93c.56,0,1.11-.07,1.67-.07h107.76l107.61-.09,36.86-.07h2.58l1.46.1c1.38.04,2.76.2,4.11.49h0Z" fill="#263238"/>
    <path d="m269.52,258.38c-4.64-1.37-9.59.8-11.72,5.14-2.49-5.12-8.66-7.25-13.78-4.75-4.08,1.99-6.38,6.41-5.67,10.89.81,5.2,4.67,9.22,8.44,12.9,4.07,4,7.34,7.07,11.56,11.25h0c.05.09,9.88-10.75,9.88-10.75,3.47-4.21,7.18-7.73,8.46-13.23,1.13-4.78-2.48-10.01-7.17-11.45Z" fill="#ff7200"/>
  </g>
  <g>
    <path d="m303.22,238.03c18.14-1.18,29.16-1.18,36.58,10.82,7.44,11.99-18.83,53.96,7.95,61.04,26.78,7.08,39.86-14.61,50.95-35.97,11.12-21.33,16.39-46.94,16.42-59.75" fill="none" stroke="#f49f35" stroke-linecap="round" stroke-linejoin="round" stroke-width="32"/>
    <path d="m307.2,314.86c7.95-10.67,17.23-12.47,28.98-13.98" fill="none" stroke="#f49f35" stroke-linecap="round" stroke-linejoin="round" stroke-width="32"/>
  </g>
  <g id="freepik--Plant--inject-47">
    <polygon points="279.64 142.98 283.74 169.93 307.56 169.93 313.1 143.37 279.64 142.98" fill="#ff7200"/>
    <path d="m309.76,160.25c0,.08-6.1.14-13.63.14s-13.63-.06-13.63-.14,6.1-.14,13.63-.14,13.63.06,13.63.14Z" fill="#fafafa"/>
    <path d="m309.86,158.93c0,.07-6.15.14-13.73.14s-13.73-.07-13.73-.14,6.15-.14,13.73-.14,13.73.06,13.73.14Z" fill="#fafafa"/>
    <path d="m309.81,157.43c0,.08-6.15.14-13.73.14s-13.72-.06-13.72-.14,6.14-.14,13.72-.14,13.73.09,13.73.14Z" fill="#fafafa"/>
    <path d="m286.48,168.38c-.33-1.11-.58-2.24-.73-3.39-.24-1.13-.39-2.28-.46-3.44.34,1.11.59,2.24.73,3.39.24,1.13.39,2.28.46,3.44Z" fill="#fafafa"/>
    <path d="m288.1,168.1c-.17-1.1-.27-2.2-.3-3.31-.12-1.1-.17-2.21-.15-3.32.25,1.09.4,2.19.43,3.31.12,1.1.13,2.22.02,3.32Z" fill="#fafafa"/>
    <path d="m291.05,168.1c-.32-1.11-.53-2.24-.62-3.39-.17-1.14-.24-2.3-.18-3.45.22,1.13.37,2.27.46,3.42.18,1.13.29,2.27.34,3.42Z" fill="#fafafa"/>
    <path d="m293.13,168.25c-.23-1.14-.34-2.29-.33-3.45-.08-1.16-.05-2.32.1-3.47.13,1.15.19,2.3.18,3.46.08,1.15.1,2.31.05,3.46Z" fill="#fafafa"/>
    <path d="m296.8,168.1c-.18-1.08-.26-2.17-.25-3.27-.09-1.09-.09-2.19,0-3.28.18,1.08.27,2.17.26,3.27.09,1.09.08,2.19-.01,3.28Z" fill="#fafafa"/>
    <path d="m299.48,168.25c-.13-1.12-.17-2.26-.11-3.39-.04-1.13.02-2.26.16-3.38.13,1.12.17,2.25.12,3.38.04,1.13-.02,2.27-.17,3.39Z" fill="#fafafa"/>
    <path d="m301.99,167.89c-.02-1.18.04-2.37.2-3.54.07-1.18.23-2.36.49-3.51.02,1.18-.05,2.36-.21,3.53-.07,1.18-.23,2.36-.48,3.52Z" fill="#fafafa"/>
    <path d="m305.23,167.53c.1-2.03.54-4.02,1.29-5.91-.14,1.01-.35,2.01-.61,3-.17.98-.4,1.95-.68,2.91Z" fill="#fafafa"/>
    <path d="m276.91,137.64v5.05c0,1.1.9,2,2,2h34.44c1.1,0,2-.9,2-2v-5.05h-38.44Z" fill="#ff7200"/>
    <g opacity=".4">
      <polygon points="279.9 144.67 280.18 146.28 312.02 148.55 312.82 144.67 279.9 144.67"/>
    </g>
    <path d="m282.1,137.67s-13.41-15.46-11.92-16,13.41,8,13.41,8c0,0-10.24-22.91-8.19-24.59s12.85,20.3,12.85,20.3c0,0-1.68-32.05,0-32.42s7.82,32,7.82,32c0,0,9.13-29.58,11.74-29.58s-2.79,28.51-2.79,28.51c0,0,10.8-18.26,12.48-15.84s-7.64,22.17-7.64,22.17c0,0,13.6-11.36,14.16-9.87s-14.67,17.32-14.67,17.32h-27.25Z" fill="#455a64"/>
    <path d="m280.23,114.38c.09,0,2.47,5.06,5.31,11.4s5.08,11.5,5,11.54-2.47-5.06-5.31-11.39-5.09-11.5-5-11.55Z" fill="#263238"/>
    <path d="m291.07,117.23c.1,0,.49,4.49.88,10s.62,10.06.51,10.07-.49-4.49-.88-10-.62-10.06-.51-10.07Z" fill="#263238"/>
    <path d="m306.01,102.89c0,.12-.04.24-.08.36-.08.27-.17.61-.29,1l-1.12,3.73c-.95,3.15-2.22,7.51-3.52,12.36s-2.36,9.27-3.11,12.48c-.37,1.56-.67,2.84-.89,3.79-.1.42-.18.76-.25,1-.02.12-.06.24-.11.36v-.37c0-.24.11-.63.18-1.05.17-.9.43-2.21.77-3.82.69-3.22,1.72-7.65,3-12.51s2.61-9.21,3.62-12.35c.5-1.57.93-2.83,1.23-3.7.15-.4.27-.73.36-1,.06-.1.13-.2.21-.28Z" fill="#263238"/>
    <path d="m312.47,119.38c.09.06-2.53,4-5.84,8.72s-6.07,8.56-6.15,8.51,2.53-4,5.85-8.72,6.02-8.51,6.14-8.51Z" fill="#263238"/>
    <path d="m286.63,137.38c-.43-.22-.83-.5-1.17-.84-.9-.74-1.75-1.52-2.56-2.35-.94-1-1.74-1.91-2.29-2.61-.32-.37-.59-.77-.81-1.2.09-.06,1.48,1.62,3.37,3.55s3.53,3.33,3.46,3.45Z" fill="#263238"/>
    <path d="m294.78,131.2c.43,2.11.63,4.26.58,6.41-.28-1.04-.44-2.11-.48-3.19-.16-1.07-.2-2.15-.1-3.22Z" fill="#263238"/>
  </g>
  <g id="freepik--character-2--inject-47">
    <path d="m428.7,43.38c-2.1-7.28-5.06-14.3-6.83-21.67l-12.36-.61c-2,2.82-2.06,6.64-1.19,10s2.54,6.43,3.77,9.68,2,6.84,1,10.15c-1.32,4.34-5.39,7.32-7.06,11.53s-.64,9.1.42,13.58c.24,1.71.93,3.32,2,4.67,1.84,1.92,4.93,2,7.5,1.3,7.32-2,12.58-8.85,14.33-16.22s.53-15.11-1.58-22.41Z" fill="#263238"/>
    <path d="m414.86,56.04s-9.5.61-13.85,9.09c-.76,1.48-5.52,20.4-10.24,38.15-6.69,25.18-13.53,53.68-13.53,53.68l9.23,1.8s14-42.8,17.14-46.33c3-3.32,15.16-53.1,11.38-56.28" fill="#c69481"/>
    <path d="m375.73,162.38l-12,1.33-7.38,4.67s-.14,1.5,2,1.25l4.13-1.74-3.29,3.49s.79,1.44,2.59.43c1.12-.65,2.11-1.5,2.91-2.51l7.22-.51s-5.46,5.25-4.46,6.62,1.66,1.08,2.45.57,1.22-2.22,3-2.8,4.76-2.25,8-3.78c2.76-1.31,5.57-10.68,5.57-10.68l-9.23-1.8-1.51,5.46Z" fill="#c69481"/>
    <path d="m370.95,165.47c-2.24.62-4.52,1.05-6.83,1.31h-.1l.15-.09c-1.53,1.7-3.21,3.28-5,4.71,1.39-1.82,2.92-3.52,4.58-5.1l.07-.06h.19c2.29-.44,4.61-.7,6.94-.77Z" fill="#936457"/>
    <polygon points="447.84 238.03 445.6 218.61 427.6 223.65 432.14 242.27 447.84 238.03" fill="#c69481"/>
    <path d="m448.04,237.97l3,22.63,7.57,17.21c.52,1.18,0,2.55-1.19,3.07-.05.02-.11.05-.16.07h0c-.71.26-1.5.16-2.12-.28-4-2.76-18.49-13-18.62-14.64-.15-1.93-4.79-23.66-4.79-23.66l16.31-4.4Z" fill="#455a64"/>
    <g opacity=".6">
      <path d="m457.35,280.95l-21-16.44.15.95c.13.83.55,1.58,1.18,2.13,1.7,1.46,6.48,5.38,17.46,13.09.64.45,1.46.55,2.19.27h.02Z" fill="#fff"/>
    </g>
    <g opacity=".6">
      <path d="m439.8,256.5c.64.33.93,1.1.67,1.77-.3.66-1.07.96-1.74.68-.68-.35-.99-1.17-.7-1.88.39-.65,1.23-.87,1.89-.5" fill="#fff"/>
    </g>
    <path d="m450.59,271.91c.43-.79,1.01-1.49,1.7-2.07.78-.45,1.63-.76,2.52-.91,0-.05-.3-.18-.84-.18-1.44.08-2.71.97-3.26,2.3-.19.51-.17.85-.12.86Z" fill="#263238"/>
    <path d="m452.68,274.67c.12.08.73-.76,1.84-1.28.71-.25,1.43-.46,2.16-.63-.77-.34-1.66-.27-2.37.18-1.27.59-1.76,1.69-1.63,1.73Z" fill="#263238"/>
    <path d="m446.99,268.51c.85-.79,1.76-1.52,2.72-2.18,1.04-.51,2.12-.95,3.22-1.3-2.49-.1-4.81,1.26-5.94,3.48h0Z" fill="#263238"/>
    <path d="m445.49,261.71c.08.12,1.25-.59,2.86-.91s3-.13,3-.27c-2.02-.72-4.26-.26-5.84,1.18h-.02Z" fill="#263238"/>
    <path d="m444.43,255.09c.93-.46,1.93-.8,2.95-1,1.04-.05,2.09.05,3.11.28,0,0-.26-.29-.83-.51-.75-.27-1.55-.36-2.34-.26-.79.09-1.55.37-2.21.82-.5.32-.76.62-.68.67Z" fill="#263238"/>
    <path d="m447.14,252.81c.03-.29,0-.58-.1-.86-.19-.77-.53-1.49-1-2.12-.31-.5-.78-.88-1.33-1.08-.38-.1-.78.05-1,.37-.2.32-.27.71-.2,1.08.36,1.54,1.76,2.62,3.34,2.57,1.55-.09,2.9-1.1,3.41-2.57.12-.37.08-.77-.11-1.11-.23-.3-.63-.43-1-.33-.53.21-1,.55-1.36,1-.54.59-.97,1.26-1.27,2-.13.26-.21.55-.22.84.45-.94,1.04-1.82,1.74-2.59.33-.37.75-.66,1.21-.85.21-.07.43,0,.56.18.1.23.1.5,0,.73-.48,1.26-1.66,2.11-3,2.19-1.34.04-2.52-.85-2.86-2.14-.06-.25-.02-.52.1-.75.12-.19.35-.28.56-.22.46.17.86.49,1.14.9.62.83,1.09,1.77,1.39,2.76Z" fill="#263238"/>
    <path d="m503.28,126.77c-15.88-2.89-48.62,5.11-48.62,5.11l-7-8h-36.9l-6.41,15,17.47,26,4.06,15.34s17.27-2.74,16.54-2.65,11.08-2.45,11.8-2.55c28.81-3.93,44.17-16.07,52.76-24.66,8.81-8.78,2.37-22.49-3.7-23.59Z" fill="#263238"/>
    <path d="m428.91,182.72c-.08-.52-.31-1.91-.78-4.78-.25-1.53-.57-3.39-1-5.54-.2-1.07-.43-2.21-.7-3.42-.14-.6-.29-1.21-.46-1.84-.09-.31-.19-.63-.3-.95-.1-.34-.27-.66-.49-.94l-.05.23c6.85-2.43,15.42-5.65,24.55-9.49,5.61-2.39,10.9-4.8,15.56-7.31,2.23-1.17,4.36-2.51,6.39-4,1.89-1.4,3.58-2.8,5.16-4,2.41-2.03,5.15-3.63,8.09-4.75.47-.17.94-.31,1.42-.42.35-.1.7-.17,1.06-.23l.66-.12c.08,0,.15-.02.22-.05h-.23l-.66.08c-.36.04-.72.11-1.07.2-.49.1-.97.23-1.44.39-1.3.42-2.55.98-3.73,1.66-1.56.9-3.05,1.9-4.47,3-1.6,1.21-3.29,2.59-5.18,4-2.03,1.45-4.16,2.76-6.37,3.91-4.65,2.48-9.94,4.88-15.55,7.27-9.12,3.84-17.67,7.08-24.5,9.55l-.19.07.14.16c.19.25.33.54.43.84.11.3.2.61.29.92.18.62.33,1.23.47,1.83.28,1.2.52,2.34.73,3.41.43,2.13.77,4,1.05,5.52s.5,2.69.65,3.52c.08.41.15.72.2.92.02.12.05.24.1.36Z" fill="#455a64"/>
    <path d="m406.2,126.83l-.33,4.9s-4.13,7.83-4.51,14.84c-.22,4.08-.31,10.09-.35,14.4-.03,3.48.93,6.89,2.77,9.84l10.9,10.14,6.76,24.94,8.71,30.15,18-4.67-2.64-63.34c-.06-8.66-4-18.8-8.95-29.32l-1.7-13.93-28.66,2.05Z" fill="#263238"/>
    <path d="m448.19,222.38c-.01-.09-.01-.18,0-.27,0-.21,0-.47-.07-.79,0-.74-.11-1.76-.19-3.05-.15-2.69-.37-6.52-.63-11.23-.48-9.52-1.14-22.6-1.87-37-.24-3.62-.15-7.18-.92-10.48-.71-3.18-1.95-6.22-3.66-9-1.56-2.51-3.5-4.76-5.74-6.68-1.97-1.66-4.16-3.04-6.5-4.1-3.4-1.56-7.06-2.46-10.8-2.65-1.32-.06-2.35,0-3,0h-1.07c1.36-.21,2.74-.29,4.12-.24,9.57.22,18.38,5.25,23.44,13.38,1.75,2.82,3.02,5.91,3.75,9.14.79,3.39.7,7,.94,10.57.67,14.45,1.28,27.53,1.72,37,.19,4.72.35,8.54.46,11.24,0,1.29.07,2.32.1,3.05v.8c-.01.11-.04.21-.08.31Z" fill="#455a64"/>
    <path d="m435.66,182.81c.67-2.01,1.51-3.96,2.5-5.83.85-1.94,1.85-3.82,3-5.6-.67,2.01-1.51,3.96-2.5,5.83-.85,1.94-1.85,3.82-3,5.6Z" fill="#455a64"/>
    <path d="m423.08,174.18c1,1.74,1.7,3.64,2.06,5.61-.58-.83-1.01-1.75-1.28-2.72-.43-.91-.69-1.89-.78-2.89Z" fill="#455a64"/>
    <path d="m414.03,166.7c.04.17.06.34.06.51,0,.39.06.86.09,1.44.07,1.34.17,3.13.29,5.32.07,4.5,1.42,10.57,2.95,17.25s3.16,12.68,4.45,17c.63,2.16,1.2,3.88,1.61,5.07.24.61.45,1.22.63,1.85-.1-.14-.18-.29-.24-.45-.14-.3-.35-.74-.58-1.33-.47-1.17-1.1-2.88-1.78-5-1.38-4.28-3-10.28-4.6-17s-2.83-12.82-2.81-17.35c-.09-2.25-.12-4.07-.12-5.33v-1.45c0-.18,0-.36.05-.53Z" fill="#455a64"/>
    <path d="m454.9,135.51c0,.08-1,.53-2.43,1.64-1.84,1.46-3.34,3.3-4.4,5.4-1.03,2.12-1.7,4.39-2,6.72-.24,1.79-.25,2.92-.34,2.92-.07-.26-.1-.52-.09-.79-.02-.72,0-1.45.07-2.17.2-2.4.85-4.75,1.92-6.91,1.08-2.17,2.67-4.05,4.64-5.47.59-.42,1.23-.79,1.89-1.09.23-.13.48-.21.74-.25Z" fill="#455a64"/>
    <path d="m481.92,134.13c.1.13-1.51,1.44-3.1,3.41s-2.58,3.79-2.72,3.72c1.09-2.96,3.14-5.47,5.82-7.13Z" fill="#455a64"/>
    <path d="m439.16,147.86c-.09,0,0-1.29-.05-3.34-.12-2.69-.44-5.36-.95-8-.57-3-1.09-5.77-1.5-7.94-.25-1.09-.41-2.2-.49-3.32.37,1.06.65,2.14.85,3.24.45,2,1.09,4.81,1.66,7.93.51,2.66.78,5.36.79,8.07,0,.82-.04,1.64-.14,2.46,0,.31-.06.61-.17.9Z" fill="#455a64"/>
    <path d="m439.1,126.48s.09-.12.33-.19c.84-.18,1.66.36,1.84,1.2.02.09.03.19.03.28,0,.71-.44,1.35-1.11,1.6-.69.23-1.44-.03-1.84-.63-.48-.66-.33-1.59.33-2.07.11-.08.23-.15.36-.19.24-.08.38,0,.38,0,0,0-.54.18-.84.86-.15.38-.09.82.16,1.14.29.4.81.57,1.28.41.46-.18.77-.62.8-1.11.01-.41-.19-.79-.54-1-.36-.21-.77-.31-1.18-.3Z" fill="#455a64"/>
    <path d="m425.87,84.47c-.41-1.09-.47-2.29-.2-3.42.11-1.16.56-2.27,1.29-3.18.14.07-.48,1.45-.77,3.26s-.17,3.32-.32,3.34Z" fill="#936457"/>
    <path d="m450.63,92.94c-.73-1.55-1.27-3.18-1.6-4.86-.5-1.62-.8-3.3-.9-5,.6,1.6,1.07,3.24,1.4,4.92.5,1.61.87,3.27,1.1,4.94Z" fill="#263238"/>
    <path d="m441.35,54.7h-21.58l-4.91,1.34v.61s1.13,29.11,8.72,32.81,31.32-29.6,31.32-29.6l-13.55-5.16Z" fill="#c69481"/>
    <path d="m450.49,58.18l2.18.83c-7.29,26.7-1,64.56-1,64.56l-45.51,3.26s-3.59-.65-4.57-3.91,10.44-66.44,10.44-66.44l2.11-.45s7.49,27.33,11.4,28.48,24.95-26.33,24.95-26.33Z" fill="#ff7200"/>
    <g opacity=".3">
      <path d="m451.68,119.06c-2.35.59-17.5-4.49-19.92-4.61-2.2-.12-4.3.79-6.43,1.37-4.64,1.24-9.55.94-14-.85-.53-.18-1.01-.47-1.41-.87-.4-.49-.51-1.17-.27-1.76,4.09-.05,8.17.13,12.26.09.84.06,1.68-.1,2.43-.48.19-.1.34-.25.43-.44,0,0,2.45-.09,3.32-.09,2,0,4.24.15,6.21.14.86,0,3.62.12,3.56.12"/>
    </g>
    <g opacity=".3">
      <path d="m428.09,91.95c.27,2.25,1.33,4.33,3,5.87,1.68,1.53,3.94,2.26,6.2,2,2.26-.31,4.21-1.74,5.17-3.81-5.05,1.79-10.68.35-14.26-3.63"/>
    </g>
    <path d="m443.59,95.1s-.18.2-.57.47c-.57.36-1.17.66-1.8.9-4.31,1.64-9.18.4-12.18-3.09-.44-.5-.83-1.05-1.16-1.64-.22-.42-.31-.66-.28-.68s.56.89,1.71,2.08c1.5,1.55,3.39,2.65,5.47,3.19,2.09.51,4.28.42,6.32-.25,1.57-.46,2.44-1.06,2.49-.98Z" fill="#263238"/>
    <polygon points="419.12 97.81 414.36 87.54 397.99 86.52 397.41 87.47 409.82 111.38 424.78 111.51 419.12 97.81" fill="#455a64"/>
    <path d="m418.54,98.76l-4.76-10.26-16.37-1,11.83,24.88,13.28.1c.79,0,1.55-.28,2.14-.81l.12-.11-6.24-12.8Z" fill="#455a64"/>
    <path d="m406.13,92.3c.34.3.86.28,1.16-.06.3-.34.28-.86-.06-1.16-.34-.3-.85-.28-1.16.06-.3.33-.28.84.04,1.14,0,0,.01.01.02.02Z" fill="#ebebeb"/>
    <path d="m437.8,101.3l-6.4-1.64c-1.57-2.22-4.06-3.62-6.78-3.79l-2.27-.14-1.65,1.65s-11.1-.21-11.59,1.13v.7l9.43,1.23s-8.06-.53-8.54-.55-2.24-.27-2.27.67c0,.78.87,1.45,2.25,1.74.56.12,7.5,1.17,7.5,1.17l-7.67-.55c-.86-.06-.84,1.32-.34,1.53s10.05,3.65,10.05,3.65c-.93.54-1.98.83-3.06.82-1.35-.18-3.56-2.06-4.09-1.27s-.47,1.28-.19,1.49c1.41.91,2.88,1.71,4.4,2.41,1,.35,11.77-.19,11.77-.19l10,2.65-.55-12.71Z" fill="#c69481"/>
    <path d="m416.92,97.27c1.3-.05,2.6-.02,3.9.1,1.3.03,2.6.14,3.88.34-1.3.05-2.6.01-3.9-.1-1.3-.04-2.59-.15-3.88-.34Z" fill="#936457"/>
    <path d="m417.63,96.81s-.11-.21-.29-.61l-.79-1.71-2.66-5.93h.06l-3.75-.24-9.05-.6-2.74-.2-.74-.07h-.26,1.01l2.74.15,9.05.56,3.75.24h0l2.62,5.95c.29.69.54,1.27.74,1.73s.31.73.31.73Z" fill="#263238"/>
    <path d="m454.9,59.86s3.83,1.24,5.5,7.47c2,7.3,10.4,45.86,9,50-1,3.2-1.92,5.2-6.35,5s-24.7-8.33-24.7-8.33l-.5-12.7,16,1.82-4.71-15.65,1.58-22.52,4.18-5.09Z" fill="#c69481"/>
    <path d="m462,110.81c-.4-.43-.73-.92-1-1.44-.71-1.19-1.52-2.32-2.43-3.36-.91-1.02-2.04-1.83-3.29-2.38-1-.41-1.64-.53-1.62-.61.6-.06,1.2.03,1.75.27,1.37.47,2.59,1.29,3.55,2.37.94,1.07,1.74,2.25,2.36,3.53.31.5.54,1.05.68,1.62Z" fill="#936457"/>
    <path d="m422.01,8.59c0-1.55-1.79-2.65-3.32-2.39-1.53.38-2.8,1.44-3.44,2.88-.72,1.37-1.54,3.28-2.39,4.57-3.37,5.18-4,6.9-5,10.94-.73,2.83-.05,6,.71,8.8.84,2.81,1.99,5.52,3.44,8.07.89,1.53,1.65,3.14,2.26,4.8.6,1.68.66,3.51.15,5.23-.1.22-.12.46-.06.69.15.34.62.35,1,.26,1.78-.59,3.08-2.14,3.33-4,.2-1.84-.08-3.7-.82-5.39-.65-1.72-1.48-3.38-2-5.16-1.05-3.89-.32-8-.14-12-.02-2.27.14-4.54.48-6.79.34-2.27,1.55-4.32,3.38-5.72.78-.41,1.52-.91,2.2-1.47.68-.61.83-1.61.37-2.4" fill="#263238"/>
    <path d="m420.68,52.44s.05-2.35.05-2.32-7-1.33-8.19-10.47c-.61-4.55-.21-12,.32-18,.47-5.46,4.25-12.08,9.69-11.37l16.9,4.7c1.65.21,2.2,1.62,2.12,3.29l.12.78-1.41,26.03-.48,4.36c-.25,5-4.9,18.55-10.21,18.69h0c-5.13.25-8.91-2.08-8.91-15.69Z" fill="#c69481"/>
    <path d="m415.56,28.53c-.01.63.47,1.16,1.1,1.2.6.07,1.15-.35,1.23-.96,0-.01,0-.03,0-.04.03-.63-.46-1.17-1.09-1.21-.62-.06-1.18.39-1.24,1.01h0Z" fill="#263238"/>
    <path d="m427.54,29.22c-.01.63.47,1.16,1.1,1.2.62.06,1.17-.38,1.23-1h0c.03-.64-.46-1.18-1.1-1.21-.62-.06-1.17.38-1.23,1,0,0,0,0,0,.01Z" fill="#263238"/>
    <path d="m414.43,25.76c.14.16,1-.48,2.3-.44s2.16.68,2.3.53-.07-.34-.47-.65c-.53-.39-1.18-.6-1.84-.61-.65-.02-1.29.17-1.83.54-.4.25-.54.56-.46.63Z" fill="#263238"/>
    <path d="m426.78,26.65c.14.15,1-.48,2.3-.45s2.16.68,2.3.53-.07-.34-.47-.64c-.54-.39-1.18-.61-1.84-.62-.65-.02-1.29.18-1.83.55-.4.28-.53.56-.46.63Z" fill="#263238"/>
    <path d="m421.95,35.26c-.65-.22-1.32-.36-2-.42-.32,0-.63-.11-.67-.33-.02-.33.06-.66.23-.95l1-2.42c.93-2.05,1.69-4.17,2.28-6.35-1.09,1.97-2.02,4.03-2.79,6.15-.33.85-.66,1.66-1,2.44-.21.38-.28.82-.2,1.25.09.24.28.42.52.49.18.05.36.08.54.09.69.1,1.39.12,2.09.05Z" fill="#263238"/>
    <path d="m420.73,50.12c4.29.16,8.54-.88,12.28-3,0,0-3.23,6.36-12.33,5.29l.05-2.29Z" fill="#936457"/>
    <path d="m426.8,22.26c.15.33,1.39.09,2.87.18s2.71.41,2.88.1c.08-.16-.15-.46-.65-.77-.66-.37-1.4-.58-2.16-.61-.76-.04-1.52.09-2.22.4-.52.26-.78.54-.72.7Z" fill="#263238"/>
    <path d="m414.62,21.89c.25.29,1.28,0,2.52,0s2.27.25,2.52-.05c.1-.14-.05-.43-.5-.71-.61-.35-1.3-.52-2-.52-.7,0-1.39.18-2,.53-.51.31-.65.6-.54.75Z" fill="#263238"/>
    <path d="m423.2,37.79c.35-.44.87-.7,1.43-.71.63.01,1.22.3,1.63.78h0l.06.06h0c.16.17.25.39.28.62,0,.53-.25,1.02-.68,1.32-.67.51-1.59.55-2.3.09-.68-.5-.86-1.44-.42-2.16Z" fill="#936457"/>
    <path d="m426.15,36.68c-.07,0-.13.29-.33.7-.25.53-.65.98-1.15,1.29-.51.29-1.09.43-1.68.4-.46,0-.75-.11-.78,0s.23.26.73.38c1.4.3,2.8-.53,3.2-1.91.14-.54.07-.86,0-.86Z" fill="#263238"/>
    <path d="m420.47,10.38c.1.94-.28,1.86-1,2.46-.71.59-1.47,1.1-2.28,1.54-2.43,1.51-3.63,4.82-4.76,7.45-2-3.81,1.07-8.75,3.61-11.73.44-.56.98-1.02,1.59-1.38.61-.34,1.35-.38,2-.12" fill="#263238"/>
    <path d="m450,53.29c-5.34-16.18,1.21-19.09-.76-29.46-.82-4.25-5.1-10.46-8-13.68-3.6-3.77-8.6-5.89-13.81-5.87-1.92-.15-3.84.32-5.48,1.33-1.65,1.07-2.35,3.14-1.69,5l.14,1.22c1.08,2,3.67,2.62,6,2.74s4.77.06,6.6,1.43c1.55,1.14,2.28,3.06,2.93,4.86,2.1,5.79-2.93,8.21,2.57,10.51,3.17,1.32-.35,6.85-2.21,12.84h0c-2.69,9.13-3.58,18.7-2.62,28.17.51,4.41,1.56,9.13,4.89,12.06,1.69,1.48,3.81,2.36,6.05,2.52-.43-1.61-.43-3.3,0-4.91,1.43,1.2,1.49,3.08,3.3,3.56-1.28-2,.63-5.68,1.5-7.9s2.26-4.22,3.16-6.44v-1.26c.12-5.65-.74-11.27-2.54-16.63l-.03-.09Z" fill="#263238"/>
    <path d="m438.75,32.16c.08-1.47,1.34-2.59,2.81-2.51.4.02.79.13,1.13.33.91.56,1.59,1.64,1.47,3.7-.35,5.48-5.78,4-5.78,3.85s.21-3.1.37-5.37Z" fill="#c69481"/>
    <path d="m440.18,35.56s.09.07.25.15c.22.12.48.14.71.06.74-.4,1.21-1.16,1.23-2,.05-.47-.02-.94-.18-1.38-.08-.35-.33-.65-.67-.78-.22-.08-.47.01-.58.22-.09.15-.06.26-.09.27s-.11-.1-.05-.32c.04-.13.12-.25.23-.33.16-.1.35-.14.54-.11.45.12.81.47.95.92.2.49.28,1.02.23,1.54,0,1-.61,1.91-1.54,2.29-.3.07-.62,0-.86-.2-.17-.2-.19-.32-.17-.33Z" fill="#263238"/>
    <path d="m438.09,39.3c-.03.1-.03.2,0,.3.08.28.26.51.5.67.36.25.82.3,1.23.15.5-.17.9-.55,1.09-1.04.18-.48.21-1.01.09-1.51-.1-.4-.29-.78-.57-1.09-.49-.53-1-.57-1-.54.31.17.59.39.83.66.54.68.68,1.58.38,2.39-.17.43-.5.77-.93.94-.6.23-1.28-.04-1.55-.63-.04-.22-.05-.3-.07-.3Z" fill="#fff"/>
    <path d="m421.54,11.22c.35-.37.74-.7,1.16-1,1.2-.72,2.61-1.01,4-.84.95.1,1.87.38,2.72.82.96.53,1.83,1.2,2.58,2,.82.89,1.56,1.86,2.19,2.9.66,1.07,1.27,2.24,1.9,3.43.61,1.18,1.27,2.32,2,3.43.64,1.03,1.4,1.99,2.26,2.86.84.82,1.67,1.56,2.38,2.3.68.67,1.27,1.43,1.74,2.26.71,1.21.95,2.63.7,4-.12.49-.33.96-.6,1.39.09-.1.17-.21.24-.32.2-.31.35-.64.45-1,.3-1.39.08-2.85-.63-4.09-.47-.85-1.05-1.63-1.74-2.32-.72-.76-1.55-1.5-2.38-2.32-.86-.86-1.63-1.8-2.29-2.82-.69-1.06-1.31-2.21-1.94-3.41s-1.24-2.36-1.91-3.44c-.64-1.05-1.39-2.04-2.24-2.93-.77-.81-1.66-1.48-2.65-2-.87-.45-1.82-.72-2.79-.81-1.4-.14-2.81.18-4,.93-.32.22-.61.47-.86.76-.1.07-.2.14-.29.22Z" fill="#455a64"/>
  </g>
  <g id="freepik--character-1--inject-47">
    <path d="m184.81,172.85c-1.9,3.66-2.85,7.74-2.77,11.86.11,4.16,2,8.08,5.2,10.74.58.54,1.35.84,2.15.82.79-.09,1.48-1,1.12-1.67.68,1.2,1.6,2.25,2.7,3.08.34.31.79.48,1.25.49.66-.15,1.12-.75,1.08-1.43-.06-.66-.27-1.29-.63-1.84.8.09,1.56.4,2.2.88.71.37,1.74.49,2.16-.19s0-1.39-.39-2c-1.76-2.76-3.53-5.67-3.83-8.92-.2-2.32.36-4.68-.12-7-.63-2.83-2.76-5.08-5.54-5.88-1.57-.56-3.33-.17-4.52,1" fill="#263238"/>
    <path d="m167.52,191.05c-1.57-2.15-4.57-2.85-5.82-5.2-2.21-4.12-1.92-7.94-1.76-12.62.11-3.2-.21-7.74,1.76-10.28,1.38-1.78,2.36-2.86,3.6-4.75,1.36-2.07,2.77-4.53,1.45-6.63" fill="#263238"/>
    <path d="m168.16,191.1c-1.41-1.49-3.65-1.86-5.46-.89l4.05-39.14c-1.77-.24-5.94,2.15-7.11,3.49-1.1,1.41-1.97,3-2.56,4.69-2.79,6.79-4.33,13.62-1.24,19.8l-.17,2.89c-.21,4.39,1.48,8.65,4.64,11.7v.05l.45.45c1,1.01,1.46,2.43,1.24,3.83v.06c-.09.4-.13.81-.1,1.22.02.43.27.81.66,1,.62.24,1.28-.33,1.55-.93.19-.64.46-1.25.81-1.82.38.72.71,1.46,1,2.22.41.71,1.36,1.26,2,.79.27-.22.47-.52.57-.85.63-1.38.99-2.86,1.07-4.37.09-1.53-.41-3.03-1.4-4.19Z" fill="#263238"/>
    <path d="m189.35,167.98l-1.26,34c-.2,5.58-4.89,9.94-10.47,9.73-.18,0-.35-.02-.53-.03h0c-5.31-.46-9.27-5.08-8.92-10.39.09-2.56,0-5.59,0-5.85,0,0-8.51-1.91-8.82-10.5-.15-4.15-.05-11.12.39-18.87.47-8.33,7.27-14.9,15.61-15.09h.83c8.98.29,13.71,8.07,13.17,17Z" fill="#ffbe9d"/>
    <path d="m168.17,195.47c3.97-.01,7.84-1.21,11.12-3.44,0,0-2.5,6.24-11.09,5.67l-.03-2.23Z" fill="#eb996e"/>
    <path d="m162.27,172.83c.02.67.55,1.2,1.22,1.21.64.04,1.19-.45,1.23-1.09,0-.01,0-.03,0-.04,0-.67-.54-1.2-1.21-1.21-.64-.04-1.2.45-1.24,1.1,0,.01,0,.02,0,.03Z" fill="#263238"/>
    <path d="m161.72,170.23c.15.16,1.07-.55,2.39-.58s2.3.61,2.44.44-.09-.35-.52-.65c-.59-.39-1.29-.59-2-.56-.69.02-1.35.25-1.9.67-.36.32-.49.61-.41.68Z" fill="#263238"/>
    <path d="m174.84,172.83c.01.66.55,1.2,1.21,1.21.64.04,1.2-.45,1.24-1.1,0-.01,0-.02,0-.03,0-.67-.54-1.2-1.21-1.21-.64-.04-1.2.45-1.24,1.1,0,.01,0,.02,0,.03Z" fill="#263238"/>
    <path d="m174.7,170.17c.15.16,1.07-.55,2.39-.58s2.3.61,2.44.45-.09-.36-.52-.66c-.59-.39-1.29-.59-2-.55-.69.01-1.35.24-1.9.66-.36.32-.49.61-.41.68Z" fill="#263238"/>
    <path d="m170.14,180.07c-.7-.2-1.43-.31-2.16-.33-.33,0-.65-.09-.72-.32-.03-.35.04-.7.21-1,.29-.83.61-1.69.93-2.59.87-2.2,1.57-4.46,2.08-6.77-1.05,2.12-1.92,4.32-2.62,6.58l-.89,2.61c-.2.41-.26.88-.15,1.32.11.24.32.42.57.48.19.05.38.07.57.07.73.08,1.46.06,2.18-.05Z" fill="#263238"/>
    <path d="m174.04,180.89c-.21,0-.18,1.43-1.38,2.48s-2.73.92-2.74,1.12.35.27,1,.27c.84,0,1.65-.31,2.29-.86.61-.52.99-1.26,1.07-2.06.07-.61-.14-.96-.24-.95Z" fill="#263238"/>
    <path d="m174.85,165.95c.14.36,1.45.16,3,.31s2.81.54,3,.21c.09-.15-.14-.49-.65-.82-.68-.42-1.45-.67-2.25-.73-.8-.08-1.6.04-2.34.33-.54.24-.82.53-.76.7Z" fill="#263238"/>
    <path d="m162.11,166.38c.24.29,1.15,0,2.24-.08s2,.15,2.23-.16c.09-.16-.06-.46-.48-.73-.55-.34-1.18-.49-1.82-.45-.64.02-1.27.25-1.77.65-.38.33-.5.64-.4.77Z" fill="#263238"/>
    <path d="m201.96,180.02c-.27-1.64-.43-3.3-.6-4.95-.3-2.88-6.39-13.25-6.39-13.25-1.79-4.15-4.34-7.92-7.51-11.14-3.27-3.07-7.65-5.14-12.09-4.78s-8.75,3.5-9.75,7.92l.75-1.12c-.17,1.56,1.49,2.75,3,2.87s3.06-.42,4.6-.47c3.08.08,5.92,1.7,7.57,4.3,1.63,2.61,2.61,5.57,2.86,8.64.38,3,.41,6.13.86,9.16.49,3.25,2.32,4.37,4.77,6.52,2.33,2.07,4.46,4.36,6.35,6.84.85.97,2.09,1.5,3.38,1.44,1-.21,1.23-1.66,1.37-2.66s-.57-2.19-.61-3.7c.93-.51,1.54-1.45,1.63-2.5.1-1.04.03-2.1-.19-3.12Z" fill="#263238"/>
    <path d="m188.02,176.26c.15-.06,5.86-1.88,5.81,4s-5.94,4.61-5.94,4.44.13-8.44.13-8.44Z" fill="#ffbe9d"/>
    <path d="m189.7,182.49s.1.07.27.15c.25.1.52.1.77,0,.77-.49,1.23-1.35,1.19-2.27.02-.5-.07-1-.27-1.46-.11-.38-.4-.68-.77-.8-.24-.07-.5.05-.6.28-.08.16-.05.28-.08.29s-.12-.1-.08-.34c.04-.15.12-.28.24-.37.16-.12.37-.17.57-.14.49.1.89.45,1.06.92.25.51.37,1.07.35,1.63.05,1.07-.55,2.06-1.52,2.52-.32.09-.66.03-.93-.16-.19-.11-.22-.24-.2-.25Z" fill="#eb996e"/>
    <path d="m198.72,187.5l.11-.1c.11-.11.21-.23.31-.36.37-.47.67-1,.89-1.56.81-2.1.75-4.43-.15-6.49-.6-1.41-1.45-2.71-2.5-3.83-1.24-1.23-2.54-2.38-3.91-3.46-.71-.6-1.35-1.27-1.92-2-.58-.77-1.03-1.63-1.33-2.54-.56-1.96-.94-3.97-1.14-6-.25-2.09-.86-4.12-1.81-6-.89-1.74-2.18-3.26-3.76-4.41-1.44-1.05-3.14-1.68-4.91-1.83-1.54-.11-3.08.1-4.53.61-1.19.4-2.34.93-3.42,1.58-.84.46-1.59,1.06-2.22,1.78-.39.47-.66,1.02-.78,1.62-.03.21-.03.42,0,.63,0,0,0-.22.09-.61.14-.57.42-1.1.82-1.53.63-.69,1.38-1.26,2.21-1.69,1.08-.61,2.21-1.11,3.39-1.5,1.42-.47,2.92-.66,4.41-.54,1.7.16,3.33.78,4.71,1.8,1.53,1.12,2.77,2.59,3.62,4.28.91,1.83,1.51,3.79,1.76,5.82.2,2.06.59,4.11,1.17,6.1.32.95.79,1.84,1.39,2.64.6.75,1.27,1.44,2,2.05,1.37,1.06,2.67,2.19,3.91,3.4,1.04,1.08,1.88,2.33,2.48,3.7.9,1.99,1,4.26.28,6.32-.29.76-.68,1.47-1.17,2.12Z" fill="#455a64"/>
    <path d="m190.64,245.25l-10.81,51.57,21.91-.25,9.27-45.75,19.44-.22c1.6-.02,2.88-1.32,2.86-2.92,0,0,0,0,0-.01h0c-.02-1.6-1.33-2.88-2.93-2.87l-39.74.45Z" fill="#455a64"/>
    <path d="m46.72,370.45l-2.75,17.93s-19.09,3.21-19.92,6.47l34.48,6.53,5.41-27.68-17.22-3.25Z" fill="#ff7200"/>
    <g opacity=".3">
      <path d="m46.72,370.45l-2.75,17.93s-19.09,3.21-19.92,6.47l34.48,6.53,5.41-27.68-17.22-3.25Z"/>
    </g>
    <path d="m54.92,388.86c.64.34.93,1.11.67,1.79-.32.66-1.09.96-1.77.68-.69-.36-.99-1.18-.7-1.9.4-.66,1.25-.88,1.92-.5" fill="#263238"/>
    <path d="m58.53,401.38l.52-2.68-33.3-5.37s-1.67.37-1.7,1.49l34.48,6.56Z" fill="#263238"/>
    <path d="m43.45,388.04c0,.17.8.41,1.52,1.11s1,1.49,1.2,1.45.11-1.05-.79-1.88-1.94-.84-1.93-.68Z" fill="#263238"/>
    <path d="m39.55,388.85c-.07.16.6.58,1,1.4s.46,1.61.63,1.63.45-.9-.11-1.91-1.49-1.28-1.52-1.12Z" fill="#263238"/>
    <path d="m36.67,392.79c.15.06.54-.73.28-1.74s-1-1.52-1.07-1.39.3.71.5,1.54.13,1.54.29,1.59Z" fill="#263238"/>
    <path d="m44.53,384.04c0,.17.85.08,1.79.33s1.63.68,1.74.56-.48-.87-1.59-1.14-2,.1-1.94.25Z" fill="#263238"/>
    <path d="m58.35,371.43l-2.74,17.88s-19.09,3.22-19.92,6.47l34.47,6.6,5.42-27.68-17.23-3.27Z" fill="#ff7200"/>
    <path d="m66.56,389.85c.65.34.93,1.11.66,1.79-.31.66-1.09.96-1.77.68-.69-.36-.99-1.18-.69-1.9.4-.66,1.25-.88,1.92-.5" fill="#263238"/>
    <path d="m70.16,402.38l.53-2.69-33.34-5.4s-1.66.38-1.69,1.49l34.5,6.6Z" fill="#263238"/>
    <path d="m55.09,389.03c0,.17.8.41,1.52,1.11s1,1.49,1.2,1.45.1-1.06-.79-1.89-1.94-.83-1.93-.67Z" fill="#263238"/>
    <path d="m51.19,389.84c-.07.15.6.58,1,1.4s.45,1.6.62,1.63.46-.91-.1-1.92-1.49-1.27-1.52-1.11Z" fill="#263238"/>
    <path d="m48.35,393.77c.14.07.54-.73.28-1.73s-1-1.52-1.07-1.4.29.72.49,1.54.09,1.55.3,1.59Z" fill="#263238"/>
    <path d="m56.16,385.03c0,.16.86.08,1.8.32s1.62.69,1.74.56-.48-.86-1.59-1.13-2,.1-1.95.25Z" fill="#263238"/>
    <path d="m139.35,278.6s-62.69,1-68.31.77c-11.89-.53-16.53,7.5-18.16,18.88-.5,3.49-9.47,80-9.47,80l21.71,4.49,14.73-69.52s57.93,2.08,63.41,3c6.67,1.13,15.86,4.68,20.88.79s8.06-23.87,8.06-23.87l-32.85-14.54Z" fill="#263238"/>
    <path d="m144.15,278.58s-56.17.92-61.79.66c-11.89-.53-16.53,7.5-18.16,18.89-.5,3.48-9.47,82.26-9.47,82.26l21.17,4.72,15.27-72.06s57.93,2.08,63.41,3c6.67,1.14,15.86,4.69,20.88.79s8.06-23.87,8.06-23.87l-39.37-14.39Z" fill="#263238"/>
    <path d="m86.71,279.28c-.1.02-.2.02-.3,0h-.88c-.77,0-1.9,0-3.36.18-1.76.17-3.51.48-5.23.91-1.07.26-2.13.59-3.15,1-1.16.43-2.25,1.02-3.24,1.76-.52.39-.99.86-1.38,1.38-.38.57-.71,1.17-1,1.79-.65,1.32-1.17,2.71-1.54,4.13-.76,3.18-1.32,6.4-1.68,9.65-1,6.86-1.9,14.41-2.87,22.33-1.91,15.87-3.56,30.24-4.92,40.62-.67,5.19-1.26,9.39-1.68,12.28-.21,1.43-.38,2.55-.5,3.34-.06.36-.11.65-.14.86-.01.1-.03.2-.06.3-.01-.1-.01-.2,0-.3,0-.22,0-.51.1-.87l.42-3.35c.37-2.93.89-7.12,1.54-12.3,1.23-10.42,2.93-24.77,4.81-40.63,1-7.93,1.93-15.48,2.89-22.33.36-3.25.93-6.47,1.7-9.65.39-1.45.92-2.85,1.59-4.19.32-.63.68-1.23,1.09-1.81.4-.57.88-1.06,1.43-1.48,1.02-.74,2.14-1.34,3.32-1.77,1.04-.41,2.1-.74,3.19-1,1.74-.42,3.5-.7,5.28-.84,1.52-.15,3.05-.16,4.57-.01Z" fill="#455a64"/>
    <path d="m167.48,204.55l21.1-5.85s11.12,5.73,12.13,7,8,7.49,7.94,16.29c-.06,5.5-4.81,25.34-4.81,25.34l-17.61,30.92-5.43,15.24-26.31.07-10.34-14.98s-1.3-3.1,2.13-7.86,8.81-12.83,8.81-12.83c0,0,1.59-9.67,3.29-13.23s1.31-5.06,1.31-5.06c0,0-1-9.66,0-14.47s3.66-15.92,7.79-20.58Z" fill="#ff7200"/>
    <path d="m154.93,257.89c-.02-.17-.02-.35,0-.52.05-.34.13-.84.25-1.48.23-1.28.59-3.13,1.16-5.39.68-2.65,1.54-5.26,2.57-7.8.6-1.47.85-3.06.73-4.64-.06-1.66-.35-3.37-.44-5.15-.26-6.09.67-12.18,2.72-17.92.61-1.75,1.34-3.45,2.18-5.1.28-.6.55-1,.71-1.34.08-.16.17-.31.28-.45-.04.17-.11.34-.2.49-.14.31-.37.76-.63,1.36-.77,1.67-1.46,3.39-2.05,5.13-1.94,5.73-2.81,11.77-2.57,17.81.09,1.75.38,3.47.44,5.15.12,1.64-.15,3.28-.79,4.8-1.04,2.52-1.92,5.1-2.64,7.73-.62,2.24-1,4.08-1.3,5.35-.14.6-.24,1.08-.33,1.46-.01.17-.04.34-.09.51Z" fill="#263238"/>
    <path d="m162.35,220.78c-1.21,5.2-1.55,10.57-1,15.89,3.36.58,6.62,1.58,9.72,3,.32-5.43.63-10.87.94-16.3.07-.35-.02-.72-.24-1-.2-.16-.45-.25-.7-.26l-8.81-1.32" fill="#263238"/>
    <path d="m201.92,289.64l-1.09,40.95-91.83.28c-4.92,0-8.93-3.95-9-8.87h0c-.04-4.87,3.81-8.89,8.68-9.06l7.94-.26-.43-17.44c-.07-2.52,1.92-4.61,4.44-4.68.03,0,.05,0,.08,0l81.21-.92Z" fill="#455a64"/>
    <rect x="162.51" y="319.48" width="5.37" height="54.06" transform="translate(-3.92 1.9) rotate(-.65)" fill="#455a64"/>
    <rect x="91.87" y="369.2" width="76.29" height="4.51" transform="translate(-4.21 1.5) rotate(-.65)" fill="#455a64"/>
    <path d="m161.01,404.32c-28.04-.16-50.65-23.03-50.48-51.07.16-28.04,23.03-50.65,51.07-50.48,28.04.16,50.65,23.03,50.48,51.07-.16,27.81-22.67,50.32-50.48,50.48h-.59Zm0-101.3h-.58c-27.75.31-49.99,23.06-49.68,50.81.15,13.33,5.59,26.05,15.12,35.37,19.84,19.4,51.66,19.04,71.06-.8s19.04-51.66-.8-71.06c-9.39-9.18-21.99-14.32-35.12-14.32Z" fill="#e0e0e0"/>
    <path d="m135.47,354c13.93-.17,25.23-.32,25.23-.33s-11.3.12-25.24.29l-25.22.32s11.3-.12,25.23-.28Z" fill="#e0e0e0"/>
    <path d="m135.85,358.17l24.85-4.41-24.85,4.37c-13.72,2.42-24.84,4.4-24.84,4.41l24.84-4.37Z" fill="#e0e0e0"/>
    <path d="m136.92,362.21c13.14-4.64,23.79-8.41,23.79-8.42s-10.66,3.74-23.8,8.39-23.78,8.42-23.78,8.43,10.66-3.75,23.79-8.4Z" fill="#e0e0e0"/>
    <path d="m138.63,366.03l22.09-12.21s-9.9,5.44-22.1,12.18-22.08,12.2-22.08,12.21,9.9-5.45,22.09-12.18Z" fill="#e0e0e0"/>
    <path d="m140.95,369.51c10.94-8.63,19.8-15.64,19.8-15.64,0,0-8.88,7-19.82,15.62s-19.8,15.63-19.79,15.64,8.88-6.99,19.81-15.62Z" fill="#e0e0e0"/>
    <path d="m143.8,372.57c9.4-10.29,17-18.64,17-18.65s-7.63,8.34-17,18.63-17,18.64-17,18.65,7.61-8.34,17-18.63Z" fill="#e0e0e0"/>
    <path d="m147.11,375.13c7.6-11.68,13.75-21.15,13.74-21.16s-6.17,9.46-13.77,21.14-13.73,21.16-13.73,21.16c0,0,6.16-9.46,13.76-21.14Z" fill="#e0e0e0"/>
    <path d="m150.79,377.12c5.59-12.77,10.11-23.12,10.1-23.12s-4.54,10.38-10.13,23.1-10.12,23.12-10.11,23.12,4.55-10.34,10.14-23.1Z" fill="#e0e0e0"/>
    <path d="m154.74,378.47c3.42-13.51,6.18-24.46,6.17-24.46s-2.78,10.94-6.2,24.46-6.18,24.46-6.17,24.46,2.81-10.95,6.2-24.46Z" fill="#e0e0e0"/>
    <path d="m158.87,379.16c1.16-13.89,2.09-25.14,2.08-25.15s-.95,11.26-2.12,25.15-2.09,25.14-2.08,25.14.96-11.26,2.12-25.14Z" fill="#e0e0e0"/>
    <path d="m163.05,379.17c-1.09-13.89-2-25.15-2-25.15,0,0,.87,11.26,2,25.16s2,25.15,2,25.14-.91-11.26-2-25.15Z" fill="#e0e0e0"/>
    <path d="m167.19,378.51c-3.35-13.54-6.07-24.5-6.08-24.5s2.7,11,6,24.5,6.07,24.49,6.07,24.49c0,0-2.65-10.97-5.99-24.49Z" fill="#e0e0e0"/>
    <path d="m171.15,377.17c-5.52-12.8-10-23.17-10-23.16s4.46,10.38,10,23.17,10,23.16,10,23.16c0,0-4.48-10.38-10-23.17Z" fill="#e0e0e0"/>
    <path d="m174.84,375.2c-7.54-11.72-13.66-21.21-13.67-21.21s6.1,9.51,13.65,21.23,13.65,21.21,13.66,21.2-6.13-9.51-13.64-21.22Z" fill="#e0e0e0"/>
    <path d="m178.17,372.66c-9.35-10.34-16.93-18.72-16.94-18.71s7.56,8.39,16.91,18.73,16.92,18.7,16.93,18.7-7.56-8.39-16.9-18.72Z" fill="#e0e0e0"/>
    <path d="m181.03,369.61c-10.9-8.69-19.74-15.72-19.74-15.71s8.82,7.05,19.72,15.74,19.73,15.74,19.74,15.74-8.83-7.09-19.72-15.77Z" fill="#e0e0e0"/>
    <path d="m183.35,366.14l-22-12.3s9.86,5.53,22,12.33l22,12.29s-9.83-5.52-22-12.32Z" fill="#e0e0e0"/>
    <path d="m185.09,362.38c-13.11-4.72-23.75-8.53-23.75-8.53,0,0,10.62,3.84,23.74,8.56l23.75,8.52s-10.63-3.88-23.74-8.55Z" fill="#e0e0e0"/>
    <path d="m186.18,358.3c-13.71-2.5-24.83-4.52-24.83-4.51l24.82,4.59c13.71,2.49,24.82,4.51,24.83,4.5s-11.12-2.09-24.82-4.58Z" fill="#e0e0e0"/>
    <path d="m186.59,354.13l-25.24-.41s11.29.21,25.23.45l25.22.4-25.21-.44Z" fill="#e0e0e0"/>
    <path d="m186.35,349.95c-13.79,2-25,3.67-25,3.68l25-3.64,25-3.67s-11.25,1.62-25,3.63Z" fill="#e0e0e0"/>
    <path d="m185.35,345.88c-13.28,4.25-24,7.7-24,7.71s10.76-3.43,24-7.68,24-7.71,24-7.72-10.71,3.43-24,7.69Z" fill="#e0e0e0"/>
    <path d="m183.78,342.01l-22.43,11.56s10.06-5.15,22.45-11.53,22.43-11.54,22.43-11.55-10.07,5.15-22.45,11.52Z" fill="#e0e0e0"/>
    <path d="m181.56,338.46c-11.21,8.31-20.21,15.05-20.21,15.06l20.26-15c11.19-8.31,20.25-15.05,20.25-15.06s-9.11,6.69-20.3,15Z" fill="#e0e0e0"/>
    <path d="m178.81,335.32c-9.7,10-17.55,18.14-17.54,18.14s7.87-8.1,17.56-18.12,17.52-18.13,17.52-18.14-7.86,8.11-17.54,18.12Z" fill="#e0e0e0"/>
    <path d="m175.57,332.66c-7.94,11.46-14.36,20.72-14.36,20.72,0,0,6.45-9.27,14.39-20.73s14.37-20.74,14.36-20.74-6.45,9.3-14.39,20.75Z" fill="#e0e0e0"/>
    <path d="m171.95,330.57c-6,12.6-10.79,22.81-10.78,22.81s4.85-10.2,10.81-22.8,10.79-22.8,10.79-22.8c0,0-4.85,10.2-10.82,22.79Z" fill="#e0e0e0"/>
    <path d="m168.04,329.1c-3.82,13.4-6.9,24.27-6.89,24.27s3.11-10.86,6.92-24.26,6.9-24.27,6.9-24.27c0,0-3.12,10.86-6.93,24.26Z" fill="#e0e0e0"/>
    <path d="m163.94,328.29c-1.59,13.85-2.84,25.09-2.83,25.09s1.29-11.22,2.86-25.07,2.83-25.07,2.82-25.07-1.29,11.21-2.85,25.05Z" fill="#e0e0e0"/>
    <path d="m159.75,328.16c.69,13.92,1.25,25.2,1.26,25.2s-.54-11.28-1.22-25.21-1.25-25.19-1.26-25.19.54,11.28,1.22,25.2Z" fill="#e0e0e0"/>
    <path d="m155.6,328.7c2.95,13.68,5.34,24.68,5.35,24.68s-2.37-11-5.31-24.67-5.34-24.65-5.35-24.65,2.37,11.03,5.31,24.64Z" fill="#e0e0e0"/>
    <path d="m151.6,329.92c5.14,12.95,9.32,23.45,9.32,23.45,0,0-4.15-10.51-9.29-23.46s-9.28-23.45-9.28-23.45c0,0,4.11,10.51,9.25,23.46Z" fill="#e0e0e0"/>
    <path d="m147.85,331.78c7.19,11.94,13,21.61,13,21.6s-5.82-9.68-13-21.62-13-21.6-13-21.6c0,0,5.81,9.69,13,21.62Z" fill="#e0e0e0"/>
    <path d="m144.46,334.22c9,10.61,16.37,19.2,16.38,19.2s-7.32-8.61-16.36-19.22-16.37-19.2-16.38-19.19,7.32,8.61,16.36,19.21Z" fill="#e0e0e0"/>
    <path d="m141.5,337.18c10.65,9,19.27,16.3,19.28,16.29s-8.61-7.31-19.25-16.31-19.27-16.29-19.27-16.28,8.61,7.31,19.24,16.3Z" fill="#e0e0e0"/>
    <path d="m139.07,340.59c12,7.15,21.66,12.94,21.67,12.93l-21.65-13c-12-7.15-21.66-12.95-21.66-12.94s9.69,5.86,21.64,13.01Z" fill="#e0e0e0"/>
    <path d="m137.23,344.38c13,5.1,23.48,9.23,23.49,9.22l-23.48-9.25c-13-5.1-23.48-9.23-23.48-9.22s10.5,4.11,23.47,9.25Z" fill="#e0e0e0"/>
    <path d="m136.02,348.38l24.69,5.24s-11.05-2.37-24.68-5.27-24.68-5.28-24.68-5.27l24.67,5.3Z" fill="#e0e0e0"/>
    <path d="m135.49,352.49c13.92.64,25.21,1.15,25.21,1.14l-25.21-1.17c-13.91-.64-25.2-1.15-25.2-1.14s11.29.54,25.2,1.17Z" fill="#e0e0e0"/>
    <path d="m156.93,353.73c.02,2.04,1.7,3.68,3.74,3.66s3.68-1.7,3.66-3.74c-.02-2.04-1.7-3.68-3.74-3.66-2.04.02-3.68,1.68-3.66,3.72,0,0,0,.01,0,.02Z" fill="#455a64"/>
    <path d="m79.76,398.23c.09,7.96,6.62,14.35,14.58,14.26,7.96-.09,14.35-6.62,14.26-14.58-.09-7.96-6.62-14.35-14.58-14.26-7.96.09-14.35,6.61-14.26,14.58,0,0,0,0,0,0Zm3.23,0c-.09-6.18,4.85-11.26,11.03-11.35s11.26,4.85,11.35,11.03c.09,6.17-4.84,11.25-11.02,11.35-6.18.09-11.27-4.84-11.36-11.02,0-.02,0-.03,0-.05v.04Z" fill="#263238"/>
    <polygon points="92.17 396.68 95.63 396.64 94.77 319.77 106.92 319.63 106.88 316.17 91.27 316.35 92.17 396.68" fill="#455a64"/>
    <path d="m76.11,403.75c0-.43-.51-63.54-.32-75.49-.08-2.2.84-4.31,2.5-5.75,4.71-4,14.39-2.75,14.49-2.74l.48-3.43c-.46-.06-11.31-1.52-17.22,3.53-2.41,2.09-3.76,5.14-3.69,8.33-.19,12,.32,75.14.32,75.58l3.44-.03Z" fill="#455a64"/>
    <rect x="48.58" y="401.11" width="27.74" height="3.38" transform="translate(-4.57 .73) rotate(-.65)" fill="#455a64"/>
    <path d="m102.56,353.92c.37,32.28,26.84,58.16,59.12,57.79,32.28-.37,58.16-26.84,57.79-59.12-.37-32.28-26.84-58.16-59.12-57.79,0,0,0,0,0,0-32.28.37-58.15,26.84-57.79,59.12Zm4.13,0c-.34-30.63,23.7-55.73,53.71-56.07s54.61,24.22,54.95,54.84-23.69,55.69-53.7,56.02-54.61-24.21-54.96-54.83v.04Z" fill="#263238"/>
    <path d="m141.81,241.85l14,12.06-.74,4-5.06,7.91s-2.07,1.52-6.79-4.66-10.19-18-10.19-18l8.78-1.31Z" fill="#ffbe9d"/>
    <path d="m115.35,214.15c.25-.44.72-.71,1.22-.71l8.53-.09c.77,0,1.5.32,2,.9l21.25,24.13-1.22.95-9.25,1.05-22.72-25.87.19-.36Z" fill="#263238"/>
    <path d="m121.81,216.74c-.22.18-.54.16-.73-.05-.23-.15-.3-.46-.16-.7.21-.19.52-.19.73,0,.25.16.32.5.16.75,0,0,0,0,0,0Z" fill="#fff"/>
    <path d="m115.16,214.51c.55.07,1.11.1,1.66.08h7.67c.53-.03,1.05.18,1.4.57l1.22,1.39,5.44,6.18c3.87,4.37,7.4,8.31,10,11.15l3.07,3.34c.36.42.75.81,1.17,1.18-.3-.46-.63-.9-1-1.31l-2.95-3.45c-2.5-2.9-6-6.88-9.86-11.25-1.94-2.18-3.78-4.26-5.47-6.15l-1.24-1.38c-.44-.48-1.08-.73-1.73-.69l-3.13.06-4.54.13c-.57.01-1.14.06-1.71.15Z" fill="#455a64"/>
    <path d="m125.84,222.68s.73-.24,1.44,1.73,2.89,7.63,2.89,7.63l3.6-2.65,5-.08s1.21.82.51,1.47c-1.17.7-2.41,1.25-3.71,1.66l-1.79,3.61,6.07-4.11s2.26.24,1.82,1.67-4.23,6.24-4.23,6.24l3.24-.74,3.54-2.93s1.2-.13.91,1-3.8,5.35-3.8,5.35l-4.56,3.11s-2.71.19-3.08-.56c-.27-.6-.47-1.22-.61-1.86,0,0-1.48-.18-1.85-.83-.24-.56-.36-1.16-.35-1.77,0,0-2.18.73-2.64-.48-.42-1.52-.6-3.1-.51-4.68.09-1-2.41-9.72-2.36-10s-1.02-3.16.47-2.78Z" fill="#ffbe9d"/>
    <path d="m133.49,245.07c.42.18.88.26,1.33.21,2.23,0,4.38-.85,6-2.39.6-.58.87-1,.82-1.07-1.15.94-2.42,1.74-3.77,2.37-1.42.48-2.89.77-4.38.88Z" fill="#eb996e"/>
    <path d="m134.35,243.14c.09.1.89-.48,1.71-1.38s1.32-1.75,1.21-1.84-.79.62-1.59,1.5-1.39,1.62-1.33,1.72Z" fill="#eb996e"/>
    <path d="m131.18,239.29c.09.1.89-.47,1.64-1.41s1.14-1.83,1-1.9-.69.68-1.42,1.58-1.32,1.62-1.22,1.73Z" fill="#eb996e"/>
    <path d="m127.96,236.28c.44-.66.82-1.35,1.13-2.08.62-1.12,1.28-1.95,1.17-2.05s-1,.61-1.62,1.8c-.47.68-.71,1.5-.68,2.33Z" fill="#eb996e"/>
    <path d="m195.19,206.28c2.13-1.71,5.21-1.54,7.15.39,3.6,3.59,8.81,9.62,9,14.51.24,7.49,1.45,27.3,1.45,27.3l-27.54-1s0-26.33,2.42-32.37c1.33-3.38,4.78-6.64,7.52-8.83Z" fill="#ff7200"/>
    <path d="m209.45,248.67s-.64,15.22-3.37,21.85c-2.83,6.85-6.33,6.23-9.34,6s-46.23-31.62-46.23-31.62l6.54-8.46,33.7,15.77.42-4.23,18.28.69Z" fill="#ffbe9d"/>
    <path d="m157.35,236.77l-6.9-11.82-7.37-2.89-9.45-.33c-.32.86.01,1.83.8,2.3l-3.28-.29c-.49.91-.16,2.04.75,2.54.04.02.07.04.11.05l-2.39.07c.43,1.48,1.81,2.49,3.35,2.45,2.34.02,4.68.2,7,.54l4.19,3.18-6.81-1.27-5.06.21s-.84,1.16.23,1.62c1.77.42,3.58.68,5.4.79l6.26,2.65s.78,4.39,1.48,5.44,5.18,2.94,5.18,2.94l6.51-8.18Z" fill="#ffbe9d"/>
    <path d="m131.1,223.74c.84.18,1.69.27,2.54.28,1.58.1,3.75.21,6.16.3l2.31.08h-.1c1.69.75,3.16,1.39,4.21,1.82.54.28,1.12.48,1.72.61-.5-.36-1.03-.65-1.59-.89-1-.51-2.46-1.21-4.13-2h-.05l-2.3-.1c-2.41-.09-4.58-.14-6.16-.15-.87-.08-1.74-.06-2.61.05Z" fill="#eb996e"/>
    <path d="m130.14,226.38c.76.14,1.54.2,2.32.18,1.43,0,3.4.07,5.58.07h2.18-.12c1.62,1.01,3.32,1.9,5.07,2.66-1.53-1.14-3.15-2.18-4.83-3.09h-2.3c-2.18,0-4.15,0-5.58.08-.77-.06-1.55-.02-2.32.1Z" fill="#eb996e"/>
    <path d="m150.8,244.95l-.71-.36c-.47-.22-1.16-.56-2-1-.44-.24-.92-.51-1.43-.84-.26-.17-.5-.37-.73-.58-.21-.25-.37-.54-.47-.86-.49-1.55-.86-3.14-1.12-4.74v-.09h-.09l-6.25-2.68h-.06c-1.12-.09-2.3-.21-3.51-.39-.61-.07-1.21-.2-1.79-.39-.24-.07-.41-.28-.43-.53.01-.28.1-.55.27-.77l-.18.09,5.07-.2h-.05l6.74,1.28,1,.2-.84-.64-4.19-3.18h-.06c-1.73-.24-3.55-.44-5.42-.53h-1.55c-.47.01-.93-.07-1.37-.24-.84-.39-1.48-1.11-1.75-2l-.24.31,2.38-.07h.88l-.76-.44c-.41-.21-.72-.57-.88-1-.13-.42-.09-.88.12-1.27l-.24.12,3.28.29.9.08-.74-.52c-.33-.22-.58-.53-.73-.9-.12-.36-.12-.75,0-1.11l-.23.14,9.45.32h-.07l7.38,2.85-.08-.07c2.15,3.62,3.9,6.55,5.12,8.62.6,1,1.07,1.75,1.41,2.32l.38.59.14.2s0-.08-.1-.22-.19-.37-.33-.63l-1.33-2.36c-1.19-2.09-2.89-5.05-5-8.7v-.05h-.06l-7.35-2.91h0l-9.45-.36h-.17l-.06.15c-.17.47-.17.99,0,1.46.18.47.49.87.91,1.14l.16-.44-3.29-.3h-.16l-.07.14c-.28.51-.34,1.11-.17,1.67.21.54.6.99,1.11,1.26l.12-.47-2.38.07h-.34l.1.31c.29,1.04,1.02,1.89,2,2.35.5.21,1.05.3,1.59.28h1.51c1.84.08,3.66.29,5.36.52l-.11-.05,4.19,3.18.2-.44-6.88-1.5h0l-5.06.22h-.12l-.06.09c-.22.31-.34.68-.34,1.06.02.42.3.78.7.9.61.2,1.25.34,1.89.41,1.24.18,2.42.28,3.55.37h-.06l6.27,2.61-.09-.12c.28,1.62.68,3.21,1.2,4.77.11.35.3.67.54.94.24.22.5.42.78.59.52.33,1,.59,1.47.82.89.45,1.6.76,2.08,1l.55.22c.08,0,.14.02.15.01Z" fill="#eb996e"/>
    <path d="m213.24,248.48c-.15-.03-.31-.05-.47-.06l-1.33-.08-5-.24-17.09-.66.24.24c-.07-2.39,0-4.94.11-7.57.22-4.33.59-8.45.84-12.21.13-1.89.18-3.68.33-5.33.13-1.54.36-3.07.71-4.57.49-2.18,1.39-4.25,2.67-6.09.49-.66,1.02-1.29,1.58-1.89-.18.11-.35.25-.5.4-.45.42-.86.88-1.24,1.37-1.36,1.83-2.33,3.91-2.86,6.12-.38,1.52-.64,3.06-.78,4.62-.17,1.67-.24,3.46-.38,5.33-.27,3.76-.66,7.88-.88,12.23-.13,2.63-.17,5.2-.1,7.61v.23h.26l17.08.47,5,.1h1.34c.16.01.31,0,.47-.02Z" fill="#263238"/>
  </g>
  <g id="freepik--small-speech-bubbles--inject-47">
    <path d="m594.76,266.5h-13.63c-2.68,0-4.85,2.17-4.85,4.85v13.64c0,2.68,2.17,4.85,4.85,4.85h3.91l3.44,5.18,3-5.18h3.28c2.68,0,4.85-2.17,4.85-4.85v-13.61c.02-2.68-2.14-4.86-4.82-4.88-.01,0-.02,0-.03,0Z" fill="#ff7200"/>
    <path d="m591.13,274.38c-1.05-.32-2.18.18-2.66,1.17-.56-1.17-1.95-1.66-3.12-1.1-.94.45-1.47,1.46-1.3,2.49.3,1.16.98,2.19,1.92,2.93.92.9,1.67,1.61,2.63,2.56h0l2.24-2.44c.87-.83,1.53-1.86,1.92-3,.19-1.16-.51-2.27-1.63-2.61Z" fill="#fff"/>
    <path d="m481.82,24.66h-13.63c-2.67,0-4.84,2.18-4.84,4.85v13.63c0,2.68,2.17,4.85,4.85,4.85h3.91l3.44,5.18,3-5.18h3.28c2.68,0,4.85-2.17,4.85-4.85h0v-13.63c0-2.68-2.17-4.85-4.85-4.85,0,0,0,0-.01,0Z" fill="#ff7200"/>
    <path d="m478.19,32.53c-1.05-.31-2.18.18-2.66,1.17-.59-1.16-2-1.62-3.16-1.03-.9.46-1.4,1.43-1.26,2.43.31,1.16.98,2.19,1.92,2.93.92.9,1.67,1.6,2.63,2.55h0l2.24-2.44c.87-.83,1.53-1.86,1.92-3,.19-1.16-.51-2.27-1.63-2.61Z" fill="#fff"/>
    <path d="m489.53,91.54h-9.51c-1.87,0-3.39,1.52-3.39,3.39h0v9.51c0,1.87,1.52,3.38,3.39,3.38h2.72l2.41,3.61,2.09-3.61h2.29c1.87,0,3.38-1.51,3.38-3.38h0v-9.51c0-1.87-1.5-3.38-3.37-3.39,0,0,0,0-.01,0Z" fill="#ff7200"/>
    <path d="m486.99,97.04c-.73-.22-1.51.12-1.85.81-.37-.82-1.34-1.18-2.16-.8-.69.31-1.07,1.06-.92,1.8.21.81.68,1.53,1.33,2.05.65.63,1.17,1.12,1.84,1.78h0l1.56-1.7c.61-.58,1.07-1.3,1.34-2.1.15-.81-.35-1.61-1.14-1.84Z" fill="#fff"/>
    <path d="m150.68,135.57h-9.51c-1.87,0-3.38,1.51-3.38,3.38h0v9.52c0,1.87,1.51,3.38,3.38,3.38h2.73l2.4,3.61,2.1-3.61h2.28c1.87,0,3.38-1.51,3.38-3.38h0v-9.52c0-1.87-1.51-3.38-3.38-3.38h0Z" fill="#ff7200"/>
    <path d="m148.15,141.07c-.73-.23-1.52.12-1.86.81-.37-.82-1.34-1.18-2.16-.8-.69.31-1.07,1.06-.92,1.8.22.81.69,1.53,1.34,2.05l1.8,1.75h0l1.57-1.7c.61-.58,1.07-1.3,1.34-2.1.12-.79-.35-1.56-1.11-1.81Z" fill="#fff"/>
    <path d="m378.7,57.84h-13.63c-2.68,0-4.85,2.17-4.85,4.85h0v13.63c0,2.68,2.17,4.85,4.85,4.85h3.91l3.44,5.18,3-5.18h3.28c2.68,0,4.85-2.17,4.85-4.85h0v-13.63c0-2.68-2.17-4.85-4.85-4.85h0Z" fill="#ff7200"/>
    <path d="m375.07,65.72c-1.05-.32-2.18.17-2.66,1.16-.59-1.16-2-1.62-3.16-1.03-.9.46-1.4,1.43-1.26,2.43.31,1.16.98,2.19,1.92,2.93.92.9,1.67,1.6,2.63,2.55h0l2.24-2.44c.87-.83,1.53-1.86,1.92-3,.18-1.15-.51-2.26-1.63-2.6Z" fill="#fff"/>
    <path d="m132.18,168.81h-13.63c-2.68,0-4.85,2.17-4.85,4.85h0v13.63c0,2.68,2.17,4.85,4.85,4.85h3.91l3.44,5.18,3-5.18h3.28c2.68,0,4.85-2.17,4.85-4.85h0v-13.63c0-2.68-2.17-4.85-4.85-4.85h0Z" fill="#ff7200"/>
    <path d="m128.55,176.68c-1.05-.31-2.18.18-2.66,1.17-.56-1.17-1.95-1.66-3.12-1.1-.94.45-1.47,1.46-1.3,2.49.3,1.16.98,2.19,1.92,2.93.92.91,1.67,1.61,2.62,2.56h0l2.25-2.44c.87-.83,1.53-1.86,1.92-3,.19-1.16-.51-2.27-1.63-2.61Z" fill="#fff"/>
  </g>
</svg>