<?xml version="1.0" encoding="UTF-8"?>
<svg id="Layer_1" data-name="Layer 1" xmlns="http://www.w3.org/2000/svg" viewBox="0 0 481.4 451.26">
  <g>
    <path d="m50,130.06c60.2-3.9,96.8-3.9,121.4,35.9,24.7,39.8-62.5,179.1,26.4,202.6s132.3-48.5,169.1-119.4c36.9-70.8,54.4-155.8,54.5-198.3" fill="none" stroke="#f49f35" stroke-linecap="round" stroke-linejoin="round" stroke-width="100"/>
    <path d="m63.2,385.06c26.4-35.4,57.2-41.4,96.2-46.4" fill="none" stroke="#f49f35" stroke-linecap="round" stroke-linejoin="round" stroke-width="100"/>
  </g>
  <g id="freepik--character-3--inject-28">
    <path d="m288.4,148.86s0-.5.1-1.5.1-2.4.3-4.3c.5-5.6,1.5-11.1,3.1-16.4,1.1-3.9,2.5-7.7,4.1-11.4,1.9-4.4,4.1-8.7,6.7-12.7,6.3-9.9,14.5-18.5,24-25.3,5.5-4,11.5-7.3,17.8-9.9,6.8-2.9,14-4.9,21.3-6,11.9-1.8,24.1-1.3,35.9,1.5,4.1,1,8.2,2.3,12.1,3.9,16.9,6.7,31.3,18.3,41.6,33.3,2.7,3.9,5.1,8,7.1,12.3,1.1,2.1,2,4.4,2.9,6.6.9,2.2,1.7,4.5,2.3,6.9,2.8,9.4,4.1,19.3,3.8,29.1-.2,4.9-.7,9.9-1.7,14.7-.9,4.8-2.2,9.5-3.9,14.1-.8,2.3-1.8,4.5-2.7,6.7-1,2.2-2.1,4.3-3.3,6.4-2.3,4.1-4.9,8.1-7.9,11.8-11.2,14.3-26.4,24.9-43.7,30.6-4.1,1.3-8.2,2.3-12.4,3.1-11.9,2.1-24.1,1.8-35.9-.8-13.9-3.1-26.9-9.4-38-18.4-9.1-7.4-16.7-16.5-22.4-26.8-2.4-4.2-4.3-8.6-6-13.1-1.4-3.8-2.5-7.7-3.3-11.6-1.2-5.5-1.8-11-2-16.6-.1-1.9,0-3.4,0-4.3.1-1.4.1-1.9.1-1.9-.1,0-.1.5-.1,1.5v4.3c.3,5.6,1,11.1,2.3,16.6.9,3.9,2,7.8,3.4,11.6,1.6,4.5,3.6,8.9,6,13.1,5.7,10.2,13.2,19.2,22.3,26.6,5.3,4.3,11,8,17.1,11,6.6,3.3,13.6,5.7,20.7,7.3,11.7,2.6,23.9,2.8,35.7.7,4.2-.8,8.3-1.8,12.3-3.1,21.7-7.2,40-22.2,51.2-42.1,1.2-2.1,2.2-4.2,3.3-6.4,1.1-2.2,1.9-4.4,2.7-6.6,1.7-4.5,3-9.2,3.9-14s1.5-9.7,1.7-14.6c.3-9.8-1-19.5-3.8-28.9-.6-2.3-1.5-4.6-2.3-6.8s-1.8-4.4-2.9-6.5c-2-4.2-4.4-8.3-7-12.2-10.2-14.9-24.6-26.4-41.3-33.1-3.9-1.5-8-2.8-12.1-3.9-4-.9-8.1-1.6-12.1-2-7.8-.8-15.8-.7-23.5.5-14,2.2-27.4,7.6-38.9,15.8-9.5,6.8-17.7,15.3-24,25.2-2.6,4-4.9,8.3-6.8,12.7-1.6,3.7-3,7.5-4.1,11.3-1.5,5.4-2.6,10.9-3.1,16.4-.2,1.9-.2,3.4-.3,4.3-.2.8-.3,1.3-.3,1.3Z" fill="#263238"/>
    <circle cx="381.1" cy="153.36" r="75.4" fill="none"/>
    <path d="m305.7,150.86s0-1.7.3-4.8c.4-4.6,1.2-9.1,2.5-13.6,2-7,5-13.7,8.9-19.9,5.2-8.2,12-15.3,19.9-21,9.6-6.8,20.6-11.3,32.3-13.1,6.5-1,13-1.2,19.5-.5,3.4.3,6.8.9,10.1,1.7,3.4.8,6.8,1.9,10,3.2,13.9,5.6,25.9,15.1,34.4,27.5,2.2,3.2,4.2,6.6,5.9,10.1,1.7,3.6,3.2,7.3,4.3,11.1,4.7,15.7,4.1,32.4-1.5,47.8-1.4,3.7-3,7.4-5,10.8-9.3,16.6-24.5,29.1-42.6,35-3.3,1.1-6.8,1.9-10.2,2.5-3.4.6-6.8,1-10.2,1.1-6.5.3-13.1-.3-19.5-1.7-11.5-2.6-22.2-7.8-31.4-15.2-13.3-10.8-22.5-25.8-26.1-42.6-1-4.5-1.5-9.1-1.6-13.7-.1-3-.1-4.6,0-4.7v4.8c.8,21.8,11,42.2,28,56,9.1,7.4,19.8,12.5,31.2,15,6.4,1.4,12.9,2,19.4,1.7,3.4-.1,6.8-.5,10.1-1.1,3.4-.6,6.8-1.5,10.1-2.5,38.7-12.7,60.2-53.9,48.7-92.9-1.1-3.8-2.5-7.5-4.3-11-8.2-17-22.4-30.4-39.9-37.4-3.2-1.3-6.6-2.3-10-3.2-9.6-2.3-19.6-2.8-29.5-1.3-11.6,1.8-22.6,6.2-32.1,13-7.9,5.6-14.6,12.7-19.8,20.8-6.4,10-10.4,21.5-11.6,33.3-.2,1.6-.2,2.8-.3,3.6-.1.9,0,1.2,0,1.2Z" fill="#263238"/>
    <path d="m356.4,31.86c-.4-3.2-2.5-6-5.6-7.2-3.1-1.1-6.5-.3-8.7,2.1-2.2,2.4-2.6,6-1,8.9,1.4,2.3,3.8,3.8,6.5,4.1,2.6.3,5.3-.1,7.8-1.2" fill="#263238"/>
    <path d="m373.5,46.06c2.8,5.8,4.1,12.2,3.7,18.6-.5,6.4-3.5,12.7-8.6,16.5-.9.8-2.1,1.3-3.4,1.2-1.2-.2-2.3-1.6-1.7-2.7-1.1,1.8-2.6,3.4-4.4,4.7-.5.5-1.2.7-2,.7-1-.3-1.7-1.2-1.6-2.3.1-1,.5-2,1.1-2.8-1.2-.1-2.4.7-3.5,1.3-1.1.5-2.8.7-3.4-.4s.1-2.2.7-3.1c2.9-4.2,5.8-8.6,6.4-13.7.4-3.6-.3-7.3.5-10.8,1.1-4.4,4.5-7.8,8.9-8.9,2.7-.7,5.7-.4,7.3,1.7" fill="#263238"/>
    <path d="m399.6,75.26c2.6-3.3,7.3-4.2,9.3-7.8,3.6-6.3,3.4-12.3,3.4-19.6,0-5,.7-12.1-2.2-16.1-2.1-2.9-3.6-4.6-5.4-7.6-2-3.3-4.1-7.2-1.9-10.4" fill="#263238"/>
    <path d="m398.6,75.26c2.3-2.2,5.8-2.7,8.6-1.1l-4.4-61.2c2.8-.3,9.2,3.6,10.9,5.8,1.7,2.3,2.9,4.8,3.8,7.4,4,10.8.6,23.4-4.6,32.9h0c3,8.2,2.8,15.9-2.2,20.5l-.1.1-.7.7c-1.6,1.5-2.4,3.7-2.2,5.9v.1c.1.6.2,1.3.1,1.9-.1.7-.5,1.2-1.1,1.5-1,.3-2-.6-2.4-1.5-.3-1-.7-2-1.2-2.9-.6,1.1-1.2,2.2-1.7,3.4-.7,1.1-2.2,1.9-3.2,1.1-.4-.4-.7-.8-.8-1.3-.9-2.2-1.4-4.5-1.4-6.9,0-2.4.9-4.7,2.6-6.4Z" fill="#263238"/>
    <path d="m366.7,38.26l.3,53c0,8.7,7.1,15.7,15.9,15.7h.8c8.3-.5,14.7-7.5,14.4-15.8,0-4,.2-8.7.2-9.1,0,0,13.4-2.6,14.3-15.9.4-6.5.6-17.3.3-29.4-.3-13-10.6-23.6-23.6-24.3l-1.3-.1c-13.9,0-21.7,11.9-21.3,25.9Z" fill="#ffd5be"/>
    <path d="m398.4,82.16c-6.2-.2-12.2-2.3-17.2-6,0,0,3.6,9.9,17,9.4l.2-3.4Z" fill="#ffb194"/>
    <path d="m405.7,46.76c0,1-.9,1.9-1.9,1.8-1,0-1.9-.8-1.9-1.8h0c.1-1,.9-1.8,1.9-1.8s1.9.7,1.9,1.8h0Z" fill="#263238"/>
    <path d="m409.1,42.56c-.2.2-1.7-.1-3.7.2-2,.4-3.4,1.2-3.7,1.1s.1-.3.7-.7c.9-.5,1.9-.9,2.9-1,1-.2,2-.2,3,0,.7.1.9.3.8.4Z" fill="#263238"/>
    <path d="m385,45.36c-.1,1-.9,1.8-1.9,1.8s-1.8-.8-1.9-1.8h0c0-1,.9-1.9,1.9-1.8,1.1,0,1.9.8,1.9,1.8h0Z" fill="#263238"/>
    <path d="m389.2,43.86c-.3,0-1.4-1-3.3-1.7-1.9-.7-3.6-.7-3.7-.9s.3-.2,1-.2c1,0,2.1.2,3,.6.9.3,1.8.9,2.6,1.5.4.4.5.7.4.7Z" fill="#263238"/>
    <path d="m396,58.06c1.1-.3,2.2-.4,3.3-.4.5,0,1-.1,1.1-.5.1-.5,0-1.1-.3-1.6-.4-1.3-.9-2.7-1.3-4.1-1.8-5.8-3.1-10.6-2.9-10.6.3,0,1.9,4.6,3.8,10.4l1.3,4.1c.3.6.3,1.4.2,2.1-.2.4-.5.6-.9.7-.3.1-.6.1-.9.1-1.1,0-2.2,0-3.4-.2Z" fill="#263238"/>
    <path d="m389.9,59.06c.3,0,.2,2.2,2,3.9,1.8,1.7,4.2,1.6,4.2,1.9s-.6.4-1.6.4c-1.3,0-2.6-.6-3.5-1.4-.9-.9-1.5-2-1.6-3.3.1-.9.4-1.5.5-1.5Z" fill="#263238"/>
    <path d="m389.4,35.76c-.2.5-2.3.2-4.7.3-2.4.2-4.4.7-4.7.2-.1-.3.2-.8,1.1-1.3,2.2-1.2,4.8-1.4,7.2-.4.8.5,1.2.9,1.1,1.2Z" fill="#263238"/>
    <path d="m409.2,37.06c-.4.5-1.8-.1-3.5-.2s-3.2.1-3.5-.4c-.1-.2.1-.7.8-1.1,1.8-1,4-.8,5.6.5.6.5.8,1,.6,1.2Z" fill="#263238"/>
    <path d="m346.4,56.36c.5-2.5.8-5.1,1.2-7.7.6-4.5,10.6-20.3,10.6-20.3,3.2-6.3,7-12.4,12.3-17s12.2-7.6,19.1-6.9c6.9.8,13.5,5.9,14.8,12.8l-1.1-1.8c.2,2.4-2.5,4.2-4.9,4.3s-4.8-.8-7.2-1c-4.7-.3-9.2,2.5-12,6.3s-4.1,8.6-4.9,13.3-.9,9.6-1.8,14.2c-.9,5-3.8,6.7-7.7,9.9-3.7,3.1-7.2,6.6-10.2,10.3-1.4,1.5-3.3,2.2-5.3,2.1-1.5-.4-1.8-2.6-2-4.2-.1-1.8,1-3.4,1.2-5.8-1.4-.8-2.3-2.3-2.4-4-.2-1.2,0-2.9.3-4.5Z" fill="#263238"/>
    <path d="m368.3,51.16c-.2-.1-9-3.2-9.3,6-.2,9.2,9,7.5,9.1,7.2s.2-13.2.2-13.2Z" fill="#ffd5be"/>
    <path d="m365.4,60.86s-.2.1-.4.2c-.4.2-.8.2-1.2,0-1-.4-1.7-1.9-1.7-3.6,0-.8.2-1.6.5-2.3.2-.6.6-1,1.2-1.2.4-.1.8.1.9.5.1.3,0,.4.1.5s.2-.1.1-.5c0-.2-.2-.4-.3-.6-.2-.2-.6-.3-.9-.3-.8.1-1.4.7-1.7,1.4-.4.8-.6,1.7-.6,2.5,0,1.9.9,3.6,2.2,4,.5.2,1,.1,1.5-.2.3-.2.4-.4.3-.4Z" fill="#ffb194"/>
    <path d="m355.8,32.76c1.8.1,3.7,0,5.5-.5,1.9-.5,3.8-1.3,5.5-2.3,2.1-1.2,4.2-2.6,6.2-4.1s4.1-2.9,6.2-4.2c1.8-1,3.6-1.8,5.6-2.4,1.3-.4,2.7-.6,4.1-.5.4,0,.8,0,1.1.1.3,0,.4,0,.4.1-1.9,0-3.7.3-5.5.8-1.9.6-3.7,1.5-5.5,2.5-2.1,1.3-4.1,2.7-6.1,4.2s-4.1,2.9-6.3,4.1c-1.8,1-3.7,1.7-5.7,2.2-1.3.3-2.7.4-4.1.3-.4,0-.7-.1-1.1-.2-.2-.1-.3-.1-.3-.1Z" fill="#455a64"/>
    <path d="m353.4,36.36c0-.1,1.3.3,3.5.7,2.8.4,5.7.2,8.5-.4,1.5-.4,3-.9,4.4-1.6,1.2-.6,2.3-1.2,3.3-2,1.8-1.3,2.7-2.4,2.8-2.3s-.2.3-.6.8c-.6.7-1.2,1.3-1.9,1.8-1,.8-2.1,1.5-3.3,2.1-1.4.7-3,1.3-4.5,1.7-2.9.7-5.8.8-8.7.2-.9-.2-1.7-.4-2.5-.7-.4,0-.7-.1-1-.3Z" fill="#455a64"/>
    <path d="m356.8,31.06c-.8,1.6-1.6,3.1-2.6,4.6-.8,1.6-1.7,3.1-2.7,4.5.5-1.7,1.2-3.3,2.2-4.8.7-1.6,1.8-3.1,3.1-4.3Z" fill="#ff7200"/>
    <path d="m419.4,33.26c-2.8.6-5.7-.4-7.4-2.6.1-.1,1.5,1.1,3.6,1.8,1.2.4,2.5.6,3.8.8Z" fill="#455a64"/>
    <path d="m419.2,37.56c-.9.7-2,1-3.1.9-1.1.1-2.2-.3-3-1,.1-.2,1.4.3,3,.4,1.7-.1,3-.5,3.1-.3Z" fill="#455a64"/>
    <path d="m437.9,156.46l-22.7,18.3,1,6.3,4.9,14.5s5.9.8,13.7-8.8c7.8-9.5,17-27.9,17-27.9l-13.9-2.4Z" fill="#ffd5be"/>
    <path d="m481.1,113.96c-.4-.7-1.1-1.2-1.9-1.2l-13.5-.6c-1.2,0-2.3.4-3.1,1.3l-34.9,37,1.9,1.6,14.6,2.2,37.2-39.7-.3-.6Z" fill="#263238"/>
    <path d="m470.8,117.76c.4.3,1,.3,1.3-.1.3-.3.3-.8.1-1.1-.4-.3-1-.2-1.3.2-.2.2-.2.6-.1,1Z" fill="#fff"/>
    <path d="m481.4,114.56c-.9.1-1.8.1-2.6,0l-7.2-.2-4.9-.2c-.8-.1-1.7.2-2.2.8l-2,2.1-8.9,9.5c-6.3,6.7-12.1,12.8-16.3,17.1l-5,5.1c-.6.7-1.2,1.3-1.9,1.8.5-.7,1.1-1.4,1.7-2l4.8-5.3c4.1-4.5,9.8-10.6,16.2-17.3l9-9.4,2-2.1c.7-.7,1.7-1.1,2.8-1l4.9.3,7.2.4c.7.1,1.6.2,2.4.4Z" fill="#455a64"/>
    <path d="m464.1,126.86s-1.2-.4-2.4,2.7c-1.2,3.1-4.9,11.9-4.9,11.9l-5.6-4.4-7.9-.4s-1.9,1.3-.9,2.3c1.1,1.1,5.8,2.8,5.8,2.8l2.7,5.8-9.4-6.7s-3.6.3-3,2.5c.6,2.3,6.4,10.1,6.4,10.1l-5.1-1.3-5.4-4.8s-1.9-.3-1.5,1.5c.4,1.7,5.7,8.7,5.7,8.7l7,5.1s4.3.4,4.9-.7c.5-.9.8-1.9,1.1-2.9,0,0,2.4-.2,3-1.2.4-.9.6-1.8.7-2.8,0,0,3.4,1.3,4.2-.6.8-2.4,1.1-4.9,1-7.4-.1-1.6,4.3-15.2,4.2-15.7,0-.5,1.8-5-.6-4.5Z" fill="#ffd5be"/>
    <path d="m450.9,161.96c-.7.3-1.4.4-2.1.3-3.5-.1-6.9-1.6-9.3-4.1-.9-1-1.3-1.7-1.3-1.7.1-.1,2.2,2.4,5.9,3.9,3.6,1.5,6.8,1.3,6.8,1.6Z" fill="#ffb194"/>
    <path d="m449.6,158.86c-.1.2-1.4-.8-2.6-2.3s-2-2.8-1.8-3c.2-.1,1.2,1,2.4,2.4,1.1,1.5,2.2,2.7,2,2.9Z" fill="#ffb194"/>
    <path d="m454.9,152.86c-.1.2-1.4-.8-2.5-2.3s-1.7-3-1.5-3.1,1.1,1.1,2.2,2.6c1,1.5,1.9,2.7,1.8,2.8Z" fill="#ffb194"/>
    <path d="m460.1,148.26c-.2,0-.7-1.5-1.7-3.3-.9-1.8-1.9-3.2-1.8-3.3.2-.2,1.5,1,2.5,2.9,1,2,1.2,3.7,1,3.7Z" fill="#ffb194"/>
    <path d="m426,205.56c-5.2-7.7-9.8-24.5-9.8-24.5,0,0-2-15.3-4.5-21.1s-1.8-8.1-1.8-8.1c0,0,2.1-15.2.7-22.9s-5-25.3-11.3-32.9l-33-10.3s-17.9,8.5-19.5,10.4-13.1,11.4-13.4,25.3c-.2,8.7,6.3,40.3,6.3,40.3l7.2,59.4s23.9,11.1,46.8,6.4c22.9-4.8,36.1-16.4,36.1-16.4l-3.8-5.6Z" fill="#ff7200"/>
    <path d="m416.4,181.06c0-.3,0-.6-.1-.8-.1-.5-.2-1.3-.3-2.4-.3-2-.8-5-1.6-8.6-.9-4.2-2.2-8.4-3.7-12.4-.9-2.4-1.2-4.9-.9-7.4.2-2.6.7-5.3,1-8.1.7-9.6-.4-19.3-3.4-28.5-.9-2.8-2-5.5-3.2-8.2-.4-.9-.8-1.7-1.1-2.2-.1-.3-.3-.5-.4-.7.1.3.2.5.3.8.2.5.5,1.2.9,2.2,1.1,2.7,2.1,5.4,3,8.2,2.8,9.2,3.9,18.8,3.2,28.3-.2,2.8-.8,5.5-.9,8.1-.3,2.6.1,5.2,1,7.6,1.5,4,2.8,8.2,3.8,12.4.9,3.6,1.4,6.5,1.8,8.5.2,1,.3,1.7.4,2.4,0,.4.1.6.2.8Z" fill="#263238"/>
    <path d="m406.1,122.26c1.7,8.3,2,16.8.9,25.2-5.3.8-10.6,2.2-15.5,4.3-.2-8.6-.4-17.2-.7-25.8-.1-.6.1-1.1.4-1.6.3-.2.7-.4,1.1-.4l14-1.6" fill="#263238"/>
    <g opacity=".3">
      <path d="m412.6,165.06c-22.4,6.6-44.4,14.3-66,23l-1.1,19.8c1,2.9,4.2,4.5,7.2,4.6,3.1-.1,6-.9,8.8-2.3,16.4-7.1,31.4-17.2,44.2-29.6,4.2-4.1,8.5-9.7,6.9-15.5Z"/>
    </g>
    <path d="m355.3,97.46c-3.3-2.8-8.2-2.7-11.3.3-5.9,5.5-14.4,14.8-14.9,22.5-.8,11.8-3.7,43.1-3.7,43.1l43.6-.1s1.3-41.6-2.2-51.3c-1.9-5.5-7.2-10.9-11.5-14.5Z" fill="#ff7200"/>
    <path d="m330.7,163.76s.3,24.1,4.2,34.7c4.1,11,9.7,10.2,14.5,10s74.7-47.6,74.7-47.6l-9.9-13.7-54.1,23.2-.4-6.7-29,.1Z" fill="#ffd5be"/>
    <path d="m413.7,147.56l11.5-18.3,11.8-4.2,15-.1c.4,1.4-.1,2.9-1.4,3.6l5.2-.3c.7,1.5.2,3.2-1.3,4-.1,0-.1.1-.2.1l3.8.2c-.7,2.3-3,3.8-5.4,3.7-3.7-.1-7.4.1-11,.5l-6.8,4.8,10.8-1.7,8,.6s1.3,1.9-.5,2.6c-1.7.7-8.6,1-8.6,1l-10,3.9s-1.5,6.9-2.6,8.5-8.4,4.4-8.4,4.4l-9.9-13.3Z" fill="#ffd5be"/>
    <path d="m455.8,128.36c-1.3.2-2.7.3-4,.3-2.5.1-6,.2-9.7.2h-3.7.2c-2.7,1.1-5.1,2-6.7,2.7-.9.4-1.8.7-2.7.9.8-.6,1.7-1,2.6-1.3,1.6-.8,3.9-1.8,6.6-2.9h3.9c3.8,0,7.2,0,9.7.1,1.1-.3,2.4-.2,3.8,0Z" fill="#ffb194"/>
    <path d="m457.2,132.56c-1.2.2-2.4.2-3.7.2-2.3,0-5.4,0-8.8-.2l-3.4-.1h.2c-4.6,2.4-8.1,4.1-8.2,4s3.2-2.1,7.8-4.6h.2l3.4.1c3.5.1,6.6.3,8.8.4,1.2-.1,2.5,0,3.7.2Z" fill="#ffb194"/>
    <path d="m423.6,160.86c.4-.2.7-.4,1.1-.5.8-.3,1.9-.8,3.3-1.5.7-.3,1.5-.8,2.3-1.3.4-.3.8-.6,1.2-.9.4-.4.6-.8.8-1.3.8-2.4,1.5-4.9,2-7.4v-.1l.1-.1,10-3.9h.1c1.8-.1,3.6-.2,5.6-.4,1-.1,1.9-.3,2.9-.5.4-.1.7-.4.7-.8s-.2-.8-.4-1.2l.3.2-8-.6h.1l-10.8,1.7-1.6.3,1.4-1,6.8-4.8h.2c2.7-.3,5.6-.5,8.6-.6.8,0,1.6,0,2.4.1.7,0,1.5-.1,2.2-.3,1.4-.6,2.4-1.7,2.9-3.1l.4.5-3.8-.2-1.4-.1,1.2-.7c.7-.3,1.2-.8,1.5-1.5.2-.7.2-1.4-.1-2l.4.2-5.2.3-1.4.1,1.2-.8c.5-.3,1-.8,1.2-1.4.2-.6.2-1.2,0-1.8l.4.2h-15,.1l-11.8,4.1.1-.1-8.5,13.4-2.4,3.6-.6.9c-.1.2-.2.3-.2.3,0-.1.1-.2.2-.3l.6-1,2.2-3.7c2-3.2,4.8-7.8,8.4-13.5l.1-.1h.1l11.8-4.2h.1l15-.1h.3l.1.2c.3.7.3,1.6,0,2.3s-.8,1.3-1.5,1.8l-.2-.7,5.2-.3h.3l.1.2c.4.8.5,1.8.2,2.7-.4.8-1,1.5-1.8,1.9l-.2-.8,3.8.2h.5l-.2.5c-.6,1.6-1.8,2.9-3.3,3.6-.8.3-1.7.4-2.5.4h-2.4c-2.9,0-5.8.3-8.5.5l.2-.1-6.8,4.8-.3-.7,10.8-1.6h.1l8,.6h.2l.1.1c.3.5.5,1.1.5,1.7-.1.7-.6,1.2-1.2,1.4-1,.3-2,.5-3,.5-2,.2-3.8.3-5.6.4h.1l-10,3.8.2-.2c-.5,2.5-1.2,5.1-2.2,7.5-.2.5-.5,1-.9,1.5-.4.3-.8.6-1.3.9-.8.5-1.6.9-2.4,1.2-1.4.7-2.6,1.1-3.3,1.4l-.9.3c-.9,0-1-.1-1-.1Z" fill="#ffb194"/>
    <path d="m324.7,163.26c.2-.1.5-.1.7-.1l2.1-.1,7.9-.1,27-.2-.4.4c.2-3.8.3-7.8.2-11.9-.1-6.9-.5-13.4-.7-19.4-.1-3-.1-5.8-.3-8.4-.1-2.4-.4-4.9-.9-7.3-.7-3.5-2-6.8-3.9-9.8-1.4-2.1-2.5-3-2.4-3.1.3.2.5.4.8.7.7.7,1.3,1.4,1.9,2.2,2.1,3,3.5,6.3,4.2,9.8.5,2.4.9,4.9,1,7.3.2,2.7.2,5.5.3,8.5.2,6,.6,12.5.8,19.4.1,4.2,0,8.2-.2,12v.4h-.3l-27-.1-7.9-.1h-2.1c-.3.1-.6,0-.8-.1Z" fill="#263238"/>
  </g>
  <g id="freepik--character-2--inject-28">
    <path d="m52.1,95.86s1.1-1.5,3.5-4.2c3.4-3.9,7.2-7.6,11.2-11,6.3-5.3,13.2-9.8,20.7-13.3,9.9-4.8,20.6-7.7,31.5-8.6,6.4-.5,12.8-.2,19.1.8,6.8,1.1,13.5,3.2,19.7,6.2,13.9,6.7,25.2,17.6,32.4,31.2,7.6,14.2,10.6,31.7,8.4,49.1-5,36.7-29.6,67.8-64.2,81.1-16.4,6.1-34.1,7.2-49.7,3-14.9-3.9-28.2-12.4-37.8-24.4-4.3-5.4-7.8-11.4-10.5-17.8-2.4-5.9-4.1-12.1-5.1-18.4-1.7-10.9-1.3-21.9,1.1-32.7,1.8-8.1,4.5-15.9,8.3-23.3,2.4-4.7,5.1-9.1,8.1-13.4,2.1-2.8,3.3-4.2,3.3-4.3l-.8,1.2c-.5.7-1.4,1.8-2.4,3.3-3,4.3-5.7,8.8-8,13.4-3.7,7.4-6.4,15.2-8.2,23.2-2.3,10.7-2.7,21.7-1,32.5,1,6.3,2.7,12.4,5.1,18.3,2.7,6.3,6.2,12.2,10.5,17.6,9.6,11.9,22.8,20.4,37.5,24.2,15.5,4.1,33,3,49.3-3.1,34.4-13.2,58.8-44.1,63.8-80.5,2.2-17.3-.8-34.6-8.3-48.7-7.1-13.5-18.4-24.4-32.1-31-6.2-3-12.8-5.1-19.6-6.2-6.3-1-12.6-1.3-18.9-.8-10.9.8-21.6,3.7-31.4,8.4-7.5,3.5-14.4,8-20.8,13.3-4,3.3-7.7,7-11.2,10.8-1.2,1.3-2,2.4-2.6,3.1l-.9,1Z" fill="#263238"/>
    <ellipse cx="111.78" cy="139.79" rx="75.2" ry="66.2" transform="translate(-67.21 140.6) rotate(-51.61)" fill="none"/>
    <path d="m60,98.66s.9-1.2,2.9-3.5c2.8-3.3,5.9-6.3,9.2-9.1,5.2-4.4,11-8.2,17.2-11.2,8.2-4,17.1-6.4,26.1-7.1,5.3-.4,10.6-.2,15.8.7,5.7.9,11.2,2.6,16.4,5.1,11.5,5.6,20.9,14.7,26.8,26,6.4,12.5,8.9,26.7,7,40.7-4.1,30.4-24.5,56.2-53.2,67.2-13.2,5-27.5,5.9-41.2,2.5-12.3-3.2-23.3-10.3-31.3-20.2-3.6-4.5-6.5-9.5-8.7-14.8-2-4.9-3.4-10-4.2-15.2-1.4-9-1.1-18.2.9-27.1,1.5-6.7,3.8-13.2,6.9-19.3,2-3.8,4.2-7.5,6.7-11,1.7-2.4,2.7-3.6,2.7-3.7l-.7,1c-.4.6-1.1,1.5-2,2.7-2.5,3.5-4.7,7.3-6.6,11.1-3.1,6.1-5.3,12.6-6.8,19.3-1.9,8.8-2.2,18-.8,26.9.8,5.2,2.3,10.3,4.2,15.1,2.2,5.2,5.1,10.2,8.7,14.6,7.9,9.8,18.8,16.8,31,20,13.5,3.4,27.8,2.5,40.8-2.5,28.5-10.9,48.7-36.5,52.8-66.7,1.9-13.8-.5-27.9-6.8-40.4-5.9-11.2-15.2-20.2-26.6-25.7-5.1-2.4-10.5-4.2-16.1-5.1-5.2-.8-10.4-1.1-15.7-.7-9,.7-17.8,3.1-26,7-6.2,2.9-12,6.6-17.2,11-3.3,2.8-6.4,5.8-9.3,9-1,1.1-1.7,2-2.2,2.6l-.7.8Z" fill="#263238"/>
    <path d="m67.7,12.96c-2.1-3.4-6.5-4.6-9.9-2.5-1.4.8-2.5,2.1-3.1,3.6-.3,1.1-.7,2.2-1.2,3.2-1.8,2.5-6.4,1.8-7.9,4.5s2.1,6.4,1.2,9.6c-.7,2.6-4,3.7-4.7,6.2-1,3.4,3.1,6.7,2.1,10.1-.8,2.9-5,4-5.6,6.9-.7,3.3,3.3,5.9,3.2,9.3-.1,4.3-6.6,6.6-6,10.8.3,2.3,2.8,3.9,3.2,6.2.8,4.4-6,7.4-5.2,11.8.3,2,2.3,3.4,4,4.6s3.4,3,3.1,5.1-2.7,3.3-4,5.1c-2,2.7,1.2,9.7,4.2,11.1l12.8-9.6s-3.7-3.1-.8-5.9c2.9-2.8,1-4.1.9-6.2,0,0,2.9,2.4,1.8,5-.8,2-.6,4.2.7,6l19.5-8.7,2.1-18.5-10.4-67.7Z" fill="#263238"/>
    <path d="m39.3,99.06c-.4.1-.8.1-1.2.1-1.2-.1-2.4-.4-3.4-1-1.7-.9-2.9-2.5-3.5-4.3-.4-1.1-.5-2.3-.4-3.5.2-1.3.6-2.6,1.3-3.7.6-1.2,1.4-2.5,2-3.8.7-1.4.9-2.9.7-4.4-.3-1.6-1.5-2.8-2.4-4.3-.5-.8-.8-1.7-.8-2.6.1-1,.6-1.9,1.4-2.4.8-.5,1.6-1,2.5-1.4.8-.4,1.5-1,2-1.7.4-.8.5-1.8.2-2.6-.3-.9-.7-1.8-1.2-2.6-.6-.8-1.2-1.6-1.8-2.5s-1-1.9-1.2-2.9c-.1-1.1.3-2.2,1-3s1.5-1.5,2.3-2.1c.9-.6,1.7-1.2,2.4-1.9.7-.7,1.1-1.6,1.2-2.6-.1-1-.3-1.9-.8-2.8-.4-.9-1-1.7-1.4-2.6-.5-.9-.7-1.9-.7-3,0-.5.2-1,.4-1.5.3-.4.6-.9.9-1.2,1.4-1.4,3.1-2.3,3.8-3.9.3-.8.4-1.6.3-2.5-.1-.8-.3-1.7-.6-2.5-.7-1.6-1-3.3-.9-5,.1-.8.5-1.6,1.1-2.2.6-.6,1.3-1,2-1.2,1.5-.4,2.9-.5,4.3-.8,1.3-.2,2.4-.9,3.2-1.9.7-1,1-2.1,1.7-3.1,1.9-2.6,5.3-3.5,8.3-2.4.3.1.6.3.8.4l.3.2s-.4-.2-1.1-.5c-1.1-.4-2.3-.5-3.5-.3-1.8.3-3.5,1.3-4.6,2.8-.6.9-1,2-1.7,3.1-.8,1.1-2,1.9-3.3,2.1-1.4.3-2.8.4-4.2.8-.7.2-1.4.6-1.9,1.1s-.9,1.3-.9,2c-.1,1.7.3,3.3,1,4.8.3.8.5,1.7.7,2.6.1.9,0,1.9-.3,2.8-.8,1.8-2.6,2.7-3.9,4.1-.3.3-.6.7-.8,1.1-.2.4-.3.8-.4,1.2,0,.9.2,1.9.6,2.7.4.9,1,1.7,1.4,2.6.5.9.8,1.9.9,3,0,1.1-.5,2.1-1.2,2.9-.8.7-1.6,1.4-2.5,2s-1.7,1.4-2.3,2.2c-.6.8-.9,1.7-.9,2.7.2,1,.5,1.9,1.1,2.7.5.8,1.2,1.6,1.8,2.5.6.8,1,1.7,1.3,2.7s.2,2.1-.2,3c-.5.8-1.3,1.5-2.2,1.9-.8.4-1.6.8-2.4,1.3-.7.5-1.2,1.2-1.2,2.1,0,.8.3,1.6.7,2.2.9,1.4,2.1,2.7,2.5,4.4.2,1.6-.1,3.2-.8,4.7-.6,1.4-1.4,2.6-2.1,3.8-.7,1.1-1.1,2.3-1.3,3.6-.1,1.1,0,2.3.3,3.4.6,1.8,1.8,3.3,3.4,4.2,1,.6,2.2,1,3.3,1.1.4-.2.9-.2.9-.2Z" fill="#263238"/>
    <path d="m39.8,113.06c-.1-.1-.2-.1-.3-.2-.2-.2-.4-.5-.4-.9,0-.5.1-1,.3-1.5.4-.6,1-1,1.7-1.2.7-.3,1.6-.4,2.5-.6,1-.2,1.9-.7,2.5-1.6.3-.5.3-1,.1-1.6-.2-.5-.5-1.1-.9-1.5-.4-.5-.7-1.2-.8-1.8-.1-.7.1-1.4.5-2,.3-.6.8-1.2,1.1-1.8.4-.6.6-1.3.7-2-.1-.7-.4-1.4-.9-1.9-.5-.6-1.2-1.1-1.7-1.7-.7-.6-1-1.6-.9-2.5.1-.5.3-.9.6-1.2.3-.3.7-.6,1.1-.8.8-.4,1.7-.7,2.5-1s1.5-.8,2.1-1.5c.5-.7.6-1.6.4-2.5-.3-.9-.6-1.8-1-2.6-.4-.9-.7-1.9-.9-2.8-.1-1,.1-2.1.5-3,.8-1.9,2.2-3.5,2.6-5.5.2-1,.1-2-.4-2.9s-1-1.8-1.6-2.7c-.6-.9-1-2-1.1-3.1,0-1.1.4-2.2,1.1-3,.6-.9,1.4-1.6,2-2.4.6-.7,1.1-1.6,1.2-2.6.1-1-.2-1.9-.7-2.7-.5-.8-1-1.6-1.5-2.5-.5-.8-.8-1.8-.8-2.8.1-1,.4-1.9,1-2.7.5-.8,1-1.5,1.4-2.3s.5-1.6.4-2.5c-.4-1.6-1.6-3-1.9-4.7-.2-.9,0-1.8.5-2.5.5-.6,1-1.2,1.6-1.8.5-.4,1-1,1.4-1.5.3-.6.5-1.3.5-2,0-1.4-.3-2.7-.2-4,.1-1.2.4-2.4,1.1-3.4,1-1.7,2.7-2.9,4.6-3.3,1.2-.3,2.4-.2,3.6.1.4.1.8.3,1.2.5,0,0-.4-.2-1.2-.4-1.2-.3-2.4-.3-3.5,0-1.8.4-3.4,1.6-4.4,3.2-.6,1-.9,2.1-1,3.3,0,1.2.2,2.5.2,4,0,.7-.2,1.5-.6,2.1-.4.6-.9,1.2-1.5,1.7s-1.1,1.1-1.5,1.7c-.4.6-.6,1.4-.5,2.2.3,1.6,1.6,2.9,2,4.7.2.9,0,1.9-.4,2.7s-.9,1.6-1.4,2.4c-.5.7-.8,1.6-.9,2.5,0,.9.3,1.8.8,2.6.5.8,1,1.6,1.5,2.5.6.9.8,1.9.7,3-.2,1-.6,2-1.4,2.8-.7.8-1.4,1.5-2,2.3s-1,1.7-1,2.7c.1,1,.5,2,1,2.8.6.9,1.1,1.8,1.6,2.8s.6,2.1.4,3.2c-.5,2.1-1.9,3.7-2.6,5.6-.4.9-.6,1.8-.5,2.8.2.9.4,1.9.9,2.7.4.9.7,1.8,1,2.7.3,1,.1,2-.4,2.9-.6.7-1.4,1.3-2.3,1.6-.8.4-1.7.6-2.5,1-1.2.4-1.8,1.6-1.5,2.8.1.4.4.8.7,1,.5.6,1.2,1.1,1.7,1.7.6.6,1,1.4,1,2.2s-.3,1.5-.7,2.2c-.4.6-.8,1.2-1.1,1.8-.4.5-.5,1.2-.5,1.8.1.6.3,1.2.7,1.7s.7,1,.9,1.6c.2.6.2,1.2-.1,1.8-.6.9-1.6,1.5-2.6,1.7-.9.2-1.8.3-2.5.5s-1.2.6-1.6,1.1c-.3.4-.4.9-.4,1.4.2.5.4.8.7,1.1Z" fill="#455a64"/>
    <path d="m62.7,196.76c5.8,6.2,24.6,13,24.6,13l-8.4-14.1-10.4-47.3-7-44.7c-.6.7-17.4,11.4-19.9,18.3-2.5,6.9,1.8,38.7,2.5,43.6,2.9,12,9.3,22.9,18.6,31.2Z" fill="#ff7200"/>
    <path d="m71.6,88.36l-1.3,8.3-12.4,9.9c-1.7,12.5-1.8,25.2-.2,37.7,0,0,18.1,49.2,18.6,51.3.8,4,11,14.1,11,14.1,0,0,13.8,4.8,35-.7,19.8-5.2,35-21.6,37.1-23.6,2.2-2,8.6-10.9,8.6-10.9l-24-49-1-33.3-25.3-6.5-8.6-6.6-37.5,9.3Z" fill="#ff7200"/>
    <path d="m142.7,92.26s14,4.9,17.7,13.3,16.1,43.8,16.4,51.1c0,1-5.1,16-9.2,18.5-5.4,3.3-13.7-4.2-13.7-4.2l-5.7-9.3.3-9.7-6.5-25.8.7-33.9Z" fill="#ff7200"/>
    <path d="m72.2,92.36l28.9,35.4,3.9-32.8,5.5-16.1-37.6,9.3-.7,4.2Z" fill="#ffbe9d"/>
    <path d="m100.9,128.96c-.1-.1-.2-.2-.3-.3l-.7-1c-.6-.8-1.6-2-2.8-3.5-3.4-4.1-7-8-10.9-11.6l.4-.2c-.1,4.8-.2,10.2-.4,15.8v2.6l-.5-1c-4.4-9.1-8.4-17.4-11.3-23.3l-3.4-7-.9-1.9c-.1-.2-.2-.4-.3-.7.1.2.3.4.4.6.2.5.6,1.1,1,1.9l3.5,7,11.5,23.2-.5.1v-1.5c.1-5.7.3-11.1.4-15.8v-.6l.4.4c3.9,3.7,7.5,7.6,10.8,11.8,1.2,1.5,2.1,2.8,2.7,3.6l.7,1c.1.1.2.2.2.4Z" fill="#263238"/>
    <path d="m142.1,154.46c.1.1-8.3,9.1-18.9,20.2s-19.1,19.9-19.3,19.8c-.1-.1,8.3-9.1,18.9-20.1s19.2-19.9,19.3-19.9Z" fill="#263238"/>
    <path d="m126.4,200.06c-.3-1.1-.6-2.2-.8-3.3-.5-2-1.2-4.8-2.2-7.8s-2-5.7-2.9-7.6c-.5-1-.9-2.1-1.2-3.1.6.9,1.2,1.9,1.6,3,1.2,2.5,2.2,5,3,7.6s1.5,5.2,2,7.9c.3,1,.5,2.2.5,3.3Z" fill="#263238"/>
    <path d="m55.5,142.56c-2.4-1.3-4.8-2.8-7-4.4-2.3-1.5-4.6-3.1-6.7-4.9,2.4,1.3,4.8,2.8,7,4.4,2.3,1.5,4.6,3.1,6.7,4.9Z" fill="#263238"/>
    <path d="m167.6,176.96h-1.5c-.6,0-1.2,0-1.7-.1-.8-.1-1.5-.3-2.3-.5-2-.7-3.8-1.7-5.4-3.1-2-1.8-3.6-4-4.6-6.5h0c-1-4-2.1-8.4-3.2-13l-5.5-22.8c-.7-2.9-1.2-5.2-1.6-6.9-.2-.8-.3-1.4-.4-1.9-.1-.2-.1-.4-.1-.7.1.2.2.4.2.6.1.5.3,1.1.5,1.9l1.8,6.9c1.5,5.9,3.5,13.9,5.6,22.7,1.1,4.7,2.2,9.1,3.2,13.1h0c1,2.4,2.5,4.6,4.4,6.4,1.5,1.4,3.3,2.5,5.2,3.2,1.8.4,3.6.7,5.4.7Z" fill="#263238"/>
    <path d="m65.4,177.66c-.7.2-1.4.3-2.1.5-3.3.8-6.2,2.8-8.2,5.6-.8,1.1-1.1,1.8-1.2,1.8.1-.7.4-1.4.9-2,.9-1.5,2.2-2.7,3.6-3.7s3.1-1.7,4.8-2c.7-.3,1.4-.3,2.2-.2Z" fill="#263238"/>
    <path d="m65.6,176.46c-3.1,1.6-6.6,2.5-10.1,2.5,0-.2,2.3-.5,5.1-1.2s4.9-1.5,5-1.3Z" fill="#263238"/>
    <path d="m120.4,176.16c-.1-.1-.2-.3-.3-.4l-.7-1.2c-.6-1.1-1.5-2.8-2.5-4.8-2.1-4.1-4.8-9.8-7.4-16.3s-4.8-12.4-6.2-16.8c-.7-2.2-1.2-4-1.6-5.2-.1-.6-.3-1-.4-1.4-.1-.2-.1-.3-.1-.5,0,0,.1.1.2.5l.5,1.4c.4,1.2,1,3,1.8,5.1,1.5,4.3,3.7,10.3,6.4,16.7s5.4,12.2,7.4,16.3l2.4,4.9.6,1.3c-.1.2-.1.4-.1.4Z" fill="#263238"/>
    <g opacity=".3">
      <path d="m104.3,193.86c15.2-8.3,28.7-21.6,36.1-37.2l-36.1,37.2Z"/>
    </g>
    <g opacity=".3">
      <path d="m54,185.46c3-6.4,8.8-8.1,14.5-8.1.1-.7-.3-1.4-1-1.6-.7-.2-1.3-.2-2,0-2.8.4-5.4,1.3-7.9,2.7-2.3,1.5-3.6,4-3.6,6.7"/>
    </g>
    <g opacity=".3">
      <path d="m70,96.96c3.9,14.1,9.9,27.6,17.8,40,2.9-4.5,4.2-10,3.5-15.3,2.2,2.9,5.2,5,8.7,6.1-3.8-5.6-8.4-10.7-13.5-15.2,0,0-.5,17.8-.4,17.3-5.5-11.1-10.8-21.9-16.1-32.9"/>
    </g>
    <path d="m87.8,205.96s-.1-.2-.3-.5-.4-1-.6-1.6c-.5-1.4-1.3-3.5-2.3-6-2-5-5.1-11.9-8.6-19.3-3.5-7.5-6.7-14.3-8.7-19.3-1-2.5-1.8-4.6-2.3-6-.2-.7-.4-1.2-.5-1.7-.1-.2-.1-.4-.1-.6.1.2.2.4.3.5l.7,1.6c.6,1.4,1.4,3.4,2.5,5.9,2.1,5,5.3,11.8,8.9,19.3s6.6,14.4,8.5,19.4c1,2.5,1.7,4.6,2.1,6.1l.5,1.7c-.1.1-.1.3-.1.5Z" fill="#263238"/>
    <path d="m66.8,157.46c0,.1-1.4-.3-3.5-.7-5.7-.9-11.6-.3-16.9,1.8-2.1.8-3.3,1.5-3.3,1.4s.3-.2.8-.6c.8-.5,1.5-.9,2.3-1.2,5.4-2.4,11.4-3,17.2-1.8.9.2,1.7.4,2.6.7.5.3.8.4.8.4Z" fill="#fff"/>
    <path d="m77.8,182.76c-3.6.6-7.2,1.7-10.5,3.2-3.3,1.7-6.3,3.9-9,6.4.6-.9,1.3-1.8,2.2-2.5,3.9-3.6,8.8-6,14.1-6.9,1-.3,2.1-.3,3.2-.2Z" fill="#fff"/>
    <path d="m107.6,150.66c.1.2-7.7,4.3-17.5,9.3-9.7,5-17.7,8.9-17.7,8.7-.1-.2,7.7-4.3,17.5-9.3s17.6-8.9,17.7-8.7Z" fill="#fff"/>
    <path d="m143.3,131.66c0,.2-8.4,2.6-18.9,5.5-10.5,2.8-19,5-19.1,4.9s8.4-2.6,18.9-5.5,19.1-5.1,19.1-4.9Z" fill="#fff"/>
    <path d="m177.1,155.56s-.3.3-.8.7c-.8.6-1.6,1.1-2.5,1.6-1.3.7-2.7,1.3-4.1,1.7-1.7.5-3.5.9-5.3,1.1-1.8.2-3.6.2-5.4,0-1.5-.2-2.9-.5-4.3-.9-1-.3-1.9-.6-2.8-1.1-.3-.1-.7-.3-1-.5,0-.1,1.5.5,3.9,1.2,1.4.4,2.8.6,4.3.7,1.8.2,3.5.2,5.3,0s3.5-.5,5.2-1c1.4-.4,2.7-.9,4.1-1.5,2-1.2,3.3-2.1,3.4-2Z" fill="#fff"/>
    <path d="m158,174.36c-.3.4-.6.7-1,1-.7.6-1.7,1.5-3,2.5-3.4,2.7-7.1,5-11,7.1-3.9,2-7.9,3.7-12,5-1.6.5-2.9.9-3.8,1.1-.5.1-.9.2-1.4.3.4-.2.9-.4,1.4-.5.9-.3,2.2-.7,3.7-1.2,8.2-2.8,15.9-6.9,22.9-12,1.3-1,2.4-1.8,3.1-2.4.3-.5.7-.7,1.1-.9Z" fill="#fff"/>
    <path d="m123.9,196.46c-.4.3-.8.5-1.2.7-.9.4-2.1,1-3.7,1.7-8.3,3.5-17,5.8-26,6.6-1.7.1-3.1.2-4.1.2h-1.5c.5-.1,1-.2,1.5-.2,1-.1,2.3-.2,4-.4,4.4-.6,8.8-1.4,13.1-2.5,4.3-1.1,8.6-2.5,12.7-4.1,1.6-.6,2.9-1.2,3.7-1.5.5-.3,1-.4,1.5-.5Z" fill="#fff"/>
    <path d="m76.1,121.46c-1.2.9-2.5,1.7-3.8,2.4-2.4,1.4-5.7,3.4-9.3,5.6-3.6,2.2-6.9,4.3-9.2,5.8-1.2.9-2.5,1.7-3.9,2.4.3-.3.6-.6.9-.8.6-.5,1.5-1.2,2.7-1.9,2.3-1.6,5.5-3.7,9.1-6s7-4.1,9.5-5.4c1.2-.7,2.2-1.2,3-1.5.2-.3.6-.5,1-.6Z" fill="#fff"/>
    <path d="m78.4,103.76c0,.9-.2,1.9-.7,2.7-.5,1.4-1.1,2.6-1.2,2.5,0-.9.3-1.9.7-2.7.5-1.4,1.1-2.6,1.2-2.5Z" fill="#fff"/>
    <path d="m137.3,101.96c0,.2-7.4,2.6-16.8,5.4-9.3,2.8-16.9,5-16.9,4.9s7.4-2.6,16.8-5.4c9.4-2.8,16.9-5.1,16.9-4.9Z" fill="#fff"/>
    <g opacity=".3">
      <path d="m66.5,157.76l21.8,49.1c-.7-18.6-8.5-36.2-21.8-49.1Z"/>
    </g>
    <path d="m97.4,21.66l-29.1-5.2c-9.2-.3-14.5,11.3-14.4,20.5.1,10.2.5,22.7,2.3,30.2,3.5,15.1,15.3,16.2,15.3,16.2l.7,8.9,30.2.5.1-65.9c-.1-2.8-2.3-5.1-5.1-5.2Z" fill="#ffbe9d"/>
    <path d="m59.3,47.86c.1,1.1,1,1.9,2,1.8,1,0,1.9-.8,1.9-1.9h0c-.1-1.1-1-1.9-2-1.8-1,0-1.9.8-1.9,1.9h0Z" fill="#263238"/>
    <path d="m57.3,42.26c.3.2,1.7-1,3.7-1.1,2.1-.1,3.7.8,3.9.5.2-.3-.2-.6-.9-1-1-.6-2.1-.8-3.2-.7s-2.2.5-3,1.2c-.4.5-.6,1-.5,1.1Z" fill="#263238"/>
    <path d="m78.6,47.86c.1,1.1,1,1.9,2,1.8,1,0,1.9-.8,1.9-1.8v-.1c-.1-1.1-1-1.9-2-1.8-1,0-1.9.8-1.9,1.8v.1Z" fill="#263238"/>
    <path d="m78.1,42.26c.3.2,1.7-1,3.8-1.1,2.1-.1,3.7.8,3.9.5s-.2-.6-.9-1c-1-.6-2.1-.8-3.2-.7s-2.1.5-3,1.2c-.5.5-.7,1-.6,1.1Z" fill="#263238"/>
    <path d="m71.5,58.36c-1.1-.3-2.3-.4-3.5-.4-.5,0-1.1-.1-1.2-.4-.1-.6,0-1.1.2-1.6.4-1.3.9-2.7,1.3-4.2,1.8-6,3.1-10.9,2.8-11-.2-.1-1.9,4.7-3.7,10.7-.4,1.5-.9,2.9-1.2,4.2-.3.7-.3,1.4-.1,2.1.2.4.5.6.9.7.3.1.6.1.9.1,1.3.1,2.5.1,3.6-.2Z" fill="#263238"/>
    <path d="m71.4,83.46c7.2-.4,14.2-2.8,20.1-6.9,0,0-4.4,10.9-19.9,10.5l-.2-3.6Z" fill="#eb996e"/>
    <path d="m76.7,36.86c.2.6,2.3.1,4.8.3,2.5.1,4.5.7,4.8.1.1-.3-.3-.8-1.1-1.2-1.1-.6-2.4-1-3.6-1-1.3-.1-2.6.2-3.7.7-.8.3-1.3.8-1.2,1.1Z" fill="#263238"/>
    <path d="m57.7,37.16c.4.5,1.8-.1,3.6-.3,1.8-.1,3.2.1,3.5-.4.1-.2-.1-.7-.8-1.1-.9-.5-1.9-.7-3-.6-1,.1-2,.5-2.8,1.2-.5.4-.7.9-.5,1.2Z" fill="#263238"/>
    <path d="m64.6,16.16c-.9,1.9,2.8,5.4,4.8,6.1,2,.7,4.6.3,5.6,2.1,1.2,2-1.2,5.3,2.9,7.6,1.3.7,3.2-.8,4.3.2,1.4,1.2-.4,3.4-.4,5.2.1,3.6,6.6,3.8,7,7.4.3,2.2-2.2,4.3-1.3,6.4.9,2.1,4.4,1.9,5.3,4,1.1,2.7-3.5,5.1-2.9,8s5.4,2.9,6.3,5.6c.8,2.3-1.8,5-.9,7.2,1,2.7,5.5,2.3,6.7,4.8,1.5,3.1-3.5,6.7-1.8,9.7.6,1,1.8,1.4,2.6,2.2,2.5,2.8,2.2,8.9-.3,11.4h1.8c5.5-.1,10.6-2.9,13.5-7.5h0l1.5,3.5c4.8-1.5,8.5-4.7,12.4-7.9,1.9-1.6,4.5-2.2,7-1.5l1.1.3c3.2.2,7.4-1.4,10.1-3.1-3.5-.7-5.4-4.6-6.3-8.1-.9-3.5-1.4-7.4-4.1-9.8-2.9-2.7-7.8-3.3-9.1-6.9-1-2.9.9-6.2,0-9.1s-4.4-4.4-5.7-7.2c-1.8-3.8.8-8.8-1.5-12.4-2.5-3.8-9.3-3.3-11.2-7.4-1.1-2.3-.2-5.4-2-7.2-1.5-1.4-3.9-1.2-5.5-2.5-2.2-1.9-1.1-5.9-3.1-8.2-2.6-3-8.1-.4-11.4-2.5-2.1-1.4-2.8-4.3-5-5.7-2.9-1.9-6.6-.2-9.9.9-2.5.9-5.1,1.4-7.6,2.5-2.5.9-4.5,2.9-5.6,5.3-.8,2.6.3,5.8,2.7,6.6" fill="#263238"/>
    <path d="m145.2,75.56l.2.2c.2.1.4.4.7.7.4.4.7.8,1,1.2.4.6.7,1.3.8,2,.1.9-.2,1.9-.8,2.6-.7.9-2.1,1.1-3,.3h0c-.9-.9-1.4-2.2-1.5-3.5-.1-1.4-.1-2.8,0-4.2,0-1.5.2-3,.4-4.6.1-.8.2-1.6.4-2.5.2-.8.2-1.7.1-2.5,0-.8-.5-1.6-1.1-2.1-.8-.4-1.6-.6-2.5-.5s-1.9.2-2.8.1c-1,0-2-.5-2.7-1.2-.6-.8-.9-1.8-.9-2.9,0-1,.1-2,.2-3,.2-1,.2-2,.1-3-.1-1-.6-1.9-1.4-2.5-.9-.6-1.8-1-2.8-1.4-1-.5-1.9-1.2-2.5-2.2-.9-2.1-1.3-4.3-1.1-6.6,0-1.1,0-2.2-.2-3.3-.1-1.1-.5-2.1-1.2-2.9-1.2-1.7-3.4-2.5-5.3-3.3-1-.4-1.9-.9-2.8-1.5s-1.6-1.5-1.9-2.5c-.2-1-.4-2-.4-3,0-.9-.4-1.8-1.1-2.5-.7-.6-1.6-.9-2.5-1s-1.9-.4-2.8-.7c-.9-.4-1.6-1-2-1.9-.3-.8-.5-1.7-.5-2.6.1-1.6-.2-3.3-.9-4.8-.8-1.3-2-2.2-3.5-2.7-1.3-.5-2.7-.7-4-.8-1.3,0-2.6,0-3.7-.1-1.1,0-2.2-.1-3.2-.4-.9-.2-1.8-.6-2.6-1-1.1-.6-2-1.6-2.6-2.7-.2-.4-.3-.8-.3-1.2.1.4.2.8.4,1.2.6,1.1,1.5,2,2.6,2.6.8.4,1.6.8,2.5,1,1.1.2,2.1.3,3.2.3h3.7c1.4,0,2.8.3,4.1.8,1.5.5,2.8,1.5,3.6,2.8.7,1.6,1,3.3.9,5,0,.9.2,1.7.5,2.5.4.8,1,1.4,1.8,1.7.9.3,1.8.5,2.7.6,1,.1,1.9.5,2.7,1.1.7.7,1.2,1.7,1.2,2.8.1,1,.2,2,.4,2.9.3.9.9,1.7,1.7,2.3.9.6,1.8,1.1,2.8,1.5s1.9.8,2.9,1.4c1,.5,1.9,1.2,2.6,2.1.7.9,1.1,2,1.2,3.1.1,1.1.2,2.2.2,3.4-.2,2.2.1,4.4,1,6.4.5.9,1.3,1.6,2.3,2s2,.9,2.9,1.5c.9.7,1.5,1.7,1.6,2.8.1,1,.1,2.1-.1,3.1-.2,1-.3,2-.3,2.9s.3,1.9.8,2.6c.6.7,1.5,1.1,2.4,1.1s1.8,0,2.8-.1c.9-.1,1.9.1,2.7.5.8.6,1.2,1.4,1.2,2.4.1.9,0,1.7-.2,2.6-.1.8-.3,1.6-.4,2.5-.2,1.6-.4,3.1-.4,4.6-.1,1.5-.1,2.9-.1,4.2.1,1.2.5,2.4,1.4,3.3.4.3.9.5,1.5.4.5-.1.9-.3,1.2-.7.6-.7.9-1.6.8-2.5-.1-.7-.4-1.4-.8-2-.3-.4-.6-.9-1-1.2l-.7-.7c.5-.2.4-.3.4-.3Z" fill="#263238"/>
    <path d="m111.7,97.66c.1-.1.3-.1.4-.2.4-.2.8-.3,1.2-.5.6-.3,1.2-.7,1.6-1.3.6-.8.7-1.8.3-2.7-.3-.5-.7-.8-1.2-.9-.6-.2-1.2-.3-1.8-.5-.3-.1-.7-.3-.9-.5-.3-.3-.4-.6-.4-1,.1-.8.3-1.5.8-2.1.4-.7.7-1.4.8-2.2.1-.8-.1-1.6-.4-2.4-.8-1.6-2.6-2.5-4.4-2.3h-.2v-.2c0-1.4.4-2.7,1.2-3.8.8-1.1,1.6-2.3,2.2-3.5.3-.6.5-1.3.5-2s-.2-1.4-.6-1.9c-.9-1.1-2.5-1.4-4-2-.8-.3-1.4-.9-1.8-1.7-.3-.8-.3-1.7,0-2.5.5-1.6,1.5-3,1.5-4.6-.1-.8-.4-1.5-.9-2.1s-1.2-1.2-1.9-1.6c-1.6-.8-3.1-1.6-4.5-2.6-.9-.7-1.5-1.7-1.8-2.8-.2-1.1,0-2.2.3-3.2s.6-2,.8-3c.1-.5.1-1,.1-1.5s-.2-.9-.5-1.3c-.6-.8-1.5-1.3-2.5-1.6s-1.9-.7-2.8-1.1c-.9-.5-1.5-1.4-1.8-2.4-.1-1-.1-1.9.2-2.9.2-.9.4-1.8.5-2.7s.1-1.7-.2-2.6c-.3-.8-.9-1.4-1.6-1.9-.7-.4-1.5-.7-2.3-.9-1.6-.4-3.2-.5-4.7-1.1-.7-.3-1.4-.6-2-1.2-.6-.5-1-1.1-1.3-1.8-.7-1.2-1-2.6-1.6-3.7-.5-1.1-1.2-2-2.2-2.7-1.5-1.2-3.5-1.6-5.4-1.2-1.2.3-2.3.8-3.2,1.6-.6.6-.8.9-.9.9.2-.4.5-.7.8-1,.9-.9,2-1.5,3.2-1.8,1.9-.5,4,0,5.5,1.1,1,.7,1.7,1.7,2.2,2.8.6,1.2.9,2.5,1.6,3.7.3.6.7,1.2,1.2,1.7.6.5,1.2.8,1.9,1.1,1.4.5,3,.6,4.7,1.1.8.2,1.6.5,2.4,1s1.4,1.2,1.8,2c.3.9.4,1.8.3,2.8-.1.9-.3,1.8-.5,2.7s-.3,1.8-.2,2.7c.2.9.7,1.7,1.6,2.1.9.4,1.8.8,2.7,1.1,1,.3,1.9.9,2.5,1.8.3.5.5,1,.5,1.5s0,1.1-.1,1.6c-.2,1-.6,2-.9,3s-.4,2-.3,3c.2,1,.8,1.9,1.6,2.5,1.4,1,2.9,1.8,4.5,2.6.8.4,1.4,1,2,1.7s1,1.5,1,2.4c0,1.8-1,3.3-1.5,4.7-.3.7-.3,1.5,0,2.2s.9,1.2,1.6,1.5,1.4.5,2.2.8c.7.3,1.4.7,2,1.2.5.6.8,1.4.7,2.2,0,.8-.2,1.5-.5,2.2-.6,1.3-1.4,2.5-2.3,3.6-.8,1-1.2,2.3-1.2,3.6l-.2-.2c1.9-.2,3.8.8,4.7,2.6.7,1.6.6,3.4-.3,4.8-.4.6-.7,1.3-.8,2,.1.7.5,1.2,1.2,1.4.6.2,1.2.3,1.8.5,1.2.3,1.9,1.4,1.6,2.6h0c-.1.5-.3.9-.6,1.2-.5.6-1,1-1.7,1.3-.1.4-.7.7-1.3.8Z" fill="#455a64"/>
    <path d="m136.3,89.66c.3-.4.5-.8.6-1.2.4-1.2.3-2.6-.2-3.7-.4-.8-1.1-1.5-1.9-1.9-.5-.3-.9-.5-1.4-.9s-.8-.9-.9-1.5c-.2-1.2.7-2.5.7-3.7,0-.7-.4-1.3-.9-1.7-.6-.4-1.3-.7-1.9-1-.7-.3-1.4-.7-2.1-1.1-.7-.5-1.1-1.3-1.2-2.2-.3-1.7.3-3.4.3-5.2.1-.9-.2-1.7-.6-2.5-.6-.7-1.3-1.2-2.2-1.5s-1.8-.7-2.7-1.1c-1-.5-1.6-1.4-1.8-2.4-.1-1,0-2.1.1-3.1.2-1,0-2-.5-2.8-.7-.7-1.7-1.2-2.6-1.5-1.1-.3-2.1-1-2.8-1.8-.6-1-.8-2.2-.6-3.3.2-1.1.5-2.2.8-3.3.4-1.1.5-2.2.4-3.3s-.7-2.1-1.7-2.7c-1-.6-2.1-.9-3.2-1.1-1.1-.2-2.2-.4-3.3-.7-1.1-.3-2.2-.8-3-1.7-.8-.8-1.4-1.8-1.7-2.9-.7-2.1-.9-4.3-1.2-6.3-.2-1-.5-2-1-2.9s-1.2-1.6-2-2.1c-1.7-.9-3.7-.7-5.6-.6-.9.1-1.9,0-2.8-.1s-1.8-.5-2.6-1.1c-1.3-1.2-2.4-2.6-3.2-4.1-.4-.7-1-1.3-1.6-1.8s-1.2-.9-1.9-1.2c-2.5-1.1-5.3-1.3-7.9-.5-1.9.6-3.7,1.7-5.3,3-1,.8-1.9,1.8-2.8,2.7l-.7.8-.2.3s.1-.1.2-.3.3-.5.6-.8c.8-1,1.7-2,2.7-2.8,1.6-1.4,3.4-2.4,5.3-3.1,2.7-.9,5.5-.7,8.1.4.7.3,1.4.7,2,1.2.6.6,1.1,1.2,1.6,1.9.9,1.5,1.9,2.8,3.2,4,.7.5,1.5.9,2.4,1s1.8.1,2.8.1c.9,0,1.9-.1,2.9-.1s2,.3,3,.7c.9.6,1.6,1.3,2.1,2.3.5.9.8,1.9,1,3,.4,2.1.6,4.2,1.2,6.3.3,1,.9,1.9,1.6,2.7.8.8,1.8,1.3,2.8,1.6,1.1.3,2.2.5,3.3.7,1.2.2,2.3.6,3.3,1.2,1,.7,1.7,1.8,1.9,3,.1,1.2-.1,2.3-.4,3.4-.4,1-.6,2.1-.8,3.2-.2,1,0,2.1.5,3,.7.8,1.6,1.4,2.6,1.7,1.1.3,2,.9,2.8,1.6.4.4.6,1,.6,1.5.1.5.1,1.1,0,1.6-.2,1-.2,2-.2,3,.2.9.8,1.7,1.6,2.1.9.4,1.7.8,2.6,1.1.9.3,1.7.9,2.3,1.7.5.8.7,1.8.7,2.7,0,1.8-.6,3.5-.3,5.1.1.7.5,1.4,1.1,1.9s1.3.8,2,1.1c.7.3,1.4.6,2,1.1.6.4,1,1.1,1,1.9,0,1.5-.9,2.6-.7,3.7.1.6.4,1,.8,1.4.4.3.9.6,1.3.9.9.5,1.5,1.2,2,2,.6,1.2.6,2.6.2,3.8,0,.5-.3.9-.6,1.2Z" fill="#455a64"/>
    <path d="m74.2,65.26c-.9-1.2-.6-3,.7-3.8.8-.6,1.9-.7,2.7-.3.7.4,1.3.9,1.7,1.6.5.6.7,1.5.6,2.3-.2.6-.6,1.2-1.2,1.4-.9.5-2,.6-2.9.2-1-.4-1.7-1.1-2-2.1" fill="#eb996e"/>
    <path d="m79.2,60.76c.2,0,.2.6,0,1.3-.7,2.1-2.6,3.5-4.8,3.6-.8,0-1.2-.2-1.2-.4,0-.4,1.8-.5,3.4-1.7,1.6-1.3,2.2-2.9,2.6-2.8Z" fill="#263238"/>
    <path d="m144.7,111.06l-7-11-.5-10.8,2.7-7.4s2.2-.5,2.5,2.1c.1,2-.1,3.9-.8,5.8l1.5,5.3s.5.6,1-1.6-.3-18.4-.3-19.5.1-3.7,1.7-3.5c1.7.2,2.2,2.5,2.2,3.5s1.2,12,1.2,12c0,0,.4,1,.8.8s-.3-11.7-.4-13.5c-.1-1.8-.5-5.8,1.7-5.9,2.1,0,2.1,2,2.2,4.3.1,2.2,1.5,14.7,1.5,14.7,0,0,.3.8.6-.3.3-1,.7-14.6.9-15.2s1.5-1.5,2.5.1c1,1.5.7,5.1.6,11.4-.1,5.7-.3,8.1.4,8.5s3.1-3.1,3.1-3.1c0,0,2.9-7.4,5.4-7.2,2.5.2.8,2.2.4,3.9-.4,1.5-4.7,10.3-4.8,10.4s-4.3,15.8-4.3,15.8l11,21c1.6,3.1,1.4,5.9.9,9.4-.6,3.8-3.3,5.8-8.9,7.5-4.1,1.2-8.6.1-10.6-2.1-1.7-1.8-2.7-4.1-3.1-6.6-1.2-7-4-28.8-4.1-28.8h0Z" fill="#ffbe9d"/>
    <path d="m151.7,103.16c-.1,0,0-.8-.2-2.1-.3-1.7-1.1-3.2-2.3-4.4-.9-1-2.2-1.6-3.5-1.8-.8-.1-1.7.1-2.4.5h-.1v-.1c-.1-.3-.2-.5-.2-.5,0,0,.1.1.3.4h-.1c.7-.6,1.6-.9,2.6-.8,1.5.1,2.8.8,3.9,1.8,1.3,1.3,2.1,2.9,2.3,4.7,0,.8,0,1.6-.3,2.3Z" fill="#eb996e"/>
    <path d="m157.6,94.86c.1.1-.8.9-1.8,2.1-.9,1.2-1.5,2.3-1.6,2.2.4-1.8,1.7-3.4,3.4-4.3Z" fill="#eb996e"/>
  </g>
  <g id="freepik--character-1--inject-28">
    <ellipse cx="245.09" cy="334.34" rx="91.8" ry="99.3" transform="translate(-98.68 102.66) rotate(-19.78)" fill="none"/>
    <path d="m158.7,365.46s-.8-2-2-5.8c-1.7-5.6-2.9-11.3-3.7-17.1-.3-1.9-.4-3.9-.6-6s-.3-4.3-.2-6.6c-.2-17.4,4.2-34.5,12.6-49.7,3.5-6.2,7.7-12,12.6-17.2,5.3-5.7,11.3-10.6,17.9-14.7,14.6-9,31.6-13.5,48.8-12.7,19,1,37.2,7.7,52.3,19.2,33,25.3,48.2,67.6,38.9,108.2-4.3,18.5-14.1,35.3-28.2,48.1-12.8,11.5-28.7,18.9-45.8,21.3-7.7,1-15.5,1-23.2,0-7.1-.9-14-2.7-20.7-5.3-16.2-6.3-30.5-16.7-41.4-30.2-1.5-1.8-2.8-3.6-4-5.3-1.3-1.7-2.4-3.3-3.3-5-3.1-4.9-5.8-10.1-8.1-15.5-1.5-3.7-2.2-5.7-2.2-5.7,0,0,.2.5.6,1.4.4.9.9,2.4,1.7,4.2,2.3,5.4,5,10.5,8.2,15.4,1,1.7,2.2,3.2,3.3,5s2.6,3.5,4,5.2c3.2,3.9,6.6,7.5,10.3,10.9,9,8.2,19.5,14.7,30.9,19.1,6.6,2.5,13.5,4.3,20.6,5.2,7.6,1,15.3.9,23-.1,16.9-2.3,32.8-9.7,45.5-21.1,13.9-12.7,23.6-29.4,27.8-47.8,9.2-40.2-5.9-82.2-38.6-107.3-15-11.5-33-18.1-51.8-19.1-17-.7-33.9,3.6-48.4,12.6-6.5,4-12.5,8.9-17.8,14.5-4.8,5.2-9,10.9-12.5,17.1-6,10.6-10,22.3-11.7,34.4-.7,4.9-1.1,9.9-1.1,14.9,0,2.3.1,4.5.2,6.6.1,2.1.3,4.1.6,6,.7,5.8,1.9,11.5,3.5,17.1.5,1.9,1.1,3.3,1.4,4.3s.6,1.5.6,1.5Z" fill="#263238"/>
    <path d="m143.6,370.86s-.9-2.3-2.3-6.9c-2-6.7-3.5-13.5-4.4-20.4-.4-2.2-.5-4.6-.7-7.1s-.3-5.1-.3-7.9c-.1-6,.3-11.9,1.2-17.8,2-14.4,6.7-28.4,13.8-41.1,4.2-7.4,9.2-14.3,14.9-20.5,6.3-6.7,13.4-12.6,21.2-17.5,17.4-10.7,37.6-16,58-15.1,22.5,1.1,44.2,9.1,62.1,22.8,39.2,30.1,57.3,80.3,46.2,128.5-5.1,22-16.7,41.9-33.4,57.2-15.2,13.7-34.1,22.5-54.3,25.3-9.1,1.2-18.4,1.2-27.5,0-8.4-1.1-16.6-3.2-24.6-6.3-19.2-7.5-36.1-19.8-49.1-35.8-1.8-2.1-3.3-4.3-4.8-6.2-1.5-2-2.8-4-4-6-3.7-5.9-6.9-12-9.6-18.4-1.7-4.4-2.4-6.8-2.4-6.8,0,0,.2.5.7,1.6s1.1,2.9,2,5c2.7,6.4,6,12.5,9.7,18.3,1.1,1.9,2.6,3.8,4,5.9s3,4.1,4.8,6.2c3.8,4.6,7.9,8.9,12.3,12.9,10.7,9.8,23.2,17.6,36.7,22.8,7.9,3,16.1,5.1,24.4,6.2,9.1,1.2,18.2,1.1,27.3-.1,20.1-2.8,38.9-11.6,53.9-25.2,16.6-15.1,28.1-34.9,33.1-56.8,11-47.9-6.9-97.7-45.9-127.6-17.8-13.6-39.3-21.6-61.7-22.7-20.3-.9-40.3,4.3-57.6,14.9-7.8,4.8-14.9,10.6-21.1,17.3-5.8,6.2-10.8,13-14.9,20.3-7.2,12.6-11.9,26.5-13.9,40.9-.9,5.9-1.3,11.8-1.3,17.8,0,2.8.1,5.4.2,7.9s.3,4.9.7,7.1c.8,6.9,2.2,13.7,4.2,20.3.6,2.3,1.3,4,1.7,5.2.6,1.2.7,1.8.7,1.8Z" fill="#263238"/>
    <path d="m273.1,206.46c.3-.2,13.3-5,13.8,8.5s-13.1,11.3-13.2,10.9-.6-19.4-.6-19.4Z" fill="#d99d76"/>
    <path d="m277.7,220.66s.2.1.7.3c.6.2,1.2.2,1.8,0,1.4-.6,2.5-2.9,2.5-5.3,0-1.2-.3-2.3-.8-3.3-.3-.8-1-1.4-1.8-1.7-.6-.1-1.1.2-1.4.7-.2.4-.1.6-.1.7s-.3-.2-.2-.8c.1-.3.2-.6.5-.9.4-.3.8-.4,1.3-.4,1.1.2,2.1.9,2.6,2,.6,1.2,1,2.4,1,3.7,0,2.7-1.3,5.3-3.2,6-.7.2-1.5.1-2.2-.3-.7-.4-.8-.7-.7-.7Z" fill="#9c6664"/>
    <path d="m206.2,237.96c-.8-9.5-.9-29.3-.8-47.2.2-19.2,15-35.1,34.2-36.5l1.9-.1c20.6-.3,32.4,17,32.2,37.7l2,68-23.1,5.4c-.7.2-1.5.3-2.3.3l-22,1.5-.4-7.6c-.1-.1-20-1.8-21.7-21.5Z" fill="#d99d76"/>
    <path d="m215.8,205.56c.1,1.5,1.4,2.7,2.9,2.7s2.7-1.2,2.7-2.7v-.1c-.1-1.5-1.4-2.7-2.9-2.7-1.4,0-2.7,1.2-2.7,2.8h0Z" fill="#263238"/>
    <path d="m245.5,202.06c.1,1.5,1.4,2.7,2.9,2.6,1.5,0,2.7-1.2,2.7-2.7h0c-.1-1.5-1.4-2.7-2.9-2.7-1.4,0-2.7,1.2-2.7,2.8q0-.1,0,0Z" fill="#263238"/>
    <path d="m210.2,200.96c.4.3,2.4-1.4,5.4-1.7s5.4,1.1,5.7.7-.3-.8-1.3-1.4c-1.4-.8-3-1.2-4.6-1.1-1.6.1-3.1.7-4.3,1.7-.8,1-1.1,1.7-.9,1.8Z" fill="#263238"/>
    <path d="m240.7,198.06c.4.3,2.3-1.5,5.3-2s5.4.8,5.7.4c.3-.4-.3-.8-1.4-1.4-1.4-.7-3-1-4.6-.8s-3,.9-4.2,2c-.8.9-1,1.6-.8,1.8Z" fill="#263238"/>
    <path d="m230.9,221.76c-1.6-.4-3.3-.6-5-.5-.8,0-1.5-.1-1.7-.6-.1-.8,0-1.6.3-2.3l1.9-6.1c2.6-8.6,4.4-15.7,4-15.8-.3-.1-2.7,6.8-5.3,15.4-.6,2.1-1.2,4.2-1.8,6.1-.4,1-.5,2.1-.2,3.1.3.5.8.9,1.4,1,.4.1.9.1,1.3.1,1.8.1,3.4,0,5.1-.4Z" fill="#263238"/>
    <path d="m239.9,223.26c-.5,0-.3,3.3-2.9,5.9-2.7,2.5-6.2,2.4-6.2,2.9,0,.2.8.6,2.3.5,1.9-.1,3.8-.9,5.2-2.2s2.2-3,2.2-4.9c.1-1.5-.3-2.3-.6-2.2Z" fill="#263238"/>
    <path d="m238.6,185.96c.4.8,3.3,0,6.9-.2,3.6-.2,6.6.4,7-.4.1-.4-.5-1.1-1.7-1.7-1.7-.7-3.5-1.1-5.4-1-1.8.1-3.6.6-5.2,1.5-1.3.7-1.8,1.5-1.6,1.8Z" fill="#263238"/>
    <path d="m210.2,192.86c.6.6,2.6-.2,5.1-.4s4.7.1,5.1-.6c.2-.4-.2-1-1.2-1.7-2.7-1.4-6-1.1-8.3.9-.7.7-1,1.4-.7,1.8Z" fill="#263238"/>
    <path d="m259,197.66c.1.1-.8.9-2.1,1.5-.7.4-1.6.6-2.5.6.7-.4,1.4-.8,2.2-1.1.8-.5,1.6-.8,2.4-1Z" fill="#9c6664"/>
    <path d="m261.3,200.46c-1,.2-2,.3-3,.2-1,.1-2,0-3-.3,1-.3,2-.3,3-.2,1,0,2,.1,3,.3Z" fill="#9c6664"/>
    <path d="m238.8,175.26c0,.1-.9.3-2.4,1-1.4.7-3.3,1.8-5.6,2.9-1.9,1-3.9,1.6-6.1,1.8-.6,0-1.3,0-1.9-.1-.4-.1-.7-.2-.7-.2,0,0,1,.1,2.6,0,2-.3,4-.9,5.8-1.9,2.2-1.1,4.1-2.2,5.7-2.8.9-.4,1.7-.6,2.6-.7Z" fill="#9c6664"/>
    <path d="m234.8,175.06c-1.8,1.2-3.8,2-5.9,2.4-2.1.5-4.2.6-6.3.1,0-.2,2.9,0,6.2-.7,2-.5,4-1.1,6-1.8Z" fill="#9c6664"/>
    <path d="m243.8,223.76c-.1.1-.7-1.1-2-1.5-.8-.2-1.7-.2-2.5,0,0,0,.2-.3.7-.5,1.3-.5,2.8,0,3.5,1.2.3.5.4.8.3.8Z" fill="#9c6664"/>
    <path d="m246.3,223.06c-.1,0-.5-1.2-1.9-2-.8-.4-1.7-.6-2.6-.6,0,0,.3-.2.8-.3.7-.1,1.4.1,2.1.4.6.3,1.1.9,1.4,1.6.3.5.3.8.2.9Z" fill="#9c6664"/>
    <path d="m277,170.96c1.8-5-.8-10.4-5.8-12.2,1.3-1.9-.5-4.5-2.6-5.4s-4.5-.9-6.6-2c-1.4-.8-2.7-1.8-4-2.8-3.9-2.6-8.9-2.9-13.1-.8-1-3.1-4.5-4.8-7.7-4.7-3.2.3-6.4,1.3-9.2,3-3-1.9-6.4-3-9.9-3.3-3.6-.3-7.1,1.1-9.5,3.6-2.4,2.7-2.9,6.6-1.1,9.8-4.8.1-8.5,4.1-8.4,8.8.1,2.9,1.6,5.6,4,7.1-1.5,2.7-1.2,6.1.7,8.5,2,2.3,3.2,0,3.2,0l4.9-7.2c1.9.1,3.8.1,5.7-.1,3.1-.1,6.2-.9,9-2.3,1.7-1.1,3.3-2.4,4.7-3.7,1.6-1.4,3.2-2.6,5-3.8,5.8-2.4,12.4-2.2,18,.7,5.6,2.8,10.3,10.7,11.3,17.5,1.5,9.1,2.3,18.2,2.4,27.4,0,2.7.4,6.1,3,7,1.7.7,3.6-.1,4.3-1.8.1-.4.2-.7.2-1.1.2-2.3.2-4.6.1-6.9l2.1-.3c1.5-9.2.3-17.6-1-26.9-.3-1.8-.6-3.6-1.2-5.3.6-1.1,1.1-1.9,1.5-2.8Z" fill="#263238"/>
    <path d="m259.5,160.86c-3.7-3.2-8.4-5.1-13.3-5.4-4.1-.4-8.2.4-11.9,2.3-3.7,2-6.3,5.5-7.1,9.5l-14.4,3.9c7.6,4.1,17.1,1.9,22.1-5.2,4.6,2.5,10.2,2.5,14.9.1,3.4,5.1,9.1,8,15.2,7.8.2-5-1.8-9.7-5.5-13Z" fill="#263238"/>
    <path d="m218.3,172.86c-.4,0-.8,0-1.2-.2-1.1-.4-2.1-1-2.9-1.9-1.3-1.3-2-3.1-1.9-5,.1-2.4,1.3-4.5,3.3-5.8l.1.8c-1.8-.4-3.4-1.6-4.5-3.2-1.7-2.6-1.5-6,.5-8.3,1.5-1.9,4-2.9,6.5-2.5.9.2,1.7.6,2.3,1.3.5.5.8,1.2.9,1.9.1.6,0,1.2-.3,1.7.1-.5.1-1.1,0-1.7-.4-1.4-1.6-2.5-3.1-2.7-2.2-.3-4.4.6-5.8,2.4-.8,1-1.3,2.2-1.4,3.5-.1,1.4.3,2.7,1,3.9.9,1.4,2.3,2.4,3.9,2.8l1,.2-.8.5c-1.7,1.2-2.8,3.1-3,5.2-.1,1.7.5,3.3,1.6,4.6,1,1.2,2.3,2,3.8,2.5Z" fill="#fff"/>
    <path d="m276.3,178.16c-3.2,2.3-7.3,2.9-11.1,1.7,0-.2,2.6.1,5.6-.4,3.1-.5,5.4-1.6,5.5-1.3Z" fill="#fff"/>
    <path d="m277.7,182.26c-2.8,3-7.1,4.2-11,3.1,1.9-.2,3.8-.5,5.7-.8,1.7-.7,3.5-1.5,5.3-2.3Z" fill="#fff"/>
    <path d="m227.8,259.26c9.1-.5,17.9-3.7,25.2-9.2,0,0-4.9,14.9-24.7,14.5l-.5-5.3Z" fill="#9c6664"/>
    <path d="m291.9,274.16l-11.5-3.4-1.5-9.3c-.1-1.6-1.5-2.9-3.1-2.8h-.2l-51.5,7.2c-1.6.2-2.8,1.8-2.5,3.4v7.4l-40.2,16.9s-4.5,17.9-3.3,33.3c.9,11.9,5.2,80.2,5.2,80.2,0,0,28.3,27.9,61.6,28.6,25.1.4,49.4-8.9,67.8-26,0-.8,7.6-82.3,7.6-82.3l4.2-38.9-32.6-14.3Z" fill="#ff7200"/>
    <path d="m183.3,406.96l-1.9-113.5s-20.3,15.5-24.6,69.4c0,0,12,31.2,26.5,44.1Z" fill="#ff7200"/>
    <path d="m318.5,285.86s18.7,5.7,24.1,20.8,45.3,76.2,48.3,81.8c9.2,16.6.5,39.9-13.4,43.9s-73.4-25.3-74.5-28.7c-.7-3.2-1-6.5-.8-9.7l3.7-23.7,10.2,2.3,2.4-86.7Z" fill="#ff7200"/>
    <g opacity=".3">
      <path d="m296.1,399.76c-.8-1.5-.7-5.8-1.7-7.3-1.5-2.4-4.5-1.4-6.8-3l-10.7-7.4c-1.1-.9-2.4-1.5-3.8-1.8-2-.1-3.9.8-5.1,2.4s-2.2,3.2-3,5c-.9,1.7-1.9,1-3.7,1.2-2,.4-4,.6-6.1.4-2.3-.1-4.4.9-5.7,2.7-1.4,1.7-2.5,3.7-4,5.3-3.7,3.8-9.7,4.4-15,4.2-5.4-.1-11.1-.6-15.8,1.9-5.9,3.2-8.6,10.1-10.8,16.4l.9,3.1c6.4,2.8,15.3,1.7,21.9-.3,6.6-2,13.4-4.6,20.3-4.1,7.3.6,14.8,4.7,21.6,2,4-1.5,6.9-5.1,10.7-6.8,5.1-2.4,11-1.4,16.6-.8s11.9.6,16-3.2c-6-1.9-12.8-4.2-15.8-9.9Z"/>
    </g>
    <path d="m319.7,413.46c-.2,0-.3-.1-.5-.2l-1.4-.6-5.3-2.2-19.1-8.2-.2-.1v-.3c1.5-10.5,3.3-23.2,5.3-36.8,0-.3.1-.7.1-1v-.4l.5.1c17.6,3.7,33.1,8.3,44.3,11.6,5.6,1.7,10.1,3.2,13.3,4.3l3.5,1.2c.4.1.8.3,1.2.5-.4-.1-.9-.2-1.3-.3l-3.6-1.1c-3.1-1-7.6-2.4-13.3-4-11.2-3.3-26.8-7.7-44.4-11.4l.5-.4-.1,1c-2,13.7-3.9,26.3-5.4,36.8l-.2-.4,19,8.5,5.3,2.4,1.4.6c.1.2.3.3.4.4Z" fill="#263238"/>
    <path d="m327.7,372.06c-1-.9-1.9-1.9-2.6-3-3.8-5.1-6.9-10.6-9.3-16.4-.6-1.2-1-2.4-1.2-3.7.7,1.1,1.3,2.3,1.8,3.5,1,2.2,2.5,5.1,4.3,8.3,1.8,3.1,3.6,6,5,8,.7,1,1.4,2.1,2,3.3Z" fill="#263238"/>
    <path d="m318.4,289.46c-.3,1.8-.8,3.5-1.3,5.2-1.1,4.2-1.9,8.4-2.4,12.7-.5,4.3-.7,8.6-.7,12.9.1,1.8.1,3.6,0,5.4-.2-.4-.3-.9-.3-1.4-.1-.9-.3-2.3-.4-3.9-.5-8.7.6-17.4,3.1-25.8.5-1.7.9-2.9,1.3-3.7.2-.6.4-1.1.7-1.4Z" fill="#263238"/>
    <path d="m194.3,410.36c-.2,0-2.7-16.1-5.6-36.1-2.8-20-5-36.1-4.7-36.2.3,0,2.7,16.1,5.6,36.1s4.9,36.1,4.7,36.2Z" fill="#263238"/>
    <path d="m244.2,351.06l23.1,1.2,30.4,19.1-3.4,22.3c-5.5-1.7-10.8-3.7-16.1-6-2.8-1.5-2.6-6.6-2.6-6.6l-3.8,2.1s-2.1,5.2-3.7,9.7-6.3,1.7-6.3,1.7l-.6-4.7c-2.4,2.5-6.1.3-6.1.3l-1.7-17.3,6.5-8.3-7.6.8c-3.3,2-6.2,4.5-8.9,7.2-4.5,4.6-11-.4-11-.4l13-14.9-2.2,1s-8.5,5.9-12,6.1-4.3-4.1-4.3-4.1l17.3-9.2Z" fill="#d99d76"/>
    <polygon points="239.7 370.86 271.5 411.76 208.7 405.46 174 361.86 239.7 370.86" fill="#263238"/>
    <path d="m208.7,405.86h-.1l-35.4-44.3,66.5,9.1h.1l32.4,41.7-63.5-6.5Zm-34-43.5l34.1,42.8,61.9,6.2-31.2-40.2-64.8-8.8Z" fill="#263238"/>
    <path d="m195.1,418.06c3.5,2.8,7.6,4.7,12,5.4l27.6-8.3,21.2-8.7c.7-.3,1.1-.9,1.1-1.7l3.4-3.2s.1-2.2-3.3-3.1-12.6,2.8-13.1,3.1-7.9,1.7-7.9,1.7c4.8-2.4,9.7-4.5,14.7-6.2,0,0,2-8.1-6.1-6.2-6,1.6-11.7,3.9-17.2,6.8l-5.8,2.8-2.8-1.1,1.7-3.3s8.5-9.3,8.6-9.7c.1-.4,2.3-3.3.1-4.5-2.1-1.2-7.4-.6-9.8,2.1-2.4,2.7-11.1,12-11.1,12-1.2-.3-2.5-.3-3.7-.2-2.8.2-6.8-3-7.1-4-.4-1-.7-6.1-3.5-9.1-2.9-2.9-7.7-4.2-8.8-2.1-.2.3-.7.9.2,3.5.4,1.3,1,2.5,1.8,3.6l.6,11.7,3.1,6.6-2.3.1c.2,0-2.7,5.2,6.4,12Z" fill="#d99d76"/>
    <path d="m278.1,371.06c-1.5-.4-3-.6-4.6-.6s-3.3.4-4.7,1.1c-1.8.9-3.4,2.2-4.5,3.8-1.1,1.7-1.9,3.5-2.2,5.5-.3,1.6-.4,3.3-.4,5,.1,1.6.1,3.1,0,4.7-.4-1.5-.6-3.1-.6-4.6-.1-1.7,0-3.4.2-5.1.3-2.1,1.1-4.1,2.3-5.9,1.3-1.8,3-3.1,5-4,1.6-.7,3.3-1.1,5.1-1,1.2,0,2.3.2,3.4.6.6.2,1,.5,1,.5Z" fill="#9c6664"/>
    <path d="m268.7,363.26c0,.3-2.1,0-4.6.4s-4.3,1.3-4.5,1c2.6-1.9,6-2.5,9.1-1.4Z" fill="#9c6664"/>
    <path d="m235.4,368.86c.7-1.3,1.6-2.5,2.6-3.6,1.7-2.2,4.1-5.1,6.8-8.5l.1-.1h.2l2.4-.2c5-.4,9.3-.6,12.5-.7,1.7-.1,3.5,0,5.2.2-1.7.3-3.4.4-5.2.4-3.2.2-7.6.5-12.5.9l-2.4.2.3-.1c-2.8,3.3-5.3,6.2-7.1,8.3-.8,1.2-1.8,2.3-2.9,3.2Z" fill="#9c6664"/>
    <path d="m282,271.36c-.6.5-1.3,1-2.1,1.4-1.9,1.2-3.9,2.2-6,3.1-6.8,3.1-14.1,5.2-21.5,6.2-4.1.6-8.2.8-12.3.7-3.3,0-6.7-.4-9.9-1.2-2.2-.5-4.4-1.4-6.3-2.6-.5-.3-1-.7-1.5-1.1-.3-.3-.4-.4-.4-.5,0,0,.7.5,2.1,1.3,2,1.1,4.1,1.9,6.2,2.3,3.3.6,6.6,1,9.9,1,4.1.1,8.1-.2,12.2-.7,7.3-1,14.5-3,21.3-5.9,2.6-1.1,4.7-2.2,6.1-2.9.7-.4,1.5-.8,2.2-1.1Z" fill="#263238"/>
    <path d="m315.4,298.56s-.3-.1-.8-.4c-.7-.4-1.5-.8-2.3-1.1-3-1.3-6.2-1.8-9.4-1.7-5.1.4-10.1,1.8-14.6,4-6.2,2.7-11.8,6.7-16.2,11.8-2.5,3-4.4,6.5-5.5,10.2-1.2,4.1-1.3,8.4-.1,12.4,1.3,4.3,4.1,8.1,8,10.5,4.1,2.6,9.2,2.9,13.6.9,2.2-1,4.2-2.6,5.6-4.6.7-1,1.3-2.1,1.7-3.3.3-1.2.5-2.5.5-3.7-.1-2.6-.8-5.1-2.2-7.3-1.4-2.2-3.2-4.2-5.4-5.7-9.5-6.1-21.7-6.4-31.5-.7-4.9,2.9-9.6,6.1-14,9.6s-9.3,6.2-14.5,8.1c-5.2,1.6-10.7,1.7-16,.1-5-1.5-9.5-4.4-12.8-8.4-3.2-3.8-5.3-8.4-6-13.3-.4-2.3-.4-4.7,0-7.1.4-2.3,1.5-4.5,3.2-6.1,1.7-1.5,4.1-2.1,6.4-1.7,2.2.4,4.1,1.6,5.5,3.3,1.2,1.7,1.9,3.7,2,5.8.1,2-.3,4-1.2,5.8-1.6,3.3-4.2,6-7.4,7.8-2.8,1.7-5.8,2.8-9,3.4-2.7.5-5.5.6-8.3.2-2.3-.3-4.6-.8-6.8-1.7-3-1.1-5.9-2.8-8.3-5-.6-.6-1.2-1.1-1.8-1.8-.4-.4-.6-.7-.6-.7,0,0,.8.9,2.5,2.3,2.5,2.1,5.3,3.7,8.3,4.8,2.2.8,4.5,1.3,6.8,1.5,2.8.3,5.6.2,8.3-.3,3.1-.5,6.1-1.7,8.8-3.3,3.1-1.8,5.5-4.4,7.1-7.6,1.7-3.5,1.4-7.7-.8-10.9-1.2-1.6-3-2.7-5-3.1-2.1-.4-4.2.1-5.8,1.6s-2.6,3.5-3,5.7c-.4,2.3-.4,4.6,0,6.8.8,4.7,2.8,9.2,5.9,12.9,3.3,3.9,7.6,6.7,12.5,8.1,5.1,1.5,10.5,1.5,15.5-.2,5.1-1.9,10-4.6,14.3-8,4.5-3.5,9.2-6.8,14.1-9.7,10.1-5.8,22.6-5.5,32.3.8,2.3,1.5,4.2,3.6,5.6,5.9s2.2,5,2.3,7.7c0,1.3-.1,2.7-.5,4s-.9,2.5-1.7,3.6c-1.5,2.1-3.6,3.8-5.9,4.9-2.3,1-4.9,1.5-7.4,1.3s-4.8-1-6.9-2.3c-4-2.5-7-6.4-8.3-10.9-1.1-4.2-1.1-8.7.2-12.8,1.1-3.8,3.1-7.4,5.7-10.4,4.5-5.1,10.2-9.2,16.5-11.9,4.7-2.3,9.7-3.6,14.9-4,3.3-.1,6.5.5,9.5,1.8.8.3,1.5.7,2.2,1.2l.2.9Z" fill="#fff"/>
    <path d="m353.4,330.66c-.3.5-.6,1-.9,1.4-.9,1.2-2,2.4-3,3.5-1.6,1.7-3.3,3.2-5.2,4.6-2.3,1.7-4.7,3.2-7.2,4.5s-5.2,2.3-7.9,3.2c-2.2.7-4.5,1.2-6.8,1.5-1.5.2-3.1.4-4.7.4-.6.1-1.1.1-1.7,0,0-.1,2.4-.2,6.3-.9,2.2-.4,4.5-1,6.6-1.7,2.7-.9,5.2-1.9,7.7-3.2,2.5-1.3,4.9-2.7,7.1-4.4,1.8-1.4,3.6-2.8,5.2-4.4,2.9-2.7,4.4-4.6,4.5-4.5Z" fill="#fff"/>
    <path d="m376.3,372.46c0,.1-1.4-.3-3.6-.7-5.9-1.1-11.9-.2-17.2,2.4-1.1.6-2.2,1.2-3.3,1.7.9-.9,1.9-1.7,3-2.2,5.4-3,11.7-3.9,17.7-2.5,1.1.2,2.3.6,3.4,1.3Z" fill="#fff"/>
    <path d="m331.8,418.46c-.2-.3-.3-.6-.4-.9-.4-.9-.6-1.8-.9-2.7-1-3.3-1.3-6.8-1-10.2.2-2.4.9-4.7,1.9-6.9.6-1.2,1.3-2.3,2.2-3.3.9-1.1,2-2.1,3.1-2.9,2.5-1.9,5.4-3,8.5-3.2,1.6-.1,3.3.1,4.8.5,1.7.4,3.2,1.4,4.2,2.8.5.7.8,1.7.7,2.6-.1.9-.4,1.8-1,2.4-1.1,1.3-2.6,2.1-4.2,2.5-3,.7-6.2.4-9.1-.7-2.6-1-4.9-2.6-6.7-4.8-1.5-1.9-2.6-4.1-3.1-6.4-.7-3.4-.3-7,1.2-10.2.5-1.2,1.2-2.2,2.1-3.1-.7,1.1-1.3,2.2-1.8,3.3-1.3,3.1-1.6,6.6-.9,9.9.5,2.3,1.5,4.4,3,6.1,1.7,2,4,3.5,6.4,4.5,2.7,1,5.7,1.3,8.6.6,1.5-.3,2.8-1.1,3.8-2.2s1.1-2.8.2-4c-1-1.2-2.3-2.1-3.8-2.5s-3-.6-4.5-.5c-2.9.2-5.7,1.3-8.1,3-1.1.8-2.1,1.7-3,2.8-.8,1-1.5,2.1-2.1,3.2-1,2.1-1.7,4.3-2,6.6-.4,3.4-.1,6.8.7,10.1.8,2.3,1.3,3.6,1.2,3.6Z" fill="#fff"/>
    <path d="m186.2,361.96c-1.3-.4-2.7-.8-3.9-1.4-3.1-1.1-6.4-2.1-9.6-2.8-3.3-.7-6.6-1.2-9.9-1.4-1.4,0-2.8-.1-4.2-.4,1.4-.3,2.8-.3,4.2-.2,6.8.1,13.5,1.6,19.7,4.2,1.2.5,2.5,1.2,3.7,2Z" fill="#fff"/>
    <path d="m302.1,406.26c-.2.2-.5.4-.7.6l-2.2,1.5c-1,.7-2.2,1.5-3.6,2.3s-3,1.9-5,2.8-3.9,2.1-6.2,3c-2.3,1-4.7,2-7.3,3-5.7,2-11.5,3.7-17.5,4.8-5.9,1.1-11.9,1.7-18,1.9-2.8,0-5.4.1-7.9,0s-4.8-.3-6.9-.5c-2.1-.2-4-.5-5.6-.7-1.7-.2-3.1-.5-4.2-.7l-2.7-.5c-.3,0-.6-.1-.9-.2h.9l2.7.4c1.1.2,2.6.4,4.2.6,1.7.1,3.5.4,5.6.5s4.4.3,6.8.4h7.9c6-.2,12-.9,17.9-2s11.7-2.7,17.4-4.7c2.6-1,5.1-1.9,7.3-2.9s4.3-2,6.2-2.9c1.9-.9,3.5-1.9,5-2.7s2.7-1.5,3.7-2.2l2.3-1.4c.3-.2.5-.3.8-.4Z" fill="#fff"/>
    <g opacity=".3">
      <path d="m365.5,380.36c-3.1-3.9-8.5-5.1-13.4-6-8.5-1.5-17.1-3.4-25.7-4.2,11.4,5.2,25.6,6.1,36.5,13.1.8.5,1.9,1.1,2.7.7,1.3-.6.8-2.5-.1-3.6Z"/>
    </g>
    <g opacity=".3">
      <path d="m273.5,275.76c1-.4-15.1,10.7-24.1,11.4-9.2.6-18.3-2.1-25.6-7.8,0,0,21.2,8.9,49.7-3.6Z"/>
    </g>
  </g>
</svg>