<?xml version="1.0" encoding="UTF-8"?>
<svg id="Layer_1" data-name="Layer 1" xmlns="http://www.w3.org/2000/svg" xmlns:xlink="http://www.w3.org/1999/xlink" viewBox="0 0 3269 2272">
  <defs>
    <clipPath id="clippath">
      <rect width="3269" height="2272" fill="none"/>
    </clipPath>
  </defs>
  <g clip-path="url(#clippath)">
    <g>
      <rect x="64" y="53" width="1436" height="2036" fill="#bfbfbf"/>
      <rect width="1436" height="2036" fill="#fff"/>
      <rect x="1714" y="63" width="1436" height="2036" fill="#bfbfbf"/>
      <rect x="1651" y="10" width="1436" height="2036" fill="#fff"/>
      <path d="m1034,1979c0-161.82,131.18-293,293-293s293,131.18,293,293-131.18,293-293,293-293-131.18-293-293Z" fill="#70ad47" fill-rule="evenodd"/>
      <path d="m1198.38,1971.94c14.41-14.41,37.76-14.41,52.17,0l64.25,64.25c14.41,14.41,14.41,37.76,0,52.17h0c-14.41,14.41-37.76,14.41-52.17,0l-64.25-64.25c-14.41-14.41-14.41-37.76,0-52.17h0Z" fill="#fff" fill-rule="evenodd"/>
      <path d="m1471.59,1879.41c14.4,14.41,14.4,37.76,0,52.17l-156.86,156.85c-14.41,14.41-37.76,14.41-52.17,0h0c-14.41-14.41-14.41-37.76,0-52.17l156.86-156.85c14.4-14.41,37.76-14.41,52.17,0h0Z" fill="#fff" fill-rule="evenodd"/>
      <path d="m2683,1979c0-161.82,131.18-293,293-293s293,131.18,293,293-131.18,293-293,293-293-131.18-293-293Z" fill="#cc5c5c" fill-rule="evenodd"/>
      <path d="m2864.5,1874.05c15.27-15.27,40.02-15.27,55.29,0l159.75,159.75c15.27,15.27,15.27,40.03,0,55.3h0c-15.27,15.27-40.02,15.27-55.29,0l-159.75-159.75c-15.27-15.27-15.27-40.03,0-55.29h0Z" fill="#fff" fill-rule="evenodd"/>
      <path d="m3082.43,1870.44c15.27,15.27,15.27,40.03,0,55.29l-159.75,159.75c-15.27,15.27-40.02,15.27-55.29,0h0c-15.27-15.27-15.27-40.03,0-55.3l159.75-159.75c15.27-15.27,40.02-15.27,55.29,0h0Z" fill="#fff" fill-rule="evenodd"/>
      <path d="m541.16,330.21c56.04-3.6,90.16-3.58,113.1,33.31,22.94,36.9-58.27,166.21,24.55,188.04s123.26-45.07,157.6-110.78c34.34-65.7,50.68-144.63,50.74-184.01" fill="none" stroke="#595959" stroke-linecap="round" stroke-linejoin="round" stroke-width="81.17"/>
      <path d="m554.17,566.77c24.48-32.81,53.01-38.39,89-43" fill="none" stroke="#595959" stroke-linecap="round" stroke-linejoin="round" stroke-width="81.17"/>
      <path d="m782.17,835.21c56.04-3.59,90.16-3.58,113.1,33.31s-58.27,166.21,24.55,188.04c82.82,21.83,123.26-45.07,157.6-110.78,34.34-65.7,50.68-144.63,50.74-184.01" fill="none" stroke="#595959" stroke-linecap="round" stroke-linejoin="round" stroke-width="81.17"/>
      <path d="m794.16,1071.77c24.75-32.81,53.61-38.39,90-43" fill="none" stroke="#595959" stroke-linecap="round" stroke-linejoin="round" stroke-width="81.17"/>
      <path d="m320.5,899.35c1.1,4.2,24.77-7.18,37.8,28.78,13.04,35.97-33.36,166.36,40.4,187.03,73.77,20.67,103.66-59.18,121.44-112.37,17.78-53.2,8.01-123.42,47.86-184.34,39.84-60.93,75.71-55.91,75.5-56.95" fill="none" stroke="#595959" stroke-linecap="round" stroke-linejoin="round" stroke-width="81.17"/>
      <path d="m273.16,1050.77c85.73-59.23,193.49-63.47,330-64" fill="none" stroke="#595959" stroke-linecap="round" stroke-linejoin="round" stroke-width="81.17"/>
      <path d="m718.17,1801.78c-9.08,26.64-26.51,36.35-49,47" fill="none" stroke="#595959" stroke-linecap="round" stroke-linejoin="round" stroke-width="81.17"/>
      <path d="m542.16,1362.7c81.65-149.02,234.34-147.47,314,2.07" fill="none" stroke="#595959" stroke-linecap="round" stroke-linejoin="round" stroke-width="81.17"/>
      <path d="m693.56,1258.77v438.01" fill="none" stroke="#595959" stroke-linecap="round" stroke-linejoin="round" stroke-width="81.17"/>
      <path d="m925,638.81h-41.25c-5.69,0-10.31-4.62-10.31-10.31s4.62-10.31,10.31-10.31h41.25c5.69,0,10.31,4.63,10.31,10.31s-4.62,10.31-10.31,10.31Zm-82.5,0h-41.25c-5.69,0-10.31-4.62-10.31-10.31s4.62-10.31,10.31-10.31h41.25c5.69,0,10.31,4.63,10.31,10.31s-4.62,10.31-10.31,10.31Zm-82.5,0h-41.25c-5.68,0-10.31-4.62-10.31-10.31s4.63-10.31,10.31-10.31h41.25c5.69,0,10.31,4.63,10.31,10.31s-4.62,10.31-10.31,10.31Zm-82.5,0h-41.25c-5.68,0-10.31-4.62-10.31-10.31s4.63-10.31,10.31-10.31h41.25c5.69,0,10.31,4.63,10.31,10.31s-4.62,10.31-10.31,10.31Zm-82.5,0h-41.25c-5.68,0-10.31-4.62-10.31-10.31s4.63-10.31,10.31-10.31h41.25c5.68,0,10.31,4.63,10.31,10.31s-4.63,10.31-10.31,10.31Zm-82.5,0h-17c-2.71,0-5.37-1.1-7.29-3.02-1.92-1.92-3.02-4.58-3.02-7.29v-24.25c0-5.69,4.62-10.31,10.31-10.31s10.31,4.62,10.31,10.31v13.94h6.69c5.68,0,10.31,4.63,10.31,10.31s-4.63,10.31-10.31,10.31Zm442-11.75c-5.68,0-10.31-4.62-10.31-10.31v-41.25c0-5.69,4.63-10.31,10.31-10.31s10.31,4.62,10.31,10.31v41.25c0,5.69-4.62,10.31-10.31,10.31Zm-459-53.75c-5.69,0-10.31-4.62-10.31-10.31v-41.25c0-5.69,4.62-10.31,10.31-10.31s10.31,4.62,10.31,10.31v41.25c0,5.69-4.62,10.31-10.31,10.31Zm459-28.75c-5.68,0-10.31-4.62-10.31-10.31v-41.25c0-5.69,4.63-10.31,10.31-10.31s10.31,4.62,10.31,10.31v41.25c0,5.69-4.62,10.31-10.31,10.31Zm-459-53.75c-5.69,0-10.31-4.62-10.31-10.31v-41.25c0-5.69,4.62-10.31,10.31-10.31s10.31,4.62,10.31,10.31v41.25c0,5.69-4.62,10.31-10.31,10.31Zm459-28.75c-5.68,0-10.31-4.62-10.31-10.31v-41.25c0-5.69,4.63-10.31,10.31-10.31s10.31,4.62,10.31,10.31v41.25c0,5.69-4.62,10.31-10.31,10.31Zm-459-53.75c-5.69,0-10.31-4.62-10.31-10.31v-41.25c0-5.68,4.62-10.31,10.31-10.31s10.31,4.63,10.31,10.31v41.25c0,5.69-4.62,10.31-10.31,10.31Zm459-28.75c-5.68,0-10.31-4.63-10.31-10.31v-41.25c0-5.69,4.63-10.31,10.31-10.31s10.31,4.62,10.31,10.31v41.25c0,5.68-4.62,10.31-10.31,10.31Zm-459-53.75c-5.69,0-10.31-4.63-10.31-10.31v-41.25c0-5.68,4.62-10.31,10.31-10.31s10.31,4.63,10.31,10.31v41.25c0,5.68-4.62,10.31-10.31,10.31Zm459-28.75c-5.68,0-10.31-4.63-10.31-10.31v-41.25c0-5.69,4.63-10.31,10.31-10.31s10.31,4.62,10.31,10.31v41.25c0,5.68-4.62,10.31-10.31,10.31Zm-459-53.75c-5.69,0-10.31-4.63-10.31-10.31v-23.63c.03-2.5.97-4.9,2.64-6.76.12-.13.25-.27.38-.4s.27-.26.4-.38c1.86-1.67,4.26-2.61,6.76-2.64h41.38c5.68,0,10.31,4.62,10.31,10.31s-4.63,10.31-10.31,10.31h-30.94v13.19c0,5.68-4.62,10.31-10.31,10.31Zm453.75-23.5h-41.25c-5.69,0-10.31-4.63-10.31-10.31s4.62-10.31,10.31-10.31h41.25c5.69,0,10.31,4.62,10.31,10.31s-4.62,10.31-10.31,10.31Zm-82.5,0h-41.25c-5.69,0-10.31-4.63-10.31-10.31s4.62-10.31,10.31-10.31h41.25c5.69,0,10.31,4.62,10.31,10.31s-4.62,10.31-10.31,10.31Zm-82.5,0h-41.25c-5.69,0-10.31-4.63-10.31-10.31s4.62-10.31,10.31-10.31h41.25c5.69,0,10.31,4.62,10.31,10.31s-4.62,10.31-10.31,10.31Zm-82.5,0h-41.25c-5.69,0-10.31-4.63-10.31-10.31s4.62-10.31,10.31-10.31h41.25c5.69,0,10.31,4.62,10.31,10.31s-4.62,10.31-10.31,10.31Zm-82.5,0h-41.25c-5.69,0-10.31-4.63-10.31-10.31s4.62-10.31,10.31-10.31h41.25c5.68,0,10.31,4.62,10.31,10.31s-4.63,10.31-10.31,10.31Z" fill="#70ad47"/>
      <path d="m682,1167.81h-41.25c-5.68,0-10.31-4.62-10.31-10.31s4.63-10.31,10.31-10.31h41.25c5.69,0,10.31,4.62,10.31,10.31s-4.62,10.31-10.31,10.31Zm-82.5,0h-41.25c-5.68,0-10.31-4.62-10.31-10.31s4.63-10.31,10.31-10.31h41.25c5.69,0,10.31,4.62,10.31,10.31s-4.62,10.31-10.31,10.31Zm-82.5,0h-41.25c-5.68,0-10.31-4.62-10.31-10.31s4.63-10.31,10.31-10.31h41.25c5.69,0,10.31,4.62,10.31,10.31s-4.62,10.31-10.31,10.31Zm-82.5,0h-41.25c-5.68,0-10.31-4.62-10.31-10.31s4.63-10.31,10.31-10.31h41.25c5.69,0,10.31,4.62,10.31,10.31s-4.62,10.31-10.31,10.31Zm-82.5,0h-41.25c-5.68,0-10.31-4.62-10.31-10.31s4.63-10.31,10.31-10.31h41.25c5.69,0,10.31,4.62,10.31,10.31s-4.62,10.31-10.31,10.31Zm-82.5,0h-40c-2.71,0-5.37-1.1-7.29-3.02s-3.02-4.58-3.02-7.29v-1.25c0-5.69,4.63-10.31,10.31-10.31,1.72,0,3.42.43,4.92,1.25h35.08c5.69,0,10.31,4.62,10.31,10.31s-4.62,10.31-10.31,10.31Zm419-34.75c-5.68,0-10.31-4.63-10.31-10.31v-41.25c0-5.68,4.63-10.31,10.31-10.31s10.31,4.63,10.31,10.31v41.25c0,5.68-4.62,10.31-10.31,10.31Zm-459-7.75c-5.69,0-10.31-4.62-10.31-10.31v-41.25c0-5.68,4.62-10.31,10.31-10.31s10.31,4.63,10.31,10.31v41.25c0,5.69-4.62,10.31-10.31,10.31Zm459-74.75c-5.68,0-10.31-4.63-10.31-10.31v-41.25c0-5.68,4.63-10.31,10.31-10.31s10.31,4.63,10.31,10.31v41.25c0,5.68-4.62,10.31-10.31,10.31Zm-459-7.75c-5.69,0-10.31-4.62-10.31-10.31v-41.25c0-5.68,4.62-10.31,10.31-10.31s10.31,4.63,10.31,10.31v41.25c0,5.69-4.62,10.31-10.31,10.31Zm459-74.75c-5.68,0-10.31-4.63-10.31-10.31v-41.25c0-5.69,4.63-10.31,10.31-10.31s10.31,4.62,10.31,10.31v41.25c0,5.68-4.62,10.31-10.31,10.31Zm-459-7.75c-5.69,0-10.31-4.62-10.31-10.31v-41.25c0-5.68,4.62-10.31,10.31-10.31s10.31,4.63,10.31,10.31v41.25c0,5.69-4.62,10.31-10.31,10.31Zm459-74.75c-5.68,0-10.31-4.63-10.31-10.31v-41.25c0-5.69,4.63-10.31,10.31-10.31s10.31,4.62,10.31,10.31v41.25c0,5.68-4.62,10.31-10.31,10.31Zm-459-7.75c-5.69,0-10.31-4.62-10.31-10.31v-41.25c0-5.68,4.62-10.31,10.31-10.31s10.31,4.63,10.31,10.31v41.25c0,5.69-4.62,10.31-10.31,10.31Zm459-74.75c-5.68,0-10.31-4.63-10.31-10.31v-41.25c0-5.69,4.63-10.31,10.31-10.31s10.31,4.62,10.31,10.31v41.25c0,5.68-4.62,10.31-10.31,10.31Zm-459-7.75c-5.69,0-10.31-4.62-10.31-10.31v-41.25c0-5.68,4.62-10.31,10.31-10.31s10.31,4.63,10.31,10.31v41.25c0,5.69-4.62,10.31-10.31,10.31Zm453.75-69.5h-41.25c-5.69,0-10.31-4.63-10.31-10.31s4.62-10.31,10.31-10.31h41.25c5.68,0,10.31,4.62,10.31,10.31s-4.63,10.31-10.31,10.31Zm-82.5,0h-41.25c-5.69,0-10.31-4.63-10.31-10.31s4.62-10.31,10.31-10.31h41.25c5.68,0,10.31,4.62,10.31,10.31s-4.63,10.31-10.31,10.31Zm-82.5,0h-41.25c-5.69,0-10.31-4.63-10.31-10.31s4.62-10.31,10.31-10.31h41.25c5.68,0,10.31,4.62,10.31,10.31s-4.63,10.31-10.31,10.31Zm-82.5,0h-41.25c-5.69,0-10.31-4.63-10.31-10.31s4.62-10.31,10.31-10.31h41.25c5.68,0,10.31,4.62,10.31,10.31s-4.63,10.31-10.31,10.31Zm-82.5,0h-41.25c-5.69,0-10.31-4.63-10.31-10.31s4.62-10.31,10.31-10.31h41.25c5.68,0,10.31,4.62,10.31,10.31s-4.63,10.31-10.31,10.31Zm-82.5,0h-41.25c-5.69,0-10.31-4.63-10.31-10.31s4.62-10.31,10.31-10.31h41.25c5.68,0,10.31,4.62,10.31,10.31s-4.63,10.31-10.31,10.31Z" fill="#70ad47"/>
      <path d="m1131.25,1128.81c-5.68,0-10.31-4.62-10.31-10.31s4.63-10.31,10.31-10.31h41.25c5.68,0,10.31,4.63,10.31,10.31,0,2.52-.92,4.94-2.58,6.82h-.01s-.02.04-.02.04c-.14.15-.27.29-.41.43-.2.2-.41.39-.63.58l-.05.04c-1.85,1.55-4.2,2.4-6.61,2.4h-41.25Zm-41.25,0h-41.25c-5.69,0-10.31-4.63-10.31-10.31s4.62-10.31,10.31-10.31h41.25c5.69,0,10.31,4.63,10.31,10.31s-4.62,10.31-10.31,10.31Zm-82.5,0h-41.25c-5.68,0-10.31-4.63-10.31-10.31s4.63-10.31,10.31-10.31h41.25c5.68,0,10.31,4.63,10.31,10.31s-4.63,10.31-10.31,10.31Zm-82.5,0h-41.25c-5.69,0-10.31-4.63-10.31-10.31s4.62-10.31,10.31-10.31h41.25c5.69,0,10.31,4.63,10.31,10.31s-4.62,10.31-10.31,10.31Zm-82.5,0h-41.25c-5.68,0-10.31-4.63-10.31-10.31s4.63-10.31,10.31-10.31h41.25c5.68,0,10.31,4.63,10.31,10.31s-4.63,10.31-10.31,10.31Zm-82.5,0h-20.5c-2.71,0-5.37-1.1-7.29-3.02-1.92-1.92-3.02-4.58-3.02-7.29v-20.75c0-5.68,4.63-10.31,10.31-10.31s10.31,4.63,10.31,10.31v10.44h10.19c5.69,0,10.31,4.63,10.31,10.31s-4.62,10.31-10.31,10.31Zm412.5-41.25c-5.69,0-10.31-4.62-10.31-10.31v-41.25c0-5.69,4.62-10.31,10.31-10.31s10.31,4.62,10.31,10.31v41.25c0,5.69-4.63,10.31-10.31,10.31Zm-433-20.75c-5.68,0-10.31-4.63-10.31-10.31v-41.25c0-5.68,4.63-10.31,10.31-10.31s10.31,4.63,10.31,10.31v41.25c0,5.68-4.62,10.31-10.31,10.31Zm433-61.75c-5.69,0-10.31-4.63-10.31-10.31v-41.25c0-5.68,4.62-10.31,10.31-10.31s10.31,4.63,10.31,10.31v41.25c0,5.68-4.63,10.31-10.31,10.31Zm-433-20.75c-5.68,0-10.31-4.62-10.31-10.31v-41.25c0-5.69,4.63-10.31,10.31-10.31s10.31,4.62,10.31,10.31v41.25c0,5.69-4.62,10.31-10.31,10.31Zm433-61.75c-5.69,0-10.31-4.62-10.31-10.31v-41.25c0-5.69,4.62-10.31,10.31-10.31s10.31,4.62,10.31,10.31v41.25c0,5.69-4.63,10.31-10.31,10.31Zm-433-20.75c-5.68,0-10.31-4.63-10.31-10.31v-41.25c0-5.68,4.63-10.31,10.31-10.31s10.31,4.63,10.31,10.31v41.25c0,5.68-4.62,10.31-10.31,10.31Zm433-61.75c-5.69,0-10.31-4.63-10.31-10.31v-41.25c0-5.68,4.62-10.31,10.31-10.31s10.31,4.63,10.31,10.31v41.25c0,5.68-4.63,10.31-10.31,10.31Zm-433-20.75c-5.68,0-10.31-4.62-10.31-10.31v-41.25c0-5.69,4.63-10.31,10.31-10.31s10.31,4.62,10.31,10.31v41.25c0,5.69-4.62,10.31-10.31,10.31Zm433-61.75c-5.69,0-10.31-4.62-10.31-10.31v-10.44h-10.19c-5.69,0-10.31-4.63-10.31-10.31,0-2.69,1.03-5.23,2.89-7.16,1.86-1.92,4.35-3.04,7.02-3.14.13,0,.27,0,.4,0h20.5c2.71,0,5.37,1.1,7.29,3.02,1.92,1.92,3.02,4.58,3.02,7.29v20.75c0,5.69-4.63,10.31-10.31,10.31Zm-61.75-20.75h-41.25c-5.68,0-10.31-4.63-10.31-10.31s4.63-10.31,10.31-10.31h41.25c5.68,0,10.31,4.62,10.31,10.31s-4.63,10.31-10.31,10.31Zm-82.5,0h-41.25c-5.69,0-10.31-4.63-10.31-10.31s4.62-10.31,10.31-10.31h41.25c5.69,0,10.31,4.62,10.31,10.31s-4.62,10.31-10.31,10.31Zm-82.5,0h-41.25c-5.68,0-10.31-4.63-10.31-10.31s4.63-10.31,10.31-10.31h41.25c5.68,0,10.31,4.62,10.31,10.31s-4.63,10.31-10.31,10.31Zm-82.5,0h-41.25c-5.69,0-10.31-4.63-10.31-10.31s4.62-10.31,10.31-10.31h41.25c5.69,0,10.31,4.62,10.31,10.31s-4.62,10.31-10.31,10.31Zm-82.5,0h-41.25c-5.68,0-10.31-4.63-10.31-10.31,0-2.61.98-5.1,2.75-7.01l.04-.05.23-.23c.08-.08.15-.15.23-.22l.04-.04h0c1.91-1.78,4.4-2.76,7.01-2.76h41.25c5.68,0,10.31,4.62,10.31,10.31s-4.63,10.31-10.31,10.31Z" fill="#70ad47"/>
      <path d="m874.75,1892.81c-5.69,0-10.31-4.62-10.31-10.31s4.62-10.31,10.31-10.31h20.44v-.19c0-5.69,4.63-10.31,10.31-10.31s10.31,4.62,10.31,10.31v10.5c0,2.71-1.1,5.37-3.02,7.29-1.92,1.92-4.58,3.02-7.29,3.02h-30.75Zm-41.25,0h-41.25c-5.68,0-10.31-4.62-10.31-10.31s4.63-10.31,10.31-10.31h41.25c5.69,0,10.31,4.62,10.31,10.31s-4.62,10.31-10.31,10.31Zm-82.5,0h-41.25c-5.68,0-10.31-4.62-10.31-10.31s4.63-10.31,10.31-10.31h41.25c5.68,0,10.31,4.62,10.31,10.31s-4.63,10.31-10.31,10.31Zm-82.5,0h-41.25c-5.68,0-10.31-4.62-10.31-10.31s4.63-10.31,10.31-10.31h41.25c5.68,0,10.31,4.62,10.31,10.31s-4.63,10.31-10.31,10.31Zm-82.5,0h-41.25c-5.68,0-10.31-4.62-10.31-10.31s4.63-10.31,10.31-10.31h41.25c5.68,0,10.31,4.62,10.31,10.31s-4.63,10.31-10.31,10.31Zm-82.5,0h-1c-2.71,0-5.37-1.1-7.29-3.02s-3.02-4.58-3.02-7.29v-40.25c0-5.69,4.63-10.31,10.31-10.31s10.31,4.62,10.31,10.31v35.81c.66,1.39,1,2.89,1,4.44,0,5.69-4.62,10.31-10.31,10.31Zm402-51.75c-5.68,0-10.31-4.63-10.31-10.31v-41.25c0-5.69,4.63-10.31,10.31-10.31s10.31,4.62,10.31,10.31v41.25c0,5.68-4.62,10.31-10.31,10.31Zm-403-29.75c-5.68,0-10.31-4.62-10.31-10.31v-41.25c0-5.69,4.63-10.31,10.31-10.31s10.31,4.62,10.31,10.31v41.25c0,5.69-4.63,10.31-10.31,10.31Zm403-52.75c-5.68,0-10.31-4.63-10.31-10.31v-41.25c0-5.69,4.63-10.31,10.31-10.31s10.31,4.62,10.31,10.31v41.25c0,5.68-4.62,10.31-10.31,10.31Zm-403-29.75c-5.68,0-10.31-4.63-10.31-10.31v-41.25c0-5.69,4.63-10.31,10.31-10.31s10.31,4.62,10.31,10.31v41.25c0,5.68-4.63,10.31-10.31,10.31Zm403-52.75c-5.68,0-10.31-4.63-10.31-10.31v-41.25c0-5.69,4.63-10.31,10.31-10.31s10.31,4.62,10.31,10.31v41.25c0,5.68-4.62,10.31-10.31,10.31Zm-403-29.75c-5.68,0-10.31-4.63-10.31-10.31v-41.25c0-5.69,4.63-10.31,10.31-10.31s10.31,4.62,10.31,10.31v41.25c0,5.68-4.63,10.31-10.31,10.31Zm403-52.75c-5.68,0-10.31-4.63-10.31-10.31v-41.25c0-5.69,4.63-10.31,10.31-10.31s10.31,4.62,10.31,10.31v41.25c0,5.68-4.62,10.31-10.31,10.31Zm-403-29.75c-5.68,0-10.31-4.62-10.31-10.31v-41.25c0-5.69,4.63-10.31,10.31-10.31s10.31,4.62,10.31,10.31v41.25c0,5.69-4.63,10.31-10.31,10.31Zm403-52.75c-5.68,0-10.31-4.63-10.31-10.31v-41.25c0-5.69,4.63-10.31,10.31-10.31s10.31,4.62,10.31,10.31v41.25c0,5.68-4.62,10.31-10.31,10.31Zm-403-29.75c-5.68,0-10.31-4.62-10.31-10.31v-41.25c0-5.69,4.63-10.31,10.31-10.31s10.31,4.62,10.31,10.31v41.25c0,5.69-4.63,10.31-10.31,10.31Zm403-52.75c-5.68,0-10.31-4.63-10.31-10.31v-41.25c0-5.69,4.63-10.31,10.31-10.31s10.31,4.62,10.31,10.31v41.25c0,5.68-4.62,10.31-10.31,10.31Zm-403-29.75c-5.68,0-10.31-4.62-10.31-10.31v-41.25c0-5.69,4.63-10.31,10.31-10.31s10.31,4.62,10.31,10.31v41.25c0,5.69-4.63,10.31-10.31,10.31Zm403-52.75c-5.68,0-10.31-4.63-10.31-10.31v-41.25c0-5.69,4.63-10.31,10.31-10.31s10.31,4.62,10.31,10.31v41.25c0,5.68-4.62,10.31-10.31,10.31Zm-403-29.75c-5.68,0-10.31-4.62-10.31-10.31v-41.25c0-5.69,4.63-10.31,10.31-10.31s10.31,4.62,10.31,10.31v41.25c0,5.69-4.63,10.31-10.31,10.31Zm403-52.75c-5.68,0-10.31-4.63-10.31-10.31v-41.25c0-5.69,4.63-10.31,10.31-10.31s10.31,4.62,10.31,10.31v41.25c0,5.68-4.62,10.31-10.31,10.31Zm-403-29.75c-5.68,0-10.31-4.62-10.31-10.31v-21c0-5.69,4.63-10.31,10.31-10.31h41.25c5.69,0,10.31,4.62,10.31,10.31s-4.62,10.31-10.31,10.31h-30.94v10.68h0c0,5.7-4.62,10.32-10.31,10.32Zm371.25-21h-41.25c-5.69,0-10.31-4.62-10.31-10.31s4.62-10.31,10.31-10.31h41.25c5.68,0,10.31,4.62,10.31,10.31s-4.63,10.31-10.31,10.31Zm-82.5,0h-41.25c-5.68,0-10.31-4.62-10.31-10.31s4.63-10.31,10.31-10.31h41.25c5.68,0,10.31,4.62,10.31,10.31s-4.63,10.31-10.31,10.31Zm-82.5,0h-41.25c-5.69,0-10.31-4.62-10.31-10.31s4.62-10.31,10.31-10.31h41.25c5.68,0,10.31,4.62,10.31,10.31s-4.63,10.31-10.31,10.31Zm-82.5,0h-41.25c-5.69,0-10.31-4.62-10.31-10.31s4.62-10.31,10.31-10.31h41.25c5.68,0,10.31,4.62,10.31,10.31s-4.63,10.31-10.31,10.31Z" fill="#70ad47"/>
      <path d="m2192.13,310.34c62.19-3.99,100.06-3.97,125.52,37,25.46,40.96-64.67,184.55,27.25,208.79,91.91,24.24,136.8-50.05,174.91-123.01,38.11-72.95,56.25-160.59,56.32-204.32" fill="none" stroke="#595959" stroke-linecap="round" stroke-linejoin="round" stroke-width="81.17"/>
      <path d="m2206.13,572.8c27.23-35.86,58.97-41.96,99-47" fill="none" stroke="#595959" stroke-linecap="round" stroke-linejoin="round" stroke-width="81.17"/>
      <path d="m2404.13,744.34c62.03-3.99,99.8-3.97,125.2,37,25.39,40.96-64.51,184.54,27.17,208.79,91.68,24.24,136.44-50.05,174.46-123.01,38.01-72.95,56.1-160.59,56.17-204.32" fill="none" stroke="#595959" stroke-linecap="round" stroke-linejoin="round" stroke-width="81.17"/>
      <path d="m2417.13,1006.8c27.5-35.86,59.56-41.97,100-47" fill="none" stroke="#595959" stroke-linecap="round" stroke-linejoin="round" stroke-width="81.17"/>
      <path d="m1992.5,815.41c1.23,4.66,27.53-7.97,42.01,31.92,14.49,39.9-37.08,184.53,44.91,207.46,81.98,22.93,115.21-65.64,134.97-124.65,19.76-59,8.91-136.89,53.19-204.47,44.29-67.58,84.16-62.02,83.92-63.17" fill="none" stroke="#595959" stroke-linecap="round" stroke-linejoin="round" stroke-width="81.17"/>
      <path d="m1940.13,983.8c94.82-65.71,214.01-70.42,365-71" fill="none" stroke="#595959" stroke-linecap="round" stroke-linejoin="round" stroke-width="81.17"/>
      <path d="m2389.13,1719.8c-10.2,29.47-29.76,40.21-55,52" fill="none" stroke="#595959" stroke-linecap="round" stroke-linejoin="round" stroke-width="81.17"/>
      <path d="m2193.13,1232.5c90.48-166.17,259.71-164.44,348,2.31" fill="none" stroke="#595959" stroke-linecap="round" stroke-linejoin="round" stroke-width="81.17"/>
      <path d="m2361.56,1116.8v486" fill="none" stroke="#595959" stroke-linecap="round" stroke-linejoin="round" stroke-width="81.17"/>
      <path d="m2636.5,651.81h-41.25c-5.69,0-10.31-4.62-10.31-10.31s4.62-10.31,10.31-10.31h41.25c5.69,0,10.31,4.63,10.31,10.31s-4.62,10.31-10.31,10.31Zm-82.5,0h-41.25c-5.69,0-10.31-4.62-10.31-10.31s4.62-10.31,10.31-10.31h41.25c5.69,0,10.31,4.63,10.31,10.31s-4.62,10.31-10.31,10.31Zm-82.5,0h-41.25c-5.69,0-10.31-4.62-10.31-10.31s4.62-10.31,10.31-10.31h41.25c5.69,0,10.31,4.63,10.31,10.31s-4.62,10.31-10.31,10.31Zm-82.5,0h-41.25c-5.69,0-10.31-4.62-10.31-10.31s4.62-10.31,10.31-10.31h41.25c5.69,0,10.31,4.63,10.31,10.31s-4.62,10.31-10.31,10.31Zm-82.5,0h-41.25c-5.69,0-10.31-4.62-10.31-10.31s4.62-10.31,10.31-10.31h41.25c5.69,0,10.31,4.63,10.31,10.31s-4.62,10.31-10.31,10.31Zm-82.5,0h-41.25c-5.69,0-10.31-4.62-10.31-10.31s4.62-10.31,10.31-10.31h41.25c5.69,0,10.31,4.63,10.31,10.31s-4.62,10.31-10.31,10.31Zm-82.5,0c-5.69,0-10.31-4.62-10.31-10.31v-41.25c0-5.69,4.62-10.31,10.31-10.31s10.31,4.62,10.31,10.31v41.25c0,5.69-4.63,10.31-10.31,10.31Zm510-26.25c-5.69,0-10.31-4.62-10.31-10.31v-41.25c0-5.69,4.62-10.31,10.31-10.31s10.31,4.62,10.31,10.31v41.25c0,5.69-4.62,10.31-10.31,10.31Zm-510-56.25c-5.69,0-10.31-4.62-10.31-10.31v-41.25c0-5.68,4.62-10.31,10.31-10.31s10.31,4.63,10.31,10.31v41.25c0,5.69-4.63,10.31-10.31,10.31Zm510-26.25c-5.69,0-10.31-4.63-10.31-10.31v-41.25c0-5.69,4.62-10.31,10.31-10.31s10.31,4.62,10.31,10.31v41.25c0,5.68-4.62,10.31-10.31,10.31Zm-510-56.25c-5.69,0-10.31-4.62-10.31-10.31v-41.25c0-5.68,4.62-10.31,10.31-10.31s10.31,4.63,10.31,10.31v41.25c0,5.69-4.63,10.31-10.31,10.31Zm510-26.25c-5.69,0-10.31-4.63-10.31-10.31v-41.25c0-5.68,4.62-10.31,10.31-10.31s10.31,4.63,10.31,10.31v41.25c0,5.68-4.62,10.31-10.31,10.31Zm-510-56.25c-5.69,0-10.31-4.62-10.31-10.31v-41.25c0-5.69,4.62-10.31,10.31-10.31s10.31,4.62,10.31,10.31v41.25c0,5.69-4.63,10.31-10.31,10.31Zm510-26.25c-5.69,0-10.31-4.62-10.31-10.31v-41.25c0-5.69,4.62-10.31,10.31-10.31s10.31,4.62,10.31,10.31v41.25c0,5.69-4.62,10.31-10.31,10.31Zm-510-56.25c-5.69,0-10.31-4.62-10.31-10.31v-41.25c0-5.68,4.62-10.31,10.31-10.31s10.31,4.63,10.31,10.31v41.25c0,5.69-4.63,10.31-10.31,10.31Zm510-26.25c-5.69,0-10.31-4.62-10.31-10.31v-41.25c0-5.69,4.62-10.31,10.31-10.31s10.31,4.62,10.31,10.31v41.25c0,5.69-4.62,10.31-10.31,10.31Zm-510-56.25c-5.69,0-10.31-4.62-10.31-10.31v-41.25c0-2.01.58-3.95,1.67-5.62-1.09-1.68-1.67-3.62-1.67-5.63,0-5.69,4.62-10.31,10.31-10.31h41.25c5.68,0,10.31,4.62,10.31,10.31s-4.63,10.31-10.31,10.31h-30.98c.03.31.04.63.04.94v41.25c0,5.69-4.63,10.31-10.31,10.31Zm510-26.25c-5.69,0-10.31-4.62-10.31-10.31v-15.94h-4.69c-5.69,0-10.31-4.62-10.31-10.31s4.62-10.31,10.31-10.31h15c2.71,0,5.37,1.1,7.29,3.02s3.02,4.58,3.02,7.29v26.25c0,5.69-4.62,10.31-10.31,10.31Zm-56.25-26.25h-41.25c-5.69,0-10.31-4.62-10.31-10.31s4.62-10.31,10.31-10.31h41.25c5.68,0,10.31,4.62,10.31,10.31s-4.63,10.31-10.31,10.31Zm-82.5,0h-41.25c-5.69,0-10.31-4.62-10.31-10.31s4.62-10.31,10.31-10.31h41.25c5.68,0,10.31,4.62,10.31,10.31s-4.63,10.31-10.31,10.31Zm-82.5,0h-41.25c-5.69,0-10.31-4.62-10.31-10.31s4.62-10.31,10.31-10.31h41.25c5.68,0,10.31,4.62,10.31,10.31s-4.63,10.31-10.31,10.31Zm-82.5,0h-41.25c-5.69,0-10.31-4.62-10.31-10.31s4.62-10.31,10.31-10.31h41.25c5.68,0,10.31,4.62,10.31,10.31s-4.63,10.31-10.31,10.31Zm-82.5,0h-41.25c-5.69,0-10.31-4.62-10.31-10.31s4.62-10.31,10.31-10.31h41.25c5.69,0,10.31,4.62,10.31,10.31s-4.62,10.31-10.31,10.31Z" fill="#cc5c5c"/>
      <path d="m2401.5,1112.81h-30.25c-5.69,0-10.31-4.62-10.31-10.31s4.62-10.31,10.31-10.31h19.94v-.69c0-5.69,4.62-10.31,10.31-10.31s10.31,4.62,10.31,10.31v11c0,2.71-1.1,5.37-3.02,7.29-1.92,1.92-4.58,3.02-7.29,3.02Zm-71.5,0h-41.25c-5.69,0-10.31-4.62-10.31-10.31s4.62-10.31,10.31-10.31h41.25c5.68,0,10.31,4.63,10.31,10.31s-4.63,10.31-10.31,10.31Zm-82.5,0h-41.25c-5.69,0-10.31-4.62-10.31-10.31s4.62-10.31,10.31-10.31h41.25c5.69,0,10.31,4.63,10.31,10.31s-4.62,10.31-10.31,10.31Zm-82.5,0h-41.25c-5.69,0-10.31-4.62-10.31-10.31s4.62-10.31,10.31-10.31h41.25c5.69,0,10.31,4.63,10.31,10.31s-4.62,10.31-10.31,10.31Zm-82.5,0h-41.25c-5.69,0-10.31-4.62-10.31-10.31s4.62-10.31,10.31-10.31h41.25c5.69,0,10.31,4.63,10.31,10.31s-4.62,10.31-10.31,10.31Zm-82.5,0h-41.25c-5.69,0-10.31-4.62-10.31-10.31s4.62-10.31,10.31-10.31h41.25c5.69,0,10.31,4.63,10.31,10.31s-4.62,10.31-10.31,10.31Zm-82.5,0h-26c-2.71,0-5.37-1.1-7.29-3.02-1.92-1.92-3.02-4.58-3.02-7.29v-15.25c0-5.69,4.62-10.31,10.31-10.31s10.31,4.62,10.31,10.31v4.94h15.69c5.68,0,10.31,4.63,10.31,10.31s-4.63,10.31-10.31,10.31Zm484-52.25c-5.69,0-10.31-4.63-10.31-10.31v-41.25c0-5.69,4.62-10.31,10.31-10.31s10.31,4.62,10.31,10.31v41.25c0,5.68-4.62,10.31-10.31,10.31Zm-510-4.25c-5.69,0-10.31-4.63-10.31-10.31v-41.25c0-5.69,4.62-10.31,10.31-10.31s10.31,4.62,10.31,10.31v41.25c0,5.68-4.63,10.31-10.31,10.31Zm510-78.25c-5.69,0-10.31-4.63-10.31-10.31v-41.25c0-5.69,4.62-10.31,10.31-10.31s10.31,4.62,10.31,10.31v41.25c0,5.68-4.62,10.31-10.31,10.31Zm-510-4.25c-5.69,0-10.31-4.62-10.31-10.31v-41.25c0-5.69,4.62-10.31,10.31-10.31s10.31,4.62,10.31,10.31v41.25c0,5.69-4.63,10.31-10.31,10.31Zm510-78.25c-5.69,0-10.31-4.62-10.31-10.31v-41.25c0-5.69,4.62-10.31,10.31-10.31s10.31,4.62,10.31,10.31v41.25c0,5.69-4.62,10.31-10.31,10.31Zm-510-4.25c-5.69,0-10.31-4.62-10.31-10.31v-41.25c0-5.68,4.62-10.31,10.31-10.31s10.31,4.63,10.31,10.31v41.25c0,5.69-4.63,10.31-10.31,10.31Zm510-78.25c-5.69,0-10.31-4.63-10.31-10.31v-41.25c0-5.68,4.62-10.31,10.31-10.31s10.31,4.63,10.31,10.31v41.25c0,5.68-4.62,10.31-10.31,10.31Zm-510-4.25c-5.69,0-10.31-4.63-10.31-10.31v-41.25c0-5.68,4.62-10.31,10.31-10.31s10.31,4.63,10.31,10.31v41.25c0,5.68-4.63,10.31-10.31,10.31Zm510-78.25c-5.69,0-10.31-4.62-10.31-10.31v-41.25c0-5.69,4.62-10.31,10.31-10.31s10.31,4.62,10.31,10.31v41.25c0,5.69-4.62,10.31-10.31,10.31Zm-510-4.25c-5.69,0-10.31-4.62-10.31-10.31v-41.25c0-5.69,4.62-10.31,10.31-10.31s10.31,4.62,10.31,10.31v41.25c0,5.69-4.63,10.31-10.31,10.31Zm510-78.25c-5.69,0-10.31-4.62-10.31-10.31v-15.94h-4.69c-5.69,0-10.31-4.62-10.31-10.31,0-2.71,1.04-5.27,2.93-7.2,1.89-1.94,4.41-3.04,7.11-3.11h15.27c2.71,0,5.37,1.1,7.29,3.02s3.02,4.58,3.02,7.29v26.25c0,5.69-4.62,10.31-10.31,10.31Zm-510-4.25c-5.69,0-10.31-4.62-10.31-10.31v-22c0-5.68,4.62-10.31,10.31-10.31h41.25c5.68,0,10.31,4.63,10.31,10.31s-4.63,10.31-10.31,10.31h-30.94v11.68h0c0,5.7-4.62,10.32-10.31,10.32Zm453.75-22h-41.25c-5.69,0-10.31-4.62-10.31-10.31s4.62-10.31,10.31-10.31h41.25c5.68,0,10.31,4.63,10.31,10.31s-4.63,10.31-10.31,10.31Zm-82.5,0h-41.25c-5.69,0-10.31-4.62-10.31-10.31s4.62-10.31,10.31-10.31h41.25c5.68,0,10.31,4.63,10.31,10.31s-4.63,10.31-10.31,10.31Zm-82.5,0h-41.25c-5.69,0-10.31-4.62-10.31-10.31s4.62-10.31,10.31-10.31h41.25c5.68,0,10.31,4.63,10.31,10.31s-4.63,10.31-10.31,10.31Zm-82.5,0h-41.25c-5.69,0-10.31-4.62-10.31-10.31s4.62-10.31,10.31-10.31h41.25c5.68,0,10.31,4.63,10.31,10.31s-4.63,10.31-10.31,10.31Zm-82.5,0h-41.25c-5.69,0-10.31-4.62-10.31-10.31s4.62-10.31,10.31-10.31h41.25c5.69,0,10.31,4.63,10.31,10.31s-4.62,10.31-10.31,10.31Z" fill="#cc5c5c"/>
      <path d="m2837.5,1068.81h-33.75c-5.69,0-10.31-4.62-10.31-10.31s4.62-10.31,10.31-10.31h23.83c1.24-4.42,5.32-7.5,9.92-7.5,5.68,0,10.31,4.62,10.31,10.31v7.5c0,2.71-1.1,5.37-3.02,7.29-1.92,1.92-4.58,3.02-7.29,3.02Zm-75,0h-41.25c-5.69,0-10.31-4.62-10.31-10.31s4.62-10.31,10.31-10.31h41.25c5.68,0,10.31,4.63,10.31,10.31s-4.63,10.31-10.31,10.31Zm-82.5,0h-41.25c-5.69,0-10.31-4.62-10.31-10.31s4.62-10.31,10.31-10.31h41.25c5.68,0,10.31,4.63,10.31,10.31s-4.63,10.31-10.31,10.31Zm-82.5,0h-41.25c-5.69,0-10.31-4.62-10.31-10.31s4.62-10.31,10.31-10.31h41.25c5.69,0,10.31,4.63,10.31,10.31s-4.62,10.31-10.31,10.31Zm-82.5,0h-41.25c-5.69,0-10.31-4.62-10.31-10.31s4.62-10.31,10.31-10.31h41.25c5.68,0,10.31,4.63,10.31,10.31s-4.63,10.31-10.31,10.31Zm-82.5,0h-41.25c-5.69,0-10.31-4.62-10.31-10.31s4.62-10.31,10.31-10.31h41.25c5.69,0,10.31,4.63,10.31,10.31s-4.62,10.31-10.31,10.31Zm-76-6.5c-5.69,0-10.31-4.62-10.31-10.31v-41.25c0-5.69,4.62-10.31,10.31-10.31s10.31,4.62,10.31,10.31v41.25c0,5.69-4.63,10.31-10.31,10.31Zm481-42.25c-5.69,0-10.31-4.63-10.31-10.31v-41.25c0-5.68,4.62-10.31,10.31-10.31s10.31,4.63,10.31,10.31v41.25c0,5.68-4.63,10.31-10.31,10.31Zm-481-40.25c-5.69,0-10.31-4.63-10.31-10.31v-41.25c0-5.68,4.62-10.31,10.31-10.31s10.31,4.63,10.31,10.31v41.25c0,5.68-4.63,10.31-10.31,10.31Zm481-42.25c-5.69,0-10.31-4.63-10.31-10.31v-41.25c0-5.69,4.62-10.31,10.31-10.31s10.31,4.62,10.31,10.31v41.25c0,5.68-4.63,10.31-10.31,10.31Zm-481-40.25c-5.69,0-10.31-4.63-10.31-10.31v-41.25c0-5.69,4.62-10.31,10.31-10.31s10.31,4.62,10.31,10.31v41.25c0,5.68-4.63,10.31-10.31,10.31Zm481-42.25c-5.69,0-10.31-4.63-10.31-10.31v-41.25c0-5.69,4.62-10.31,10.31-10.31s10.31,4.62,10.31,10.31v41.25c0,5.68-4.63,10.31-10.31,10.31Zm-481-40.25c-5.69,0-10.31-4.62-10.31-10.31v-41.25c0-5.69,4.62-10.31,10.31-10.31s10.31,4.62,10.31,10.31v41.25c0,5.69-4.63,10.31-10.31,10.31Zm481-42.25c-5.69,0-10.31-4.63-10.31-10.31v-41.25c0-5.69,4.62-10.31,10.31-10.31s10.31,4.62,10.31,10.31v41.25c0,5.68-4.63,10.31-10.31,10.31Zm-481-40.25c-5.69,0-10.31-4.63-10.31-10.31v-41.25c0-5.68,4.62-10.31,10.31-10.31s10.31,4.63,10.31,10.31v41.25c0,5.68-4.63,10.31-10.31,10.31Zm481-42.25c-5.69,0-10.31-4.62-10.31-10.31v-41.25c0-5.69,4.62-10.31,10.31-10.31s10.31,4.62,10.31,10.31v41.25c0,5.69-4.63,10.31-10.31,10.31Zm-481-40.25c-5.69,0-10.31-4.62-10.31-10.31v-15c0-5.68,4.62-10.31,10.31-10.31h41.25c5.68,0,10.31,4.63,10.31,10.31s-4.63,10.31-10.31,10.31h-30.94v4.68h0c0,5.7-4.62,10.32-10.31,10.32Zm453.75-15h-41.25c-5.69,0-10.31-4.62-10.31-10.31s4.62-10.31,10.31-10.31h41.25c5.68,0,10.31,4.63,10.31,10.31s-4.63,10.31-10.31,10.31Zm-82.5,0h-41.25c-5.69,0-10.31-4.62-10.31-10.31s4.62-10.31,10.31-10.31h41.25c5.68,0,10.31,4.63,10.31,10.31s-4.63,10.31-10.31,10.31Zm-82.5,0h-41.25c-5.69,0-10.31-4.62-10.31-10.31s4.62-10.31,10.31-10.31h41.25c5.68,0,10.31,4.63,10.31,10.31s-4.63,10.31-10.31,10.31Zm-82.5,0h-41.25c-5.69,0-10.31-4.62-10.31-10.31s4.62-10.31,10.31-10.31h41.25c5.68,0,10.31,4.63,10.31,10.31s-4.63,10.31-10.31,10.31Zm-82.5,0h-41.25c-5.69,0-10.31-4.62-10.31-10.31s4.62-10.31,10.31-10.31h41.25c5.68,0,10.31,4.63,10.31,10.31s-4.63,10.31-10.31,10.31Z" fill="#cc5c5c"/>
      <path d="m2562,1819.81h-41.25c-5.69,0-10.31-4.62-10.31-10.31s4.62-10.31,10.31-10.31h41.25c5.69,0,10.31,4.62,10.31,10.31s-4.62,10.31-10.31,10.31Zm-82.5,0h-41.25c-5.69,0-10.31-4.62-10.31-10.31s4.62-10.31,10.31-10.31h41.25c5.68,0,10.31,4.62,10.31,10.31s-4.63,10.31-10.31,10.31Zm-82.5,0h-41.25c-5.69,0-10.31-4.62-10.31-10.31s4.62-10.31,10.31-10.31h41.25c5.68,0,10.31,4.62,10.31,10.31s-4.63,10.31-10.31,10.31Zm-82.5,0h-41.25c-5.69,0-10.31-4.62-10.31-10.31s4.62-10.31,10.31-10.31h41.25c5.69,0,10.31,4.62,10.31,10.31s-4.62,10.31-10.31,10.31Zm-82.5,0h-41.25c-5.69,0-10.31-4.62-10.31-10.31s4.62-10.31,10.31-10.31h41.25c5.68,0,10.31,4.62,10.31,10.31s-4.63,10.31-10.31,10.31Zm-82.5,0h-1c-2.71,0-5.37-1.1-7.29-3.02s-3.02-4.57-3.02-7.29v-40.25c0-5.69,4.62-10.31,10.31-10.31s10.31,4.62,10.31,10.31v35.81c.66,1.39,1,2.89,1,4.44,0,5.69-4.63,10.31-10.31,10.31Zm447-6.75c-5.69,0-10.31-4.63-10.31-10.31v-41.25c0-5.69,4.62-10.31,10.31-10.31s10.31,4.62,10.31,10.31v41.25c0,5.68-4.63,10.31-10.31,10.31Zm-448-74.75c-5.69,0-10.31-4.63-10.31-10.31v-41.25c0-5.69,4.62-10.31,10.31-10.31s10.31,4.62,10.31,10.31v41.25c0,5.68-4.62,10.31-10.31,10.31Zm448-7.75c-5.69,0-10.31-4.63-10.31-10.31v-41.25c0-5.69,4.62-10.31,10.31-10.31s10.31,4.62,10.31,10.31v41.25c0,5.68-4.63,10.31-10.31,10.31Zm-448-74.75c-5.69,0-10.31-4.62-10.31-10.31v-41.25c0-5.69,4.62-10.31,10.31-10.31s10.31,4.62,10.31,10.31v41.25c0,5.69-4.62,10.31-10.31,10.31Zm448-7.75c-5.69,0-10.31-4.63-10.31-10.31v-41.25c0-5.69,4.62-10.31,10.31-10.31s10.31,4.62,10.31,10.31v41.25c0,5.68-4.63,10.31-10.31,10.31Zm-448-74.75c-5.69,0-10.31-4.62-10.31-10.31v-41.25c0-5.69,4.62-10.31,10.31-10.31s10.31,4.62,10.31,10.31v41.25c0,5.69-4.62,10.31-10.31,10.31Zm448-7.75c-5.69,0-10.31-4.63-10.31-10.31v-41.25c0-5.69,4.62-10.31,10.31-10.31s10.31,4.62,10.31,10.31v41.25c0,5.68-4.63,10.31-10.31,10.31Zm-448-74.75c-5.69,0-10.31-4.63-10.31-10.31v-41.25c0-5.69,4.62-10.31,10.31-10.31s10.31,4.62,10.31,10.31v41.25c0,5.68-4.62,10.31-10.31,10.31Zm448-7.75c-5.69,0-10.31-4.63-10.31-10.31v-41.25c0-5.69,4.62-10.31,10.31-10.31s10.31,4.62,10.31,10.31v41.25c0,5.68-4.63,10.31-10.31,10.31Zm-448-74.75c-5.69,0-10.31-4.62-10.31-10.31v-41.25c0-5.69,4.62-10.31,10.31-10.31s10.31,4.62,10.31,10.31v41.25c0,5.69-4.62,10.31-10.31,10.31Zm448-7.75c-5.69,0-10.31-4.63-10.31-10.31v-41.25c0-5.69,4.62-10.31,10.31-10.31s10.31,4.62,10.31,10.31v41.25c0,5.68-4.63,10.31-10.31,10.31Zm-448-74.75c-5.69,0-10.31-4.62-10.31-10.31v-41.25c0-5.69,4.62-10.31,10.31-10.31s10.31,4.62,10.31,10.31v41.25c0,5.69-4.62,10.31-10.31,10.31Zm448-7.75c-5.69,0-10.31-4.63-10.31-10.31v-41.25c0-5.69,4.62-10.31,10.31-10.31s10.31,4.62,10.31,10.31v41.25c0,5.68-4.63,10.31-10.31,10.31Zm-448-74.75c-5.69,0-10.31-4.63-10.31-10.31v-41.25c0-5.69,4.62-10.31,10.31-10.31s10.31,4.62,10.31,10.31v41.25c0,5.68-4.62,10.31-10.31,10.31Zm448-7.75c-5.69,0-10.31-4.63-10.31-10.31v-41.25c0-5.69,4.62-10.31,10.31-10.31s10.31,4.62,10.31,10.31v41.25c0,5.68-4.63,10.31-10.31,10.31Zm-448-74.75c-5.69,0-10.31-4.62-10.31-10.31v-41.25c0-5.68,4.62-10.31,10.31-10.31s10.31,4.63,10.31,10.31v41.25c0,5.69-4.62,10.31-10.31,10.31Zm448-7.75c-5.69,0-10.31-4.63-10.31-10.31v-41.25c0-5.68,4.62-10.31,10.31-10.31s10.31,4.63,10.31,10.31v41.25c0,5.68-4.63,10.31-10.31,10.31Zm-448-74.75c-5.69,0-10.31-4.62-10.31-10.31v-13.63c.03-2.7,1.11-5.25,3.02-7.16,1.91-1.91,4.46-2.99,7.16-3.02h41.38c5.69,0,10.31,4.62,10.31,10.31s-4.62,10.31-10.31,10.31h-30.94v3.19c0,5.69-4.62,10.31-10.31,10.31Zm448-7.75c-3.96,0-7.5-2.2-9.25-5.75h-26.25c-5.69,0-10.31-4.62-10.31-10.31s4.62-10.31,10.31-10.31h35.5c2.71,0,5.37,1.1,7.29,3.02s3.02,4.58,3.02,7.29v5.75c0,5.69-4.62,10.31-10.31,10.31Zm-76.75-5.75h-41.25c-5.69,0-10.31-4.62-10.31-10.31s4.62-10.31,10.31-10.31h41.25c5.68,0,10.31,4.62,10.31,10.31s-4.63,10.31-10.31,10.31Zm-82.5,0h-41.25c-5.69,0-10.31-4.62-10.31-10.31s4.62-10.31,10.31-10.31h41.25c5.69,0,10.31,4.62,10.31,10.31s-4.62,10.31-10.31,10.31Zm-82.5,0h-41.25c-5.69,0-10.31-4.62-10.31-10.31s4.62-10.31,10.31-10.31h41.25c5.68,0,10.31,4.62,10.31,10.31s-4.63,10.31-10.31,10.31Zm-82.5,0h-41.25c-5.69,0-10.31-4.62-10.31-10.31s4.62-10.31,10.31-10.31h41.25c5.68,0,10.31,4.62,10.31,10.31s-4.63,10.31-10.31,10.31Z" fill="#cc5c5c"/>
    </g>
  </g>
</svg>