<?xml version="1.0" encoding="UTF-8"?>
<svg id="Layer_1" data-name="Layer 1" xmlns="http://www.w3.org/2000/svg" xmlns:xlink="http://www.w3.org/1999/xlink" viewBox="0 0 4917 2272">
  <defs>
    <clipPath id="clippath">
      <rect width="4917" height="2272" fill="none"/>
    </clipPath>
  </defs>
  <g clip-path="url(#clippath)">
    <g>
      <rect x="64" y="53" width="1436" height="2036" fill="#bfbfbf"/>
      <rect width="1436" height="2036" fill="#fff"/>
      <path d="m541.16,330.21c56.04-3.6,90.16-3.58,113.1,33.31,22.94,36.9-58.27,166.21,24.55,188.04,82.82,21.83,123.26-45.07,157.6-110.78,34.34-65.7,50.68-144.63,50.74-184.01" fill="none" stroke="#595959" stroke-linecap="round" stroke-linejoin="round" stroke-width="81.17"/>
      <path d="m554.17,566.77c24.48-32.81,53.01-38.39,89-43" fill="none" stroke="#595959" stroke-linecap="round" stroke-linejoin="round" stroke-width="81.17"/>
      <path d="m782.17,835.21c56.04-3.59,90.16-3.58,113.1,33.31,22.94,36.89-58.27,166.21,24.55,188.04,82.82,21.83,123.26-45.07,157.6-110.78,34.34-65.7,50.68-144.63,50.74-184.01" fill="none" stroke="#595959" stroke-linecap="round" stroke-linejoin="round" stroke-width="81.17"/>
      <path d="m794.16,1071.77c24.75-32.81,53.61-38.39,90-43" fill="none" stroke="#595959" stroke-linecap="round" stroke-linejoin="round" stroke-width="81.17"/>
      <path d="m320.5,899.35c1.1,4.2,24.77-7.18,37.8,28.78,13.04,35.97-33.36,166.36,40.4,187.03,73.77,20.67,103.66-59.18,121.44-112.37,17.78-53.2,8.01-123.42,47.86-184.34,39.84-60.93,75.71-55.91,75.5-56.95" fill="none" stroke="#595959" stroke-linecap="round" stroke-linejoin="round" stroke-width="81.17"/>
      <path d="m273.16,1050.77c85.73-59.23,193.49-63.47,330-64" fill="none" stroke="#595959" stroke-linecap="round" stroke-linejoin="round" stroke-width="81.17"/>
      <path d="m718.17,1801.78c-9.08,26.64-26.51,36.35-49,47" fill="none" stroke="#595959" stroke-linecap="round" stroke-linejoin="round" stroke-width="81.17"/>
      <path d="m542.16,1362.7c81.65-149.02,234.34-147.47,314,2.07" fill="none" stroke="#595959" stroke-linecap="round" stroke-linejoin="round" stroke-width="81.17"/>
      <path d="m693.56,1258.77v438.01" fill="none" stroke="#595959" stroke-linecap="round" stroke-linejoin="round" stroke-width="81.17"/>
      <rect x="1714" y="63" width="1436" height="2036" fill="#bfbfbf"/>
      <rect x="1651" y="10" width="1436" height="2036" fill="#fff"/>
      <path d="m2213.72,317.63c46.65-3.01,75.04-2.99,94.14,27.86,19.1,30.84-48.5,138.96,20.44,157.22,68.94,18.25,102.6-37.69,131.18-92.63,28.59-54.93,42.19-120.92,42.24-153.85" fill="none" stroke="#595959" stroke-linecap="round" stroke-linejoin="round" stroke-width="72.19"/>
      <path d="m2223.72,515.23c20.63-27.47,44.67-32.14,75-36" fill="none" stroke="#595959" stroke-linecap="round" stroke-linejoin="round" stroke-width="72.19"/>
      <path d="m2414.72,739.38c46.65-2.99,75.05-2.97,94.14,27.75,19.1,30.72-48.5,138.41,20.44,156.59,68.94,18.18,102.6-37.54,131.18-92.25,28.59-54.72,42.19-120.45,42.24-153.24" fill="none" stroke="#595959" stroke-linecap="round" stroke-linejoin="round" stroke-width="72.19"/>
      <path d="m2424.72,937.23c20.63-27.47,44.67-32.15,75-36" fill="none" stroke="#595959" stroke-linecap="round" stroke-linejoin="round" stroke-width="72.19"/>
      <path d="m2029,793.07c.92,3.51,20.7-6,31.6,24.02,10.89,30.03-27.89,138.86,33.77,156.12s86.65-49.4,101.51-93.8,6.7-103.02,40.01-153.87c33.3-50.86,63.29-46.68,63.11-47.54" fill="none" stroke="#595959" stroke-linecap="round" stroke-linejoin="round" stroke-width="72.19"/>
      <path d="m1989.72,919.23c71.44-49.05,161.24-52.57,275-53" fill="none" stroke="#595959" stroke-linecap="round" stroke-linejoin="round" stroke-width="72.19"/>
      <path d="m2361.71,1546.23c-7.78,22.67-22.72,30.93-42,40" fill="none" stroke="#595959" stroke-linecap="round" stroke-linejoin="round" stroke-width="72.19"/>
      <path d="m2213.72,1179.51c68.12-123.97,195.53-122.68,262,1.72" fill="none" stroke="#595959" stroke-linecap="round" stroke-linejoin="round" stroke-width="72.19"/>
      <path d="m2340.06,1093.23v366" fill="none" stroke="#595959" stroke-linecap="round" stroke-linejoin="round" stroke-width="72.19"/>
      <g isolation="isolate">
        <path d="m1979.73,1874l49.29-111.3c3.43-7.68,9.7-12.32,18.18-12.32h1.82c8.48,0,14.54,4.65,17.98,12.32l49.29,111.3c1.01,2.22,1.62,4.24,1.62,6.26,0,8.28-6.46,14.95-14.75,14.95-7.27,0-12.12-4.24-14.95-10.71l-9.49-22.22h-62.21l-9.9,23.23c-2.63,6.06-7.88,9.7-14.34,9.7-8.08,0-14.34-6.46-14.34-14.54,0-2.22.81-4.44,1.82-6.67Zm87.46-39.19l-19.59-46.66-19.59,46.66h39.19Z" fill="#595959"/>
        <path d="m2142.34,1767.35c0-8.69,6.87-15.55,15.55-15.55h3.43c6.67,0,11.31,3.43,14.14,8.08l37.57,61.2,37.77-61.41c3.23-5.25,7.68-7.88,13.94-7.88h3.43c8.69,0,15.55,6.87,15.55,15.55v112.31c0,8.69-6.87,15.55-15.55,15.55s-15.35-7.07-15.35-15.55v-70.5l-27.27,42.01c-3.23,4.85-7.27,7.88-12.93,7.88s-9.7-3.03-12.93-7.88l-26.87-41.41v70.29c0,8.48-6.87,15.15-15.35,15.15s-15.15-6.67-15.15-15.15v-112.71Z" fill="#595959"/>
        <path d="m2309.8,1874l49.29-111.3c3.43-7.68,9.7-12.32,18.18-12.32h1.82c8.48,0,14.54,4.65,17.98,12.32l49.29,111.3c1.01,2.22,1.62,4.24,1.62,6.26,0,8.28-6.46,14.95-14.75,14.95-7.27,0-12.12-4.24-14.95-10.71l-9.49-22.22h-62.21l-9.9,23.23c-2.63,6.06-7.88,9.7-14.34,9.7-8.08,0-14.34-6.46-14.34-14.54,0-2.22.81-4.44,1.82-6.67Zm87.46-39.19l-19.59-46.66-19.59,46.66h39.19Z" fill="#595959"/>
        <path d="m2472.4,1767.35c0-8.69,6.87-15.55,15.55-15.55h3.23c7.47,0,11.92,3.64,16.16,9.09l59.99,78.78v-72.92c0-8.48,6.87-15.35,15.35-15.35s15.35,6.87,15.35,15.35v112.51c0,8.69-6.87,15.55-15.55,15.55h-1.01c-7.47,0-11.92-3.64-16.16-9.09l-62.21-81.61v75.75c0,8.48-6.87,15.35-15.35,15.35s-15.35-6.87-15.35-15.35v-112.51Z" fill="#595959"/>
        <path d="m2629.76,1833.4v-66.46c0-8.69,6.87-15.55,15.55-15.55s15.55,6.87,15.55,15.55v65.65c0,23.03,11.51,34.94,30.5,34.94s30.5-11.51,30.5-33.93v-66.66c0-8.69,6.87-15.55,15.55-15.55s15.55,6.87,15.55,15.55v65.45c0,42.82-24.04,63.83-62.01,63.83s-61.21-21.21-61.21-62.82Z" fill="#595959"/>
      </g>
      <rect x="3365" y="63" width="1436" height="2036" fill="#bfbfbf"/>
      <rect x="3301" y="10" width="1436" height="2036" fill="#fff"/>
      <path d="m3863.72,317.63c46.81-3.01,75.3-2.99,94.47,27.86,19.16,30.84-48.67,138.96,20.51,157.22,69.17,18.25,102.95-37.69,131.63-92.63,28.69-54.93,42.34-120.92,42.39-153.85" fill="none" stroke="#595959" stroke-linecap="round" stroke-linejoin="round" stroke-width="72.19"/>
      <path d="m3873.72,515.23c20.63-27.47,44.67-32.14,75-36" fill="none" stroke="#595959" stroke-linecap="round" stroke-linejoin="round" stroke-width="72.19"/>
      <path d="m4064.72,739.38c46.81-2.99,75.31-2.97,94.47,27.75,19.16,30.72-48.67,138.41,20.5,156.59,69.18,18.18,102.96-37.54,131.64-92.25,28.69-54.72,42.34-120.45,42.39-153.24" fill="none" stroke="#595959" stroke-linecap="round" stroke-linejoin="round" stroke-width="72.19"/>
      <path d="m4074.72,937.23c20.63-27.47,44.67-32.15,75-36" fill="none" stroke="#595959" stroke-linecap="round" stroke-linejoin="round" stroke-width="72.19"/>
      <path d="m3679,793.07c.92,3.51,20.7-6,31.6,24.02,10.89,30.03-27.89,138.86,33.77,156.12,61.66,17.26,86.65-49.4,101.51-93.8,14.86-44.4,6.7-103.02,40.01-153.87,33.3-50.86,63.29-46.68,63.11-47.54" fill="none" stroke="#595959" stroke-linecap="round" stroke-linejoin="round" stroke-width="72.19"/>
      <path d="m3639.72,919.23c71.44-49.05,161.24-52.57,275-53" fill="none" stroke="#595959" stroke-linecap="round" stroke-linejoin="round" stroke-width="72.19"/>
      <path d="m4011.72,1546.23c-7.6,22.67-22.18,30.93-41,40" fill="none" stroke="#595959" stroke-linecap="round" stroke-linejoin="round" stroke-width="72.19"/>
      <path d="m3864.72,1179.51c68.12-123.97,195.53-122.68,262,1.72" fill="none" stroke="#595959" stroke-linecap="round" stroke-linejoin="round" stroke-width="72.19"/>
      <path d="m3991.06,1093.23v366" fill="none" stroke="#595959" stroke-linecap="round" stroke-linejoin="round" stroke-width="72.19"/>
      <path d="m4566.25,1627.06l-684.56,284.35-40.79-98.21,684.55-284.35,40.8,98.21Z" fill="#ffd966" fill-rule="evenodd"/>
      <path d="m3881.69,1911.41l-182.35,18.17,141.56-116.38,40.79,98.21Z" fill="#fbe5d6" fill-rule="evenodd"/>
      <path d="m4685.58,1511.89l5.68,13.69c9.7,23.34-1.36,50.12-24.7,59.82l-42.27,17.55-40.79-98.21,42.26-17.55c23.34-9.7,50.12,1.37,59.82,24.71Z" fill="#ff7d7d" fill-rule="evenodd"/>
      <path d="m4541.08,1637.51l-149.5,62.1-40.79-98.21,149.5-62.1,40.79,98.21Z" fill="#ffd966" fill-rule="evenodd"/>
      <path d="m4624.29,1602.95l-149.5,62.1-40.79-98.21,149.5-62.1,40.79,98.21Z" fill="#595959" fill-rule="evenodd"/>
      <path d="m4580.28,1621.23l-68.07,28.27-40.79-98.21,68.07-28.27,40.79,98.21Z" fill="#ffc000" fill-rule="evenodd"/>
      <path d="m3743.7,1924.05l-43.07,4.99,33.93-27,9.14,22.01Z" fill="#595959" fill-rule="evenodd"/>
      <path d="m4331,1979c0-161.82,131.18-293,293-293s293,131.18,293,293-131.18,293-293,293-293-131.18-293-293Z" fill="#cc5c5c" fill-rule="evenodd"/>
      <path d="m4513.52,1874.41c15.27-15.27,40.03-15.27,55.3,0l159.75,159.75c15.27,15.27,15.27,40.03,0,55.3h0c-15.27,15.27-40.03,15.27-55.3,0l-159.75-159.75c-15.27-15.27-15.27-40.03,0-55.3Z" fill="#fff" fill-rule="evenodd"/>
      <path d="m4731.46,1870.8c15.27,15.27,15.27,40.03,0,55.3l-159.75,159.75c-15.27,15.27-40.03,15.27-55.3,0h0c-15.27-15.27-15.27-40.03,0-55.29l159.76-159.75c15.26-15.27,40.02-15.27,55.29,0Z" fill="#fff" fill-rule="evenodd"/>
      <path d="m1034,1979c0-161.82,131.18-293,293-293s293,131.18,293,293-131.18,293-293,293-293-131.18-293-293Z" fill="#70ad47" fill-rule="evenodd"/>
      <path d="m1198.38,1971.94c14.41-14.41,37.76-14.41,52.17,0l64.25,64.25c14.41,14.41,14.41,37.76,0,52.17h0c-14.41,14.41-37.76,14.41-52.17,0l-64.25-64.25c-14.41-14.41-14.41-37.76,0-52.17Z" fill="#fff" fill-rule="evenodd"/>
      <path d="m1471.59,1879.41c14.4,14.41,14.4,37.76,0,52.17l-156.86,156.85c-14.41,14.41-37.76,14.41-52.17,0h0c-14.41-14.41-14.41-37.76,0-52.17l156.86-156.85c14.4-14.41,37.76-14.41,52.17,0Z" fill="#fff" fill-rule="evenodd"/>
      <path d="m2683,1979c0-161.82,131.18-293,293-293s293,131.18,293,293-131.18,293-293,293-293-131.18-293-293Z" fill="#cc5c5c" fill-rule="evenodd"/>
      <path d="m2864.5,1874.05c15.27-15.27,40.02-15.27,55.29,0l159.75,159.75c15.27,15.27,15.27,40.03,0,55.3h0c-15.27,15.27-40.02,15.27-55.29,0l-159.75-159.75c-15.27-15.27-15.27-40.03,0-55.29Z" fill="#fff" fill-rule="evenodd"/>
      <path d="m3082.43,1870.44c15.27,15.27,15.27,40.03,0,55.29l-159.75,159.75c-15.27,15.27-40.02,15.27-55.29,0h0c-15.27-15.27-15.27-40.03,0-55.3l159.75-159.75c15.27-15.27,40.02-15.27,55.29,0Z" fill="#fff" fill-rule="evenodd"/>
    </g>
  </g>
</svg>