<?xml version="1.0" encoding="UTF-8"?>
<svg id="Layer_1" data-name="Layer 1" xmlns="http://www.w3.org/2000/svg" xmlns:xlink="http://www.w3.org/1999/xlink" viewBox="0 0 4917 2272">
  <defs>
    <clipPath id="clippath">
      <rect width="4917" height="2272" fill="none"/>
    </clipPath>
  </defs>
  <g clip-path="url(#clippath)">
    <g>
      <rect x="64" y="53" width="1436" height="2036" fill="#bfbfbf"/>
      <rect width="1436" height="2036" fill="#fff"/>
      <rect x="1714" y="63" width="1436" height="2036" fill="#bfbfbf"/>
      <rect x="1651" y="10" width="1436" height="2036" fill="#d6dce5"/>
      <rect x="3365" y="63" width="1436" height="2036" fill="#bfbfbf"/>
      <rect x="3301" y="10" width="1436" height="2036" fill="#8497b0"/>
      <path d="m4331,1979c0-161.82,131.18-293,293-293s293,131.18,293,293-131.18,293-293,293-293-131.18-293-293Z" fill="#cc5c5c" fill-rule="evenodd"/>
      <path d="m4513.52,1874.41c15.27-15.27,40.03-15.27,55.3,0l159.75,159.75c15.27,15.27,15.27,40.03,0,55.3h0c-15.27,15.27-40.03,15.27-55.3,0l-159.75-159.75c-15.27-15.27-15.27-40.03,0-55.3Z" fill="#fff" fill-rule="evenodd"/>
      <path d="m4731.46,1870.8c15.27,15.27,15.27,40.03,0,55.3l-159.75,159.75c-15.27,15.27-40.03,15.27-55.3,0h0c-15.27-15.27-15.27-40.03,0-55.29l159.76-159.75c15.26-15.27,40.02-15.27,55.29,0Z" fill="#fff" fill-rule="evenodd"/>
      <path d="m1034,1979c0-161.82,131.18-293,293-293s293,131.18,293,293-131.18,293-293,293-293-131.18-293-293Z" fill="#70ad47" fill-rule="evenodd"/>
      <path d="m1198.38,1971.94c14.41-14.41,37.76-14.41,52.17,0l64.25,64.25c14.41,14.41,14.41,37.76,0,52.17h0c-14.41,14.41-37.76,14.41-52.17,0l-64.25-64.25c-14.41-14.41-14.41-37.76,0-52.17Z" fill="#fff" fill-rule="evenodd"/>
      <path d="m1471.59,1879.41c14.4,14.41,14.4,37.76,0,52.17l-156.86,156.85c-14.41,14.41-37.76,14.41-52.17,0h0c-14.41-14.41-14.41-37.76,0-52.17l156.86-156.85c14.4-14.41,37.76-14.41,52.17,0Z" fill="#fff" fill-rule="evenodd"/>
      <path d="m347.24,765.88c127.79-8.19,205.59-8.15,257.91,75.88,52.32,84.02-132.87,378.55,55.99,428.27,188.86,49.72,281.07-102.66,359.39-252.31,78.31-149.65,115.58-329.4,115.72-419.1" fill="none" stroke="#595959" stroke-linecap="round" stroke-linejoin="round" stroke-width="171.88"/>
      <path d="m376.24,1305.63c56.11-74.78,121.51-87.51,204-98.01" fill="none" stroke="#595959" stroke-linecap="round" stroke-linejoin="round" stroke-width="171.88"/>
      <path d="m2684,1979c0-161.82,131.18-293,293-293s293,131.18,293,293-131.18,293-293,293-293-131.18-293-293Z" fill="#70ad47" fill-rule="evenodd"/>
      <path d="m2848.36,1971.94c14.4-14.41,37.76-14.41,52.17,0l64.25,64.25c14.41,14.41,14.41,37.76,0,52.17h0c-14.41,14.41-37.76,14.41-52.17,0l-64.25-64.25c-14.41-14.41-14.41-37.76,0-52.17Z" fill="#fff" fill-rule="evenodd"/>
      <path d="m3121.56,1879.41c14.41,14.41,14.41,37.76,0,52.17l-156.85,156.85c-14.41,14.41-37.77,14.41-52.17,0h0c-14.41-14.41-14.41-37.76,0-52.17l156.85-156.85c14.41-14.41,37.77-14.41,52.17,0Z" fill="#fff" fill-rule="evenodd"/>
      <path d="m1974.24,765.88c127.63-8.19,205.32-8.15,257.58,75.88,52.25,84.02-132.7,378.55,55.91,428.27,188.62,49.72,280.72-102.66,358.94-252.31,78.2-149.65,115.43-329.4,115.57-419.1" fill="none" stroke="#595959" stroke-linecap="round" stroke-linejoin="round" stroke-width="171.88"/>
      <path d="m2002.24,1305.63c56.1-74.78,121.5-87.51,204-98.01" fill="none" stroke="#595959" stroke-linecap="round" stroke-linejoin="round" stroke-width="171.88"/>
      <path d="m3624.24,765.88c127.63-8.19,205.32-8.15,257.58,75.88,52.25,84.02-132.7,378.55,55.91,428.27,188.62,49.72,280.72-102.66,358.94-252.31,78.2-149.65,115.43-329.4,115.57-419.1" fill="none" stroke="#767171" stroke-linecap="round" stroke-linejoin="round" stroke-width="171.88"/>
      <path d="m3653.24,1305.63c56.1-74.78,121.5-87.51,204-98.01" fill="none" stroke="#767171" stroke-linecap="round" stroke-linejoin="round" stroke-width="171.88"/>
    </g>
  </g>
</svg>