<?xml version="1.0" encoding="UTF-8"?>
<svg id="Layer_1" data-name="Layer 1" xmlns="http://www.w3.org/2000/svg" viewBox="0 0 427.53 449.96">
  <g id="freepik--background-complete--inject-7">
    <rect x="25.66" y="13.61" width="223.32" height="305.78" rx="7.2" ry="7.2" fill="#f5f5f5"/>
    <path d="m411.38,31.83l.41,2.12-4.2,22.75h0c-3,2.21-6.78,3.08-10.45,2.41l-23.8-4.4s-3.79-.85-2.73-5.76c0,0,.18-2.59,2.4-2.76,0,0-4.61-1.88-4.1-5.43s3.13-3.51,3.13-3.51c0,0-4.32-1.09-3.87-5.09s2.78-4,2.78-4c0,0-5-1.22-3.77-5.65.59-2.45,3.06-3.96,5.52-3.37.02,0,.04.01.06.02l16.93,3.13,14.84,2.74c3.46.66,6.17,3.35,6.85,6.8Z" fill="#ebebeb"/>
    <path d="m407.14,26.01s-5.21-4.72-7-9.85c-.83-2.56-1.25-5.23-1.24-7.92,0-.2.34-2,.59-3.46.2-1.2-.58-2.34-1.77-2.6-3.72-.54-7.25,1.79-8.23,5.41-2,6.82-.29,11.47-.23,13.54l.05,2.08,17.83,2.8Z" fill="#ebebeb"/>
    <rect x="398.17" y="36.32" width="34.35" height="16.9" transform="translate(295.85 445.06) rotate(-79.53)" fill="#ebebeb"/>
    <path d="m403.92,60.1s1.33-7.57,3.05-16.89,3.17-16.89,3.17-16.88-1.33,7.57-3.06,16.9-3.13,16.88-3.16,16.87Z" fill="#e0e0e0"/>
    <path d="m420.54,63.18s1.33-7.58,3.06-16.9,3.15-16.88,3.18-16.88-1.33,7.58-3.05,16.9-3.15,16.88-3.19,16.88Z" fill="#e0e0e0"/>
    <path d="m414.6,35.15c-.3,1.72.84,3.36,2.56,3.66,1.72.3,3.36-.84,3.66-2.56.3-1.71-.83-3.34-2.54-3.66-1.72-.31-3.36.82-3.68,2.54,0,0,0,.01,0,.02Z" fill="#fff"/>
    <path d="m385.75,21.59s1.83.27,4.06.68,4.05.78,4,.81-1.83-.27-4.06-.68-4-.81-4-.81Z" fill="#e0e0e0"/>
    <path d="m371.63,37.35s1.17.15,2.6.41c.87.14,1.73.32,2.58.55,0,0-1.17-.15-2.6-.42-.87-.13-1.73-.31-2.58-.54Z" fill="#e0e0e0"/>
    <path d="m370.6,28.01s1.65.24,3.68.61,3.67.71,3.66.75-1.65-.24-3.68-.62-3.67-.7-3.66-.74Z" fill="#e0e0e0"/>
    <path d="m371.93,46.04s1.65.24,3.68.61,3.67.71,3.66.74-1.65-.23-3.68-.61-3.67-.71-3.66-.74Z" fill="#e0e0e0"/>
    <path d="m413.9,28.01s2.34.37,5.2.9,5.18,1,5.18,1c0,0-2.34-.36-5.2-.89s-5.18-.97-5.18-1.01Z" fill="#fff"/>
    <path d="m369.72,33.87c-.04-.06-.06-.12-.08-.19-.05-.18-.09-.36-.11-.55-.03-.28-.03-.55,0-.83.04-.34.11-.68.22-1,.12-.32.27-.63.45-.92.15-.23.32-.45.52-.64.13-.13.27-.26.43-.36l.17-.11s-.22.19-.53.53c-.18.2-.35.42-.49.65-.17.28-.31.58-.42.89-.11.32-.19.66-.23,1-.02.27-.02.54,0,.81,0,.44.09.71.07.72Z" fill="#fff"/>
    <path d="m368.84,24.86c-.14-.11-.26-.26-.33-.43-.21-.39-.32-.83-.31-1.27.01-.44.13-.87.35-1.26.08-.16.2-.3.35-.41,0,0-.12.17-.26.46-.38.76-.4,1.66-.05,2.44.09.15.17.31.25.47Z" fill="#fff"/>
    <path d="m370.96,43.59c-.19-.1-.35-.24-.47-.42-.31-.41-.48-.91-.47-1.42.01-.51.19-1,.51-1.4.25-.3.47-.42.48-.4-.14.14-.28.29-.4.45-.59.81-.59,1.91,0,2.72.17.28.36.47.35.47Z" fill="#fff"/>
    <path d="m372.86,52.2c-.14-.12-.25-.28-.32-.45-.4-.83-.4-1.79,0-2.62.08-.17.18-.32.32-.45,0,0-.11.19-.24.49-.34.81-.34,1.73,0,2.54.13.31.26.48.24.49Z" fill="#fff"/>
    <path d="m389.67,15.53c-.05-.12-.09-.24-.11-.37-.05-.15-.08-.3-.11-.45,0-.18-.08-.38-.11-.61-.08-.52-.12-1.05-.13-1.58,0-.67.03-1.34.12-2,.1-.64.25-1.28.44-1.9.16-.51.35-1.01.58-1.49.09-.2.19-.38.27-.54l.23-.4c.07-.11.14-.23.22-.33-.04.12-.1.24-.17.35l-.21.41c-.08.16-.17.34-.26.55-.18.41-.37.92-.55,1.48-.18.62-.32,1.25-.42,1.89-.09.64-.13,1.28-.13,1.93,0,.52.04,1.05.1,1.57,0,.23.06.43.09.6s.06.33.09.45c.04.14.06.29.06.44Z" fill="#fff"/>
    <path d="m385.64,239.88l1.13,1.29,6.12,17.27h0c-1.19,2.71-3.45,4.8-6.24,5.79l-18.06,6.36s-2.93.92-4.15-2.86c0,0-.9-1.85.56-2.85,0,0-3.91.54-5-2.1s.76-3.64.76-3.64c0,0-3.4,1-4.67-2s.32-3.85.32-3.85c0,0-3.93,1.15-4.82-2.38-.57-1.92.53-3.93,2.45-4.5.02,0,.03,0,.05-.01l12.84-4.55,11.26-4c2.66-.94,5.63-.13,7.45,2.03Z" fill="#ebebeb"/>
    <path d="m380.47,237.59s-5.44-1.17-8.73-4c-1.59-1.42-2.94-3.09-4-4.94l-1-2.61c-.33-.9-1.32-1.39-2.24-1.09-2.76,1.12-4.26,4.12-3.49,7,1.35,5.46,4.34,8,5.2,9.38l.86,1.4,13.4-5.14Z" fill="#ebebeb"/>
    <rect x="386.79" y="233.61" width="13.38" height="27.19" transform="translate(-59.98 145.68) rotate(-19.52)" fill="#ebebeb"/>
    <path d="m391.72,262.22s-2.08-5.72-4.59-12.8-4.52-12.83-4.49-12.83,2.08,5.72,4.59,12.8,4.52,12.82,4.49,12.83Z" fill="#e0e0e0"/>
    <path d="m404.33,257.75s-2.08-5.72-4.59-12.8-4.52-12.82-4.49-12.83,2.08,5.72,4.59,12.8,4.52,12.82,4.49,12.83Z" fill="#e0e0e0"/>
    <path d="m389.14,240.88c.47,1.3,1.9,1.98,3.2,1.51,1.3-.47,1.98-1.9,1.51-3.2-.46-1.3-1.89-1.97-3.19-1.51-1.3.47-1.98,1.9-1.52,3.2Z" fill="#fff"/>
    <path d="m364.01,242.98s1.36-.54,3.06-1.14,3.08-1.07,3.09-1-1.36.54-3.06,1.14-3.08,1.02-3.09,1Z" fill="#e0e0e0"/>
    <path d="m360.58,259.39s.86-.36,1.95-.74c.65-.25,1.32-.47,2-.65-.64.28-1.29.53-1.95.75-.65.25-1.32.46-2,.64Z" fill="#e0e0e0"/>
    <path d="m356.14,253.4s1.23-.49,2.77-1,2.79-1,2.8-.94-1.23.49-2.77,1-2.75.97-2.8.94Z" fill="#e0e0e0"/>
    <path d="m364.22,265.23s1.23-.49,2.77-1,2.79-1,2.8-.93-1.23.49-2.77,1-2.79.96-2.8.93Z" fill="#e0e0e0"/>
    <path d="m385.87,236.27s1.74-.68,3.92-1.45,3.94-1.37,4-1.34-1.74.67-3.92,1.44-3.99,1.37-4,1.35Z" fill="#fff"/>
    <path d="m357.89,257.76l-.13-.1c-.11-.1-.2-.21-.29-.33-.13-.18-.24-.37-.33-.57-.11-.25-.2-.5-.25-.77-.05-.26-.07-.53-.06-.8.02-.22.05-.44.11-.65.04-.14.09-.29.15-.42,0-.09.07-.14.08-.14s-.08.22-.16.57c-.05.21-.07.42-.08.64,0,.26.02.52.06.78.05.26.13.51.23.75.09.2.19.39.31.57.21.3.37.46.36.47Z" fill="#fff"/>
    <path d="m353.72,251.93c-.14-.02-.27-.08-.39-.16-.3-.19-.54-.44-.71-.75-.17-.3-.26-.65-.26-1-.01-.14.01-.29.07-.42v.42c.03.33.12.66.28.95.16.29.39.54.66.74.21.15.36.21.35.22Z" fill="#fff"/>
    <path d="m362.58,263.92c-.17,0-.34-.03-.49-.11-.37-.15-.69-.43-.89-.78-.19-.36-.26-.77-.2-1.17.02-.17.08-.32.17-.46,0,0-.06.18-.09.47-.05.38.03.77.22,1.11.19.33.48.6.82.77.27.12.46.15.46.17Z" fill="#fff"/>
    <path d="m367.3,269.09c-.14-.03-.28-.09-.4-.18-.3-.2-.55-.47-.73-.78-.18-.3-.29-.65-.31-1-.03-.14-.03-.3,0-.44v.43c.04.35.15.69.33,1,.18.3.41.56.68.77.15.06.29.12.43.2Z" fill="#fff"/>
    <path d="m364.32,237.3l-.23-.22c-.09-.08-.17-.17-.25-.26-.1-.11-.21-.23-.32-.37-.26-.32-.5-.65-.71-1-.26-.44-.49-.9-.69-1.38-.19-.48-.34-.98-.45-1.48-.1-.41-.16-.83-.19-1.25v-.84c0-.1,0-.21,0-.31.01.1.01.21,0,.31v.84c0,.35.11.77.21,1.23.33,1.4.95,2.72,1.82,3.87.11.15.21.27.3.38l.24.28c.1.06.19.12.27.2Z" fill="#fff"/>
    <rect x="167.51" y="362.83" width="75.31" height="75.31" rx="13.31" ry="13.31" fill="#e0e0e0"/>
    <rect x="153.98" y="362.83" width="75.31" height="75.31" rx="13.31" ry="13.31" fill="#ebebeb"/>
    <polygon points="165.64 401.57 173.22 393.98 187.85 406.99 212.29 382.46 219.33 390.04 186.77 421.62 165.64 401.57" fill="#fff"/>
    <rect x="10.49" y="378.99" width="58.43" height="58.43" rx="13.31" ry="13.31" fill="#e0e0e0"/>
    <rect y="378.99" width="58.43" height="58.43" rx="13.31" ry="13.31" fill="#ebebeb"/>
    <polygon points="9.04 409.05 14.93 403.16 26.28 413.25 45.23 394.22 50.7 400.11 25.44 424.6 9.04 409.05" fill="#fff"/>
  </g>
  <g id="freepik--Flor--inject-7">
    <path d="m413.05,435.7c0,.14-90,.26-200.9.26s-200.92-.12-200.92-.26,89.94-.26,200.92-.26,200.9.15,200.9.26Z" fill="#263238"/>
  </g>
  <g id="freepik--Plant--inject-7">
    <path d="m372.78,407.05s-4.17-28.65-3.82-45.33,0-35.43,0-35.43h1.92s-1.3,33.1.12,53.06,5.14,27.7,5.14,27.7h-3.34" fill="#263238"/>
    <path d="m385.2,294.05c-.3-1.02-.91-1.91-1.75-2.56-1.22-.77-2.82-.45-4.18,0-5.8,2.05-10.95,12.87-13.29,18.56l7.7,26c13.91-12.91,16.32-29.83,11.52-42Z" fill="#455a64"/>
    <path d="m383,292.59c-.03.12-.06.23-.11.34l-.38.94c-.34.82-.81,2-1.38,3.48-1.13,3-2.58,7.07-3.87,11.72s-2.17,8.92-2.72,12c-.28,1.56-.48,2.82-.61,3.69-.07.41-.12.74-.17,1-.01.12-.04.24-.08.35-.01-.12-.01-.24,0-.36,0-.27.06-.6.1-1,.1-.88.27-2.15.52-3.72.65-4.07,1.53-8.11,2.63-12.08,1.12-3.97,2.45-7.88,4-11.71.6-1.47,1.1-2.64,1.48-3.44.17-.38.31-.68.43-.93.04-.1.1-.19.16-.28Z" fill="#263238"/>
    <path d="m370.26,342.27c-7.13-4.06-11.63-11.54-11.88-19.74-.27-5.76,1.5-11.41,3.5-16.82.12-.49.41-.92.82-1.22.67-.25,1.43-.14,2,.3,5.24,3,8.42,8.69,10.12,14.49,1.21,3.84,1.61,7.89,1.18,11.9-.66,4.21-2.66,8.1-5.71,11.09" fill="#455a64"/>
    <path d="m370.26,342.27c-.01-.12-.01-.23,0-.35v-1c0-.86,0-2.11-.11-3.66-.2-4.02-.65-8.03-1.34-12-.8-4.65-1.77-8.81-2.49-11.82l-.85-3.57c-.09-.39-.17-.71-.22-1-.05-.09-.08-.18-.11-.28.05.11.09.22.12.33.07.25.16.57.28.95.24.84.56,2,1,3.54.77,3,1.78,7.16,2.59,11.83.69,3.97,1.11,7.98,1.25,12v3.66l-.05,1c0,.13-.03.25-.07.37Z" fill="#263238"/>
    <g opacity=".3">
      <path d="m370.26,342.27c-7.13-4.06-11.63-11.54-11.88-19.74-.27-5.76,1.5-11.41,3.5-16.82.12-.49.41-.92.82-1.22.67-.25,1.43-.14,2,.3,5.24,3,8.42,8.69,10.12,14.49,1.21,3.84,1.61,7.89,1.18,11.9-.66,4.21-2.66,8.1-5.71,11.09"/>
    </g>
    <path d="m378.41,386.11c7.1,1.57,13,6.58,19.81,9,4.54,1.61,9.67,2.18,13.29,5.35-.87-2.19-2.93-3.65-4.93-4.9-5.66-3.53-11.69-6.41-18-8.58-3.23-1.11-6.73-2-10-1.13" fill="#455a64"/>
    <path d="m368.14,392.45c-8.9-.15-18.27-7.73-27.13-8.18,9.27-3,22.54-.55,27.13,8.18" fill="#455a64"/>
    <path d="m371.61,371.09c4.59-1.52,9.48-1.86,14.23-1,4.73.87,9.37,2.13,13.89,3.77-.46-3.09-3-5.41-5.31-7.46-1.71-1.61-3.58-3.04-5.57-4.29-2-1.26-4.33-1.91-6.69-1.89-2.87.19-5.53,1.53-7.39,3.72-1.8,1.96-2.91,4.46-3.16,7.11" fill="#455a64"/>
    <path d="m353.34,361.27c-5.6-4.79-14.09-4.32-21.46-4.15,11.83,5.64,22.99,12.59,33.26,20.73.32-5.21-4.72-10.54-11.8-16.58Z" fill="#455a64"/>
    <g opacity=".3">
      <path d="m353.34,361.27c-5.6-4.79-14.09-4.32-21.46-4.15,11.83,5.64,22.99,12.59,33.26,20.73.32-5.21-4.72-10.54-11.8-16.58Z"/>
    </g>
    <path d="m374.14,354.66c2.74-1.89,5.62-3.57,8.62-5,2.94-1.34,5.7-3.47,8.54-5,3.7-2,6.9-4.78,10.29-7.26s7.11-4.72,11.26-5.38c-3.42-.61-6.93-.4-10.25.6-3.31,1-6.54,2.25-9.65,3.75-4.37,2-8.81,4-12.39,7.18s-6.8,6.35-6.42,11.13" fill="#455a64"/>
    <path d="m398.06,392.45l-.28-.12-.78-.41c-.67-.35-1.63-.88-2.84-1.49-.6-.32-1.27-.65-2-1s-1.49-.7-2.31-1.06c-1.77-.79-3.6-1.43-5.48-1.91-1.86-.51-3.82-.56-5.71-.14-.82.18-1.63.42-2.42.72-1.67.67-3.17,1.69-4.41,3-.51.55-.76.89-.79.87.05-.09.1-.18.16-.26.17-.24.35-.47.54-.69.7-.82,1.52-1.54,2.43-2.13.63-.42,1.3-.77,2-1.06.8-.32,1.61-.58,2.45-.77,1.93-.45,3.94-.41,5.85.12,1.9.49,3.75,1.14,5.53,1.95.82.37,1.6.73,2.31,1.1s1.38.69,2,1c1.2.64,2.15,1.19,2.8,1.59l.75.45c.12.17.21.23.2.24Z" fill="#263238"/>
    <path d="m361.49,388.04c.19.02.38.08.56.16.5.18.98.39,1.45.63,3.13,1.59,5.72,4.08,7.44,7.14.26.46.49.94.68,1.43.09.17.15.36.19.55-.05,0-.38-.73-1.07-1.86-.9-1.46-1.97-2.81-3.21-4-1.24-1.17-2.64-2.18-4.14-3-1.15-.7-1.92-1-1.9-1.05Z" fill="#263238"/>
    <path d="m341.8,360.82l.38.11,1.06.38,1.69.62c.66.25,1.37.61,2.17,1,4.18,1.94,8.07,4.42,11.59,7.39,1.93,1.63,3.75,3.39,5.45,5.27,1.36,1.55,2.64,3.17,3.83,4.86,1,1.44,1.79,2.64,2.32,3.46l.61,1c.07.11.14.22.19.34-.09-.09-.18-.19-.25-.3-.15-.21-.38-.52-.66-.93-.56-.81-1.35-2-2.39-3.4s-2.34-3.06-3.87-4.8c-1.68-1.87-3.48-3.63-5.39-5.27-3.5-2.95-7.36-5.44-11.48-7.43-.8-.36-1.5-.74-2.15-1l-1.66-.67-1.1-.46c-.12-.04-.23-.1-.34-.17Z" fill="#263238"/>
    <path d="m384.96,366.09c-.24,0-.48-.03-.71-.09l-.81-.15c-.32-.06-.69-.07-1.1-.11-2.11-.18-4.23.24-6.11,1.21-1.03.54-1.98,1.24-2.79,2.07-.68.67-1.28,1.41-1.79,2.21-.46.75-.87,1.53-1.22,2.33.03-.24.09-.47.18-.69.23-.61.51-1.2.85-1.76.49-.84,1.09-1.61,1.77-2.3.83-.86,1.79-1.59,2.85-2.14,1.93-1.01,4.12-1.41,6.28-1.15.41.06.79.07,1.11.15l.81.21c.23.04.46.11.68.21Z" fill="#263238"/>
    <path d="m393.91,338.34c-.1.08-.22.15-.34.2l-1,.54c-.86.47-2.11,1.16-3.62,2.05s-3.27,2-5.15,3.35c-2.06,1.44-3.98,3.05-5.76,4.82-.91.91-1.71,1.93-2.35,3.05-.59,1.12-1.14,2.2-1.66,3.24-.92,1.83-1.74,3.71-2.47,5.63-.48,1.31-.88,2.64-1.2,4-.23.95-.31,1.49-.34,1.48s0-.13,0-.39.09-.64.19-1.12c.27-1.36.64-2.7,1.11-4,.7-1.94,1.5-3.84,2.42-5.68.51-1.05,1.06-2.14,1.64-3.26.66-1.15,1.46-2.2,2.4-3.13,1.79-1.78,3.74-3.4,5.82-4.84,1.9-1.34,3.69-2.43,5.21-3.31s2.79-1.52,3.67-2l1-.48c.14-.07.28-.12.43-.15Z" fill="#263238"/>
    <path d="m368.95,365.29c-.08-.24-.14-.5-.18-.75-.1-.55-.23-1.24-.39-2.06-.42-2.26-.98-4.49-1.68-6.68-.72-2.18-1.57-4.32-2.54-6.4l-.87-1.91c-.12-.23-.21-.46-.28-.71.16.2.29.42.39.66.24.43.57,1.07,1,1.86,2.1,4.13,3.53,8.56,4.25,13.14.14.88.24,1.59.29,2.08.03.26.03.51,0,.77Z" fill="#263238"/>
    <path d="m368.31,345.04c-.28-3.37-1.27-6.64-2.9-9.61-4.45-8.25-12.32-14.1-21.5-16l19.91,29.67,2.57,5.3c1.62-2.83,2.3-6.11,1.92-9.36Z" fill="#455a64"/>
    <rect x="350.57" y="403.51" width="46.29" height="8.2" fill="#ff7200"/>
    <polygon points="354.03 410.09 357.97 435.54 388.7 435.54 393.4 410.09 354.03 410.09" fill="#ff7200"/>
    <path d="m396.84,411.72c0,.09-10.45.17-23.32.17s-23.32-.08-23.32-.17,10.44-.16,23.32-.16,23.32.03,23.32.16Z" fill="#263238"/>
  </g>
  <g id="freepik--Boxes--inject-7">
    <rect x="54.91" y="368.01" width="67.68" height="67.68" rx="13.31" ry="13.31" fill="#ff7200"/>
    <g opacity=".3">
      <rect x="54.91" y="368.01" width="67.68" height="67.68" rx="13.31" ry="13.31"/>
    </g>
    <rect x="42.76" y="368.01" width="67.68" height="67.68" rx="13.31" ry="13.31" fill="#ff7200"/>
    <polygon points="53.23 402.83 60.05 396.01 73.2 407.7 95.15 385.66 101.48 392.47 72.22 420.85 53.23 402.83" fill="#fff"/>
    <rect x="109.76" y="392.4" width="43.29" height="43.29" rx="8.23" ry="8.23" fill="#263238"/>
    <rect x="101.99" y="392.4" width="43.29" height="43.29" rx="8.23" ry="8.23" fill="#455a64"/>
    <polygon points="108.69 414.67 113.05 410.31 121.46 417.79 135.51 403.69 139.56 408.05 120.84 426.2 108.69 414.67" fill="#fff"/>
  </g>
  <g id="freepik--List--inject-7">
    <rect x="35.71" y=".25" width="223.32" height="305.78" rx="7.2" ry="7.2" fill="#fff"/>
    <path d="m251.83,306.03c.9-.02,1.79-.2,2.63-.53,1.03-.41,1.95-1.07,2.68-1.91,1.02-1.14,1.65-2.58,1.8-4.11.05-7,0-17.24,0-30.47,0-26.46-.05-64.75-.08-112.06V8.19c.14-1.9-.48-3.77-1.72-5.21-1.22-1.46-2.98-2.35-4.88-2.46H42.91c-2.21,0-4.28,1.06-5.6,2.83-.66.88-1.09,1.91-1.26,3-.11,1.1-.14,2.21-.1,3.32v289.19c.02,1.67.62,3.28,1.71,4.54,1.08,1.25,2.57,2.07,4.2,2.32.82.09,1.65.13,2.47.1h54.35l112.06.08,30.47.05h10.62-41.09l-112.06.09h-54.38c-.84.03-1.69,0-2.53-.09-3.59-.56-6.25-3.64-6.27-7.28V9.59c-.04-1.13,0-2.27.11-3.4.19-1.16.65-2.25,1.35-3.19C38.37,1.11,40.6,0,42.96,0h209.38c2.02.13,3.9,1.08,5.21,2.63,1.28,1.54,1.91,3.52,1.75,5.52v148.79c0,47.31-.07,85.6-.09,112.06,0,13.24,0,23.5-.08,30.48-.15,1.55-.8,3.01-1.85,4.16-.74.83-1.68,1.47-2.72,1.87-.64.25-1.31.41-2,.46l-.73.06Z" fill="#263238"/>
    <rect x="112.89" y="91.2" width="111.6" height="13.21" rx="6.3" ry="6.3" fill="#e0e0e0"/>
    <rect x="70.25" y="83.32" width="30.6" height="30.6" rx="5.14" ry="5.14" fill="#ff7200"/>
    <polygon points="74.98 99.06 78.07 95.98 84.01 101.27 93.94 91.3 96.8 94.38 83.57 107.21 74.98 99.06" fill="#fff"/>
    <rect x="112.89" y="138.67" width="111.6" height="13.21" rx="6.3" ry="6.3" fill="#e0e0e0"/>
    <rect x="70.25" y="130.8" width="30.6" height="30.6" rx="5.14" ry="5.14" fill="#ff7200"/>
    <polygon points="74.98 146.54 78.07 143.46 84.01 148.74 93.94 138.78 96.8 141.86 83.57 154.69 74.98 146.54" fill="#fff"/>
    <rect x="112.89" y="186.15" width="111.6" height="13.21" rx="6.3" ry="6.3" fill="#e0e0e0"/>
    <rect x="70.25" y="178.27" width="30.6" height="30.6" rx="5.14" ry="5.14" fill="#ff7200"/>
    <polygon points="74.98 194.01 78.07 190.93 84.01 196.22 93.94 186.25 96.8 189.33 83.57 202.16 74.98 194.01" fill="#fff"/>
    <rect x="112.89" y="233.62" width="111.6" height="13.21" rx="6.3" ry="6.3" fill="#e0e0e0"/>
    <rect x="70.25" y="225.75" width="30.6" height="30.6" rx="5.14" ry="5.14" fill="#ff7200"/>
    <polygon points="74.98 241.49 78.07 238.41 84.01 243.69 93.94 233.72 96.8 236.81 83.57 249.64 74.98 241.49" fill="#fff"/>
  </g>
  <g id="freepik--Character--inject-7">
    <path d="m298.35,400.38l-.86,22.57s22.65,8.46,22.91,12.64l-43.84-.09-.1-35.23,21.89.11Z" fill="#263238"/>
    <path d="m283.94,421.02c-.86.26-1.38,1.12-1.24,2,.23.88,1.11,1.43,2,1.25.92-.28,1.49-1.21,1.3-2.16-.34-.9-1.32-1.37-2.23-1.07" fill="#e0e0e0"/>
    <path d="m276.56,435.5l.13-3.55,42,1.42s2,.85,1.73,2.22l-43.86-.09Z" fill="#455a64"/>
    <path d="m298.2,422.73c0,.21-1.08.31-2.13,1s-1.62,1.58-1.82,1.49.13-1.32,1.42-2.12,2.58-.57,2.53-.37Z" fill="#fff"/>
    <path d="m302.79,424.64c.05.21-.87.57-1.6,1.47s-.94,1.87-1.16,1.86-.34-1.22.58-2.33,2.18-1.2,2.18-1Z" fill="#fff"/>
    <path d="m305.39,430.15c-.19,0-.49-1,.07-2.2s1.55-1.63,1.64-1.45-.53.8-1,1.77-.49,1.86-.71,1.88Z" fill="#fff"/>
    <path d="m297.83,417.59c-.09.2-1.08-.1-2.29,0s-2.15.46-2.26.28.8-1,2.22-1,2.43.53,2.33.72Z" fill="#fff"/>
    <path d="m244.69,397.3l-2.37,27.29,4.33,22c.3,1.52-.69,2.99-2.21,3.29-.06.01-.13.02-.19.03h0c-.9.12-1.8-.21-2.41-.88-3.9-4.26-18.2-20-17.91-22,.33-2.3.6-28.89.6-28.89l20.16-.84Z" fill="#263238"/>
    <path d="m244.25,449.93l-20.2-24.7-.08,1.16c-.06,1,.23,1.98.82,2.79,1.61,2.14,6.16,8,17,19.87.63.69,1.57,1.02,2.49.88h-.03Z" fill="#455a64"/>
    <g opacity=".6">
      <path d="m230.21,416.79c.66.56.8,1.52.32,2.24-.53.68-1.51.83-2.22.34-.7-.6-.84-1.62-.32-2.38.63-.65,1.66-.69,2.34-.09" fill="#fff"/>
    </g>
    <path d="m238.78,437.59c.71-.82,1.57-1.5,2.53-2,1.02-.34,2.1-.48,3.18-.4,0-.07-.31-.3-.94-.43-1.7-.3-3.42.41-4.41,1.83-.36.6-.42,1-.36,1Z" fill="#fff"/>
    <path d="m240.49,441.39c.81-.38,1.64-.71,2.49-1,.89-.11,1.79-.16,2.69-.17-.82-.58-1.87-.74-2.82-.41-1.64.35-2.5,1.5-2.36,1.58Z" fill="#fff"/>
    <path d="m235.47,432.7c.11.14,1.54-1.15,3.73-1.83s4.09-.5,4.11-.68-1.95-.66-4.29.11c-1.43.35-2.69,1.2-3.55,2.4Z" fill="#fff"/>
    <path d="m235.5,424.36c.06.17,1.6-.36,3.57-.31s3.49.63,3.56.46c-2.17-1.36-4.91-1.42-7.13-.15Z" fill="#fff"/>
    <path d="m235.99,416.35c1.21-.31,2.46-.45,3.71-.42,2.07.18,3.46,1.29,3.56,1.14s-.23-.42-.83-.82c-.81-.51-1.72-.83-2.67-.92-.95-.1-1.9.03-2.79.38-.68.28-1.02.58-.98.64Z" fill="#fff"/>
    <path d="m239.75,414.4c.11-.32.15-.66.11-1-.03-.95-.25-1.89-.65-2.75-.23-.66-.68-1.23-1.27-1.61-.42-.21-.93-.15-1.28.17-.31.33-.49.76-.51,1.21.03,1.89,1.37,3.51,3.23,3.87,1.83.31,3.67-.52,4.65-2.1.24-.4.3-.88.16-1.32-.19-.44-.64-.7-1.11-.66-.68.1-1.32.39-1.86.82-.78.54-1.46,1.22-2,2-.22.27-.39.58-.48.91.78-.98,1.69-1.84,2.72-2.56.48-.36,1.04-.59,1.63-.67.26-.03.51.11.61.35.07.3.02.61-.15.86-.89,1.34-2.47,2.03-4.06,1.78-1.57-.3-2.73-1.65-2.79-3.25,0-.31.12-.61.32-.85.19-.19.48-.23.71-.11.49.32.88.79,1.1,1.34.52,1.13.83,2.33.92,3.57Z" fill="#fff"/>
    <path d="m319.46,210.06c2.12,9.35,2.83,18.97,2.12,28.53-.44,6.08-20.94,173.9-20.94,173.9h-27.64l7.77-157.73-2.26.49s-15.09,67.27-16.32,78.16c-1.1,9.79-13.83,80.92-13.83,80.92l-25.22.26,8-94,9.39-90.27,3.61-26.32,75.32,6.06Z" fill="#263238"/>
    <path d="m279.77,244.06s.05.08.18.19c.2.15.43.25.67.31.92.2,1.88-.03,2.62-.62,1.05-.9,1.7-2.19,1.79-3.57.2-1.5.23-3.11.34-4.82.19-3.42.33-6.51.4-8.75.08-1.21.08-2.42,0-3.63-.22,1.19-.35,2.4-.39,3.61-.17,2.24-.37,5.32-.56,8.74-.11,1.7-.13,3.35-.29,4.78-.06,1.27-.61,2.47-1.53,3.34-.65.56-1.49.82-2.34.72-.31-.07-.6-.17-.89-.3Z" fill="#455a64"/>
    <path d="m239.14,227.83c.24.14.5.23.77.28.72.19,1.46.31,2.21.37,5.03.43,9.96-1.55,13.3-5.34.49-.56.94-1.16,1.34-1.8.17-.23.29-.48.38-.75-.08,0-.7.94-2,2.28-3.38,3.53-8.12,5.43-13,5.22-1.88-.06-3-.35-3-.26Z" fill="#455a64"/>
    <path d="m308.45,220.81c0,.94.13,1.87.42,2.77,1.17,4.43,3.77,8.35,7.4,11.14.72.61,1.53,1.11,2.4,1.47.12-.15-3.69-2.32-6.57-6.72s-3.47-8.72-3.65-8.66Z" fill="#455a64"/>
    <polygon points="392.88 173.33 399.22 175.33 410.74 168.96 417.28 187.17 401.6 190.9 389.72 189.59 392.88 173.33" fill="#d1af95"/>
    <path d="m319.14,100.23s6.48,3.89,11.85,17.11c10.54,26,17.17,40,17.17,40l48.36,15.25-3.87,19.4s-49.06-6.84-55.63-9.3c-9-3.37-15.66-21.1-15.66-21.1l-2.22-61.36Z" fill="#e0e0e0"/>
    <path d="m305.8,41.98c2.82.1,5.19-2.1,5.29-4.92.09-2.32-1.41-4.41-3.63-5.08,1.94-2.2,1.73-5.55-.46-7.5-1.26-1.11-2.97-1.56-4.62-1.21-.32-3.5-3.42-6.07-6.92-5.75-1.04.1-2.05.45-2.92,1.03-2.65-1.94-6.28-1.83-8.8.27-2.78-.35-5.32,1.63-5.67,4.41-.21,1.66.42,3.32,1.67,4.43" fill="#263238"/>
    <path d="m282.9,23.88h1.12c11.28-.57,21.1,7.62,22.56,18.82,1.36,10.42,2.73,21.94,2.94,27.55.44,11.62-11.09,14-11.09,14l1.68,13.9-28.23.53-5-50.48c-1.65-12.05,3.97-23.01,16.02-24.32Z" fill="#d1af95"/>
    <path d="m298.53,84.19c-5.38.26-10.72-1.02-15.39-3.7,0,0,4,8.18,15.53,6.56l-.14-2.86Z" fill="#a66655"/>
    <path d="m302.4,53.37c.06.9-.61,1.68-1.51,1.75-.87.09-1.66-.54-1.75-1.41-.05-.9.63-1.67,1.52-1.75.87-.09,1.65.54,1.74,1.4,0,0,0,0,0,0Z" fill="#263238"/>
    <path d="m304.37,48.46c-.2.23-1.5-.64-3.29-.55s-3,1.05-3.25.85.09-.5.64-.94c.75-.57,1.65-.9,2.59-.94.93-.05,1.85.2,2.63.7.57.4.77.78.68.88Z" fill="#263238"/>
    <path d="m286.14,53.82c.07.91-.61,1.7-1.52,1.77,0,0-.01,0-.02,0-.87.11-1.66-.49-1.77-1.36,0-.02,0-.03,0-.05-.05-.9.62-1.67,1.51-1.75.86-.13,1.67.46,1.8,1.32,0,.02,0,.05,0,.07Z" fill="#263238"/>
    <path d="m286.84,49.67c-.2.22-1.5-.65-3.28-.55s-3.05,1-3.26.84.09-.49.64-.94c.75-.57,1.65-.9,2.59-.94.93-.05,1.85.2,2.63.71.57.39.77.8.68.88Z" fill="#263238"/>
    <path d="m293.97,62.59c.93-.34,1.9-.57,2.88-.67.45-.07.88-.18.94-.49.01-.47-.12-.94-.37-1.34-.49-1.08-1-2.22-1.52-3.4-2.12-4.85-3.68-8.85-3.48-8.93s2.07,3.78,4.19,8.63c.51,1.19,1,2.33,1.46,3.42.32.54.43,1.17.33,1.78-.12.33-.38.59-.72.7-.25.08-.51.13-.77.15-.97.18-1.96.23-2.94.15Z" fill="#263238"/>
    <path d="m288.05,42.72c-.22.47-1.77.05-3.66.08s-3.45.43-3.65,0c-.08-.22.23-.65.89-1,.85-.48,1.82-.74,2.8-.74.97-.01,1.92.23,2.76.7.65.32.95.74.86.96Z" fill="#263238"/>
    <path d="m304.14,41.1c-.36.42-1.85.07-3.63.14s-3.25.44-3.62,0c-.16-.2.05-.62.69-1,.88-.53,1.88-.81,2.91-.81,1.02-.05,2.03.18,2.93.67.6.38.82.79.72,1Z" fill="#263238"/>
    <path d="m305.2,37.38s-3.43-7.12-7-8.64c-4.35-1.84-5.94,2.91-10,2s-8.26-2.7-12.24.63c-4.35,3.65-2.11,5.94-2.14,11.11-.09,20.95-3.61,27.05-5.19,17.26-.17-1.07-3.21-1.78-3.88-6.31-.86-5.88-1.45-13-.34-17.3.94-3.59,2.83-6.13,6.31-9,5.49-4.53,13.32-5,18.67-4.74s15.84,5.86,15.81,14.99Z" fill="#263238"/>
    <path d="m269.3,59.37c-.15-1.74-1.67-3.03-3.41-2.89-.05,0-.1,0-.15.02-2.16.31-4.5,1.66-4.14,6.13.65,7.93,8.47,5.64,8.47,5.42s-.47-5.37-.77-8.68Z" fill="#d1af95"/>
    <path d="m268.14,65.2s-.13.11-.35.24c-.31.16-.67.19-1,.1-.87-.24-1.68-1.51-1.84-2.93-.07-.68,0-1.36.23-2,.11-.52.46-.95.95-1.15.32-.11.68.02.85.31.12.22.08.38.13.39s.16-.15.07-.47c-.07-.19-.2-.35-.36-.47-.23-.15-.51-.2-.78-.14-.65.19-1.16.7-1.34,1.35-.28.71-.38,1.49-.3,2.25.18,1.59,1.12,3,2.3,3.26.44.09.9-.03,1.24-.32.2-.22.2-.4.2-.42Z" fill="#6f4439"/>
    <path d="m268.69,43.98c1.02.74,2.2,1.22,3.45,1.38,1.3.13,2.49-.73,2.78-2,.07-.56-.1-1.19.24-1.64s1.22-.41,1.89-.37c2.32.13,4.89-2.56,5.36-4.83.68.85,1.9,1.04,2.8.43.71-.49,1.33-1.09,1.83-1.79.59-.91,1.58-1.47,2.66-1.5.57.16,1.15.26,1.74.29,1-.14,1.49-1.39,1.6-2.43s.17-2.26,1-2.86,1.87-.32,2.84-.22,2.19-.19,2.39-1.15c.06-.51-.09-1.03-.43-1.42-1.43-1.9-3.97-2.58-6.16-1.64-1.33-3.63-5.36-5.49-8.98-4.16-1.7.63-3.1,1.89-3.89,3.52-3.03-2.48-7.5-2.03-9.98,1-.52.64-.93,1.36-1.2,2.14-2.78-.58-5.5,1.21-6.08,3.98-.27,1.29-.03,2.64.67,3.77-1.46.82-2.4,2.33-2.48,4,0,1.64,1.73,3.2,3.3,2.69-.71,1.41-.14,3.12,1.27,3.83,1.41.71,3.12.14,3.83-1.27" fill="#263238"/>
    <path d="m293.39,26.59v.58c-.08.54-.25,1.06-.5,1.55-.39.79-.97,1.47-1.67,2-.92.71-2.05,1.09-3.21,1.09l.13-.22c.27.71.26,1.5-.05,2.2-.33.72-.75,1.39-1.26,2-.25.36-.53.7-.85,1-.36.28-.78.46-1.23.53-.94.18-1.92-.11-2.6-.79l.29-.1c-.14,1.66-.98,3.19-2.3,4.21-.73.6-1.63.95-2.57,1-.88,0-1.76-.14-2.59-.43l.2-.11c-.38.97-1,1.82-1.79,2.49-.73.69-1.73,1.02-2.73.89-1.71-.28-3.09-1.55-3.52-3.22l.18.08c-.81.49-1.77.67-2.7.53-.7-.09-1.37-.35-1.95-.75-.36-.25-.68-.57-.94-.93-.09-.12-.17-.26-.22-.4.34.48.76.89,1.24,1.22.57.37,1.22.6,1.89.67.89.12,1.79-.08,2.55-.55l.15-.09v.17c.43,1.57,1.73,2.75,3.34,3,.91.11,1.83-.19,2.48-.84.74-.66,1.31-1.48,1.65-2.41l.05-.15h.16c.8.28,1.64.42,2.48.42.87-.04,1.7-.36,2.37-.92,1.26-.96,2.06-2.42,2.19-4v-.37l.27.27c.6.6,1.46.86,2.29.7.4-.06.78-.22,1.1-.46.29-.27.56-.57.79-.9.51-.58.92-1.23,1.24-1.93.29-.63.32-1.35.07-2l-.07-.19h.2c1.11.01,2.19-.34,3.08-1,.7-.48,1.29-1.11,1.71-1.84.33-.62.55-1.3.65-2Z" fill="#455a64"/>
    <path d="m293.89,68.71c-.06-.3-2,.21-3.8-1.08s-2.14-3.41-2.41-3.35-.26.55-.05,1.43c.28,1.13.96,2.13,1.9,2.82.91.66,2.04.94,3.15.79.83-.14,1.25-.48,1.21-.61Z" fill="#263238"/>
    <path d="m341.02,142.13c-.18-.63-10.52-28.77-13.81-34.93-3.95-7.37-12.25-10.63-17.4-11s-60.25,4.08-60.25,4.08c0,0-16.46,3.68-18.56,17.84-2.42,16.3-4.53,53.61-4.53,53.61l25.08-12.86,3.25-8.18,51.9,11.58,12.67-18.68,21.65-1.46Z" fill="#e0e0e0"/>
    <path d="m245.92,101.93l21.52-9.49,2.41-9.28,25.13,11.88,5.26-5.82,2.21,6.56,5.5,1.8,12.87,22.63v48.22l2.6,41.6-2.83,6.56-23.05,3.4c-2.52.37-5.08.37-7.6,0l-46.8-7.63-1.2-13.77,5-37.89-1.02-58.77Z" fill="#e0e0e0"/>
    <path d="m269.85,83.16s2.81.81,10,4.66c7.07,3.77,15.1,7.22,15.1,7.22l-.61,11.34-26.74-13.42" fill="#e0e0e0"/>
    <polyline points="300.24 89.22 294.98 95.04 297.79 107.2 302.48 96.21" fill="#e0e0e0"/>
    <g opacity=".3">
      <path d="m295.08,96.29c.23.18,1.69,14,1.69,14l-26.8-16.2,24.4,12.25.71-10.05Z"/>
    </g>
    <path d="m294.9,148.02c-.41-10.6,1.26-37.64,1.26-37.64l3.5-.57c4.46,19.25,7.47,38.81,9,58.51,1,13,1,28.15,1,28.15l-7,15.06-7.76-15s.49-35.62,0-48.51Z" fill="#455a64"/>
    <path d="m244.32,103.59c-.05.05.72.65,1.81,1.77,2.83,2.93,4.8,6.59,5.68,10.57.33,1.52.41,2.49.47,2.48.04-.23.04-.45,0-.68-.04-.62-.11-1.24-.23-1.85-.36-2.03-1.03-3.99-2-5.81-.98-1.82-2.23-3.47-3.72-4.9-.44-.43-.92-.83-1.42-1.2-.18-.15-.38-.28-.59-.38Z" fill="#263238"/>
    <polygon points="294.9 100.46 297.29 99.53 299.56 103.42 299.97 109.81 296.77 110.33 294.37 106.38 294.9 100.46" fill="#455a64"/>
    <path d="m320.78,119.48c-.1,0-.19,13.84-.19,30.9s.09,30.91.19,30.91.19-13.83.19-30.91-.09-30.9-.19-30.9Z" fill="#263238"/>
    <path d="m294.73,94.94c.41.79.87,1.56,1.36,2.31,1.1,1.85,2.1,3.75,3,5.7.09.19.18.37.26.55l.17.36.17-.36c.87-1.84,1.62-3.73,2.23-5.67.23-.73.4-1.33.5-1.75.08-.21.12-.43.12-.66-.05,0-.33.89-.86,2.33-.68,1.9-1.46,3.77-2.33,5.59h.34l-.26-.55c-.92-1.96-1.97-3.86-3.15-5.68-.46-.69-.85-1.24-1.13-1.62s-.4-.57-.42-.55Z" fill="#263238"/>
    <path d="m267.44,92.44c.11.09.24.16.37.22l1.08.57,4,2.07c3.37,1.75,8,4.25,13.1,7,3.11,1.66,6.06,3.2,8.63,4.48l.24.12v-.31c0-3.33.06-6.13.08-8.16v-2.3c.02-.27.02-.55,0-.82-.05.27-.07.55-.07.82,0,.57-.05,1.34-.09,2.29-.05,2-.12,4.84-.21,8.16l.24-.14c-2.55-1.31-5.49-2.86-8.61-4.52-5.11-2.73-9.75-5.19-13.15-6.89-1.7-.84-3.09-1.51-4.05-2l-1.12-.5c-.14-.05-.29-.08-.44-.09Z" fill="#263238"/>
    <path d="m317.55,101.19c-.06,0,.36.74.91,2,.7,1.58,1.21,3.23,1.53,4.93.31,1.7.41,3.43.32,5.16-.07,1.33-.21,2.14-.15,2.15.08-.18.14-.37.17-.56.11-.52.19-1.04.24-1.57.36-3.52-.29-7.06-1.88-10.22-.23-.48-.49-.94-.79-1.38-.21-.36-.33-.53-.35-.51Z" fill="#263238"/>
    <path d="m297.36,110.74c0,.09.66-.2,1.35-.64s1.22-.86,1.16-.95c-.5.11-.96.32-1.36.64-.69.44-1.21.86-1.15.95Z" fill="#263238"/>
    <path d="m296.21,109.18c.65-1.02,1.19-2.11,1.62-3.24.54-1.07.98-2.19,1.31-3.35-.66,1.01-1.21,2.1-1.63,3.23-.55,1.07-.98,2.2-1.3,3.36Z" fill="#263238"/>
    <path d="m241.51,104.31s-8.29,6-9.33,9.27-5.44,56.89-6.22,63.27-1.56,18.29,3.37,22.18,15.55,6.81,15.55,6.81l9.81-20.25-5.2-10.89,5.2-40.7-13.18-29.69Z" fill="#e0e0e0"/>
    <path d="m242.51,205.12c.18-.02.35-.02.53,0,.51,0,1.02-.04,1.53-.1,1.9-.18,3.73-.84,5.3-1.92,2.35-1.74,4.11-4.15,5.06-6.92,1.28-3.49,1.93-7.19,1.92-10.91l.05.14-7.62-10.55-.06-.08v-.1c0-.27.07-.57.11-.86,1.46-11.41,2.79-21.75,3.76-29.28.48-3.71.87-6.73,1.15-8.87.13-1,.23-1.82.31-2.42s.11-.84.12-.84c.02.07.02.15,0,.22v.63c-.06.6-.13,1.41-.22,2.43-.21,2.1-.55,5.14-1,8.89-.88,7.51-2.15,17.87-3.61,29.31,0,.29-.07.58-.11.85v-.18l7.59,10.56v.14c0,3.78-.68,7.53-2,11.07-1.01,2.82-2.85,5.26-5.28,7-.92.63-1.93,1.1-3,1.39l-.68.19-.64.11c-.37.07-.74.12-1.12.13-.51.04-1.03.04-1.54,0-.18,0-.37,0-.55-.03Z" fill="#263238"/>
    <path d="m232.49,178.43c.64-.63,1.38-1.15,2.18-1.55,3.79-2.12,8.16-2.97,12.47-2.43.89.07,1.77.28,2.6.62-5.98-1.02-12.13.17-17.29,3.36h.04Z" fill="#263238"/>
    <g>
      <path d="m235.3,136.74c28.02-3.88,45.15-5.16,58.03,12.31,12.91,17.47-23.08,84.74,19.31,92.46,42.39,7.75,60.23-27,75.01-60.94,14.82-33.91,20.09-73.72,18.65-93.29" fill="none" stroke="#e06d17" stroke-linecap="round" stroke-linejoin="round" stroke-width="42"/>
      <path d="m250.27,253.81c11.14-17.24,25.35-21.09,43.38-24.74" fill="none" stroke="#e06d17" stroke-linecap="round" stroke-linejoin="round" stroke-width="42"/>
    </g>
    <path d="m359.45,92.72c.11-.33.2-.66.25-1,.07-.31.15-.7.22-1.16s.16-1,.2-1.56c.15-1.35.2-2.72.15-4.08-.1-3.35-.74-6.66-1.89-9.81-.47-1.28-1.03-2.53-1.67-3.73-.26-.53-.54-1-.77-1.37s-.45-.73-.64-1c-.17-.29-.37-.56-.6-.81.14.31.3.6.49.88.17.28.37.62.58,1s.49.86.73,1.39c.6,1.21,1.13,2.46,1.58,3.73.54,1.56.98,3.16,1.31,4.78.3,1.63.49,3.28.57,4.93.06,1.33.03,2.67-.08,4,0,.58-.1,1.1-.15,1.55s-.11.85-.16,1.17c-.08.36-.12.72-.12,1.09Z" fill="#fff"/>
    <path d="m262.95,194.04s3.32-2.58,5.79-2.68,5.68.85,6.32.53,2.15-1.73,3.11-.54,2.15,5.47-3,6.65h-3.54s.43,3.54,1.29,4.93,12.87,16.51,12.87,16.51c0,0,1.5,1.51.75,3s-4,.64-4,.64c0,0-2.25,2-4.82,1.07-1.28-.43-2.5-1-3.65-1.71-1.71,1.31-4.08,1.31-5.79,0-3-2.25-13-14.8-13-14.8l3.58-14,4.09.4Z" fill="#d1af95"/>
    <path d="m252.53,185.74l10.42,8.3-7.65,13.61-15.26-5.54s.44-16.08,12.49-16.37Z" fill="#d1af95"/>
    <path d="m415.06,167.2s-.33-3.73-2.42-3-3,5.16-3,5.16l5.42-2.16Z" fill="#d1af95"/>
    <path d="m407.59,170.88s3.63-4.06,8.67-3.73,1.87,4.61,1.87,4.61c0,0,3.74,2.3,1,5.6l-.44.88s3.18,1.2-.11,4.6c.68,1.25.51,2.79-.44,3.85-1.65,1.64-5.76-.55-5.76-.55,0,0-3.79.88-4.12-.66-.27-1.05.07-2.17.88-2.89.33-.22,2.31-1,2.31-1,0,0-4.39.55-4.5-.55s-.55-2.31,2.74-3.4l1.76-.47s-4.56.14-4.59-1-.24-1.54,1.4-2.3c1.04-.48,2.04-1.03,3-1.65,0,0-4.32.97-3.67-1.34Z" fill="#d1af95"/>
    <path d="m406.79,175.17c1.64-1.22,3.48-2.16,5.43-2.78,1.99-.49,4.04-.65,6.08-.48-.57-.24-1.18-.36-1.79-.38-3-.26-5.98.58-8.4,2.37-.52.33-.97.76-1.32,1.27Z" fill="#6f4439"/>
    <path d="m407.29,181.44s-.1-.14-.21-.39c-.13-.37-.13-.77,0-1.14.17-.56.52-1.05,1-1.38.61-.4,1.29-.68,2-.83,1.9-.35,3.83-.58,5.76-.7-.56-.16-1.14-.22-1.72-.19-1.39-.01-2.78.14-4.14.45-.77.16-1.51.48-2.15.94-.54.4-.91.98-1.06,1.63-.13.44-.07.9.15,1.3.22.27.36.33.37.31Z" fill="#6f4439"/>
    <path d="m409.14,186.27s-.16-.1-.38-.31c-.73-.71-.75-1.88-.04-2.62.05-.05.09-.09.14-.13.66-.45,1.38-.78,2.15-1,1.45-.3,2.93-.38,4.4-.23.62.08,1.26.05,1.87-.1-.61-.11-1.23-.19-1.85-.22-1.51-.25-3.05-.2-4.55.12-.82.23-1.6.61-2.29,1.11-.31.26-.54.61-.65,1-.07.33-.07.67,0,1,.08.49.35.92.75,1.21.25.19.45.19.45.17Z" fill="#6f4439"/>
    <path d="m407.53,171.06s.09-.14.32-.35c.32-.29.65-.56,1-.81,1.13-.85,2.39-1.52,3.72-2,1.32-.5,2.73-.71,4.14-.6.57.13,1.14.29,1.69.48-.45-.42-1.02-.7-1.63-.79-1.46-.22-2.95-.05-4.33.48-3.3,1.18-5.18,3.44-4.91,3.59Z" fill="#6f4439"/>
  </g>
  <g>
    <path d="m62.09,38.56v5.48h4.82v-5.48h3.96v14.83h-3.96v-5.88h-4.82v5.88h-3.98v-14.83h3.98Z" fill="#212121"/>
    <path d="m87.56,45.82c0,4.77-2.86,7.81-7.44,7.81s-7.13-3.45-7.13-7.57,2.84-7.75,7.37-7.75c4.77,0,7.19,3.54,7.19,7.5Zm-10.36.18c0,2.77,1.21,4.49,3.12,4.49s3.04-1.87,3.04-4.53-1.14-4.49-3.06-4.49-3.1,1.8-3.1,4.53Z" fill="#212121"/>
    <path d="m91.79,53.39l-3.41-14.83h4.27l.86,5.5c.26,1.72.53,3.7.77,5.21h.04c.22-1.67.53-3.45.86-5.26l.95-5.46h4.25l.92,5.72c.26,1.69.46,3.21.66,4.88h.04c.22-1.65.48-3.41.75-5.15l.88-5.46h4.03l-3.65,14.83h-4.33l-.99-5.81c-.22-1.3-.42-2.68-.62-4.44h-.04c-.24,1.76-.44,3.15-.7,4.47l-1.12,5.79h-4.4Z" fill="#212121"/>
    <path d="m115.74,41.88h-3.78v-3.32h11.62v3.32h-3.85v11.51h-3.98v-11.51Z" fill="#212121"/>
    <path d="m138.69,45.82c0,4.77-2.86,7.81-7.44,7.81s-7.13-3.45-7.13-7.57,2.84-7.75,7.37-7.75c4.77,0,7.19,3.54,7.19,7.5Zm-10.36.18c0,2.77,1.21,4.49,3.12,4.49s3.04-1.87,3.04-4.53-1.14-4.49-3.06-4.49-3.1,1.8-3.1,4.53Z" fill="#212121"/>
    <path d="m156.27,53.01c-.57.26-1.96.62-3.74.62-5.54,0-7.99-3.48-7.99-7.42,0-5.24,3.83-7.9,8.25-7.9,1.72,0,3.1.33,3.72.66l-.77,3.12c-.66-.26-1.56-.53-2.75-.53-2.29,0-4.27,1.34-4.27,4.38,0,2.71,1.61,4.38,4.33,4.38.97,0,2.05-.2,2.66-.44l.55,3.12Z" fill="#212121"/>
    <path d="m162.56,49.95l-.84,3.43h-4.11l4.31-14.83h5.28l4.42,14.83h-4.29l-.95-3.43h-3.83Zm3.28-2.95l-.68-2.66c-.22-.84-.51-2.05-.73-2.93h-.04c-.22.88-.44,2.11-.66,2.95l-.64,2.64h2.75Z" fill="#212121"/>
    <path d="m173.51,38.76c1.08-.18,2.64-.31,4.91-.31,2.13,0,3.65.37,4.69,1.17,1.01.75,1.69,2.07,1.69,3.59s-.51,2.82-1.43,3.65c-1.21,1.08-2.95,1.54-4.95,1.54-.37,0-.73-.02-.97-.04v5.04h-3.94v-14.63Zm3.94,6.56c.22.02.48.04.9.04,1.56,0,2.53-.79,2.53-2.07,0-1.1-.75-1.85-2.24-1.85-.59,0-.99.04-1.19.09v3.78Z" fill="#212121"/>
    <path d="m189.64,41.88h-3.78v-3.32h11.62v3.32h-3.85v11.51h-3.98v-11.51Z" fill="#212121"/>
    <path d="m203.26,38.56v8.41c0,2.24.77,3.52,2.33,3.52s2.35-1.17,2.35-3.52v-8.41h3.98v8.19c0,4.58-2.29,6.89-6.45,6.89s-6.2-2.22-6.2-7v-8.08h3.98Z" fill="#212121"/>
    <path d="m214.63,38.76c1.12-.18,2.82-.31,4.8-.31,2.27,0,3.89.31,5.02,1.14.95.73,1.47,1.78,1.47,3.23,0,1.85-1.39,3.17-2.55,3.59v.09c.99.42,1.52,1.36,1.89,2.64.46,1.52.95,3.67,1.23,4.25h-4.07c-.22-.44-.59-1.58-1.03-3.41-.4-1.78-.95-2.16-2.18-2.16h-.64v5.57h-3.94v-14.63Zm3.94,6.23h1.03c1.5,0,2.35-.75,2.35-1.85s-.73-1.74-2.05-1.76c-.75,0-1.14.04-1.34.09v3.52Z" fill="#212121"/>
    <path d="m237.51,47.4h-5.33v2.73h5.96v3.26h-9.95v-14.83h9.64v3.23h-5.66v2.4h5.33v3.21Z" fill="#212121"/>
  </g>
</svg>