<?xml version="1.0" encoding="UTF-8"?>
<svg id="Layer_1" data-name="Layer 1" xmlns="http://www.w3.org/2000/svg" viewBox="0 0 471.4 435.9">
  <g>
    <path d="m50,129.2c60.2-3.9,96.8-3.9,121.4,35.9,24.7,39.8-62.5,179.1,26.4,202.6s132.3-48.5,169.1-119.4c36.9-70.8,54.4-155.8,54.5-198.3" fill="none" stroke="#e0e0e0" stroke-linecap="round" stroke-linejoin="round" stroke-width="100"/>
    <path d="m63.2,384.2c26.4-35.4,57.2-41.4,96.2-46.4" fill="none" stroke="#e0e0e0" stroke-linecap="round" stroke-linejoin="round" stroke-width="100"/>
  </g>
  <g id="freepik--Floor--inject-35">
    <path d="m444.2,434.4c0,.1-97.3.3-217.4.3s-217.3-.1-217.3-.3,97.3-.3,217.4-.3,217.3.2,217.3.3Z" fill="#263238"/>
  </g>
  <g id="freepik--Login--inject-35">
    <rect x="124.5" y="46.9" width="254.8" height="319.6" fill="#f5f5f5"/>
    <path d="m124.5,46.9l254.8-.2h.2v320.1H124.2v-.2c.2-190,.2-317.6.3-319.7-.1,2,.1,129.7.2,319.7l-.2-.2h254.8l-.3.3h0V47.1l.2.2-254.7-.4h0Z" fill="#263238"/>
    <path d="m222.6,72.3h2.6v11.6h7.2v2.2h-9.8s0-13.8,0-13.8Z"/>
    <path d="m233.2,80.8c-.1-3.1,2.3-5.7,5.4-5.8,3.1-.1,5.7,2.3,5.8,5.4s-2.3,5.7-5.4,5.8h-.2c-2.9.2-5.4-2.1-5.6-5v-.4Zm8.7,0c-.1-1.7-1.6-3-3.3-2.9s-3,1.6-2.9,3.3c.1,1.6,1.4,2.9,3.1,2.9s3.1-1.3,3.1-3v-.3h0Z"/>
    <path d="m257.2,75.5v8.9c0,3.8-2,5.6-5.7,5.6-1.8.1-3.6-.5-5.1-1.5l1.1-1.8c1.1.8,2.5,1.3,3.9,1.3,2.3,0,3.3-1.1,3.3-3.2v-.6c-.9.9-2.2,1.5-3.5,1.4-2.8.1-5.2-2-5.3-4.8s2-5.2,4.8-5.3h.5c1.4-.1,2.7.5,3.6,1.5v-1.4l2.4-.1Zm-2.4,5c.1-1.8-1.2-3.3-3-3.4s-3.3,1.2-3.4,3,1.2,3.3,3,3.4h.2c1.7.1,3.1-1.2,3.2-2.8v-.2h0Z"/>
    <path d="m260.1,72.3c0-.8.7-1.5,1.5-1.5h0c.8-.1,1.5.5,1.6,1.4v.1c-.1.9-.8,1.5-1.7,1.5-.7-.1-1.4-.7-1.4-1.5Zm.3,3.2h2.5v10.5h-2.5v-10.5Z"/>
    <path d="m276.4,80v6h-2.5v-5.7c0-1.9-.9-2.8-2.5-2.8-1.8,0-2.9,1.1-2.9,3.2v5.3h-2.5v-10.5h2.3v1.4c.9-1,2.2-1.6,3.6-1.5,2.7,0,4.5,1.4,4.5,4.6Z"/>
    <path d="m294.3,65.2c.7,1.2.8,2.7.4,4s-1.2,2.5-2.1,3.5c-2,1.9-4.5,3.3-7.2,4-.7-2.9.9-6,1.9-7.5,1.3-2.3,5.3-5.7,7-4" fill="#ff7200"/>
    <path d="m284.8,81.8c.7-1.4,2.1-2.4,3.7-2.5s3.1.4,4.3,1.5c.6.4.9,1.1,1,1.8-.1.7-.5,1.3-1.1,1.6-.6.3-1.3.4-2,.3-2.3-.3-4.5-.9-5.9-2.7" fill="#ff7200"/>
    <path d="m279.1,85.2c.4-.5.8-.9,1.3-1.2.5-.4,1-.8,1.6-1.1.7-.4,1.4-.7,2.1-1,1.4-.5,2.8-.7,4.2-.5.4.1.9.2,1.3.3.2,0,.3.1.4.2,0,0-.6-.2-1.7-.3-1.4-.1-2.8.1-4.1.6-.7.3-1.4.6-2.1.9-.6.3-1.1.6-1.6,1s-.9.8-1.4,1.1h0Z" fill="#263238"/>
    <path d="m291.4,68c-.1.3-.3.5-.5.8-.3.5-.8,1.2-1.3,2-1.1,1.7-2.8,4.1-4.6,6.6s-3.6,4.8-4.9,6.4c-.6.8-1.2,1.4-1.5,1.9-.2.2-.4.5-.6.7.1-.3.3-.5.5-.7l1.5-2c1.2-1.6,2.9-3.9,4.8-6.5l4.7-6.5,1.4-2c.2-.2.3-.4.5-.7Z" fill="#263238"/>
    <path d="m281.5,80.6c1.1-3.1.5-6.6-1.4-9.3-.5-.7-1.2-1.3-2-1.1s-1.2,1.2-1.3,2c-.4,3.5,1.4,6.9,4.5,8.6" fill="#ff7200"/>
    <path d="m279.5,73.7s.1.1.3.4.4.6.6,1.1c.6,1.3,1,2.7,1.1,4.1.1.8,0,1.6-.2,2.3-.2.6-.4,1.2-.8,1.8-.2.4-.5.7-.8,1-.1.1-.2.2-.3.3,0,0,.4-.6.9-1.5.3-.5.5-1.1.7-1.7.2-.7.2-1.5.2-2.2-.1-1.4-.5-2.7-1.1-4-.2-.5-.4-1.1-.6-1.6h0Z" fill="#263238"/>
    <path d="m150.8,118.4v.7h-5.7v-8.1h5.5v.7h-4.7v2.9h4.2v.7h-4.2v3h4.9v.1Z" fill="#263238"/>
    <path d="m162.6,115.6v3.5h-.8v-3.4c0-1.3-.6-1.9-1.7-1.9s-2,.9-2,2v3.4h-.8v-3.4c0-1.3-.6-1.9-1.8-1.9-1.1,0-2,.9-2,2v3.4h-.8v-6.1h.8v1.1c.5-.8,1.3-1.2,2.2-1.1.9-.1,1.8.4,2.1,1.3.5-.8,1.4-1.3,2.4-1.3,1.3-.1,2.3.9,2.4,2.2,0-.1,0,.1,0,.2h0Z" fill="#263238"/>
    <path d="m169.4,115.4v3.8h-.8v-.9c-.5.7-1.3,1.1-2.1,1-1.4,0-2.2-.7-2.2-1.8s.6-1.7,2.3-1.7h1.9v-.4c0-1-.6-1.6-1.7-1.6-.7,0-1.4.2-2,.7l-.4-.6c.7-.5,1.6-.8,2.5-.8,1.2-.2,2.3.6,2.5,1.8v.5Zm-.9,1.9v-1h-1.9c-1.2,0-1.6.5-1.6,1.1s.6,1.1,1.5,1.1c.9.1,1.7-.4,2-1.2Z" fill="#263238"/>
    <path d="m171.4,111.2c0-.3.3-.6.6-.6h0c.3,0,.6.2.6.5h0c0,.3-.3.6-.6.6h0c-.3,0-.6-.2-.6-.5h0Zm.2,1.9h.8v6.1h-.8v-6.1Z" fill="#263238"/>
    <path d="m174.7,110.6h.8v8.5h-.8v-8.5Z" fill="#263238"/>
    <path d="m185.3,115.4v3.8h-.8v-.9c-.5.7-1.3,1.1-2.1,1-1.4,0-2.2-.7-2.2-1.8s.6-1.7,2.3-1.7h1.9v-.4c0-1-.6-1.6-1.7-1.6-.7,0-1.4.2-2,.7l-.4-.6c.7-.5,1.6-.8,2.5-.8,1.2-.2,2.3.6,2.4,1.8.2.1.2.3.1.5Zm-.8,1.9v-1h-1.9c-1.2,0-1.6.5-1.6,1.1s.6,1.1,1.5,1.1c.9.1,1.7-.4,2-1.2Z" fill="#263238"/>
    <path d="m193.1,110.6v8.5h-.8v-1.2c-.5.8-1.4,1.3-2.3,1.2-1.7-.1-3-1.6-2.9-3.3.1-1.6,1.3-2.8,2.9-2.9.9,0,1.8.4,2.3,1.2v-3.6h.8v.1Zm-.8,5.5c-.1-1.2-1.1-2.2-2.4-2.1-1.2.1-2.2,1.1-2.1,2.4.1,1.2,1,2.1,2.2,2.1s2.2-1,2.3-2.2v-.2h0Z" fill="#263238"/>
    <path d="m200.9,110.6v8.5h-.8v-1.2c-.5.8-1.4,1.3-2.3,1.2-1.7-.1-3-1.6-2.9-3.3.1-1.6,1.3-2.8,2.9-2.9.9,0,1.8.4,2.3,1.2v-3.6h.8v.1Zm-.8,5.5c-.1-1.2-1.1-2.2-2.4-2.1-1.2.1-2.2,1.1-2.1,2.4.1,1.2,1.1,2.1,2.3,2.1s2.2-1,2.2-2.2v-.2h0Z" fill="#263238"/>
    <path d="m206.2,113v.8h-.2c-1.1,0-2,.9-2,2v3.3h-.8v-6.1h.8v1.2c.4-.8,1.3-1.3,2.2-1.2Z" fill="#263238"/>
    <path d="m212.9,116.3h-5.1c.1,1.2,1.1,2.2,2.4,2.1h0c.7,0,1.4-.3,1.9-.8l.5.5c-1.2,1.3-3.2,1.3-4.5.1-.6-.6-1-1.4-1-2.2-.1-1.6,1.1-3,2.8-3.1,1.6-.1,3,1.1,3.1,2.8v.3c-.1.2-.1.3-.1.3h0Zm-5.1-.6h4.3c-.1-1.2-1.1-2.1-2.3-2-1,.1-1.9,1-2,2Z" fill="#263238"/>
    <path d="m213.7,118.4l.4-.6c.6.4,1.4.7,2.1.7,1.1,0,1.6-.4,1.6-1,0-1.6-3.9-.3-3.9-2.7,0-1,.9-1.7,2.4-1.7.8,0,1.5.2,2.1.6l-.4.7c-.5-.4-1.2-.5-1.8-.5-1.1,0-1.6.4-1.6,1,0,1.6,3.9.4,3.9,2.7,0,1-.9,1.7-2.5,1.7-.7-.1-1.5-.4-2.3-.9Z" fill="#263238"/>
    <path d="m219.4,118.4l.4-.6c.6.4,1.4.7,2.1.7,1.1,0,1.6-.4,1.6-1,0-1.6-3.9-.3-3.9-2.7,0-1,.9-1.7,2.4-1.7.8,0,1.5.2,2.1.6l-.4.7c-.5-.4-1.1-.5-1.8-.5-1.1,0-1.6.4-1.6,1,0,1.6,3.9.4,3.9,2.7,0,1-.9,1.7-2.5,1.7-.8-.1-1.6-.4-2.3-.9Z" fill="#263238"/>
    <path d="m160,140.7h-5.1c.1,1.2,1.1,2.2,2.4,2.1h0c.7,0,1.4-.3,1.9-.8l.5.5c-1.2,1.3-3.2,1.3-4.5.1-.6-.6-1-1.4-1-2.2-.1-1.6,1.1-3,2.8-3.1h.2c1.6,0,2.9,1.2,2.9,2.8v.2c0,.2-.1.3-.1.4h0Zm-5-.7h4.3c-.1-1.2-1.1-2.1-2.3-2-1.1.1-1.9,1-2,2Z" fill="#e0e0e0"/>
    <path d="m165.4,143.4l-1.9-2.5-1.9,2.5h-.9l2.4-3.1-2.3-3h.9l1.8,2.4,1.8-2.3h.9l-2.3,3,2.4,3.1-.9-.1h0Z" fill="#e0e0e0"/>
    <path d="m172.1,139.7v3.7h-.8v-.9c-.5.7-1.3,1.1-2.1,1-1.4,0-2.2-.7-2.2-1.8s.6-1.7,2.3-1.7h1.9v-.4c0-1-.6-1.6-1.7-1.6-.7,0-1.4.2-2,.7l-.4-.6c.7-.6,1.6-.8,2.5-.8,1.2-.2,2.3.7,2.4,1.9.2.1.2.3.1.5h0Zm-.8,1.9v-1h-1.9c-1.2,0-1.6.5-1.6,1.1s.6,1.1,1.5,1.1c.9.1,1.7-.4,2-1.2h0Z" fill="#e0e0e0"/>
    <path d="m184.3,139.9v3.5h-.8v-3.4c0-1.3-.6-1.9-1.7-1.9s-2,.9-2,2v3.3h-.8v-3.4c0-1.3-.6-1.9-1.8-1.9-1.1,0-2,.9-2,2v3.3h-.8v-6h.8v1.1c.5-.8,1.3-1.2,2.2-1.1.9-.1,1.8.4,2.1,1.3.5-.8,1.4-1.3,2.4-1.3,1.3-.1,2.3.9,2.4,2.1.1.1.1.3,0,.4h0Z" fill="#e0e0e0"/>
    <path d="m192.7,140.4c.1,1.6-1.2,3-2.8,3.1h-.2c-.9,0-1.8-.4-2.3-1.2v3.4h-.8v-8.3h.8v1.2c.5-.8,1.4-1.3,2.3-1.2,1.6,0,3,1.3,3,2.9v.1Zm-.8,0c0-1.2-1.1-2.2-2.3-2.2s-2.2,1.1-2.2,2.3,1.1,2.2,2.3,2.2,2.2-1,2.3-2.2c-.1,0-.1-.1-.1-.1Z" fill="#e0e0e0"/>
    <path d="m194.4,134.9h.8v8.5h-.8v-8.5Z" fill="#e0e0e0"/>
    <path d="m202.7,140.7h-5.1c.1,1.2,1.2,2.2,2.4,2.1.7,0,1.4-.3,1.9-.8l.5.5c-1.2,1.3-3.2,1.3-4.5.1-.6-.6-1-1.4-1-2.2-.1-1.6,1.1-3,2.8-3.1,1.6-.1,3,1.1,3.1,2.8v.3c-.1.1-.1.2-.1.3h0Zm-5.1-.7h4.3c0-1.2-1-2.1-2.2-2.1-1.1,0-2.1,1-2.1,2.1Z" fill="#e0e0e0"/>
    <path d="m214.6,140.4c0,2-.7,3.1-1.9,3.1-.7,0-1.3-.5-1.3-1.2v-.1c-.5.8-1.4,1.3-2.3,1.2-1.6-.2-2.8-1.8-2.5-3.4.2-1.3,1.2-2.4,2.5-2.5.9,0,1.8.4,2.3,1.2v-1.2h.8v4.4c0,.6.3.9.7.9.7,0,1.2-.9,1.2-2.4.1-2.4-1.8-4.4-4.3-4.5h-.5c-2.6-.1-4.7,1.9-4.8,4.4s1.9,4.7,4.4,4.8h.4c.8,0,1.5-.2,2.2-.5l.2.6c-.8.4-1.6.5-2.4.5-2.9,0-5.2-2.3-5.2-5.2s2.3-5.2,5.2-5.2h0c2.8-.2,5.1,1.9,5.3,4.7-.1.1,0,.3,0,.4h0Zm-3.3.1c-.1-1.2-1.1-2.1-2.3-2.1-1.2.1-2.1,1.1-2.1,2.3.1,1.2,1,2.1,2.2,2.1s2.2-.9,2.2-2.1v-.2h0Z" fill="#e0e0e0"/>
    <path d="m221.9,137.4v5.3c0,2.1-1,3-3,3-1,0-2-.3-2.8-.9l.4-.6c.7.6,1.5.9,2.4.8,1.5,0,2.2-.7,2.2-2.2v-.8c-.5.8-1.4,1.2-2.4,1.2-1.6.1-3-1.1-3.1-2.8s1.1-3,2.8-3.1h.3c1,0,1.9.4,2.4,1.2v-1.1h.8Zm-.8,2.9c0-1.3-.9-2.3-2.2-2.4-1.3,0-2.3.9-2.4,2.2,0,1.3.9,2.3,2.2,2.4h.1c1.2.1,2.2-.8,2.3-2v-.2h0Z" fill="#e0e0e0"/>
    <path d="m234.1,139.9v3.5h-.8v-3.4c0-1.3-.6-1.9-1.7-1.9s-2,.9-2,2v3.3h-.8v-3.4c0-1.3-.6-1.9-1.8-1.9-1.1,0-2,.9-2,2v3.3h-.8v-6h.8v1.1c.5-.8,1.3-1.2,2.2-1.1.9-.1,1.8.4,2.2,1.3.5-.8,1.4-1.3,2.4-1.3,1.3-.1,2.3.9,2.4,2.2,0,0,0,.2-.1.3h0Z" fill="#e0e0e0"/>
    <path d="m240.9,139.7v3.7h-.8v-.9c-.5.7-1.3,1.1-2.1,1-1.4,0-2.2-.7-2.2-1.8s.6-1.7,2.3-1.7h1.9v-.4c0-1-.6-1.6-1.7-1.6-.7,0-1.4.2-2,.7l-.4-.6c.7-.6,1.6-.8,2.5-.8,1.2-.2,2.3.7,2.4,1.8.1.2.1.4.1.6Zm-.8,1.9v-1h-1.9c-1.2,0-1.6.5-1.6,1.1s.6,1.1,1.5,1.1c.9.1,1.7-.4,2-1.2h0Z" fill="#e0e0e0"/>
    <path d="m243,135.5c0-.3.3-.6.6-.6s.6.2.6.6h0c0,.3-.3.6-.6.6h0c-.4,0-.6-.3-.6-.6Zm.1,1.9h.8v6h-.8v-6Z" fill="#e0e0e0"/>
    <path d="m246.2,134.9h.8v8.5h-.8v-8.5Z" fill="#e0e0e0"/>
    <path d="m248.8,142.9c0-.3.3-.6.6-.6h0c.3,0,.6.3.6.6h0c0,.3-.3.6-.6.6h0c-.3,0-.6-.3-.6-.6h0Z" fill="#e0e0e0"/>
    <path d="m251,140.4c0-1.7,1.3-3,2.9-3.1h.2c.9,0,1.8.4,2.4,1.2l-.6.4c-.4-.6-1.1-.9-1.8-.9-1.3.1-2.3,1.2-2.2,2.5.1,1.2,1,2.1,2.2,2.2.7,0,1.4-.3,1.8-.9l.6.4c-.5.8-1.4,1.2-2.4,1.2-1.7.1-3.1-1.2-3.1-2.9,0-1.13,0-1.17,0-.1h0Z" fill="#e0e0e0"/>
    <path d="m257.4,140.4c0-1.7,1.4-3.1,3.1-3.1s3.1,1.4,3.1,3.1-1.4,3.1-3.1,3.1h0c-1.7,0-3-1.3-3.1-2.9v-.2h0Zm5.3,0c-.1-1.2-1.1-2.2-2.3-2.1-1.2.1-2.2,1.1-2.1,2.3s1,2.1,2.2,2.1,2.2-.9,2.3-2.2c-.07,0-.1-.03-.1-.1h0Z" fill="#e0e0e0"/>
    <path d="m275.2,139.9v3.5h-.8v-3.4c0-1.3-.6-1.9-1.7-1.9s-2,.9-2,2v3.3h-.8v-3.4c0-1.3-.6-1.9-1.8-1.9-1.1,0-2,.9-2,2v3.3h-.8v-6h.8v1.1c.5-.8,1.3-1.2,2.2-1.1.9-.1,1.8.4,2.1,1.3.5-.8,1.4-1.3,2.4-1.3,1.3-.1,2.3.9,2.4,2.2v.3h0Z" fill="#e0e0e0"/>
    <path d="m358.3,153.8c.4,0,.8-.2,1.1-.5.7-.6.4-1.9.5-3.5v-20.2c0-.4,0-.9-.1-1.3-.1-.4-.4-.7-.8-.9-.4-.1-.9-.2-1.3-.1h-41.6l-170.7.1c-.4,0-.9.2-1.1.6-.2.4-.3.9-.3,1.3v23.1c.1.4.3.8.7,1,.2.1.4.2.6.1h65.5l76.7.1,51.7.1,14.1.1h4.9-4.9l-14.1.1-51.7.1-76.7.1h-65.5c-.9,0-1.7-.7-1.9-1.6-.1-.6,0-1,0-1.6v-22.3c0-.3.2-.6.3-.8.4-.5.9-.8,1.6-.8l170.7.1h41.6c.5-.1,1,0,1.4.2s.8.6.9,1,.1.9.1,1.4v22.3c.1.6-.1,1.1-.5,1.5-.3.2-.7.3-1.2.3h0Z" fill="#e0e0e0"/>
    <path d="m151.4,174.2c0,1.7-1.2,2.8-3.3,2.8h-2.2v2.5h-.9v-8h3c2.1,0,3.4,1,3.4,2.7Zm-.9,0c0-1.3-.9-2-2.5-2h-2.1v4h2.1c1.7,0,2.5-.7,2.5-2h0Z" fill="#263238"/>
    <path d="m157.6,175.8v3.8h-.8v-.9c-.5.7-1.3,1.1-2.1,1-1.4,0-2.2-.7-2.2-1.8s.6-1.7,2.3-1.7h1.9v-.4c0-1-.6-1.6-1.7-1.6-.7,0-1.4.2-2,.7l-.4-.6c.7-.6,1.6-.8,2.5-.8,1.2-.2,2.3.6,2.4,1.8.1.1.1.3.1.5Zm-.9,1.9v-1h-1.9c-1.2,0-1.6.5-1.6,1.1s.6,1.1,1.5,1.1c.9.1,1.7-.4,2-1.2h0Z" fill="#263238"/>
    <path d="m158.9,178.8l.4-.6c.6.4,1.4.7,2.1.7,1.1,0,1.6-.4,1.6-1,0-1.6-3.9-.3-3.9-2.7,0-1,.9-1.7,2.4-1.7.8,0,1.5.2,2.1.6l-.4.6c-.5-.4-1.2-.5-1.8-.5-1.1,0-1.6.4-1.6,1,0,1.6,3.9.4,3.9,2.7,0,1-.9,1.7-2.5,1.7-.7,0-1.6-.2-2.3-.8Z" fill="#263238"/>
    <path d="m164.6,178.8l.4-.6c.6.4,1.4.7,2.2.7,1.1,0,1.6-.4,1.6-1,0-1.6-3.9-.3-3.9-2.7,0-1,.9-1.7,2.4-1.7.8,0,1.5.2,2.1.6l-.4.6c-.5-.4-1.1-.5-1.8-.5-1.1,0-1.6.4-1.6,1,0,1.6,3.9.4,3.9,2.7,0,1-.9,1.7-2.5,1.7-.9,0-1.7-.2-2.4-.8Z" fill="#263238"/>
    <path d="m179.8,173.5l-2.3,6h-.8l-1.9-5-1.9,5h-.8l-2.3-6h.8l1.9,5.1,1.9-5.1h.7l1.9,5.1,1.9-5.1h.9Z" fill="#263238"/>
    <path d="m180.2,176.5c0-1.7,1.4-3.1,3.1-3.1s3.1,1.4,3.1,3.1-1.4,3.1-3.1,3.1-3-1.3-3.1-2.9v-.2h0Zm5.4,0c-.1-1.2-1.1-2.2-2.4-2.1-1.2.1-2.2,1.1-2.1,2.4.1,1.2,1,2.1,2.2,2.1s2.2-.9,2.3-2.2v-.2Z" fill="#263238"/>
    <path d="m191.1,173.4v.8h-.2c-1.1,0-2,.9-2,2v3.4h-.8v-6h.8v1.2c.4-1,1.2-1.5,2.2-1.4Z" fill="#263238"/>
    <path d="m198,171v8.5h-.8v-1.2c-.5.8-1.4,1.3-2.3,1.3-1.7,0-3.1-1.4-3.1-3.1s1.4-3.1,3.1-3.1c.9,0,1.8.4,2.3,1.2v-3.6h.8Zm-.8,5.5c-.1-1.2-1.1-2.2-2.4-2.1-1.2.1-2.2,1.1-2.1,2.4.1,1.2,1.1,2.1,2.3,2.1s2.2-1,2.2-2.2v-.2h0Z" fill="#263238"/>
    <path d="m160.6,203.9v.7h-5.7v-8.1h5.6v.7h-4.7v2.9h4.2v.7h-4.2v3l4.8.1h0Z" fill="#e0e0e0"/>
    <path d="m168,201.1v3.5h-.8v-3.4c.1-.9-.5-1.8-1.4-1.9h-.4c-1.1-.1-2.1.8-2.1,1.9v3.5h-.8v-6.1h.8v1.1c.5-.8,1.4-1.2,2.3-1.2,1.3-.1,2.4.9,2.5,2.1,0,.2-.1.4-.1.5h0Z" fill="#e0e0e0"/>
    <path d="m173.4,204.2c-.4.3-.8.4-1.3.4-.9.1-1.7-.5-1.8-1.4v-4h-1.1v-.7h1.1v-1.3h.8v1.3h1.8v.7h-1.8v3.6c-.1.5.3,1,.9,1.1h.1c.3,0,.6-.1.9-.3l.4.6h0Z" fill="#e0e0e0"/>
    <path d="m180,201.8h-5.1c.1,1.2,1.1,2.2,2.4,2.1h0c.7,0,1.4-.3,1.9-.8l.5.5c-1.2,1.3-3.2,1.3-4.5.1-.6-.6-1-1.4-1-2.2-.1-1.6,1.1-3,2.7-3.1h.3c1.6,0,2.9,1.2,2.9,2.8v.2c-.1.2-.1.3-.1.4h0Zm-5.1-.6h4.3c-.1-1.2-1.1-2.1-2.3-2-1.1.1-1.9,1-2,2Z" fill="#e0e0e0"/>
    <path d="m184.7,198.5v.8h-.2c-1.1,0-2,.9-2,2v3.3h-.8v-6.1h.8v1.2c.4-.8,1.3-1.3,2.2-1.2Z" fill="#e0e0e0"/>
    <path d="m195.4,201.6c.1,1.6-1.2,3-2.8,3.1h-.2c-.9,0-1.8-.4-2.3-1.2v3.4h-.8v-8.3h.8v1.2c.5-.8,1.4-1.3,2.3-1.2,1.6,0,3,1.2,3,2.9,0-.1,0,0,0,.1Zm-.8,0c.1-1.2-.9-2.3-2.1-2.4-1.2-.1-2.3.9-2.4,2.1v.3c-.1,1.2.9,2.3,2.1,2.4,1.2.1,2.3-.9,2.4-2.1v-.3Z" fill="#e0e0e0"/>
    <path d="m201.6,200.9v3.8h-.8v-1c-.5.7-1.3,1.1-2.1,1-1.4,0-2.2-.7-2.2-1.8s.6-1.7,2.3-1.7h1.9v-.4c0-1-.6-1.6-1.7-1.6-.7,0-1.4.2-2,.7l-.4-.6c.7-.6,1.6-.8,2.5-.8,1.2-.2,2.3.6,2.4,1.8.1.2.1.4.1.6Zm-.8,1.9v-1h-1.9c-1.2,0-1.6.5-1.6,1.1s.6,1.1,1.5,1.1c.9.1,1.7-.4,2-1.2h0Z" fill="#e0e0e0"/>
    <path d="m203,203.9l.4-.6c.6.4,1.4.7,2.1.7,1.1,0,1.6-.4,1.6-1,0-1.6-3.9-.3-3.9-2.7,0-1,.9-1.7,2.4-1.7.8,0,1.5.2,2.1.6l-.4.7c-.5-.4-1.1-.5-1.8-.5-1.1,0-1.6.4-1.6,1,0,1.6,3.9.4,3.9,2.7,0,1.1-.9,1.7-2.5,1.7-.7-.1-1.6-.4-2.3-.9Z" fill="#e0e0e0"/>
    <path d="m208.6,203.9l.4-.6c.6.4,1.4.7,2.1.7,1.1,0,1.6-.4,1.6-1,0-1.6-3.9-.3-3.9-2.7,0-1,.9-1.7,2.4-1.7.8,0,1.5.2,2.1.6l-.4.7c-.5-.4-1.2-.5-1.8-.5-1.1,0-1.6.4-1.6,1,0,1.6,3.9.4,3.9,2.7,0,1.1-.9,1.7-2.5,1.7-.7-.1-1.6-.4-2.3-.9Z" fill="#e0e0e0"/>
    <path d="m223.8,198.6l-2.3,6.1h-.8l-1.9-5-1.9,5h-.8l-2.3-6.1h.8l1.9,5.1,1.9-5.1h.7l1.9,5.1,1.9-5.1h.9Z" fill="#e0e0e0"/>
    <path d="m224.3,201.6c0-1.7,1.4-3.1,3.1-3.1s3.1,1.4,3.1,3.1-1.4,3.1-3.1,3.1-3-1.3-3.1-2.9v-.2h0Zm5.3,0c-.1-1.2-1.1-2.2-2.4-2.1-1.2.1-2.2,1.1-2.1,2.4.1,1.2,1.1,2.1,2.3,2.1s2.2-1,2.2-2.2v-.2Z" fill="#e0e0e0"/>
    <path d="m235.1,198.5v.8h-.2c-1.1,0-2,.9-2,2v3.3h-.8v-6.1h.8v1.2c.4-.8,1.3-1.3,2.2-1.2Z" fill="#e0e0e0"/>
    <path d="m242.1,196.1v8.5h-.8v-1.2c-.5.8-1.4,1.3-2.3,1.3-1.7,0-3.1-1.4-3.1-3.1s1.4-3.1,3.1-3.1c.9,0,1.8.4,2.3,1.2v-3.6h.8Zm-.8,5.5c-.1-1.2-1.1-2.2-2.4-2.1-1.2.1-2.2,1.1-2.1,2.4.1,1.2,1,2.1,2.2,2.1s2.2-1,2.3-2.2v-.2Z" fill="#e0e0e0"/>
    <path d="m309.5,197.3v3.2h4.2v.7h-4.2v3.4h-.9v-8.1h5.5v.7l-4.6.1h0Z" fill="#ff7200"/>
    <path d="m315,201.6c0-1.7,1.4-3.1,3.1-3.1s3.1,1.4,3.1,3.1-1.4,3.1-3.1,3.1c-1.7.1-3-1.3-3.1-2.9-.1-.1-.1-.2,0-.2h0Zm5.3,0c-.1-1.2-1.1-2.2-2.4-2.1s-2.2,1.1-2.1,2.4c.1,1.2,1.1,2.1,2.3,2.1s2.2-1,2.2-2.2v-.2Z" fill="#ff7200"/>
    <path d="m325.8,198.5v.8h-.2c-1.1,0-2,.9-2,2v3.3h-.8v-6.1h.8v1.2c.4-.8,1.3-1.3,2.2-1.2Z" fill="#ff7200"/>
    <path d="m332.8,198.6v5.3c0,2.1-1,3-3,3-1,0-2-.3-2.8-.9l.4-.6c.7.6,1.5.9,2.4.8,1.5,0,2.2-.7,2.2-2.2v-.8c-.5.8-1.4,1.2-2.4,1.2-1.6.1-3-1.1-3.1-2.8-.1-1.6,1.1-3,2.8-3.1h.3c1,0,1.9.4,2.4,1.2v-1.2l.8.1h0Zm-.8,2.8c0-1.3-.9-2.3-2.2-2.4-1.3,0-2.3.9-2.4,2.2,0,1.3.9,2.3,2.2,2.4h.1c1.2.1,2.2-.8,2.3-2,.1,0,.1-.1,0-.2h0Z" fill="#ff7200"/>
    <path d="m334.5,201.6c0-1.7,1.4-3.1,3.1-3.1s3.1,1.4,3.1,3.1-1.4,3.1-3.1,3.1-3-1.3-3.1-2.9v-.2h0Zm5.3,0c-.1-1.2-1.1-2.2-2.4-2.1s-2.2,1.1-2.1,2.4c.1,1.2,1.1,2.1,2.3,2.1s2.2-.9,2.3-2.2c-.1-.1-.1-.2-.1-.2h0Z" fill="#ff7200"/>
    <path d="m345.5,204.2c-.4.3-.8.4-1.3.4-.9.1-1.7-.5-1.8-1.4v-4h-1.1v-.7h1.1v-1.3h.8v1.3h1.8v.7h-1.8v3.6c-.1.5.3,1,.9,1.1h.1c.3,0,.6-.1.9-.3l.4.6h0Z" fill="#ff7200"/>
    <path d="m350.5,198.6c0-.8-.7-1.4-1.9-1.4-.8-.1-1.6.3-2.2.9l-.6-.5c.7-.8,1.8-1.3,2.9-1.2,1.6,0,2.6.8,2.6,2,0,2-2.1,2.1-2.1,3.7h-.9c.1-1.8,2.2-2,2.2-3.5Zm-2.3,5.5c0-.3.2-.6.6-.6h0c.3,0,.6.2.6.6h0c0,.3-.3.6-.6.6s-.6-.3-.6-.6h0Z" fill="#ff7200"/>
    <path d="m358.3,215c.4,0,.8-.2,1.1-.5.7-.6.4-1.9.5-3.5v-20.2c0-.4,0-.9-.1-1.3-.1-.4-.4-.7-.8-.9-.4-.1-.9-.2-1.3-.1h-41.6l-170.7.1c-.4,0-.9.2-1.1.6-.3.4-.3.9-.3,1.3v23.1c.1.4.3.8.7,1,.2.1.4.1.6.1h142.2l51.7.1h19-19l-51.7.1-76.7.1h-65.5c-.9,0-1.7-.7-1.9-1.6-.1-.6,0-1,0-1.6v-22.1c0-.3.2-.6.3-.8.4-.5.9-.8,1.6-.8l170.7.1h41.6c.5,0,1,0,1.4.2s.8.6.9,1.1c.1.4.1.9.1,1.3v22.3c0,.5-.2,1-.5,1.4-.3.3-.7.5-1.2.5h0Z" fill="#e0e0e0"/>
    <path d="m230.2,311.4l.3-.7c.7.7,1.7,1,2.6,1,1.5,0,2.2-.6,2.2-1.4,0-2.2-5-.9-5-3.8,0-1.2.9-2.2,3-2.2.9,0,1.7.2,2.5.7l-.3.7c-.7-.4-1.4-.7-2.2-.7-1.5,0-2.1.7-2.1,1.5,0,2.2,5,.9,5,3.8,0,1.2-.9,2.2-3,2.2-1.1,0-2.2-.4-3-1.1Z" fill="#263238"/>
    <path d="m237.7,304.4c0-.3.3-.6.6-.6h0c.3,0,.6.3.6.6s-.3.6-.6.6c-.4,0-.6-.3-.6-.6Zm.2,1.9h.8v6h-.8v-6Z" fill="#263238"/>
    <path d="m254,308.9v3.5h-.8v-3.4c.1-.9-.5-1.8-1.4-1.9h-.4c-1.1-.1-2.1.8-2.1,1.9v3.5h-.8v-6h.8v1c.5-.8,1.4-1.2,2.3-1.2,1.3-.1,2.4.8,2.5,2.1-.1.1-.1.3-.1.5Z" fill="#263238"/>
    <path d="m246.5,306.3v5.3c0,2.1-1,3-3,3-1,0-2-.3-2.8-.9l.4-.6c.7.6,1.5.8,2.4.8,1.5,0,2.2-.7,2.2-2.2v-.8c-.5.8-1.4,1.2-2.4,1.2-1.6.1-3-1.1-3.1-2.8-.1-1.6,1.1-3,2.8-3.1h.3c1,0,1.9.4,2.4,1.2v-1.2l.8.1h0Zm-.7,2.9c0-1.3-.9-2.3-2.2-2.4-1.3,0-2.3.9-2.4,2.2,0,1.3.9,2.3,2.2,2.4h.1c1.2.1,2.2-.9,2.3-2.1v-.1h0Z" fill="#263238"/>
    <path d="m265.1,306.3v6h-.8v-1.1c-.5.8-1.3,1.2-2.2,1.2-1.3.1-2.4-.8-2.6-2.1v-4h.8v3.4c0,1.3.7,1.9,1.8,1.9s2-.8,2.1-1.9v-3.5l.9.1h0Z" fill="#263238"/>
    <path d="m273.5,309.3c.1,1.6-1.2,3-2.8,3.1h-.2c-.9,0-1.8-.4-2.3-1.2v3.4h-.8v-8.3h.8v1.2c.5-.8,1.4-1.3,2.3-1.2,1.6,0,3,1.2,3,2.9v.1Zm-.8,0c-.1-1.2-1.1-2.2-2.4-2.2-1.2.1-2.2,1.1-2.2,2.4.1,1.2,1.1,2.2,2.3,2.2s2.3-.9,2.3-2.2v-.2h0Z" fill="#263238"/>
    <path d="m358.3,322.3c.4,0,.8-.2,1.1-.5.7-.6.4-1.9.5-3.5v-20.2c0-.4,0-.9-.1-1.3s-.4-.7-.8-.9c-.4-.1-.9-.2-1.3-.1h-41.6l-170.7.1c-.4,0-.9.2-1.1.6-.3.4-.3.9-.3,1.3v23.1c.1.4.3.8.7,1,.2.1.4.2.6.1h142.2l51.7.1h19-19l-51.7.1-76.7.1h-65.5c-.3,0-.6-.1-.8-.2-.5-.3-.9-.8-1-1.4s0-1,0-1.6v-22.2c0-.3.2-.6.3-.8.4-.5.9-.8,1.6-.8l170.7.1h41.6c.5,0,1,0,1.4.2s.8.6.9,1.1c.1.4.1.9.1,1.3v22.3c0,.5-.2,1-.5,1.4-.4.4-.8.6-1.3.6h0Z" fill="#263238"/>
    <path d="m154.8,246.1h194.1c6.1,0,11.1,5,11.1,11.1v4.5c0,6.1-5,11.1-11.1,11.1h-194.1c-6.1,0-11.1-5-11.1-11.1v-4.5c0-6.1,5-11.1,11.1-11.1h0Z" fill="#ff7200"/>
    <path d="m235.3,254.7h.9v7.3h4.5v.7h-5.4v-8h0Z" fill="#fff"/>
    <path d="m241.2,259.7c0-1.7,1.4-3.1,3.1-3.1s3.1,1.4,3.1,3.1-1.4,3.1-3.1,3.1c-1.7.1-3-1.3-3.1-2.9v-.2Zm5.4,0c-.1-1.2-1.1-2.2-2.4-2.1-1.2.1-2.2,1.1-2.1,2.4.1,1.2,1.1,2.1,2.3,2.1s2.2-1,2.2-2.2v-.2h0Z" fill="#fff"/>
    <path d="m254.7,256.7v5.3c0,2.1-1,3-3,3-1,0-2-.3-2.8-.9l.4-.6c.7.6,1.5.9,2.4.8,1.5,0,2.2-.7,2.2-2.2v-.8c-.5.8-1.4,1.2-2.4,1.2-1.6,0-2.9-1.3-2.9-2.9s1.3-2.9,2.9-2.9h0c1,0,1.9.4,2.4,1.2v-1.2h.8Zm-.8,2.9c0-1.3-.9-2.3-2.2-2.4-1.3,0-2.3.9-2.4,2.2,0,1.3.9,2.3,2.2,2.4h.1c1.2.1,2.2-.8,2.3-2v-.2h0Z" fill="#fff"/>
    <path d="m259.8,254.8c0-.3.3-.6.6-.6s.6.3.6.6-.3.6-.6.6-.6-.3-.6-.6Zm.1,1.9h.8v6.1h-.8v-6.1Z" fill="#fff"/>
    <path d="m268.6,259.2v3.5h-.8v-3.4c.1-.9-.5-1.8-1.4-1.9h-.4c-1.1-.1-2.1.8-2.1,1.9v3.5h-.8v-6.1h.8v1.1c.5-.8,1.4-1.2,2.3-1.2,1.3-.1,2.4.8,2.5,2.1-.1.2-.1.4-.1.5Z" fill="#fff"/>
  </g>
  <g id="freepik--Character--inject-35">
    <path d="m31.1,422.2l-1.3,7.4,1.1.2c4.9,1,24.9,4.9,28.3,4.4,3.8-.5-10.8-6.3-10.8-6.3l.5-3.1s-17.8-2.6-17.8-2.6Z" fill="#ff7200"/>
    <g opacity=".5">
      <path d="m36.3,430.4c0-1.5-.6-3-1.7-4.1-1-1.1-2.5-1.8-4-1.9l-.8,5,6.5,1Z" fill="#fff"/>
    </g>
    <g opacity=".5">
      <path d="m55.5,431s5.1,2.4,4.3,3.1-21.2-2.4-30-4.6l.1-.4,23.7,3.9c0,.1.9-2.1,1.9-2Z" fill="#fff"/>
    </g>
    <path d="m29.6,429.1c.1,0,.2.1.3.1l.9.2,3.2.6c2.7.5,6.5,1.2,10.7,1.9s8,1.1,10.7,1.5l3.3.4.9.1h.3l-.3-.1-.9-.1-3.2-.4c-2.8-.4-6.5-.9-10.7-1.5s-8-1.3-10.7-1.8l-3.2-.6-.9-.1s-.4-.2-.4-.2Z" fill="#263238"/>
    <path d="m53.6,433.3c.2-.5.5-1,.8-1.5.4-.4.8-.8,1.3-1.1-.6.1-1.1.4-1.5.9-.4.6-.6,1.1-.6,1.7Z" fill="#263238"/>
    <path d="m48.7,429.9s.3-.2.7-.6.5-.7.5-.7c0,0-.3.2-.7.6s-.5.6-.5.7Z" fill="#263238"/>
    <path d="m47.4,428.9s.3-.1.7-.3c.4-.2.6-.5.6-.5,0,0-.3.1-.7.3s-.7.4-.6.5Z" fill="#263238"/>
    <path d="m46.7,427c-2.3.2-4.1,2.2-3.9,4.5.2,2.3,2.2,4.1,4.5,3.9s4.1-2.2,3.9-4.5c-.1-1.9-1.6-3.5-3.5-3.9h-1Z" fill="#263238"/>
    <path d="m46.6,425.8c.3.3.6.4,1,.5s.7.1,1.1,0c-.3-.1-.7-.2-1-.2-.4-.2-.7-.2-1.1-.3Z" fill="#263238"/>
    <path d="m49.6,428.4c.4.1.8.2,1.2.2s.8,0,1.3-.1c.3,0,.5-.1.7-.2.1-.1.3-.2.3-.3.1-.2,0-.4-.1-.5-.8-.6-2-.5-2.7.2-.2.2-.4.4-.5.7-.1.2-.1.3-.1.3.2-.3.4-.6.7-.9s.7-.4,1.1-.5c.5-.1,1,0,1.3.3.2.2,0,.4-.2.5s-.4.1-.7.2c-.4.1-.8.1-1.2.1h-1.1Z" fill="#263238"/>
    <path d="m49.8,428.5s.2-.2.3-.8c0-.3-.1-.6-.2-.9-.1-.4-.5-.7-.9-.7-.2,0-.4.2-.4.5h0c0,.2,0,.4.1.5.1.3.3.5.4.8.4.4.6.6.7.6-.1-.1-.3-.3-.6-.7-.1-.2-.3-.5-.4-.8s-.2-.7.1-.7.5.4.7.6c.1.2.2.5.2.8.1.3.1.5,0,.8h0Z" fill="#263238"/>
    <path d="m30.7,424.3s.5,0,1.3.2c1,.3,2,.9,2.7,1.6.7.8,1.2,1.8,1.4,2.8.2.8.1,1.3.1,1.3,0-.1.1-.2.1-.4v-1c-.2-1.1-.6-2.1-1.4-2.9-.8-.8-1.7-1.4-2.8-1.6-.3-.1-.7-.1-1-.1-.1.1-.2.1-.4.1Z" fill="#263238"/>
    <path d="m38.8,429c.8.3,1.7.5,2.6.7.9.2,1.8.2,2.6.2,0-.1-1.2-.2-2.6-.4s-2.6-.5-2.6-.5h0Z" fill="#263238"/>
    <path d="m35.3,428.5s.1.3.1.5.1.5.2.5.1-.3,0-.6-.3-.4-.3-.4Z" fill="#263238"/>
    <path d="m34.3,426.7s0,.2.2.5.3.4.4.3,0-.2-.2-.5-.4-.4-.4-.3Z" fill="#263238"/>
    <path d="m32.5,425.6c0,.1.2.1.5.2s.4.3.5.3,0-.3-.4-.5-.6,0-.6,0Z" fill="#263238"/>
    <path d="m31.2,425.1s.1.2.2.2.3.1.3,0-.1-.2-.2-.2-.3-.1-.3,0Z" fill="#263238"/>
    <path d="m124.9,428.5l.7,7.4h1.1c5-.3,25.3-1.8,28.5-3.1,3.6-1.5-12-3.3-12-3.3l-.4-3.1-17.9,2.1Z" fill="#ff7200"/>
    <g opacity=".5">
      <path d="m132.1,435.1c-.4-1.5-1.4-2.8-2.7-3.6-1.3-.8-2.8-1.1-4.3-.8l.6,5,6.4-.6Z" fill="#fff"/>
    </g>
    <g opacity=".5">
      <path d="m150.8,430.6s5.5.9,4.9,1.9-21,3.2-30.1,3.4v-.4l23.9-2.4s.2-2.3,1.3-2.5Z" fill="#fff"/>
    </g>
    <path d="m125.3,435.6h1.2l3.3-.2c2.8-.2,6.6-.5,10.8-1s8-1,10.7-1.4l3.2-.5.9-.1c.1,0,.2,0,.3-.1h-.3l-.9.1-3.3.4c-2.7.4-6.5.8-10.7,1.3s-8,.8-10.8,1.1l-3.2.2-.9.1s-.3.1-.3.1Z" fill="#263238"/>
    <path d="m149.5,433.4c.1-.6.2-1.1.4-1.6.3-.5.6-1,1-1.4-.5.3-.9.7-1.2,1.3-.2.5-.3,1.1-.2,1.7Z" fill="#263238"/>
    <path d="m143.9,431.3c.1,0,.3-.3.5-.8.2-.3.3-.5.3-.8,0,0-.3.3-.5.8s-.4.8-.3.8Z" fill="#263238"/>
    <path d="m142.4,430.7c.1,0,.3-.2.6-.5s.5-.6.4-.6-.3.2-.6.5-.5.5-.4.6Z" fill="#263238"/>
    <path d="m141.3,429.1c.3.1.6.1.9,0,.3,0,.6-.1.9-.2-.3-.1-.7-.1-1,0-.3,0-.6.1-.8.2h0Z" fill="#263238"/>
    <path d="m140.8,427.9c.3.2.7.2,1.1.2s.7-.1,1.1-.3h-1.1c-.4.1-.7.1-1.1.1h0Z" fill="#263238"/>
    <path d="m144.3,429.6c.4,0,.8,0,1.1-.1.4-.1.8-.2,1.2-.4.2-.1.5-.2.7-.4.1-.1.2-.2.2-.4s-.1-.4-.2-.5c-1-.3-2,0-2.5.9-.2.2-.3.5-.3.8v.3c.1-.4.2-.7.4-1s.5-.6.9-.8c.4-.2.9-.2,1.4-.1.2.1.1.3,0,.5-.2.1-.4.3-.6.4-.4.2-.8.3-1.2.4-.6.4-1.1.4-1.1.4h0Z" fill="#263238"/>
    <path d="m144.6,429.7c.1-.3.1-.6,0-.8-.1-.3-.2-.6-.4-.8-.2-.3-.6-.5-1-.5-.2.1-.4.3-.3.6.1.2.1.3.3.5s.4.5.6.6c.2.2.4.3.7.4,0,0-.2-.2-.6-.5-.2-.2-.4-.4-.6-.6-.2-.2-.3-.6-.1-.7s.6.2.8.4c.2.2.3.4.4.7.2.2.2.4.2.7h0Z" fill="#263238"/>
    <path d="m125.1,430.6s.5-.1,1.3-.1c2.2,0,4.2,1.2,5.1,3.2.4.7.4,1.3.5,1.2s0-.1,0-.4c-.1-.3-.2-.6-.3-.9-.9-2.1-3-3.4-5.2-3.3-.3,0-.7,0-1,.1-.2.1-.3.2-.4.2h0Z" fill="#263238"/>
    <path d="m134.1,433.1c.9.1,1.8.1,2.6,0,.9-.1,1.8-.2,2.6-.5,0-.1-1.2.1-2.6.3s-2.6.1-2.6.2Z" fill="#263238"/>
    <path d="m130.6,433.5s.1.2.3.5.2.5.3.5.1-.3-.1-.6-.5-.5-.5-.4Z" fill="#263238"/>
    <path d="m129.1,432s.1.2.3.4.4.3.4.2-.1-.2-.3-.4-.4-.3-.4-.2Z" fill="#263238"/>
    <path d="m127.1,431.4c0,.1.2,0,.5.1s.5.2.5.1-.1-.3-.5-.4-.5.2-.5.2h0Z" fill="#263238"/>
    <path d="m125.7,431.2c0,.1.1.1.2.2s.3,0,.3,0l-.2-.2c-.1-.1-.3,0-.3,0Z" fill="#263238"/>
    <path d="m130.1,146.4c-1.4-7.6-9.9-11.9-13.2-19-1.3-2.7-1.8-5.8-3.2-8.5-3.3-5.8-10.4-8.4-16.7-6.1l-.5.8c3.4,7.2,6.8,12.1,10.2,19.3,1.3,2.5,2.2,5.1,2.7,7.9.3,2.8-.4,5.8-2.6,7.6-1.7,1.4-4,1.9-5.9,3.1-2.8,2.1-4.2,5.5-3.8,8.9.5,3.4,2.1,6.5,4.4,9,2.2,2.4,5.7,4.5,8.6,3,1.5-.8,2.4-2.2,3.5-3.5,2.2-2.6,5.3-4.2,8-6.2,5.4-3.7,9.7-9.9,8.5-16.3Z" fill="#263238"/>
    <path d="m203.7,182c-1.9,1.8-12.4,10.5-12.4,10.5l-10.4-9.4c.3-.8,2.8-5.1,3.1-6.2.3-.9.3-1.9.3-2.9,0-1.2-.3-2.4-.6-3.6-.5-1,.6-2.1,1.4-1.6s2.2,3.3,2.2,6.9,14-4.6,16-2.6l.4,8.9h0Z" fill="#ffbe9d"/>
    <path d="m114.5,167.9l34.4,41.2,31.6-28.6,13.8,13.4s-39.6,43.6-45.7,43.3-26.6-13.9-26.6-13.9c0,0-7.5-55.4-7.5-55.4Z" fill="#ff7200"/>
    <path d="m192.6,161.7c-.3-.1-.6.1-.7.3l-9.4,23.6c-.2.4,0,.9.4,1.1l11.1,5.3c.4.2,1,0,1.2-.4h0l10.5-24.4c.2-.5,0-1-.5-1.2h-.1l-12.5-4.3h0Z" fill="#263238"/>
    <polygon points="192.3 163.4 183.7 184.5 195.3 189.8 204.1 167.4 192.3 163.4" fill="#f5f5f5"/>
    <path d="m188.9,200c-.9-.5-1.7-1.1-2.4-1.7-1.4-1.1-3.4-2.8-5.4-4.8s-3.7-3.9-4.9-5.3c-.7-.7-1.3-1.5-1.8-2.4l2.1,2.1c1.2,1.4,3,3.2,5,5.2s3.9,3.7,5.3,4.9c.7.7,1.4,1.3,2.1,2h0Z" fill="#263238"/>
    <path d="m179.1,184.5c.1.1-.4.4-.3,1.1,0,.4.2.8.5,1,.6.4,1.4.2,1.8-.4.1-.2.2-.5.2-.7-.1-.4-.3-.8-.6-1s-.7-.3-1.1-.3c0,0,.1-.1.3-.2.3-.1.7,0,1,.1.5.2.8.7.9,1.2.1,1-.6,1.8-1.6,1.9-.4,0-.8-.1-1.2-.3-.4-.3-.6-.9-.6-1.4,0-.3.1-.7.4-.9.1-.1.2-.1.3-.1h0Z" fill="#263238"/>
    <path d="m147.6,221.1c-.3-.6-.4-1.2-.5-1.8-.5-3-.1-6,1-8.8.2-.6.5-1.1.9-1.6-.7,2-1.2,4-1.5,6-.2,2-.2,4.1.1,6.2h0Z" fill="#263238"/>
    <path d="m152.5,220.8c-.5-.4-.8-1-1.1-1.5-1.5-2.7-2.4-5.7-2.5-8.8-.1-.6,0-1.3.1-1.9.2,2.1.6,4.2,1.1,6.3.7,2,1.5,3.9,2.4,5.9Z" fill="#263238"/>
    <polygon points="192.5 167.4 186.8 181.5 195.3 185 201.3 170.5 192.5 167.4" fill="#ebebeb"/>
    <path d="m189.8,179.2l5,2.1c.4.2.5.6.4,1l-.1.2c-.2.4-.6.5-1,.4l-5-2.1c-.4-.2-.5-.6-.4-1l.1-.2c.2-.4.7-.5,1-.4Z" fill="#ff7200"/>
    <rect x="195.59" y="167.92" width="1" height="6.8" transform="translate(-33.33 294.48) rotate(-69.37)" fill="#455a64"/>
    <rect x="193.81" y="171.08" width="1.9" height="7.5" transform="translate(-37.48 295.51) rotate(-69.37)" fill="#e0e0e0"/>
    <rect x="192.65" y="174.02" width="1.9" height="7.5" transform="translate(-40.99 296.32) rotate(-69.37)" fill="#e0e0e0"/>
    <path d="m203.3,173c-1.6.3-3.6.4-5.2.7-.5,0-.9.2-1.3.4-.4.3-.5.8-.3,1.2s.9.5,1.4.5l3.6-.1c-1.5.1-3,.3-4.5.8-.7.2-1.4.7-1.4,1.4.1.6.6,1.1,1.2,1.2h1.9s2.4,0,2.5.4c-1.5,0-3.5.3-5,.4-.4,0-.6.6-.7,1-.1.4.1.8.4,1.1.2.1.4.1.6.1l5.9-.2" fill="#ffbe9d"/>
    <path d="m102.3,165.4s7.2-.8,12.2,2.5c4.5,3,20.4,48.5,19.8,62.1s1.1,37.4,3.9,47.2,4.9,95-17,135.6l-40.7-5.8,12.7-109.4-1.3-99.3,10.4-32.9h0Z" fill="#ff7200"/>
    <g opacity=".3">
      <path d="m100,165.4s7.2-.8,12.2,2.5c4.5,3,20.4,48.5,19.8,62.1s1.1,37.4,3.9,47.2,4.9,95-17,135.6l-37.2-5.7,9.2-109.4-1.4-99.3,10.5-33h0Z"/>
    </g>
    <path d="m85,163.3s-22.4-2.4-16.4,29.6l5.8,33.7,36.6,22.1c4.9,1.3.7-23,8.2-34.3,2.8-4.2,3-7.4,2.8-9.3.7-7.4-5.2-11.9-6-19.4-.9-10.8-.9-16.7-5.6-17.9l-25.4-4.5" fill="#455a64"/>
    <path d="m116.3,183.3c-.4,1.5-.4,3.2,0,4.7.4,1.7,1.1,3.3,2,4.8,1.1,1.8,2.1,3.8,2.9,5.8,1.3,3.8,1.4,7.8.1,11.6-.4,1.1-.8,2.2-1.4,3.2-.2.4-.5.8-.7,1.1.7-1.4,1.3-2.9,1.8-4.4,1.1-3.7,1-7.7-.3-11.3-.8-2-1.7-3.9-2.8-5.7-.9-1.5-1.5-3.2-1.9-4.9-.3-1.2-.3-2.4-.1-3.6.1-.3.2-.6.3-.9.1-.3.1-.4.1-.4h0Z" fill="#263238"/>
    <path d="m105.1,165.6c-.5-5.5-1-11.3-1-11.3,0,0,7-1.9,7.5-11.3.5-9-2.2-24.6-2.2-24.6v-.8c-10.6-3.2-23.2-3-29.7,5.9h0l5,44.7c.6,5.2,5.5,8.8,11.1,8.2h0c5.7-.7,9.8-5.5,9.3-10.8h0Z" fill="#ffbe9d"/>
    <path d="m109.5,129.8c.1.6-.4,1.2-1,1.3s-1.2-.3-1.3-.9h0c-.1-.6.4-1.2,1-1.3.6-.2,1.2.2,1.3.9q0-.07,0,0Z" fill="#263238"/>
    <path d="m109.5,128.5c-.1.2-1.1-.4-2.4-.3s-2.2.9-2.3.7,0-.4.4-.7c.5-.4,1.2-.7,1.8-.8.7-.1,1.3.1,1.9.4.5.3.6.6.6.7Z" fill="#263238"/>
    <path d="m96.2,131.5c.1.6-.4,1.2-1,1.3s-1.2-.3-1.3-.9v-.1c-.1-.6.4-1.2,1-1.3s1.2.3,1.3,1c0-.1,0,0,0,0Z" fill="#263238"/>
    <path d="m96.2,130.2c-.1.2-1.1-.4-2.4-.3s-2.2.9-2.3.7.1-.4.4-.7c.5-.4,1.2-.7,1.8-.8.7-.1,1.3.1,1.9.4.5.4.6.7.6.7h0Z" fill="#263238"/>
    <path d="m101.7,139.3c.6-.3,1.3-.5,2-.6.3-.1.6-.2.7-.4,0-.3-.1-.7-.3-.9l-1.2-2.4c-1.1-2-2-4.1-2.8-6.3,1.3,1.9,2.4,3.9,3.3,6.1l1.2,2.4c.2.4.4.8.3,1.3-.1.2-.3.4-.5.5s-.4.1-.6.1c-.7.1-1.4.2-2.1.2h0Z" fill="#263238"/>
    <path d="m104.1,154.3c-4.4.5-8.8-.2-12.7-2.1,0,0,3.6,6.1,12.8,4.3,0,0-.1-2.2-.1-2.2Z" fill="#eb996e"/>
    <path d="m101.5,142.4c-.6-.6-1.4-.8-2.2-.6-.6.1-1.1.4-1.4.9s-.3,1.1,0,1.5c.5.4,1.1.5,1.7.3.6-.3,1.1-.7,1.5-1.1.1-.1.2-.3.3-.4.2-.2.2-.4.1-.6" fill="#ff7200"/>
    <path d="m98.1,140.5c.2,0,.3,1.4,1.6,2.2s2.8.6,2.8.8-.3.3-.9.4c-.8.1-1.6-.1-2.3-.6-.7-.4-1.1-1.1-1.3-1.9-.2-.5,0-.9.1-.9Z" fill="#263238"/>
    <path d="m61.2,291.6l-14.2,58.6s-16.9,70.1-17.5,72l-.5,2.2,23.9,1.8,41.4-130.1s-33.1-4.5-33.1-4.5Z" fill="#263238"/>
    <path d="m104.2,332.7c3.9,18.7,18,97,18,97l24.2-2.5-13.8-99.9c-.2-2.6-.7-5.2-1.6-7.7l-22.6-67.9-42.6-27.1c-.4,0-6.9,17.5-6,29.6.5,5.4,2.4,10.6,5.5,15.1,2.7,4,6.5,9.5,7.3,10.7,1.4,2.2,31.6,52.7,31.6,52.7h0Z" fill="#263238"/>
    <path d="m55.8,248.2c-1.2,4.2-2.1,8.5-2.9,12.8-2.7,15.7-9.6,53.9-14.1,64-5.7,12.8-14.9,61.1-12.1,70s64.7,17.8,64.7,17.8c0,0,3.6-58,7.1-72.5s11-46.6,12.1-65.4.7-51.6-5.3-71.8-19.9-41.6-19.9-41.6c0,0-11.9,3.3-15.9,8,0,0-4.9,6.1-5,11.8s-2.7,33.2-4.5,49.1c-.7,4.6-2.7,12.4-4.2,17.8h0Z" fill="#ff7200"/>
    <path d="m110.6,273.9v-1.2c0-.8-.1-1.9-.2-3.3-.2-4-.5-8-1.2-12-.4-2.7-1.2-5.4-2.2-8-1.2-2.9-2.8-5.7-4.8-8.1-2.1-2.6-4.5-5.2-6.8-8-1.2-1.4-2.3-2.9-3.4-4.5s-1.9-3.3-2.6-5.1c-1.5-3.6-1.7-7.5-.6-11.2.7-1.7,1.6-3.3,2.6-4.7.4-.7.8-1.5,1-2.3.1-.4.1-.8.1-1.2s-.2-.8-.4-1.1c-.5-.6-1.1-1.1-1.9-1.3-.8-.3-1.5-.5-2.3-.8s-1.4-.9-1.9-1.6c-.4-.7-.7-1.4-.8-2.2-.2-1.5-.1-2.9.1-4.4.2-1.4.4-2.7.6-3.9.7-5,1.3-9.1,1.8-11.9.2-1.4.4-2.5.5-3.2l.2-.8c0-.1,0-.2.1-.3v.3c0,.2,0,.5-.1.9-.1.8-.2,1.9-.4,3.2-.4,2.9-.9,6.9-1.6,11.9-.2,1.3-.3,2.6-.5,3.9-.2,1.4-.3,2.8-.1,4.2.1.7.4,1.4.8,2s1,1.1,1.7,1.4c.7.3,1.5.5,2.3.8s1.6.8,2.1,1.5c.3.4.4.8.5,1.3,0,.5,0,.9-.1,1.4-.2.9-.6,1.7-1.1,2.4-1,1.4-1.9,3-2.6,4.7-1,3.6-.8,7.4.6,10.9s3.4,6.7,5.9,9.5c2.3,2.8,4.8,5.4,6.8,8,2,2.5,3.6,5.4,4.8,8.4,1,2.6,1.7,5.3,2.1,8.1.6,4,.9,8,1,12,0,1.4,0,2.5.1,3.3v.9c-.1,0-.1.1-.1.1h0Z" fill="#263238"/>
    <path d="m102.7,281.8s.1-.2.3-.3c.4-.2.8-.3,1.2-.2.6.1,1.2.6,1.3,1.2.3.9-.2,1.9-1.1,2.2-.6.2-1.3,0-1.8-.4s-.7-1.1-.4-1.7c.1-.4.4-.7.7-.9.2-.1.4-.1.4-.1-.4.3-.7.7-.8,1.1-.1.5,0,1,.4,1.3.5.5,1.4.5,1.9-.1.3-.3.4-.8.3-1.3s-.5-.8-.9-.9c-.5-.1-1-.1-1.5.1h0Z" fill="#263238"/>
    <path d="m96.1,316.3s.1-.2.3-.3c.3-.2.8-.3,1.2-.2.6.1,1.2.6,1.3,1.2.3.9-.2,1.9-1.1,2.2-.6.2-1.3,0-1.8-.4-.7-.6-.7-1.7,0-2.4.1-.1.2-.2.3-.3.2-.1.4-.1.4-.1-.4.3-.7.7-.8,1.1-.1.5,0,1,.4,1.3.4.4,1.1.4,1.6.2.5-.3.7-.9.6-1.5-.1-.5-.5-.9-1-.9-.5-.2-1-.1-1.4.1h0Z" fill="#263238"/>
    <path d="m95.9,273.2v.3c0,.3,0,.6-.1,1-.1.9-.2,2.1-.4,3.8-.4,3.3-1,8-1.8,13.8-.4,2.9-1,6.1-1.7,9.5-.3,1.8-.8,3.5-1.4,5.2-.1.2-.2.4-.3.7-.1.2-.3.4-.5.6-.4.3-.8.6-1.2.8-.9.4-1.8.7-2.8,1-4,.8-8.1,1.3-12.2,1.4-4.4.2-8.8.1-13.1-.1l-.6-.1c-.3,0-.5-.2-.6-.4-.2-.4-.3-.7-.3-1.1-.1-.7-.1-1.5-.1-2.2,0-1.4.2-2.9.3-4.2.3-2.8.8-5.5,1.2-8.1.9-5.3,1.9-10.2,2.9-14.7v-.2h.3c8-.7,15.9-2.1,23.7-4.1,2.8-.7,5-1.4,6.5-1.9l1.7-.5c.2-.4.4-.5.5-.5l-.1.1-.4.2c-.4.1-.9.4-1.7.6-1.5.5-3.7,1.2-6.5,2-7.8,2.1-15.7,3.6-23.7,4.3l.2-.2c-1,4.5-1.9,9.5-2.8,14.7-.4,2.6-.9,5.3-1.2,8.1-.2,1.4-.3,2.8-.3,4.2,0,.7,0,1.4.1,2.1,0,.3.1.6.2.9.1.1.1.2.2.2l.5.1c4.3.3,8.7.3,13.1.2,4-.1,8.1-.5,12-1.3.9-.2,1.8-.5,2.7-.9.8-.3,1.5-1,1.8-1.8.6-1.7,1.1-3.4,1.4-5.1.7-3.4,1.3-6.5,1.7-9.5.9-5.8,1.6-10.5,2-13.8.2-1.6.4-2.9.5-3.8.1-.4.1-.7.1-1s.2-.3.2-.3h0Z" fill="#263238"/>
    <path d="m95.3,280.5c-.4.3-.8.5-1.2.6-.8.4-1.9.9-3.4,1.4-7.6,2.8-15.6,4.1-23.7,3.9-1.6,0-2.8-.1-3.7-.2-.4,0-.9-.1-1.3-.2.4-.1.9-.1,1.3,0,.9,0,2.1.1,3.6.1,8,0,16-1.3,23.6-3.9,1.5-.5,2.6-.9,3.4-1.2.5-.3.9-.4,1.4-.5h0Z" fill="#263238"/>
    <path d="m39.1,252.3l.1-.5c.1-.3.2-.8.3-1.4.3-1.2.7-3,1.2-5.3,1.1-4.6,2.8-11.1,4.9-19.2l3.6-13.2c1.3-4.8,2.7-9.9,4.3-15.2,1.7-5.6,3.7-11,6.2-16.3,1.3-2.8,2.8-5.5,4.4-8.1.8-1.4,1.7-2.6,2.8-3.9,1-1.2,2.3-2.3,3.8-3s3.2-.9,4.8-.4c1.5.5,2.9,1.5,3.9,2.8,2,2.6,2.5,5.8,2.8,8.8.5,6,1,11.8,1.5,17.4.9,11.1,1.8,21,2.4,29.4s1.2,15.1,1.6,19.8c.2,2.3.3,4.1.4,5.4,0,.6.1,1.1.1,1.4v.5s0-.2-.1-.5-.1-.8-.1-1.4l-.5-5.4c-.4-4.7-1-11.4-1.8-19.8s-1.6-18.3-2.6-29.4c-.5-5.5-1-11.3-1.5-17.3-.3-2.9-.8-6.1-2.7-8.5-.9-1.2-2.2-2.1-3.6-2.6-1.5-.5-3.1-.3-4.4.4-1.4.7-2.6,1.7-3.6,2.9s-1.9,2.4-2.7,3.8c-1.6,2.6-3.1,5.2-4.4,8-2.4,5.3-4.5,10.7-6.2,16.2-1.6,5.3-3,10.4-4.3,15.1s-2.5,9.2-3.7,13.2c-2.2,8.1-3.9,14.7-5.1,19.2-.6,2.3-1,4-1.3,5.2-.2.6-.3,1-.4,1.4s-.1.5-.1.5h0Z" fill="#455a64"/>
    <path d="m36.7,248.8c-.4,1.6-7.7,42.9-7.7,42.9l54.1,1.8,7.4-42.9-53.8-1.8Z" fill="#263238"/>
    <path d="m90,251.4c-.2.1-.3.3-.5.4-.3.2-.8.5-1.5,1-1.3.8-3.2,2-5.5,3.3s-5.2,2.9-8.5,4.4c-1.6.8-3.3,1.6-5.2,2.2-1.9.6-4,.9-6,.9-4-.2-7.9-1.2-11.4-3-2.9-1.4-5.5-3.2-8-5.2-2.1-1.7-3.7-3.2-4.8-4.3-.5-.5-1-1-1.2-1.2-.1-.1-.3-.3-.4-.5.2.1.3.2.5.4.3.3.8.7,1.3,1.2,1.1,1,2.8,2.5,4.9,4.1,2.5,2,5.2,3.7,8,5.1,3.5,1.7,7.3,2.7,11.1,2.8,2,.1,4-.2,5.9-.8,1.8-.6,3.5-1.5,5.2-2.2,3.2-1.5,6.1-3,8.5-4.3s4.3-2.4,5.6-3.2l1.5-.9c.1-.1.3-.1.5-.2h0Z" fill="#455a64"/>
    <path d="m86.7,253.2c.1,0-1.3,9-3.2,20.1s-3.6,20-3.8,20,1.3-9,3.2-20.1,3.7-20,3.8-20h0Z" fill="#455a64"/>
    <path d="m61.3,261.9c-.2,1.3-.3,2.7-.4,4-.1.4-.1.8,0,1.3.1.4.4.8.8.9.5.1,1-.2,1.2-.7s.3-1,.3-1.5c.1-1.4.2-2.9.2-4.3h-1.8" fill="#455a64"/>
    <path d="m72.4,167c4.4-1.5,8.1,4.2,8.6,8.8.5,5.3.6,10.7.3,16-.8,15.8-7.9,30.8-7.9,30.8l45.2,6.8-1.7,17.4-57.2-6.1c-7.4-.8-12.8-7.5-12-14.9.1-.9.3-1.7.5-2.5,5.1-16.7,13.5-40.6,15.3-44.6,2.6-5.5,2.8-9.7,8.9-11.7h0Z" fill="#ff7200"/>
    <path d="m57.6,240.2h.3l.9.1,3.3.5c2.9.4,7.1,1,12.4,1.6,10.6,1.2,25.4,2.7,42.5,4l-.3.2c.5-5.5,1.1-11.4,1.7-17.4h0l.2.3-45.2-6.8h-.2l.1-.2c2.9-9.1,5.2-16.6,6.5-21.9.7-2.6,1.2-4.7,1.4-6.1l.3-1.6c.1-.4.1-.6.1-.6,0,0,0,.2-.1.6s-.1.9-.3,1.6c-.2,1.4-.7,3.5-1.3,6.2-1.3,5.3-3.5,12.9-6.4,22l-.2-.3,45.3,6.7h.2v.2h0c-.6,6-1.1,11.8-1.7,17.4v.2h-.2c-17.1-1.3-31.9-2.9-42.5-4.2-5.3-.7-9.5-1.3-12.4-1.8l-3.4-.6-.8-.2s-.2.1-.2.1Z" fill="#263238"/>
    <path d="m108,246c0-3,.2-6,.6-9,.2-3,.6-6,1.1-9,0,3-.2,6-.6,9-.2,3-.5,6-1.1,9Z" fill="#263238"/>
    <path d="m113.8,231s.1-.1.3,0c.3.1.6.3.8.5.3.4.3,1,.1,1.4-.4.7-1.3,1-2,.6-.4-.2-.7-.6-.7-1.1-.1-.5.1-1,.5-1.3.6-.6,1.2-.4,1.2-.3s-.5.1-.9.6c-.2.3-.3.6-.3,1,.1.4.4.8.8.9.4.1.8-.1,1.1-.5.2-.3.2-.7,0-1-.4-.7-.9-.8-.9-.8h0Z" fill="#263238"/>
    <polygon points="128.3 224.3 130.4 245.7 140.9 245.7 143.4 224.3 128.3 224.3" fill="#ebebeb"/>
    <path d="m128.3,221.5c-.6.8-1,1.8-1,2.8h17c.2-1.1-.2-2.1-1-2.8h-15Z" fill="#455a64"/>
    <polygon points="130.3 219.5 129.7 221.6 142.5 221.8 141.7 219.5 130.3 219.5" fill="#455a64"/>
    <path d="m128.1,229.6c0,.2,1.2,10.8,1.2,10.8h12.8l1.2-10.8h-15.2Z" fill="#455a64"/>
    <path d="m128.9,227.7l-.3,3.6,12.4.3s0,4.2-1.2,5.4c0,0,1.2,2.5-.1,3.9s-2.2,1-2.2,1c0,0,.6,2.8-.8,3.5s-19.4-.4-19.4-.4l1.1-11.6,4-.4c0-3.8,4-5.7,6.5-5.3h0Z" fill="#ffbe9d"/>
    <path d="m113.3,118.5c-.7-2.1-2.1-3.9-3.9-5-1.3-.7-2.7-1-4.2-.9h0v-.3c-1.3-2.4-4-2.9-6.7-2.5s-5.4,2.5-7.9,3.8c-3.3,1.8-6.4,3.8-9.6,5.8-2.6,1.7-5.3,3.4-7.1,5.9-1.9,2.7-2.7,6-2.1,9.3.7,3.5,2.8,7.1,1.5,10.4-.9,2.2-3,3.6-4.5,5.5-2.3,3.1-2.4,7.2-.2,10.4,1.5,2,3.7,3.1,5.7,4.5,3.2,2.1,6.1,4.8,9.6,6.5s7.9,2.3,11.1.1,4.4-6.8,3.8-10.7-2.5-7.6-4-11.2c-2-4.8-3.4-9.8-4.1-15-.3-2.1-.4-4.3.5-6.1.9-1.6,2.5-2.7,4-3.8,3.5-2.6,6.4-6,8.6-9.8.7,1.9,1.9,3.5,3.4,4.8,2,1.9,4.3,3.5,6.7,4.8.3-2.3,0-4.4-.6-6.5Z" fill="#263238"/>
  </g>
  <g id="freepik--Plant--inject-35">
    <path d="m428.8,415.6c-.7-2.6,1.1-5.3,3-7.2s4.3-3.6,5.3-6.1c1.7-4.1-.5-9.4,2.3-12.9,1.7-2,4.6-2.7,6.1-4.8.7-1.2,1.1-2.5,1.3-3.9,1.6-6.8,5-13.1,9.8-18.1.3,6.1-1.1,12.1-3.9,17.5-1.1,2.1-2.5,4.2-2.9,6.6-.6,3.9,1.5,7.9.5,11.8-1.1,4.4-6.1,7.3-6.3,11.8-.2,3.8,3.1,7.2,2.8,11-.2,1.6-.8,3.2-1.7,4.5-3,4.9-7.3,8.2-13.9,8.1l-8,.2,5.6-18.5h0Z" fill="#ff7200"/>
    <g opacity=".3">
      <path d="m428.8,415.6c-.7-2.6,1.1-5.3,3-7.2s4.3-3.6,5.3-6.1c1.7-4.1-.5-9.4,2.3-12.9,1.7-2,4.6-2.7,6.1-4.8.7-1.2,1.1-2.5,1.3-3.9,1.6-6.8,5-13.1,9.8-18.1.3,6.1-1.1,12.1-3.9,17.5-1.1,2.1-2.5,4.2-2.9,6.6-.6,3.9,1.5,7.9.5,11.8-1.1,4.4-6.1,7.3-6.3,11.8-.2,3.8,3.1,7.2,2.8,11-.2,1.6-.8,3.2-1.7,4.5-3,4.9-7.3,8.2-13.9,8.1l-8,.2,5.6-18.5h0Z"/>
    </g>
    <path d="m421.5,434.4c-.7.1-1.5.1-2.2-.1-.9-.1-1.8-.4-2.6-.7-1.2-.4-2.3-1-3.2-1.8-.6-.5-1-1.1-1.3-1.8-.2-.8-.4-1.6-.4-2.4,0-.9-.1-1.7-.2-2.6-.2-.9-.5-1.8-1-2.6-.9-1.7-2.5-3.3-3-5.5s-.1-4.6.2-7,.8-5-.1-7.6-2.6-4.8-3.5-7.6-.4-6-.6-9c0-1.5-.4-3.1-1-4.5s-1.5-2.8-2.2-4.3c-1.4-3-1.6-6.5-2-9.9-.2-1.7-.4-3.4-.5-5.1s-.4-3.5-.9-5.2-1.2-3.4-1.9-5c-.4-.8-.7-1.7-.9-2.6-.1-1-.2-1.8-.2-2.8-.1-1.9,0-3.7.2-5.6s.6-3.7.8-5.6v-.7l.3.2c1.7.9,3.2,2.1,4.4,3.7,1.1,1.5,2,3.2,2.6,4.9,1.1,3.4,1.9,7,2.5,10.6.5,3.4,1.6,6.7,3.2,9.8.9,1.4,1.9,2.8,2.9,4.2,1,1.4,1.7,2.9,2,4.6.5,3.4-1.4,6.4-1.1,9.4.2,1.5.7,2.9,1.4,4.2.7,1.3,1.6,2.5,2.4,3.7s1.5,2.4,2.1,3.7c.6,1.3.9,2.6,1,4,.2,2.7-.2,5.3,0,7.7.2,2.3.9,4.6,2,6.6,1,2,2,3.8,2.9,5.5.5.9.9,1.7,1.2,2.6.3.8.6,1.7.7,2.5.2,1.5.2,3.1,0,4.6-.2,2.1-1,4.2-2.3,5.9-.2.3-.4.5-.7.7l-.5.5c-.3.2-.5.3-.5.3.6-.5,1.1-1,1.6-1.5,1.2-1.7,2-3.7,2.2-5.8.2-1.5.2-3-.1-4.5-.2-.9-.4-1.7-.7-2.5-.4-.9-.8-1.7-1.2-2.5-.9-1.7-2-3.5-3-5.5-1.1-2.1-1.8-4.4-2-6.7-.2-2.5.2-5.1,0-7.7-.1-1.3-.4-2.7-.9-3.9-.6-1.3-1.3-2.5-2.1-3.6-.8-1.2-1.7-2.4-2.4-3.7-.8-1.3-1.3-2.8-1.5-4.4-.4-3.2,1.5-6.2,1-9.4-.3-1.6-1-3.1-1.9-4.4-.9-1.4-2-2.7-2.9-4.2-1.7-3.1-2.8-6.4-3.3-9.9-.7-3.5-1.1-7.1-2.4-10.5-.6-1.7-1.5-3.3-2.6-4.8s-2.5-2.7-4.1-3.5l.4-.2v.3c-.2,1.9-.6,3.7-.8,5.6-.3,1.8-.4,3.7-.3,5.6,0,.9.1,1.8.2,2.7.2.9.5,1.7.9,2.5.7,1.6,1.4,3.3,1.9,5s.8,3.5.9,5.2c.2,1.7.4,3.5.5,5.1.4,3.4.6,6.8,2,9.7.7,1.5,1.6,2.8,2.2,4.3s1,3,1,4.6c.2,3.1-.3,6.1.6,8.9s2.6,5,3.4,7.6.5,5.4.1,7.8-.8,4.8-.3,6.9,2,3.7,2.9,5.5c.5.8.8,1.7,1,2.7.1.9.1,1.8.1,2.6s.1,1.6.3,2.3c.3.7.7,1.2,1.2,1.7.9.8,2,1.4,3.1,1.8.8.3,1.7.6,2.6.7.5.1,1.1.2,1.6.2h.8,0Z" fill="#263238"/>
    <path d="m396.6,339.4c0,.1.1.2.1.2l.2.7c.1.6.3,1.6.6,2.8s1,2.5,1.6,4.2c.7,1.9,1.4,3.8,1.9,5.7.6,2.1,1.1,4.5,1.7,7.1.5,2.7,1.3,5.4,2.5,7.9.6,1.3,1.4,2.6,2,4.1s1,3,1.1,4.6c.4,3.3,1,6.5,1.7,9.8l4.4,18.6c1.4,5.7,2.7,10.9,3.7,15.2s1.9,7.8,2.5,10.2c.3,1.2.5,2.1.6,2.8l.1.7v.2c0-.1-.1-.2-.1-.2l-.2-.7c-.2-.7-.4-1.6-.7-2.8-.6-2.5-1.5-5.9-2.6-10.2s-2.4-9.5-3.8-15.2-2.9-12-4.5-18.6c-.7-3.2-1.3-6.5-1.7-9.8-.2-1.5-.5-3.1-1.1-4.5s-1.3-2.7-1.9-4.1c-1.2-2.5-2.1-5.2-2.5-8-.5-2.6-1-5-1.6-7.1s-1.2-4.1-1.8-5.7-1.3-3-1.6-4.3-.4-2.2-.5-2.8l-.1-.7c0,.1,0,0,0-.1h0Z" fill="#263238"/>
    <path d="m420.1,434.4c-5.2-3.2-6.7-12.7-4.5-18.4s6.1-10.9,6.7-17c.5-4.7-1-9.5.1-14.1,1.5-6.2,7.6-10.9,7.5-17.3,0-3.6-2-6.9-1.9-10.5.2-4.4,3.6-7.8,5.7-11.6,3.2-5.9,3.5-12.8,4.6-19.4s3.7-13.6,9.5-16.9c.8,5.6,2.3,9.5,1.8,17-.2,2.7-3.4,7.9-3.8,13.9-.3,3.6-.5,7.1-.7,10.7s-.5,7-1.7,10.3c-1,2.5-2.5,4.7-3.2,7.3-1.4,4.8.4,10.1-.8,15-.9,4.1-3.8,7.7-4.4,11.9-.9,5.9,2.9,12.1.9,17.7-1,2.8-3.3,5-4,7.9-.5,2.2,0,4.6-.5,6.9-.8,3.6-7.7,6.4-11.4,6.2" fill="#ff7200"/>
    <path d="m446.5,314.9v.3l-.1.9c-.1.8-.3,2-.5,3.5s-1.1,3.3-1.8,5.4-1.4,4.5-2,7.2-1.1,5.7-1.7,8.9c-.4,3.4-1.4,6.8-2.8,10-.8,1.7-1.6,3.4-2.2,5.1-.6,1.8-1,3.7-1.1,5.7-.3,4.1-.9,8.2-1.6,12.2-1.7,8.3-3.2,16.2-4.7,23.4s-2.9,13.6-4,19-2.1,9.8-2.8,12.8c-.3,1.5-.6,2.7-.8,3.5-.1.4-.2.7-.2.9,0,.1-.1.2-.1.3v-.3c0-.2.1-.5.2-.9l.7-3.5,2.6-12.9c1.1-5.4,2.4-11.9,3.9-19.1s3-15.1,4.6-23.4c.8-4,1.3-8.1,1.6-12.2.2-2,.6-3.9,1.2-5.8.6-1.8,1.5-3.5,2.2-5.2,1.4-3.2,2.3-6.5,2.8-9.9.6-3.2,1.1-6.2,1.7-8.9.6-2.4,1.2-4.8,2-7.2.7-2.1,1.5-3.8,1.8-5.3s.5-2.7.6-3.5c.1-.4.1-.7.2-.9s.3-.1.3-.1h0Z" fill="#263238"/>
  </g>
</svg>