<?xml version="1.0" encoding="UTF-8"?>
<svg id="Layer_1" data-name="Layer 1" xmlns="http://www.w3.org/2000/svg" viewBox="0 0 580.2 443.02">
  <g id="freepik--background-complete--inject-47">
    <rect x="43.87" y="143.01" width="134.99" height="198.77" transform="translate(-115.97 102.84) rotate(-33.78)" fill="#f5f5f5"/>
    <polygon points="164.74 279.66 163.47 287.54 107.69 279.5 108.96 271.62 164.74 279.66" fill="#e0e0e0"/>
    <polygon points="136.65 251.55 144.65 252.7 135.78 307.62 127.77 306.46 136.65 251.55" fill="#e0e0e0"/>
    <path d="m85.32,181.75c.08.11-11.16,7.78-25.11,17.1s-25.32,16.8-25.4,16.68,11.16-7.78,25.11-17.11,25.27-16.79,25.4-16.67Z" fill="#e0e0e0"/>
    <path d="m126.54,171.39c.08.12-18.62,12.76-41.76,28.24s-42,27.93-42.06,27.82,18.6-12.77,41.77-28.25,41.97-27.93,42.05-27.81Z" fill="#e0e0e0"/>
    <path d="m134.81,183.75c.08.12-18.62,12.77-41.76,28.25s-42,27.93-42.06,27.81,18.62-12.76,41.77-28.25,41.97-27.93,42.05-27.81Z" fill="#e0e0e0"/>
    <path d="m143.08,196.12c.08.12-18.62,12.77-41.76,28.24s-42,27.94-42,27.82,18.61-12.77,41.76-28.25,41.92-27.93,42-27.81Z" fill="#e0e0e0"/>
    <path d="m151.32,208.49c.08.12-18.62,12.76-41.76,28.24s-42,27.93-42.05,27.81,18.64-12.76,41.81-28.24,42-27.93,42-27.81Z" fill="#e0e0e0"/>
    <rect x="430" y="250.39" width="113.37" height="166.93" transform="translate(-103.46 326.96) rotate(-33.78)" fill="#f5f5f5"/>
    <polygon points="531.52 365.18 530.45 371.8 483.6 365.05 484.68 358.43 531.52 365.18" fill="#e0e0e0"/>
    <polygon points="507.93 341.57 514.65 342.54 507.2 388.66 500.47 387.69 507.93 341.57" fill="#e0e0e0"/>
    <path d="m464.78,283c.08.12-9.35,6.57-21.07,14.4s-21.28,14.09-21.36,14,9.36-6.56,21.07-14.4,21.28-14.17,21.36-14Z" fill="#e0e0e0"/>
    <path d="m499.43,274.25c.08.12-15.61,10.76-35,23.75s-35.26,23.45-35.34,23.33,15.61-10.76,35-23.76,35.23-23.44,35.34-23.32Z" fill="#e0e0e0"/>
    <path d="m506.38,284.63c.08.12-15.61,10.76-35,23.76s-35.26,23.44-35.34,23.32,15.56-10.71,35-23.71,35.28-23.48,35.34-23.37Z" fill="#e0e0e0"/>
    <path d="m513.32,295c.08.12-15.62,10.76-35,23.76s-35.26,23.44-35.34,23.32,15.61-10.75,35-23.76,35.27-23.42,35.34-23.32Z" fill="#e0e0e0"/>
    <path d="m520.32,305.41c.08.12-15.61,10.75-35,23.75s-35.26,23.44-35.34,23.33,15.61-10.76,35-23.76,35.21-23.44,35.34-23.32Z" fill="#e0e0e0"/>
    <rect x="160.57" y="118.24" width="171.69" height="116.6" transform="translate(-25.47 310.57) rotate(-61.86)" fill="#f5f5f5"/>
    <polygon points="239.74 232.37 233.22 234.6 216.66 188.83 223.19 186.59 239.74 232.37" fill="#e0e0e0"/>
    <polygon points="249.74 199.53 252.12 206.1 206.66 221.67 204.28 215.1 249.74 199.53" fill="#e0e0e0"/>
    <path d="m282.04,132c-.08.15-10.5-5.27-23.29-12.1s-23.08-12.5-23-12.65,10.51,5.27,23.3,12.1,23.07,12.49,22.99,12.65Z" fill="#e0e0e0"/>
    <path d="m306.72,159.23c-.08.15-17.34-8.93-38.55-20.27s-38.33-20.66-38.25-20.81,17.33,8.92,38.54,20.27,38.34,20.66,38.26,20.81Z" fill="#e0e0e0"/>
    <path d="m300.66,170.56c-.08.15-17.34-8.92-38.55-20.27s-38.33-20.66-38.25-20.81,17.33,8.93,38.54,20.27,38.34,20.66,38.26,20.81Z" fill="#e0e0e0"/>
    <path d="m294.6,181.89c-.08.15-17.34-8.92-38.55-20.26s-38.33-20.63-38.25-20.81,17.33,8.92,38.54,20.26,38.34,20.66,38.26,20.81Z" fill="#e0e0e0"/>
    <path d="m288.54,193.22c-.08.15-17.34-8.92-38.55-20.26s-38.34-20.66-38.25-20.81,17.33,8.92,38.54,20.26,38.34,20.66,38.26,20.81Z" fill="#e0e0e0"/>
    <rect x="286.49" width="2.58" height="43.98" isolation="isolate" opacity=".2"/>
  </g>
  <g id="freepik--Lamp--inject-47">
    <path d="m227.55,97.19h120.46s-11.12-53.19-61.14-53.19c-44.49,0-59.32,53.19-59.32,53.19Z" fill="#ff7200"/>
    <rect x="286.49" width="2.58" height="43.98" fill="#ff7200"/>
  </g>
  <g id="freepik--Plant--inject-47">
    <path d="m10.61,377.2c3.42.25,6.59,1.87,8.78,4.5,2.16,2.62,3.69,5.7,4.47,9,1.69,6.32.65,13.79-1.15,20.08-6.84-2.45-11.07-9.75-13-13.59-3-6.06-4.79-18.86.87-20" fill="#ff7200"/>
    <path d="m32.56,418.45c-2.09-3.24-2.28-7.36-.5-10.78,1.82-3.36,4.92-5.85,8.6-6.91,1.67-.52,3.61-.73,5.06.24,1.33,1.01,2.01,2.66,1.77,4.31-.26,1.62-.95,3.15-2,4.42-3.33,4.51-7.37,8.26-13,8.72" fill="#ff7200"/>
    <path d="m33.32,439.58c-.15-.42-.25-.86-.31-1.31-.18-.94-.42-2.15-.71-3.6-.9-3.97-1.15-8.06-.74-12.11.47-4.07,2.02-7.94,4.49-11.21.75-.98,1.62-1.86,2.59-2.63.26-.21.54-.4.82-.58.09-.07.19-.14.3-.18-1.26,1.08-2.42,2.28-3.45,3.59-2.34,3.27-3.81,7.08-4.28,11.08-.64,4.66.15,8.93.61,12,.24,1.53.44,2.77.55,3.63.08.44.12.88.13,1.32Z" fill="#263238"/>
    <path d="m12.81,386.83c.11.16.21.33.28.51.18.4.42.9.7,1.53.61,1.33,1.46,3.26,2.49,5.65,2.06,4.79,4.82,11.45,7.7,18.87s5.33,14.19,7,19.12c.86,2.46,1.53,4.46,2,5.85.21.66.37,1.19.5,1.6.07.18.12.37.15.57-.1-.17-.18-.35-.24-.54-.15-.4-.34-.92-.59-1.57l-2.11-5.8c-1.79-4.89-4.29-11.65-7.16-19.06s-5.59-14.09-7.57-18.91c-1-2.37-1.77-4.3-2.34-5.71-.26-.64-.47-1.15-.63-1.56-.08-.18-.14-.36-.18-.55Z" fill="#263238"/>
    <path d="m25.19,425.6c-4.17-6.95-11.44-11.46-19.52-12.13-2-.14-4.46.2-5.36,2s.3,4,1.68,5.46c6,6.27,15.17,8.32,23.27,5.2" fill="#ff7200"/>
    <path d="m8.75,418.89c.42-.02.85,0,1.27.05.49.03.98.08,1.47.17.57.11,1.24.17,1.94.37.78.17,1.55.38,2.31.64.88.28,1.73.62,2.57,1,1.92.86,3.74,1.94,5.42,3.21,1.66,1.3,3.16,2.79,4.48,4.44.57.72,1.09,1.47,1.57,2.25.43.67.83,1.37,1.18,2.09.3.58.57,1.19.8,1.8.2.45.37.92.51,1.4.15.4.26.81.33,1.23-.11,0-.59-1.72-1.94-4.28-.37-.69-.77-1.36-1.21-2-.49-.76-1.01-1.49-1.58-2.19-2.62-3.23-5.95-5.81-9.74-7.52-.87-.38-1.7-.74-2.51-1-.74-.27-1.5-.5-2.27-.69-2.8-.77-4.61-.86-4.6-.97Z" fill="#263238"/>
  </g>
  <g id="freepik--Character--inject-47">
    <path d="m462.68,105.48c-2.94.67-4.37,4.06-4.65,7.06s.1,6.18-1.16,8.92c-1.42,3.08-4.81,5.36-4.92,8.75-.07,2.07,1.16,4,1.1,6.09-.1,3.4-3.56,6-3.75,9.36-.13,2.45,1.5,4.79,1.11,7.21-.3,1.88-1.77,3.36-2.39,5.16-1.23,3.6,1.24,7.55,4.45,9.57,6.82,4.29,15.83,2.24,20.12-4.59.44-.7.82-1.43,1.13-2.19,1.78-4.32,1.39-9.19,1-13.84-1.2-14.51-2.09-29.03-2.68-43.58" fill="#263238"/>
    <path d="m454.14,156.66c.61-.38,1.08-.93,1.35-1.59.29-.78.4-1.62.34-2.45-.11-1.1-.35-2.19-.73-3.23-.48-1.31-.66-2.71-.52-4.1.25-1.56,1.37-2.84,2.38-4.1.54-.62,1-1.31,1.35-2.05.35-.75.41-1.61.16-2.4-.52-1.63-2.12-2.83-2.85-4.72-.34-.94-.4-1.95-.16-2.92.23-.91.56-1.78,1-2.61.84-1.49,1.52-3.07,2-4.71.7-3.17.37-6.2.85-8.69.27-1.99,1.15-3.85,2.53-5.32.39-.39.83-.73,1.32-1,.17-.09.35-.15.53-.19-.63.35-1.2.78-1.71,1.28-1.28,1.48-2.08,3.31-2.31,5.25-.18,1.33-.27,2.66-.28,4,0,1.57-.16,3.14-.46,4.69-.48,1.68-1.15,3.3-2,4.82-.75,1.57-1.44,3.41-.78,5.13s2.25,2.91,2.86,4.75c.28.91.21,1.89-.19,2.75-.39.82-.89,1.58-1.5,2.25-1,1.26-2.09,2.46-2.33,3.86-.14,1.33.02,2.67.46,3.93.36,1.07.58,2.19.66,3.32.05.87-.1,1.74-.45,2.54-.22.5-.56.94-1,1.26-.16.11-.33.2-.52.25Z" fill="#455a64"/>
    <path d="m446.32,180.37l-9,26-37.64,2-6.28,14,39.3,4c7.59,3.11,16.26-.51,19.38-8.1.09-.21.17-.42.24-.63l10.49-29.28-16.49-7.99Z" fill="#b78876"/>
    <path d="m524.13,425.7s-27.58-87.62-28.17-90.46c-.53-2.58,10-65.63,11.34-82l-37.27,1.39v.37l-15.84.88,14.18,179.12h17.15l-1.7-59.45c10.58,28.39,25.74,57.33,25.74,57.33l14.57-7.18Z" fill="#b78876"/>
    <path d="m484.52,396.88c0-.54-.21-19.92-.21-19.92-.21,1.16-6.57-16.82-6.42-17.91.08-.57,6.63,37.83,6.63,37.83Z" fill="#a36957"/>
    <path d="m477.17,350.53c-.09.36-.13.72-.11,1.09-.06,1-.06,2,0,3,0,.63.09,1.31.17,2.05s.19,1.52.36,2.33c.36,1.77.83,3.51,1.41,5.22,1.24,3.63,2.62,6.8,3.59,9.1.46,1,.86,1.95,1.2,2.71.12.35.29.69.5,1-.05-.35-.15-.68-.3-1-.23-.66-.58-1.61-1-2.78-.88-2.34-2.2-5.54-3.43-9.13-.58-1.68-1.06-3.4-1.43-5.14-.18-.8-.3-1.57-.41-2.29s-.19-1.4-.24-2c-.12-1.24-.17-2.24-.2-2.94.02-.41-.02-.82-.11-1.22Z" fill="#a36957"/>
    <path d="m468.05,435.91v-1.61l17.57-.77.05,6.65-1.08.07c-4.83.28-24.55,1.1-27.77.13-3.61-1.08,11.23-4.47,11.23-4.47Z" fill="#455a64"/>
    <path d="m485.9,439.78c-.1,0-.2,0-.3,0l-.86.06-3.18.14c-2.68.11-6.39.21-10.48.23s-7.81-.05-10.5-.13l-3.17-.13h-1.17c.1,0,.2,0,.3,0h.87l3.18.06c2.68,0,6.39.08,10.48.06s7.81-.09,10.49-.16l3.18-.08h1.16v-.05Z" fill="#263238"/>
    <path d="m462.32,440.34c-.15-.52-.35-1.03-.6-1.51-.32-.44-.68-.85-1.09-1.21.55.2,1,.59,1.27,1.1.33.47.48,1.05.42,1.62Z" fill="#263238"/>
    <path d="m467.5,437.71s-.29-.27-.55-.67-.42-.75-.37-.78.29.26.55.66.42.76.37.79Z" fill="#263238"/>
    <path d="m468.92,437s-.32-.14-.62-.41-.52-.52-.48-.56.32.14.62.41.52.47.48.56Z" fill="#263238"/>
    <path d="m469.81,435.3c-.29.11-.61.15-.92.12-.31.04-.62,0-.91-.09.29-.11.6-.15.91-.12.31-.04.62-.01.92.09Z" fill="#263238"/>
    <path d="m470.11,434.14c-.3.19-.64.3-1,.3-.34.04-.69,0-1-.14.33-.06.66-.08,1-.08.33-.06.66-.09,1-.08Z" fill="#263238"/>
    <path d="m466.91,436.18c-.37.07-.76.07-1.13,0-.4-.05-.8-.14-1.19-.26-.24-.07-.47-.16-.69-.28-.13-.08-.23-.2-.28-.35-.04-.17.03-.35.17-.45,1.03-.5,2.28-.07,2.78.97.06.12.11.25.14.38.02.1.02.2,0,.3-.11-.36-.29-.7-.52-1-.27-.3-.61-.51-1-.62-.44-.14-.92-.11-1.34.1-.17.13-.1.34.09.46.2.11.42.2.64.27.38.12.76.22,1.15.29.75.16,1.18.16,1.18.19Z" fill="#263238"/>
    <path d="m466.62,436.24c-.15-.23-.2-.51-.14-.78.04-.29.14-.58.31-.82.19-.34.54-.56.93-.58.23.05.39.28.35.52-.02.18-.09.35-.19.5-.15.25-.33.48-.53.69-.17.2-.39.35-.64.45,0,0,.22-.2.53-.56.18-.21.34-.43.47-.67.15-.24.26-.67,0-.72s-.56.26-.73.48c-.16.22-.27.47-.32.73-.04.25-.05.51-.04.76Z" fill="#263238"/>
    <path d="m485.53,435s-.5,0-1.29.05c-2.1.25-3.87,1.68-4.57,3.67-.26.75-.28,1.26-.32,1.25s0-.13,0-.35c.03-.32.09-.64.18-.95.32-1.02.93-1.93,1.76-2.61.84-.67,1.86-1.07,2.93-1.15.33-.04.67-.04,1,0,.11.02.21.05.31.09Z" fill="#263238"/>
    <path d="m477.12,438.38c-.84.2-1.7.28-2.56.25-.86.04-1.71-.03-2.55-.22,0-.06,1.14,0,2.55,0s2.55-.09,2.56-.03Z" fill="#263238"/>
    <path d="m480.54,438.35s-.09.24-.21.5-.18.5-.24.49-.09-.27.05-.58.36-.46.4-.41Z" fill="#263238"/>
    <path d="m481.83,436.74s-.07.22-.25.4-.36.3-.41.26.07-.22.25-.41.36-.3.41-.25Z" fill="#263238"/>
    <path d="m483.67,436c0,.06-.24.06-.5.15s-.44.23-.49.19.1-.28.42-.39.59,0,.57.05Z" fill="#263238"/>
    <path d="m484.98,435.64c0,.06-.07.15-.22.2s-.28.06-.3,0,.08-.15.22-.2.28-.05.3,0Z" fill="#263238"/>
    <path d="m509.21,434.36l-.66-1.47,15.71-7.89,2.77,6-1,.51c-4.29,2.23-21.94,11.05-25.28,11.49-3.69.53,8.46-8.64,8.46-8.64Z" fill="#455a64"/>
    <path d="m527.09,430.57l-.26.16-.77.4-2.84,1.44c-2.4,1.19-5.74,2.8-9.47,4.5s-7.15,3.15-9.63,4.18l-2.95,1.19-.8.31c-.09.04-.19.07-.29.09l.27-.13.79-.35,2.92-1.25c2.47-1.06,5.87-2.54,9.6-4.24s7.08-3.28,9.5-4.44l2.86-1.37.79-.37.28-.12Z" fill="#263238"/>
    <path d="m505.84,440.74c-.35-.42-.74-.8-1.17-1.14-.47-.28-.97-.5-1.49-.66,1.18-.02,2.24.7,2.66,1.8h0Z" fill="#263238"/>
    <path d="m509.45,436.22s-.38-.12-.78-.38-.69-.51-.66-.56.38.12.78.38.69.51.66.56Z" fill="#263238"/>
    <path d="m510.43,435s-.34,0-.73-.12-.68-.27-.67-.33c.25-.02.51.02.74.12.38.09.68.23.66.33Z" fill="#263238"/>
    <path d="m510.57,433.08c0,.06-.33.27-.79.49-.27.16-.56.26-.87.29,0-.06.33-.27.78-.49.27-.16.57-.26.88-.29Z" fill="#263238"/>
    <path d="m510.37,431.9s-.29.4-.81.69c-.29.2-.64.3-1,.3.29-.19.59-.36.91-.49.49-.27.85-.55.9-.5Z" fill="#263238"/>
    <path d="m508.32,435.08c-.3.21-.64.36-1,.46-.39.11-.79.2-1.2.25-.25.03-.49.03-.74,0-.15-.01-.3-.08-.4-.2-.09-.15-.09-.33,0-.48.63-.76,1.7-.97,2.57-.5.25.13.47.31.64.53.12.16.17.26.16.27-.25-.27-.54-.5-.87-.67-.35-.17-.74-.22-1.13-.17-.46.05-.89.28-1.18.64-.11.19,0,.35.27.38.23.02.46.02.69,0,.4-.04.79-.11,1.18-.21.57-.16,1.01-.33,1.01-.3Z" fill="#263238"/>
    <path d="m508.04,435.25c-.22-.16-.38-.39-.44-.66-.09-.28-.11-.58-.06-.87.03-.39.27-.73.62-.91.25-.08.83.43.87.62s-.29.09-.31.25c-.03.28-.1.56-.2.83-.07.26-.21.49-.4.68,0,0,.12-.27.26-.72.07-.27.12-.54.15-.81,0-.28,0-.71-.32-.64s-.41.46-.48.74c-.06.26-.06.53,0,.79.08.24.19.48.31.7Z" fill="#263238"/>
    <path d="m524.79,426.36s-.48.17-1.16.58c-.89.53-1.61,1.3-2.09,2.22-.46.93-.66,1.97-.57,3,.06.8.25,1.26.21,1.28-.06-.1-.12-.21-.15-.32-.1-.31-.17-.62-.21-.94-.29-2.18.79-4.31,2.73-5.36.28-.16.58-.28.89-.38.11-.04.23-.07.35-.08Z" fill="#263238"/>
    <path d="m518.5,432.9c-1.41.98-2.99,1.7-4.65,2.12,0-.06,1.05-.46,2.33-1s2.29-1.17,2.32-1.12Z" fill="#263238"/>
    <path d="m521.61,431.47s0,.25,0,.54v.55s-.2-.22-.2-.55.15-.57.2-.54Z" fill="#263238"/>
    <path d="m522.12,429.47s0,.23-.06.47-.21.42-.26.4,0-.23.06-.47.2-.42.26-.4Z" fill="#263238"/>
    <path d="m523.5,428c0,.06-.2.15-.4.34s-.31.39-.36.37,0-.3.22-.53.53-.18.54-.18Z" fill="#263238"/>
    <path d="m524.55,427.18s0,.16-.12.27-.23.17-.27.13,0-.16.12-.27.23-.17.27-.13Z" fill="#263238"/>
    <path d="m504.88,223.64l-2.92-35.7,15,.27s.69-5.27-1.52-16.81c-1.36-7.08-6.07-11.42-11.36-14v-.1l-.46-.12c-4.35-1.96-9.01-3.17-13.76-3.59l-18.45.21s-14.09-1.8-21.86,8.29c-3,3.87-12.31,30.36-12.31,30.36l22.15,10.66-2.07-14.69s.42,10.65,1.78,14c.75,1.88,3,7.72,3,7.72l-.29,17.62,43.07-4.12Z" fill="#ff7200"/>
    <polygon points="494.71 182.76 491.97 194.42 517.8 194.42 516.1 174.86 494.71 182.76" fill="#ff7200"/>
    <path d="m517.8,194.42c-1.13-.21-2.27-.32-3.42-.34-2.12-.12-5-.23-8.28-.21s-6.17.16-8.29.32c-1.15.04-2.29.18-3.41.42,1.14.09,2.3.09,3.44,0,2.11-.07,5-.15,8.26-.16s6.15,0,8.27.05c1.14.06,2.29.04,3.43-.08Z" fill="#263238"/>
    <path d="m493.59,174.77c-.12,1-.15,2-.08,3,0,1.83.08,4.35.19,7.14s.24,5.32.36,7.14c0,1.01.11,2.01.32,3,.12-1,.15-2,.08-3,0-1.83-.08-4.36-.19-7.15s-.24-5.31-.36-7.14c0-1-.11-2.01-.32-2.99Z" fill="#263238"/>
    <g opacity=".3">
      <path d="m470.09,184.87s5.74,42.57,21.88,41.44c0,0,7.27-.08,9.6-4.91v-1.9l-31.48-34.63Z"/>
    </g>
    <g opacity=".3">
      <polygon points="493.59 177.28 490.5 198.15 492.5 201.81 495.8 194.65 494.4 194.61 493.59 177.28"/>
    </g>
    <path d="m462.01,210.16c-.19-.31-.34-.65-.44-1-.25-.65-.58-1.6-1-2.79-1-3.1-1.83-6.26-2.47-9.45-.64-3.2-1.05-6.43-1.22-9.69-.06-1.25-.08-2.26-.06-3-.03-.36,0-.72.07-1.08.08,0,.14,1.54.35,4,.28,3.23.74,6.43,1.37,9.61.74,3.72,1.63,7.05,2.31,9.44.32,1.11.59,2.06.81,2.84.14.36.23.74.28,1.12Z" fill="#263238"/>
    <path d="m468.53,222.39c-.14,0-.54-.87-.89-2-.3-.69-.43-1.45-.39-2.2.44.61.74,1.31.89,2.05.29.68.42,1.41.39,2.15Z" fill="#263238"/>
    <path d="m470.76,222.23c-.76-2.01-.79-4.21-.09-6.24.08,1.04.08,2.08,0,3.12.11,1.04.14,2.08.09,3.12Z" fill="#263238"/>
    <path d="m459.84,203.6c-.07.12-5.22-2.32-11.51-5.46s-11.34-5.8-11.28-5.93,5.22,2.32,11.51,5.46,11.34,5.8,11.28,5.93Z" fill="#263238"/>
    <path d="m468.92,157.25c.11-5.06.14-10.38.14-10.38,0,0-6.49-1.25-7.62-9.79-1.08-8.14,1.94-27.25,1.94-27.25h0c9.48-3.58,19.33-.33,25.82,7.35h0l-1.61,41.07c-.19,4.77-4.44,8.41-9.54,8.17h0c-5.16-.25-9.24-4.35-9.13-9.17Z" fill="#b78876"/>
    <path d="m462.88,125.1c-.02.58.42,1.08,1,1.13.58.06,1.09-.37,1.15-.94,0-.02,0-.04,0-.06.02-.58-.42-1.07-1-1.12-.55-.08-1.06.29-1.14.84,0,.05-.01.1-.01.15Z" fill="#263238"/>
    <path d="m462.48,123.67c.13.14,1-.45,2.15-.41s2,.64,2.14.5-.06-.32-.43-.61c-.5-.36-1.1-.56-1.72-.57-.61-.02-1.21.15-1.71.5-.37.27-.5.52-.43.59Z" fill="#263238"/>
    <path d="m474.79,125.84c-.02.58.42,1.08,1,1.13.55.08,1.06-.29,1.14-.84,0-.05.01-.11.01-.16.02-.58-.42-1.08-1-1.12-.55-.08-1.06.29-1.14.84,0,.05-.01.1-.01.15Z" fill="#263238"/>
    <path d="m474.71,124.41c.13.15,1-.44,2.15-.41s2,.64,2.15.5-.07-.32-.44-.6c-.49-.37-1.09-.58-1.71-.58-.61-.02-1.21.16-1.72.5-.36.27-.49.52-.43.59Z" fill="#263238"/>
    <path d="m470.23,133c-.61-.21-1.25-.34-1.9-.39-.3,0-.58-.11-.62-.31-.02-.31.05-.62.22-.89l.94-2.25c.87-1.91,1.59-3.89,2.15-5.92-1.02,1.84-1.9,3.75-2.62,5.73-.31.79-.62,1.55-.91,2.27-.19.36-.26.77-.18,1.17.08.22.26.39.48.46.17.05.34.07.51.08.64.1,1.29.12,1.93.05Z" fill="#263238"/>
    <path d="m469.06,146.87c4,.16,7.97-.79,11.46-2.75,0,0-2.91,5.77-11.4,4.76l-.06-2.01Z" fill="#a36957"/>
    <path d="m478.47,121c-.24.37-1.14.21-2.14,0s-1.88-.38-2-.81.93-1,2.27-.73,2.11,1.22,1.87,1.54Z" fill="#263238"/>
    <path d="m466.8,119.3c-.09.43-1.05.59-2.15.64s-2.07,0-2.2-.44.8-1.06,2.13-1.12,2.31.51,2.22.92Z" fill="#263238"/>
    <path d="m470.25,135.81c-.26-.06-.53.06-.65.3-.18.32-.06.73.26.91s.73.06.91-.26c.11-.2.11-.45,0-.65-.15-.28-.47-.41-.77-.33" fill="#a36957"/>
    <path d="m470.52,135.93c0-.05-.19-.34-.7-.23-.31.08-.55.32-.64.63-.11.39.03.81.35,1.06.34.23.79.23,1.13,0,.27-.18.41-.51.36-.83-.1-.53-.49-.61-.51-.54s.14.25.11.56c-.01.16-.1.29-.24.37-.16.09-.35.09-.51,0-.14-.12-.21-.31-.18-.49.02-.16.12-.3.27-.37.28-.17.53-.09.56-.16Z" fill="#263238"/>
    <path d="m485.32,127.21c-1,2.34-3.48,4.15-3.14,6.68.22,1.63,1.27,3.15,1.07,4.79-.26,2-2.39,3.48-2.7,5.53-.37,2.51,2.08,4.46,3.05,6.8,1.43,3.42-.39,7.26-.44,11,.12,5.87,4.56,10.75,10.4,11.42,2.28.19,4.85-.5,6-2.46,1-1.62.78-3.68,1.36-5.47.88-2.68,3.43-4.64,4-7.4,1-5-5.1-9.2-4.7-14.32.17-2.19,1.52-4.09,2.09-6.21.74-2.83.07-5.83-1.78-8.09-1.51-1.79-3.69-3-5-4.92-1.45-2.21-1.5-5-2-7.61-2.19-10.36-12.37-16.99-22.74-14.79-2.81.59-5.45,1.81-7.72,3.56,0,0-1.45,6.59,5.32,7.7s9.9-.17,10.66,2.54c-.36,2.26.38,4.57,2,6.19,2.76,2.98,5.39,2.34,4.27,5.06Z" fill="#263238"/>
    <path d="m496.07,172.92c-.21,0-.42-.01-.62-.06-.59-.1-1.16-.26-1.72-.47-2.06-.79-3.88-2.13-5.24-3.87-.96-1.2-1.71-2.55-2.22-4-.58-1.65-.89-3.38-.91-5.13-.02-1.93.22-3.85.72-5.71.27-.98.61-1.95,1-2.89.41-.94.78-1.9,1.09-2.87.28-.96.28-1.98,0-2.94-.29-.95-.67-1.86-1.13-2.74-.46-.87-.85-1.78-1.17-2.71-.31-.92-.38-1.91-.21-2.87.4-1.88,1.54-3.28,2.22-4.71.65-1.32.96-2.79.9-4.26-.09-2.16-.87-4.22-2.23-5.9-.53-.59-1.09-1.14-1.69-1.65.7.39,1.33.91,1.85,1.52,1.46,1.67,2.31,3.78,2.44,6,.08,1.54-.22,3.07-.88,4.46-.69,1.48-1.8,2.89-2.14,4.61s.47,3.53,1.36,5.27c.49.9.88,1.85,1.18,2.83.3,1.05.3,2.15,0,3.2-.33,1.01-.72,2-1.15,2.97-.39.92-.73,1.87-1,2.83-.5,1.81-.74,3.69-.73,5.57-.03,3.2,1,6.33,2.94,8.88,1.3,1.72,3.02,3.07,5,3.91,1.49.58,2.35.67,2.34.73Z" fill="#455a64"/>
    <path d="m495.07,122.46c-.49.13-.99.2-1.49.22-1.37.15-2.76.11-4.12-.11-2.09-.31-3.96-1.44-5.2-3.15-.57-1.07-1.03-2.19-1.36-3.36-.43-1.16-1.23-2.15-2.28-2.81-2.19-1.39-4.76-1.56-7-1.83-2.07-.1-4.07-.73-5.83-1.82-1.18-.78-2.03-1.96-2.39-3.33-.09-.37-.11-.75-.07-1.13,0-.26.06-.39.08-.39.01.5.08.99.19,1.47.41,1.28,1.26,2.37,2.4,3.08,1.73,1.01,3.67,1.57,5.67,1.64,2.24.26,4.9.39,7.24,1.87,1.15.72,2.02,1.8,2.48,3.07.31,1.14.75,2.24,1.29,3.28,1.16,1.6,2.91,2.67,4.86,3,1.32.25,2.66.34,4,.27.51-.03,1.02-.02,1.53.03Z" fill="#455a64"/>
    <path d="m492.59,114.32c-.38.13-.77.18-1.17.17-1.86.01-3.66-.71-5-2-.61-.61-1.13-1.31-1.55-2.07-.9-1.52-1.77-3.39-3.64-4.17-1.8-.6-3.72-.77-5.6-.49-1.59.22-3.19.22-4.78,0-1.1-.15-2.14-.61-3-1.32-.22-.19-.42-.42-.58-.66-.12-.17-.17-.26-.15-.27.03,0,.28.32.86.77.86.61,1.85.99,2.89,1.12,1.56.18,3.13.15,4.68-.08,1.96-.32,3.97-.15,5.85.5.97.43,1.79,1.13,2.39,2,.53.78,1.01,1.59,1.45,2.42.39.73.88,1.4,1.45,2,.5.51,1.08.94,1.71,1.27.93.49,1.95.77,3,.83.77,0,1.18-.07,1.19-.02Z" fill="#455a64"/>
    <path d="m499.05,170.76s.27-.66.64-1.9c.5-1.74.72-3.55.66-5.36-.07-2.68-.8-5.3-2.13-7.63-.73-1.31-1.84-2.48-2.75-3.92-.48-.73-.82-1.55-1-2.41-.16-.9-.08-1.83.22-2.7.56-1.73,1.56-3.18,1.78-4.77s-.54-3-1.3-4.33c-.39-.65-.75-1.31-1.07-2-.29-.66-.48-1.37-.57-2.09-.09-1.27-.05-2.55.12-3.81.32-1.78.15-3.62-.48-5.32-.28-.59-.68-1.13-1.18-1.56,0,0,.05,0,.12.06.12.06.23.14.32.23.39.33.71.73.93,1.19.72,1.71.95,3.59.65,5.43-.14,1.24-.15,2.49-.05,3.73.25,1.4.8,2.72,1.62,3.88.43.68.79,1.39,1.09,2.13.32.8.42,1.67.3,2.52-.24,1.75-1.27,3.23-1.79,4.86-.27.79-.35,1.63-.21,2.45.17.79.49,1.55.94,2.23.85,1.39,2,2.58,2.73,3.95,1.34,2.41,2.05,5.11,2.08,7.87.03,1.84-.25,3.68-.84,5.43-.16.47-.35.93-.58,1.38-.06.16-.15.32-.25.46Z" fill="#455a64"/>
    <path d="m458.32,357.09s-6.74-63.84-7.13-87.43,10.61-46.87,10.61-46.87l43.08-1.79s8.52,23.93,8.67,34c.3,19.54-5.19,38.83-4.56,54.33l1.44,47.8" fill="#263238"/>
    <path d="m511.88,278.6c-.22.2-.46.38-.71.54l-.39.27-.42.41c-.37.32-.71.68-1,1.07-1.39,1.7-2.4,4.75-3.37,8.54-.5,2.1-1.23,4.14-2.18,6.08-.29.53-.62,1.04-1,1.51-.18.24-.35.5-.56.73l-.66.66c-.95.88-2.04,1.59-3.24,2.08-2.41,1.06-5.14,1.56-7.62,2.81-2.54,1.37-4.5,3.6-5.53,6.3-1.22,2.71-2,5.55-3,8.21s-2.35,5.2-4.5,6.82c-2.06,1.43-4.5,2.2-7,2.21-2.32.14-4.47.07-6.4.36-1.74.18-3.4.81-4.82,1.82-1.04.81-1.82,1.91-2.24,3.16-.27.79-.33,1.63-.17,2.45.12.56.27.83.24.84-.16-.25-.28-.53-.34-.82-.21-.83-.18-1.71.08-2.53.4-1.31,1.18-2.47,2.25-3.33,1.46-1.1,3.18-1.79,5-2,2-.32,4.13-.28,6.42-.43,2.43-.02,4.8-.77,6.79-2.16,2.02-1.77,3.51-4.06,4.31-6.62,1-2.63,1.73-5.48,3-8.24,1.08-2.81,3.13-5.13,5.78-6.55,2.58-1.28,5.31-1.77,7.66-2.79,1.15-.48,2.21-1.15,3.12-2l.63-.63c.2-.22.37-.47.55-.7.35-.45.66-.94.93-1.45.96-1.91,1.7-3.92,2.21-6,1-3.78,2.09-6.87,3.56-8.58.29-.39.63-.75,1-1.06.16-.14.3-.28.44-.39l.41-.26c.25-.13.51-.24.77-.33Z" fill="#fafafa"/>
    <path d="m512.14,249.06c.05.28.07.57.06.85,0,.83-.1,1.65-.3,2.45-.86,2.93-2.55,5.54-4.87,7.52-1.53,1.41-3.21,2.64-5,3.69-1.93,1.14-4.06,2.23-6.25,3.47-2.3,1.23-4.44,2.74-6.38,4.49-1.99,1.97-3.62,4.27-4.84,6.79-1.23,2.56-2.63,5.03-4.19,7.39-.79,1.1-1.71,2.11-2.74,3-1.01.86-2.12,1.6-3.31,2.19-2.15,1.06-4.39,1.92-6.69,2.57-2.14.66-4.14,1.25-5.88,2-1.58.63-3.08,1.43-4.48,2.4-1.05.73-2,1.6-2.81,2.59-.68.86-1.25,1.8-1.69,2.8.07-.28.16-.55.28-.81.33-.76.75-1.47,1.25-2.12.8-1.03,1.74-1.94,2.8-2.7,1.4-1,2.92-1.84,4.51-2.5,1.93-.78,3.89-1.47,5.89-2.05,2.27-.67,4.48-1.53,6.6-2.58,1.13-.59,2.18-1.3,3.15-2.12.99-.88,1.87-1.86,2.64-2.94,1.54-2.35,2.93-4.81,4.15-7.34,1.25-2.58,2.95-4.92,5-6.92,1.97-1.78,4.15-3.3,6.5-4.54,2.2-1.23,4.33-2.3,6.26-3.43,1.79-1.01,3.47-2.21,5-3.58,2.3-1.92,4-4.46,4.92-7.31.26-1.07.4-2.16.42-3.26Z" fill="#fafafa"/>
    <path d="m451.41,273c-.04-.06-.07-.13-.09-.2-.07-.19-.14-.39-.19-.59-.17-.8-.14-1.62.1-2.4.56-2,2.77-4.57,6.33-5.84,1.78-.61,3.79-1,5.89-1.52,3.54-.59,6.57-2.85,8.15-6.07.57-1.17,1.07-2.36,1.49-3.59.78-2.66,1.84-5.23,3.17-7.67,1.52-2.4,3.82-4.19,6.52-5.07,2.45-.8,4.95-1.43,7.49-1.9,2.26-.43,4.45-1.18,6.51-2.22,1.74-1,3.24-2.36,4.4-4,1.71-2.37,2.68-5.18,2.8-8.1,0-1.07-.07-2.14-.21-3.2.3,1.04.44,2.12.41,3.2-.04,2.98-.98,5.88-2.7,8.31-1.17,1.69-2.7,3.1-4.49,4.13-2.08,1.08-4.31,1.85-6.61,2.31-2.51.48-4.99,1.11-7.42,1.91-2.59.85-4.8,2.57-6.26,4.87-1.3,2.4-2.35,4.94-3.13,7.56-.43,1.25-.94,2.47-1.53,3.65-.59,1.14-1.35,2.18-2.24,3.1-1.76,1.6-3.92,2.69-6.25,3.15-2.12.54-4.12.88-5.87,1.46-3.47,1.18-5.67,3.61-6.26,5.55-.24.75-.31,1.54-.19,2.32.08.28.14.56.18.85Z" fill="#fafafa"/>
    <path d="m508.44,327c.04.21.06.42.07.63.02.61-.04,1.21-.19,1.8-.63,2.17-1.96,4.07-3.78,5.4-1.22.97-2.56,1.76-4,2.36-1.53.65-3.22,1.17-5,1.72-1.85.54-3.66,1.21-5.41,2-1.82.87-3.46,2.09-4.81,3.59-1.46,1.52-2.72,3.19-4.12,4.67-1.34,1.43-2.89,2.65-4.61,3.6-2.92,1.59-6.18,2.44-9.51,2.48-2.23.02-4.44-.34-6.54-1.09-.57-.2-1.12-.43-1.66-.71-.2-.08-.38-.18-.55-.31.2.06.4.13.59.21.55.23,1.11.44,1.68.62,2.1.66,4.28.96,6.48.91,3.25-.08,6.44-.95,9.28-2.53,1.66-.94,3.17-2.13,4.47-3.53,1.37-1.46,2.62-3.12,4.11-4.68,1.43-1.56,3.16-2.81,5.08-3.7,1.78-.8,3.62-1.46,5.49-2,1.76-.54,3.44-1,5-1.66,1.4-.57,2.71-1.33,3.9-2.25,1.79-1.27,3.13-3.08,3.81-5.16.15-.78.22-1.57.22-2.37Z" fill="#fafafa"/>
    <path d="m503.53,194.46l-8.34.2c-.32,1.68-.96,3.29-1.88,4.73-7-12.1-12.37-28.3-13.71-34.81.2-.65.43-1.37.72-2.17.21-1.22.17-2.46-.11-3.66-.24-1.45-.64-3.4-.76-4.3-.37-2.76-.82-3.19-1.78-2.88-1.3.43.54,7.73-.53,7.89-.58.08-1.28-2.42-1.48-4.47s-1.14-8.37-1.81-8.79c-1-.62-1.87.36-1.61,2.4s.57,8.24-.51,8.33-2-10.39-2-10.39c0,0,.17-2.28-1.09-2.23-2.26.1-.49,11.14-.3,12.19.14.72-1,.86-1.14.07s-.66-10.47-3-10.39c-1.78,0,1.37,9.09.37,11.19s-1.68-7.12-3.37-7c-.63.05-1.1.17.06,5.38,1.11,4.14,2.45,8.22,4,12.21,2.68,14.45,14.44,60.68,32.87,52.22,10.32-4.74,14.5-25.72,14.5-25.72h-9.1Z" fill="#b78876"/>
    <path d="m467.98,157.2c.08.02.16.02.24,0,.25-.08.41-.32.37-.58,0-.62-.12-1.52-.26-2.69-.23-1.41-.39-2.83-.46-4.26,0-.84,0-1.74.05-2.69.01-.48.06-.96.15-1.44.08-.45.38-1,.73-.91h.06c.35,0,.63.26.74.68.12.44.17.89.14,1.34h0c.21,2.8.56,5.59,1.07,8.35.08.37.16.75.28,1.13.05.19.12.38.2.57.05.1.11.2.17.3.09.15.25.24.42.26.3-.03.55-.24.63-.53.09-.2.15-.4.19-.61.08-.4.13-.81.16-1.22.09-1.67.07-3.34-.07-5-.13-.83-.16-1.67-.1-2.51.04-.36.21-.7.49-.93.13-.08.29-.1.43-.05.08.02.17.05.24.1.05.04.09.09.11.15.32.81.55,1.65.69,2.51.18.88.33,1.79.47,2.7s.27,1.83.38,2.76c.09.96.24,1.91.46,2.85.12.48.27.95.45,1.41.1.26.24.5.42.71.14.18.37.27.59.22.21-.07.36-.24.41-.45.12-.51.16-1.04.11-1.56,0-.5-.06-1-.11-1.48-.07-.84-.15-1.67-.18-2.49-.03-.4-.03-.81,0-1.21.02-.18.06-.35.13-.52.02-.05.05-.11.09-.15h.13c.66-.27.88.65,1.06,1.39s.25,1.58.41,2.37c.26,1.57.6,3.14.77,4.64.12.72.09,1.45-.08,2.16-.24.72-.48,1.43-.71,2.14v.13c1.17,4.91,2.66,9.74,4.47,14.46,1.58,4.27,3.17,8,4.56,11s2.65,5.35,3.51,6.93l1,1.79c.11.21.24.41.39.6-.08-.22-.19-.44-.31-.64l-1-1.83c-.82-1.61-2-4-3.36-7s-2.9-6.73-4.44-11c-1.76-4.71-3.23-9.53-4.38-14.42v.14c.23-.7.46-1.41.7-2.12.21-.78.25-1.59.12-2.39-.18-1.57-.51-3.09-.77-4.67-.15-.78-.25-1.58-.41-2.4-.01-.42-.08-.84-.21-1.24-.11-.24-.31-.44-.55-.56-.26-.08-.53-.08-.79,0h-.16c-.08.03-.16.07-.23.13-.11.09-.2.21-.25.35-.09.22-.15.45-.17.68-.03.43-.03.87,0,1.3,0,.84.12,1.68.19,2.52,0,.49.08,1,.1,1.45.04.45.02.91-.07,1.35,0,.1-.08.08,0,.13h0l-.06-.06c-.13-.16-.23-.35-.3-.54-.17-.43-.32-.88-.43-1.33-.22-.91-.37-1.84-.45-2.77-.11-.94-.24-1.87-.39-2.79-.14-.92-.3-1.82-.48-2.72-.15-.92-.41-1.81-.76-2.67-.07-.14-.18-.26-.31-.35-.12-.07-.24-.12-.37-.16-.29-.08-.59-.03-.85.12-.42.31-.68.78-.74,1.3-.06.45-.06.92,0,1.37,0,.43.1.85.13,1.27.14,1.64.17,3.28.09,4.92-.02.39-.07.78-.15,1.16-.03.18-.08.35-.15.52-.03.07-.06.13-.11.18,0,.09-.07,0-.06.12v-.13c-.04-.07-.08-.14-.12-.21-.07-.16-.13-.34-.19-.51-.11-.36-.19-.73-.27-1.09-.52-2.74-.9-5.5-1.13-8.28h0c.03-.5-.03-1.01-.17-1.49-.07-.25-.2-.48-.39-.66-.2-.19-.47-.29-.74-.28h.06c-.35-.05-.69.11-.87.41-.15.24-.25.5-.3.78-.08.5-.13,1-.14,1.5v2.72c.09,1.44.28,2.87.55,4.28.17,1.16.3,2.06.36,2.67.04.22-.08.44-.29.52-.3.03-.39.04-.38.05Z" fill="#a36957"/>
    <path d="m402.85,208.23c-1.95-.04-3.9.18-5.79.67-5.17,1.36-14.08,6.76-14.45,13.43h6.48s-3.63,7.72-2.57,7c2.77-1.86,8.27-7.45,8.27-7.45l8.06-13.65Z" fill="#b78876"/>
    <path d="m491.18,92c-.15,0-.73-5.34-1.31-12s-.94-12-.8-12,.73,5.34,1.31,12,.94,12,.8,12Z" fill="#263238"/>
    <path d="m519.59,68.41c.11.08-4.26,6.43-9.77,14.18s-10.08,14-10.2,13.88,4.26-6.43,9.77-14.18,10.08-13.96,10.2-13.88Z" fill="#263238"/>
    <path d="m531.39,97.19c0,.14-5.08,1.31-11.4,2.61s-11.48,2.24-11.51,2.1,5.07-1.31,11.4-2.61,11.44-2.24,11.51-2.1Z" fill="#263238"/>
  </g>
  <g id="freepik--Folder--inject-47">
    <path d="m191.32,234.54l-35.4,181.8-4.6,23.8,236-1.14c10.6-.05,20-9.46,23.39-23.44l41.86-171.63c2.59-10.61-3.09-21.65-11.13-21.64l-238.92.25c-5.2,0-9.86,4.91-11.2,12Z" fill="#ff7200"/>
    <g opacity=".5">
      <path d="m191.32,234.54l-35.4,181.8-4.6,23.8,236-1.14c10.6-.05,20-9.46,23.39-23.44l41.86-171.63c2.59-10.61-3.09-21.65-11.13-21.64l-238.92.25c-5.2,0-9.86,4.91-11.2,12Z"/>
    </g>
    <path d="m364.71,404l-25-201.41c-1-8.25-7.59-14.41-15.36-14.38l-54.8.17c-4.12.05-8.03,1.78-10.83,4.8l-26,27.67-152.4.82c-9.31.05-16.47,8.87-15.24,18.77l23.21,186.15c1,8.24,7.59,14.39,15.34,14.38l265.65-.53c29.58.61,32.41-8.12,32.41-8.12-33.96,7.51-36.98-28.27-36.98-28.32Z" fill="#ff7200"/>
    <g>
      <path d="m152.89,298.63c16.98-1.26,27.31-1.26,34.25,11.59,6.97,12.85-17.63,57.81,7.45,65.4s37.33-15.65,47.71-38.54c10.41-22.85,15.35-50.29,15.38-64.01" fill="none" stroke="#ffca9f" stroke-linecap="round" stroke-linejoin="round" stroke-width="30"/>
      <path d="m156.61,380.94c7.45-11.43,16.14-13.36,27.14-14.98" fill="none" stroke="#ffca9f" stroke-linecap="round" stroke-linejoin="round" stroke-width="30"/>
    </g>
    <g>
      <polygon points="286.49 394.78 279.4 403.21 224.75 348.82 231.84 340.39 286.49 394.78" fill="#ff1f1f"/>
      <polygon points="276.43 338.53 284.27 346.33 234.82 405.07 226.97 397.27 276.43 338.53" fill="#ff1f1f"/>
    </g>
  </g>
  <g id="freepik--speech-bubble--inject-47">
    <path d="m370.51,90.69c.04-.2.07-.4.09-.6,0-.44.11-1,.19-1.79.1-.97.26-1.93.49-2.88.13-.56.2-1.18.4-1.81s.4-1.31.62-2c1.16-3.42,2.84-6.63,5-9.53,2.82-3.75,6.4-6.86,10.51-9.14,2.34-1.32,4.82-2.34,7.41-3.06,2.79-.74,5.66-1.12,8.55-1.12,1.52-.02,3.04.06,4.55.24.77.08,1.53.28,2.3.41.78.13,1.55.32,2.3.56,3.15.88,6.15,2.24,8.89,4.03,6.09,3.95,10.73,9.78,13.22,16.6,1.34,3.65,2.02,7.52,2,11.41.04,4.01-.67,7.99-2.09,11.74l-.45,1.14-.06.15.06.15c2.51,5.77,5,11.44,7.35,16.93l.42-.48-15-5.75-.18-.07-.15.14c-3.97,3.84-8.83,6.65-14.14,8.16-9.19,2.53-19.01,1-27-4.19-3.23-2.12-6.08-4.78-8.43-7.85-3.4-4.49-5.6-9.77-6.4-15.34-.12-1-.22-1.84-.31-2.6s0-1.38-.05-1.91,0-.88,0-1.17c.11-.02.18-.12.17-.23-.02-.11-.12-.18-.23-.17-.11.02-.18.12-.17.23.01.09.08.15.17.17v3.1c0,.76.17,1.63.27,2.62.33,2.41.9,4.77,1.71,7.06,1.14,3.02,2.68,5.88,4.58,8.5,2.35,3.13,5.23,5.84,8.49,8,8.09,5.32,18.07,6.92,27.41,4.38,5.38-1.53,10.3-4.36,14.32-8.24l-.33.07,15,5.78.75.29-.33-.77c-2.38-5.49-4.84-11.15-7.34-16.93v.29l.46-1.17c1.46-3.83,2.19-7.9,2.14-12,.03-3.97-.65-7.92-2-11.66-2.54-6.96-7.28-12.9-13.51-16.91-2.81-1.83-5.89-3.22-9.12-4.1-.77-.24-1.55-.43-2.34-.55-.78-.14-1.55-.34-2.33-.41-1.53-.19-3.07-.28-4.61-.26-2.93.01-5.85.41-8.68,1.18-2.62.74-5.14,1.8-7.51,3.14-4.15,2.33-7.75,5.52-10.57,9.35-2.15,2.94-3.81,6.21-4.93,9.68-.21.72-.41,1.41-.59,2-.16.6-.29,1.21-.38,1.83-.21.95-.35,1.92-.42,2.9-.06.77-.1,1.36-.13,1.8-.04.22-.06.44-.04.66Z" fill="#263238"/>
  </g>
  <path d="m404.58,108.79c-1.63,0-2.91-.45-3.83-1.34s-1.38-2.12-1.38-3.7c0-1.39.44-2.55,1.32-3.47.88-.92,2.15-1.38,3.81-1.38.88,0,1.63.14,2.27.43.64.29,1.16.66,1.57,1.11.41.45.71.98.91,1.59.2.61.29,1.23.29,1.86,0,1.48-.46,2.67-1.38,3.56s-2.11,1.34-3.56,1.34Zm-3.54-11.39c-.09-1.91-.2-3.98-.32-6.22-.09-1.91-.2-4.11-.34-6.6-.14-2.5-.29-5.15-.48-7.96.73.03,1.54.05,2.45.05h2.79c1.07,0,2.29-.01,3.65-.05-.06,1.51-.15,3.31-.27,5.4-.09,1.78-.19,3.96-.29,6.53-.11,2.57-.22,5.54-.34,8.89-.54,0-1.18-.01-1.91-.04-.61,0-1.33,0-2.18-.02-.85-.02-1.77,0-2.77.02Z" fill="#ff8a1f"/>
</svg>