<?xml version="1.0" encoding="UTF-8"?>
<svg id="Layer_1" data-name="Layer 1" xmlns="http://www.w3.org/2000/svg" viewBox="0 0 690.06 449.68">
  <g>
    <path d="m190.74,148.91c45.65-2.74,73.4-2.74,92.05,25.2,18.73,27.94-47.39,125.72,20.02,142.22,67.41,16.5,100.31-34.05,128.22-83.82,27.98-49.7,41.25-109.37,41.32-139.2" fill="none" stroke="#ffca9f" stroke-linecap="round" stroke-linejoin="round" stroke-width="60"/>
    <path d="m200.75,327.91c20.02-24.85,43.37-29.06,72.94-32.57" fill="none" stroke="#ffca9f" stroke-linecap="round" stroke-linejoin="round" stroke-width="60"/>
  </g>
  <g id="freepik--background-complete--inject-96">
    <path d="m33.33,257.44c-.15,0-.26-36-.26-80.4s.11-80.41.26-80.41.31,36,.31,80.42-.17,80.39-.31,80.39Z" fill="#e0e0e0"/>
    <path d="m58.03,75.94c4.77-8.44,4.29-20.45.82-29.5s-11.69-18.21-26-18.68c-6.18-.36-12.32,1.17-17.61,4.38-5.46,3.16-10.54,9.7-13,15.5C-.04,52.94-.25,58.88.19,64.64c.91,12.08,6.19,21.31,18.26,28.56,2.72,1.64,9.79,3.74,11.35,4.1-.99,1.37-1.55,3.01-1.6,4.7-.08.6.13,1.2.56,1.62.57.32,1.29.22,1.75-.26.43-.48.75-1.05.92-1.67.11.55.3,1.09.58,1.58.29.5.79.83,1.36.9.8-.05,1.48-.6,1.68-1.38.17-.76.17-1.55,0-2.31.3.75.82,1.4,1.49,1.85.68.4,1.55.17,1.94-.51.02-.04.04-.07.06-.11.08-.55-.08-1.11-.43-1.54-.71-1.18-1.44-2.34-2.18-3.5,0,0,12.62-4,22.1-20.73Z" fill="#f5f5f5"/>
    <path d="m35.28,31.15c-.58-1.17-2.07-1.6-3.68-1.77-4.2-.24-8.4.52-12.25,2.22-3.69,1.53-6.91,4.02-9.32,7.21-1.13,1.38-3,4.66-1,6.47.05.04.1.07.16.09,2.59.94,4.5-.6,5.94-2.28.9-1.21,1.93-2.31,3.07-3.29,1.57-1.28,3.44-2.14,5.44-2.47,1.92-.15,4.51-.07,6.4-.39s3.6-.43,4.79-1.89c.88-1.11,1.06-2.62.45-3.9Z" fill="#fff"/>
    <path d="m36.77,96.54c-1.11.66-2.38,1.04-3.67,1.09-1.28.23-2.59.13-3.82-.28,0-.16,1.71,0,3.76-.24s3.68-.71,3.73-.57Z" fill="#e0e0e0"/>
    <circle cx="49.01" cy="61.21" r="3.64" fill="#fff"/>
    <circle cx="12.73" cy="61.21" r="3.64" fill="#fff"/>
    <path d="m26.64,56.5c0,1.66-1.34,3-3,3s-3-1.34-3-3,1.34-3,3-3,3,1.34,3,3Z" fill="#e0e0e0"/>
    <path d="m40.84,56.5c0,1.66-1.34,3-3,3s-3-1.34-3-3,1.34-3,3-3,3,1.34,3,3Z" fill="#e0e0e0"/>
    <path d="m20.56,71.05c-.3-.06-.29-1.86,1.29-4.18.93-1.35,2.14-2.49,3.55-3.33,3.56-2.21,8.04-2.3,11.68-.24,1.44.78,2.69,1.86,3.68,3.17,1.67,2.26,1.76,4.06,1.47,4.13s-1.09-1.29-2.84-2.9c-2.2-2.08-5.1-3.25-8.13-3.28-3.03.15-5.89,1.45-8,3.62-1.62,1.65-2.32,3.12-2.7,3.01Z" fill="#e0e0e0"/>
    <path d="m412.84,313.64l4.52,9.16c.19.39.57.66,1,.71l10.11,1.47c.71.1,1.2.76,1.1,1.47-.04.28-.18.55-.38.75l-7.31,7.13c-.31.3-.45.73-.38,1.15l1.73,10.07c.12.71-.35,1.38-1.06,1.5-.28.05-.58,0-.83-.13l-9-4.75c-.38-.2-.83-.2-1.21,0l-9,4.75c-.63.34-1.42.09-1.76-.54-.13-.25-.18-.55-.13-.83l1.73-10.07c.07-.42-.07-.85-.38-1.15l-7.31-7.13c-.52-.5-.53-1.32-.03-1.84.2-.21.46-.34.75-.38l10.11-1.47c.43-.05.81-.32,1-.71l4.52-9.16c.38-.61,1.18-.8,1.79-.42.17.11.31.25.42.42Z" fill="#e0e0e0"/>
    <path d="m462.24,313.39l4.68,9.48c.17.34.49.58.87.63l10.47,1.55c.64.08,1.08.66,1,1.3-.03.27-.16.52-.36.7l-7.57,7.38c-.27.26-.39.63-.34,1l1.79,10.42c.11.63-.32,1.23-.95,1.34-.25.04-.5,0-.73-.12l-9.36-4.92c-.34-.17-.74-.17-1.08,0l-9.36,4.9c-.57.3-1.27.08-1.56-.49-.12-.22-.16-.48-.12-.73l1.78-10.42c.06-.37-.07-.74-.33-1l-7.57-7.36c-.47-.44-.5-1.17-.06-1.64.18-.2.43-.33.7-.36l10.5-1.55c.38-.05.7-.29.87-.63l4.68-9.48c.3-.57,1-.78,1.57-.48.21.11.37.28.48.48Z" fill="#e0e0e0"/>
    <path d="m507.53,313.52l4.68,9.48c.17.34.49.58.87.64l10.46,1.52c.64.08,1.08.66,1,1.3-.03.27-.16.52-.36.7l-7.54,7.36c-.26.26-.38.63-.33,1l1.79,10.42c.1.64-.33,1.24-.96,1.34-.25.04-.5,0-.73-.11l-9.35-4.92c-.34-.18-.74-.18-1.08,0l-9.34,4.94c-.57.3-1.28.07-1.58-.5-.11-.22-.15-.48-.11-.73l1.79-10.42c.06-.37-.06-.74-.33-1l-7.57-7.38c-.47-.44-.5-1.17-.06-1.64.18-.2.43-.33.7-.36l10.46-1.52c.38-.06.71-.3.88-.64l4.68-9.48c.31-.56,1.02-.76,1.58-.45.19.11.35.26.45.45Z" fill="#e0e0e0"/>
    <path d="m508.88,357.43h-197.92c-14.65.28-26.77-11.37-27.05-26.02-.28-14.65,11.37-26.77,26.02-27.05.34,0,.69,0,1.03,0h197.92c14.65-.28,26.77,11.37,27.05,26.02.28,14.65-11.37,26.77-26.02,27.05-.34,0-.69,0-1.03,0Zm-197.92-52.07c-14.1-.28-25.76,10.93-26.04,25.03-.28,14.1,10.93,25.76,25.03,26.04.34,0,.67,0,1.01,0h197.92c14.1.28,25.76-10.93,26.04-25.03.28-14.1-10.93-25.76-25.03-26.04-.34,0-.67,0-1.01,0h-197.92Z" fill="#e0e0e0"/>
    <path d="m321.24,314.26l4.13,8.38c.24.48.71.82,1.24.9l9.24,1.34c.9.13,1.53.97,1.4,1.87-.05.36-.22.69-.48.94l-6.69,6.51c-.39.38-.57.92-.48,1.46l1.58,9.21c.15.89-.44,1.74-1.34,1.89-.36.06-.72,0-1.04-.16l-8.27-4.35c-.48-.25-1.05-.25-1.53,0l-8.27,4.35c-.8.42-1.79.11-2.22-.69-.17-.32-.23-.69-.16-1.04l1.58-9.21c.09-.53-.09-1.08-.47-1.46l-6.69-6.51c-.65-.64-.66-1.68-.02-2.33.25-.26.58-.42.93-.48l9.24-1.34c.54-.08,1-.42,1.24-.9l4.13-8.38c.41-.81,1.4-1.14,2.21-.74.32.16.58.42.74.74Z" fill="#e0e0e0"/>
    <path d="m368.32,314.35l4.08,8.27c.24.5.72.84,1.27.92l9.13,1.33c.92.13,1.56.99,1.43,1.91-.05.37-.23.71-.49.97l-6.61,6.44c-.4.39-.58.94-.49,1.49l1.56,9.1c.16.92-.46,1.79-1.38,1.95-.36.06-.74,0-1.07-.17l-8.16-4.3c-.49-.26-1.08-.26-1.57,0l-8.17,4.3c-.83.43-1.85.11-2.28-.71-.17-.33-.23-.7-.17-1.07l1.56-9.1c.09-.55-.09-1.1-.49-1.49l-6.6-6.44c-.67-.65-.68-1.72-.03-2.39.26-.26.59-.44.96-.49l9.13-1.33c.55-.08,1.03-.42,1.28-.92l4.08-8.27c.41-.84,1.43-1.18,2.26-.77.33.16.6.43.77.77Z" fill="#e0e0e0"/>
    <path d="m452.14,24.69c.74-5.44-6.93-9.92-12.71-10.38-2.75-.22-5.61.2-8.21-.71-5.65-2-7.91-9.27-13.42-11.59-4.12-1.74-8.86-.19-12.86,1.82s-7.94,4.54-12.4,4.82c-3.89.25-8.1-1.19-11.5.71-2.53,1.41-3.85,4.33-6.19,6s-5.26,2-8.09,2.19-5.76.18-8.34,1.36-4.71,3.91-4.17,6.7l97.89-.92Z" fill="#ebebeb"/>
    <path d="m247.73,93.41c.75-5.44-6.93-9.92-12.7-10.38-2.75-.22-5.61.2-8.22-.71-5.65-2-7.9-9.27-13.41-11.59-4.12-1.74-8.87-.19-12.86,1.82s-8,4.54-12.41,4.82c-3.88.25-8.1-1.19-11.49.71-2.53,1.41-3.86,4.33-6.19,6s-5.26,2-8.09,2.19-5.77.18-8.34,1.37-4.71,3.9-4.18,6.69l97.89-.92Z" fill="#ebebeb"/>
    <path d="m661.56,289.26c-.14,0-.26-41.11-.26-91.81s.12-91.81.26-91.81.26,41.1.26,91.81-.12,91.81-.26,91.81Z" fill="#e0e0e0"/>
    <path d="m615.44,92.28c.75-5.44-6.93-9.91-12.7-10.38-2.75-.22-5.61.2-8.22-.71-5.65-2-7.9-9.26-13.41-11.59-4.12-1.74-8.87-.19-12.86,1.82s-7.94,4.54-12.41,4.83c-3.88.25-8.09-1.19-11.49.7-2.53,1.42-3.86,4.33-6.19,6s-5.26,2-8.09,2.2-5.76.18-8.34,1.36-4.71,3.91-4.18,6.69l97.89-.92Z" fill="#ebebeb"/>
    <path d="m686.56,89.93c4.78-8.44,4.29-20.45.83-29.51s-11.69-18.21-26-18.68c-6.17-.36-12.3,1.17-17.58,4.38-5.45,3.16-10.54,9.71-13,15.5-2.28,5.31-2.49,11.25-2.06,17,.91,12.09,6.19,21.31,18.27,28.57,2.71,1.63,9.79,3.73,11.35,4.1-1,1.37-1.55,3.01-1.6,4.7-.09.59.12,1.19.55,1.61.57.33,1.3.23,1.76-.25.43-.48.74-1.05.91-1.67.11.56.31,1.09.59,1.58.29.5.79.83,1.36.89.8-.04,1.48-.59,1.68-1.37.17-.76.17-1.56,0-2.32.31.75.83,1.4,1.5,1.86.68.4,1.55.17,1.94-.51.02-.04.04-.07.06-.11.07-.55-.08-1.11-.43-1.55-.72-1.17-1.45-2.34-2.19-3.5-.04,0,12.59-3.99,22.06-20.72Z" fill="#f5f5f5"/>
    <path d="m663.81,45.13c-.57-1.16-2.06-1.6-3.68-1.77-4.2-.23-8.39.53-12.24,2.22-3.69,1.53-6.91,4.02-9.32,7.21-1.14,1.39-3,4.66-1,6.47.04.04.09.07.15.09,2.59.94,4.5-.6,5.95-2.27.89-1.22,1.92-2.32,3.07-3.3,1.57-1.29,3.45-2.14,5.45-2.47,1.91-.15,4.5-.07,6.4-.38s3.57-.44,4.78-1.93c.88-1.1,1.05-2.6.44-3.87Z" fill="#fff"/>
    <path d="m665.31,110.53c-1.12.66-2.38,1.03-3.68,1.09-1.28.22-2.59.12-3.82-.29,0-.15,1.71,0,3.77-.23s3.68-.72,3.73-.57Z" fill="#e0e0e0"/>
    <circle cx="677.54" cy="75.19" r="3.64" fill="#fff"/>
    <circle cx="641.26" cy="75.19" r="3.64" fill="#fff"/>
    <path d="m655.15,70.48c0,1.66-1.34,3-3,3s-3-1.34-3-3,1.34-3,3-3,3,1.34,3,3Z" fill="#e0e0e0"/>
    <path d="m669.37,70.48c0,1.66-1.34,3-3,3s-3-1.34-3-3,1.34-3,3-3,3,1.34,3,3Z" fill="#e0e0e0"/>
    <path d="m670.76,77.05c.3.06.28,1.86-1.29,4.18-.94,1.34-2.15,2.47-3.55,3.32-3.56,2.21-8.04,2.3-11.68.24-1.44-.78-2.7-1.86-3.69-3.17-1.67-2.25-1.76-4-1.46-4.13s1.08,1.29,2.83,2.9c4.36,4.37,11.43,4.37,15.8.02.11-.11.22-.23.33-.35,1.68-1.64,2.33-3.1,2.71-3.01Z" fill="#e0e0e0"/>
  </g>
  <g id="freepik--Plant--inject-96">
    <path d="m331.1,379.87c2.3,1.1,4.05,3.08,4.85,5.5.78,2.4,1,4.94.64,7.44-.55,4.83-3.29,9.7-6.24,13.56-4.07-3.55-5-9.74-5.28-12.91-.44-5,1.81-14.34,6-13.59" fill="#ff7200"/>
    <path d="m335.07,414.34c-.56-2.81.42-5.7,2.57-7.59,2.17-1.83,4.99-2.71,7.82-2.44,1.32-.02,2.58.54,3.44,1.54.64,1.06.66,2.38.05,3.46-.62,1.05-1.5,1.92-2.56,2.52-3.53,2.21-7.34,3.71-11.33,2.51" fill="#ff7200"/>
    <path d="m329.86,429.15c.01-.34.06-.67.14-1,.13-.7.3-1.6.49-2.68.45-2.99,1.39-5.88,2.77-8.57,1.44-2.68,3.56-4.94,6.15-6.54.79-.46,1.63-.83,2.51-1.1.24-.09.48-.16.72-.21h.26c-1.17.39-2.3.91-3.36,1.54-2.52,1.62-4.58,3.85-6,6.49-1.36,2.66-2.31,5.51-2.83,8.45-.25,1.12-.45,2-.6,2.66-.06.33-.14.65-.25.96Z" fill="#263238"/>
    <path d="m330.01,387.12c.03.14.05.29.05.44,0,.32,0,.73.07,1.24.06,1.08.13,2.65.19,4.58.12,3.87.22,9.22.2,15.13s-.17,11.26-.33,15.12c-.08,1.94-.16,3.5-.23,4.58,0,.51-.06.93-.08,1.25,0,.14-.02.29-.05.43-.02-.15-.02-.29,0-.44v-1.24c0-1.13.06-2.68.11-4.58.09-3.87.2-9.22.22-15.12s0-11.25-.09-15.12c0-1.9-.06-3.46-.07-4.59v-1.24c-.01-.15,0-.29,0-.44Z" fill="#263238"/>
    <path d="m328.04,417.28c-1-5.94-4.8-11.03-10.2-13.68-1.36-.65-3.14-1.08-4.25-.07s-.87,2.83-.32,4.24c2.45,5.95,8.23,9.86,14.67,9.91" fill="#ff7200"/>
    <path d="m318.5,408.18c.3.1.59.23.86.38.34.15.68.33,1,.52.37.22.81.45,1.25.77s.94.65,1.42,1.07,1,.87,1.51,1.38c1.09,1.12,2.06,2.35,2.87,3.69.79,1.35,1.43,2.78,1.89,4.27.2.66.36,1.32.48,2,.12.58.2,1.17.24,1.76.05.49.07.98.07,1.47.02.37.02.73,0,1.1,0,.32-.04.63-.11.94-.08,0,.06-1.35-.17-3.48-.06-.58-.16-1.16-.29-1.73-.13-.66-.3-1.31-.5-1.95-.47-1.46-1.1-2.87-1.88-4.19-.8-1.31-1.74-2.53-2.8-3.65-.46-.48-.96-.94-1.47-1.37-.44-.39-.9-.75-1.38-1.09-1.8-1.26-3.03-1.82-2.99-1.89Z" fill="#263238"/>
  </g>
  <g id="freepik--character-4--inject-96">
    <path d="m653.74,221.44c1.52-3.08,1.63-6.66.3-9.83-2.19-5.64-27.57-37.36-27.57-37.36,0,0-9.44,7.73-8.92,16.69l5.36,8.55,14.75,17,16.08,4.95Z" fill="#ffbf9d"/>
    <path d="m623.94,240.72l15-26.61s14.44,7.08,14.76,7.33-15.06,18.88-25.46,26.61l-3.73-2-.57-5.33Z" fill="#ffbf9d"/>
    <path d="m527.83,179.22c-.37-2.56-1.26-5.02-2.63-7.22-2.08-3-9.55-9.62-9.55-9.62-2.09.45-1.67,2.83.21,6.47,2.43,4.7-4.63,14.16-4.51,14.6.14.6,9.79,6.54,9.79,6.54l7.84-5.94-1.15-4.83Z" fill="#ffbf9d"/>
    <path d="m518.47,256.9c-.15,0-.26-42.49-.26-94.89s.11-94.89.26-94.89.26,42.47.26,94.89-.09,94.89-.26,94.89Z" fill="#263238"/>
    <path d="m512.39,181.58s3,2,4.48,1.21c1.02-.54,1.4-1.79.87-2.81-.1-.18-.22-.35-.37-.5.69.57,1.71.48,2.28-.2.09-.1.16-.22.22-.34.47-1.11.23-2.4-.61-3.27,0,0,.92-.11.86-1.86s-2-3.24-2-3.24c.65-1.23.61-2.71-.12-3.89-1.24-1.95-4.47-3.22-5.51-3.08-.17,0-2.31-.06-2.31,1.84s.48,2.43.48,2.43c0,0-1.69,1-.12,4.27,0,0-2.08,1.42-.24,4.38,0,0-1,3.65-.34,5.13.45.96,1.14,1.78,2,2.4" fill="#ffbf9d"/>
    <path d="m512,184.05c-.18-.08-.35-.19-.49-.32-.45-.35-.84-.75-1.17-1.21-.24-.33-.44-.7-.58-1.09-.12-.48-.17-.97-.15-1.46.05-1.18.23-2.35.52-3.5v.15c-.45-.67-.72-1.44-.79-2.24-.06-.93.33-1.84,1.06-2.43l-.07.28c-.35-.68-.59-1.42-.69-2.18-.17-.89.17-1.8.88-2.37l-.07.37c-.23-.37-.38-.78-.43-1.21-.07-.4-.1-.81-.11-1.22-.03-.46.08-.92.33-1.31.28-.39.68-.66,1.14-.78.43-.12.87-.18,1.32-.17.45.03.9.12,1.33.27.85.28,1.65.69,2.39,1.19.99.61,1.76,1.52,2.19,2.6.36,1.09.25,2.28-.29,3.29l-.07-.32c.88.68,1.55,1.58,1.94,2.62.16.52.19,1.07.09,1.61-.04.6-.43,1.11-1,1.3l.13-.39c.42.47.72,1.04.87,1.65.15.6.08,1.23-.19,1.78-.22.56-.7.97-1.29,1.11-.55.06-1.11-.09-1.55-.42l.26-.27c.43.54.65,1.22.6,1.91-.07.63-.44,1.2-1,1.51-.45.25-.97.34-1.47.25-.42-.07-.83-.18-1.23-.34-.54-.22-1.05-.49-1.55-.79-.17-.1-.33-.22-.48-.36,0-.05.71.43,2.11.95.38.14.78.23,1.18.28.46.08.94-.02,1.33-.28.44-.29.73-.76.78-1.29.02-.6-.18-1.19-.57-1.65l-.75-.93,1,.67c.37.26.81.37,1.26.32.46-.11.84-.44,1-.89.4-1.01.15-2.16-.63-2.92l-.27-.3.41-.1c.29-.06.55-.48.61-.92.09-.46.05-.93-.09-1.38-.36-.94-.98-1.76-1.78-2.37l-.16-.14.1-.19c.47-.88.55-1.92.24-2.87-.4-.97-1.1-1.79-2-2.34-.7-.48-1.47-.86-2.27-1.13-.38-.13-.77-.22-1.17-.25-.39,0-.78.05-1.16.15-.35.08-.66.29-.87.58-.19.3-.27.65-.24,1,0,.39.03.77.09,1.15.04.35.14.69.31,1l.15.22-.21.15c-.53.48-.78,1.2-.66,1.91.09.71.3,1.41.62,2.05l.07.16-.15.12c-.6.48-.94,1.23-.9,2,.05.74.29,1.44.7,2.06v.15c-.61,2.45-1,4.69,0,5.83.44.62.96,1.19,1.54,1.69Z" fill="#ff9a6c"/>
    <path d="m520.64,170.67c-.28,1.8-.32,3.63-.12,5.44.37,1.78.96,3.51,1.76,5.14,0,0-.48-.42-1-1.31-.65-1.16-1.08-2.43-1.29-3.75-.2-1.33-.17-2.68.09-4,.07-.54.27-1.06.56-1.52Z" fill="#ff9a6c"/>
    <path d="m517.46,179.58c-.06.05-.39-.32-1-.84-.76-.65-1.6-1.21-2.49-1.66-.46-.28-.96-.49-1.48-.63-.42-.09-.86-.13-1.29-.11-.75,0-.93.56-1,.5s0-.14.1-.35c.19-.3.51-.49.86-.52.48-.08.97-.08,1.45,0,.57.13,1.13.35,1.63.65.93.47,1.78,1.09,2.5,1.85.55.58.77,1.07.72,1.11Z" fill="#ff9a6c"/>
    <path d="m519.26,175.67c-.06.06-.48-.29-1.22-.76s-1.81-1.07-3-1.71c-.96-.58-2.05-.93-3.18-1-.86,0-1.4.12-1.42,0s.49-.34,1.42-.41c1.21-.03,2.4.29,3.43.92,1.06.53,2.06,1.15,3,1.87.67.6,1.02,1.05.97,1.09Z" fill="#ff9a6c"/>
    <path d="m518.71,171.16c-1.21-.92-2.47-1.77-3.77-2.55-.9-.55-1.95-.82-3-.77-.8,0-1.28.24-1.31.16s.41-.38,1.27-.53c1.14-.15,2.29.09,3.27.68.97.53,1.86,1.18,2.67,1.93.64.59.92,1.04.87,1.08Z" fill="#ff9a6c"/>
    <path d="m543.79,54.96c4.78-8.44,4.29-20.45.83-29.51s-11.69-18.21-26-18.68c-6.17-.36-12.29,1.17-17.57,4.38-5.46,3.16-10.55,9.71-13,15.5-2.28,5.31-2.49,11.25-2.06,17,.91,12.09,6.2,21.32,18.27,28.57,2.71,1.63,9.79,3.73,11.35,4.1-.99,1.37-1.55,3.01-1.6,4.7-.08.59.12,1.19.55,1.61.57.33,1.3.23,1.76-.25.43-.48.74-1.05.91-1.67.11.55.31,1.09.59,1.58.42.78,1.4,1.07,2.18.65.43-.23.73-.65.82-1.13.17-.76.17-1.56,0-2.32.31.75.83,1.4,1.5,1.86.68.4,1.55.17,1.94-.51.02-.04.04-.07.06-.11.07-.55-.09-1.11-.43-1.55-.72-1.17-1.45-2.34-2.19-3.49-.01,0,12.62-4,22.09-20.73Z" fill="#ff7200"/>
    <g opacity=".2">
      <path d="m521.05,10.16c-.58-1.16-2.07-1.6-3.69-1.77-4.2-.23-8.39.53-12.24,2.22-3.69,1.53-6.91,4.02-9.32,7.21-1.14,1.39-3,4.66-1,6.47.04.04.09.07.15.09,2.59,1,4.5-.6,6-2.27.89-1.22,1.92-2.32,3.07-3.3,1.57-1.29,3.45-2.14,5.45-2.47,1.91-.15,4.5-.07,6.4-.38s3.57-.44,4.78-1.93c.86-1.11,1.01-2.61.4-3.87Z" fill="#fff"/>
    </g>
    <path d="m522.54,75.56c-2.32,1.18-4.99,1.46-7.5.8,0-.15,1.71,0,3.77-.23s3.68-.72,3.73-.57Z" fill="#263238"/>
    <g opacity=".2">
      <circle cx="534.77" cy="40.22" r="3.64" fill="#fff"/>
    </g>
    <g opacity=".2">
      <circle cx="498.5" cy="40.22" r="3.64" fill="#fff"/>
    </g>
    <path d="m512.38,35.51c0,1.66-1.34,3-3,3s-3-1.34-3-3,1.34-3,3-3,3,1.34,3,3Z" fill="#263238"/>
    <path d="m526.64,35.51c0,1.66-1.34,3-3,3s-3-1.34-3-3,1.34-3,3-3,3,1.34,3,3Z" fill="#263238"/>
    <path d="m528.98,184.05l7.45,19.4,18.1-22.2,10.87,14.31s-19.93,23.37-23.36,27c-3.17,3.35-9.06,4.76-13.46-.09-5.35-5.9-8.47-34.3-8.47-34.3l8.87-4.12h0Z" fill="#ffbf9d"/>
    <path d="m538.37,215.21c0-2.05-.13-4.1-.38-6.14-.41-2.03-.93-4.03-1.55-6,.36.5.63,1.05.82,1.63.55,1.37.94,2.79,1.17,4.25.23,1.45.31,2.93.22,4.4,0,.63-.09,1.26-.28,1.86Z" fill="#ff9a6c"/>
    <polygon points="598.67 424.54 598.33 415.94 583.34 415.37 583.56 425.9 589.02 429.19 598.67 424.54" fill="#ffbf9d"/>
    <path d="m583.24,423.94v1s-16.64,6.87-16.79,10l33.18-.49-.62-11c-4.94,2.44-10.69,2.62-15.77.49Z" fill="#455a64"/>
    <g opacity=".6">
      <path d="m595.71,427.05c.68.17,1.12.84,1,1.53-.16.68-.82,1.12-1.51,1-.7-.21-1.13-.91-1-1.63.25-.68.99-1.05,1.68-.83" fill="#fff"/>
    </g>
    <g opacity=".6">
      <path d="m599.64,434.48l-.15-2.65-31.75,1.44s-1.46.66-1.28,1.7l33.18-.49Z" fill="#fff"/>
    </g>
    <path d="m583.13,425.05c0,.16.82.23,1.62.73s1.24,1.19,1.39,1.12-.11-1-1.09-1.6-1.96-.43-1.92-.25Z" fill="#263238"/>
    <path d="m579.64,426.51c0,.16.67.43,1.23,1.1s.73,1.4.89,1.39.25-.92-.46-1.75-1.66-.89-1.66-.74Z" fill="#263238"/>
    <path d="m577.75,430.71c.15,0,.36-.78-.07-1.66s-1.19-1.23-1.25-1.09.41.6.75,1.33.46,1.4.57,1.42Z" fill="#263238"/>
    <polygon points="594.56 405.27 597.19 430.88 608.93 428.93 609.19 403.71 594.56 405.27" fill="#ffbf9d"/>
    <path d="m608.88,424.05s-7.77,6.55-12.27,2l-.82,2.52-3.09,17.63c-.27,1.24.51,2.46,1.75,2.73.84.18,1.7-.12,2.25-.78,3.12-3.49,14.53-16.41,14.26-18l-.46-4.22c-.1-.88-.73-1.61-1.59-1.84l-.03-.04Z" fill="#455a64"/>
    <g opacity=".6">
      <path d="m594.71,448.88l16.08-20.22.09.92c.11.77-.13,1.55-.66,2.12-1.26,2-4.85,6.65-13.48,16.42-.51.56-1.25.84-2,.76h-.03Z" fill="#fff"/>
    </g>
    <g opacity=".6">
      <path d="m607.91,426.16c-.53.45-.62,1.24-.21,1.8.46.54,1.25.63,1.82.22.57-.43.69-1.24.26-1.81s-1.24-.69-1.81-.26c-.05.04-.11.09-.15.13" fill="#fff"/>
    </g>
    <path d="m598.95,438.91c-.6-.64-1.32-1.15-2.11-1.52-.85-.24-1.74-.32-2.62-.24,0-.05.25-.25.76-.37.67-.13,1.36-.08,2,.16.64.24,1.2.65,1.62,1.2.34.43.41.74.35.77Z" fill="#263238"/>
    <path d="m597.64,441.97c-.67-.29-1.37-.55-2.07-.76-.73-.07-1.47-.09-2.2-.07.66-.49,1.51-.64,2.3-.4,1.34.31,2.07,1.16,1.97,1.23Z" fill="#263238"/>
    <path d="m601.57,434.9c-1-.54-2.03-.99-3.1-1.37-1.11-.24-2.24-.39-3.38-.45,1.14-.41,2.38-.41,3.52,0,1.17.23,2.22.88,2.96,1.82Z" fill="#263238"/>
    <path d="m601.47,429.63c-.05.14-1.33-.25-2.94-.16s-2.85.58-2.91.45c.83-.63,1.85-.96,2.89-.93,1.03-.13,2.08.09,2.96.64Z" fill="#263238"/>
    <path d="m597.64,429.51c-.06-.27-.06-.56,0-.83.15-.75.45-1.47.88-2.1.28-.49.71-.88,1.23-1.11.36-.12.75,0,1,.28.2.29.29.65.26,1-.27,1.52-1.58,2.64-3.12,2.67-1.51.03-2.89-.84-3.5-2.22-.16-.34-.16-.73,0-1.07.22-.32.62-.48,1-.38.53.16,1.02.46,1.4.87.56.52,1.02,1.14,1.36,1.82.15.23.24.5.27.78-.5-.87-1.13-1.66-1.87-2.35-.35-.34-.77-.59-1.24-.73-.21-.06-.43.03-.54.21-.1.22-.1.48,0,.7.56,1.17,1.76,1.91,3.06,1.89,1.3-.03,2.41-.96,2.67-2.23.04-.25-.02-.51-.15-.72-.13-.17-.36-.23-.56-.16-.44.19-.81.51-1.06.92-.52.85-.89,1.78-1.09,2.76Z" fill="#263238"/>
    <path d="m600.09,108.72c2.65-2.85,9.1-2.35,10.62-.44,2.39-1.1,5.22-.13,6.43,2.2l6.85,1.57c1.19.18,2.32.65,3.29,1.37.97.78,1.2,2.15.55,3.21,1.94.71,2.94,2.86,2.23,4.8-.16.44-.41.85-.72,1.2.93,1.09.79,2.74-.3,3.66-.04.03-.08.06-.12.1,1.87,2.3,3.35,4.91,4.35,7.7.53,1.13.64,2.41.31,3.62-.45,1.16-2,1.94-3,1.21.69.98.73,2.27.11,3.29,1.16,0,1.49,1.84.69,2.68-.92.73-2.11,1.05-3.27.87-1.16-.17-2.34.02-3.38.55.02.29.15.55.37.74,2.02,1.56,2.47,4.43,1,6.52l-.39.53c-.96,1-2.12,1.8-3.4,2.34-2.64,1.34-4.2,1.07-7.14,1.47.78,1.9-4,6-9.44,1.87-9.77,2.7-19.87,3.97-30,3.77-1.61,0-3.54-.25-4.23-1.7-1.36.25-2.74-.22-3.67-1.24-.89-1.01-1.61-2.16-2.12-3.41-2.85-.85-4.86-3.4-5-6.37-1.89-1.52-3.05-3.76-3.2-6.18-2.64-.97-3.99-3.9-3.02-6.53.05-.12.1-.25.15-.37.61-3.32,1.78-6.51,3.44-9.45-1.84-.42-2.51-2.91-1.74-4.63s2.46-2.81,4.07-3.81c-1.39.35-2.57-1.39-2.23-2.77.51-1.35,1.54-2.45,2.86-3.04,1.81-1.05,3.73-1.89,5.74-2.49.68-2.42,3.8-5.15,6.08-6.2,9.21-4.25,15.64-5.28,27.23,3.38" fill="#263238"/>
    <path d="m574.41,125.94c.79-6.3,5.46-13.8,11.73-12.75l19.37,6.2c1.91.33,3.25,2.07,3.08,4l-3.28,42.13c-.46,5.46-4.69,9.86-10.13,10.53h0c-6.35.78-12.14-3.74-12.92-10.09-.07-.54-.09-1.08-.08-1.63.05-2.9.09-5.08.09-5.06s-8-1.85-9-12.5c-.54-5.25.26-13.83,1.14-20.83Z" fill="#ffbf9d"/>
    <path d="m577.95,135.6c-.06.73.49,1.38,1.22,1.44.7.1,1.36-.38,1.46-1.09,0-.01,0-.03,0-.04.05-.73-.49-1.37-1.22-1.44-.7-.1-1.36.38-1.46,1.09,0,.01,0,.03,0,.04Z" fill="#263238"/>
    <path d="m576,130.53c.15.18,1.22-.51,2.68-.42s2.48.89,2.64.72-.06-.4-.51-.77c-.6-.47-1.34-.75-2.1-.79-.76-.05-1.51.14-2.15.55-.47.31-.64.62-.56.71Z" fill="#263238"/>
    <path d="m591.36,135.72c-.05.73.49,1.37,1.22,1.45.71.1,1.37-.4,1.47-1.11,0-.01,0-.02,0-.03.06-.73-.48-1.37-1.21-1.44-.71-.1-1.37.39-1.48,1.1,0,.01,0,.02,0,.03Z" fill="#263238"/>
    <path d="m590.28,131.69c.16.18,1.23-.51,2.69-.42s2.47.89,2.64.72-.07-.4-.51-.77c-.6-.47-1.34-.75-2.1-.79-.76-.05-1.51.14-2.15.55-.47.31-.64.62-.57.71Z" fill="#263238"/>
    <path d="m584.33,142.15c-.75-.29-1.54-.48-2.34-.57-.36-.06-.71-.16-.76-.42,0-.38.11-.76.32-1.08.4-.88.83-1.8,1.27-2.77,1.78-3.93,3.09-7.17,2.93-7.24s-1.73,3.06-3.5,7l-1.23,2.78c-.26.43-.37.95-.29,1.45.1.27.31.48.58.58.2.07.41.12.63.13.79.15,1.59.19,2.39.14Z" fill="#263238"/>
    <path d="m582.26,159.31c4.97.39,9.95-.61,14.38-2.89,0,0-3.87,7-14.37,5.39v-2.5Z" fill="#ff9a6c"/>
    <path d="m590.01,125.66c.12.4,1.59.3,3.28.61s3.05.87,3.3.53c.11-.17-.11-.55-.64-1-1.45-1.04-3.29-1.36-5-.87-.65.24-.99.53-.94.73Z" fill="#263238"/>
    <path d="m576.82,125.55c.24.35,1.26.07,2.47.12s2.21.36,2.46,0c.12-.16,0-.5-.45-.84-.58-.43-1.28-.66-2-.67-.71-.03-1.41.16-2,.55-.42.34-.58.67-.48.84Z" fill="#263238"/>
    <path d="m569.58,130.93c.07-1.67.71-3.27,1.83-4.52.63-.65,1.42-1.14,2-1.85,1.21-1.54,1.08-3.71,1.62-5.6.72-2.46,2.58-4.42,5-5.28,2-.67,4.24-.53,6.11-1.49,1.39-.7,2.45-1.95,3.88-2.57,2.77-1.21,5.94.26,8.52,1.85.48,2.08-.86,3.84-2.15,5.54-1.32,1.71-3.32,2.75-5.48,2.86-1.65.07-3.57-.34-4.75.82s-.81,3.4-1.83,4.81c-1.47,2-4.72,1.17-6.88,2.39-1.67.94-2.4,2.9-3.27,4.62s-2.33,3.49-4.25,3.36c-.31-1.63-.42-3.29-.35-4.94Z" fill="#263238"/>
    <path d="m592.25,114.75c5.44.02,10.83,1.09,15.86,3.15,1.55.49,2.91,1.46,3.87,2.77.64,1.28.91,2.71.76,4.13-.13,4.45-2,9.87-3.79,13.95l-5.61,3.23c-4.26-1.09-2.17-8.44-1.9-12.14-3.02-1.43-4.96-4.46-5-7.81-2.43-1.66-3.98-4.34-4.19-7.28Z" fill="#263238"/>
    <path d="m604.33,137.94c.18-2.26,3-2.65,4.89-1.45,1.06.66,1.84,1.94,1.66,4.33-.48,6.4-6.8,4.6-6.8,4.41s.02-4.65.25-7.29Z" fill="#ffbf9d"/>
    <path d="m606.21,142.96s.11.08.29.19c.26.13.55.15.83.07.88-.46,1.45-1.37,1.46-2.37.06-.55,0-1.1-.19-1.62-.09-.41-.38-.75-.77-.92-.26-.09-.55.02-.68.26-.1.17-.07.3-.1.31s-.13-.12-.06-.38c.04-.16.14-.29.28-.38.19-.12.41-.16.63-.12.53.15.94.55,1.09,1.08.23.57.31,1.2.25,1.81-.03,1.17-.75,2.21-1.83,2.64-.35.07-.72-.01-1-.24-.2-.18-.22-.32-.2-.33Z" fill="#ff9a6c"/>
    <path d="m609.29,147.05c.33.03.67.03,1,0,.39-.05.77-.16,1.13-.32h-.07c.26,1.74,1.88,2.93,3.62,2.67.5-.07.97-.27,1.38-.56h-.11c.19.29.49.5.83.58.33.07.68.04,1-.07.35-.12.65-.35.85-.66.19-.3.31-.64.34-1,.04-.77-.19-1.53-.66-2.15-.48-.63-1.04-1.19-1.66-1.67v.14c.53-.34.89-.88,1-1.49.14-.63.09-1.3-.15-1.9-.26-.6-.63-1.15-1.09-1.61-.47-.47-.96-.91-1.49-1.31v.14c.48-.49.72-1.16.67-1.84-.03-.69-.27-1.36-.69-1.92-.85-.97-1.9-1.73-3.09-2.23v.11c.61-2.27-.74-4.6-3-5.21-.49-.13-1.01-.17-1.52-.12l.09.11c.39-2.07-.98-4.07-3.06-4.45-.14-.03-.29-.05-.43-.06l.08.09c0-1.11-.52-2.15-1.4-2.82-.74-.62-1.71-.9-2.67-.79l.08.07c-.03-.59-.19-1.15-.49-1.66-.25-.44-.57-.84-.95-1.19-.6-.57-1.36-.92-2.18-1h-.87c-.21.04-.41.1-.61.16l-.36.15-.12.05h.12l.37-.13c.2-.07.4-.12.61-.15h.86c.79.09,1.54.44,2.11,1,.37.33.68.73.92,1.17.28.48.44,1.03.46,1.59v.08h.07c.92-.11,1.85.17,2.56.77.83.65,1.32,1.64,1.33,2.7v.08h.08c2.02.15,3.52,1.91,3.37,3.93,0,.13-.03.25-.05.38v.12h.13c2.24-.21,4.22,1.43,4.44,3.66.05.48,0,.97-.12,1.44v.07h.07c1.15.49,2.18,1.24,3,2.18.39.52.62,1.15.65,1.8.05.63-.17,1.25-.6,1.7l-.08.08.09.07c1.07.72,1.93,1.69,2.52,2.84.23.56.28,1.19.15,1.78-.12.58-.49,1.09-1,1.39l-.12.06.1.08c.61.48,1.16,1.03,1.64,1.64.43.57.66,1.28.63,2,0,.7-.43,1.32-1.08,1.58-.59.26-1.29.08-1.68-.44v-.07l-.07.05c-.94.69-2.19.78-3.23.25-.86-.46-1.45-1.29-1.61-2.25v-.08h-.07c-.35.16-.71.26-1.09.32-.33.05-.67.07-1,.06-.54,0-1.07-.11-1.56-.33-.31-.13-.57-.35-.73-.64-.09-.2-.11-.32-.12-.32,0,.03,0,.06,0,.09.02.08.04.16.08.24.15.31.41.55.73.68" fill="#455a64"/>
    <path d="m631.39,139.23c.09-.12.17-.25.24-.38.21-.39.33-.83.37-1.27.06-.7-.12-1.4-.49-2-.52-.81-1.35-1.36-2.3-1.52v.08c.24-1.08.05-2.22-.52-3.17-.31-.53-.73-.99-1.23-1.35-.55-.34-1.13-.63-1.74-.86-.3-.14-.58-.31-.83-.51-.24-.23-.44-.5-.57-.8-.27-.62-.35-1.35-.7-2-.76-1.39-2.29-2.18-3.86-2l.1.11c.46-2.78-1.43-5.41-4.21-5.87-.45-.07-.91-.09-1.37-.04l.11.1c.3-2.47-1.46-4.72-3.93-5.02-1.05-.13-2.11.12-3,.69h.1c-.63-.62-1.38-1.09-2.21-1.4-.74-.28-1.51-.47-2.29-.57-1.27-.16-2.55-.1-3.8.19-.8.18-1.57.48-2.27.9-.18.11-.36.24-.53.37l-.17.14s.24-.18.72-.47c.71-.39,1.48-.67,2.27-.84,1.23-.27,2.51-.33,3.76-.16.77.1,1.53.29,2.25.58.81.3,1.54.77,2.15,1.38v.05h.05c2-1.31,4.69-.74,5.99,1.26.56.86.8,1.89.67,2.91v.12h.12c1.56-.15,3.09.44,4.15,1.59,1,1.12,1.45,2.62,1.23,4.1v.12h.13c1.5-.18,2.95.57,3.68,1.89.33.63.41,1.35.7,2,.14.33.35.63.62.86.26.22.56.39.87.53.6.23,1.17.51,1.72.84.51.32.94.74,1.27,1.24.56.92.75,2.01.53,3.06v.07h.07c.91.15,1.72.67,2.23,1.44.39.59.56,1.3.51,2-.03.43-.14.86-.33,1.25-.18.23-.27.35-.26.36Z" fill="#455a64"/>
    <path d="m570.13,139.93c.07-.17.07-.36,0-.53-.07-.21-.2-.39-.37-.53-.23-.19-.49-.33-.78-.42-.35-.09-.69-.24-1-.43-.34-.25-.58-.6-.71-1-.14-.48-.18-.98-.13-1.47,0-.53.12-1.08.13-1.68-.11-1.29-.36-2.57-.75-3.8-.14-.7-.14-1.41,0-2.11.12-.74.55-1.39,1.19-1.78.72-.33,1.48-.57,2.26-.72.41-.11.8-.29,1.16-.52.36-.26.64-.6.82-1,.32-.81.57-1.65.72-2.51.09-.42.25-.83.46-1.21.23-.37.59-.66,1-.81.58-.15,1.18-.22,1.78-.21.31-.02.61-.09.9-.21.29-.13.53-.34.72-.59.31-.5.54-1.05.69-1.62.17-.53.46-1.02.83-1.43.72-.8,1.73-1.27,2.81-1.29.99-.01,1.96.34,2.7,1l.09.08v-.11c.77-1.57,2.17-2.74,3.85-3.21.7-.19,1.43-.24,2.15-.15.61.07,1.2.24,1.75.52.77.4,1.41,1,1.84,1.75.12.19.22.4.31.61l.07.15v.06-.06l-.06-.16c-.08-.22-.17-.43-.29-.63-.42-.77-1.06-1.4-1.84-1.81-.56-.29-1.16-.48-1.78-.55-.73-.1-1.48-.05-2.19.13-1.74.47-3.2,1.66-4,3.28h.14c-.77-.71-1.78-1.1-2.82-1.09-1.13.02-2.2.5-2.95,1.34-.39.43-.68.94-.87,1.49-.15.56-.37,1.09-.67,1.58-.35.46-.9.72-1.48.71-.62,0-1.23.08-1.83.23-.42.18-.77.49-1,.89-.23.39-.39.82-.49,1.26-.15.84-.38,1.67-.7,2.47-.17.37-.43.69-.76.93-.34.22-.71.39-1.1.49-.8.15-1.57.4-2.3.75-.35.2-.64.48-.85.82-.2.33-.34.7-.42,1.08-.12.72-.1,1.46.06,2.17.4,1.22.66,2.49.77,3.77,0,.58-.09,1.14-.12,1.67-.04.51.01,1.02.16,1.51.12.44.39.82.75,1.09.31.18.65.33,1,.43.28.07.55.2.78.38.16.13.29.31.36.51.05.16.05.33,0,.49Z" fill="#455a64"/>
    <path d="m557.87,129.8l.06-.12.19-.35.68-1.38c.3-.6.64-1.34,1.12-2.16.5-.94,1.25-1.73,2.18-2.26.52-.27,1.12-.45,1.73-.7.31-.13.61-.3.88-.5.29-.22.52-.5.67-.82.31-.66.34-1.42.59-2.1.12-.34.34-.64.63-.86.3-.21.64-.36,1-.46.39-.1.77-.25,1.14-.42.38-.2.69-.51.89-.89.31-.79.51-1.62.59-2.47.06-.42.21-.82.44-1.17.24-.34.6-.57,1-.65.84-.16,1.74.15,2.68,0,.47-.07.91-.29,1.25-.63.32-.33.59-.69.81-1.09.24-.37.46-.75.73-1.09.26-.35.6-.62,1-.79.79-.25,1.64-.22,2.42.06.78.26,1.61.35,2.43.26.76-.18,1.48-.5,2.13-.93.6-.39,1.24-.73,1.9-1,1.23-.39,2.56-.4,3.8-.05,1.03.28,1.99.79,2.79,1.49.6.54,1.11,1.17,1.52,1.87.26.44.47.91.64,1.39l.15.37.05.13v-.14c-.05-.12-.09-.25-.13-.38-.16-.49-.36-.96-.61-1.41-.41-.71-.92-1.35-1.52-1.91-.81-.72-1.78-1.25-2.82-1.55-1.27-.38-2.62-.38-3.89,0-.68.27-1.33.61-1.94,1-.63.42-1.34.73-2.08.9-.79.09-1.6,0-2.35-.26-.41-.11-.82-.19-1.24-.24-.9-.12-1.8.26-2.33,1-.26.36-.51.73-.73,1.11-.22.38-.48.74-.79,1.05-.3.31-.7.51-1.13.58-.88.13-1.78-.18-2.7,0-.46.08-.87.34-1.14.73-.24.38-.41.8-.48,1.24-.08.83-.27,1.64-.57,2.42-.18.35-.46.64-.81.82-.36.17-.73.31-1.11.41-.39.1-.75.26-1.08.48-.33.25-.57.6-.69,1-.26.72-.28,1.47-.58,2.09-.31.59-.83,1.03-1.46,1.25-.59.25-1.2.44-1.73.72-.94.55-1.71,1.36-2.22,2.33-.47.82-.8,1.58-1.09,2.18l-.65,1.39-.16.36c-.05.11-.07.15-.06.15Z" fill="#455a64"/>
    <path d="m564.79,123.22h-.11c-.12,0-.23.02-.34.07-.4.24-.65.67-.66,1.13-.01.34.03.67.12,1,.1.36.15.74.15,1.11-.06.43-.22.83-.48,1.17-.25.39-.57.76-.84,1.21-.3.48-.37,1.07-.18,1.61.19.55.58,1,.76,1.57.17.59.1,1.22-.2,1.76-.26.58-.63,1.14-.88,1.79-.14.32-.21.66-.22,1,0,.37.07.73.22,1.07.34.65.74,1.27,1.19,1.85.46.56.68,1.28.64,2-.19.75-.46,1.47-.81,2.15-.16.37-.25.77-.26,1.17,0,.4.1.8.28,1.16.38.66.83,1.28,1.35,1.84.49.53.86,1.15,1.09,1.83.16.68.38,1.35.63,2,.14.32.36.6.63.82.27.2.58.35.9.45.3.09.59.21.88.34.27.14.52.31.74.51.39.42.73.89,1,1.39.29.48.55,1,.85,1.38.54.78,1.31,1.37,2.2,1.68.67.24,1.38.32,2.09.24.44-.05.88-.17,1.28-.36.14-.06.28-.14.41-.22-.53.27-1.11.44-1.7.5-.68.06-1.36-.03-2-.26-.87-.31-1.61-.9-2.13-1.66-.29-.42-.54-.89-.83-1.38-.27-.52-.61-.99-1-1.42-.23-.22-.49-.4-.77-.55-.29-.14-.59-.25-.9-.35-.31-.09-.59-.24-.85-.43-.25-.21-.45-.47-.58-.76-.25-.65-.45-1.32-.62-2-.24-.7-.61-1.35-1.11-1.9-.51-.54-.96-1.14-1.33-1.79-.17-.34-.25-.71-.26-1.08.02-.38.1-.75.25-1.1.36-.69.64-1.43.82-2.19.05-.4,0-.8-.14-1.17-.14-.35-.32-.69-.54-1-.44-.57-.83-1.18-1.17-1.82-.14-.31-.21-.66-.21-1,0-.34.07-.68.21-1,.24-.62.6-1.18.87-1.78.3-.58.37-1.25.2-1.88-.21-.6-.6-1-.78-1.57-.18-.49-.12-1.05.16-1.49.25-.44.57-.82.83-1.21.26-.36.42-.79.47-1.23,0-.39-.05-.77-.16-1.14-.09-.31-.13-.62-.14-.94.01-.44.24-.84.6-1.09.12-.04.25-.05.38-.03Z" fill="#455a64"/>
    <path d="m631.23,139.05c.17.02.34.02.51,0,.49-.09.95-.28,1.36-.56.66-.44,1.15-1.1,1.38-1.86.3-1.02.13-2.12-.47-3-.37-.49-.78-.94-1.25-1.34-.5-.42-.9-.95-1.17-1.55-.2-.66-.16-1.37.13-2,.26-.68.65-1.34.9-2.1,1.08-3.3-.72-6.84-4.02-7.92-.19-.06-.38-.11-.57-.16l.06.15c.3-.41.5-.89.58-1.39.07-.51.05-1.03-.07-1.53-.12-.5-.33-.98-.62-1.41-.29-.44-.65-.82-1.06-1.15-1.24-.91-2.67-1.52-4.18-1.78-1.41-.29-2.86-.38-4.3-.27l.1.1c-.03-1.69-.99-3.23-2.5-4-.7-.34-1.47-.5-2.25-.47-.72.07-1.43.24-2.11.51-.32.11-.66.18-1,.21-.34.03-.68,0-1-.12-.59-.22-1.16-.5-1.68-.85-.5-.33-1.03-.59-1.6-.77-.52-.16-1.07-.25-1.62-.25-.93,0-1.85.22-2.67.68-.99.55-1.78,1.39-2.28,2.41-.06.13-.12.27-.16.41,0,0,.06-.14.19-.4.2-.38.44-.73.72-1.06.44-.52.97-.95,1.57-1.28,1.29-.69,2.81-.83,4.21-.39.55.19,1.08.45,1.57.77.53.36,1.11.65,1.71.88.32.1.66.15,1,.13.34-.03.68-.1,1-.21.66-.27,1.36-.44,2.07-.5.75-.03,1.49.13,2.16.46,1.44.74,2.36,2.21,2.39,3.83v.1h.1c1.42-.11,2.85-.02,4.25.27,1.48.26,2.89.85,4.1,1.74.38.32.72.69,1,1.1.27.42.47.88.59,1.36.12.47.14.97.07,1.45-.07.47-.26.92-.54,1.3l-.09.12h.14c3.3.75,5.36,4.04,4.61,7.34-.04.17-.09.34-.14.51-.24.73-.62,1.4-.89,2.09-.3.67-.34,1.44-.12,2.14.28.62.69,1.17,1.21,1.6.46.39.88.83,1.25,1.31.59.86.77,1.93.48,2.93-.22.75-.69,1.39-1.33,1.83-.4.28-.85.48-1.33.58-.21,0-.39,0-.39,0Z" fill="#263238"/>
    <path d="m562.64,118.78v-.49c0-.32.09-.79.15-1.38s.17-1.33.35-2.16c.19-.95.49-1.87.9-2.75.49-1.06,1.2-2.01,2.09-2.77.5-.42,1.06-.76,1.66-1,.65-.22,1.32-.4,2-.54.72-.16,1.39-.45,2-.86.62-.46,1.18-.99,1.66-1.59.51-.59,1-1.22,1.56-1.78.55-.58,1.21-1.05,1.94-1.38,1.47-.62,3.05-.93,4.65-.9,1.49-.03,2.98.06,4.45.26,2.5.31,4.94,1.04,7.2,2.15,1.52.75,2.92,1.75,4.13,2.94l.56.57c.14.18.27.33.38.45l.23.27.09.09-.07-.1-.22-.28-.37-.47c-.15-.17-.34-.36-.55-.58-1.2-1.22-2.59-2.23-4.12-3-2.27-1.13-4.72-1.88-7.24-2.2-1.47-.19-2.95-.26-4.43-.23-1.62-.03-3.23.28-4.72.91-.75.35-1.43.83-2,1.43-.57.57-1.06,1.2-1.56,1.78-.47.59-1.02,1.12-1.62,1.57-.61.4-1.29.69-2,.84-.68.14-1.35.33-2,.55-.62.24-1.19.58-1.7,1-.9.78-1.62,1.75-2.11,2.83-.4.89-.7,1.83-.88,2.79-.14.72-.24,1.45-.31,2.18-.06.6-.1,1.06-.12,1.38v.36c0,.09.02.1.02.11Z" fill="#263238"/>
    <path d="m590.8,146.28c-.05-.97-.64-1.84-1.53-2.24-.9-.38-1.95-.16-2.62.56-.6.72-.66,1.75-.13,2.52.23.39.58.7,1,.89.54.23,1.14.3,1.71.18.48-.07.92-.3,1.24-.67.25-.36.37-.8.33-1.24Z" fill="#ff9a6c"/>
    <path d="m560.86,241.38s-6.89,20.6-7.84,37.45,12.73,65.22,14.62,76.29c1.29,7.53,7.63,45.14,15.26,68h11.74s-7.63-76.29-7.31-84.24,3.18-50.23,3.18-50.23l4.13-32.1-33.78-15.17Z" fill="#263238"/>
    <path d="m625.81,248.95c-.95.32-34.11,6-34.11,6,0,0-11.29,87-12.25,98.49s15.19,69.71,15.19,69.71h16.21s-.32-38.47-2.86-50.23-2.54-14.62-1-21.93,16.46-42.39,20.59-61.78-1.77-40.26-1.77-40.26Z" fill="#263238"/>
    <path d="m588.85,277.98c0,.13,0,.25,0,.38,0,.27-.07.64-.12,1.12-.12,1-.29,2.43-.51,4.28-.46,3.73-1.12,9.1-1.94,15.73-1.67,13.3-4,31.63-6.53,51.88-.08,2.51.08,5.02.48,7.5.34,2.45.77,4.86,1.24,7.22.93,4.72,2,9.25,3,13.54,2.12,8.6,4.24,16.28,6.06,22.72s3.37,11.63,4.44,15.22l1.23,4.13c.13.45.24.81.31,1.07s.1.37.1.37c-.05-.12-.1-.24-.14-.36l-.35-1.06c-.31-1-.75-2.34-1.31-4.11-1.12-3.57-2.7-8.75-4.56-15.18s-4-14.11-6.16-22.7c-1.07-4.3-2.13-8.83-3.06-13.56-.47-2.36-.9-4.78-1.25-7.25-.4-2.51-.56-5.04-.49-7.58,2.51-20.29,4.94-38.61,6.66-51.89.88-6.62,1.59-12,2.08-15.71.25-1.84.45-3.28.59-4.28.07-.47.12-.84.16-1.1s.07-.38.07-.38Z" fill="#455a64"/>
    <path d="m611.03,268.46c-1.06.24-2.12.41-3.2.52-2,.29-4.68.76-7.64,1.47s-5.59,1.52-7.48,2.15c-1.01.39-2.04.72-3.08,1,0,0,.26-.18.77-.41s1.26-.55,2.19-.91c2.45-.92,4.95-1.69,7.49-2.3,2.54-.61,5.11-1.05,7.71-1.34,1-.11,1.81-.17,2.37-.19.29-.03.58-.03.87.01Z" fill="#455a64"/>
    <path d="m528.1,45.55c0,.72-4.91,1.3-11,1.3s-11-.58-11-1.3,4.91-1.31,11-1.31,11,.59,11,1.31Z" fill="#263238"/>
    <path d="m591.37,144.89s-.13.4-.61.84c-.64.56-1.42.94-2.25,1.12-.83.2-1.68.2-2.51,0-.62-.16-1-.39-.93-.45,1.1.16,2.23.16,3.33,0,.76-.17,1.48-.48,2.13-.91.5-.38.78-.65.84-.6Z" fill="#263238"/>
    <path d="m611.05,167.05c-.56-.36-8-1.9-8-1.9l-17.87.47-6.4,1.18s-1.19,19.86-1,20.22,8.44,7.17,8.79,7.53,17.43-5.38,17.43-5.38l11.27-20.21-4.22-1.91Z" fill="#ffbf9d"/>
    <path d="m606.55,165.92c.9,0,15.27,3,19.33,6.45,4.3,3.66,14.88,18.73,14.88,18.73l-19.8,12.28-1.16,18.33s6.1,23.75,7.17,32.17c0,0-45.62,36.36-70.12-1.13,0,0,6.28-18.17,8.84-24.15.5-1.18-4.86-19.5-4.83-24.33,0-7.76,2.26-23.14,2.26-23.14l7.9-13.41,11.46-1.8s-2.69,8.22,6.69,9.75c9.61,1.58,17.38-9.75,17.38-9.75Z" fill="#455a64"/>
    <path d="m625.28,244.76c-.19.13-.4.24-.62.32l-1.81.83c-1.58.68-3.9,1.63-6.83,2.62-3.43,1.17-6.93,2.12-10.48,2.85-4.34.94-8.76,1.47-13.2,1.59-8.09.31-16.16-.97-23.76-3.77-1.43-.59-2.7-1.16-3.83-1.65-.53-.22-1.04-.47-1.54-.75l-1.26-.7-1.74-1c-.21-.1-.4-.22-.58-.37.22.08.43.17.63.28l1.78.88,1.28.65c.5.28,1.02.52,1.55.72l3.84,1.57c7.57,2.67,15.58,3.89,23.61,3.59,4.41-.12,8.81-.64,13.13-1.54,3.54-.7,7.03-1.62,10.46-2.73,2.93-.94,5.26-1.83,6.87-2.46l1.84-.73c.22-.08.44-.15.66-.2Z" fill="#fff"/>
    <path d="m621.69,185.79c.06.44.08.89.06,1.34v3.65c-.06,3.08-.2,7.34-.46,12s-.59,8.94-.88,12c-.14,1.53-.27,2.78-.37,3.63-.03.45-.1.9-.22,1.33-.04-.45-.04-.9,0-1.35.05-1,.12-2.18.21-3.64.19-3.18.44-7.37.72-12s.45-8.84.61-12c.08-1.46.15-2.68.2-3.64,0-.44.04-.89.13-1.32Z" fill="#263238"/>
    <path d="m559.36,207.21l-15.42-17.22s20.14-23.9,28.85-22.25l-7.39,31.48-6.04,7.99Z" fill="#455a64"/>
    <path d="m566.09,181.71c.08,0-.59,1.56-1.46,4.08-1.11,3.3-1.95,6.68-2.52,10.12-.58,3.43-.83,6.91-.74,10.39.1,2.67.49,4.29.4,4.31-.16-.36-.27-.74-.33-1.13-.21-1.04-.36-2.1-.44-3.16-.2-3.51,0-7.03.6-10.49.56-3.47,1.46-6.87,2.68-10.16.49-1.25.91-2.26,1.25-2.93.14-.37.33-.71.56-1.03Z" fill="#263238"/>
    <path d="m562.38,192.43c-.11.11-2.5-2.28-5.78-4.81s-6.19-4.25-6.12-4.39c.71.24,1.38.58,2,1,1.54.9,3.02,1.91,4.43,3,1.41,1.09,2.75,2.27,4,3.54.56.49,1.05,1.05,1.47,1.66Z" fill="#fff"/>
    <path d="m621.22,199.26c-.2.03-.4.03-.6,0h-1.72l-6.32-.19-20.85-.78c-8.15-.29-15.52-.49-20.86-.61l-6.32-.13-1.72-.06c-.2.02-.4.02-.6,0,.2-.04.4-.06.6-.05h8.05c5.34,0,12.72.16,20.87.45s15.51.66,20.84.93l6.32.36,1.71.12c.2-.03.4-.04.6-.04Z" fill="#fff"/>
    <path d="m635.87,184.92c-.64.48-1.32.89-2.05,1.22l-5,2.73-5,2.78c-.67.43-1.39.78-2.14,1.06.6-.53,1.25-1,1.95-1.38,1.24-.79,3-1.84,5-2.91s3.8-2,5.14-2.61c.66-.37,1.37-.67,2.1-.89Z" fill="#fff"/>
    <path d="m619.72,223.36c0,.15-12.3.26-27.47.26s-27.48-.11-27.48-.26,12.3-.26,27.48-.26,27.47.12,27.47.26Z" fill="#fff"/>
    <path d="m610.99,168.45c-.05.15-.11.3-.2.43-.14.28-.37.68-.68,1.18-.89,1.43-1.92,2.77-3.07,4-1.71,1.82-3.7,3.36-5.89,4.55-2.71,1.46-5.72,2.27-8.8,2.37-3.09.12-6.15-.61-8.85-2.11-2.18-1.25-4.03-3.02-5.38-5.14-.9-1.43-1.53-3.01-1.86-4.67-.08-.45-.14-.9-.16-1.35-.02-.16-.02-.32,0-.48,0,0,.08.65.35,1.79.4,1.61,1.08,3.13,2,4.51,1.36,2.04,3.18,3.73,5.31,4.93,2.63,1.43,5.61,2.12,8.6,2,2.99-.1,5.93-.87,8.58-2.27,2.16-1.16,4.14-2.63,5.86-4.38,1.16-1.19,2.21-2.47,3.16-3.83.68-.99.99-1.55,1.03-1.53Z" fill="#fff"/>
    <path d="m605.94,234.44s6.33-1.71,7-1.35,5.36,2.85,5.36,2.85c.69.86,1.43,1.66,2.23,2.42,0,0,1.62,1.54,2.74,1.59.6.04,1.2-.02,1.78-.19l3.73,7.65s-2,2.52-3.33,2.5-9-3.23-9-3.23l-1.84-.4s-6.92,1-7.48-1.08l-.07-.6,6.8-1.33,2.59.15-4.59-1.18s-6.47.32-7.08.21-1.39-1-1.19-1.5l1.34-.31s-1.58-.86-1.62-1.8l6-1.62s-3.91-1.44-3.37-2.78Z" fill="#ffbf9d"/>
    <path d="m604.18,240.61c.19-.02.37-.06.55-.13.35-.11.86-.25,1.49-.41,1.25-.33,3-.74,4.94-1.17.23-.06.46-.1.7-.13.22-.04.45-.04.67,0,.43.12.87.27,1.27.41.81.27,1.53.55,2.12.81.47.2.93.42,1.38.67.16.1.32.19.49.27-.12-.15-.27-.27-.43-.37-.43-.28-.89-.53-1.35-.76-.69-.33-1.41-.62-2.13-.87-.41-.14-.82-.29-1.29-.43-.25-.06-.5-.07-.75-.05-.25.03-.5.08-.74.14-1.94.43-3.69.87-4.94,1.25-.62.19-1.12.36-1.46.49-.18.07-.36.17-.52.28Z" fill="#ff9a6c"/>
    <path d="m609.12,237.52s.47-.22,1.27-.47c1.03-.32,2.13-.41,3.2-.25,1.08.16,2.1.56,3,1.17.7.46,1.06.84,1.09.81-.26-.4-.6-.74-1-1-1.83-1.37-4.22-1.73-6.37-.94-.44.14-.85.37-1.19.68Z" fill="#ff9a6c"/>
  </g>
  <g id="freepik--character-3--inject-96">
    <path d="m460.03,142.05l.49-40.82c.46-10.15-5.07-18.87-15.23-19h-.94c-9.46.39-17.03,7.98-17.4,17.44-.35,8.8-.61,18.53-.36,23.23.52,9.73,10.33,10.85,10.33,10.85,0,0,.06,5.92.05,8.78l5.73,4.74h0l17.33-5.22Z" fill="#ffbf9d"/>
    <path d="m436.92,133.73c4.5-.2,8.84-1.69,12.52-4.28,0,0-2.74,7.45-12.5,7l-.02-2.72Z" fill="#ff9a6c"/>
    <path d="m431.44,107.78c.02.76.64,1.36,1.4,1.35.73.03,1.35-.53,1.38-1.26,0-.02,0-.03,0-.05-.02-.76-.64-1.36-1.4-1.35-.74-.02-1.36.56-1.38,1.3,0,0,0,0,0,.01Z" fill="#263238"/>
    <path d="m429.2,103.86c.18.18,1.2-.65,2.7-.7s2.62.64,2.78.45-.12-.4-.61-.73c-.66-.42-1.44-.63-2.23-.59-.78.03-1.53.3-2.14.79-.45.37-.59.71-.5.78Z" fill="#263238"/>
    <path d="m444.88,107.78c.02.76.64,1.36,1.4,1.35.74.02,1.36-.56,1.38-1.3,0,0,0,0,0-.01-.02-.76-.64-1.36-1.4-1.35-.73-.03-1.35.53-1.38,1.26,0,.02,0,.03,0,.05Z" fill="#263238"/>
    <path d="m443.89,103.6c.18.18,1.2-.64,2.69-.7s2.63.64,2.78.45-.11-.4-.6-.73c-.67-.42-1.45-.63-2.24-.59-.78.03-1.52.31-2.13.79-.45.37-.59.71-.5.78Z" fill="#263238"/>
    <path d="m438.99,115.33c-.8-.22-1.62-.33-2.45-.34-.38,0-.75-.08-.82-.34-.05-.4.03-.8.21-1.15.32-.94.65-1.92,1-2.95,1.39-4.21,2.39-7.67,2.22-7.72s-1.44,3.31-2.84,7.52c-.34,1.04-.67,2.04-1,3-.22.47-.27,1.01-.14,1.51.13.26.37.46.65.53.22.05.44.07.66.07.84.06,1.68.02,2.51-.13Z" fill="#263238"/>
    <path d="m443.21,98.94c.22.38,1.65-.09,3.42-.2s3.25.11,3.41-.3c.08-.19-.24-.52-.87-.8-.84-.35-1.75-.49-2.65-.41-.91.05-1.79.32-2.56.79-.59.37-.85.74-.75.92Z" fill="#263238"/>
    <path d="m428.95,99.47c.32.33,1.53-.06,3-.11s2.72.15,3-.21c.12-.18-.08-.51-.63-.82-.76-.38-1.6-.55-2.45-.49-.84.02-1.67.28-2.37.75-.53.36-.69.71-.55.88Z" fill="#263238"/>
    <path d="m460.03,108.47c.16-.08,6.61-2.26,6.67,4.41s-6.64,5.36-6.66,5.17-.01-9.58-.01-9.58Z" fill="#ffbf9d"/>
    <path d="m462.06,115.5s.11.08.31.17c.28.11.59.11.87,0,.87-.57,1.36-1.56,1.3-2.59.02-.57-.1-1.14-.34-1.66-.13-.43-.46-.76-.88-.89-.28-.06-.56.07-.68.33-.09.19-.05.32-.08.33s-.14-.11-.09-.39c.03-.16.12-.31.25-.42.19-.14.42-.2.65-.17.55.1,1.01.48,1.22,1,.29.58.43,1.22.42,1.86.08,1.21-.58,2.35-1.67,2.89-.36.11-.75.05-1.06-.17-.21-.13-.25-.28-.22-.29Z" fill="#ff9a6c"/>
    <path d="m443.69,116.26c-.23,0-.24,1.51-1.55,2.59s-2.95.91-3,1.12.36.3,1,.32c.9.02,1.77-.28,2.47-.84.67-.55,1.1-1.33,1.21-2.18.15-.64-.02-1.02-.13-1.01Z" fill="#263238"/>
    <path d="m413.49,90.87c.11-.39.37-.73.73-.93.78-.36,1.64-.51,2.49-.43,2.12-.07,4.2-.61,6.08-1.6-.66-.32-1.27-.73-1.8-1.24-1.16-1.04-1.64-2.64-1.26-4.15.06-.28.26-.52.52-.64.43-.14.82.28,1.12.61.79,1.06,2.1,1.59,3.41,1.4.89-.06,1.76-.33,2.53-.78l.08-.09,1-1h0c2.48-2.52,4.62-4.27,6.83-5.19,3.85-1.45,8.03-1.83,12.08-1.09,3.41.86,6.49,3.58,7,7,1.88-1.63,4.74-1.65,7.07-.75h.06c2.59.89,4.09,3.6,4.88,6.22l.12.44c.89,1.38,2.1,2.53,3.52,3.35.25.14.53.32.57.61s-.21.52-.44.69c-.62.45-1.33.75-2.08.89.24.63.54,1.23.88,1.81.3.49.65,1.07.4,1.59-.23.39-.68.59-1.13.51-.44-.09-.85-.27-1.21-.53.3.68.59,1.37.89,2.06-.94.17-1.9.11-2.81-.16-.53,2.47-.89,7-1.5,8.71-1.77,0-2.2-.13-3.09.17-1.15.4-.69,2.44-2.2,1.87-.77-.28-2-3.17-2.24-3.95-1.76-5.17-2.38-10.66-1.83-16.09-1.08-1.13-2.38-2.05-3.81-2.69l.12.1c-2.74-.91-5.84-1.81-8.41-.5-2,1-3.15,3.11-4.63,4.79-2.52,3.11-6.24,4.99-10.24,5.17-.34,3-.4,7.76-.52,10.51l-2.4-5.47h0c-.19-.32-.36-.66-.51-1l-.06-.1h0c-.24-.53-.5-1.05-.79-1.56h0c-.73.61-1.81.52-2.42-.2-.5-.59-.54-1.43-.12-2.07.23-.32.51-.6.82-.84-.68.67-1.66.93-2.58.7-.92-.28-1.54-1.13-1.53-2.09.07-.65.48-1.2,1.07-1.47-1.21.11-2.43-.14-3.49-.73-.71-.35-1.39-.99-1.17-1.86Z" fill="#263238"/>
    <path d="m451.25,83.9c.35.27.69.57,1,.89.78.92,1.31,2.03,1.53,3.22.18.82.27,1.65.28,2.48,0,.9-.05,1.86-.1,2.87-.07,1.07-.07,2.14,0,3.21.04.57.12,1.13.24,1.68.09.6.33,1.16.71,1.63.35.38.87.55,1.38.45.48-.1.91-.35,1.23-.72.52-.73.84-1.59.91-2.49h-.2c.3.72.71,1.4,1.21,2,.48.57,1.17.93,1.91,1,.34.03.69-.03,1-.18.29-.16.53-.4.68-.69.14-.26.21-.56.2-.86-.02-.28-.13-.55-.33-.76l-.1.09c.59.66,1.31,1.19,2.12,1.55.21.1.43.18.65.25l.23.05-.22-.09c-.15-.06-.36-.14-.63-.27-.77-.39-1.45-.92-2-1.58l-.11.1c.34.41.37,1,.08,1.45-.14.26-.35.46-.61.6-.28.14-.6.19-.91.16-.7-.09-1.33-.45-1.77-1-.48-.61-.88-1.28-1.17-2l-.14-.31-.06.34c-.08.86-.38,1.68-.87,2.38-.28.33-.67.55-1.1.63-.43.1-.88-.05-1.18-.37-.34-.45-.57-.97-.65-1.53-.12-.54-.2-1.09-.24-1.65-.07-1.06-.07-2.11,0-3.17.05-1,.1-2,.08-2.9-.02-.84-.12-1.69-.31-2.51-.24-1.21-.8-2.33-1.63-3.24-.33-.3-.7-.54-1.11-.71Z" fill="#455a64"/>
    <path d="m421.17,93.74l.07.07.25.17c.13.1.27.19.42.26.19.12.39.22.59.31,1.32.58,2.76.82,4.19.7,2.13-.16,4.17-.94,5.87-2.24,2.05-1.6,3.75-3.61,5-5.89.7-1.19,1.26-2.41,1.89-3.53.57-1.1,1.29-2.11,2.14-3,.77-.8,1.73-1.4,2.79-1.74.48-.14.99-.2,1.49-.19.46.03.92.11,1.36.25.76.25,1.46.66,2.05,1.2.45.41.82.89,1.11,1.42.24.46.41.95.52,1.46v-.11c0-.11,0-.18-.05-.29-.08-.38-.21-.75-.38-1.1-.28-.55-.66-1.05-1.11-1.47-.6-.56-1.3-.99-2.08-1.26-.45-.16-.93-.25-1.41-.27-.52-.02-1.04.04-1.54.18-1.1.34-2.09.95-2.89,1.77-.87.89-1.61,1.9-2.19,3-.63,1.13-1.2,2.35-1.89,3.53-1.23,2.25-2.9,4.24-4.92,5.83-1.68,1.3-3.7,2.08-5.81,2.25-1.41.13-2.83-.08-4.14-.62-.46-.2-.9-.43-1.33-.69Z" fill="#455a64"/>
    <path d="m420.23,89.46s.12.1.35.24c.32.2.65.37,1,.52.54.22,1.09.39,1.65.52.69.14,1.39.23,2.1.25.71.01,1.41-.04,2.11-.16.57-.11,1.13-.26,1.67-.46.37-.13.72-.28,1.06-.47.13-.06.25-.14.37-.22,0,0-.56.24-1.48.54-.54.17-1.09.31-1.65.4-.68.1-1.38.15-2.07.14-.7-.02-1.39-.09-2.07-.23-.55-.12-1.1-.28-1.63-.48-.87-.32-1.39-.62-1.41-.59Z" fill="#455a64"/>
    <path d="m370.99,160.97c-.37-2.56-1.26-5.02-2.63-7.22-2.08-3-9.55-9.63-9.55-9.63-2.08.46-1.67,2.84.21,6.47,2.43,4.7-4.62,14.16-4.51,14.61s9.8,6.53,9.8,6.53l7.84-5.94-1.16-4.82Z" fill="#ffbf9d"/>
    <path d="m359.8,263.38c-.14,0-.26-42.48-.26-94.88s.12-94.89.26-94.89.26,42.47.26,94.89-.11,94.88-.26,94.88Z" fill="#263238"/>
    <path d="m355.55,163.32s3,2,4.48,1.21c1.01-.53,1.41-1.78.88-2.79-.1-.19-.23-.37-.38-.52.68.58,1.69.5,2.27-.18.09-.11.17-.23.23-.35.47-1.11.23-2.4-.61-3.27,0,0,.92-.12.86-1.87s-2-3.24-2-3.24c.65-1.22.61-2.7-.11-3.88-1.25-2-4.48-3.22-5.51-3.08-.18,0-2.31-.06-2.31,1.84s.47,2.42.47,2.42c0,0-1.69,1-.12,4.27,0,0-2.07,1.42-.24,4.39,0,0-1,3.65-.34,5.13.46.95,1.14,1.77,2,2.39" fill="#ffbf9d"/>
    <path d="m355.16,165.79s-.19-.08-.49-.31c-.44-.35-.84-.76-1.17-1.22-.25-.33-.44-.7-.58-1.09-.12-.48-.17-.97-.15-1.46.05-1.18.23-2.35.52-3.49v.14c-.45-.67-.73-1.44-.8-2.24-.07-.93.33-1.84,1.07-2.42l-.08.28c-.35-.69-.58-1.43-.68-2.2-.16-.89.18-1.8.88-2.38l-.06.38c-.24-.37-.39-.79-.44-1.22-.07-.4-.1-.81-.1-1.22-.03-.46.08-.91.32-1.3.28-.38.68-.66,1.14-.79.43-.11.88-.17,1.33-.17.45.03.9.12,1.32.28.87.28,1.69.68,2.45,1.19,1,.61,1.77,1.52,2.2,2.6.35,1.09.24,2.28-.3,3.29l-.06-.33c.88.68,1.55,1.59,1.93,2.63.16.52.19,1.07.09,1.61-.04.6-.43,1.11-1,1.3l.14-.39c.42.47.72,1.04.87,1.65.13.59.07,1.22-.19,1.77-.22.57-.71.98-1.3,1.11-.55.07-1.11-.08-1.55-.42l.26-.26c.44.53.66,1.21.61,1.9-.07.62-.42,1.18-.95,1.52-.46.28-1,.38-1.52.28-.42-.06-.83-.18-1.23-.34-.54-.21-1.06-.48-1.55-.79-.34-.21-.5-.34-.49-.36s.72.44,2.11,1c.39.14.78.23,1.19.28.46.07.93-.03,1.32-.28.44-.29.73-.77.78-1.3.03-.6-.18-1.19-.57-1.64l-.75-.93,1,.66c.37.26.81.38,1.26.33.46-.11.84-.45,1-.9.4-1.01.15-2.16-.63-2.92l-.27-.3.41-.09c.36-.17.59-.53.61-.93.09-.46.05-.93-.09-1.38-.36-.94-.97-1.76-1.77-2.37l-.17-.13.1-.2c.47-.88.56-1.92.25-2.87-.41-.97-1.11-1.78-2-2.33-.7-.47-1.46-.85-2.26-1.13-.38-.13-.78-.22-1.18-.25-.39,0-.78.04-1.16.14-.35.09-.65.29-.87.58-.18.3-.27.65-.24,1,0,.39.03.77.09,1.15.04.35.14.69.31,1l.15.23-.21.15c-.53.48-.78,1.2-.66,1.9.09.72.3,1.41.62,2.06l.08.16-.15.11c-.62.5-.95,1.26-.91,2.05.06.73.3,1.44.7,2.06v.14c-.61,2.46-1,4.7,0,5.84.43.58.92,1.11,1.47,1.58Z" fill="#ff9a6c"/>
    <path d="m363.81,152.41c-.28,1.8-.32,3.63-.13,5.44.36,1.8.95,3.55,1.76,5.2-.42-.36-.76-.81-1-1.31-.64-1.17-1.08-2.44-1.28-3.76-.21-1.33-.18-2.68.09-4,.07-.56.26-1.1.56-1.57Z" fill="#ff9a6c"/>
    <path d="m360.64,161.32c-.06,0-.39-.32-1-.83-.77-.65-1.61-1.21-2.5-1.66-.46-.28-.95-.49-1.47-.64-.43-.09-.86-.12-1.3-.11-.74,0-.93.57-1,.51s0-.15.1-.36c.2-.29.52-.48.87-.51.48-.08.96-.08,1.44,0,.57.13,1.12.35,1.63.65.93.47,1.78,1.1,2.5,1.86.55.61.73,1.06.73,1.09Z" fill="#ff9a6c"/>
    <path d="m362.42,157.42c0,.06-.48-.29-1.22-.77s-1.81-1.06-3-1.7c-.96-.58-2.05-.93-3.18-1-.86,0-1.4.12-1.42,0,.42-.28.92-.42,1.42-.4,1.21-.04,2.4.28,3.43.92,1.05.53,2.06,1.15,3,1.86.67.59,1.02,1.04.97,1.09Z" fill="#ff9a6c"/>
    <path d="m361.88,152.9c-.1.09-1.55-1.35-3.77-2.55-.9-.54-1.95-.81-3-.77-.8.05-1.29.25-1.32.17s.41-.39,1.28-.53c1.13-.16,2.29.08,3.26.68.97.53,1.87,1.17,2.67,1.93.64.59.93,1.03.88,1.07Z" fill="#ff9a6c"/>
    <path d="m385.64,87.12c4.78-8.44,4.3-20.45.83-29.51s-11.69-18.21-26-18.68c-6.17-.35-12.29,1.17-17.57,4.38-5.46,3.16-10.55,9.71-13,15.5-2.28,5.31-2.49,11.25-2.06,17,.92,12.09,6.2,21.32,18.27,28.57,2.72,1.63,9.79,3.73,11.35,4.1-.99,1.37-1.55,3.01-1.6,4.7-.08.6.13,1.19.56,1.61.57.33,1.3.23,1.75-.25.43-.48.74-1.05.92-1.67.11.55.31,1.09.58,1.58.42.78,1.4,1.07,2.18.65.43-.23.73-.65.82-1.13.17-.76.17-1.56,0-2.32.31.75.83,1.4,1.5,1.86.68.4,1.55.17,1.94-.51.02-.04.04-.07.06-.11.07-.55-.08-1.11-.43-1.55-.71-1.17-1.44-2.34-2.18-3.49-.03,0,12.59-4,22.08-20.73Z" fill="#ff7200"/>
    <g opacity=".2">
      <path d="m362.88,42.32c-.58-1.16-2.07-1.6-3.68-1.77-4.2-.24-8.4.53-12.25,2.22-3.69,1.53-6.9,4.02-9.31,7.21-1.13,1.39-3,4.66-1,6.47.05.04.1.07.16.09,2.59,1,4.5-.6,5.94-2.27.9-1.21,1.93-2.32,3.07-3.3,1.57-1.28,3.45-2.13,5.45-2.47,1.92-.15,4.51-.07,6.4-.38s3.57-.44,4.79-1.93c.86-1.11,1.03-2.6.43-3.87Z" fill="#fff"/>
    </g>
    <path d="m364.37,107.72c-2.31,1.18-4.98,1.46-7.49.8,0-.15,1.71,0,3.76-.23s3.68-.72,3.73-.57Z" fill="#263238"/>
    <g opacity=".2">
      <circle cx="376.61" cy="72.38" r="3.64" fill="#fff"/>
    </g>
    <g opacity=".2">
      <circle cx="340.33" cy="72.38" r="3.64" fill="#fff"/>
    </g>
    <path d="m354.21,67.67c0,1.66-1.34,3-3,3s-3-1.34-3-3,1.34-3,3-3h0c1.66,0,3,1.34,3,3Z" fill="#263238"/>
    <circle cx="365.41" cy="67.67" r="3.03" fill="#263238"/>
    <path d="m348.16,83.96c-.3-.07-.29-1.87,1.29-4.19.93-1.35,2.14-2.48,3.55-3.32,3.55-2.21,8.03-2.3,11.67-.24,1.44.78,2.7,1.86,3.69,3.17,1.67,2.26,1.76,4,1.46,4.13s-1.08-1.29-2.83-2.9c-4.34-4.36-11.39-4.38-15.75-.04-.12.12-.25.25-.37.38-1.69,1.67-2.33,3.1-2.71,3.01Z" fill="#263238"/>
    <path d="m370.98,165.17l20.77,20.76,17.89-23.66,10.39,14.71s-17.2,24.07-20.63,27.74c-3.17,3.36-7.22,4.87-13.46-.08s-22-32.4-22-32.4l7-7.07h.04Z" fill="#ffbf9d"/>
    <path d="m392.79,197.12c-.01-2.05-.14-4.1-.39-6.13-.4-2.01-.92-4-1.55-5.95.36.5.64,1.05.83,1.63.55,1.37.94,2.79,1.17,4.25.23,1.45.3,2.93.22,4.4,0,.61-.1,1.22-.28,1.8Z" fill="#ff9a6c"/>
    <path d="m420.84,400.41l.72,19.13s-19.2,7.16-19.41,10.7l37.14-.06.09-29.85-18.54.08Z" fill="#455a64"/>
    <path d="m433.04,417.91c.74.22,1.2.97,1.05,1.73-.2.75-.94,1.21-1.7,1.05-.78-.24-1.26-1.03-1.11-1.83.29-.76,1.13-1.17,1.9-.91" fill="#e0e0e0"/>
    <path d="m439.29,430.18l-.11-3-35.54,1.18s-1.65.72-1.46,1.88l37.11-.06Z" fill="#263238"/>
    <path d="m420.96,419.35c0,.18.91.26,1.8.84s1.37,1.35,1.54,1.27-.11-1.11-1.2-1.8-2.18-.48-2.14-.31Z" fill="#fff"/>
    <path d="m417.06,420.97c0,.17.75.48,1.37,1.25s.79,1.57,1,1.57.3-1-.49-2-1.87-.99-1.88-.82Z" fill="#fff"/>
    <path d="m414.86,425.63c.17,0,.42-.86-.05-1.86s-1.32-1.38-1.39-1.23.45.68.82,1.5.4,1.58.62,1.59Z" fill="#fff"/>
    <path d="m421.28,414.97c.07.17.9-.08,1.93,0s1.82.39,1.92.24-.68-.8-1.89-.87-2.05.49-1.96.63Z" fill="#fff"/>
    <path d="m465.39,401.6l1,23.13-4.46,18.53c-.31,1.28.48,2.56,1.76,2.87.05.01.1.02.15.03h0c.76.13,1.53-.11,2.07-.66,3.46-3.46,15.78-16.45,15.83-17.68.09-2,.66-24.76.66-24.76l-17.01-1.46Z" fill="#455a64"/>
    <path d="m463.87,446.16l18-20.19v1c0,.84-.27,1.67-.79,2.33-1.44,1.76-5.5,6.53-15.08,16.21-.56.56-1.36.81-2.14.66h.01Z" fill="#263238"/>
    <g opacity=".6">
      <path d="m476.95,418.61c-.58.45-.73,1.26-.35,1.88.42.6,1.24.76,1.86.37.61-.48.77-1.34.36-2-.51-.59-1.4-.66-2-.16" fill="#fff"/>
    </g>
    <path d="m468.94,435.93c-.57-.72-1.27-1.32-2.07-1.76-.85-.32-1.76-.47-2.67-.45,0-.06.27-.24.81-.33.71-.1,1.43.02,2.08.32.65.3,1.2.78,1.59,1.39.28.47.32.81.26.83Z" fill="#fff"/>
    <path d="m467.36,439.05c-.11.11-.87-.63-2.07-.95-.75-.12-1.51-.21-2.27-.24.71-.47,1.61-.56,2.4-.25,1.38.38,2.06,1.44,1.94,1.44Z" fill="#fff"/>
    <path d="m471.93,431.89c-1.9-1.43-4.18-2.27-6.55-2.41,1.2-.35,2.48-.27,3.62.25,1.2.35,2.24,1.12,2.93,2.16Z" fill="#fff"/>
    <path d="m472.2,424.83c-.06.14-1.35-.37-3-.39s-3,.4-3,.26c1.87-1.06,4.17-1.01,6,.13Z" fill="#fff"/>
    <path d="m472.07,418.05c-1.02-.31-2.07-.47-3.13-.49-1.05.13-2.08.42-3.05.84,0-.05.21-.35.73-.67.7-.4,1.48-.63,2.29-.68.81-.05,1.62.1,2.36.42.56.24.83.51.8.58Z" fill="#fff"/>
    <path d="m468.96,416.24c-.08-.28-.1-.58-.06-.87.06-.81.28-1.59.65-2.31.21-.54.6-1,1.09-1.31.37-.16.79-.08,1.08.19.24.28.38.63.39,1-.07,1.61-1.28,2.94-2.87,3.17-1.57.19-3.09-.58-3.87-1.95-.19-.34-.22-.75-.09-1.12.18-.38.59-.59,1-.52.57.12,1.1.38,1.54.76.64.49,1.19,1.09,1.62,1.77.18.24.31.5.38.79-.62-.86-1.36-1.63-2.21-2.27-.4-.32-.86-.53-1.36-.63-.22-.04-.44.08-.53.28-.07.25-.03.51.1.73.7,1.16,2.02,1.81,3.37,1.66,1.34-.2,2.37-1.31,2.48-2.66.01-.26-.07-.52-.24-.73-.16-.16-.4-.2-.6-.11-.44.25-.79.63-1,1.09-.47.95-.77,1.98-.87,3.04Z" fill="#fff"/>
    <path d="m409.41,240.41c-2.1,7.85-3.04,15.97-2.77,24.09.18,5.15,11.48,147.94,11.48,147.94l23.4,1-.91-133.79,1.89.5s10.36,57.48,11,66.75c.59,8.32,8.8,69,8.8,69l21.31-.58-3.38-78.19-4.71-76.74-2-22.37-64.11,2.39Z" fill="#263238"/>
    <path d="m444.82,266.18c-.31.21-.65.38-1,.51-.93.43-1.92.73-2.94.89-.72.1-1.44.07-2.15-.08-.84-.17-1.6-.58-2.21-1.18-.63-.69-1.07-1.53-1.27-2.44-.23-.92-.35-1.87-.5-2.84-.59-3.89-.94-7.43-1.13-10-.09-1.29-.15-2.33-.17-3.05-.05-.37-.05-.75,0-1.12.09.36.15.74.17,1.11l.33,3c.27,2.56.68,6.08,1.27,10,.29,1.92.47,3.86,1.61,5,1.08.99,2.55,1.44,4,1.22.99-.13,1.97-.37,2.91-.72.35-.14.71-.24,1.08-.3Z" fill="#455a64"/>
    <path d="m438.55,247.77s.15-.11.48-.12c.47,0,.93.18,1.3.48.57.44.91,1.13.91,1.85-.16,1.28-1.33,2.18-2.61,2.02-.53-.07-1.02-.32-1.39-.71-.42-.58-.55-1.31-.36-2,.12-.46.39-.86.76-1.15.27-.19.46-.21.47-.19-.44.37-.75.86-.89,1.42-.13.58.01,1.19.38,1.66.74.74,1.94.73,2.67,0,.28-.28.47-.65.53-1.04.01-.59-.24-1.16-.68-1.56-.44-.38-.99-.61-1.57-.65Z" fill="#455a64"/>
    <path d="m475.21,258.97c-.26.08-.53.11-.8.1-.73.03-1.46,0-2.19-.07-4.87-.48-9.43-2.63-12.9-6.09-.53-.51-1.01-1.06-1.45-1.65-.31-.42-.47-.66-.44-.68s.78.84,2.13,2.07c3.52,3.25,7.95,5.34,12.7,6,1.81.25,2.95.24,2.95.32Z" fill="#455a64"/>
    <path d="m418.73,247.36c-.33.83-.77,1.62-1.31,2.34-2.45,3.59-5.75,6.53-9.59,8.56-.77.44-1.6.77-2.46,1,.73-.48,1.49-.92,2.27-1.31,3.69-2.16,6.91-5.04,9.47-8.46,1.01-1.3,1.53-2.17,1.62-2.13Z" fill="#455a64"/>
    <path d="m465.04,237.99c-.15.09-.31.17-.48.22l-1.38.56c-1.2.49-3,1.12-5.17,1.85s-4.86,1.49-7.84,2.24-6.29,1.41-9.78,2-6.86.89-9.92,1.12-5.83.28-8.15.26-4.19-.07-5.49-.16l-1.49-.11c-.17,0-.34-.02-.51-.07.17-.02.35-.02.52,0h1.49c1.29,0,3.17.06,5.48,0s5.07-.14,8.12-.37,6.39-.61,9.88-1.14,6.78-1.24,9.75-1.94,5.63-1.45,7.84-2.14,4-1.27,5.21-1.7l1.41-.48c.16-.07.34-.11.51-.14Z" fill="#263238"/>
    <path d="m425.4,147.31h-10.34c-2.41.84-18.18,25-18.18,25l16.47,18.26,7.94-16.85,4.11-26.41Z" fill="#e0e0e0"/>
    <path d="m415.06,147.31l21.37-6.55s-.09,5.16,7.36,5.32c8.59.19,15.8-7.36,15.8-7.36,0,0,17.86,5.56,21.6,8.59s-8.5,66.19-8.5,66.19l-1.11,18.82c1.11,1.93,1.74,4.09,1.84,6.31,0,3.26.12,5.44.12,5.44-22.89,6.9-45.61,12.88-66.51,6.2,0,0,.52-11.1,1.73-14.12s1-3.31,1-3.31l2-34.73.36-26.13,2.94-24.67Z" fill="#e0e0e0"/>
    <path d="m481.37,147.28c3.75,2.89,6.31,7.05,7.22,11.7,1.57,7.85,5,27.41,5,27.41l-27.93,1.11s1.68-13.59,1.68-14.45,4.73-19.56,5-20,9.03-5.77,9.03-5.77Z" fill="#e0e0e0"/>
    <path d="m412.13,156.94c.13,0,.19,8,.15,17.94s-.19,17.95-.31,17.95-.19-8-.14-17.95.18-17.94.3-17.94Z" fill="#263238"/>
    <path d="m493.64,186.39c-.17.05-.34.07-.52.07l-1.49.1-5.54.31-18.46.86h-.22v-.22c0-.56-.09-1.17-.13-1.79-.46-6.55-.34-13.14.36-19.67.28-2.51.59-4.53.83-5.91.12-.7.23-1.24.31-1.6.03-.19.07-.37.13-.55.02.19.02.38,0,.57-.06.41-.13.94-.22,1.6-.19,1.4-.45,3.42-.69,5.92-.62,6.53-.72,13.1-.28,19.64,0,.61.1,1.22.14,1.79l-.23-.21,18.47-.72,5.54-.16h1.5c.17-.02.33-.03.5-.03Z" fill="#263238"/>
    <path d="m477.21,147.72c-1.37.94-2.68,1.97-3.92,3.07-1.13,1.22-2.19,2.49-3.17,3.83,1.36-3.14,3.91-5.62,7.09-6.9h0Z" fill="#263238"/>
    <path d="m466.99,179.45l-.13.08c-.13.08-.26.14-.4.2-.54.22-1.11.35-1.69.39-2.14.06-4.25-.48-6.1-1.55-1.2-.59-2.47-1.31-3.91-1.91-.73-.31-1.5-.55-2.28-.7-.41-.08-.82-.12-1.23-.12h-.63l-.64.05c-1.81.21-3.57.76-5.17,1.63-1.7.85-3.38,1.91-5.15,2.92-1.71,1.04-3.54,1.86-5.46,2.43-1.82.51-3.74.54-5.57.08-1.62-.45-3.2-1.05-4.7-1.82-1.42-.68-2.72-1.33-4-1.79-1.93-.81-4.04-1.1-6.12-.83-.75.14-1.49.38-2.18.71.15-.13.33-.24.51-.32.52-.26,1.07-.45,1.64-.57,2.11-.34,4.28-.09,6.26.72,1.27.44,2.59,1.08,4,1.74,1.48.74,3.03,1.32,4.63,1.75,1.77.44,3.62.4,5.37-.1,1.89-.57,3.71-1.37,5.4-2.39,1.76-1,3.44-2.07,5.18-2.93,1.65-.89,3.46-1.44,5.32-1.64l.67-.05h.66c.43.02.86.06,1.29.14.81.17,1.59.42,2.35.75,1.46.62,2.72,1.37,3.9,2,1.8,1.07,3.86,1.64,5.95,1.66.77-.06,1.52-.24,2.23-.53Z" fill="#fff"/>
    <path d="m467.71,184.05c-.13.16-.28.3-.44.42-.47.35-1,.62-1.56.78-2.12.47-4.34.19-6.27-.8-1.24-.56-2.5-1.33-3.9-2.06-1.44-.83-3.02-1.36-4.67-1.57-1.83-.09-3.65.36-5.22,1.3-1.73,1.01-3.4,2.11-5,3.31-1.62,1.22-3.42,2.17-5.35,2.8-1.84.48-3.77.48-5.61,0-3.51-.85-6.33-2.47-8.87-3.29-1.97-.75-4.08-1.05-6.18-.89-.77.1-1.52.27-2.26.51.18-.1.36-.18.55-.25.54-.21,1.11-.36,1.69-.43,2.14-.23,4.3.04,6.31.79,2.59.79,5.43,2.38,8.86,3.19,1.77.46,3.63.46,5.4,0,1.89-.64,3.67-1.59,5.25-2.81,1.6-1.21,3.27-2.32,5-3.33,1.65-.97,3.54-1.43,5.45-1.32,1.7.21,3.34.77,4.81,1.65,1.4.75,2.66,1.53,3.86,2.1,1.87.98,4.01,1.3,6.08.9.75-.19,1.45-.53,2.07-1Z" fill="#fff"/>
    <path d="m490.15,186.64s1.29,25.67,1.27,31.1c0,4-8.76,46.14-8.76,46.14l-13-4.38,4.57-40.93-3.28-31,19.2-.93Z" fill="#ffbf9d"/>
    <path d="m469.41,262.42s-5.2,3.92-6.34,5.47-4,7.08-6.06,8.69c.11.87.9,1.48,1.77,1.37.27-.03.53-.14.74-.3,2.13-1.19,4-2.81,5.48-4.76.89-1.35,1.81-.56,1.86.62s-1,9.14-1,9.14c0,0-2.49,8.85-1.82,9.84.52.72,1.52.89,2.25.38.1-.07.2-.16.28-.26.34-.46,3.14-7.86,3.14-7.86l.72-4s-1.44,12.75-.64,13.75c.43.64,1.29.81,1.93.39.12-.08.22-.18.31-.29.56-.51,1.14-6.14,1.14-6.14l1.31-7.52-.24,14.34s.15,1.35,1.22,1.4,1.78-1.52,1.78-1.52l1.54-14.77s-.5,8.22,0,8.64c.74.58,1.41.39,1.66-.24.49-1.28,1.21-8.66,1.21-8.66l.68-14.07.72-6.77-13.16-.86-.48,3.99Z" fill="#ffbf9d"/>
  </g>
  <g id="freepik--character-2--inject-96">
    <path d="m304.82,140.28s-7.43,6-9.23,8.59-2.56,7.56-2.56,7.56l-.58,2.82-7.81,13.8s7.5,9.55,7.36,9.36,8.1-18.25,8.1-18.25c0,0,8.33-5.13,8.46-5.64s-6-8.56-3.9-12.61c1.63-3.15,2-5.2.18-5.59l-.02-.04Z" fill="#cc6760"/>
    <path d="m304.75,246.9c-.14,0-.26-41.1-.26-91.8s.12-91.82.26-91.82.26,41.1.26,91.82-.12,91.8-.26,91.8Z" fill="#263238"/>
    <path d="m308,156.64s-2.95,1.94-4.23,1.26c-.87-.45-1.21-1.53-.76-2.4.09-.17.2-.32.33-.45-.59.5-1.48.42-1.97-.18-.07-.09-.14-.19-.19-.29-.4-.96-.19-2.07.53-2.82,0,0-.8-.1-.75-1.61s1.77-2.77,1.77-2.77c-.59-1.05-.57-2.34.05-3.38,1.14-1.51,2.87-2.48,4.76-2.66.15,0,2,0,2,1.58s-.41,2.1-.41,2.1c0,0,1.46.83.1,3.69,0,0,1.79,1.22.21,3.78,0,0,.85,3.16.29,4.44-.4.82-1,1.53-1.75,2.06" fill="#cc6760"/>
    <path d="m307.98,158.99c.47-.42.9-.9,1.27-1.42.85-1,.54-2.91,0-5v-.15c.34-.53.55-1.13.6-1.76.04-.67-.25-1.32-.77-1.74l-.15-.12.07-.16c.27-.55.45-1.15.53-1.76.11-.6-.1-1.21-.55-1.62l-.2-.14.14-.23c.25-.59.37-1.22.34-1.86.02-.31-.07-.61-.24-.86-.21-.23-.49-.39-.79-.45-.16-.05-.33-.07-.5-.08h-.29c-.08-.01-.15-.01-.23,0-.34.04-.68.13-1,.25-.71.24-1.38.57-2,1-.73.47-1.28,1.18-1.56,2-.22.79-.12,1.64.28,2.36l.11.2-.18.14c-.69.51-1.23,1.2-1.56,2-.25.69-.1,1.8.42,1.95l.39.11-.25.28c-.66.65-.88,1.63-.54,2.49.13.37.44.66.82.76.38.04.76-.06,1.07-.28l1-.68-.78,1c-.35.4-.52.94-.47,1.47.07.47.36.88.78,1.1.38.18.81.21,1.22.11.36-.08.72-.18,1.07-.32,1.25-.51,1.89-.94,1.91-.89-.13.13-.28.24-.44.33-.44.29-.91.54-1.39.75-.35.16-.72.29-1.1.38-.45.12-.94.09-1.37-.1-.52-.26-.89-.75-1-1.32-.07-.63.12-1.27.52-1.76l.27.27c-.39.29-.88.43-1.37.37-.52-.12-.95-.5-1.14-1-.23-.48-.29-1.03-.17-1.55.13-.54.39-1.03.76-1.44l.14.39c-.51-.15-.88-.61-.91-1.15-.09-.47-.07-.95.08-1.41.35-.9.95-1.69,1.73-2.26l-.06.34c-.48-.84-.6-1.84-.35-2.77.32-.93.94-1.73,1.76-2.27.64-.47,1.35-.84,2.1-1.1.37-.14.76-.24,1.16-.29h.6c.2.02.4.05.6.1.41.09.79.32,1.06.64.24.34.36.75.34,1.17,0,.36-.03.73-.09,1.09-.04.39-.18.76-.39,1.09l-.06-.37c.62.5.92,1.3.77,2.08-.08.67-.28,1.31-.59,1.91l-.07-.28c.64.51.98,1.3.93,2.12-.06.7-.3,1.37-.7,1.95v-.15c.26.98.41,1.99.45,3,.02.43-.02.86-.13,1.27-.12.34-.29.65-.51.94-.28.39-.62.75-1,1.05-.22.22-.38.34-.39.28Z" fill="#9d4941"/>
    <path d="m300.51,147.44c.72,1.48.93,3.16.59,4.77-.17,1.64-.87,3.17-2,4.37.66-1.42,1.16-2.91,1.48-4.45.15-1.56.13-3.13-.07-4.69Z" fill="#9d4941"/>
    <path d="m302.8,155.71c.66-1.31,1.7-2.38,3-3.06.5-.31,1.04-.53,1.61-.66.49-.11.99-.06,1.45.14.79.37.91,1,.84,1s-.29-.43-1-.64c-.93-.19-1.9.04-2.65.62-1.14.79-2.23,1.66-3.25,2.6Z" fill="#9d4941"/>
    <path d="m301.71,151.76c-.05-.05.24-.44.85-.94.8-.62,1.66-1.16,2.57-1.62.9-.55,1.94-.83,3-.79.81.07,1.25.32,1.23.37-.41.03-.82.03-1.23,0-.97.07-1.9.37-2.73.88-1,.55-2,1-2.6,1.46s-1.04.7-1.09.64Z" fill="#9d4941"/>
    <path d="m302.18,147.86c-.13-.09,1-1.56,3-2.63.85-.52,1.85-.72,2.84-.58.75.14,1.13.43,1.1.49-.38-.02-.76-.06-1.14-.12-.9-.03-1.78.2-2.55.67-1.89,1.03-3.15,2.26-3.25,2.17Z" fill="#9d4941"/>
    <path d="m202.08,402.5l1.24,24.42-4.6,19.59c-.32,1.35.51,2.7,1.86,3.02.05.01.09.02.14.03h0c.8.13,1.61-.13,2.18-.71,3.63-3.68,16.69-17.17,16.65-18.69,0-2,.49-26.22.49-26.22l-17.96-1.44Z" fill="#455a64"/>
    <path d="m200.76,449.56l18.88-22.2v1.81c.13.78-.06,1.58-.52,2.23-4.96,6.24-10.27,12.19-15.91,17.83-.58.6-1.64.48-2.46.33h.01Z" fill="#263238"/>
    <path d="m214.39,420.39c-.61.48-.77,1.34-.36,2,.45.65,1.34.82,2,.38.65-.5.81-1.42.37-2.11-.54-.61-1.46-.69-2.09-.17" fill="#fff"/>
    <path d="m206.05,438.73c-.61-.75-1.36-1.38-2.2-1.85-.91-.33-1.87-.49-2.83-.46,0-.06.29-.26.85-.35,1.53-.21,3.05.48,3.89,1.78.3.49.35.85.29.88Z" fill="#263238"/>
    <path d="m204.4,442.05c-.71-.38-1.45-.71-2.2-1-.79-.12-1.59-.21-2.39-.24.75-.49,1.69-.59,2.53-.27,1.45.38,2.18,1.44,2.06,1.51Z" fill="#263238"/>
    <path d="m209.17,434.44c-1.05-.67-2.15-1.25-3.28-1.76-1.2-.34-2.42-.59-3.65-.74,2.6-.59,5.3.39,6.93,2.5Z" fill="#263238"/>
    <path d="m209.42,426.99c-.06.15-1.43-.38-3.19-.4s-3.14.45-3.19.3c1.98-1.14,4.43-1.1,6.38.1Z" fill="#263238"/>
    <path d="m209.24,419.81c-1.08-.32-2.19-.49-3.31-.5-1.11.15-2.19.46-3.21.91-.05-.05.21-.37.77-.71.73-.43,1.56-.68,2.41-.73.85-.06,1.71.09,2.49.43.59.27.88.55.85.6Z" fill="#263238"/>
    <path d="m205.94,417.95c-.09-.3-.11-.62-.06-.93.06-.85.29-1.68.67-2.44.23-.58.65-1.07,1.18-1.39.38-.18.84-.11,1.14.19.27.3.42.69.42,1.09-.06,1.7-1.32,3.11-3,3.36-1.64.22-3.26-.57-4.09-2-.21-.36-.24-.8-.1-1.19.19-.37.58-.59,1-.55.61.12,1.17.4,1.64.8.68.51,1.26,1.14,1.72,1.85.19.25.32.53.4.83-.66-.9-1.45-1.7-2.34-2.38-.42-.33-.91-.55-1.44-.65-.23-.04-.46.08-.56.29-.07.26-.03.55.11.78.75,1.22,2.15,1.9,3.57,1.72,1.41-.22,2.49-1.38,2.59-2.81,0-.28-.08-.56-.25-.78-.16-.17-.42-.21-.63-.11-.44.27-.79.68-1,1.16-.51.99-.84,2.06-.97,3.16Z" fill="#263238"/>
    <path d="m253.35,398.05l-.9,20.63s20.67,7.85,20.87,11.68l-40.07-.31.09-32.21,20.01.21Z" fill="#455a64"/>
    <path d="m240.07,416.89c-.8.24-1.3,1.04-1.15,1.86.22.81,1.02,1.31,1.84,1.15.86-.25,1.38-1.12,1.2-2-.29-.81-1.17-1.25-2-1" fill="#e0e0e0"/>
    <path d="m233.25,430.05l.14-3.25,38.36,1.51s1.78.79,1.57,2.05l-40.07-.31Z" fill="#263238"/>
    <path d="m253.1,418.52c0,.2-1,.28-2,.9s-1.48,1.44-1.66,1.36.12-1.2,1.3-1.94,2.4-.5,2.36-.32Z" fill="#263238"/>
    <path d="m257.29,420.29c0,.19-.81.52-1.48,1.34s-.87,1.7-1.07,1.69-.31-1.12.55-2.13,1.99-1.08,2-.9Z" fill="#263238"/>
    <path d="m259.64,425.34c-.17,0-.44-.94.07-2s1.43-1.49,1.51-1.33-.49.73-.89,1.62-.5,1.69-.69,1.71Z" fill="#263238"/>
    <path d="m252.78,413.8c-.08.18-1-.1-2.08,0s-2,.4-2.08.24.74-.86,2-.92,2.26.53,2.16.68Z" fill="#263238"/>
    <path d="m259.16,235.62s6.55,15,6.21,26.3c-1.32,43.43-10.25,152.69-10.25,152.69h-22.78l-.77-144.5-8.13,77.66-.9,69-23.86.05-5.3-143.77.49-22.22,5.87-16.3,59.42,1.09Z" fill="#263238"/>
    <path d="m223.81,262.39c.31.19.65.33,1,.43.66.24,1.61.57,2.8,1l.22.07v-.23c.14-2,.29-4.63.44-7.54.15-3.15.27-6,.33-8.07v-2.45c.05-.3.05-.6,0-.9-.09.29-.13.59-.14.89-.06.57-.12,1.41-.2,2.44-.14,2.06-.31,4.91-.47,8.07-.15,2.9-.26,5.56-.32,7.55l.24-.16c-1.19-.36-2.17-.64-2.84-.83-.34-.13-.7-.22-1.06-.27Z" fill="#455a64"/>
    <path d="m225.69,245.25s-.07-.14-.32-.22c-.37-.11-.76-.07-1.1.1-.54.23-.87.77-.83,1.35.08.72.61,1.31,1.32,1.46.72.12,1.45-.2,1.83-.83.3-.48.3-1.08,0-1.56-.19-.31-.48-.55-.82-.69-.25-.08-.39-.07-.4,0s.56.19.91.88c.19.38.17.83-.06,1.19-.3.44-.82.67-1.34.59-.51-.09-.91-.49-1-1-.04-.42.18-.81.55-1,.38-.23.82-.33,1.26-.27Z" fill="#455a64"/>
    <path d="m214.33,246.94c.13,0,.32-.7.42-1.6s.06-1.63-.07-1.64-.33.7-.42,1.59-.07,1.63.07,1.65Z" fill="#455a64"/>
    <path d="m212.64,246.77c.13,0,.25-.76.25-1.7s-.1-1.7-.23-1.7-.25.76-.26,1.7.07,1.7.24,1.7Z" fill="#455a64"/>
    <path d="m242.46,247.91c.14,0,.35-.84.47-1.91s.12-1.95,0-2c-.3.59-.47,1.25-.47,1.92-.16.65-.16,1.34,0,1.99Z" fill="#455a64"/>
    <path d="m240.38,248.05c.73-1.22.8-2.72.18-4-.09.66-.11,1.33-.06,2-.1.66-.14,1.33-.12,2Z" fill="#455a64"/>
    <path d="m248.21,245.87c0,.24.03.48.09.72.12.66.28,1.3.5,1.93.69,2.12,1.72,4.1,3.06,5.88,1.36,1.8,2.99,3.38,4.84,4.68.56.4,1.15.76,1.76,1.08.21.14.44.25.69.31,0-.06-.89-.59-2.26-1.62-1.76-1.34-3.33-2.92-4.67-4.69-1.31-1.75-2.36-3.68-3.13-5.73-.58-1.56-.8-2.58-.88-2.56Z" fill="#455a64"/>
    <path d="m194.64,256.98c.24.07.5.11.75.11.69.06,1.39.06,2.08,0,2.28-.24,4.46-1.05,6.34-2.35,1.84-1.28,3.3-3.03,4.23-5.07.27-.6.49-1.23.65-1.87.08-.23.11-.48.1-.72-.08,0-.29,1-1,2.46-.99,1.94-2.43,3.6-4.21,4.86-1.83,1.26-3.92,2.08-6.12,2.39-1.71.26-2.82.11-2.82.19Z" fill="#455a64"/>
    <g opacity=".3">
      <path d="m193,270.1c0,.19,36.12-1.91,36.12-1.91l5.12-10.23,4.09,10.23h26.86l.25-6.8-30.88-17.25-24.32,9.6-16.92,9.39-.32,6.97Z"/>
    </g>
    <path d="m258.38,140.85s2.87,0,8.42,16.45l9.45,20.94,13.07-18,11,10.08s-11.39,20.81-15.1,25.84c-4.07,5.52-16.32,6.76-21.8-3.27-4.62-8.46-13.24-25.33-13.24-25.33l8.2-26.71Z" fill="#455a64"/>
    <path d="m190.02,211.89l6.21-44.07-13-24.3h0c-2.15,1.8-3.53,4.35-3.86,7.13-1.32,11.06-10.44,52.85-10.81,59.64l4.63,46.83,20.89-2.85-4.06-42.38Z" fill="#455a64"/>
    <polygon points="209.31 127.94 204.27 134.42 183.06 143.52 192.72 182.97 197.34 211.92 187.12 266.8 226.8 265.38 234.33 247.64 239.81 265.41 266.69 265.41 265.38 253.17 259.15 206.75 259.15 141.11 239.09 134.42 233.25 125.92 209.31 127.94" fill="#455a64"/>
    <path d="m233.25,187.18c-.16-.15-.29-.32-.41-.51l-1.09-1.53-3.93-5.65-12.81-18.78-9.37-13.95-.06-.09v-.1c.59-1.65,1.13-3.18,1.64-4.59l.11.23-3.85-1.33h-.12v-.12c.25-1.95.46-3.51.61-4.65.08-.5.14-.9.19-1.23,0-.14.04-.29.09-.42.02.14.02.29,0,.43,0,.33-.07.74-.11,1.24-.12,1.14-.28,2.71-.48,4.67l-.1-.16,3.88,1.26.17.06-.06.18c-.48,1.41-1,3-1.58,4.61v-.19c2.74,4,6,8.81,9.47,13.91l12.68,18.86,3.8,5.75,1,1.57c.12.17.23.35.33.53Z" fill="#263238"/>
    <path d="m239.09,134.42c.12.08.22.17.32.28l.86.85,3.17,3.25.12.12-.13.1-1.53,1.17v-.25l1.87,2.13.06.08v.09c-1,4.89-2.24,11.16-3.62,18-1.64,7.89-3.12,15-4.21,20.28-.56,2.54-1,4.62-1.34,6.13-.15.68-.28,1.23-.38,1.66-.03.2-.09.39-.17.57,0-.2.02-.4.07-.59.07-.44.17-1,.29-1.68l1.18-6.16c1.05-5.26,2.49-12.41,4.07-20.31,1.42-6.82,2.72-13.09,3.73-18v.17c-.65-.77-1.26-1.5-1.83-2.16l-.12-.14.15-.11,1.55-1.14v.23l-3.07-3.35-.8-.91c-.09-.09-.17-.2-.24-.31Z" fill="#263238"/>
    <g opacity=".3">
      <path d="m245.43,142.41s-2.91-2.36-3.64-2.35l1.85,2.14s-.54,2.61-.76,3.65c-2.78,13.34-5.61,27.85-8.4,41.18,3.79-13.17,7.26-27.07,10.07-40.49.27-1.32.88-4.13.88-4.13Z"/>
    </g>
    <path d="m173.15,257.05c.12-.04.24-.07.37-.08l1.11-.18,4.23-.63,15.35-2.11-.18.22c-.85-8.62-1.91-19.42-3.06-31.11-.37-3.88-.73-7.65-1.08-11.26v-.06c1.76-11.65,3.29-21.83,4.4-29.15.56-3.6,1-6.5,1.33-8.54.16-1,.29-1.73.38-2.29,0-.24.08-.43.11-.59s.05-.2.06-.2,0,.07,0,.2,0,.36-.07.6c-.07.56-.17,1.33-.29,2.3-.29,2-.69,4.95-1.19,8.57-1.06,7.32-2.53,17.52-4.21,29.18v-.07c.35,3.61.72,7.38,1.09,11.26,1.11,11.7,2.14,22.5,3,31.12v.21h-.19l-15.38,2-4.24.52-1.12.12c-.14.01-.28,0-.42-.03Z" fill="#263238"/>
    <path d="m275.25,192.22c-.28-.63-.47-1.31-.54-2-.26-1.69-.34-3.4-.23-5.11.09-1.69.38-3.37.85-5,.14-.72.43-1.4.84-2-.13.68-.29,1.34-.49,2-.36,1.65-.59,3.32-.68,5-.06,2.37.02,4.75.25,7.11Z" fill="#263238"/>
    <path d="m265.38,253.17c-.02-.07-.04-.15-.05-.23l-.12-.68c-.1-.64-.23-1.53-.4-2.65-.33-2.34-.81-5.67-1.4-9.81-1.14-8.36-2.72-19.95-4.51-33h0c0-2.06.05-4.22.08-6.42.22-14.69.42-28,.57-37.66.09-4.79.17-8.67.23-11.41,0-1.31.07-2.35.09-3.1v-.8c-.01-.09-.01-.18,0-.27.01.09.01.18,0,.27v3.92c0,2.73,0,6.62-.07,11.41-.1,9.67-.25,23-.41,37.65,0,2.2-.06,4.36-.09,6.41h0c1.72,13.08,3.25,24.68,4.35,33,.52,4.14.94,7.48,1.24,9.83.13,1.12.23,2,.31,2.65l.07.69c.05.06.08.13.11.2Z" fill="#263238"/>
    <path d="m234.73,248.24c-.03-.2-.03-.41,0-.61,0-.45,0-1,.05-1.73.05-1.57.12-3.73.2-6.36.16-5.37.24-12.79.11-21s-.43-15.61-.66-21c-.11-2.64-.2-4.79-.27-6.36,0-.71,0-1.28-.05-1.73-.03-.2-.03-.41,0-.61.05.2.08.4.09.6,0,.45.08,1,.15,1.73.12,1.5.27,3.67.43,6.35.32,5.37.67,12.79.81,21,.14,8.21,0,15.64-.26,21-.12,2.69-.25,4.86-.37,6.36-.06.7-.11,1.28-.15,1.73,0,.21-.02.42-.08.63Z" fill="#263238"/>
    <path d="m247.16,406.05c0-.11,0-.23,0-.34v-4.82c0-3.33,0-8.13.06-14.07.13-11.88.53-28.28,1.07-46.39s1-34.52,1.21-46.39c.09-5.92.17-10.71.22-14.06,0-1.64.05-2.92.06-3.83v-1c-.01-.11-.01-.23,0-.34v5.17c0,3.32,0,8.12-.06,14.06-.12,11.88-.52,28.28-1.06,46.4s-1,34.51-1.21,46.38c-.09,5.92-.17,10.71-.22,14.07,0,1.63-.05,2.91-.06,3.82v1c.01.11,0,.23-.01.34Z" fill="#455a64"/>
    <path d="m209.22,406.05c-.14,0-.18-29.49-.1-65.86s.26-65.87.4-65.87.19,29.49.1,65.87-.26,65.86-.4,65.86Z" fill="#455a64"/>
    <polygon points="210.24 127.57 209.31 135.56 233.87 188.09 237.63 162.64 236.71 136.99 233.38 127.57 210.24 127.57" fill="#f5f5f5"/>
    <path d="m224.64,139.56c-.34.92-.75,1.82-1.23,2.67-.81,1.63-2,3.89-3.32,6.43l-.16.32-.24-.27-1.05-1.16c-2.19-2.4-4.15-4.59-5.55-6.19-.79-.84-1.53-1.73-2.19-2.67.87.75,1.69,1.56,2.45,2.43,1.47,1.54,3.47,3.69,5.66,6.09l1.06,1.17h-.4c1.36-2.53,2.58-4.77,3.47-6.36.43-.86.93-1.68,1.5-2.46Z" fill="#263238"/>
    <path d="m235.85,135.8c-.4,2.23-.97,4.42-1.7,6.56l-.18.59-.12.38-.29-.26c-1.26-1.14-2.53-2-3.37-2.74-.5-.33-.94-.75-1.31-1.22.54.26,1.05.58,1.51.95,1.22.81,2.39,1.69,3.51,2.64l-.41.11c.06-.19.12-.39.18-.6.57-2.19,1.3-4.33,2.18-6.41Z" fill="#263238"/>
    <polygon points="228.88 139.11 225.09 139.46 223.47 142.55 226.74 146.78 230.47 146.78 231.73 141.22 228.88 139.11" fill="#ff7200"/>
    <path d="m226.74,146.78s-1.91,8.83-1.62,13.37.4,10.51.4,10.51l8.35,17.39,2.5-16.82s-3.47-17.93-4.64-20.7c-.58-1.21-1-2.48-1.26-3.79l-3.73.04Z" fill="#ff7200"/>
    <path d="m230.46,146.64c0,.13-.81.38-1.88.43-.65.11-1.31.03-1.91-.23,0-.14.85-.21,1.89-.27s1.88-.07,1.9.07Z" fill="#263238"/>
    <path d="m230.39,140.35c-.59.99-1.33,1.88-2.18,2.66-.72.89-1.58,1.67-2.53,2.31,1.31-1.89,2.9-3.58,4.71-5v.03Z" fill="#263238"/>
    <g opacity=".3">
      <path d="m211.89,141.05s8,9.89,8.28,9.81l2.94-8.44-3.24,6.1-9.38-10.28,1.4,2.81Z"/>
    </g>
    <path d="m209.64,107.33c-1.47-3.97-2.59-8.06-3.35-12.22-.75-4.18-.46-8.49.85-12.53.22-.6,2.08-4.66,2.71-4.6.46,0-.67,3.81-.43,4.21,2.13,3.86,3.04,8.27,2.6,12.65-.33,4.24-1.13,8.43-2.38,12.49" fill="#263238"/>
    <path d="m210.05,129.21l-1.06-38c-.47-10.6,5.3-19.7,15.91-19.88h1c9.87.4,17.78,8.32,18.16,18.2.36,9.18.64,19.34.38,24.25-.54,10.16-10.78,11.32-10.78,11.32v3.89l-6,10.22h0l-17.61-10Z" fill="#cc6760"/>
    <path d="m233.64,125.13c-4.7-.21-9.24-1.75-13.08-4.46,0,0,2.87,7.78,13.05,7.28l.03-2.82Z" fill="#9d4941"/>
    <path d="m239.35,98.05c-.02.79-.67,1.41-1.46,1.4-.77.03-1.41-.57-1.44-1.34,0-.01,0-.02,0-.03.03-.78.68-1.4,1.46-1.4.76-.03,1.41.56,1.44,1.32,0,.02,0,.03,0,.05Z" fill="#263238"/>
    <path d="m241.7,93.96c-.19.18-1.26-.68-2.82-.74s-2.74.67-2.9.47.12-.42.63-.76c.69-.44,1.51-.66,2.33-.62.82.03,1.6.32,2.24.83.46.39.61.74.52.82Z" fill="#263238"/>
    <path d="m225.33,98.05c-.03.79-.67,1.41-1.46,1.4-.77.03-1.42-.58-1.45-1.35,0,0,0-.01,0-.02.03-.78.68-1.4,1.46-1.4.77-.03,1.42.58,1.45,1.35,0,0,0,.01,0,.02Z" fill="#263238"/>
    <path d="m226.36,93.69c-.18.18-1.25-.68-2.81-.74s-2.74.67-2.91.47.12-.42.64-.76c.7-.44,1.53-.66,2.36-.61.81.03,1.59.32,2.23.83.44.38.59.73.49.81Z" fill="#263238"/>
    <path d="m231.47,105.93c.84-.23,1.7-.35,2.56-.36.4,0,.78-.09.86-.36.04-.4-.05-.81-.25-1.16l-1-3.09c-1.46-4.39-2.5-8-2.32-8s1.5,3.45,3,7.85l1,3.1c.23.49.28,1.05.14,1.58-.13.28-.38.48-.68.55-.22.05-.45.07-.68.07-.88.05-1.76-.01-2.63-.18Z" fill="#263238"/>
    <path d="m227.07,88.82c-.23.39-1.73-.09-3.57-.21s-3.4.11-3.57-.31c-.07-.2.26-.55.92-.84,1.78-.71,3.78-.57,5.44.39.61.39.88.78.78.97Z" fill="#263238"/>
    <path d="m241.96,89.37c-.34.34-1.6-.06-3.13-.12s-2.83.17-3.12-.21c-.13-.19.09-.54.66-.86.79-.4,1.68-.57,2.56-.51.88.03,1.74.3,2.48.78.53.38.7.75.55.92Z" fill="#263238"/>
    <path d="m209.51,98.76c-.17-.08-6.9-2.35-7,4.61s6.93,5.59,7,5.39,0-10,0-10Z" fill="#cc6760"/>
    <path d="m207.4,106.11s-.13.08-.33.17c-.29.12-.62.12-.91,0-.91-.59-1.43-1.62-1.36-2.7-.02-.6.1-1.19.35-1.74.14-.44.48-.78.92-.92.29-.07.59.07.72.34.09.19,0,.33.08.35s.15-.12.1-.41c-.04-.17-.13-.33-.27-.44-.19-.14-.43-.21-.67-.18-.59.11-1.07.51-1.28,1.07-.3.6-.45,1.26-.44,1.93,0,1.41.74,2.73,1.74,3,.38.12.79.05,1.11-.18.22-.13.26-.28.24-.29Z" fill="#9d4941"/>
    <path d="m239.55,78.05c1.12-.62-2.26-4.27-5-5.53-4.19-1.9-10.58-3.07-14.44-2-4.64,1.32-8.5,3.62-10.84,7.85-2.25,4.31-3.31,9.14-3.08,14-.05,1.48.3,2.95,1,4.25,1,1.54,2.84,2.51,2.75,4.64-.05.78.21,1.54.73,2.12,1.27,1.36,2.83.09,3.55-1.19,1.53-2.73,1.7-6,1.84-9.11.21-2.22.06-4.45-.44-6.62-.34-1.16-.89-2.25-1.16-3.43-.35-1.18-.18-2.45.49-3.48.17-.21.36-.4.57-.57,1.98-1.72,4.73-2.25,7.2-1.37,3.92,1.39,10.61,3.47,12.36,2.14,1.25-.82,2.31-1.9,3.12-3.16l1.35,1.46Z" fill="#263238"/>
    <path d="m226.56,106.89c.24,0,.25,1.59,1.63,2.72s3.07.94,3.09,1.16-.38.32-1.1.34c-.94.01-1.85-.3-2.58-.89-.7-.56-1.15-1.38-1.26-2.27-.06-.67.12-1.07.22-1.06Z" fill="#263238"/>
    <path d="m328.05,48.21c4.77-8.44,4.29-20.45.82-29.51S317.18.49,302.84.05c-6.17-.36-12.3,1.17-17.58,4.38-5.46,3.16-10.54,9.7-13,15.5-2.28,5.3-2.49,11.24-2.05,17,.91,12.09,6.19,21.32,18.26,28.57,2.72,1.64,9.79,3.74,11.35,4.1-.99,1.37-1.55,3.01-1.6,4.7-.08.6.13,1.19.56,1.61.57.33,1.3.23,1.75-.25.43-.48.75-1.05.92-1.67.11.55.3,1.09.58,1.58.28.5.79.83,1.36.89.8-.04,1.48-.59,1.68-1.37.17-.76.17-1.56,0-2.32.3.76.82,1.41,1.5,1.86.67.4,1.53.18,1.93-.49.02-.04.05-.08.07-.13.08-.55-.08-1.11-.43-1.54-.71-1.18-1.44-2.34-2.18-3.5-.01-.03,12.62-4.03,22.09-20.76Z" fill="#ff7200"/>
    <g opacity=".2">
      <path d="m305.3,3.42c-.58-1.17-2.07-1.6-3.68-1.77-4.2-.24-8.4.52-12.25,2.22-3.69,1.52-6.91,4-9.32,7.18-1.13,1.38-3,4.65-1,6.46.05.04.1.08.16.1,2.59.94,4.5-.6,5.94-2.28.89-1.21,1.92-2.31,3.07-3.28,1.56-1.28,3.43-2.13,5.42-2.46,1.92-.14,4.51-.07,6.4-.38s3.58-.43,4.79-1.92c.88-1.1,1.06-2.6.47-3.87Z" fill="#fff"/>
    </g>
    <path d="m306.8,68.81c-2.32,1.17-4.98,1.46-7.5.81,0-.16,1.71,0,3.77-.24s3.67-.71,3.73-.57Z" fill="#263238"/>
    <g opacity=".2">
      <circle cx="319.03" cy="33.48" r="3.64" fill="#fff"/>
    </g>
    <g opacity=".2">
      <circle cx="282.75" cy="33.48" r="3.64" fill="#fff"/>
    </g>
    <circle cx="293.61" cy="28.77" r="3.03" fill="#263238"/>
    <path d="m310.86,28.77c0,1.66-1.34,3-3,3s-3-1.34-3-3,1.34-3,3-3,3,1.34,3,3Z" fill="#263238"/>
    <path d="m312.25,35.37c.3.06.28,1.86-1.29,4.18-.94,1.35-2.15,2.48-3.56,3.32-1.75,1.07-3.75,1.66-5.8,1.73-2.05.02-4.08-.49-5.87-1.49-1.44-.78-2.7-1.86-3.69-3.17-1.67-2.25-1.76-4-1.46-4.12s1.08,1.28,2.83,2.89c4.36,4.37,11.43,4.37,15.8.02.11-.11.22-.23.33-.35,1.68-1.68,2.32-3.14,2.71-3.01Z" fill="#263238"/>
    <path d="m174.53,299.8s2.6-25.59,8.56-28.47,14.26-4.82,16.55-1c2.83,4.83,4.74,10.14,5.64,15.67,1,6.11.5,15.46.5,15.46l-6.83-.71s.15-25.48-1.95-29.23-12.59-.65-13.71,3.9-3.48,24.93-3.48,24.93l-5.28-.55Z" fill="#455a64"/>
    <path d="m151.04,336.05c.24-10.55,1.07-33.81,1.45-44,.11-2.79,2.39-4.99,5.18-5l62.72-.08c2.79,0,5.09,2.21,5.19,5l1.55,43.3c.11,2.86-2.13,5.27-5,5.38-.04,0-.09,0-.13,0l-65.71.75c-2.86.04-5.21-2.25-5.25-5.11,0-.08,0-.16,0-.24Z" fill="#455a64"/>
    <path d="m221.31,302.78v28.87c.03.58-.09,1.16-.36,1.67-.29.52-.74.94-1.28,1.19-.55.23-1.15.32-1.75.27h-7.17l-15.82.09-17.48.09-9.25.05h-5.92c-.42.03-.84,0-1.25-.07-.87-.19-1.61-.77-2-1.57-.16-.34-.26-.71-.28-1.09v-3.1c0-1.37,0-2.72.05-4.07.04-2.67.08-5.33.11-8,.08-5.24.15-10.31.22-15.15v-.23h.23c18,1,33.49,1.15,44.43,1.12,5.47,0,9.81-.08,12.78-.13h4.59-1.2l-3.38.13c-3,.09-7.32.2-12.79.25-10.94.11-26.41,0-44.45-.95l.23-.22c-.06,4.84-.13,9.91-.19,15.15,0,2.62-.07,5.28-.11,8,0,1.33-.02,2.69-.06,4.08v2.05c-.09.65-.01,1.31.22,1.92.32.67.93,1.16,1.66,1.32.37.07.75.09,1.13.06h15.17l17.49-.06,15.82-.05h7.17c.54.05,1.09-.02,1.6-.23.47-.21.86-.56,1.13-1,.24-.46.35-.98.32-1.5v-1.62c.07-8.39.12-15.19.16-19.92,0-2.35,0-4.18.05-5.44v-1.43c.05-.16.11-.32.18-.48Z" fill="#263238"/>
    <path d="m203.49,330.74s.39,0,1.1-.16c1.03-.24,1.96-.76,2.7-1.52,1.15-1.23,1.7-2.9,1.49-4.57v-10.57c.13-1.39-.28-2.77-1.14-3.87-.91-1.16-2.27-1.89-3.74-2h-26.07c-1.83,0-3.52.96-4.46,2.52-.45.75-.7,1.61-.73,2.49v10.47c-.05.84-.05,1.68,0,2.52.22,1.54,1.12,2.9,2.46,3.7.63.38,1.34.63,2.07.72.71.06,1.48,0,2.2,0h8.1l11.73.1,3.19.05h.83c.09-.01.19-.01.28,0h-4.3l-11.73.06h-10.34c-.79-.09-1.56-.34-2.24-.75-1.45-.86-2.43-2.33-2.68-4-.07-.84-.1-1.68-.07-2.52v-10.31c.03-.96.3-1.89.79-2.71,1.03-1.71,2.87-2.75,4.86-2.75l21.3.05h4.8c1.57.11,3.03.88,4,2.12.9,1.16,1.33,2.61,1.21,4.07v12c-.05.45-.15.89-.32,1.31-.66,1.78-2.2,3.09-4.07,3.44-.4.09-.81.13-1.22.11Z" fill="#263238"/>
    <g opacity=".3">
      <path d="m160.84,334.8c18.76,5.51,38.72,5.41,57.42-.29l-57.42.29Z"/>
    </g>
    <path d="m189.25,310.07h7.79c1.05,0,1.9.85,1.9,1.9v.39c0,1.05-.86,1.91-1.91,1.91h-7.78c-1.05,0-1.9-.85-1.9-1.9v-.39c0-1.05.85-1.9,1.9-1.9h0Z" fill="#e0e0e0"/>
    <path d="m196.48,261.94c1.09,1.1,2.04,2.33,2.84,3.66.7,1.46,1.67,7.66,1.67,7.66,0,0-1.2.94-3-2.42-.91-1.59-1.66-3.27-2.26-5l.75-3.9Z" fill="#cc6760"/>
    <path d="m198.64,273.4l-2-11.35-6.59-7.25-13.31,1.82,2.3,14.2s3.19,5.45,4.37,6.36,3-.29,3-.29c1.37,1.42,4.1.26,4.1.26,1.74,1.38,3.6-.62,3.6-.62,0,0,2.26,1.37,3.12,1.08.35-.16.63-.43.81-.77.61-1.04.82-2.26.6-3.44Z" fill="#cc6760"/>
    <path d="m184.69,274.2c.12-.07.56.47,1,1.2s.67,1.39.54,1.46-.56-.47-1-1.2-.66-1.39-.54-1.46Z" fill="#9d4941"/>
    <path d="m188.23,273.33c.14,0,.56.86,1.13,2s1.08,1.95,1,2-.82-.68-1.41-1.81c-.45-.64-.7-1.41-.72-2.19Z" fill="#9d4941"/>
    <path d="m192.37,272.88c.14,0,.42.81.83,1.8s.77,1.8.65,1.88-.71-.64-1.13-1.69c-.33-.61-.45-1.31-.35-1.99Z" fill="#9d4941"/>
    <path d="m197.14,265.65c.87,2.78,1.4,5.66,1.59,8.57-.87-2.78-1.4-5.66-1.59-8.57Z" fill="#9d4941"/>
    <path d="m184.04,271.98s0,.22-.22.42c-.29.26-.67.39-1.06.39-.39,0-.76-.15-1.05-.41-.21-.2-.26-.38-.21-.42s.58.32,1.26.32,1.17-.39,1.28-.3Z" fill="#9d4941"/>
    <path d="m188.33,271.83c.05.05,0,.23-.29.42-.69.48-1.6.48-2.29,0-.25-.19-.33-.37-.29-.42s.66.28,1.44.27,1.34-.37,1.43-.27Z" fill="#9d4941"/>
    <path d="m196.13,269.41c0-.07.38.25.15.79-.33.58-.88.99-1.52,1.15-.62.18-1.28.16-1.88-.06-.45-.18-.66-.41-.62-.46.78.16,1.58.16,2.36,0,.52-.14.99-.43,1.35-.83.22-.28.1-.55.16-.59Z" fill="#9d4941"/>
  </g>
  <g id="freepik--character-1--inject-96">
    <path d="m70.91,383.6l-24,19.7,24.36,30c2.72-2.5-4.12-22.7-4.12-22.7l15.91-12-12.15-15Z" fill="#455a64"/>
    <path d="m60.9,400.28c-.67-.45-1.57-.32-2.09.29-.48.65-.36,1.56.27,2.07.71.47,1.66.33,2.2-.32.43-.73.2-1.67-.51-2.12" fill="#fff"/>
    <path d="m46.98,403.22l2.42-2,22.32,29.76s.5,1.81-.57,2.42l-24.17-30.18Z" fill="#e0e0e0"/>
    <path d="m67.64,410.98c-.16.11-.82-.57-1.87-.9s-2-.23-2-.41,1-.65,2.25-.22,1.82,1.45,1.62,1.53Z" fill="#263238"/>
    <path d="m68.93,415.18c-.12.15-.88-.28-1.9-.27s-1.8.39-1.91.24.64-.92,1.91-.9,2.04.8,1.9.93Z" fill="#263238"/>
    <path d="m66.64,420.05c-.14-.11.43-.91,1.54-1.18s2,.15,1.91.31-.85.09-1.75.33-1.6.65-1.7.54Z" fill="#263238"/>
    <path d="m71,407.84c-.19,0-.53-.79-1.26-1.57s-1.51-1.22-1.45-1.39,1.09,0,1.94.95.94,1.99.77,2.01Z" fill="#263238"/>
    <path d="m73.98,404.24c-.06.05-.62-.46-1.21-1.51-.35-.63-.62-1.3-.8-2-.1-.4-.18-.82-.24-1.23-.04-.24-.04-.5,0-.74.05-.37.35-.66.72-.7.33-.03.65.11.86.37.16.19.28.4.38.63.18.38.33.78.44,1.19.18.69.25,1.41.21,2.12.03.66-.15,1.32-.5,1.88-.11,0,.08-.74,0-1.88-.03-.68-.14-1.35-.34-2-.11-.37-.26-.73-.43-1.08-.18-.39-.39-.66-.6-.63s-.1,0-.14.17c-.02.18-.02.37,0,.55.04.39.1.78.19,1.16.15.65.36,1.29.62,1.9.32.58.6,1.18.84,1.8Z" fill="#263238"/>
    <path d="m73.64,404.22c-.06,0,.23-.75,1.13-1.58.54-.48,1.15-.86,1.82-1.13.39-.16.8-.28,1.22-.36.54-.16,1.12-.03,1.54.35.23.29.26.68.09,1-.12.22-.26.42-.43.6-.29.32-.63.6-1,.82-.63.37-1.34.58-2.07.62-.67.1-1.35-.07-1.89-.48.61.03,1.23.03,1.84,0,.64-.09,1.26-.32,1.8-.68.32-.2.6-.45.85-.73.28-.3.44-.63.31-.73-.27-.17-.61-.22-.92-.12-.38.06-.76.16-1.12.29-.62.22-1.2.53-1.73.92-.96.67-1.38,1.27-1.44,1.21Z" fill="#263238"/>
    <path d="m60.03,399.7l.29,31.07,38.66-.17c-.25-3.69-20.28-11-20.28-11l.63-19.91h-19.3Z" fill="#455a64"/>
    <path d="m66.74,417.96c-.77.24-1.23,1.01-1.08,1.8.21.78.99,1.26,1.78,1.09.81-.25,1.31-1.08,1.14-1.92-.31-.8-1.19-1.21-2-.93" fill="#fff"/>
    <path d="m60.31,430.64v-3.14l37.18,1.26s1.72.76,1.52,2l-38.7-.12Z" fill="#e0e0e0"/>
    <path d="m79.33,419.38c0,.19-1,.28-1.88.89s-1.41,1.41-1.59,1.33.1-1.16,1.24-1.88,2.27-.51,2.23-.34Z" fill="#263238"/>
    <path d="m83.39,421.05c0,.18-.77.51-1.41,1.31s-.82,1.64-1,1.64-.31-1.08.5-2.06,1.91-1.08,1.91-.89Z" fill="#263238"/>
    <path d="m85.71,425.88c-.17,0-.43-.9.05-1.93s1.36-1.45,1.44-1.3-.47.71-.85,1.57-.45,1.64-.64,1.66Z" fill="#263238"/>
    <path d="m78.97,414.83c-.08.17-1-.09-2,0s-1.9.42-2,.25.7-.83,2-.91,2.09.51,2,.66Z" fill="#263238"/>
    <path d="m63.34,219.71s-5.42,5.8-8.08,11.36-4.36,18.82-4.36,18.82c0,0-7.48,16.67-6.34,25.16s8.75,66.83,8.75,66.83c0,0-.38,56.68,5,66.79l1.2,5.45,21.8-3.87h0l-.14-3.27,5.15-111.13,13.11-75.66-36.09-.48Z" fill="#263238"/>
    <path d="m111.43,236.24s13,71.73,14.18,84.19-43.2,78.1-43.2,78.1l-20.28-21.12,29.11-54.11-9.46-54.52,13.16-48.18,13.82.48,2.67,15.16Z" fill="#263238"/>
    <path d="m54.85,391.05c.02.53.08,1.06.16,1.58.13,1,.38,2.57.74,4.55.72,3.95,1.88,9.67,3.45,16.83v.15h.15l21.81-3.78h.16v-.17c.63-14.95,1.39-32.83,2.2-52,.84-20.63,1.62-39.75,2.26-55.45h0c1.66-12.6,3-23,4-30.32l1.07-8.43c.12-.95.21-1.69.27-2.21s.07-.76.07-.76c0,0,0,.25-.13.75s-.19,1.26-.33,2.21c-.27,2-.67,4.8-1.18,8.41l-4.16,30.3h0c-.67,15.69-1.48,34.81-2.35,55.44-.78,19.17-1.51,37.05-2.13,52l.18-.2-21.79,3.88.18.12c-1.61-7.14-2.82-12.86-3.59-16.79-.38-2-.67-3.49-.83-4.53-.08-.51-.13-.91-.17-1.17s-.04-.41-.04-.41Z" fill="#455a64"/>
    <path d="m117.1,204.28c-.25.63-.56,1.25-.92,1.83-.6,1.1-1.4,2.64-2.2,4.38s-1.44,3.36-1.88,4.53c-.2.65-.46,1.28-.78,1.89.07-.68.23-1.36.48-2,.49-1.57,1.08-3.11,1.77-4.61.69-1.5,1.46-2.96,2.33-4.36.33-.6.73-1.16,1.2-1.66Z" fill="#ff9a6c"/>
    <path d="m109.2,158.56c6.61.76,10.59,7.43,11.94,14.21.79,4,3.11,23.12,3.11,23.12l1.27,7s1.07,24.14-4,26.83c-6,3.14-9.41-.31-11.38-2.84s-4.08-19-4.08-19l2.25-39.36.89-9.96Z" fill="#ff7200"/>
    <path d="m29.64,190.05s13.5-29.09,16.68-30.63,12.32-2.09,13.58-.37l-24.18,34.84-6.08-3.84Z" fill="#455a64"/>
    <path d="m30.34,186.05c-.61-.33-1.33-.42-2-.25h0c-4.19,1-19.52,5.16-21.22,9.51-2,5,10.14,70.64,11.7,72.42s25.66-1.21,26.4-4-7.84-73.5-7.84-73.5l-7.04-4.18Z" fill="#455a64"/>
    <path d="m11.32,230.78s-1.36.08-2.72,3.1,1,27.49,2.84,30,7.05,3,7.05,3l-7.17-36.1Z" fill="#455a64"/>
    <path d="m38.18,265.1s-.09-.1-.12-.16l-.32-.51c-.28-.44-.66-1.12-1.11-2-1.22-2.55-2.14-5.24-2.75-8-.89-4.08-1.53-8.22-1.91-12.38-.5-4.68-1-9.82-1.62-15.22-1.17-10.79-2.14-20.59-2.3-27.71-.09-3.56,0-6.45.1-8.43.05-1,.11-1.77.16-2.29,0-.24,0-.43.06-.59s0-.21,0-.2c.01.07.01.13,0,.2v.6c0,.56,0,1.32-.08,2.28-.06,2-.08,4.87,0,8.42.35,7.14,1.35,16.94,2.5,27.71.56,5.4,1.1,10.54,1.58,15.22.37,4.15.97,8.27,1.82,12.34.58,2.75,1.45,5.43,2.6,8,.42.89.77,1.58,1,2l.28.52c.09.15.12.2.11.2Z" fill="#263238"/>
    <path d="m30.49,226.19c-.94.24-1.89.42-2.85.54-1.77.31-4.2.77-6.85,1.43s-5,1.38-6.72,1.93c-.91.34-1.84.63-2.78.86.21-.16.45-.28.7-.36.46-.21,1.13-.48,2-.8,4.41-1.62,8.99-2.75,13.65-3.37.89-.11,1.62-.19,2.12-.22.24-.03.49-.04.73,0Z" fill="#263238"/>
    <path d="m11.01,228.05c.05.13.09.26.1.4.06.31.13.7.21,1.16l.71,4.28c.61,3.64,1.49,8.63,2.61,14.16s2.2,10.38,3,14c.41,1.73.74,3.16,1,4.23.1.46.19.84.26,1.15.04.13.06.27.06.41-.06-.13-.11-.26-.15-.39l-.33-1.13c-.29-1-.68-2.42-1.14-4.2-.92-3.55-2.08-8.49-3.19-14s-1.93-10.49-2.46-14.13c-.26-1.81-.46-3.28-.57-4.3l-.13-1.18c-.02-.15-.01-.31.02-.46Z" fill="#263238"/>
    <path d="m28.17,198.53c-.05-.61,0-1.22.13-1.81.21-1.45.51-2.89.89-4.31.37-1.42.82-2.81,1.35-4.18.19-.58.45-1.13.78-1.64.13.05-.84,2.64-1.7,5.94s-1.32,6.02-1.45,6Z" fill="#263238"/>
    <path d="m60.55,159.39c-.86,0-17,1.15-20.7,18.4s-4.82,41.42-4.82,41.42l17.66,2.42,7.86-62.24Z" fill="#ff7200"/>
    <path d="m68.46,155.57l4.4-5.65,21.86-.72,3,4.93,14.59,5.26.25,70,9.41,54.35s-2.58,7.79-19,7.47l-4.92-27.16-24-.56-1.03,30.56s-23.12-.67-31.17-6.42c0,0,2.19-35.35,9.13-56.26,6.06-18.31,5.25-16.48,5.25-16.48l.52-54.84,11.71-4.48Z" fill="#ff7200"/>
    <g opacity=".3">
      <path d="m60.81,160.13c-5,21.31-2.31,34.09-7.29,55.4l-1.88,13.89c5.21-2.33,8.09-7.9,8-13.6,0-2.95-.93-5.84-1.06-8.79-.27-6.66,3.41-12.76,5.1-19.22,2.4-9.13.68-18.93-2.87-27.68Z"/>
    </g>
    <path d="m48.64,163.45l3.87,54-.88,12,4.65-14.14c.58-12.22,5.49-33.34,5.72-39.76.26-5.67-.32-11.34-1.72-16.84,0,0-8.22-1.32-11.64,4.74Z" fill="#455a64"/>
    <path d="m46.03,159.58c.56.17,1.07.45,1.51.83.52.42.91.99,1.1,1.64.24.73.39,1.49.45,2.26.15,1.61.14,3.06.14,4.11.04.57.02,1.14-.06,1.7-.18-.55-.26-1.12-.25-1.69-.09-1.05-.13-2.5-.27-4.08s-.5-3-1.27-3.65c-.47-.35-.92-.72-1.35-1.12Z" fill="#263238"/>
    <path d="m73.04,153.05s.94,33.55,1.81,43.68c.35,4-.75,66.8-.75,66.8l24,.56-1.74-47.17c-.39,0,0-34.29,0-34.29l-1.57-29.14-.91,1c-5.68,5.36-15.41,3.85-20.74-1.86-.01.12-.01.25,0,.37l-.1.05Z" fill="#ebebeb"/>
    <path d="m72.57,170.5c-.35-1.07-.62-2.17-.8-3.28l-.74-3.58c-.06-.67-.26-1.33-.59-1.92-.38-.5-1.16-.25-1.92-.06-1.28.32-2.55.73-3.78,1.21l-.54.21.23-.53c.7-1.68,1.58-3.28,2.61-4.77.38-.6.83-1.16,1.35-1.64-.33.63-.69,1.23-1.1,1.81-.93,1.52-1.74,3.12-2.41,4.78l-.32-.32c1.25-.51,2.53-.93,3.83-1.26.39-.11.79-.19,1.2-.24.47-.05.93.13,1.24.48.39.66.62,1.4.68,2.16.22,1.32.43,2.53.62,3.61.23,1.1.38,2.22.44,3.34Z" fill="#263238"/>
    <path d="m97.8,154.53c.18.26.31.55.38.86.29.81.53,1.63.72,2.46.29,1.24.51,2.49.64,3.75.07.72.12,1.47.15,2.25v.9c0,.17-.07.34-.19.46-.16.13-.39.15-.57.05-.11-.06-.21-.14-.3-.23l-.45-.41-2.54-2.34.41-.12c-.15,1.09-.13,2.2.07,3.28.14,1,.28,1.91.34,2.67.15.8.09,1.62-.18,2.39.02-.79-.02-1.58-.13-2.36-.11-.74-.28-1.62-.45-2.64-.22-1.14-.24-2.31-.06-3.45l.09-.42.32.29,2.54,2.32.45.42c.05.06.11.1.18.14.05,0,0,.1,0,.07v-1c0-.77-.06-1.51-.12-2.21-.11-1.25-.28-2.49-.52-3.72-.45-2.11-.86-3.39-.78-3.41Z" fill="#263238"/>
    <path d="m36.12,219.05c-.72,4.34-1.17,8.71-1.36,13.1,0,3.47,7.55,39.73,7.55,39.73l11.21-3.77-3.94-35.24,2.16-11.4-15.62-2.42Z" fill="#ffbf9d"/>
    <path d="m53.72,270.65s4.48,3.38,5.46,4.71,3.41,6.1,5.22,7.48c-.09.75-.77,1.28-1.51,1.19-.23-.03-.46-.12-.65-.26-1.84-1.03-3.44-2.43-4.72-4.1-.76-1.16-1.56-.48-1.61.53s.83,7.87.83,7.87c0,0,2.14,7.63,1.56,8.48-.43.62-1.29.77-1.91.34-.1-.07-.19-.15-.26-.24-.3-.4-2.71-6.77-2.71-6.77l-.62-3.46s1.24,11,.55,11.83c-.37.55-1.11.7-1.66.33-.1-.07-.19-.15-.27-.24-.48-.43-1-5.29-1-5.29l-1.13-6.47.21,12.34s-.13,1.17-1,1.21-1.53-1.3-1.53-1.3l-1.33-12.72s.43,7.07,0,7.44c-.64.49-1.22.33-1.43-.21-.46-2.47-.8-4.96-1-7.46l-.59-12.11-.62-5.84,11.33-.74.39,3.46Z" fill="#ffbf9d"/>
    <path d="m55.56,102.05c4.63-2.42,10.28-1.68,14.13,1.85l-4.3,24.49c-1.06,3-2.99,5.61-5.54,7.51-.89-2.15-.78-4.58.3-6.64-1.13.98-2.45,1.73-3.87,2.21.24-2.3,1.24-4.44,2.84-6.11-5.06-1.23-8.92-5.33-9.83-10.46-.74-5.16,1.75-10.25,6.27-12.85Z" fill="#263238"/>
    <path d="m73.19,112.8c.71-1.88.43-4,.72-6,.62-4.38,4.14-7.9,8.22-9.62,3.8-1.59,8.44-1.25,13,.22,3.18.96,6.02,2.81,8.19,5.33,2.8,3.46,3.75,8.07,2.55,12.36l-22.43-3.24c-2,1.85-4.3,3.37-6.79,4.48-.73.32-1.54.45-2.34.37-.81-.09-1.5-.65-1.75-1.43-.03-.87.18-1.73.63-2.47Z" fill="#263238"/>
    <path d="m87.13,96.05c-4.91-.83-9.22,1.06-13.36,3.84-4.11,2.85-7.25,6.9-9,11.59-1.97,5.45-2.28,11.37-.9,17,1.32,4.81,4.91,8.67,9.61,10.34,6.76,2.38,14.56,2.09,20.27-2.24s9-11.47,9.23-18.63c.25-4.97-1.07-9.89-3.77-14.06-2.74-4.17-7.09-7.01-12-7.85" fill="#263238"/>
    <path d="m94.93,149.49l-.19,4h0c-4.53,5.78-12.89,6.79-18.67,2.26-.68-.54-1.31-1.14-1.88-1.79l-1.1-1.28-.43-41c.03-1.9,1.52-3.46,3.41-3.58l19.57-4.14c6.23-.42,10.08,7.38,10.23,13.62.18,6.94.12,15.42-.89,20.56-2,10.32-10.05,11.35-10.05,11.35" fill="#ffbf9d"/>
    <path d="m101.74,125.63c-.03.72-.62,1.29-1.34,1.29-.71.03-1.3-.52-1.33-1.23,0,0,0-.01,0-.02.03-.72.62-1.3,1.34-1.3.71-.03,1.3.52,1.33,1.23,0,.01,0,.02,0,.03Z" fill="#263238"/>
    <path d="m103.87,121.59c-.17.16-1.15-.62-2.59-.67s-2.51.63-2.66.44.11-.38.58-.7c.64-.4,1.39-.6,2.14-.57.75.02,1.46.29,2.05.75.43.35.57.67.48.75Z" fill="#263238"/>
    <path d="m88.97,125.44c-.02.72-.61,1.3-1.33,1.3-.71.03-1.3-.52-1.33-1.23,0,0,0-.01,0-.02.02-.72.61-1.3,1.33-1.3.71-.03,1.3.52,1.33,1.23,0,0,0,.01,0,.02Z" fill="#263238"/>
    <path d="m90.26,121.25c-.17.17-1.16-.61-2.59-.66s-2.51.62-2.66.44.11-.39.58-.7c.64-.41,1.38-.61,2.14-.57.73.03,1.43.29,2,.74.47.36.61.68.53.75Z" fill="#263238"/>
    <path d="m94.57,132.15c.77-.2,1.56-.32,2.35-.33.37,0,.71-.09.79-.33.04-.38-.04-.76-.21-1.1-.31-.9-.63-1.84-1-2.83-1.35-4-2.32-7.32-2.15-7.38s1.39,3.17,2.74,7.19c.33,1,.64,1.94.93,2.85.22.45.27.96.14,1.44-.12.26-.34.45-.62.51-.21.05-.42.07-.63.07-.78.07-1.57.04-2.34-.09Z" fill="#263238"/>
    <path d="m94.93,149.49c-4.91-.33-9.65-1.9-13.78-4.57,0,0,3.23,7.32,13.67,6.74l.11-2.17Z" fill="#ff9a6c"/>
    <path d="m93.47,135.23c-.53-.58-1.32-.85-2.09-.72-.55.06-1.04.37-1.32.85-.4.6-.45,1.36-.13,2,.45.55,1.19.76,1.86.55.64-.14,1.23-.41,1.75-.81.17-.15.28-.35.33-.57.07-.47-.08-.94-.4-1.28" fill="#ff9a6c"/>
    <path d="m90.64,116.52c-.16.38-1.58.14-3.27.28s-3.07.55-3.28.19c-.09-.17.16-.53.72-.88.74-.45,1.58-.71,2.45-.76.87-.07,1.74.06,2.54.39.6.31.89.59.84.78Z" fill="#263238"/>
    <path d="m103.69,115.3c-.26.32-1.24-.06-2.43-.12s-2.2.14-2.42-.21c-.09-.17.08-.49.53-.78.6-.36,1.3-.52,2-.46.7.04,1.37.29,1.92.73.35.35.52.69.4.84Z" fill="#263238"/>
    <path d="m69.64,109.78c2-6,10.87-14.1,17.14-13.55l9.92,6.21c-.73,3.47-3.3,6.27-6.7,7.28-1.79.51-3.93.62-5,2.12s-.52,3.82-1.55,5.41c-1.43,2.2-5.23,2-6.31,4.41-.48,1-.26,2.3-.76,3.34-.65,1.38-4.21,3.08-5.65,2.59s-1.41-3-1.86-4.28c-.57-1.48-.62-3.1-.13-4.61.64-2.93-.1-6.08.9-8.92Z" fill="#263238"/>
    <path d="m74.95,128.89c0-.77-.8-2.63-1.56-2.78-2-.39-5.71-.36-5.94,4.82-.31,7.08,6.86,5.93,6.88,5.73s.52-5.09.62-7.77Z" fill="#ffbf9d"/>
    <path d="m72.29,133.88s-.13.08-.34.17c-.3.12-.62.12-.92,0-.92-.62-1.42-1.7-1.3-2.8.01-.61.16-1.21.43-1.75.16-.45.54-.79,1-.9.3-.07.6.09.71.37.09.2,0,.34.07.35s.16-.11.11-.4c-.02-.18-.11-.34-.25-.46-.19-.16-.43-.24-.68-.21-.59.08-1.09.46-1.34,1-.33.61-.51,1.3-.51,2,0,1.42.65,2.79,1.66,3.13.38.13.8.08,1.14-.14.2-.19.24-.35.22-.36Z" fill="#ff9a6c"/>
    <path d="m63.18,119.21c-.21-.69-.3-1.4-.27-2.12-.03-3.5,1.11-6.91,3.25-9.68.41-.59.91-1.11,1.49-1.53-1.47,1.89-2.65,3.99-3.49,6.24-.68,2.3-1.01,4.69-.98,7.09Z" fill="#ff7200"/>
    <path d="m94.64,100.3c.66,2.88,5,6.57,7,8.81,3.67,4.28,4.37,4.91,4.34,17.81,1.91-4,2.91-8.38,2.95-12.81-.09-3.77-1.55-7.38-4.11-10.15-2.62-2.77-6.4-4.13-10.18-3.66" fill="#263238"/>
    <path d="m65.99,109.69c.39.14.79.24,1.2.3.39.08.87.18,1.43.25s1.21.18,1.92.21c1.66.13,3.34.13,5,0,4.11-.26,8.14-1.25,11.91-2.91,1.53-.68,3.01-1.47,4.43-2.36.61-.36,1.13-.75,1.6-1.08.4-.27.78-.57,1.15-.88.33-.25.64-.52.93-.82-.35.2-.69.43-1,.69-.32.23-.71.52-1.19.82s-1,.67-1.62,1c-1.43.84-2.91,1.6-4.43,2.25-3.74,1.61-7.72,2.58-11.78,2.88-1.66.13-3.33.14-5,.05-.71,0-1.34-.11-1.91-.16-.48-.03-.96-.09-1.43-.18-.4-.05-.81-.08-1.21-.06Z" fill="#455a64"/>
    <path d="m65.25,114.77c.27.1.55.17.83.2.75.14,1.52.24,2.28.29,5.09.37,10.19-.63,14.76-2.91.69-.34,1.36-.72,2-1.14.25-.14.48-.3.69-.49,0-.07-1.07.55-2.82,1.36-2.28,1.04-4.68,1.81-7.14,2.3-2.46.48-4.97.68-7.47.58-1.93-.08-3.11-.27-3.13-.19Z" fill="#455a64"/>
    <path d="m63.47,114.94c-.13.34-.21.7-.24,1.07-.16.99-.25,2-.29,3-.08,1.47-.08,2.95,0,4.42.06,1.79.3,3.57.7,5.32.84,3.23,2.78,6.06,5.49,8,.82.57,1.7,1.04,2.63,1.41.32.16.65.27,1,.35-.32-.19-.65-.36-1-.5-.88-.43-1.72-.94-2.52-1.51-1.16-.86-2.18-1.91-3-3.1-1.04-1.44-1.8-3.05-2.24-4.77-.41-1.74-.66-3.51-.75-5.29-.11-1.64-.12-3.13-.1-4.38s.09-2.25.15-3c.08-.34.14-.68.17-1.02Z" fill="#455a64"/>
    <path d="m88.97,134.66c1.05.19,2.07.55,3,1.07.99.35,1.91.87,2.73,1.53-1.04-.19-2.03-.55-2.95-1.06-1.01-.35-1.95-.88-2.78-1.54Z" fill="#263238"/>
    <path d="m110.35,175.21c.11.15.19.32.25.5.15.33.34.83.56,1.49.6,1.86,1.02,3.78,1.24,5.72.32,2.89.38,5.79.2,8.69-.16,3.26-.59,6.83-1,10.57-.38,3.5-.51,7.03-.38,10.55.18,3.24.59,6.15.88,8.6s.49,4.44.56,5.82c0,.69.05,1.23,0,1.59.01.19.01.37,0,.56-.05-.18-.08-.37-.08-.56l-.15-1.57c-.13-1.38-.37-3.35-.72-5.79s-.78-5.35-1-8.62c-.16-3.55-.05-7.1.34-10.63.36-3.75.8-7.3,1-10.55.2-2.87.18-5.75-.08-8.61-.19-1.93-.55-3.84-1.07-5.71-.26-1.32-.59-2.03-.55-2.05Z" fill="#263238"/>
    <g opacity=".3">
      <path d="m115.81,194.97c-.12-3.16-.45-6.3-1-9.41-.4-3-2.12-6-4.15-9.42,0,0,1.71,7.54,1.69,11.49.1,4.09-.07,8.19-.52,12.26-.38,2.67-.23,4.58-.56,7.26-.48,3.16-.41,6.39.21,9.53,2.74-7.63,4.33-13.63,4.33-21.71Z"/>
    </g>
    <path d="m129.46,207.52s-.42,13.22-3.08,17.2-7.7,9-13.84,4.7l-1.22-12.51s3.72-8.51,4.85-11.31c2.84-7,7.4-18,7.4-18l7.57,4.55-1.68,15.37Z" fill="#ffbf9d"/>
    <path d="m122.98,186.05c.37-2.48,1.24-4.87,2.57-7,2-2.9,9.33-9.41,9.33-9.41,2,.45,1.63,2.77-.21,6.32-2.37,4.59,4.52,13.84,4.41,14.27-.14.58-9.57,6.39-9.57,6.39l-7.66-4.84,1.13-5.73Z" fill="#ffbf9d"/>
    <path d="m130,177.73c.29.46.48.98.54,1.52.26,1.27.29,2.58.09,3.87-.2,1.29-.62,2.53-1.26,3.67-.5.87-.92,1.32-1,1.28.77-1.59,1.35-3.27,1.71-5,.2-1.78.18-3.57-.08-5.34Z" fill="#ff9a6c"/>
    <path d="m133.91,286.15c-.14,0-.26-48.62-.26-108.58s.12-108.6.26-108.6.26,48.61.26,108.6-.12,108.58-.26,108.58Z" fill="#263238"/>
    <path d="m108.64,51.92c-4.78-8.44-4.3-20.45-.83-29.51s11.69-18.21,26-18.67c6.17-.35,12.29,1.17,17.57,4.38,5.46,3.16,10.55,9.7,13,15.5,2.28,5.3,2.49,11.24,2.06,17-.92,12.08-6.2,21.31-18.27,28.56-2.72,1.64-9.79,3.74-11.35,4.1.99,1.37,1.55,3.01,1.6,4.7.08.6-.13,1.19-.56,1.61-.57.33-1.3.23-1.75-.25-.43-.48-.74-1.05-.92-1.67-.11.55-.3,1.09-.58,1.58-.28.5-.79.83-1.36.89-.8-.04-1.48-.59-1.68-1.37-.17-.76-.17-1.56,0-2.32-.3.76-.82,1.41-1.49,1.86-.68.4-1.55.17-1.94-.51-.02-.04-.04-.07-.06-.11-.08-.55.08-1.11.43-1.54.71-1.18,1.44-2.34,2.18-3.5.05,0-12.57-4-22.05-20.73Z" fill="#ff7200"/>
    <g opacity=".2">
      <path d="m131.39,7.13c.58-1.17,2.07-1.6,3.68-1.77,4.2-.24,8.4.52,12.25,2.22,3.7,1.53,6.91,4.02,9.32,7.21,1.13,1.38,3,4.65,1,6.46-.05.04-.1.08-.16.1-2.59.94-4.5-.6-5.94-2.28-.89-1.21-1.92-2.31-3.07-3.29-1.57-1.29-3.45-2.14-5.45-2.48-1.92-.14-4.51-.07-6.4-.38s-3.57-.43-4.79-1.92c-.87-1.1-1.04-2.6-.44-3.87Z" fill="#fff"/>
    </g>
    <path d="m129.9,72.52c.05-.14,1.67.36,3.73.57s3.74.08,3.76.24c-2.51.65-5.18.36-7.49-.81h0Z" fill="#263238"/>
    <g opacity=".2">
      <path d="m114.02,37.19c0,2.02,1.63,3.65,3.65,3.65s3.65-1.63,3.65-3.65c0-2.02-1.63-3.65-3.65-3.65,0,0-.02,0-.03,0-2.01.01-3.63,1.64-3.62,3.65Z" fill="#fff"/>
    </g>
    <g opacity=".2">
      <path d="m150.3,37.19c0,2.01,1.64,3.64,3.65,3.63,2.01,0,3.64-1.64,3.63-3.65,0-2.01-1.63-3.63-3.64-3.63-2.01,0-3.64,1.63-3.64,3.64,0,0,0,0,0,.01Z" fill="#fff"/>
    </g>
    <path d="m140.06,32.48c0,1.66,1.34,3,3,3s3-1.34,3-3-1.34-3-3-3-3,1.34-3,3Z" fill="#263238"/>
    <path d="m125.83,32.48c0,1.66,1.34,3,3,3s3-1.34,3-3-1.34-3-3-3-3,1.34-3,3Z" fill="#263238"/>
    <path d="m124.34,42.51c0-.72,4.9-1.3,11-1.3s11,.58,11,1.3-4.9,1.3-11,1.3-11-.58-11-1.3Z" fill="#263238"/>
    <path d="m133.64,29.2c-.51.52-2.08-.21-3.53-1.62s-2.21-3-1.71-3.49,2.08.21,3.53,1.62,2.23,2.98,1.71,3.49Z" fill="#263238"/>
    <path d="m144.22,24.05c.5.52-.32,2.12-1.84,3.58s-3.16,2.21-3.65,1.7.33-2.12,1.84-3.58,3.16-2.26,3.65-1.7Z" fill="#263238"/>
    <path d="m138.07,188.39s-2.94,1.95-4.39,1.18c-.99-.5-1.38-1.7-.88-2.69.1-.2.24-.39.4-.54-.66.56-1.65.49-2.21-.17-.09-.11-.17-.22-.23-.35-.45-1.09-.22-2.34.59-3.2,0,0-.9-.11-.84-1.82s1.95-3.17,1.95-3.17c-.64-1.19-.6-2.64.11-3.79,1.3-1.71,3.25-2.8,5.38-3,.17,0,2.26-.06,2.26,1.79s-.46,2.38-.46,2.38c0,0,1.65.94.11,4.17,0,0,2,1.38.23,4.28,0,0,1,3.57.34,5-.46.94-1.15,1.75-2,2.35" fill="#ffbf9d"/>
    <path d="m138.45,190.81c.54-.48,1.03-1.02,1.45-1.61,1-1.12.61-3.3,0-5.7v-.08l.05-.07c.39-.6.62-1.29.68-2,.05-.77-.28-1.52-.88-2l-.15-.12.04-.18c.31-.63.51-1.3.6-2,.13-.69-.11-1.39-.63-1.86l-.22-.15.15-.22c.16-.29.27-.62.31-.95.06-.37.09-.75.09-1.12.1-.72-.37-1.39-1.08-1.55-.37-.1-.76-.14-1.14-.14-.39.03-.77.11-1.14.24-.78.26-1.53.63-2.21,1.1-.88.53-1.56,1.34-1.95,2.29-.3.92-.22,1.93.23,2.79l.11.2-.17.13c-.78.6-1.38,1.4-1.73,2.32-.14.43-.17.89-.09,1.34,0,.43.31.84.59.9l.41.1-.27.29c-.76.74-1,1.86-.61,2.85.15.43.51.77.95.88.43.04.87-.07,1.23-.32l1-.66-.75.93c-.38.44-.58,1.01-.56,1.6.05.51.33.98.76,1.26.38.25.84.34,1.29.27.4-.04.79-.13,1.16-.27,1.36-.5,2-1,2.07-.93-.14.14-.31.25-.48.35-.48.3-.98.57-1.51.78-.39.15-.8.26-1.21.33-.51.09-1.04,0-1.48-.28-.52-.32-.86-.87-.93-1.48-.05-.68.16-1.34.59-1.87l.26.27c-.43.33-.98.48-1.52.41-.58-.13-1.06-.54-1.27-1.09-.26-.54-.32-1.16-.18-1.74.14-.6.44-1.15.85-1.61l.13.39c-.56-.19-.95-.68-1-1.27-.1-.53-.07-1.07.09-1.58.38-1.02,1.03-1.91,1.89-2.57l-.06.33c-.54-.99-.64-2.15-.29-3.22.42-1.06,1.17-1.95,2.14-2.55.73-.49,1.51-.88,2.34-1.16.42-.15.86-.24,1.3-.27.44,0,.87.06,1.29.17.45.12.85.39,1.12.77.24.38.35.83.32,1.28,0,.4-.04.8-.1,1.19-.06.42-.2.83-.43,1.19l-.06-.37c.68.56,1.01,1.45.86,2.32-.1.75-.33,1.47-.67,2.15l-.07-.28c.71.58,1.08,1.47,1,2.38-.07.78-.34,1.54-.78,2.19v-.15c.3,1.12.47,2.26.51,3.42.02.48-.03.96-.15,1.42-.13.38-.32.74-.56,1.07-.33.45-.71.85-1.14,1.19-.11.13-.25.24-.39.33Z" fill="#ff9a6c"/>
    <path d="m133.11,186.44c-.05,0,.16-.48.67-1.08.7-.74,1.53-1.35,2.44-1.81.49-.3,1.04-.51,1.6-.63.47-.08.94-.08,1.41,0,.35.03.66.22.85.51.12.2.12.33.09.34s-.26-.48-1-.48c-.43-.02-.85.02-1.27.1-.5.15-.99.35-1.44.62-.87.45-1.68.99-2.43,1.62-.54.5-.86.86-.92.81Z" fill="#ff9a6c"/>
    <path d="m131.35,182.62c-.05,0,.29-.48,1-1,.91-.7,1.89-1.31,2.91-1.83,1.01-.62,2.17-.93,3.35-.9.49-.02.98.12,1.39.4-.46.03-.93.03-1.39,0-1.1.08-2.16.42-3.1,1-1.18.63-2.22,1.19-2.94,1.67s-1.16.72-1.22.66Z" fill="#ff9a6c"/>
    <path d="m131.88,178.21c-.13-.09,1.2-1.74,3.43-2.94.96-.59,2.09-.82,3.2-.67.84.15,1.27.48,1.25.53s-.51-.12-1.29-.16c-1.02-.04-2.03.22-2.9.75-2.17,1.17-3.58,2.58-3.69,2.49Z" fill="#ff9a6c"/>
  </g>
</svg>