<?xml version="1.0" encoding="UTF-8"?>
<svg id="Layer_1" data-name="Layer 1" xmlns="http://www.w3.org/2000/svg" viewBox="0 0 680.91 411.27">
  <g id="freepik--background-complete--inject-7">
    <path d="m332.75,121.03c-.81,0-1.61-.13-2.37-.4l-12.23-4.24c-2.45-.86-4.26-2.95-4.75-5.49l-2.45-12.73c-.49-2.55.42-5.16,2.38-6.86l9.79-8.48c1.97-1.7,4.68-2.22,7.14-1.38l12.24,4.25c2.45.85,4.27,2.94,4.76,5.49l2.44,12.72c.48,2.55-.42,5.16-2.37,6.87l-9.8,8.48c-1.33,1.15-3.03,1.78-4.78,1.77h0Zm-11.6-12.06l11.44,4,9.16-7.92-2.29-11.89-11.44-4-9.15,7.93,2.28,11.88Z" fill="#f5f5f5"/>
    <path d="m475.59,84.08c-.81,0-1.61-.13-2.37-.4l-6.2-2.15c-2.45-.85-4.26-2.94-4.75-5.49l-1.24-6.44c-.49-2.55.42-5.16,2.37-6.86l5-4.3c1.96-1.7,4.68-2.22,7.13-1.37l6.19,2.15c2.45.85,4.27,2.94,4.76,5.49l1.24,6.44c.49,2.55-.42,5.16-2.38,6.86l-5,4.3c-1.32,1.14-3.01,1.76-4.75,1.77Zm-5.55-10l5.4,1.87,4.31-3.74-1.08-5.6-5.39-1.87-4.32,3.8,1.08,5.54h0Z" fill="#f5f5f5"/>
    <path d="m646.83,178.31c-1.6,0-3.11-.75-4.11-2l-3.49-4.36c-1.17-1.47-1.48-3.45-.8-5.2l2-5.2c.68-1.75,2.24-3,4.1-3.29l5.52-.85c1.86-.28,3.73.45,4.91,1.91l3.49,4.36c1.17,1.47,1.48,3.45.8,5.2l-2,5.2c-.68,1.75-2.25,3.01-4.11,3.29l-5.52.85c-.26.05-.52.08-.79.09Zm4.05-16.93h-.19l-5.52.85c-.45.07-.83.37-1,.79l-2,5.2c-.17.42-.09.9.19,1.25l3.49,4.36c.29.35.73.52,1.18.46l5.52-.85c.45-.06.83-.37,1-.79l2-5.2c.16-.42.09-.9-.19-1.25h0l-3.49-4.36c-.25-.29-.61-.46-.99-.46Z" fill="#e0e0e0"/>
    <path d="m23.85,221.77c-2.05,0-4-.93-5.29-2.53l-8.2-10.24c-1.5-1.89-1.88-4.43-1-6.68l4.79-12.23c.88-2.25,2.89-3.86,5.27-4.23l13-2c2.39-.36,4.79.58,6.3,2.46l8.13,10.22c1.5,1.89,1.88,4.44,1,6.69l-4.7,12.24c-.88,2.25-2.89,3.87-5.28,4.24l-13,2c-.34.05-.68.07-1.02.06h0Zm-7.94-17l8,10,12.7-1.94,4.66-12-8-10-12.7,1.95-4.66,11.99Z" fill="#e0e0e0"/>
    <path d="m57.03,132.14h-7.73c-1.87,0-3.61-.98-4.56-2.6l-3.87-6.69c-.93-1.63-.93-3.64,0-5.27l3.87-6.69c.94-1.63,2.68-2.63,4.56-2.63h7.73c1.88,0,3.62,1,4.56,2.63l3.87,6.65c.93,1.63.93,3.64,0,5.27l-3.87,6.73c-.95,1.61-2.69,2.6-4.56,2.6Zm-7.73-19.92c-.45,0-.87.24-1.1.63l-3.86,6.69c-.23.39-.23.88,0,1.27l3.86,6.73c.23.39.65.63,1.1.64h7.73c.46,0,.89-.24,1.12-.64l3.86-6.69c.23-.39.23-.88,0-1.27l-3.86-6.73c-.23-.39-.65-.63-1.1-.63,0,0-7.75,0-7.75,0Z" fill="#ebebeb"/>
    <polygon points="188.93 56.49 173.85 47 155.34 15.76 129.59 0 124.61 5.39 127.22 8.91 135.35 19.81 167.62 63.13 180.78 70.37 188.93 56.49" fill="#ebebeb"/>
    <polygon points="169.98 78.95 165.66 64.57 118.24 10.39 111.92 14.13 121.93 42.62 149.46 69.66 155.63 86.54 169.98 78.95" fill="#ebebeb"/>
    <path d="m195.67,59.17s53.55,29.39,64.34,39.31,36,51.23,33.44,56.51-4.52,6-10.33.88-24.59-33.42-29.63-38-67.78-41.33-67.78-41.33l9.96-17.37h0Z" fill="#e0e0e0"/>
    <circle cx="159.36" cy="54.8" r="16.96" fill="#ebebeb"/>
    <path d="m155.15,71.21c1.37.26,2.75.4,4.14.43,1.63,0,3.24-.23,4.8-.71,7.72-2.26,12.76-9.68,12-17.69-.17-1.62-.59-3.21-1.24-4.7-.31-.77-.67-1.51-1.08-2.23-.44-.73-.93-1.42-1.47-2.07-4.58-5.68-12.33-7.71-19.11-5-.78.31-1.54.68-2.28,1.09-.7.43-1.37.91-2,1.43-1.27,1-2.37,2.18-3.27,3.52-1.7,2.46-2.71,5.34-2.93,8.32-.33,4.8,1.4,9.5,4.75,12.95,1.13,1.19,2.42,2.2,3.85,3,1.23.65,2.51,1.2,3.83,1.64-.09.01-.18.01-.27,0l-.78-.22c-.42-.11-.84-.25-1.24-.43-.56-.21-1.11-.47-1.63-.76-1.48-.76-2.83-1.75-4-2.93-3.48-3.47-5.3-8.28-5-13.19.22-3.07,1.25-6.03,3-8.56.93-1.38,2.06-2.61,3.36-3.64,1.33-1.11,2.83-1.99,4.45-2.61,6.98-2.8,14.96-.72,19.69,5.12.55.68,1.05,1.39,1.5,2.14.42.74.8,1.51,1.11,2.31.64,1.53,1.03,3.15,1.16,4.8.56,5.81-1.91,11.51-6.53,15.08-1.73,1.35-3.71,2.35-5.82,2.94-1.58.46-3.23.68-4.88.63-.6,0-1.2-.04-1.8-.13-.44-.03-.88-.1-1.31-.2l-.79-.19c-.08-.04-.15-.08-.21-.14h0Z" fill="#e0e0e0"/>
    <path d="m156.96,64.07c-5.12-1.33-8.2-6.55-6.88-11.67,1.33-5.12,6.55-8.2,11.67-6.88,5.12,1.33,8.2,6.55,6.88,11.67v.02c-1.33,5.11-6.55,8.18-11.67,6.86Z" fill="#e0e0e0"/>
    <path d="m156.96,64.07c0-.07.83.2,2.33.2,3.66-.03,6.98-2.16,8.54-5.48.7-1.52.98-3.2.82-4.86-.18-1.83-.9-3.57-2.07-5-2.56-3.16-6.88-4.29-10.66-2.77-.87.33-1.69.79-2.41,1.38-.71.57-1.33,1.24-1.83,2-.95,1.37-1.52,2.97-1.65,4.64-.11,1.45.12,2.91.68,4.26.81,1.98,2.25,3.62,4.11,4.68.69.37,1.41.71,2.14,1-.79-.14-1.54-.4-2.24-.79-1.95-1.02-3.49-2.68-4.35-4.71-.6-1.4-.87-2.92-.77-4.44.11-1.75.69-3.44,1.68-4.89.51-.8,1.14-1.51,1.87-2.12.76-.63,1.62-1.13,2.54-1.49,3.98-1.61,8.55-.43,11.25,2.92,1.24,1.5,2.01,3.34,2.21,5.28.16,1.75-.16,3.5-.91,5.09-.66,1.37-1.63,2.57-2.83,3.5-1.74,1.35-3.9,2.06-6.1,2-.8,0-1.59-.14-2.35-.4h0Z" fill="#e0e0e0"/>
    <rect x="174.15" y="58.06" width="28.67" height="15.51" rx="7.38" ry="7.38" transform="translate(37.52 196.46) rotate(-60.12)" fill="#ebebeb"/>
    <path d="m178.29,67.99c-.41.89-.69,1.84-.83,2.81-.1,1.14.05,2.29.45,3.37.25.66.58,1.29,1,1.86.49.63,1.08,1.17,1.74,1.61.73.49,1.51.89,2.34,1.19,2.96,1,6.23-.04,8.07-2.57,2.3-3.83,4.73-8.22,7.35-12.73,1.22-2.17,1.22-4.83,0-7-.53-1.03-1.31-1.91-2.26-2.56-.92-.65-1.97-1.11-3.07-1.36-2.07-.42-4.21.09-5.87,1.4-1.57,1.19-2.26,3-3.18,4.46l-4.12,7-1.14,1.89c-.12.23-.27.44-.43.64.1-.24.21-.47.34-.7.27-.48.62-1.13,1.06-1.93,1-1.72,2.31-4.12,4-7.07l1.32-2.34c.49-.87,1.13-1.65,1.91-2.28,1.73-1.39,3.99-1.96,6.18-1.54,1.15.25,2.25.73,3.22,1.4,1.06.67,1.94,1.59,2.55,2.69,1.33,2.34,1.33,5.2,0,7.54-2.63,4.53-5,8.85-7.41,12.76-1.34,1.8-3.4,2.92-5.64,3.07-1,.06-2-.08-2.95-.4-.85-.33-1.66-.76-2.41-1.28-.69-.47-1.3-1.04-1.81-1.71-.42-.62-.76-1.29-1-2-.68-1.83-.58-3.86.26-5.62.09-.21.2-.41.33-.6h0Z" fill="#e0e0e0"/>
    <path d="m157.62,95.08s20.29,57.62,28.33,69.88,44.69,43.84,50.31,42.18,6.61-3.49,2.55-10-29-29.69-32.68-35.42-29.81-73.6-29.81-73.6l-18.7,6.96h0Z" fill="#e0e0e0"/>
    <rect x="151.02" y="81.32" width="28.67" height="15.51" rx="7.38" ry="7.38" transform="translate(-20.73 63.61) rotate(-20.52)" fill="#ebebeb"/>
    <path d="m169.15,79.37c.23-.12.47-.21.72-.28.72-.2,1.46-.3,2.21-.28,1.18.04,2.34.36,3.38.93.64.37,1.24.82,1.76,1.35.57.61,1.04,1.3,1.4,2.06.4.82.68,1.69.86,2.59.18,1,.15,2.02-.08,3-.52,2.19-1.99,4.04-4,5.06-4.24,1.71-8.89,3.38-13.79,5.24-2.52.93-5.35.47-7.45-1.2-.99-.8-1.76-1.83-2.24-3-.51-1.08-.8-2.25-.86-3.44-.07-2.24.85-4.4,2.52-5.9.75-.66,1.62-1.17,2.56-1.51l2.52-.93,7.62-2.76,2.08-.73c.24-.1.49-.17.74-.22-.22.13-.46.24-.7.32l-2,.82-7.56,2.92c-1.57.67-3.49,1.06-4.92,2.41-1.56,1.42-2.41,3.46-2.34,5.57.07,1.13.36,2.23.85,3.25.46,1.08,1.18,2.03,2.1,2.76,1.96,1.56,4.6,1.98,6.95,1.11,4.87-1.85,9.6-3.54,13.76-5.18,2.78-1.41,4.34-4.46,3.85-7.54-.17-.87-.44-1.71-.81-2.51-.32-.73-.76-1.41-1.3-2-.49-.51-1.05-.96-1.66-1.32-.99-.58-2.1-.92-3.25-1-.99-.01-1.97.13-2.92.41h0Z" fill="#e0e0e0"/>
  </g>
  <g>
    <path d="m456.61,32.72c30.18,5.01,48.26,9.18,56.1,30.79,7.87,21.6-50.38,77.43-9.01,98.65s70.66-7.82,96.57-37.09c25.95-29.22,43.84-67.35,48.52-87.41" fill="none" stroke="#e0e0e0" stroke-linecap="round" stroke-linejoin="round" stroke-width="44"/>
    <path d="m435.38,154.61c16.9-13.71,32.77-13.02,52.59-10.95" fill="none" stroke="#e0e0e0" stroke-linecap="round" stroke-linejoin="round" stroke-width="44"/>
  </g>
  <g id="freepik--Floor--inject-7">
    <path d="m680.91,411.01c0,.14-152.44.26-340.44.26s-340.47-.12-340.47-.26,152.41-.26,340.47-.26,340.44.12,340.44.26Z" fill="#263238"/>
  </g>
  <g id="freepik--Screwdriver--inject-7">
    <path d="m53.15,296.61c.27-.84,31.43-102.7,31.43-102.7l-.78-12.65,8.15-13.42,10.12,3.35-1.38,15-7.2,10.94-31.34,102.41-9-2.93h0Z" fill="#e0e0e0"/>
    <path d="m53.15,296.61l.6.17,1.73.54,6.67,2.09-.11.06c5.07-16.61,16.79-55.05,31.23-102.38h0l7.19-10.93v.11c.44-4.79.91-9.88,1.38-15l.18.27-.84-.27-9.28-3.07.3-.11-8.15,13.42v-.15c.26,4.31.52,8.53.77,12.65v.09c-9.11,29.59-17,55.22-22.61,73.46-2.82,9.13-5.08,16.4-6.63,21.41-.77,2.5-1.38,4.43-1.79,5.75l-.47,1.49-.17.51c.03-.17.08-.33.13-.49.1-.35.24-.84.43-1.47.4-1.32,1-3.24,1.72-5.72,1.51-5,3.71-12.28,6.47-21.4,5.58-18.3,13.4-44,22.44-73.69v.09c-.26-4.12-.52-8.34-.79-12.65v-.15l8.15-13.42.1-.18.2.07,9.29,3.06.83.28.2.06v.21c-.47,5.15-.94,10.24-1.39,15v.12l-7.19,10.94v-.07c-14.59,47.23-26.41,85.62-31.53,102.23v.09h-.09l-6.68-2.21-1.69-.57-.6-.24h0Z" fill="#263238"/>
    <path d="m45.64,301.54l-14,18.92-19.57,71s-2.81,14.48,13.18,18.59c18,4.62,22.1-9.14,22.1-9.14l19-69.33-.2-24.04,4.69-5.29c.72-.84.63-2.1-.21-2.82-.19-.16-.4-.29-.64-.37l-22.48-7.42c-1.05-.33-2.18.26-2.51,1.31-.08.24-.11.5-.08.76l.72,7.83h0Z" fill="#ff7200"/>
    <path d="m66.27,308.37c-.05.14-4.76-1.23-10.52-3.06s-10.41-3.43-10.36-3.57,4.75,1.24,10.52,3.07,10.4,3.42,10.36,3.56Z" fill="#263238"/>
    <path d="m66.39,331.59c-.47-.03-.94-.11-1.4-.24-.9-.19-2.18-.5-3.77-.9-3.18-.79-7.54-2-12.29-3.52s-9-3.06-12.07-4.25c-1.52-.6-2.75-1.1-3.59-1.46-.45-.16-.87-.36-1.28-.61.47.1.92.24,1.36.42l3.64,1.3c3.08,1.1,7.34,2.59,12.09,4.1s9.09,2.78,12.23,3.67l3.73,1.05c.46.11.91.25,1.35.44h0Z" fill="#263238"/>
    <g opacity=".3">
      <rect x="-4.01" y="357.24" width="68.49" height="7.11" rx="3.3" ry="3.3" transform="translate(-324.59 288.8) rotate(-73.74)"/>
    </g>
    <g opacity=".3">
      <rect x="6.02" y="360.49" width="68.49" height="7.11" rx="3.3" ry="3.3" transform="translate(-320.49 300.77) rotate(-73.74)"/>
    </g>
    <g opacity=".3">
      <rect x="14.94" y="363.44" width="68.49" height="7.11" rx="3.3" ry="3.3" transform="translate(-316.68 309.99) rotate(-73.51)"/>
    </g>
    <path d="m93.42,197.14c-1.53-.26-3.03-.68-4.46-1.27-1.49-.42-2.93-1.01-4.28-1.76,1.52.26,3.02.69,4.45,1.27,1.49.42,2.93,1.01,4.29,1.76Z" fill="#263238"/>
    <path d="m102.09,171.19c-.07.48-.19.94-.35,1.4-.29,1-.67,2.26-1.14,3.82l-4,13-.08.25-.25-.08-4.61-1.61-4.74-1.66-.23-.08.07-.23c1.44-5.14,2.71-9.65,3.65-13,.46-1.55.83-2.83,1.12-3.79.12-.46.27-.92.46-1.36-.05.48-.15.95-.29,1.41l-1,3.83c-.89,3.33-2.09,7.85-3.47,13l-.16-.31,4.75,1.66,4.6,1.61-.33.17,4.2-12.91c.52-1.55,1-2.81,1.28-3.77.13-.46.31-.92.52-1.35h0Z" fill="#263238"/>
  </g>
  <g id="freepik--Gears--inject-7">
    <path d="m397.05,69.46c-.81,0-1.61-.13-2.37-.4l-12.25-4.24c-2.45-.86-4.26-2.95-4.75-5.49l-2.45-12.73c-.49-2.55.42-5.16,2.38-6.86l9.8-8.48c1.96-1.69,4.68-2.22,7.13-1.37l12.24,4.24c2.45.85,4.26,2.94,4.76,5.49l2.45,12.73c.48,2.55-.43,5.16-2.38,6.86l-9.8,8.48c-1.32,1.14-3.01,1.77-4.76,1.77Zm-11.6-12.06l11.45,4,9.15-7.92-2.29-11.94-11.44-4-9.17,8,2.3,11.86h0Z" fill="#e0e0e0"/>
    <path d="m397.05,69.46c-.81,0-1.61-.13-2.37-.4l-12.25-4.24c-2.45-.86-4.26-2.95-4.75-5.49l-2.45-12.73c-.49-2.55.42-5.16,2.38-6.86l9.8-8.48c1.96-1.69,4.68-2.22,7.13-1.37l12.24,4.24c2.45.85,4.26,2.94,4.76,5.49l2.45,12.73c.48,2.55-.43,5.16-2.38,6.86l-9.8,8.48c-1.32,1.14-3.01,1.77-4.76,1.77Zm-11.6-12.06l11.45,4,9.15-7.92-2.29-11.94-11.44-4-9.17,8,2.3,11.86h0Z" fill="none"/>
    <path d="m385.45,57.4c-.08-.26-.15-.52-.2-.79l-.5-2.35c-.43-2.11-1-5.08-1.77-8.71-.02-.07,0-.14.06-.19l9.12-8c.08-.04.16-.04.24,0l11.44,4,.18.2h0v.37l.08.39.15.78c.1.51.19,1,.29,1.54.2,1,.39,2,.58,3,.38,2,.75,3.92,1.1,5.77.02.09-.01.17-.08.23l-9.12,7.9c-.06.03-.13.03-.19,0l-8.37-3-2.25-.84c-.26-.08-.51-.19-.76-.31.29.06.57.14.84.24l2.31.74,8.36,2.8h-.19l9.12-8-.08.24c-.36-1.86-.74-3.78-1.12-5.77-.19-1-.39-2-.59-3-.1-.51-.19-1-.29-1.54l-.15-.78-.08-.39v-.37h0s.32.37.16.19l-11.43-4h.24l-9.19,7.89.07-.19c.65,3.62,1.19,6.57,1.57,8.68.17,1,.31,1.79.41,2.39.04.29.05.59.04.88Z" fill="#263238"/>
    <path d="m397.05,69.46s.43,0,1.24-.16c1.17-.22,2.26-.73,3.19-1.47l9.95-8.71c1.09-.94,1.87-2.19,2.23-3.58.2-.73.28-1.49.24-2.25-.09-.79-.22-1.57-.4-2.35-.63-3.23-1.3-6.67-2-10.29-.12-.91-.37-1.79-.73-2.63-.79-1.71-2.23-3.03-4-3.67l-2.82-1-5.79-2-3-1c-.95-.4-1.97-.61-3-.63-1.04,0-2.06.22-3,.66-.91.46-1.75,1.06-2.48,1.77l-4.63,4-4.47,3.87c-1.36,1.25-2.18,2.98-2.28,4.82-.01.89.09,1.78.3,2.65.17.89.33,1.76.5,2.62.32,1.72.64,3.38.94,5s.59,3.18.9,4.64c.37,1.38,1.15,2.62,2.24,3.56.51.43,1.07.79,1.67,1.07.59.26,1.22.45,1.8.67l3.35,1.18,5.36,1.9c1.11.45,2.24.82,3.4,1.13.8.15,1.24.14,1.24.16-.42.05-.84.05-1.26,0-1.17-.27-2.32-.62-3.44-1.05l-5.34-1.83-3.36-1.14c-.6-.21-1.21-.39-1.84-.66-.64-.29-1.23-.66-1.77-1.11-1.15-.97-1.99-2.27-2.39-3.73-.34-1.52-.61-3.06-.93-4.67s-.64-3.28-1-5c-.17-.85-.34-1.72-.51-2.61-.23-.9-.33-1.83-.32-2.76.1-1.97.98-3.83,2.43-5.17l4.46-3.88,4.63-4c.4-.34.77-.68,1.2-1,.44-.33.91-.61,1.4-.84,1-.46,2.08-.7,3.18-.7,1.09.02,2.16.24,3.17.66l3,1,5.79,2,2.82,1c.95.34,1.83.87,2.57,1.55.73.67,1.32,1.48,1.73,2.38.38.88.63,1.8.76,2.75.67,3.63,1.32,7.07,1.95,10.3.18.79.31,1.6.39,2.41.12,2.33-.86,4.59-2.64,6.1l-10.06,8.59c-.97.74-2.11,1.23-3.31,1.42-.42.06-.84.07-1.26.03h0Z" fill="#263238"/>
    <path d="m311.82,48.64c-1.61,0-3.12-.74-4.12-2l-3.49-4.35c-1.17-1.47-1.48-3.45-.8-5.21l2-5.2c.68-1.75,2.25-3.01,4.11-3.29l5.51-.85c1.86-.28,3.73.45,4.91,1.91l3.49,4.36c1.17,1.47,1.48,3.45.8,5.2l-2,5.21c-.67,1.75-2.23,3.02-4.08,3.32l-5.52.84c-.27.04-.54.06-.81.06h0Zm4-16.93h-.19l-5.48.83c-.45.07-.83.37-1,.79l-2,5.21c-.16.42-.09.9.19,1.25l3.49,4.35c.28.35.73.53,1.18.46l5.52-.85c.45-.06.83-.37,1-.79l2-5.2c.17-.42.09-.9-.19-1.25l-3.49-4.35c-.25-.29-.61-.45-.99-.45h-.04,0Z" fill="#e0e0e0"/>
    <path d="m311.82,48.64c-1.61,0-3.12-.74-4.12-2l-3.49-4.35c-1.17-1.47-1.48-3.45-.8-5.21l2-5.2c.68-1.75,2.25-3.01,4.11-3.29l5.51-.85c1.86-.28,3.73.45,4.91,1.91l3.49,4.36c1.17,1.47,1.48,3.45.8,5.2l-2,5.21c-.67,1.75-2.23,3.02-4.08,3.32l-5.52.84c-.27.04-.54.06-.81.06h0Zm4-16.93h-.19l-5.48.83c-.45.07-.83.37-1,.79l-2,5.21c-.16.42-.09.9.19,1.25l3.49,4.35c.28.35.73.53,1.18.46l5.52-.85c.45-.06.83-.37,1-.79l2-5.2c.17-.42.09-.9-.19-1.25l-3.49-4.35c-.25-.29-.61-.45-.99-.45h-.04,0Z" fill="none"/>
    <path d="m315.86,31.71c.14-.04.29-.04.43,0,.17.05.33.13.47.25.17.17.33.34.48.53l2.84,3.41.46.57c.17.24.27.52.28.81,0,.29-.07.57-.2.83-.09.25-.19.5-.28.76-.4,1-.82,2.13-1.26,3.29-.11.29-.22.58-.34.88-.13.36-.4.66-.74.83-.32.12-.66.2-1,.23l-1,.16c-1.35.2-2.67.43-4.17.62-.44,0-.85-.18-1.14-.51l-.66-.83-1.29-1.6-1.23-1.56-.31-.38c-.12-.14-.21-.3-.28-.47-.14-.35-.14-.75,0-1.1l1.3-3.27.59-1.48c.09-.25.2-.49.34-.72.16-.23.38-.4.64-.5,1.92-.35,3.38-.49,4.43-.63.54-.11,1.08-.15,1.63-.14-.13.05-.27.08-.41.1l-1.18.24c-1,.2-2.58.42-4.33.77-.19.08-.35.21-.47.38-.11.21-.21.43-.28.65l-.56,1.49-1.26,3.29c-.09.24-.09.51,0,.75.14.26.31.5.51.71l1.28,1.57,1.29,1.6.65.81c.19.21.46.33.75.33l4.09-.61,1-.15c.3-.02.6-.08.89-.18.24-.11.42-.31.51-.56.11-.3.23-.59.34-.88.46-1.14.89-2.24,1.3-3.27.11-.25.21-.5.3-.75.11-.21.17-.44.19-.67,0-.21-.08-.42-.19-.6l-.44-.56-2.71-3.51c-.24-.5-.71-.85-1.26-.93h0Z" fill="#263238"/>
    <path d="m311.82,48.64c.22-.05.44-.08.66-.1l1.91-.33,3-.51c.62-.07,1.23-.22,1.82-.44.64-.26,1.22-.66,1.7-1.16.55-.55.97-1.21,1.24-1.94.29-.76.6-1.56.91-2.39.55-1.67,1.67-3.38,1.26-5.29-.18-.97-.62-1.87-1.28-2.6l-2-2.48-1-1.28c-.32-.43-.7-.81-1.12-1.14-.87-.65-1.92-1-3-1-.56.02-1.11.08-1.66.19l-1.67.25-3.25.51c-1,.22-1.9.73-2.6,1.48-.34.36-.62.76-.84,1.2-.21.43-.38.93-.56,1.38l-1.07,2.71c-.37.82-.67,1.67-.88,2.54-.24,1.6.27,3.21,1.37,4.39l2.51,3.2c.38.46.69.92,1.05,1.27.33.32.69.6,1.09.82.77.41,1.61.65,2.47.72h-.68c-.66-.06-1.3-.25-1.88-.55-.42-.22-.82-.5-1.17-.82-.39-.4-.76-.83-1.11-1.27l-2.57-3.15c-1.19-1.25-1.74-2.97-1.5-4.68.2-.91.49-1.8.87-2.65l1.05-2.71c.19-.47.34-.93.57-1.42.24-.48.55-.93.91-1.33.75-.8,1.71-1.37,2.78-1.63,1.1-.19,2.17-.34,3.28-.52l1.67-.25c.57-.11,1.16-.18,1.74-.2,1.19-.01,2.35.37,3.31,1.08.46.35.87.76,1.21,1.23l1,1.28c.68.84,1.34,1.68,2,2.49.71.8,1.19,1.78,1.37,2.83.18,1.01.07,2.05-.32,3-.34.87-.68,1.72-1,2.55s-.64,1.61-.94,2.38c-.28.75-.72,1.43-1.29,2-1.01.98-2.35,1.55-3.75,1.63l-3,.42c-.83.11-1.48.2-1.92.23-.23.05-.46.07-.69.06h0Z" fill="#263238"/>
    <path d="m409.24,35.59c-.7,1.21-1.57,2.32-2.58,3.29-.89,1.09-1.95,2.03-3.15,2.77.84-1.11,1.77-2.15,2.77-3.11.87-1.09,1.87-2.08,2.96-2.95Z" fill="#263238"/>
    <path d="m390.49,29.84c.65,1.18,1.1,2.45,1.33,3.78.41,1.29.58,2.65.53,4-.45-1.25-.78-2.55-1-3.86-.41-1.28-.69-2.59-.86-3.92Z" fill="#263238"/>
    <path d="m383.03,45.31c-1.31-.26-2.59-.63-3.84-1.1-1.3-.32-2.57-.74-3.8-1.26,2.69.22,5.3,1.02,7.64,2.36h0Z" fill="#263238"/>
    <path d="m380.9,62.66c.52-1.05,1.2-2.01,2-2.86.69-.95,1.51-1.8,2.44-2.52-.52,1.05-1.19,2.01-2,2.86-.69.95-1.51,1.8-2.44,2.52Z" fill="#263238"/>
    <path d="m397.74,68.13c-.4-1.03-.64-2.12-.7-3.22-.24-1.08-.3-2.2-.19-3.3.4,1.03.64,2.12.7,3.23.23,1.08.3,2.19.19,3.29Z" fill="#263238"/>
    <path d="m411.97,55.32c-1.02-.12-2.02-.41-2.95-.86-.99-.28-1.93-.74-2.77-1.34,2.02.41,3.95,1.15,5.72,2.2Z" fill="#263238"/>
  </g>
  <g id="freepik--Character--inject-7">
    <path d="m610.49,132c6.77-8.16,13.54-16.4,18.82-25.6s9-19.48,9.27-30.08c0-1.61-.65-12.76-2.2-13.21-1.1-.32-1.86,9.53-2.76,10.24-8.64,6.76-14.25,16.79-17.48,27.27-3.04,10.22-4.94,20.74-5.65,31.38" fill="#263238"/>
    <path d="m522.3,194.02c2.7-7,16-42,15.93-42s-22.91-11.92-15-36.2c3.8-11.73,13.59-35.24,22.69-56.42,9.79-22.75,35.42-34.18,58.89-26.25l2.33.79c24.66,10,30,36.47,19.33,60.84l-49,113.5-42.94-13.27-12.23-.99h0Z" fill="#ffbf9d"/>
    <path d="m538.24,152.04s14.93,6,34.61,1.32c0,0-13.62,15.39-37,5.07l2.39-6.39h0Z" fill="#ff9a6c"/>
    <path d="m545.88,82.77c-.65,1.87.3,3.91,2.15,4.61,1.77.76,3.82-.07,4.58-1.84.01-.02.02-.05.03-.07.65-1.87-.3-3.91-2.15-4.61-1.77-.76-3.81.05-4.57,1.82-.01.03-.03.06-.04.09h0Z" fill="#263238"/>
    <path d="m547.66,71.2c.28.6,3.55-.46,7.26.81s5.81,4,6.36,3.72c.27-.13.11-1.09-.79-2.36-1.23-1.66-2.94-2.89-4.9-3.53-1.94-.67-4.04-.7-6-.08-1.44.49-2.07,1.17-1.93,1.44Z" fill="#263238"/>
    <path d="m578.47,95.88c-.65,1.86.3,3.91,2.15,4.6,1.77.76,3.81-.05,4.57-1.82.01-.03.03-.06.04-.09.65-1.87-.3-3.91-2.15-4.61-1.77-.76-3.82.07-4.58,1.84-.01.03-.02.05-.03.08h0Z" fill="#263238"/>
    <path d="m583.55,84.99c.27.6,3.55-.45,7.26.81s5.8,4,6.36,3.73c.26-.14.11-1.1-.79-2.36-1.23-1.66-2.95-2.9-4.91-3.54-1.94-.67-4.04-.7-6-.08-1.4.49-2.06,1.17-1.92,1.44h0Z" fill="#263238"/>
    <path d="m560.58,109.04c.09-.2-2.09-1.38-5.67-3.12-.91-.42-1.75-.91-1.69-1.62s.75-1.65,1.58-2.59l5.25-6.28c7.37-9,13.05-16.47,12.68-16.77s-6.63,6.74-14,15.71c-1.79,2.22-3.51,4.33-5.14,6.36-.72,1-1.75,2-1.75,3.56.05.77.45,1.47,1.09,1.91.48.32,1,.58,1.54.77,3.68,1.47,6.02,2.28,6.11,2.07Z" fill="#263238"/>
    <path d="m570.65,115.3c-.6-.23-2,3.8-6.38,5.49s-8.57-.19-8.79.36c-.14.23.7,1.1,2.49,1.77,2.35.83,4.92.8,7.26-.07,2.24-.85,4.06-2.53,5.09-4.69.72-1.62.61-2.79.33-2.86h0Z" fill="#263238"/>
    <path d="m588.84,69.99c0,1.13,3.9,1.91,8.08,3.9s7.31,4.38,8.19,3.67c.4-.35.11-1.51-1-3-3.02-3.73-7.59-5.86-12.39-5.77-1.8.14-2.87.67-2.88,1.2Z" fill="#263238"/>
    <path d="m553.37,59.37c.37,1.07,3.22,1,6.31,2s5.5,2.49,6.39,1.81c.41-.34.29-1.32-.58-2.51-2.47-3.01-6.51-4.24-10.24-3.11-1.38.55-2.03,1.3-1.88,1.81Z" fill="#263238"/>
    <path d="m618.41,112.04c.48,0,18.27.69,12.17,17-6.1,16.31-21.27,6.85-21.12,6.37s8.95-23.37,8.95-23.37Z" fill="#ffbf9d"/>
    <path d="m616.77,131.12c.09,0,.21.31.61.71.57.55,1.32.85,2.11.84,2,0,4.44-2.19,5.62-5.11.57-1.39.82-2.88.73-4.38.09-1.16-.41-2.28-1.33-3-.61-.45-1.46-.39-2,.15-.39.38-.41.74-.5.74s-.25-.41.13-1c.24-.37.59-.64,1-.79.58-.17,1.2-.11,1.73.17,1.25.79,2.01,2.17,2,3.65.16,1.68-.09,3.37-.72,4.93-1.34,3.25-4.17,5.71-6.79,5.51-.99-.08-1.89-.6-2.45-1.41-.26-.59-.21-1-.14-1.01h0Z" fill="#ff9a6c"/>
    <path d="m566.79,36.47c-2.08-2.46,9.11-8,16.72-8.42,11.5-.68,27.51,2.32,35.55,8.35,9.7,7.25,16.65,16.13,18.31,28.12s-.71,24.31-5.36,35.49c-1.42,3.41-3.16,6.86-6.12,9.07-3.65,2.73-8.89,3.32-10.61,8.37-.57,1.86-1.87,3.42-3.6,4.32-4.2,2-6.7-2.35-7.23-6-1.13-7.76,1.39-15.53,3.88-23,1.77-5.28,3.6-10.67,7-15.1,1.84-2.41,4.1-4.48,5.81-7s2.82-5.67,2-8.58c-.21-.64-.48-1.26-.81-1.85-3.08-5.81-9.05-9.51-15.62-9.68-10.43-.27-28-1.44-30.85-6.12-4.17-6.74-4.46-10.2-4.46-10.2l-4.61,2.23h0Z" fill="#263238"/>
    <path d="m621.15,26.42c1.05.53,25.62,15.71,25.46,37.85-.16,22.14-4.21,27.56-4.21,27.56.82,1.01,1.5,2.14,2,3.35.66,1.68-3.11,7.38-6.34,5.48-22.06-20.47-52.46-32.23-87.14-43l-26.16-9.37c-7.66-1.67-9.57-4.52-5.83-5.29,2.87-.6,26.63-1.8,26.63-1.8l5.13-1.58,16-11.31s-.62-2.56,2.63-3.39,31.17-9,51.83,1.5Z" fill="#ff7200"/>
    <path d="m550.67,39.66s.35.14,1,.36l3,.94c2.58.77,6.25,2.07,10.77,3.73,11.7,4.5,22.97,10.02,33.71,16.48,10.73,6.49,21.08,13.59,31,21.26,3.84,2.91,6.89,5.33,9,7l2.45,1.91c.56.43.87.64.87.64,0,0-.27-.26-.82-.72l-2.39-2c-2.09-1.7-5.12-4.16-8.93-7.1-9.89-7.76-20.24-14.91-31-21.4-10.77-6.49-22.11-11.98-33.88-16.39-4.84-1.82-9.78-3.39-14.78-4.71Z" fill="#263238"/>
    <g opacity=".3">
      <path d="m641.49,46.54s-27.12-14.52-42.1-12.76l1.76-.24-14,1.16c-2.37.2-5.08.27-6.7-1.46,0,0,8.49-3.6,21.9-3.53s33.09,4.83,39.14,16.83h0Z"/>
    </g>
    <path d="m641.85,46.78c-.6-.91-1.27-1.76-2-2.57-1.95-2.23-4.16-4.22-6.58-5.94-3.58-2.56-7.52-4.59-11.69-6-5.08-1.87-10.51-2.63-15.91-2.21-2.77.28-5.52.73-8.24,1.36-2.62.59-5.17,1-7.58,1.7-2.21.73-4.48,1.28-6.78,1.62-2.01.2-4.05-.07-5.94-.79-7.09-2.33-10.92-5.28-10.44-5.61.03.29.16.55.37.75.58.56,1.22,1.05,1.92,1.45,2.55,1.52,5.25,2.77,8.06,3.71,1.93.75,4.01,1.04,6.08.86,2.33-.33,4.62-.85,6.86-1.57,2.36-.65,4.94-1.09,7.56-1.68,2.7-.6,5.43-1.04,8.18-1.32,5.34-.4,10.7.33,15.73,2.15,4.14,1.38,8.06,3.35,11.64,5.85,2.42,1.68,4.64,3.62,6.63,5.79.71.77,1.24,1.39,1.58,1.82s.55.63.55.63h0Z" fill="#263238"/>
    <g opacity=".3">
      <path d="m646.29,73.42c-5.14-1.81-8.58-4.48-13.31-7.36-5-3.06-10.11-5.86-15-9.16-3.71-2.5-8.2-5.14-9.85-9-1.11,1.9-1.15,4.25-.09,6.19,1.05,2,5.5,5.57,7.4,6.86,10.81,7.35,18.32,12.37,30.4,17.48.26-1.66.4-3.33.44-5"/>
    </g>
    <path d="m646.55,61.82c2.78,2.53,4.45,4.17,3.59,7-.71,2.34-2.15,5-4.57,4.63-.72-.17-1.39-.46-2-.88l-33.12-19.39c-1.2-.53-2.17-1.46-2.74-2.64-.66-1.88,1-3.94,2.91-4.46s3.95,0,5.85.66c10.78,3.49,20.61,8.85,30.08,15.07" fill="#ff7200"/>
    <path d="m608.07,51.26c-.3-.58-.45-1.23-.42-1.88.15-1.8,1.32-3.35,3-4,2.12-.72,4.93-.24,7.69.88s5.87,2.39,9,3.84c5.44,2.41,10.65,5.3,15.57,8.64,1.88,1.29,3.33,2.43,4.34,3.22l1.14.93c.13.11.27.22.42.3,0,0-.11-.14-.36-.37l-1.09-1c-1-.83-2.39-2-4.26-3.35-4.89-3.43-10.11-6.38-15.57-8.79-3.18-1.46-6.25-2.72-9.07-3.83s-5.71-1.59-8-.78c-1.77.71-2.97,2.38-3.06,4.29-.01.5.09,1,.31,1.45.09.17.21.32.36.45Z" fill="#263238"/>
    <polygon points="561.67 31.9 584.18 39.11 580.13 44.76 556 35.9 561.67 31.9" fill="#fff"/>
    <path d="m588.67,63.35c.05-.12-9.42-5-21.17-10.82s-21.35-10.53-21.35-10.41,9.42,5,21.17,10.82,21.29,10.52,21.35,10.41Z" fill="#263238"/>
    <path d="m594.34,184.67l.3-14.78-50.58,18.79s-9.35-30.37-9.35-31.8l-11.21,7-18.63-8-18.63-9.2-37.68,66-39.53,116.54,93.12,62.12,69.06-74,42-64,23.08-40.52-41.95-28.15h0Z" fill="#ff7200"/>
    <path d="m539.56,188.46c-.06-.49-.08-.99-.07-1.48,0-1,0-2.42-.06-4.14l.23.14c-5.56,2.71-10.69,6.23-15.23,10.43l-.4.38v-.55c0-.66-.08-1.36-.12-2.07-.41-7.25-.75-13.81-1-18.57-.1-2.32-.18-4.22-.24-5.63v-1.53c-.15-.03-.24-.17-.22-.32.03-.15.17-.24.32-.22.15.03.24.17.22.32-.02.11-.11.19-.22.22,0,.4.08.91.14,1.52.1,1.41.23,3.31.39,5.62.32,4.75.71,11.31,1.12,18.56,0,.71.08,1.41.11,2.07l-.43-.18c4.58-4.23,9.79-7.72,15.44-10.34l.24-.1v.25c0,1.72-.07,3.11-.09,4.14,0,.5-.05.99-.13,1.48Z" fill="#263238"/>
    <path d="m589.68,185.38c-.18.13-.38.23-.58.31l-1.69.81-6.26,2.87-20.76,9.28-9.86,4.36-.42.18.08-.45c.81-4.69,1.2-9.44,1.14-14.2l.23.14-4.67,2.27-1.25.58c-.28.13-.43.19-.44.17.12-.1.26-.18.4-.25l1.21-.66,4.61-2.4.22-.12v.27c.14,4.8-.19,9.6-1,14.33l-.34-.27,9.85-4.38,20.82-9.15,6.34-2.72,1.73-.71c.2-.11.42-.2.64-.26Z" fill="#263238"/>
    <rect x="105.78" y="111.42" width="410.04" height="292.88" rx="14.57" ry="14.57" fill="#455a64"/>
    <path d="m89.75,385.38h444.25v7.83c0,9.83-7.97,17.8-17.8,17.8H107.55c-9.83,0-17.8-7.97-17.8-17.8v-7.83h0Z" fill="#455a64"/>
    <rect x="116.79" y="123.06" width="386.88" height="247.33" fill="#263238"/>
    <polygon points="270.38 382.64 275.89 392.11 353.46 392.11 358.58 382.64 270.38 382.64" fill="#263238"/>
    <rect x="124.75" y="131.43" width="371.74" height="238.16" rx="3.27" ry="3.27" fill="#ebebeb"/>
    <polygon points="496.1 369.94 124.36 369.94 124.75 149.23 496.1 149.23 496.1 369.94" fill="#fafafa"/>
    <path d="m155.99,140.63c-.08,1.69-1.52,2.99-3.21,2.91s-2.99-1.52-2.91-3.21c.08-1.63,1.42-2.91,3.05-2.91,1.73.04,3.1,1.48,3.06,3.21h.01Z" fill="#263238"/>
    <path d="m137.43,140.63c-.08,1.69-1.52,2.99-3.21,2.91s-2.99-1.52-2.91-3.21c.08-1.63,1.42-2.91,3.05-2.91,1.73.04,3.1,1.48,3.06,3.21h.01Z" fill="#263238"/>
    <path d="m146.97,140.63c-.08,1.69-1.52,2.99-3.21,2.91s-2.99-1.52-2.91-3.21c.08-1.63,1.42-2.91,3.05-2.91,1.73.04,3.1,1.48,3.06,3.21h.01Z" fill="#263238"/>
    <path d="m512.3,382.64c0,.16-91,.28-203.25.28s-203.27-.12-203.27-.28,91-.29,203.27-.29,203.25.13,203.25.29Z" fill="#263238"/>
    <g>
      <path d="m243.99,237.4c20.45-1.27,32.88-1.27,41.24,11.65,8.39,12.91-21.23,58.11,8.96,65.73,30.19,7.62,44.94-15.73,57.44-38.74,12.54-22.97,18.48-50.55,18.51-64.34" fill="none" stroke="#e0e0e0" stroke-linecap="round" stroke-linejoin="round" stroke-width="36"/>
      <path d="m248.47,320.14c8.96-11.49,19.43-13.43,32.67-15.06" fill="none" stroke="#e0e0e0" stroke-linecap="round" stroke-linejoin="round" stroke-width="36"/>
    </g>
    <path d="m399.9,203.91c.44-2.39,1.2-4.72,2.25-6.91l-4-5.4,7.24-8.48,6,3.14c2-1.38,4.18-2.49,6.47-3.29l1-6.67,11.11-.87,2,6.43c2.39.44,4.72,1.2,6.91,2.26l5.4-4,8.48,7.25-3.14,6c1.38,2,2.49,4.18,3.3,6.48l6.66,1,.87,11.12-6.43,2c-.44,2.39-1.2,4.72-2.26,6.91l4,5.41-7.24,8.47-6-3.14c-2,1.38-4.18,2.49-6.48,3.3l-1,6.67-11.11.87-2-6.44c-2.39-.44-4.72-1.2-6.91-2.25l-5.41,4-8.46-7.33,3.14-6c-1.38-2-2.49-4.18-3.3-6.48l-6.66-1-.87-11.12,6.43-2v.07h.01Zm15.08,3.37c-.63,6.6,4.21,12.45,10.81,13.08s12.45-4.21,13.08-10.81c.63-6.6-4.21-12.45-10.81-13.08-1.08-.1-2.17-.06-3.24.13-5.31.95-9.33,5.31-9.84,10.68h0Z" fill="#e0e0e0"/>
    <path d="m156.37,315.54c.08-2.87.55-5.72,1.39-8.47l-5.67-5.53,6.94-11.18,7.52,2.6c2.1-1.97,4.45-3.65,7-5l-.06-7.95,12.82-3,3.47,7.15c2.87.08,5.72.55,8.47,1.39l5.59-5.67,11.18,6.94-2.6,7.52c1.97,2.1,3.65,4.45,5,7l7.95-.06,3,12.81-7.16,3.45c-.09,2.87-.56,5.72-1.4,8.47l5.67,5.58-6.94,11.19-7.52-2.6c-2.1,1.97-4.45,3.65-7,5l.06,7.95-12.81,3-3.48-7.15c-2.87-.1-5.7-.58-8.44-1.44l-5.58,5.67-11.19-6.94,2.6-7.52c-1.97-2.1-3.65-4.45-5-7l-8,.06-3-12.81,7.15-3.48.04.02h0Zm18.53,3.6c1.79,7.59,9.4,12.29,16.99,10.49,7.59-1.79,12.29-9.4,10.49-16.99-1.79-7.57-9.37-12.27-16.95-10.5-7.59,1.77-12.32,9.36-10.55,16.96,0,.02,0,.05.02.07v-.03h0Z" fill="#e0e0e0"/>
    <path d="m179.38,208.72c.33-1.81.9-3.56,1.7-5.21l-3-4.08,5.46-6.39,4.5,2.37c1.51-1.04,3.15-1.88,4.88-2.49l.74-5,8.38-.66,1.5,4.85c1.8.34,3.56.91,5.21,1.7l4.08-3,6.38,5.46-2.36,4.5c1.04,1.51,1.88,3.15,2.48,4.88l5,.73.66,8.38-4.84,1.46c-.33,1.8-.9,3.56-1.69,5.21l3,4.07-5.46,6.39-4.5-2.37c-1.51,1.05-3.15,1.88-4.88,2.49l-.73,5-8.38.65-1.51-4.85c-1.81-.33-3.56-.9-5.21-1.7l-4.07,3-6.39-5.46,2.36-4.5c-1.04-1.51-1.88-3.15-2.48-4.88l-5-.74-.65-8.38,4.85-1.5-.03.07h0Zm11.35,4.07c.4,4.95,4.73,8.65,9.69,8.26,4.95-.4,8.65-4.73,8.26-9.69-.39-4.94-4.71-8.63-9.65-8.26-4.96.38-8.67,4.7-8.29,9.66v.03h-.01Z" fill="#ebebeb"/>
    <path d="m400.32,298.97c.29-1.55.78-3.06,1.46-4.48l-2.61-3.5,4.69-5.49,3.87,2c1.29-.9,2.7-1.62,4.19-2.14l.63-4.32,7.2-.56,1.29,4.17c1.55.28,3.06.78,4.48,1.46l3.5-2.61,5.49,4.69-2,3.86c.9,1.3,1.62,2.71,2.14,4.2l4.32.63.56,7.2-4.17,1.29c-.28,1.55-.78,3.06-1.46,4.48l2.61,3.5-4.69,5.48-3.86-2c-1.3.89-2.71,1.61-4.2,2.14l-.63,4.31-7.2.56-1.29-4.16c-1.55-.29-3.06-.78-4.48-1.46l-3.5,2.61-5.51-4.69,2-3.86c-.9-1.29-1.62-2.7-2.14-4.19l-4.31-.63-.57-7.2,4.17-1.29h.02Zm9.75,3.49c.33,4.27,4.06,7.46,8.32,7.13,4.27-.33,7.46-4.06,7.13-8.32-.33-4.27-4.06-7.46-8.32-7.13h-.05c-4.25.35-7.41,4.07-7.08,8.32h0Z" fill="#ebebeb"/>
    <path d="m311.88,309.82h-49.73c-9.22-.02-16.68-7.52-16.66-16.74,0-2.9.77-5.74,2.21-8.26l24.88-43.09,24.87-43.09c4.62-7.98,14.83-10.71,22.82-6.09,2.53,1.46,4.63,3.56,6.09,6.09l24.88,43.09,24.88,43.09c4.58,8,1.81,18.21-6.19,22.79-2.52,1.44-5.37,2.2-8.27,2.21h-49.78Z" fill="#ff7200"/>
    <path d="m365.44,289.76s.13.25.38.77c.87,2.12.62,4.52-.66,6.42-.49.74-1.13,1.37-1.87,1.86-.86.55-1.84.87-2.86.94-8.48.09-20.72.07-35.86.11l-53.18.06h-7.6c-2.78-.03-5.24-1.81-6.13-4.44-.46-1.28-.55-2.67-.25-4,.08-.33.19-.66.3-1s.29-.63.44-.93l1-1.75c1.28-2.35,2.58-4.71,3.88-7.1l16.12-29.59,16.22-29.57c2.61-4.78,5.17-9.47,7.7-14.07.64-1.14,1.23-2.29,1.91-3.42.68-1.15,1.64-2.11,2.8-2.78,2.3-1.32,5.11-1.45,7.52-.34,1.18.53,2.21,1.35,3,2.38.68,1.04,1.3,2.12,1.85,3.23,1.17,2.14,2.33,4.25,3.46,6.33,2.28,4.16,4.48,8.2,6.61,12.11,4.27,7.81,8.24,15.09,11.86,21.73,7.24,13.29,13.09,24.05,17.14,31.5l4.64,8.57c.52,1,.92,1.72,1.19,2.24s.4.77.4.77c0,0-.16-.25-.44-.75l-1.24-2.21-4.73-8.53c-4.08-7.43-10-18.15-17.28-31.41l-11.91-21.71-6.64-12.09c-1.14-2.08-2.29-4.19-3.47-6.33-.55-1.08-1.16-2.13-1.83-3.14-.74-.96-1.7-1.73-2.8-2.23-2.27-1.04-4.91-.92-7.08.32-1.08.63-1.99,1.54-2.62,2.62-.66,1.09-1.26,2.26-1.89,3.4l-7.7,14.07c-5.22,9.56-10.64,19.45-16.18,29.59l-16.19,29.57c-1.31,2.39-2.6,4.76-3.89,7.1-.7,1.1-1.26,2.29-1.65,3.54-.29,1.25-.21,2.55.23,3.75.81,2.44,3.09,4.1,5.66,4.11h7.6l53.18.05,35.85.05c.98-.06,1.93-.36,2.77-.88.73-.47,1.36-1.08,1.85-1.8.77-1.13,1.18-2.47,1.18-3.84-.01-1.14-.28-2.26-.79-3.28h0Z" fill="#263238"/>
    <path d="m293.46,211.94c.21-.86.58-1.68,1.09-2.4.73-1.23,1.42-2.17,1.55-2.1-.21.85-.58,1.65-1.1,2.36-.37.81-.89,1.53-1.54,2.14h0Z" fill="#fff"/>
    <g opacity=".3">
      <polygon points="336.84 216.8 259.35 264.54 249.29 281.98 342.31 226.27 336.84 216.8" fill="#fff"/>
    </g>
    <g opacity=".3">
      <path d="m349.04,237.96l-102.71,60.58c.41,1.59,1.17,3.06,2.23,4.32l102.29-61.76-1.81-3.14h0Z" fill="#fff"/>
    </g>
    <path d="m602.87,350.94c-7.97-8.79-20.35-12.1-31.65-8.48l-9.57-10.5-1.33-1.49-75.73-83.09c6.62-15.34-.45-33.14-15.79-39.76-5.1-2.2-10.71-2.96-16.21-2.18l-3.7,1.47,12.87,8.63-.69,14.05-10.41,9.45-14.05-.69-9.18-10.12-3.79,1.49c-1.09,8.47,4.59,19.15,10.78,26,7.96,8.78,20.31,12.1,31.6,8.49l77,84.48,2.36,2.63,7.3,8c-4.66,10.87-2.56,23.46,5.39,32.22,6.16,6.8,14.34,11.34,22.85,11.11l3.8-1.48-9.19-10.13.69-14,10.41-9.45,14,.68,5.38,11.61,3.8-1.49c2.38-9.73-.22-20.02-6.94-27.45h0Z" fill="#e0e0e0"/>
    <g opacity=".3">
      <path d="m602.87,350.94c-7.97-8.79-20.35-12.1-31.65-8.48l-9.57-10.5-1.33-1.49-75.73-83.09c6.62-15.34-.45-33.14-15.79-39.76-5.1-2.2-10.71-2.96-16.21-2.18l-3.7,1.47,12.87,8.63-.69,14.05-10.41,9.45-14.05-.69-9.18-10.12-3.79,1.49c-1.09,8.47,4.59,19.15,10.78,26,7.96,8.78,20.31,12.1,31.6,8.49l77,84.48,2.36,2.63,7.3,8c-4.66,10.87-2.56,23.46,5.39,32.22,6.16,6.8,14.34,11.34,22.85,11.11l3.8-1.48-9.19-10.13.69-14,10.41-9.45,14,.68,5.38,11.61,3.8-1.49c2.38-9.73-.22-20.02-6.94-27.45h0Z"/>
    </g>
    <path d="m599.07,352.42c-7.97-8.79-20.35-12.1-31.64-8.47l-9.58-10.51-1.33-1.49-75.73-83.09c6.62-15.33-.44-33.13-15.77-39.75-5.11-2.2-10.72-2.96-16.23-2.18l9.18,10.12-.68,14-10.43,9.49-14-.68-9.18-10.12c-3.95,16.22,6,32.57,22.23,36.52,5.4,1.31,11.06,1.11,16.35-.58l77,84.48,2.37,2.63,7.3,8c-6.6,15.34.49,33.13,15.83,39.73,5.09,2.19,10.68,2.94,16.17,2.16l-9.19-10.14.68-14,10.42-9.45,14,.69,9.18,10.12c2.39-9.75-.21-20.04-6.95-27.48h0Z" fill="#e0e0e0"/>
    <path d="m599.07,352.42s.44.48,1.27,1.45c1.18,1.48,2.23,3.06,3.13,4.72,3.48,6.53,4.44,14.12,2.7,21.31v.2l-.14-.15-9.19-10.11.08.05-14-.67h.1l-10.4,9.46v-.11c-.2,4.36-.43,9.11-.67,14.05v-.13l9.11,10.05.24.26-.35.05c-10.31,1.5-20.66-2.39-27.43-10.31-3.62-4.21-6.01-9.34-6.9-14.82-.94-5.75-.23-11.64,2.06-17v.24l-86.69-95.09.27.07c-5.48,1.73-11.33,1.9-16.9.48-16.14-4.17-25.94-20.53-22-36.73l.12-.48.33.36,9.18,10.12-.18-.08,14.05.68-.19.07,10.48-9.46-.09.18c.23-4.74.46-9.41.69-14.05l.06.18-9.18-10.12-.31-.35.46-.06c11.27-1.59,22.49,3.23,29.1,12.5,3.1,4.34,5,9.42,5.51,14.73.47,5.12-.34,10.27-2.35,15v-.24l86.55,95.16h-.12c8.33-2.66,17.41-1.59,24.9,2.93,1.88,1.15,3.64,2.49,5.24,4,1,1.07,1.54,1.62,1.54,1.62l-1.58-1.58c-1.62-1.5-3.38-2.84-5.26-4-7.47-4.45-16.49-5.48-24.77-2.82h-.07v-.06l-86.71-95-.1-.11.06-.13c1.98-4.67,2.77-9.77,2.3-14.82-.5-5.23-2.38-10.23-5.44-14.5-6.5-9.12-17.55-13.86-28.64-12.29l.15-.41,9.06,10.22.07.07v.11c-.22,4.63-.45,9.29-.68,14v.11l-.08.07-10.41,9.45-.08.07h-.11l-14-.69h-.11l-.07-.08-9.19-10.12.45-.11c-3.91,16.1,5.97,32.32,22.07,36.23,5.33,1.29,10.91,1.1,16.14-.55h.15l.12.12c31.48,34.58,61,66.95,86.63,95.13l.1.11-.06.14c-2.25,5.27-2.96,11.06-2.05,16.72,1.79,10.72,9.19,19.65,19.4,23.39,4.63,1.67,9.59,2.19,14.46,1.5l-.12.31-9.17-10.12-.05-.06v-.14c.24-4.93.47-9.68.69-14v-.12l10.43-9.43h.06l14,.7h0c3.36,3.72,6.45,7.13,9.16,10.14h-.18c1.75-7.15.83-14.69-2.59-21.21-.89-1.66-1.91-3.25-3.07-4.74-.58-.95-.99-1.46-.99-1.46h0Z" fill="#263238"/>
    <path d="m477.34,253.71c-.07.27-.18.52-.33.75-.35.65-.74,1.28-1.17,1.88-2.84,4.03-6.83,7.11-11.46,8.81-.69.26-1.4.47-2.12.64-.26.09-.53.13-.8.13,0-.09,1.09-.39,2.79-1.11,4.46-1.86,8.36-4.85,11.3-8.68,1.13-1.47,1.71-2.46,1.79-2.42h0Z" fill="#263238"/>
    <path d="m561.91,289.8l-28.76-13.4-25.71-3.21,9.44,8s-33.24,11.59-33.82,14.2,2.62,9.63,8.48,8.33c0,0-3.29,4-1.92,8.41s4.4,5.24,10,4.21c0,0-3.8,5.69-.82,8.59s7.62,2.17,7.62,2.17c0,0,.06,6.93,3.72,7.53s13.86-.11,17.67-1.28l19.35-6,12.54-2.81,2.21-34.74h0Z" fill="#ffbf9d"/>
    <path d="m508.97,298.6c.11.38-3.72,1.82-8.54,3.23s-8.84,2.23-8.95,1.85,3.72-1.83,8.54-3.23,8.84-2.23,8.95-1.85Z" fill="#ff9a6c"/>
    <path d="m513.86,312.27c.11.38-2.92,1.63-6.78,2.8s-7.09,1.79-7.21,1.41,2.93-1.63,6.79-2.79,7.09-1.79,7.2-1.42h0Z" fill="#ff9a6c"/>
    <path d="m518.25,323.64c.07.43-2.69,1-5.93,1.82s-5.77,2-6,1.59,2.15-2.06,5.6-3c3.45-.94,6.28-.76,6.33-.41Z" fill="#ff9a6c"/>
    <path d="m521.88,280.04c.11.39-3.66,1.76-8.33,3.37s-8.48,2.84-8.64,2.47,3.46-2.21,8.18-3.83c4.72-1.62,8.69-2.39,8.79-2.01h0Z" fill="#ff9a6c"/>
    <polygon points="556.49 287.28 618.78 309.84 615.14 352.59 546.56 324.94 556.49 287.28" fill="#ffbf9d"/>
    <path d="m636.41,212.47s8.12,8.39,12.85,23.48,27,79.06,26.46,99.41c-.59,21.05-14.76,36.07-45.9,27.75-18.58-5-40.72-13-40.72-13l15.74-51.74,12.31,3.17-19.88-37.32,39.14-51.75Z" fill="#ff7200"/>
    <path d="m622.15,236.92c.12.09-8.5,12.36-19.24,27.41s-19.53,27.21-19.65,27.11,8.5-12.36,19.24-27.41,19.54-27.19,19.65-27.11Z" fill="#263238"/>
    <path d="m645.99,308.54s-.54-.26-1.51-.71c-1.38-.62-2.81-1.12-4.27-1.51-1.85-.51-4.09-1-6.58-1.53l-8.08-1.78c-5.73-1.28-10.92-2.47-14.66-3.36l-4.43-1.08c-.55-.11-1.09-.26-1.61-.46.56.05,1.11.14,1.65.27l4.47.91c3.77.8,9,1.93,14.7,3.21l8.07,1.83c2.48.56,4.72,1.08,6.57,1.64,1.47.43,2.9.99,4.26,1.68.37.19.73.4,1.07.63.13.07.25.16.35.26h0Z" fill="#263238"/>
    <g opacity=".3">
      <path d="m661.91,310.82c-.4-2.49-2-4.63-4.28-5.72-2.25-1.07-4.68-1.72-7.16-1.92-11.19-1.54-22.51-2-33.8-2.39l1,.45c13.95,2.58,27.6,6.56,40.75,11.88.72.4,1.57.5,2.36.28.88-.54,1.33-1.57,1.13-2.58Z"/>
    </g>
    <g opacity=".3">
      <path d="m405.29,112.46c-10.5-1.79-23.06,1.26-33.56-.53-1.56-.26-3.28-.51-4.66.29-1.66.95-2.23,3.07-2.31,5-.08,5.35,2.09,10.5,6,14.16,3.93,3.59,8.84,5.94,14.11,6.74,4.19.71,8.7.57,12.43-1.45,6.56-3.56,9.71-17,7.99-24.21h0Z"/>
    </g>
    <path d="m364.54,131.67s-6.37-7.47-7.29-10.91c-.61-2.28-.31-8.67,0-12.72.14-2.79,1.93-5.23,4.55-6.2.76-.38,1.68-.31,2.37.19.86-1.17,1.84-2.26,2.9-3.26,2.5-2.56,3.69-4.29,9.19-2.7,0,0,4.05-4.27,6.38-3.95,1.56.23,3.11.57,4.63,1,0,0,8.87-.38,10.69,2.44,1.03,1.27,2.43,2.2,4,2.67,2.8.99,5.09,3.07,6.33,5.77,1.03,2.45,1.63,5.07,1.77,7.73l-9,.36s.64,20.71-1.63,22.38-3.13,1.07-3.13,1.07c0,0-1.73,4.86-8.48,1.27,0,0-5.6,1.69-8-.62s-11.18-24.5-11.18-24.5l.25,11s4.63,7.13,2.36,8.8-6.71.18-6.71.18h0Z" fill="#ffbf9d"/>
    <path d="m375.78,103.6c.21.42.38.85.51,1.3l1.22,3.6c1,3,2.37,7.28,3.83,11.95s2.68,9,4.06,11.84c.53,1.14,1.15,2.25,1.84,3.3.49.75.8,1.13.77,1.16s-.11-.07-.27-.25c-.23-.25-.45-.51-.66-.79-.77-1.02-1.44-2.11-2-3.26-1.49-2.89-2.74-7.18-4.22-11.84s-2.77-8.92-3.69-12c-.42-1.47-.78-2.69-1.06-3.65-.15-.44-.26-.9-.33-1.36h0Z" fill="#ff9a6c"/>
    <path d="m386.85,101.04c.2.43.35.88.46,1.34l1.07,3.71c.87,3.13,2,7.47,3.32,12.27s2.39,9.16,3.17,12.32c.37,1.5.67,2.76.91,3.74.13.46.22.93.26,1.4-.19-.43-.34-.88-.46-1.34-.28-1-.63-2.22-1.06-3.71-.88-3.13-2.06-7.47-3.32-12.27s-2.39-9.16-3.18-12.32c-.36-1.51-.67-2.76-.9-3.75-.13-.45-.22-.92-.27-1.39h0Z" fill="#ff9a6c"/>
  </g>
  <g>
    <path d="m291.76,255.25c6.12-.4,9.83-.4,12.33,3.65,2.51,4.04-6.35,18.19,2.68,20.58,9.03,2.39,13.44-4.93,17.18-12.13,3.75-7.19,5.53-15.83,5.54-20.14" fill="none" stroke="#fff" stroke-linecap="round" stroke-linejoin="round" stroke-width="11"/>
    <path d="m293.1,281.15c2.68-3.6,5.81-4.2,9.77-4.71" fill="none" stroke="#fff" stroke-linecap="round" stroke-linejoin="round" stroke-width="11"/>
  </g>
  <g>
    <path d="m550.26,247.93c4.25,1.2,6.78,2.09,7.51,5.44s-8.69,10.85-3.12,14.64,10.32-.12,14.6-4.12c4.28-3.99,7.56-9.43,8.61-12.37" fill="none" stroke="#fff" stroke-linecap="round" stroke-linejoin="round" stroke-width="8"/>
    <path d="m544.95,265.86c2.69-1.8,4.96-1.46,7.78-.86" fill="none" stroke="#fff" stroke-linecap="round" stroke-linejoin="round" stroke-width="8"/>
  </g>
</svg>