<?xml version="1.0" encoding="UTF-8"?>
<svg id="Layer_1" data-name="Layer 1" xmlns="http://www.w3.org/2000/svg" viewBox="0 0 427.21 419.34">
  <g id="freepik--background-complete--inject-27">
    <path d="m427.21,282.15h-163.89v-94.84h163.89v94.84h0Zm-162.89-1h161.89v-92.84h-161.89v92.84Z" fill="#e0e0e0"/>
    <rect x="285.27" y="237.88" width="108.13" height="3.17" fill="#f0f0f0"/>
    <rect x="285.27" y="249.7" width="115.58" height="3.46" fill="#f0f0f0"/>
    <rect x="285.27" y="261.66" width="115.58" height="3.46" fill="#f0f0f0"/>
    <rect x="285.27" y="220.71" width="37.79" height="8.23" fill="#f0f0f0"/>
    <rect x="263.85" y="187.81" width="162.86" height="15.1" fill="#e0e0e0"/>
    <path d="m414.18,200.65c-.21-.2,1.89-2.73,4.68-5.65s5.24-5.13,5.44-4.94-1.89,2.73-4.68,5.66-5.24,5.13-5.44,4.93Z" fill="#fff"/>
    <path d="m424.32,200.65c-.2.2-2.64-2-5.44-4.93s-4.89-5.46-4.68-5.66,2.64,2,5.44,4.94,4.87,5.45,4.68,5.65Z" fill="#fff"/>
    <rect x="62.68" width="162.86" height="93.85" fill="#e6e6e6"/>
    <rect x="84.11" y="50.08" width="108.13" height="3.17" fill="#f0f0f0"/>
    <rect x="84.11" y="61.9" width="115.58" height="3.46" fill="#f0f0f0"/>
    <rect x="84.11" y="73.86" width="115.58" height="3.46" fill="#f0f0f0"/>
    <rect x="84.11" y="32.91" width="37.79" height="8.23" fill="#f0f0f0"/>
    <rect x="62.68" width="162.86" height="15.1" fill="#e0e0e0"/>
    <path d="m212.46,12.77c-.21-.19,1.89-2.73,4.68-5.65s5.24-5.13,5.44-4.93-1.89,2.73-4.68,5.65c-2.79,2.92-5.24,5.11-5.44,4.93Z" fill="#fff"/>
    <path d="m222.58,12.77c-.2.2-2.64-2-5.44-4.93s-4.89-5.45-4.68-5.65,2.64,2,5.44,4.93,4.89,5.46,4.68,5.65Z" fill="#fff"/>
    <path d="m163.86,174.34H0v-94.85h163.86v94.85Zm-162.86-1h161.86v-92.85H1v92.85Z" fill="#e0e0e0"/>
    <rect x="21.93" y="130.07" width="108.13" height="3.17" fill="#f0f0f0"/>
    <rect x="21.93" y="141.89" width="115.58" height="3.46" fill="#f0f0f0"/>
    <rect x="21.93" y="153.85" width="115.58" height="3.46" fill="#f0f0f0"/>
    <rect x="21.93" y="112.9" width="37.79" height="8.23" fill="#f0f0f0"/>
    <rect x=".5" y="79.99" width="162.86" height="15.1" fill="#e0e0e0"/>
    <rect x="160.67" y="196.07" width="192.3" height="172.16" fill="#e6e6e6"/>
    <rect x="19.7" y="141.84" width="150.64" height="156.51" fill="#f0f0f0"/>
    <rect x="19.7" y="141.84" width="150.64" height="17.05" fill="#e0e0e0"/>
    <path d="m32.14,150.19c-.08,1.74-1.55,3.09-3.3,3.02-1.74-.08-3.09-1.55-3.02-3.3.07-1.69,1.46-3.02,3.15-3.02,1.78.04,3.19,1.52,3.16,3.3h0Z" fill="#fff"/>
    <path d="m44.97,150.19c-.07,1.75-1.55,3.11-3.3,3.04s-3.11-1.55-3.04-3.3c.07-1.7,1.47-3.04,3.17-3.04,1.78.04,3.19,1.52,3.16,3.3h0Z" fill="#fff"/>
    <path d="m57.8,150.19c-.07,1.75-1.55,3.11-3.3,3.04s-3.11-1.55-3.04-3.3c.07-1.7,1.47-3.04,3.17-3.04,1.78.04,3.19,1.52,3.16,3.3h.01Z" fill="#fff"/>
    <rect x="213.4" y="34.23" width="192.3" height="191.66" fill="#f0f0f0"/>
    <rect x="213.4" y="34.23" width="192.3" height="22.45" fill="#e0e0e0"/>
    <path d="m229.78,45.23c-.1,2.3-2.05,4.09-4.35,3.99s-4.09-2.05-3.99-4.35c.1-2.23,1.93-3.99,4.16-3.99,2.35.05,4.21,2,4.17,4.35h.01Z" fill="#fff"/>
    <path d="m245.45,42.29c1.56,1.69,1.45,4.33-.24,5.89-1.69,1.56-4.33,1.45-5.89-.24-1.52-1.65-1.46-4.21.14-5.79,1.7-1.61,4.38-1.55,6,.14h0Z" fill="#fff"/>
    <path d="m263.56,45.23c-.1,2.3-2.05,4.09-4.35,3.99-2.3-.1-4.09-2.05-3.99-4.35.1-2.23,1.93-3.99,4.16-3.99,2.35.05,4.21,2,4.17,4.35h.01Z" fill="#fff"/>
  </g>
  <g id="freepik--Floor--inject-27">
    <path d="m364.16,419.08c0,.14-69.44.26-155.07.26s-155.1-.12-155.1-.26,69.43-.26,155.1-.26,155.07.13,155.07.26Z" fill="#263238"/>
  </g>
  <g id="freepik--Plant--inject-27">
    <path d="m296.5,296.66c-15.45-10.79-18.95-30.82-18.34-48.83.1-3-.23-6.18,1.2-8.81s4.77-4.44,7.46-3.18c2.23,1.05,3.2,3.65,4.45,5.8,1.67,2.86,4.11,5.2,7.05,6.73,1.91,1,4.28,1.6,6.17.56,2.6-1.43,2.9-5,2.88-8,0-5.58-.03-11.15-.1-16.72-.18-2.99.12-5.99.9-8.88.93-2.84,3-5.47,5.83-6.27s6.36.85,7,3.77c.11,1.24.14,2.48.09,3.72.08,1.25.66,2.62,1.83,3s2.39-.49,3.29-1.37c3.08-3,5.18-6.91,7.13-10.77s3.86-7.83,6.66-11.12,6.67-5.9,11-6.15,8.84,2.41,9.92,6.61-1.37,8.49-4,11.9c-3.97,5.06-8.65,9.52-13.89,13.25-1.02.56-1.84,1.43-2.33,2.49-.65,2,1.24,4,3.21,4.63,2.23.74,4.65.51,7,.79s4.85,1.3,5.74,3.5c1.22,3.06-1.34,6.26-3.85,8.36-5.04,4.2-10.76,7.5-16.92,9.77-2.2.8-4.51,1.51-6.29,3.05s-2.84,4.23-1.77,6.34,3.82,2.78,6.13,2.35,4.36-1.67,6.56-2.5c4.11-1.55,9.41-1.27,12,2.28,1.63,2.48,2,5.58,1,8.37-1,2.74-2.54,5.25-4.53,7.39-6.55,7.83-15.06,13.77-24.66,17.23-9.53,3.3-18.36,4.2-27.83.73" fill="#ff7200"/>
    <path d="m356.52,192.61s-.09.1-.29.28l-.89.79c-.78.7-1.93,1.72-3.38,3.07-4.11,3.82-7.93,7.94-11.42,12.33-2.23,2.77-4.54,5.91-7,9.32s-5,7.09-7.52,11c-2.69,4.12-5.15,8.39-7.37,12.78-1.16,2.29-2.18,4.68-3.23,7.12l-3.1,7.45c-4.09,9.38-7.65,18.99-10.66,28.77-2.43,8-4.1,16.22-5,24.53-.58,5.61-.68,11.26-.28,16.89.16,2,.31,3.53.45,4.57.06.5.1.9.14,1.19v.41c-.04-.13-.07-.26-.09-.4-.05-.29-.11-.68-.19-1.18-.18-1-.37-2.58-.55-4.58-.48-5.64-.45-11.31.1-16.94.84-8.35,2.48-16.6,4.89-24.64,2.99-9.81,6.54-19.44,10.63-28.84l3.18-7.42c1.05-2.43,2.08-4.84,3.25-7.14,2.24-4.4,4.72-8.68,7.43-12.81,2.56-4,5.14-7.62,7.57-11s4.78-6.54,7-9.3c3.53-4.38,7.4-8.47,11.57-12.24,1.48-1.33,2.66-2.33,3.46-3l.93-.75c.11-.1.24-.19.37-.26h0Z" fill="#263238"/>
    <path d="m318.32,241.95c-.14-.41-.24-.84-.29-1.27-.16-.83-.34-2-.55-3.52-.43-3-.87-7.11-1.34-11.66s-1-8.67-1.44-11.64c-.23-1.48-.43-2.67-.57-3.5-.11-.42-.17-.86-.17-1.3.17.4.3.82.37,1.25.22.82.47,2,.75,3.49.57,3,1.13,7.08,1.6,11.64s.87,8.56,1.18,11.67c.15,1.4.28,2.59.38,3.54.08.43.1.86.08,1.3h0Z" fill="#263238"/>
    <path d="m356.8,234.77c-.49.11-.98.17-1.48.18-1,.09-2.42.21-4.18.41-3.52.38-8.36,1.08-13.67,2.08s-10.08,2.13-13.51,3c-1.71.44-3.09.84-4,1.11-.49.17-.99.29-1.5.36.46-.23.94-.42,1.44-.57.94-.33,2.3-.79,4-1.28,3.41-1,8.18-2.19,13.51-3.21,4.52-.86,9.07-1.5,13.65-1.9,1.77-.15,3.2-.21,4.2-.23.51-.03,1.03-.02,1.54.05Z" fill="#263238"/>
    <path d="m301.62,284.67c-.11-.14-.19-.3-.26-.47l-.66-1.39c-.57-1.21-1.34-3-2.26-5.19-1.86-4.4-4.23-10.56-6.75-17.4s-4.84-13-6.6-17.45c-.86-2.16-1.57-3.93-2.1-5.25l-.56-1.43c-.08-.16-.13-.34-.16-.52.11.14.19.3.26.47l.66,1.39c.56,1.21,1.34,3,2.26,5.19,1.86,4.4,4.23,10.56,6.75,17.4,2.52,6.84,4.84,13,6.6,17.45.86,2.16,1.57,3.93,2.09,5.25.23.57.42,1,.57,1.43.08.16.13.34.16.52Z" fill="#263238"/>
    <path d="m352.7,268.2c-.16.09-.33.16-.51.21l-1.48.5-5.47,1.77c-4.62,1.5-11,3.64-18,6s-13.41,4.46-18.06,5.86c-2.32.71-4.21,1.25-5.52,1.61l-1.51.39c-.18.06-.36.09-.54.11.16-.09.33-.16.51-.21l1.48-.5,5.47-1.77c4.62-1.5,11-3.64,18-6s13.4-4.46,18.05-5.86c2.33-.71,4.21-1.25,5.53-1.61l1.51-.39c.18-.06.36-.09.54-.11Z" fill="#263238"/>
  </g>
  <g id="freepik--Padlock--inject-27">
    <path d="m331.86,25.63l-5.15,1.84-2.21-6.73c-4.06-12.41-17-19-28.89-14.81s-18.22,17.8-14.16,30.21l2.21,6.73-5.17,1.85c-4.1,1.59-6.22,6.12-4.82,10.28l14.33,43.79c1.23,4.09,5.53,6.41,9.62,5.18.08-.02.16-.05.24-.07l53.37-19.09c4.15-1.59,6.3-6.17,4.87-10.38l-14.34-43.79c-1.25-4.07-5.57-6.35-9.64-5.1-.09.03-.17.06-.26.09h0Zm-40.68,7c-2.27-6.71,1.15-14.01,7.76-16.55,6.46-2.21,13.49,1.23,15.7,7.69.05.14.09.28.13.42l2.2,6.73-23.59,8.44-2.2-6.73h0Zm30,38.86l3.66,11.18c.14.47-.11.96-.57,1.12l-5.13,1.83c-.42.12-.87-.12-1-.54l-3.69-11.13c-4.17-.23-7.75-3.02-9-7-1.81-5.34.92-11.16,6.19-13.18,5.15-1.76,10.75.99,12.51,6.14.04.11.07.22.1.32,1.31,4.04.11,8.47-3.06,11.29v-.03h-.01Z" fill="#ff7200"/>
    <path d="m326.48,27.35c0,.14-9.55,3.73-21.43,8-11.88,4.27-21.57,7.7-21.62,7.6s9.55-3.72,21.44-8,21.56-7.73,21.61-7.6h0Z" fill="#263238"/>
    <path d="m337.82,29.19c.04.09.08.18.11.27.08.2.17.46.29.78.26.73.62,1.74,1.07,3l3.84,11.18c1.6,4.74,3.51,10.36,5.63,16.6,1,3.13,2.18,6.39,3.28,9.82.59,1.77.84,3.63.75,5.49-.08.97-.36,1.91-.81,2.77-.48.86-1.12,1.62-1.89,2.23-1.54,1.13-3.26,2-5.08,2.59l-5.15,1.85-9.75,3.49-16.51,5.88-11.15,3.92-3,1-.8.26c-.09.04-.18.06-.27.07,0,0,.08,0,.25-.12l.78-.31,3-1.13,11.09-4.08,16.48-6,9.73-3.52,5.15-1.86c1.77-.56,3.43-1.41,4.93-2.51.71-.57,1.31-1.27,1.76-2.07.42-.8.68-1.67.75-2.57.09-1.79-.15-3.59-.72-5.29-1.08-3.4-2.22-6.69-3.25-9.82-2.08-6.25-4-11.89-5.52-16.63s-2.8-8.55-3.68-11.23c-.42-1.31-.74-2.33-1-3.07l-.24-.8c-.03-.06-.05-.12-.07-.19h0Z" fill="#263238"/>
    <path d="m309.66,15.4s-.53-.26-1.51-.66c-1.4-.54-2.87-.83-4.37-.88-2.22-.08-4.42.34-6.46,1.22-2.48,1.09-4.59,2.87-6.11,5.11-1.53,2.24-2.34,4.88-2.35,7.59.02,2.22.36,4.43,1,6.55.52,1.82,1.06,3.27,1.42,4.28.21.51.39,1.04.52,1.58-.28-.48-.52-.99-.71-1.51-.41-1-1-2.42-1.58-4.25-.71-2.15-1.1-4.39-1.15-6.65-.03-2.81.81-5.56,2.4-7.88,1.57-2.33,3.77-4.15,6.35-5.26,2.1-.88,4.38-1.27,6.65-1.14,1.53.08,3.03.43,4.43,1.05.37.17.74.37,1.08.6.14.06.27.15.39.25h0Z" fill="#263238"/>
    <path d="m310.12,54.53c.16-.1.33-.18.5-.25.5-.23,1.02-.41,1.55-.55.84-.25,1.71-.4,2.59-.44,1.19-.06,2.39.12,3.51.53,2.56.9,4.91,3.51,6.07,7,.56,1.87.56,3.87,0,5.74-.62,2.03-1.72,3.88-3.22,5.39l.06-.27c1.33,3.65,2.78,7.61,4.28,11.74l.09.25-.25.09-2.29.76-5,1.67-.25.08-.08-.25c-1.37-4.14-2.87-8-4-11.79l.22.17c-1.95-.16-3.82-.9-5.36-2.11-1.39-1.07-2.54-2.44-3.35-4-.73-1.38-1.1-2.93-1.06-4.5.09-3.24,1.63-6.27,4.19-8.26.52-.42,1.1-.76,1.73-1-.56.34-1.11.7-1.64,1.09-1.39,1.17-2.45,2.69-3.09,4.39-1.11,2.6-.99,5.56.31,8.07.8,1.5,1.91,2.81,3.27,3.84,1.47,1.15,3.25,1.85,5.11,2h.17l.05.15c1.1,3.72,2.61,7.61,4,11.77l-.33-.16,5-1.67,2.28-.77-.16.34c-1.49-4.13-2.93-8.1-4.25-11.75v-.15l.12-.12c1.45-1.44,2.54-3.22,3.16-5.17.53-1.79.53-3.7,0-5.49-1.09-3.36-3.34-5.91-5.78-6.81-1.08-.42-2.23-.61-3.39-.57-.86.02-1.72.14-2.56.35-1.49.37-2.19.71-2.2.66h0Z" fill="#263238"/>
  </g>
  <g id="freepik--Device--inject-27">
    <path d="m279.21,343.27l-99.89-.46c-12.01-.07-21.7-9.85-21.65-21.86l1.06-250.41c.05-12.01,9.83-21.71,21.84-21.66h.02l99.88.46c12.01.06,21.7,9.84,21.66,21.85l-1.06,250.4c-.05,12.02-9.84,21.73-21.86,21.68h0Z" fill="#455a64"/>
    <path d="m280.32,57.95h-19.36c-2.66.05-4.77,2.24-4.72,4.9h0v3.51c.05,2.65-2.06,4.84-4.71,4.89h0l-37.74-.17c-2.66-.07-4.76-2.28-4.69-4.94v-3.51c.07-2.65-2.03-4.86-4.68-4.94h-6.81l-16.95-.08c-8.39-.05-15.25,6.7-15.33,15.09l-1,244.42c-.04,8.41,6.75,15.26,15.16,15.3h0l99.68.46c8.42.04,15.27-6.75,15.31-15.17h0l1-244.42c.05-8.42-6.73-15.28-15.15-15.34h0Z" fill="#fff"/>
    <path d="m266.91,300.27l-74.12-.32c-.77,0-1.39-.84-1.38-1.86l.08-19.39c0-1,.63-1.86,1.4-1.86l74.12.34c.89.15,1.49.98,1.38,1.87l-.07,19.37c0,1.03-.64,1.86-1.41,1.85h0Z" fill="#ff7200"/>
    <g isolation="isolate">
      <text transform="translate(212.91 290.9) scale(.96 1)" fill="#e8e8e3" font-family="Montserrat-Regular, Montserrat" font-size="8.3" isolation="isolate"><tspan x="0" y="0">SING UP</tspan></text>
    </g>
    <rect x="192.34" y="119.24" width="4.72" height="25.72" transform="translate(61.72 326.2) rotate(-89.74)" fill="#ff7200"/>
    <rect x="192.34" y="119.24" width="4.72" height="25.72" transform="translate(61.72 326.2) rotate(-89.74)" isolation="isolate" opacity=".1"/>
    <path d="m282.97,158.78c.2-.02.4-.07.59-.14.56-.22.95-.75,1-1.35v-13.28c.07-.46-.03-.92-.28-1.31-.28-.38-.72-.6-1.19-.61h-16.01l-83.64-.31c-.43,0-.85.2-1.1.55-.24.39-.33.86-.26,1.31v12c-.04.47-.04.93,0,1.4.11.4.39.74.78.9.2.08.41.12.62.11h5.09l22.21.12,37.6.23,25.35.2,6.89.08h2.4-34.64l-37.6-.12-22.21-.09h-5.09c-.28,0-.56-.04-.82-.14-.53-.23-.93-.69-1.08-1.25-.06-.26-.08-.53-.06-.8v-12.74c-.02-.27-.02-.53,0-.8.04-.29.15-.57.33-.81.35-.49.92-.78,1.52-.77l83.64.46,14.45.1h1.56c.56,0,1.08.27,1.4.73.28.43.4.96.32,1.47v6.39c0,3-.07,5.3-.09,6.9-.05.63-.46,1.17-1.05,1.39-.19.12-.41.18-.63.18h0Z" fill="#e0e0e0"/>
    <rect x="189.58" y="146.8" width="47.04" height="4.41" fill="#ff7200"/>
    <rect x="189.58" y="146.8" width="47.04" height="4.41" fill="#fff" isolation="isolate" opacity=".2"/>
    <rect x="192.17" y="162.3" width="4.72" height="25.72" transform="translate(18.49 368.89) rotate(-89.74)" fill="#ff7200"/>
    <rect x="192.17" y="162.3" width="4.72" height="25.72" transform="translate(18.49 368.89) rotate(-89.74)" isolation="isolate" opacity=".1"/>
    <path d="m282.32,201.84c.2-.02.4-.06.6-.11.57-.18,1.02-.6,1.26-1.14.16-.4.22-.84.18-1.27v-11.93c.05-.46-.05-.92-.29-1.32-.25-.41-.63-.71-1.09-.85-.5-.09-1.01-.12-1.51-.08h-14.39l-83.35-.31c-.93,0-1.71.69-1.83,1.61v12c-.04.47-.02.94.06,1.4.12.41.38.76.73,1,.37.23.8.35,1.24.32h4.28l22.13.11,37.47.23,25.26.2,6.87.08h2.39-34.52l-37.49-.04-22.13-.08h-4.35c-.54.03-1.08-.11-1.53-.41-.46-.32-.79-.78-.94-1.31-.09-.51-.12-1.03-.08-1.54v-12c.15-1.18,1.16-2.07,2.35-2.07l83.35.46,14.39.11c.54-.03,1.07,0,1.6.11.52.17.96.53,1.23,1,.26.44.37.95.32,1.46v11.98c.04.45-.04.9-.21,1.31-.26.56-.76.97-1.35,1.14-.22.02-.44,0-.65-.06h0Z" fill="#e0e0e0"/>
    <rect x="191.98" y="207.23" width="4.72" height="25.72" transform="translate(-26.63 413.43) rotate(-89.74)" fill="#ff7200"/>
    <rect x="191.98" y="207.23" width="4.72" height="25.72" transform="translate(-26.63 413.43) rotate(-89.74)" isolation="isolate" opacity=".1"/>
    <path d="m282.12,246.75c.2-.02.4-.06.6-.11.56-.18,1.02-.59,1.26-1.13.16-.4.22-.84.18-1.27v-11.94c.05-.46-.05-.92-.29-1.32-.25-.4-.64-.7-1.09-.84-.5-.09-1-.12-1.51-.09h-14.39l-83.35-.31c-.93,0-1.71.69-1.83,1.61v12c-.04.46-.02.93.06,1.39.12.41.38.76.73,1,.37.24.8.35,1.24.32h4.35l22.13.12,37.47.23,25.26.2,6.87.08h2.39-34.52l-37.47-.11-22.13-.09h-4.35c-.54.04-1.08-.11-1.53-.41-.46-.32-.79-.78-.94-1.31-.09-.51-.12-1.03-.08-1.54v-12.05c.15-1.18,1.15-2.07,2.34-2.07l83.35.46,14.39.11c.54-.03,1.07,0,1.6.11.52.17.96.53,1.23,1,.26.44.37.95.32,1.46v11.98c.04.45-.03.9-.21,1.31-.26.56-.76.97-1.35,1.14-.23.08-.48.1-.73.07Z" fill="#e0e0e0"/>
    <rect x="209.89" y="169.68" width="4.41" height="47.04" transform="translate(17.93 404.42) rotate(-89.74)" fill="#ff7200"/>
    <rect x="209.89" y="169.68" width="4.41" height="47.04" transform="translate(17.93 404.42) rotate(-89.74)" fill="#fff" isolation="isolate" opacity=".2"/>
    <path d="m192.83,238.59c-.08,1.13-1.07,1.99-2.21,1.9-1.13-.08-1.99-1.07-1.9-2.21.08-1.1,1.01-1.94,2.11-1.91,1.16.06,2.05,1.05,2,2.21h0Z" fill="#ff7200"/>
    <path d="m199.2,238.62c.08,1.13-.78,2.12-1.91,2.2s-2.12-.78-2.2-1.91v-.29c-.08-1.13.78-2.12,1.91-2.2s2.12.78,2.2,1.91v.29Z" fill="#ff7200"/>
    <path d="m205.58,238.65c-.08,1.13-1.07,1.99-2.21,1.9-1.13-.08-1.99-1.07-1.9-2.21.08-1.1,1.01-1.94,2.11-1.91,1.16.07,2.05,1.05,2,2.21h0Z" fill="#ff7200"/>
    <path d="m211.95,238.68c-.08,1.13-1.07,1.99-2.21,1.9-1.13-.08-1.99-1.07-1.9-2.21.08-1.1,1.01-1.94,2.11-1.91,1.16.07,2.05,1.05,2,2.21h0Z" fill="#ff7200"/>
    <path d="m218.32,238.7c-.08,1.14-1.06,1.99-2.2,1.91s-1.99-1.06-1.91-2.2c.08-1.1,1.01-1.95,2.11-1.92,1.15.07,2.04,1.05,2,2.2h0Z" fill="#ff7200"/>
    <path d="m224.7,238.73c-.08,1.14-1.06,1.99-2.2,1.92s-1.99-1.06-1.92-2.2c.07-1.08.98-1.92,2.06-1.92,1.17.04,2.09,1.03,2.05,2.2h0Z" fill="#ff7200"/>
    <path d="m231.07,238.76c.08,1.13-.78,2.12-1.91,2.2s-2.12-.78-2.2-1.91v-.29c-.08-1.13.78-2.12,1.91-2.2s2.12.78,2.2,1.91v.29Z" fill="#ff7200"/>
    <path d="m237.44,238.79c-.08,1.14-1.06,1.99-2.2,1.92s-1.99-1.06-1.92-2.2c.07-1.08.98-1.92,2.06-1.92,1.17.04,2.09,1.03,2.05,2.2h0Z" fill="#ff7200"/>
    <path d="m243.81,238.82c-.08,1.14-1.06,1.99-2.2,1.91s-1.99-1.06-1.91-2.2c.08-1.1,1.01-1.95,2.11-1.92,1.15.07,2.04,1.05,2,2.2h0Z" fill="#ff7200"/>
    <g opacity=".2">
      <path d="m192.83,238.59c-.08,1.13-1.07,1.99-2.21,1.9-1.13-.08-1.99-1.07-1.9-2.21.08-1.1,1.01-1.94,2.11-1.91,1.16.06,2.05,1.05,2,2.21h0Z" fill="#fff"/>
      <path d="m199.2,238.62c.08,1.13-.78,2.12-1.91,2.2s-2.12-.78-2.2-1.91v-.29c-.08-1.13.78-2.12,1.91-2.2s2.12.78,2.2,1.91v.29Z" fill="#fff"/>
      <path d="m205.58,238.65c-.08,1.13-1.07,1.99-2.21,1.9-1.13-.08-1.99-1.07-1.9-2.21.08-1.1,1.01-1.94,2.11-1.91,1.16.07,2.05,1.05,2,2.21h0Z" fill="#fff"/>
      <path d="m211.95,238.68c-.08,1.13-1.07,1.99-2.21,1.9-1.13-.08-1.99-1.07-1.9-2.21.08-1.1,1.01-1.94,2.11-1.91,1.16.07,2.05,1.05,2,2.21h0Z" fill="#fff"/>
      <path d="m218.32,238.7c-.08,1.14-1.06,1.99-2.2,1.91s-1.99-1.06-1.91-2.2c.08-1.1,1.01-1.95,2.11-1.92,1.15.07,2.04,1.05,2,2.2h0Z" fill="#fff"/>
      <path d="m224.7,238.73c-.08,1.14-1.06,1.99-2.2,1.92s-1.99-1.06-1.92-2.2c.07-1.08.98-1.92,2.06-1.92,1.17.04,2.09,1.03,2.05,2.2h0Z" fill="#fff"/>
      <path d="m231.07,238.76c.08,1.13-.78,2.12-1.91,2.2s-2.12-.78-2.2-1.91v-.29c-.08-1.13.78-2.12,1.91-2.2s2.12.78,2.2,1.91v.29Z" fill="#fff"/>
      <path d="m237.44,238.79c-.08,1.14-1.06,1.99-2.2,1.92s-1.99-1.06-1.92-2.2c.07-1.08.98-1.92,2.06-1.92,1.17.04,2.09,1.03,2.05,2.2h0Z" fill="#fff"/>
      <path d="m243.81,238.82c-.08,1.14-1.06,1.99-2.2,1.91s-1.99-1.06-1.91-2.2c.08-1.1,1.01-1.95,2.11-1.92,1.15.07,2.04,1.05,2,2.2h0Z" fill="#fff"/>
    </g>
    <path d="m234.76,94.46c1.42-.63,2.33-2.04,2.31-3.59.11-2.01-1.44-3.72-3.44-3.83-2.01-.11-3.72,1.44-3.83,3.44v.38c-.03,1.57.88,3,2.32,3.63-5.6.84-5.35,6.92-5.35,6.92l13.24.06s.31-6.19-5.25-7.02h0Z" fill="#ff7200"/>
    <path d="m234.76,94.46c1.42-.63,2.33-2.04,2.31-3.59.11-2.01-1.44-3.72-3.44-3.83-2.01-.11-3.72,1.44-3.83,3.44v.38c-.03,1.57.88,3,2.32,3.63-5.6.84-5.35,6.92-5.35,6.92l13.24.06s.31-6.19-5.25-7.02h0Z" isolation="isolate" opacity=".1"/>
    <rect x="229.85" y="84.52" width="5.64" height="47.19" transform="translate(123.5 340.29) rotate(-89.74)" fill="#ff7200"/>
    <rect x="229.85" y="84.52" width="5.64" height="47.19" transform="translate(123.5 340.29) rotate(-89.74)" fill="#fff" isolation="isolate" opacity=".2"/>
  </g>
  <g id="freepik--speech-bubble--inject-27">
    <path d="m82.79,134.63h-.47l-1.36.1c-.74.04-1.47.14-2.19.29-.47.07-.93.16-1.39.27l-1.55.43c-2.64.81-5.13,2.04-7.37,3.65-2.96,2.15-5.44,4.9-7.26,8.08-1.07,1.83-1.92,3.78-2.54,5.81-.65,2.21-1.02,4.48-1.11,6.78-.06,1.21-.04,2.42.06,3.62,0,.61.17,1.22.25,1.84.07.62.18,1.24.35,1.85,1.82,8.14,7.38,14.93,15,18.33,2.72,1.17,5.63,1.83,8.59,1.93,3.06.17,6.11-.27,9-1.29l.88-.33h.12l.1.06,12.61,6.4-.37.32c-1.35-4.18-2.65-8.23-3.91-12.12v-.15l.11-.11c3.06-3.08,5.33-6.85,6.62-11,1.17-3.79,1.51-7.79,1-11.72-.45-3.5-1.58-6.87-3.31-9.94-1.49-2.64-3.42-5-5.7-7-1.88-1.58-3.96-2.91-6.19-3.94-1.69-.73-3.44-1.28-5.24-1.65l-2-.33-1.45-.11-.88-.06h-.3c.1,0,.2,0,.3,0h.89l1.45.06,2,.29c1.82.34,3.6.88,5.31,1.59,2.27,1.02,4.39,2.34,6.3,3.93,2.32,1.99,4.29,4.35,5.82,7,1.78,3.1,2.94,6.52,3.41,10.07.55,3.99.23,8.06-.93,11.92-1.3,4.23-3.6,8.09-6.72,11.23l.06-.26c1.26,3.89,2.57,7.94,3.93,12.11l.19.61-.57-.29-12.61-6.39h.22l-.9.33c-2.94,1.03-6.06,1.48-9.17,1.32-3.02-.12-6-.79-8.77-2-5.29-2.27-9.69-6.2-12.53-11.21-1.31-2.31-2.26-4.81-2.83-7.4-.16-.62-.27-1.25-.35-1.89-.08-.63-.21-1.25-.24-1.87-.27-3.56.11-7.14,1.11-10.56.63-2.06,1.51-4.03,2.61-5.88,1.87-3.2,4.39-5.98,7.41-8.13,2.28-1.61,4.81-2.84,7.49-3.62l1.57-.4c.46-.11.93-.19,1.4-.25.73-.14,1.47-.22,2.21-.24l1.37-.05c.16-.02.31-.03.47-.03Z" fill="#ff7200"/>
    <path d="m88.49,157.95h-1.85l-4-5.62v-3.69s-2.86-.18-2.52,4.65,0,3.6,0,3.6c0,0-6.07,0-6.57.55s-.53,6.41-.6,9.68c-.08,1.62.96,3.09,2.51,3.56.21.06.43.09.65.09,1.52,0,9.25-1.23,9.25-1.23h3.19l-.06-11.59h0Z" fill="#ff7200"/>
    <polygon points="93.78 156.96 92.64 169.6 89.48 169.6 89.48 157.22 93.78 156.96" fill="#ff7200"/>
  </g>
  <g id="freepik--Character--inject-27">
    <path d="m131.47,414.29v-8.55l-15.33-.11-.13,12.93.95.07c4.23.27,21.52.67,24.36-.21,3.16-.98-9.85-4.13-9.85-4.13h0Z" fill="#ff7200"/>
    <path d="m141.68,417.62c0,.14-5.74.26-12.81.26s-12.81-.12-12.81-.26,5.74-.26,12.81-.26,12.81.12,12.81.26Z" fill="#263238"/>
    <path d="m131.74,416.04c-.13-.07,0-.52.31-1s.73-.68.83-.58-.11.48-.41.89-.6.76-.73.69h0Z" fill="#263238"/>
    <path d="m132.72,416.6c-.14,0-.07-.56.23-1.09s.7-.85.81-.77-.07.53-.35,1-.56.91-.69.86h0Z" fill="#263238"/>
    <path d="m120.68,417.58c-.06,0-.29-.18-.62-.56-.4-.49-.85-.94-1.34-1.34-.48-.38-1.05-.64-1.66-.73-.47-.06-.77,0-.8-.06s.26-.27.81-.31c.73-.02,1.43.23,2,.68.53.43.98.96,1.32,1.55.23.44.35.73.29.77h0Z" fill="#263238"/>
    <path d="m131.79,414.43c.07.12-.19.42-.63.58s-.83.1-.85,0,.29-.31.67-.45.73-.25.81-.13h0Z" fill="#263238"/>
    <path d="m131.55,413.6c0,.15-.4.27-.92.28s-.93-.11-.92-.25.42-.27.92-.28.9.11.92.25Z" fill="#263238"/>
    <path d="m169.22,414.29v-8.55l-15.33-.11-.13,12.8.95.07c4.23.27,21.53.8,24.36-.08,3.16-.98-9.85-4.13-9.85-4.13h0Z" fill="#ff7200"/>
    <path d="m179.43,417.64c0,.14-5.73.26-12.81.26s-12.8-.12-12.8-.26,5.73-.26,12.8-.26,12.81.12,12.81.26Z" fill="#263238"/>
    <path d="m169.49,416.04c-.12-.07,0-.52.31-1s.73-.68.83-.58-.11.48-.41.89-.6.76-.73.69h0Z" fill="#263238"/>
    <path d="m170.47,416.6c-.13,0-.07-.56.24-1.09s.7-.85.81-.77-.08.53-.36,1-.55.91-.69.86Z" fill="#263238"/>
    <path d="m158.43,417.58c-.06,0-.28-.18-.62-.56-.4-.49-.85-.94-1.34-1.34-.48-.38-1.05-.64-1.66-.73-.46-.06-.77,0-.8-.06s.26-.27.81-.31c.73-.02,1.43.23,2,.68.53.43.98.96,1.32,1.55.23.44.35.73.29.77h0Z" fill="#263238"/>
    <path d="m169.54,414.43c.07.12-.19.42-.63.58s-.83.1-.85,0,.29-.31.67-.45.73-.25.81-.13h0Z" fill="#263238"/>
    <path d="m169.32,413.6c0,.15-.4.27-.92.28s-.92-.11-.91-.25.41-.27.91-.28.92.11.92.25Z" fill="#263238"/>
    <path d="m225.7,160.39c-.4-.41-1.39-.21-1.39-.21.1-.58.1-1.16,0-1.74-.18-.56-1.44-.45-1.44-.45-.06-.47-.06-.95,0-1.42.02-.21-.1-.42-.29-.51-.6-.24-1.24-.36-1.88-.34-.77-.55,2.35-4.92,3.51-6.32s.95-2.49-.08-2.49c-.71,0-4.35,4.2-5.47,5.61s-4.09,5.33-4.19,2.2-1.36-5.49-2.15-5.89-1.63.54-1.2,1.41c.38.99.61,2.03.7,3.08.11.84.07,1.69-.11,2.52-.33,1.54-.78,3.05-1.35,4.52h-.08s-21.82,20.93-23.4,22.42c-1.41,1.34-29.77-1.59-35.46-2.19-1.93-.28-3.89-.42-5.84-.4-2.47.11-2.91.46-5.37.49-6.21.07-12.41.61-18.54,1.63-5.66.96-10.31,5-12.06,10.46-5.73,17.9-18.71,60.27-21,84.07-1.73,3.14-3.29,6.37-4.68,9.67-1.61,4.38-1.22,4.53-.68,4.63,1.46.27,3.12-7.59,3.74-5.69s-3.15,9.37-1.62,9.59c2,.28,3.59-8,3.78-8.66s1.18-.45,1,.17c-.29.88-3.1,10.21-1.14,10.51,1.08.16,1.2-1.81,1.2-1.81,0,0,2-8.93,2.91-8.75s-.06,5.45-.52,7.21.18,2.65,1.12,2.22c.64-.3,2.17-5.65,2.59-7.39s1.47-6.56,2.88-3.77,3.55,4.41,4.43,4.45c.55-.06.94-.56.88-1.11-.03-.27-.17-.52-.39-.68-.76-.74-1.41-1.58-1.93-2.5-.47-.72-.8-1.51-1-2.34-.4-1.66-.64-3.35-.7-5.06l-.16-1c2.24-11.09,8.69-43.64,18-64.43l3.82,7.86,1.66,5.82-10.18,25.13,43.42-.57-6.48-24.94,7.87-26h0c8.51.19,30.36.51,34-1.14,4.58-2,28.27-31.92,28.27-31.92h0c1.54-1.2,3.02-2.48,4.43-3.84,0,0,1.44-1.21.57-2.11h0Z" fill="#ffbe9d"/>
    <path d="m111.71,232.34c1.26-4.3,7.73-25.56,7.73-25.56,0,0,3.18,17.33,2.34,19.42-.77,1.79-1.69,3.51-2.73,5.16-7.34,11.17-6.38,16.76-6.38,16.76l44.35-1.35c.1-6.2-3.57-20.62-4.33-22.92s1.77-9.83,1.77-9.83c0,0,5-5.09,4.82-7.71-.09-2.35-.39-4.69-.87-7l27,1-.85-18.3-38.78-3.88c-1.35,3.81-13.56,1.94-13.56,1.94-13.18.44-14,2.86-19.48,7.12s-14.55,40.82-14.55,40.82l13.52,4.33h0Z" fill="#ff7200"/>
    <path d="m137.93,228.01c-.77.14-1.55.18-2.33.12-1.45,0-3.44-.1-5.63-.32s-4.17-.53-5.58-.81c-.78-.1-1.54-.29-2.27-.58.78,0,1.56.07,2.33.22,1.42.18,3.39.43,5.57.65,2.18.22,4.16.37,5.59.47.78,0,1.56.09,2.32.25h0Z" fill="#263238"/>
    <path d="m140.97,224.24c-.77.38-1.58.66-2.42.83-3.99,1.05-8.11,1.54-12.23,1.45-.85.03-1.71-.05-2.54-.24.84-.11,1.69-.15,2.54-.13,1.57-.05,3.73-.16,6.11-.44s4.5-.68,6-1c.83-.22,1.68-.38,2.54-.47h0Z" fill="#263238"/>
    <path d="m155.89,207.42c-.02.76-.12,1.52-.31,2.26-.26,1.39-.66,3.29-1.17,5.37s-1,4-1.44,5.3c-.18.74-.44,1.47-.78,2.15.06-.76.2-1.51.42-2.24.38-1.56.81-3.36,1.29-5.33s.94-3.77,1.32-5.33c.14-.75.36-1.48.67-2.18h0Z" fill="#263238"/>
    <path d="m112.18,229.79c-2.31-.36-4.6-.89-6.83-1.59-2.28-.53-4.52-1.24-6.7-2.1,2.31.36,4.6.89,6.83,1.59,2.28.53,4.52,1.23,6.7,2.1Z" fill="#263238"/>
    <path d="m158.89,199.09c-.38.06-.76.06-1.14,0-1.04-.11-2.07-.35-3.05-.73-3.31-1.24-5.94-3.83-7.24-7.11-.71-1.79-1.02-3.71-.89-5.63.04-1.58.52-3.12,1.37-4.46.6-.9,1.49-1.56,2.53-1.87.28-.08.56-.11.85-.11h.3s-.42,0-1.09.27c-.95.35-1.76,1.01-2.29,1.87-1.36,2.14-1.74,6.05-.29,9.7.67,1.72,1.73,3.27,3.09,4.52,1.11,1.03,2.4,1.85,3.79,2.44,1.31.52,2.67.89,4.06,1.11Z" fill="#263238"/>
    <path d="m182.2,199.95c-.25-3.07-.33-6.14-.24-9.22-.08-3.07.02-6.15.28-9.21.25,3.06.33,6.14.24,9.21.08,3.08,0,6.15-.28,9.22Z" fill="#263238"/>
    <path d="m145.52,179.25c.11-2.23.34-4.75.34-4.75,0,0,5.52-.61,5.85-6.31s0-18.85,0-18.85l-10-5.12-11.1,8.73,1.71,28.5,10.18.65c1.62.04,2.97-1.23,3.02-2.85h0Z" fill="#ffbe9d"/>
    <path d="m146.51,163.68s0,.11-.09.24c-.15.19-.39.3-.63.28-.64,0-1.26-.74-1.48-1.6-.1-.42-.1-.85,0-1.27.04-.37.27-.69.6-.86.13-.06.29-.06.42,0,.1.05.18.13.23.23.07.17,0,.28,0,.27s0-.1-.1-.2c-.11-.15-.31-.19-.47-.1-.25.15-.4.42-.41.71-.08.37-.08.76,0,1.13.2.78.74,1.41,1.22,1.47.19.03.38-.03.53-.15.12-.08.16-.16.18-.15h0Z" fill="#eb996e"/>
    <path d="m155.14,146.26c-.77-2.62-3.56-3.92-6.1-4.64-3.87-1.1-8.05-1.58-11.83-.19s-8.32,3.83-8.32,8c-2.23-.18-3.51,1.77-4.39,4.19-.56,1.47-.9,3.03-1,4.6h0c-.28,5.46-1.81,13-5.35,17-2,2.23-4.77,3.77-5.91,6.55-1,2.41-.48,5.27-1.41,7.71-.83,2.15-2.66,3.68-4,5.55-2.78,4.31-3.13,9.75-.95,14.39,2.19,4.49,6.12,7.89,10.89,9.4,4.67,1.42,9.65,1.47,14.35.14,3.53-.84,6.81-2.47,9.62-4.77,2.87-2.34,4.84-5.61,5.58-9.24.71-4.08-.43-8.23-1.28-12.29-2.66-12.83-1.9-13.5,1.46-25.41.08-.21.12-.43.18-.64s.09-.31.13-.47h0c.1-.47.15-.95.15-1.43-1,.37-2.13.13-2.89-.62-.76-.8-1.02-1.95-.68-3,.48-1.14,1.41-2.02,2.58-2.43,1.11-.46,2.3-.7,3.39-1.21,2.31-1.1,3.91-3.38,5-5.77.9-1.66,1.17-3.58.78-5.42h0Z" fill="#263238"/>
    <path d="m146.91,163.95c.21.31.39.65.52,1,.3.63.7,1.52,1.14,2.55l.08.19h-.21l-1,.09c-.69,0-1.27.13-1.95.12-.12-.03-.22-.11-.26-.23-.03-.09-.03-.19,0-.28.02-.13.05-.27.09-.4l.18-.71c.09-.47.23-.94.42-1.38-.02.48-.09.96-.21,1.43l-.14.71c-.05.24-.14.61,0,.58.5,0,1.21-.11,1.87-.15l1-.09-.13.22c-.43-1-.79-1.94-1-2.59-.18-.33-.32-.69-.4-1.06h0Z" fill="#ff7200"/>
    <path d="m112.67,248.12l44.35-1.35,19.3,75.34-3.55,86.42h-23.45l2.87-84.58-17.15-52.45,2.64,140.38-23.7.35-2.49-131.95c-.11-3.67-1.31-11.94-.86-15.58l2.04-16.58h0Z" fill="#263238"/>
    <path d="m140.94,272.57c-.73.05-1.45,0-2.17-.13-1.34-.16-3.17-.44-5.18-.84s-3.81-.86-5.11-1.23c-.69-.15-1.37-.39-2-.72,0-.15,3.26.63,7.26,1.44s7.22,1.33,7.2,1.48Z" fill="#455a64"/>
    <path d="m172.53,403.79c0,.14-5.31.26-11.86.26s-11.87-.12-11.87-.26,5.31-.26,11.87-.26,11.86.11,11.86.26Z" fill="#455a64"/>
    <path d="m137.47,408.23c0,.15-5.16.26-11.52.26s-11.51-.11-11.51-.26,5.16-.26,11.51-.26,11.52.12,11.52.26Z" fill="#455a64"/>
    <path d="m134.41,407.87c-.14,0-.76-30.67-1.39-68.5s-1-68.52-.87-68.52.77,30.66,1.39,68.51,1.02,68.51.87,68.51h0Z" fill="#455a64"/>
    <path d="m169.38,403.79c0-.14,0-.27,0-.41v-1.2c0-1.08.08-2.63.14-4.6.14-4,.34-9.81.59-16.93.54-14.32,1.3-34.06,2.13-55.85v-.59.07c-5.25-21-10-40.06-13.45-53.85l-4-16.31c-.46-1.91-.81-3.4-1.06-4.44-.12-.49-.2-.87-.27-1.16-.04-.13-.06-.26-.07-.4.05.13.09.26.12.39.08.28.18.66.32,1.14.27,1,.66,2.52,1.16,4.42,1,3.86,2.41,9.42,4.17,16.27,3.48,13.78,8.28,32.79,13.6,53.82v.66c-.89,21.79-1.7,41.52-2.29,55.84-.31,7.13-.57,12.9-.75,16.92-.1,2-.18,3.52-.23,4.6,0,.51-.06.91-.07,1.2,0,.14,0,.28-.04.41h0Z" fill="#455a64"/>
    <path d="m161.73,322.45c-1.68.55-3.42.94-5.18,1.15-2.16.37-4,.63-4.83.67v-.2c.27.08.41.13.41.17s-.17,0-.45,0h-.6l.6-.18c.78-.23,2.62-.61,4.78-1,1.73-.38,3.5-.58,5.27-.61h0Z" fill="#455a64"/>
    <path d="m161.32,325.32c-1.56.07-3.12,0-4.67-.21-1.56-.03-3.12-.2-4.65-.51,3.13-.25,6.27-.01,9.32.72Z" fill="#455a64"/>
    <path d="m112.48,249.71c1.06,1.36,2.66,2.21,4.38,2.33,1.79.21,3.59.18,5.37-.1,11.45-1.27,23.58-2.44,34.79-5.17-14.51.81-29.84.54-44.35,1.35l-.15,1.24" isolation="isolate" opacity=".2"/>
    <g opacity=".2">
      <polygon points="127.43 270.16 135.61 301.9 135.04 271.5 127.43 270.16"/>
    </g>
  </g>
</svg>