<svg width="800" height="561" xmlns="http://www.w3.org/2000/svg" xmlns:xlink="http://www.w3.org/1999/xlink" xml:space="preserve" overflow="hidden"><defs><clipPath id="clip0"><rect x="708" y="807" width="800" height="561"/></clipPath></defs><g clip-path="url(#clip0)" transform="translate(-708 -807)"><path d="M852.773 807 1244.97 807C1284.94 807 1321.14 823.215 1347.34 849.431L1347.44 849.557 1347.44 849.446 1348.85 851.272 1365.01 870.87 1367.29 875.073 1489.87 1033.29 1489.72 1033.49 1491.31 1035.55C1513.56 1064.28 1513.56 1110.84 1491.31 1139.56L1489.76 1141.57 1489.87 1141.71 1367.29 1299.93 1365.01 1304.13 1348.85 1323.73 1347.44 1325.55 1347.44 1325.44 1347.34 1325.57C1321.14 1351.79 1284.94 1368 1244.97 1368L852.773 1368C772.817 1368 708 1303.14 708 1223.13L708 951.867C708 871.859 772.817 807 852.773 807Z" fill="#ED7D31" fill-rule="evenodd"/></g></svg>