<?xml version="1.0" encoding="UTF-8"?>
<svg id="Layer_1" data-name="Layer 1" xmlns="http://www.w3.org/2000/svg" viewBox="0 0 471.4 442.6">
  <g>
    <path d="m50,129.2c60.2-3.9,96.8-3.9,121.4,35.9,24.7,39.8-62.5,179.1,26.4,202.6s132.3-48.5,169.1-119.4c36.9-70.8,54.4-155.8,54.5-198.3" fill="none" stroke="#e0e0e0" stroke-linecap="round" stroke-linejoin="round" stroke-width="100"/>
    <path d="m63.2,384.1c26.4-35.4,57.2-41.4,96.2-46.4" fill="none" stroke="#e0e0e0" stroke-linecap="round" stroke-linejoin="round" stroke-width="100"/>
  </g>
  <g id="freepik--Floor--inject-27">
    <path d="m457.7,434.3c0,.1-99.6.3-222.5.3s-222.5-.1-222.5-.3,99.6-.3,222.5-.3,222.5.1,222.5.3Z" fill="#263238"/>
  </g>
  <g id="freepik--Device--inject-27">
    <path d="m336,347.7h-201.6c-5.5-.1-10-4.7-9.9-10.2V29.5c-.1-5.5,4.2-10.1,9.8-10.2h201.6c5.5.1,9.9,4.6,9.9,10.1v308.1c.1,5.5-4.3,10-9.8,10.2h0Z" fill="#263238"/>
    <path d="m239.1,332.7c.1,5.2-4,9.5-9.2,9.6s-9.5-4-9.6-9.2,4-9.5,9.2-9.6h.2c5.1,0,9.3,4.1,9.4,9.2h0Z" fill="#455a64"/>
    <path d="m257.9,36.5h-45.2c-1.8,0-3.2-1.5-3.1-3.3h0c0-1.8,1.4-3.2,3.1-3.3h45.2c1.8,0,3.2,1.5,3.1,3.3h0c0,1.9-1.4,3.3-3.1,3.3Z" fill="#455a64"/>
    <rect x="131.3" y="42.6" width="207.3" height="274.3" fill="#fff"/>
    <rect x="131.5" y="42.6" width="207.3" height="274.3" fill="#ebebeb"/>
    <path d="m158.8,65h152.8c5.4,0,9.9,4.4,9.9,9.9v209.7c0,5.4-4.4,9.9-9.9,9.9h-152.8c-5.4,0-9.9-4.4-9.9-9.9V74.9c0-5.5,4.5-9.9,9.9-9.9Z" fill="#fff"/>
    <path d="m204.9,94.6l1-2.2c1,.6,2.2,1,3.4,1s1.7-.3,1.7-.8c0-1.7-6-.4-6-4.3,0-1.9,1.5-3.4,4.6-3.4,1.3,0,2.6.3,3.8.9l-.9,2.2c-.9-.5-1.9-.8-2.9-.8-1.2,0-1.7.4-1.7,1,0,1.6,5.9.4,5.9,4.3,0,1.8-1.5,3.4-4.6,3.4-1.5-.1-3-.5-4.3-1.3Z" fill="#ff7200"/>
    <path d="m214.8,85c0-.9.8-1.5,1.6-1.5h.1c.8-.1,1.6.5,1.7,1.3v.1c-.1,1-1,1.6-2,1.5-.6,0-1.3-.6-1.4-1.4h0Zm.3,2.4h2.8v8.1h-2.7l-.1-8.1Z" fill="#ff7200"/>
    <path d="m228.6,87.4v6.6c0,3.1-1.7,4.5-4.8,4.5-1.4.1-2.8-.3-4-1.1l1-2c.8.6,1.8.9,2.7.9,1.5,0,2.2-.7,2.2-2v-.1c-.6.7-1.5,1-2.4,1-2.2.1-4-1.6-4.1-3.7-.1-2.2,1.6-4,3.7-4.1h.4c1-.1,1.9.3,2.5,1.1v-1l2.8-.1h0Zm-2.8,3.8c-.1-1-.9-1.7-1.9-1.6-.9.1-1.6.8-1.6,1.6.1,1,.9,1.7,1.9,1.6.8,0,1.5-.7,1.6-1.6Z" fill="#ff7200"/>
    <path d="m239,90.9v4.6h-2.8v-4.2c0-1.2-.5-1.7-1.3-1.7s-1.6.6-1.6,1.9v3.9h-2.9v-8.1h2.7v.9c.7-.7,1.6-1,2.6-1,1.9.1,3.3,1.2,3.3,3.7Z" fill="#ff7200"/>
    <path d="m253.7,87.4v8.1h-2.7v-.9c-.6.7-1.5,1-2.4,1-2,0-3.4-1.1-3.4-3.7v-4.5h2.8v4.1c0,1.3.5,1.8,1.4,1.8s1.5-.6,1.5-1.9v-3.9h2.8v-.1h0Z" fill="#ff7200"/>
    <path d="m264.6,91.5c.1,2.2-1.5,4-3.7,4.2h-.3c-.8,0-1.7-.3-2.3-.8v3.6h-2.8v-11h2.7v.8c.6-.7,1.5-1,2.4-.9,2.2-.1,4,1.7,4,3.8v.3Zm-2.9,0c-.1-.9-1-1.6-1.9-1.5s-1.6,1-1.5,1.9.8,1.5,1.7,1.5,1.7-.8,1.7-1.7c.1-.1,0-.2,0-.2h0Z" fill="#ff7200"/>
    <path d="m168.6,154.1v1.1h2v.8h-2v1.5h-1v-4.2h3.2v.8h-2.2Z" fill="#263238"/>
    <path d="m174.6,154.3v3.2h-.9v-.4c-.3.3-.6.4-1,.4-.7.1-1.3-.5-1.4-1.2v-2.1h.9v1.7c0,.5.2.8.7.8s.7-.3.7-.9v-1.6l1,.1Z" fill="#263238"/>
    <path d="m175.5,153.1h.9v4.4h-.9v-4.4Z" fill="#263238"/>
    <path d="m177.3,153.1h.9v4.4h-.9v-4.4Z" fill="#263238"/>
    <path d="m184.7,153.3v4.2h-.8l-2.1-2.6v2.6h-1v-4.2h.8l2.1,2.6v-2.6h1Z" fill="#263238"/>
    <path d="m188.5,155.7v1.9h-.9v-.4c-.2.3-.6.5-1,.4-.8,0-1.2-.4-1.2-1s.4-1,1.4-1h.7c0-.4-.2-.6-.7-.6-.3,0-.7.1-.9.3l-.3-.6c.4-.3.9-.4,1.4-.4.9-.1,1.5.4,1.5,1.4h0Zm-.9.8v-.3h-.6c-.4,0-.6.2-.6.4s.2.4.5.4.6-.2.7-.5h0Z" fill="#263238"/>
    <path d="m194.8,155.7v1.9h-.9v-1.7c0-.5-.2-.8-.6-.8s-.7.3-.7.9v1.6h-.9v-1.7c0-.5-.2-.8-.6-.8s-.7.3-.7.9v1.6h-.9v-3.2h.9v.4c.3-.3.6-.4,1-.4s.8.2,1.1.5c.3-.3.7-.5,1.2-.5.7-.1,1.3.4,1.4,1.1-.3-.1-.3.1-.3.2Z" fill="#263238"/>
    <path d="m198.8,156.2h-2.4c.1.4.5.7.9.6.3,0,.6-.1.8-.3l.5.5c-.3.4-.8.6-1.3.5-.9.1-1.7-.6-1.8-1.5v-.2c-.1-.9.6-1.7,1.5-1.7h.2c.9,0,1.6.6,1.7,1.5v.2c-.1.2-.1.3-.1.4h0Zm-2.4-.6h1.6c-.1-.4-.4-.7-.8-.7-.4.1-.8.3-.8.7h0Z" fill="#263238"/>
    <path d="m170.9,184.5v.8h-3.2v-4.2h3.2v.8h-2.2v.9h2v.8h-2v1l2.2-.1Z" fill="#263238"/>
    <path d="m177.1,183.4v1.9h-.9v-1.7c0-.5-.2-.8-.6-.8s-.7.3-.7.8v1.6h-.9v-1.7c0-.5-.2-.8-.6-.8s-.7.3-.7.8v1.6h-.9v-3.2h.9v.4c.3-.3.6-.4,1-.4s.8.2,1.1.5c.3-.3.7-.5,1.2-.5.7,0,1.3.5,1.3,1.2-.2.1-.2.2-.2.3h0Z" fill="#263238"/>
    <path d="m180.8,183.4v1.8h-.9v-.4c-.2.3-.6.5-1,.4-.8,0-1.2-.4-1.2-1s.4-1,1.4-1h.7c0-.4-.2-.6-.7-.6-.3,0-.7.1-.9.3l-.3-.6c.4-.3.9-.4,1.4-.4.9.1,1.5.5,1.5,1.5Zm-1,.9v-.3h-.6c-.4,0-.6.2-.6.4s.2.4.5.4c.4-.1.6-.3.7-.5h0Z" fill="#263238"/>
    <path d="m181.5,181.1c0-.3.2-.6.5-.7.3,0,.6.2.7.5,0,.3-.2.6-.5.7h-.1c-.3,0-.6-.2-.6-.5h0Zm.1,1h.9v3.2h-.9v-3.2Z" fill="#263238"/>
    <path d="m183.4,180.8h.9v4.4h-.9v-4.4Z" fill="#263238"/>
    <path d="m189.8,184.4h-2l-.4.9h-1l1.9-4.2h1l1.9,4.2h-1l-.4-.9Zm-.3-.8l-.7-1.6-.7,1.6h1.4Z" fill="#263238"/>
    <path d="m194.8,180.8v4.4h-.9v-.4c-.3.3-.6.4-1,.4-.9,0-1.7-.7-1.7-1.7s.7-1.7,1.7-1.7c.4,0,.7.1,1,.4v-1.6l.9.2h0Zm-.9,2.9c0-.5-.4-.8-.9-.8s-.8.4-.8.9c0,.4.4.8.8.8.5,0,.9-.4.9-.9h0Z" fill="#263238"/>
    <path d="m199,180.8v4.4h-.9v-.4c-.3.3-.6.4-1,.4-.9,0-1.7-.7-1.7-1.7s.7-1.7,1.7-1.7c.4,0,.7.1,1,.4v-1.6l.9.2h0Zm-1,2.9c0-.5-.4-.8-.9-.8s-.8.4-.8.9c0,.4.4.8.8.8.6,0,.9-.4.9-.9h0Z" fill="#263238"/>
    <path d="m201.8,182v.9h-.2c-.4,0-.8.3-.9.7v1.7h-.9v-3.2h.9v.4c.3-.4.7-.5,1.1-.5h0Z" fill="#263238"/>
    <path d="m205.5,183.9h-2.4c.1.4.5.7.9.6.3,0,.6-.1.8-.3l.5.5c-.3.4-.8.6-1.3.5-.9.1-1.7-.6-1.8-1.5v-.2c0-.9.7-1.6,1.6-1.7h.1c.9-.1,1.6.6,1.7,1.5v.2c-.07.2-.1.33-.1.4Zm-2.5-.5h1.6c0-.4-.4-.7-.8-.7s-.7.3-.8.7h0Z" fill="#263238"/>
    <path d="m205.8,185l.3-.7c.3.2.7.3,1.1.3s.6-.1.6-.3c0-.5-2,0-2-1.3,0-.6.6-1,1.5-1,.4,0,.9.1,1.2.3l-.3.7c-.3-.2-.6-.2-.9-.2-.4,0-.6.1-.6.3,0,.6,1.9,0,1.9,1.3,0,.6-.6,1-1.5,1-.4-.1-.9-.2-1.3-.4h0Z" fill="#263238"/>
    <path d="m209,185l.3-.7c.3.2.7.3,1.1.3s.6-.1.6-.3c0-.5-2,0-2-1.3,0-.6.6-1,1.5-1,.4,0,.9.1,1.2.3l-.3.7c-.3-.2-.6-.2-.9-.2-.4,0-.6.1-.6.3,0,.6,1.9,0,1.9,1.3,0,.6-.6,1-1.5,1-.4-.1-.9-.2-1.3-.4h0Z" fill="#263238"/>
    <path d="m172,209.4c0,.9-.7,1.5-1.8,1.5h-.8v1.2h-1v-4.2h1.8c1.1,0,1.8.5,1.8,1.5Zm-1,0c0-.5-.3-.7-.9-.7h-.8v1.5h.8c.6-.1.9-.4.9-.8h0Z" fill="#263238"/>
    <path d="m175.4,210.2v1.8h-.9v-.4c-.2.3-.6.5-1,.4-.8,0-1.2-.4-1.2-1s.4-1,1.4-1h.7c0-.4-.2-.6-.7-.6-.3,0-.7.1-.9.3l-.3-.7c.4-.3.9-.4,1.4-.4.9.2,1.5.7,1.5,1.6h0Zm-.9.8v-.3h-.6c-.4,0-.6.2-.6.4s.2.4.5.4.5-.2.7-.5h0Z" fill="#263238"/>
    <path d="m175.9,211.8l.3-.7c.3.2.7.3,1.1.3s.6-.1.6-.3c0-.5-2,0-2-1.3,0-.6.6-1,1.5-1,.4,0,.9.1,1.2.3l-.3.7c-.3-.2-.6-.2-.9-.2-.4,0-.6.1-.6.3,0,.6,1.9,0,1.9,1.3,0,.6-.6,1-1.5,1-.4-.1-.8-.2-1.3-.4h0Z" fill="#263238"/>
    <path d="m179.1,211.8l.3-.7c.3.2.7.3,1.1.3s.6-.1.6-.3c0-.5-1.9,0-1.9-1.3,0-.6.6-1,1.5-1,.4,0,.9.1,1.2.3l-.3.7c-.3-.2-.6-.2-.9-.2-.4,0-.6.1-.6.3,0,.6,1.9,0,1.9,1.3,0,.6-.6,1-1.5,1-.5-.1-.9-.2-1.4-.4h0Z" fill="#263238"/>
    <path d="m187.8,208.8l-1.2,3.2h-.9l-.7-2-.8,2h-.9l-1.2-3.2h.9l.8,2.2.8-2.2h.8l.8,2.2.8-2.2h.8,0Z" fill="#263238"/>
    <path d="m187.9,210.5c-.1-1,.7-1.8,1.7-1.9,1-.1,1.8.7,1.9,1.7.1,1-.7,1.8-1.7,1.9h-.1c-.9.1-1.7-.6-1.8-1.5v-.2h0Zm2.5,0c0-.5-.4-.8-.9-.8s-.8.4-.8.9c0,.4.4.8.8.8.6,0,1-.4.9-.9q.07,0,0,0Z" fill="#263238"/>
    <path d="m194,208.8v.9h-.2c-.4,0-.8.3-.9.7v1.7h-.9v-3.2h.9v.4c.3-.4.7-.5,1.1-.5h0Z" fill="#263238"/>
    <path d="m197.8,207.6v4.4h-.9v-.4c-.3.3-.6.4-1,.4-.9-.1-1.6-.9-1.5-1.8.1-.8.7-1.5,1.5-1.5.4,0,.7.1,1,.4v-1.6h.9v.1h0Zm-.9,2.9c0-.5-.4-.8-.9-.8s-.8.4-.8.9c0,.4.4.8.8.8.6,0,.9-.4.9-.9h0Z" fill="#263238"/>
    <path d="m198.8,261.1h79.9c2.6,0,4.8,2.1,4.8,4.8v8.8c0,2.6-2.1,4.8-4.8,4.8h-79.9c-2.6,0-4.8-2.1-4.8-4.8v-8.8c0-2.7,2.1-4.8,4.8-4.8h0Z" fill="#ff7200"/>
    <path d="m210,269.8c0-1.4,1.1-2.5,2.5-2.6h.2c.8,0,1.6.3,2.1.9l-.9.8c-.3-.4-.7-.6-1.2-.6-.8,0-1.4.6-1.4,1.4s.6,1.4,1.4,1.4c.5,0,.9-.2,1.2-.6l.9.8c-.5.6-1.3,1-2.1.9-1.4.1-2.6-1-2.7-2.4q0,.07,0,0h0Z" fill="#fff"/>
    <path d="m217.9,268.4v1.2h-.3c-.5,0-.9.3-.9.7v1.9h-1.3v-3.8h1.3v.5c.3-.4.7-.6,1.2-.5h0Z" fill="#fff"/>
    <path d="m222.3,270.7h-2.8c.1.4.5.7.9.6.3,0,.6-.1.9-.3l.7.7c-.4.4-1,.7-1.6.6-1.1.1-2.1-.7-2.2-1.8v-.2c0-1.1.9-2,2-2h.1c1-.1,1.9.7,2,1.8v.6h0Zm-2.8-.7h1.6c-.1-.4-.5-.7-.9-.7-.4.1-.6.3-.7.7h0Z" fill="#fff"/>
    <path d="m226.4,270.1v2.1h-1.2v-.5c-.2.4-.7.6-1.1.6-.9,0-1.4-.5-1.4-1.2s.5-1.1,1.7-1.1h.8c0-.4-.3-.6-.8-.6-.4,0-.7.1-1,.3l-.4-.9c.5-.3,1.1-.4,1.7-.4,1,0,1.7.5,1.7,1.7Zm-1.4.9v-.3h-.6c-.4,0-.6.2-.6.4s.2.4.5.4c.4,0,.6-.2.7-.5h0Z" fill="#fff"/>
    <path d="m229.8,272.1c-.3.2-.6.2-.9.2-.7.1-1.4-.4-1.5-1.1v-1.6h-.6v-1h.6v-1h1.3v1h.9v1h-.9v1.3c0,.2.1.4.4.4h0c.1,0,.3,0,.4-.1l.3.9h0Z" fill="#fff"/>
    <path d="m234.1,270.7h-2.8c.1.4.5.7.9.6.3,0,.6-.1.9-.3l.7.7c-.4.4-1,.7-1.6.6-1.1.1-2.1-.7-2.2-1.8v-.2c0-1.1.9-2,2-2h.1c1-.1,1.9.7,2,1.8v.6h0Zm-2.8-.7h1.6c-.1-.4-.4-.7-.8-.6-.4-.1-.7.2-.8.6Z" fill="#fff"/>
    <path d="m240.1,271.3h-2.1l-.4,1h-1.4l2.2-4.9h1.4l2.2,4.9h-1.4l-.5-1Zm-.4-1l-.6-1.6-.6,1.6h1.2Z" fill="#fff"/>
    <path d="m242,270.3c0-1.1.9-2,2-2h.2c.8-.1,1.5.4,1.8,1l-1,.5c-.2-.4-.8-.5-1.2-.3s-.5.8-.3,1.2c.1.2.4.4.7.4s.6-.2.8-.5l1,.5c-.3.7-1,1.1-1.8,1-1.1.1-2.1-.7-2.2-1.8q0,.07,0,0h0Z" fill="#fff"/>
    <path d="m246.2,270.3c0-1.1.9-2,2-2h.2c.8-.1,1.5.4,1.8,1l-1,.5c-.2-.4-.8-.5-1.2-.3s-.5.8-.3,1.2c.1.2.4.4.7.4s.6-.2.8-.5l1,.5c-.3.7-1,1.1-1.8,1-1.1.1-2.1-.7-2.2-1.8q0,.07,0,0h0Z" fill="#fff"/>
    <path d="m250.3,270.3c-.1-1.2.8-2.2,2-2.3,1.2-.1,2.2.8,2.3,2s-.8,2.2-2,2.3h-.1c-1.1.1-2.1-.7-2.1-1.8-.07-.07-.1-.13-.1-.2h0Zm3,0c.1-.4-.2-.9-.7-.9s-.9.2-.9.7v.3c-.1.4.2.9.7.9s.9-.2.9-.7v-.3Z" fill="#fff"/>
    <path d="m259.2,268.4v3.8h-1.3v-.4c-.6.6-1.6.6-2.3,0-.3-.3-.5-.8-.5-1.3v-2.1h1.3v1.9c0,.6.2.8.6.8s.7-.3.7-.9v-1.8h1.5,0Z" fill="#fff"/>
    <path d="m264.1,270.1v2.1h-1.3v-2c0-.5-.2-.8-.6-.8s-.8.3-.8.9v1.9h-1.3v-3.8h1.3v.4c.3-.3.8-.5,1.2-.5.8-.1,1.5.6,1.6,1.4,0,.1-.1.3-.1.4h0Z" fill="#fff"/>
    <path d="m267.6,272.1c-.3.2-.6.2-.9.2-.7.1-1.4-.4-1.5-1.1v-1.6h-.5v-1h.5v-1h1.3v1h.9v1h-.9v1.3c0,.2.1.4.4.4h0c.1,0,.3,0,.4-.1l.3.9h0Z" fill="#fff"/>
    <path d="m239,155.7v-2.4h1v2.3c0,.8.4,1.1.9,1.1s.9-.3.9-1.1v-2.3h1v2.4c0,1-.9,1.9-1.9,1.9s-1.9-.9-1.9-1.9h0Z" fill="#263238"/>
    <path d="m243.3,157.2l.3-.7c.3.2.7.3,1.1.3s.6-.1.6-.3c0-.5-2,0-2-1.3,0-.6.6-1,1.5-1,.4,0,.9.1,1.2.3l-.3.7c-.3-.2-.6-.2-.9-.2-.4,0-.6.1-.6.3,0,.6,2,0,2,1.3,0,.6-.6,1-1.5,1-.5,0-1-.2-1.4-.4h0Z" fill="#263238"/>
    <path d="m250,156.2h-2.4c.1.4.5.7.9.6.3,0,.6-.1.8-.3l.5.5c-.3.4-.8.6-1.3.5-.9.1-1.7-.6-1.8-1.5v-.1c0-.9.7-1.7,1.6-1.7h.1c.9,0,1.6.6,1.7,1.5v.2c-.1.1-.1.2-.1.3Zm-2.5-.6h1.6c0-.4-.4-.7-.8-.7-.4.1-.7.3-.8.7h0Z" fill="#263238"/>
    <path d="m252.6,154.2v.9h-.2c-.4,0-.8.3-.9.7v1.7h-.9v-3.2h.9v.4c.3-.4.7-.5,1.1-.5h0Z" fill="#263238"/>
    <path d="m256.5,155.7v1.8h-.9v-1.7c0-.5-.2-.8-.6-.8s-.8.3-.8.9v1.6h-1v-3.2h.9v.4c.3-.3.7-.4,1.1-.4.7,0,1.3.5,1.3,1.2v.2Z" fill="#263238"/>
    <path d="m260.2,155.7v1.8h-.9v-.4c-.2.3-.6.5-1,.4-.8,0-1.2-.4-1.2-1s.4-1,1.4-1h.8c0-.4-.2-.6-.8-.6-.3,0-.7.1-.9.3l-.3-.6c.4-.3.9-.4,1.4-.4.9,0,1.5.5,1.5,1.5Zm-.9.8v-.3h-.6c-.4,0-.6.2-.6.4s.2.4.5.4.6-.2.7-.5h0Z" fill="#263238"/>
    <path d="m266.5,155.7v1.8h-.9v-1.7c0-.5-.2-.8-.6-.8s-.7.3-.7.9v1.6h-.9v-1.7c0-.5-.2-.8-.6-.8s-.7.3-.7.9v1.6h-.9v-3.2h.9v.4c.3-.3.6-.4,1-.4s.8.2,1.1.5c.3-.4.7-.6,1.2-.6.7,0,1.3.5,1.3,1.2-.2.1-.2.2-.2.3h0Z" fill="#263238"/>
    <path d="m270.5,156.2h-2.4c.1.4.5.7.9.6.3,0,.6-.1.8-.3l.5.5c-.3.4-.8.6-1.3.5-.9.1-1.7-.6-1.8-1.5v-.1c0-.9.7-1.7,1.6-1.7h.1c.9,0,1.6.6,1.7,1.5v.2c-.1.1-.1.2-.1.3h0Zm-2.5-.6h1.6c-.1-.4-.5-.7-1-.6-.2.1-.5.3-.6.6Z" fill="#263238"/>
    <path d="m168.3,142.6h58.5c.1,0,.1-.1.1-.2,0,0,0-.1-.1-.1h-58.5c-.1.1-.1.2,0,.3-.1,0,0,0,0,0Z" fill="#263238"/>
    <path d="m244.1,142.6h58.5c.1,0,.1-.1.1-.2,0,0,0-.1-.1-.1h-58.5c0,.1-.1.2,0,.3h0Z" fill="#263238"/>
    <path d="m231.6,142c0-1.2.8-2.1,2-2.2,1.2,0,2.1.8,2.2,2,0,1.2-.8,2.1-2,2.2h-.1c-1.1,0-2-.8-2.1-2,.1.1,0,0,0,0h0Zm3.7,0c0-.8-.7-1.5-1.5-1.5s-1.5.7-1.5,1.5.7,1.5,1.5,1.5h0c.8,0,1.4-.6,1.5-1.5,0,.1,0,0,0,0h0Z" fill="#263238"/>
    <path d="m238.2,141v.5h-.1c-.5,0-.9.4-.9.8v1.7h-.5v-3h.5v.5c.2-.4.6-.6,1-.5Z" fill="#263238"/>
    <path d="m170.3,162.1h58.4c1.7,0,3.1,1.4,3.1,3.1v6.4c0,1.7-1.4,3.1-3.1,3.1h-58.4c-1.7,0-3.1-1.4-3.1-3.1v-6.4c0-1.6,1.4-3.1,3.1-3.1h0Z" fill="#ebebeb"/>
    <path d="m170.3,189.1h128.6c1.7,0,3.1,1.4,3.1,3.1v6.4c0,1.7-1.4,3.1-3.1,3.1h-128.6c-1.7,0-3.1-1.4-3.1-3.1v-6.4c0-1.7,1.4-3.1,3.1-3.1h0Z" fill="#ebebeb"/>
    <path d="m170.3,216.1h128.6c1.7,0,3.1,1.4,3.1,3.1v6.4c0,1.7-1.4,3.1-3.1,3.1h-128.6c-1.7,0-3.1-1.4-3.1-3.1v-6.4c0-1.7,1.4-3.1,3.1-3.1h0Z" fill="#ebebeb"/>
    <path d="m241.6,162.1h57.3c1.7,0,3.1,1.4,3.1,3.1v6.4c0,1.7-1.4,3.1-3.1,3.1h-57.3c-1.7,0-3.1-1.4-3.1-3.1v-6.4c0-1.6,1.4-3.1,3.1-3.1h0Z" fill="#ebebeb"/>
    <path d="m169.8,236h3.3c.5,0,1,.4,1,1v3.3c0,.5-.4,1-1,1h-3.3c-.5,0-1-.4-1-1v-3.3c0-.5.4-1,1-1Z" fill="#ff7200"/>
    <path d="m296,240.9h-116.2c-1.1,0-2-.9-2-2h0c0-1.1.9-2,2-2h116.2c1.1,0,1.9.9,2,2h0c0,1.2-.9,2-2,2h0Z" fill="#e0e0e0"/>
    <path d="m198.9,248.2h-18.5c-1.1,0-1.9-.9-1.9-2h0c0-1.1.9-1.9,1.9-1.9h18.5c1.1,0,1.9.9,1.9,1.9h0c0,1.1-.8,2-1.9,2Z" fill="#e0e0e0"/>
    <path d="m172.2,113.6h126c2.4,0,4.4,2,4.4,4.4v7.9c0,2.4-2,4.4-4.4,4.4h-126c-2.4,0-4.4-2-4.4-4.4v-7.9c0-2.5,1.9-4.4,4.4-4.4h0Z" fill="#ebebeb"/>
    <path d="m209.7,123.2l.2-.5c.4.3.9.5,1.4.5.7,0,1-.3,1-.6,0-1-2.5-.4-2.5-1.9,0-.6.5-1.2,1.6-1.2.5,0,.9.1,1.4.4l-.2.5c-.3-.2-.7-.3-1.1-.3-.7,0-1,.3-1,.7,0,1,2.5.4,2.5,1.9,0,.6-.5,1.2-1.6,1.2-.7-.2-1.3-.3-1.7-.7h0Z" fill="#263238"/>
    <path d="m213.6,119.5c0-.2.2-.4.4-.4h0c.2,0,.4.1.4.3h0c0,.2-.2.4-.4.4-.2.1-.4-.1-.4-.3h0Zm.1,1h.6v3.2h-.6v-3.2Z" fill="#263238"/>
    <path d="m218.4,120.5v2.7c.1.8-.4,1.5-1.2,1.6h-.4c-.5,0-1.1-.1-1.5-.5l.3-.4c.3.3.8.4,1.2.4.8,0,1.1-.4,1.1-1.1v-.2c-.3.3-.7.5-1.1.5-.9,0-1.5-.7-1.5-1.5,0-.9.7-1.5,1.5-1.5.4,0,.9.2,1.2.5v-.5h.4Zm-.5,1.5c.1-.6-.4-1.1-1-1.2s-1.1.4-1.2,1,.4,1.1,1,1.2h.1c.5.1,1-.3,1.1-.9v-.1h0Z" fill="#263238"/>
    <path d="m222.6,121.8v1.8h-.6v-1.8c0-.6-.3-.9-.9-.9-.5,0-1,.4-1,.9v1.7h-.6v-3.2h.6v.5c.3-.3.7-.5,1.1-.5.7,0,1.3.5,1.3,1.2.1.1.1.2.1.3h0Z" fill="#263238"/>
    <path d="m228.2,120.5v3.2h-.5v-.5c-.3.3-.7.5-1.1.5-.7.1-1.3-.4-1.4-1.1v-2.1h.6v1.8c0,.6.3.9.9.9.5,0,1-.4,1-.9v-1.7s.5-.1.5-.1Z" fill="#263238"/>
    <path d="m232.6,122.1c.1.8-.6,1.6-1.4,1.6h-.2c-.4,0-.8-.2-1.1-.5v1.6h-.6v-4.3h.6v.5c.3-.4.7-.6,1.1-.5.8,0,1.6.6,1.6,1.5,0,.6,0,.63,0,.1h0Zm-.6,0c0-.6-.5-1-1.1-1s-1,.5-1,1.1.5,1,1.1,1,1-.4,1.1-.9c-.1-.1-.1-.2-.1-.2Z" fill="#263238"/>
    <path d="m239.8,120.5l-1.2,3.2h-.6l-.9-2.4-.9,2.4h-.6l-1.2-3.2h.5l.9,2.5,1-2.5h.5l.9,2.6,1-2.6h.6Z" fill="#263238"/>
    <path d="m240.3,119.5c0-.2.2-.4.4-.4h0c.2,0,.4.2.4.4s-.2.4-.4.4-.4-.2-.4-.4Zm.1,1h.6v3.2h-.6v-3.2Z" fill="#263238"/>
    <path d="m243.8,123.5c-.2.2-.4.2-.7.2-.5.1-.9-.3-1-.8v-1.9h-.5v-.5h.6v-.7h.6v.7h.9v.5h-.9v1.7c0,.3.1.5.4.5h.1c.2,0,.3,0,.5-.1v.4h0Z" fill="#263238"/>
    <path d="m247.6,121.8v1.8h-.6v-1.8c0-.6-.3-.9-.9-.9-.5,0-1,.4-1,.9v1.7h-.6v-4.3h.6v1.7c.3-.3.7-.5,1.1-.5.7,0,1.3.5,1.3,1.1.07.13.1.23.1.3h0Z" fill="#263238"/>
    <path d="m253.2,121.5h.6v1.7c-.5.4-1,.5-1.6.5-1.2,0-2.1-1-2.1-2.2s1-2.1,2.2-2.1c.6,0,1.1.3,1.5.6l-.4.4c-.3-.3-.8-.5-1.2-.5-.9-.1-1.7.6-1.7,1.5-.1.9.6,1.7,1.5,1.7h.3c.4,0,.7-.1,1-.3,0,0-.1-1.3-.1-1.3Z" fill="#263238"/>
    <path d="m254.6,122.1c0-.9.7-1.7,1.6-1.7s1.7.7,1.7,1.6-.7,1.7-1.6,1.7h-.1c-.9,0-1.6-.7-1.6-1.6h0Zm2.7,0c0-.6-.5-1-1.1-1s-1,.5-1,1.1.5,1,1,1c.5.1,1-.3,1.1-.9v-.2h0Z" fill="#263238"/>
    <path d="m258.4,122.1c0-.9.7-1.7,1.6-1.7s1.7.7,1.7,1.6-.7,1.7-1.6,1.7h0c-.9,0-1.6-.6-1.6-1.5-.1,0-.1-.1-.1-.1Zm2.7,0c0-.6-.5-1-1.1-1s-1,.5-1,1.1.5,1,1.1,1,1-.4,1.1-.9c-.1-.1-.1-.2-.1-.2Z" fill="#263238"/>
    <path d="m265.5,120.5v2.7c.1.8-.4,1.5-1.2,1.6h-.4c-.5,0-1.1-.1-1.5-.5l.3-.4c.3.3.8.4,1.2.4.8,0,1.1-.4,1.1-1.1v-.2c-.3.3-.7.5-1.1.5-.9,0-1.5-.7-1.5-1.5,0-.9.7-1.5,1.5-1.5.4,0,.9.2,1.2.5v-.5h.4Zm-.5,1.5c-.1-.6-.6-1-1.2-1-.5.1-.9.5-1,1,.1.6.6,1,1.2,1,.5-.1.9-.5,1-1Z" fill="#263238"/>
    <path d="m266.6,119.2h.6v4.4h-.6v-4.4Z" fill="#263238"/>
    <path d="m271.2,122.3h-2.6c.1.6.6,1,1.1.9.3,0,.7-.1.9-.4l.3.4c-.6.7-1.7.7-2.4.1-.3-.3-.5-.7-.6-1.2,0-.9.6-1.6,1.5-1.6h.1c.9,0,1.6.6,1.6,1.5v.1c.1,0,.1.1.1.2Zm-2.6-.5h2c0-.5-.5-.9-1-.9s-1,.4-1,.9h0Z" fill="#263238"/>
    <path d="m201.8,121.9v.9h2.3c-.2.8-1.1,1.4-1.9,1.3-1.2.1-2.2-.9-2.2-2v-.1c0-.7.4-1.4,1-1.8.9-.6,2-.5,2.8.3.1.2.4.2.6.1h0c.2-.1.3-.4.2-.6,0,0,0-.1-.1-.1-.6-.6-1.4-1-2.3-1-1.7-.1-3.2,1.2-3.3,2.9s1.2,3.2,2.9,3.3h.4c1.5.1,2.8-1,2.9-2.5v-.7h-3.3,0Z" fill="#263238"/>
    <circle cx="316.4" cy="68.8" r="10.5" fill="#ff7200"/>
    <rect x="311.49" y="67.72" width="9.8" height="2.2" transform="translate(44.01 243.88) rotate(-45)" fill="#fff"/>
    <rect x="315.3" y="63.92" width="2.2" height="9.8" transform="translate(44.01 243.89) rotate(-45)" fill="#fff"/>
  </g>
  <g id="freepik--speech-bubble--inject-27">
    <path d="m86.8,345.2l-6.5-.8c-11.4,7.6-26.9,4.6-34.6-6.9-7.6-11.4-4.6-26.9,6.9-34.6,11.4-7.6,26.9-4.6,34.6,6.9,5.8,8.6,5.6,19.9-.5,28.4h0l.1,7Z" fill="#fff"/>
    <path d="m86.8,345.2v-1.9c0-1.2-.1-2.9-.1-5.2l.2.1h-.1v-.1c2.3-3.3,3.8-7.1,4.4-11.1.3-2.6.3-5.3-.2-7.9-.6-2.9-1.6-5.8-3.2-8.3-1.7-2.8-4-5.3-6.7-7.2-2.9-2.1-6.2-3.5-9.8-4.2-3.7-.7-7.6-.5-11.3.5-3.9,1.1-7.4,3.1-10.3,5.9-1.5,1.4-2.8,3-3.9,4.7-.5.9-1,1.7-1.4,2.6l-.6,1.4-.3.7-.2.7c-1.2,3.7-1.5,7.5-1,11.4.5,3.6,1.8,7,3.8,10,1.9,2.8,4.2,5.1,7,7,2.5,1.7,5.3,2.9,8.2,3.6l2.1.4c.7.1,1.3.1,2,.2,1.3.1,2.5.1,3.8-.1,4-.4,7.8-1.8,11.2-4h.1l4.8.6,1.3.2h.2-.4l-1.2-.1-4.8-.5h.1c-3.4,2.3-7.2,3.7-11.3,4.1-1.3.1-2.6.2-3.9.1-.7-.1-1.3-.1-2-.2l-2.2-.4c-3-.7-5.8-1.9-8.4-3.5-2.8-1.9-5.2-4.3-7.1-7.1-2.1-3.1-3.4-6.5-3.9-10.2-.6-3.9-.2-7.8,1-11.6l.2-.7.3-.7.6-1.4c.4-.9,1-1.8,1.5-2.7,1.1-1.7,2.5-3.3,4-4.8,2.9-2.8,6.5-4.9,10.5-6,3.8-1,7.7-1.2,11.5-.4,3.6.7,7,2.2,9.9,4.3,2.7,2,5,4.5,6.8,7.3,1.6,2.6,2.7,5.5,3.2,8.5.5,2.6.5,5.3.2,8-.6,4-2.1,7.9-4.5,11.2l-.1-.1h.1v6.6c0,.3-.1.3-.1.3h0Z" fill="#263238"/>
    <polygon points="55.5 325.3 58.6 321.9 65 327.3 76.8 315.1 79.9 318.2 64.8 333.5 55.5 325.3" fill="#ff7200"/>
  </g>
  <g id="freepik--Character--inject-27">
    <path d="m126.6,268.9c.6-2,2.2-3.6,4.1-4.2.8-.3,1.7-.5,2.2-1.1.3-.5.4-1.1.5-1.7.5-1.8,2.4-2.8,4.2-2.3h.1c.4.2.8.4,1.3.4,1.8,0,2.1-3.5,3.9-3.4-.5.6-.9,1.3-1,2.1-.1.8.4,1.6,1.1,1.8,1.9.5,2.9-3.2,4.9-3,1.1.1,1.9,1.5,2.9,1.2.4-.1.8-.4,1.1-.6,1.3-.7,2.9-.4,3.7.9.6,1,.7,2.6,1.9,2.9.7.1,1.5-.2,2.1-.7.5,1,.7,2.1.7,3.2,2.3.2,4,2.3,3.9,4.6,1.2.2,2.4.6,3.4,1.2,1.1.6,1.6,1.8,1.5,3.1-.1.3-.1.5-.1.8.1.3.2.6.4.8.8.8,1.5,1.7,2.1,2.7.5,1,.3,2.5-.8,3-.2.1-.6.1-.7.4-.1.2-.1.4,0,.6.3.8.7,1.5,1.2,2.1s.8,1.5.7,2.3-1,1.5-1.8,1.2c.9,1,1.7,2,2.6,3,.5.6,1,1.4.8,2.1-.3,1-1.8,1-2.6.5s-1.5-1.4-2.4-2c-.4-.2-.7-.4-1.1-.6-.2-.2-.4-.5-.8-.6-.6-.2-1,.8-.7,1.4.4.5,1,.9,1.6,1.1.6.3,1.2.8,1.2,1.5,0,.3-.2.6-.2.9-.1,1.1,1.6,1.3,2.3,2.2.4.8.4,1.6,0,2.4-.3.9-1.3,2.1-2.1,1.5-.3-.2-.4-.6-.6-.8-.3-.2-.7-.4-1.1-.5-1-.3-1.8-.9-2.5-1.6,1.2.6,2.6,1.4,2.6,2.8-.1.6-.2,1.1-.4,1.6-.3,1-.3,2.2-.6,3.2-.2,1.1-1.2,1.9-2.3,2,.9,1,.9,2.6-.1,3.5-.7.6-1.6.8-2.5.5-.3-.1-.6-.2-.9-.2-.3.1-.6.2-.9.5-1.6,1.2-3.8,1.3-5.6.4l.7-.7c-1.8.8-3.8,1.1-5.7,1-1.9-.3-3.8-1.8-3.9-3.8,0-.8.3-1.9-.4-2.4-.5-.3-1.1-.4-1.7-.3l-7.3.9c-1.2.2-2.4.2-3.5-.2-1.1-.5-1.7-1.8-1.2-2.9h0c-1-.7-2.1-1.2-3.3-1.3-1.3-.1-2.7.2-4,.1-1.4.1-2.6-.7-3.3-1.9-.5-1.2.7-3,1.9-2.5-1.1-1.7-4.3-.3-5.5-1.9-.9-1.4.6-3,1-4.6-.4-.4-1.1-.5-1.6-.9-.9-.8-.4-2.4.4-3.4s1.8-2.1,1.5-3.3-1.9-2.1-1.8-3.4c.1-.7.7-1.3,1.5-1.2-.2-2.5,4.5-2.8,4.7-5.3,0-.2-.1-.4-.2-.5s-.2-.2-.4-.3c-.8-.3-1.6-.4-2.4-.5-.8-.2-1.6-.7-1.7-1.5s1.2-1.4,1.6-.7c.4-.9,1.5-1.3,2.4-.8.1.1.3.1.4.2.3-.9,1.2-1.4,2.1-1.3s1.7.5,2.4,1" fill="#263238"/>
    <path d="m147.7,287.1c-2.2-2.6-5.6-3.9-8.9-4.5-1.4-.3-2.9-.3-4.2.1-1.4.4-2.4,1.6-2.6,3.1l1.3,2c1.5,3.5,5.5,5,8.4,7.5,1.2,1.1,2.5,2.5,4.2,2.4.9-.1,1.7-.5,2.2-1.2,2.2-2.5,1.7-6.8-.4-9.4Z" fill="#ff7200"/>
    <path d="m156,302.5c.5-3.6-1.7-7.1-5.2-8.3.4-2.2-1.3-4.3-3.4-5.2s-4.4-.7-6.6-.6c-3.7-4-9.9-4.4-14.1-.9-4.2-2.2-9.4,0-12.8,3.2-.8.9-1.6,1.6-2.6,2.2-.8.3-1.6.6-2.4.9-4.3,1.6-6.8,6.6-6.4,11.3.1.7.2,1.5.1,2.2-.3.9-.7,1.8-1.2,2.7-.9,2-.8,4.2.1,6.1.8,1.6,2.2,3,2.3,4.8.1.9-.2,1.8-.1,2.7.4,2.6,4,3.5,4.8,6,.2.5.2,1,.3,1.6.2,1.1.9,2,1.8,2.7.7.5,1.5.8,2,1.5.3.6.4,1.2.6,1.8.4,1.5,6.1,5.1,7.7,5.2l34.8-18.3c2.4-2,3.2-5.4,2-8.3-.2-.4-.4-.9-.4-1.4.1-.4.3-.8.6-1.1,1.6-2.4.2-5.6-1.4-8-.2-.3-.4-.7-.6-1.1,0-.5,0-1.1.1-1.7h0Z" fill="#263238"/>
    <path d="m146.1,307.9c-3.7-6.7-10.8-10.9-18.5-10.9-3.5.2-6.9,1.1-10,2.6-3,1.2-5.5,3.4-7.2,6.1-1.7,1.5-5.2,11.6-1.9,18.8,3.7,7.9,8.7,17.5,12.7,22.7,8.2,10.5,17.8,7.1,17.8,7.1l4.3,8.9,12,10.2,10.7-17.5,2.3-3.8-22.2-44.2h0Z" fill="#ae7461"/>
    <path d="m136.6,336.4c-.8-1.2-2.5-1.5-3.7-.7-.3.2-.6.5-.8.8-.6,1-.2,2.1.5,3.2h0c.8.4,1.5.9,2.4.6l.4-.2c.6-.3,1.1-.9,1.4-1.5.3-.7.2-1.6-.2-2.2h0Z" fill="#6f4439"/>
    <path d="m117.3,332.4c.4.8,1.4,1.1,2.2.7s1.2-1.3.8-2.1h0c-.4-.8-1.4-1.1-2.2-.7-.9.3-1.2,1.2-.8,2.1,0-.1,0,0,0,0Z" fill="#263238"/>
    <path d="m113.6,327.4c.3.1,1-1.4,2.5-2.2s3.2-.7,3.2-1c0-.1-.3-.4-1.1-.5-.9-.1-1.9.1-2.7.6-.8.4-1.5,1.1-1.9,2-.2.7-.1,1.1,0,1.1Z" fill="#263238"/>
    <path d="m129.8,334.9c-1,.2-1.9.5-2.8,1-.4.2-.9.3-1.1.1-.3-.4-.4-.9-.4-1.4-.2-1.2-.3-2.4-.5-3.8-.8-5.3-1.5-9.6-1.8-9.6s.2,4.4,1,9.7c.2,1.3.4,2.5.6,3.7,0,.6.2,1.2.7,1.7.3.2.6.3,1,.2.3-.1.5-.2.7-.3.9-.3,1.8-.8,2.6-1.3h0Z" fill="#263238"/>
    <path d="m139,354.3c5.5-2.9,10-7.3,13.2-12.6,0,0,.4,10.4-11.8,15.6l-1.4-3Z" fill="#6f4439"/>
    <path d="m111.5,324.1c.5.2,1.6-.7,3-1.4,1.4-.7,2.9-.9,3-1.5,0-.2-.3-.5-1-.7-.9-.1-1.9,0-2.8.5-.9.4-1.6,1-2.1,1.8-.3.7-.3,1.2-.1,1.3h0Z" fill="#263238"/>
    <path d="m134.9,323.3c.4.8.1,1.8-.7,2.2-.8.5-1.8.2-2.2-.5h0c-.4-.8-.1-1.8.7-2.2.7-.5,1.7-.3,2.2.5h0Z" fill="#263238"/>
    <path d="m135.7,316.1c-.1.3-1.7,0-3.3.8s-2.4,2.2-2.7,2.1c-.1,0-.1-.5.2-1.1.4-.8,1.1-1.5,2-1.9.8-.4,1.8-.6,2.7-.4.8.1,1.1.4,1.1.5Z" fill="#263238"/>
    <path d="m132.3,309.8c-.1.5-1.6.8-3.1,1.5s-2.6,1.6-3.1,1.4c-.2-.1-.2-.6.2-1.2.5-.8,1.3-1.5,2.2-1.9.9-.4,1.9-.6,2.8-.5.7.2,1.1.5,1,.7Z" fill="#263238"/>
    <path d="m150.3,319.8c-.5-.9-.6-3.4.2-4,2.1-1.6,6.2-3.7,9.4,2.1,4.4,7.8-4.4,10.6-4.5,10.4s-3.5-5.5-5.1-8.5h0Z" fill="#ae7461"/>
    <path d="m156,324.2h.5c.4-.1.7-.2,1-.5.6-.8.6-2.5-.1-3.9-.3-.7-.9-1.3-1.5-1.7-.4-.4-1-.6-1.6-.5-.4.1-.6.4-.6.8,0,.3.1.4.1.4,0,0-.2,0-.4-.4-.1-.2-.1-.5,0-.7.1-.3.4-.5.6-.6.7-.2,1.5-.1,2.1.4.7.5,1.3,1.2,1.7,1.9.8,1.6.9,3.5-.1,4.5-.4.4-.9.5-1.4.5-.2-.1-.4-.2-.3-.2h0Z" fill="#6f4439"/>
    <path d="m106.9,325.5c1.1-1.7,1.2-3.8.2-5.6,1.2-.3,1.5-2.2,1.7-3.5s.6-2.1,0-3.2c-.2-.2-.2-.4-.3-.7,0-.4.3-.7.6-1,1.4-1.5,1.9-3.6,1.4-5.6,2.1-.2,4.1-.9,5.9-2.1,2.4,1.2,5.3.2,6.5-2.2.3-.6.5-1.4.5-2.1,1.1.7,2.4.8,3.6.5,1.2-.4,2.3-.9,3.4-1.6.8,2.4,3.3,3.9,5.8,3.5.3-.1.7-.1,1,0,.3.2.3.6.4.9.4,2.2,2.4,3.6,4.6,3.3h.2c-.6,1.6.2,3.3,1.8,3.8.2.1.5.1.7.2.4,0,.9,0,1,.4v.4c-.2,1.1-.2,2.2.2,3.3.4,1.1,1.6,1.6,2.7,1.2-.3.7-.3,1.5-.1,2.3.3.6,1.1.9,1.7.6.1,0,.2-.1.3-.2.2-.2,3.7-3.2,3.7-3.5.6-4.2-4.1-6-6.3-9.6-2.4-3.6-5.5-6.6-9.2-8.7-1.5-1-3.2-1.7-4.9-2.2-2-.5-4-.8-6.1-.8-2.7-.3-5.3-.1-7.9.5-4.8,1.3-8.3,5.3-11.3,9.3-1.2,1.5-2.1,3.1-2.9,4.9-.7,2.1-1.1,4.4-1,6.7-.2,3.3.3,6.6,1.5,9.6" fill="#263238"/>
    <path d="m103.8,323.7c-.1-.4-.1-.7,0-1.1,0-.4.1-.8.1-1.3,0-.6-.1-1.2-.4-1.7-.3-.7-.7-1.3-1.1-1.9-.5-.7-.9-1.5-1.2-2.4-.5-1.5-.5-3.2,0-4.7.2-.6.5-1.1.7-1.6.3-.5.5-1.1.6-1.7s0-1.3-.1-1.9c-.3-2.8.4-5.7,2-8.1.4-.6.9-1.2,1.5-1.8.6-.5,1.2-1,1.9-1.4.4-.2.7-.4,1.1-.5s.8-.2,1.2-.4c.8-.2,1.5-.6,2.1-1.1s1.2-1.2,1.8-1.7c.6-.6,1.3-1.1,2-1.6s1.5-.9,2.3-1.3,1.7-.6,2.5-.8c1.8-.4,3.7-.3,5.4.4l.5.2h-.1c2.1-1.8,4.8-2.6,7.5-2.3,2.6.2,5,1.4,6.7,3.3h-.1c1.2-.1,2.4-.1,3.6,0,1.2.1,2.3.3,3.4.8,1,.5,1.9,1.2,2.5,2.2.6.9.9,2,.7,3.1l-.1-.1c1.6.5,3.1,1.6,4,3,.9,1.3,1.3,2.8,1.3,4.4,0,.4,0,.7-.1,1.1-.1.3-.1.7-.2,1,0,.3,0,.6.1.9s.3.5.5.8c.6.9,1.1,1.9,1.6,3,.3.9.5,1.8.5,2.7,0,.7-.2,1.3-.5,2-.3.5-.6.8-.7,1-.1.1-.1.3-.2.4,0-.1.1-.3.1-.4.1-.3.4-.6.6-1.1.3-.6.5-1.3.5-1.9,0-.9-.2-1.8-.5-2.6-.4-1.1-.9-2.1-1.6-3-.2-.3-.3-.5-.5-.8-.1-.3-.2-.7-.2-1,0-.4.1-.7.1-1,.1-.3.1-.7.1-1,0-1.5-.5-3-1.3-4.2-.9-1.4-2.3-2.4-3.9-2.9h-.1v-.5c.2-1-.1-2.1-.7-2.9-.6-.9-1.4-1.6-2.4-2.1-1-.4-2.1-.7-3.3-.7-1.2-.1-2.3,0-3.5.1h-.1c-3.7-3.9-9.7-4.3-13.9-.9l-.1.1h-.1l-.5-.2c-1.7-.7-3.5-.8-5.2-.4-.9.2-1.7.5-2.5.8-.8.4-1.5.8-2.2,1.3s-1.4,1-2,1.6-1.2,1.2-1.8,1.7c-.3.3-.6.5-1,.7s-.8.4-1.2.5c-.4.1-.8.2-1.1.4-.4.1-.7.3-1.1.5-.7.4-1.3.8-1.9,1.3s-1.1,1.1-1.5,1.7c-.8,1.2-1.4,2.5-1.7,3.9-.3,1.3-.4,2.7-.2,4,.1.6.1,1.3,0,1.9s-.3,1.2-.7,1.7c-.3.5-.5,1-.7,1.6-.2.5-.3,1.1-.3,1.6-.1,1,0,2,.3,3,.3.8.7,1.6,1.2,2.3.4.6.8,1.3,1.1,2,.2.6.4,1.2.3,1.8,0,.5-.1,1-.1,1.3v.8c.2,0,.3.03.3.1h0Z" fill="#455a64"/>
    <path d="m122.1,287.8h-.8c-.7,0-1.4.2-2,.4-.9.4-1.8,1-2.4,1.8-.7,1-1.2,2.2-1.2,3.4,0,.4,0,.7.1,1.1,0,.3.2.6.5.8l.3.2-.4.1c-.9.2-1.8.8-2.3,1.6-.4.7-.6,1.4-.5,2.2,0,.5.2,1,.4,1.5.2.3.3.5.3.5l.1-.2c-.1-.1-.2-.2-.2-.4-.3-.5-.4-1-.5-1.5-.1-.8.1-1.6.5-2.3.5-.9,1.4-1.5,2.4-1.8v.2c-.4-.2-.6-.6-.7-1s-.1-.8-.1-1.2c0-1.3.5-2.5,1.3-3.6.6-.8,1.5-1.4,2.5-1.8.7-.3,1.3-.4,2.1-.4h.6v.4h0Z" fill="#455a64"/>
    <path d="m139.8,289.8c0,.1-.1.3-.1.4-.1.4-.3.8-.6,1.1-.3.5-.8,1-1.3,1.3-.7.4-1.5.6-2.3.5l.2-.1c0,.1,0,.3-.1.5s-.1.3-.1.5c-.2.9-.7,1.6-1.3,2.3-.5.5-1.1,1-1.7,1.3-.4.2-.9.3-1.4.4h-.5c.6-.1,1.3-.3,1.8-.6.6-.3,1.2-.7,1.6-1.3.6-.6,1-1.4,1.2-2.2,0-.1.1-.3.1-.4v-.5h.1c.7.1,1.5,0,2.1-.4.5-.3.9-.7,1.3-1.2.8-1,1-1.6,1-1.6h0Z" fill="#455a64"/>
    <path d="m148,294.9l.1.1v.5c-.1.6-.4,1.1-.8,1.5-.7.6-1.5.9-2.4,1-.5.1-1,.2-1.5.2-.6.1-1.2-.1-1.6-.4l-.1-.1h.2c-.4,1-.9,1.9-1.6,2.7-.5.7-1.3,1.2-2.1,1.4-.5.2-1.1.2-1.7.1-.2,0-.3-.1-.4-.1s-.1-.1-.1-.1c0,0,.2.1.6.1.5.1,1.1,0,1.6-.2.8-.3,1.5-.8,2-1.4.6-.8,1.1-1.7,1.5-2.6l.1-.2.1.1.1.1c.4.3.9.4,1.4.3.5,0,1-.1,1.5-.2.8-.1,1.6-.4,2.3-.9.4-.4.7-.9.8-1.4v-.5h0Z" fill="#455a64"/>
    <path d="m141,262.2s-.1.1-.3.3c-.3.3-.5.6-.6,1-.1.6-.1,1.3.2,1.8.4.7.9,1.4,1.5,2l.1.1-.1.1c-1,.5-1.8,1.3-2.3,2.3-.6,1.1-.6,2.4,0,3.6.5,1,1.4,1.8,2.6,2l.4.1-.3.2c-1.1.6-1.9,1.7-2.3,2.9-.2,1-.1,2.1.3,3,.3.6.7,1.1,1.2,1.6.4.3.6.4.6.5l-.2-.1c-.2-.1-.3-.2-.5-.3-1.4-1.1-2.1-2.9-1.7-4.7.3-1.3,1.2-2.5,2.4-3.1v.2c-1.2-.2-2.2-1-2.8-2.1-.3-.6-.5-1.3-.5-2,0-.6.2-1.3.4-1.9.5-1,1.4-1.9,2.4-2.4v.2c-.6-.6-1.1-1.3-1.5-2.1-.3-.6-.4-1.3-.2-1.9.1-.4.3-.8.6-1.1.1-.1.2-.1.3-.2h.3Z" fill="#455a64"/>
    <path d="m164.4,271.5s0,.1-.1.1c-.1.1-.2.3-.3.4-.4.5-.9.9-1.4,1.2-.8.5-1.7.9-2.6,1-1.2.2-2.4.1-3.6-.3l.2-.1c0,1.7-.9,3.3-2.2,4.4-1.5,1.1-3.5,1.1-5,.1l.2-.1c.1.6,0,1.3-.2,1.9-.2.5-.5,1-.9,1.4-.6.7-1.4,1.2-2.3,1.6-.5.2-1.1.4-1.7.6-.2.1-.4.1-.6.1.2-.1.4-.2.6-.2.4-.1.9-.3,1.6-.7.8-.4,1.6-.9,2.2-1.6.8-.8,1.1-2,1-3.1l-.1-.3.2.2c1.4,1,3.3,1,4.7-.1,1.3-1,2.1-2.5,2.1-4.1v-.2l.2.1c1.1.4,2.3.5,3.5.3.9-.2,1.8-.5,2.6-1,.7-.4,1.3-.9,1.9-1.6h0Z" fill="#455a64"/>
    <path d="m162.4,287.6v.2c-.1.2-.2.3-.3.4-.6.4-1.2.6-1.9.7-1,.1-2-.1-2.9-.6-1.1-.6-1.9-1.6-2.3-2.8h.2c-.7,1-1.7,1.8-2.9,2.2-1,.3-2,.4-3,.3-.7-.1-1.3-.3-1.9-.5-.2-.1-.4-.2-.6-.4.8.3,1.7.6,2.6.7,1,.1,1.9,0,2.8-.3,1.1-.4,2.1-1.1,2.8-2.1l.1-.2.1.3h0c.7,2.1,2.7,3.5,4.9,3.3.7,0,1.3-.2,1.9-.5.2-.3.3-.5.4-.7h0Z" fill="#455a64"/>
    <path d="m124,271.9c.2.9.5,1.8,1,2.6.5.9,1.3,1.6,2.1,2.1,1.1.6,2.3.9,3.5.8.7,0,1.4-.2,2.1-.5l.1-.1v.2c.2,1,.6,1.9,1.1,2.7.4.7.9,1.2,1.5,1.8.2.2.5.4.7.5s.4.2.6.1c.1,0,.2-.1.3-.3v-.1.1c0,.2-.1.3-.3.4s-.5.1-.7-.1c-.3-.1-.5-.3-.8-.5-.6-.5-1.2-1.1-1.6-1.8-.6-.8-1-1.8-1.2-2.8l.2.1c-.7.3-1.4.5-2.1.5-2.4.2-4.6-1-5.9-3-.4-.6-.6-1.3-.7-1.9,0-.2-.1-.4-.1-.6.13-.07.2-.13.2-.2h0Z" fill="#455a64"/>
    <path d="m135.4,334.2c-.3.1.2,1.7-.8,3.3s-2.9,2-2.8,2.2.5.2,1.2,0c1-.3,1.8-.9,2.4-1.8.5-.8.7-1.8.6-2.8-.2-.6-.5-1-.6-.9h0Z" fill="#263238"/>
    <path d="m143.1,362.5s7.1,46.7,15.6,54.9c9.1,8.8,25.5,13.1,25.5,13.1,0,0,21.8,8.6,29.4,6.8l13.7-47c-.5-1.7-2-2.8-3.7-2.8-1.4,0-5.3,1.8-7.1,1.4-7.1-1.7-23.7-27.2-23.7-27.2,0,0-15.8-21.8-29.3-19.8-9.2,1.4-13.1,5.5-16.6,14.8-.8,2-2.1,4-3.8,5.8h0Z" fill="#ff7200"/>
    <polygon points="143.1 362.5 137 393.6 108.5 385.5 103.6 402.1 151.7 423.8 161.2 384.5 143.1 362.5" fill="#ff7200"/>
    <path d="m207.4,417.4c-.1,0,2-5.9,4.7-13s5-12.9,5.2-12.8-2,5.9-4.7,13-5.1,12.8-5.2,12.8Z" fill="#263238"/>
    <path d="m206.9,410.9c1.6-5.3,3.5-10.5,5.7-15.5-.7,2.7-1.6,5.3-2.6,7.9-.9,2.5-1.9,5.1-3.1,7.6h0Z" fill="#263238"/>
    <path d="m142.4,371.5c.3,2.4.4,4.9.4,7.3.1,2,.2,3.8.2,5.1.1.7.1,1.4.1,2.1-.3-.7-.4-1.4-.4-2.1-.2-1.3-.3-3.1-.4-5.1s-.1-3.9-.1-5.2c0-.7,0-1.4.2-2.1h0Z" fill="#263238"/>
    <g opacity=".3">
      <polygon points="126.7 412.6 137.3 408 143.1 387.4 139.2 412.7 131.4 414.7 126.7 412.6"/>
    </g>
    <g opacity=".3">
      <path d="m215.1,395.6c-.8-.3-1.6-.1-2.2.5-.5.6-1,1.4-1.2,2.2-2.1,5.3-4.2,10.6-6.3,15.9-.4.7-.5,1.6-.5,2.4.1.8.7,1.6,1.5,1.5s1.1-.9,1.4-1.5c3-6.7,5.5-13.7,7.6-20.8"/>
    </g>
    <path d="m64.5,389.7s3.8-5.1,6.1-6.2c1.8-.9,12.4-2.8,13.7-2.5s24.2,5.3,24.2,5.3l-3,10-1.5-.7s-4.6,2.3-8.2,1.2c-2.8-1.1-5.5-2.5-8-4.2l-3.2,1.2s3.5,1.1,3.7,2.5-1.7,1.6-1.7,1.6l-.1.6c-.2,1.1-1.3,1.8-2.4,1.6-2-.4-5-1.1-5.6-1.8-.3-.3-1.7-2.9-1.7-2.9-2.2-1.5-2.1-3-2-3.9.2-1.8,2.2-3.9,2.2-3.9l-3.9-.2c.1,0-6.1,6.3-8.6,2.3Z" fill="#ae7461"/>
    <path d="m96.7,388c-4.7,0-9.1-.6-12.5.2-.9.2-1.8.6-2.5,1.2-.7.7-.9,1.7-.5,2.6.5.7,1.2,1.1,2.1,1.1.8,0,1.6-.1,2.4-.1,1.9.1,3.8.6,5.5,1.7,1.7,1,3.4,1.8,5.3,2.3,1.9.4,6.3,0,7.6-1.4" fill="#ae7461"/>
    <path d="m104.1,395.6s-.1.1-.3.3c-.3.3-.7.5-1.1.6-1.4.5-3,.8-4.5.8-1.1,0-2.1-.2-3.2-.5-1.1-.4-2.2-1-3.3-1.5-1.1-.6-2.4-1.2-3.6-1.6-.6-.2-1.3-.3-2-.4-.7,0-1.4,0-2.2.1-.8.1-1.6-.1-2.3-.4-.7-.4-1.1-1.2-1-2,.1-.7.5-1.4,1.1-1.9.6-.4,1.2-.7,1.8-.9,2.2-.5,4.5-.7,6.8-.5l4.6.2c.6,0,1.1,0,1.7.1-.1,0-.3.1-.4,0h-1.2c-1.1,0-2.6,0-4.6-.1-2.2-.1-4.5.1-6.7.6-.6.2-1.2.4-1.7.8s-.8.9-.9,1.6c-.1.6.2,1.2.8,1.5.6.3,1.3.5,2,.4s1.5-.1,2.2-.1,1.4.2,2.1.4c1.3.4,2.5,1,3.7,1.7,2.2,1.2,4.3,2.2,6.2,2.1,1.5,0,3-.2,4.4-.6.7-.2,1.2-.4,1.6-.7Z" fill="#6f4439"/>
    <path d="m81.8,386.9c0,.1-.4.3-1.2.4-1,.2-2,.3-3,.3-1.4.1-2.9,0-4.3-.3,1.4-.2,2.9-.3,4.3-.2,1.2,0,2.2-.1,3-.1.4-.1.8-.1,1.2-.1h0Z" fill="#6f4439"/>
    <path d="m86.9,397.9c-3.6.6-7.3-.4-10.2-2.7,1.6.7,3.3,1.4,5,1.9,1.7.4,3.5.6,5.2.8h0Z" fill="#6f4439"/>
    <path d="m80.5,392.7c.8-.2,1.6-.1,2.3.2.8.1,1.5.4,2.1.9-.8,0-1.5-.1-2.2-.4-.7-.2-1.5-.4-2.2-.7Z" fill="#6f4439"/>
    <path d="m33.5,400.5l25.2-12.3c.4-.2.9-.2,1.3.1l27.7,17.6c.6.4.8,1.3.4,1.9l-.1.1-14.7,19.5-39.8-26.9h0Z" fill="#263238"/>
    <polygon points="36.7 401.4 70.6 423.8 86 406.6 59.3 390 36.7 401.4" fill="#fff"/>
    <polygon points="49.9 394.7 79 414.4 70.6 423.8 36.7 401.4 49.9 394.7" fill="#e0e0e0"/>
    <path d="m64.8,395.3l-4.5,3.6c-.3.3-.7.2-1-.1h0c-.3-.3-.2-.7.1-1h0l4.5-3.6c.3-.3.7-.2,1,.1h0c.2.3.2.8-.1,1h0Z" fill="#e0e0e0"/>
    <path d="m66.8,397l-4.4,3.6c-.3.3-.7.2-1-.1h0c-.3-.3-.2-.7.1-1h0l4.5-3.6c.3-.3.7-.2,1,.1h0c.1.2.1.7-.2,1,0-.1,0,0,0,0Z" fill="#e0e0e0"/>
    <path d="m68.9,398.9l-4.5,3.6c-.3.3-.7.2-.9,0l-.1-.1h0c-.3-.3-.2-.7,0-.9l.1-.1,4.4-3.6c.3-.3.7-.2,1,.1h0c.4.3.4.7,0,1,.1,0,0,0,0,0Z" fill="#e0e0e0"/>
    <path d="m69.8,401.5l-2.5,2.1c-.3.2-.7.2-1-.1h0c-.3-.3-.2-.7.1-1h0l2.5-2.1c.3-.2.7-.2,1,.1h0c.3.3.2.7-.1,1h0Z" fill="#e0e0e0"/>
    <path d="m61,394.7l-2.9,2.1c-.3.2-.7.2-1-.1v-.1h0c-.2-.3-.1-.7.2-.9h0l3-2.1c.3-.2.7-.2,1,.1h0c.1.4,0,.8-.3,1h0Z" fill="#ff7200"/>
    <path d="m76.2,404.6l-2.5,2.5c-.3.3-.7.3-1,0h0c-.3-.3-.3-.7,0-1h0l2.5-2.5c.3-.3.7-.3,1,0h0c.3.3.3.7,0,1h0Z" fill="#ff7200"/>
    <path d="m73.4,427.5h0c-.7,1-2,1.3-3.1.7h0l-37.1-23.8c-1-.7-1.3-2-.7-3.1h0c.7-1,2-1.3,3.1-.7l37.1,23.7c1,.8,1.3,2.1.7,3.2h0Z" fill="#263238"/>
    <path d="m358.2,354.7l1.1-26.4s27-5.9,27.7-10.7l-51-5.9-3.4,41.1,25.6,1.9h0Z" fill="#455a64"/>
    <g opacity=".6">
      <path d="m343.3,329.3c-1-.4-1.5-1.5-1.3-2.5.3-1,1.4-1.6,2.5-1.3,1.1.4,1.6,1.6,1.3,2.6-.5,1-1.7,1.4-2.7,1" fill="#fff"/>
    </g>
    <path d="m336,311.7l-.3,4.1,49.4,3.9c1.1-.4,1.9-1.4,2.2-2.6l-51.3-5.4h0Z" fill="#263238"/>
    <path d="m360.1,328.6c0-.2-1.2-.5-2.4-1.4s-1.8-2-2-1.9,0,1.5,1.5,2.6,2.9,1,2.9.7h0Z" fill="#263238"/>
    <path d="m365.6,326.8c.1-.2-1-.8-1.7-1.9s-.9-2.3-1.2-2.3-.5,1.4.5,2.8,2.4,1.7,2.4,1.4h0Z" fill="#263238"/>
    <path d="m369.2,320.7c-.2-.1-.7,1.1-.1,2.6s1.7,2,1.8,1.9-.5-1-1-2.2-.5-2.3-.7-2.3h0Z" fill="#263238"/>
    <path d="m359.2,334.6c-.1-.2-1.3,0-2.7-.2s-2.5-.7-2.6-.5.8,1.2,2.5,1.4,2.9-.5,2.8-.7h0Z" fill="#263238"/>
    <g opacity=".3">
      <path d="m358.2,354.7l1.1-26.4s27-5.9,27.7-10.7l-51-5.9-3.4,41.1,25.6,1.9h0Z"/>
    </g>
    <path d="m362.5,335.4c-.4.8-3.5,77.5-3.5,77.5l-26.4-10.4c-3-6.4-4.4-13.6-3.9-20.7.8-11.9,7.8-48.6,7.8-48.6l26,2.2Z" fill="#263238"/>
    <path d="m355.4,356.4l-12.8-23.2s20.1-19,18.1-23.5l-46.5,21.4,18.4,36.9,22.8-11.6h0Z" fill="#455a64"/>
    <g opacity=".6">
      <path d="m329.5,342.4c-1.1.2-2.1-.5-2.4-1.5-.2-1,.4-2.1,1.4-2.4,1.1-.2,2.2.5,2.5,1.6.1,1.1-.7,2.1-1.8,2.3" fill="#fff"/>
    </g>
    <path d="m314.2,331.1l1.9,3.7,44.3-22.2c.7-.9.9-2.2.5-3.3l-46.7,21.8h0Z" fill="#263238"/>
    <path d="m343.5,333.1c-.1-.2-1.3.2-2.8.1s-2.5-.8-2.7-.6.8,1.3,2.6,1.5,3.1-.8,2.9-1Z" fill="#263238"/>
    <path d="m347.3,328.7c-.1-.2-1.2-.1-2.5-.7s-2-1.5-2.2-1.3.3,1.5,1.8,2.1,3,.1,2.9-.1h0Z" fill="#263238"/>
    <path d="m347.2,321.6c-.2,0,0,1.3,1.2,2.3s2.5.9,2.5.7-1-.6-1.9-1.3-1.6-1.8-1.8-1.7h0Z" fill="#263238"/>
    <path d="m345.8,338.7c-.2-.2-1.1.7-2.4,1.2s-2.5.7-2.5.9,1.3.6,2.9-.1,2.3-1.9,2-2Z" fill="#263238"/>
    <g opacity=".3">
      <polygon points="352.9 351.8 350.6 347.7 328.2 359.3 330.1 363.1 352.9 351.8"/>
    </g>
    <path d="m227.3,390.1l7.4-2.4s13.6-10.9,28.8-9.5c9.7,1.1,19,4,27.6,8.6l15.9,8.7,40.8,10.9-23.6-55.2,23.2-9.6s23.2,37.3,30.2,47.8,12.3,21.1,13.1,29.8-5.7,20.8-23.6,22.8-94.6-3.1-94.6-3.1l-59-1.7,13.8-47.1h0Z" fill="#263238"/>
    <path d="m227.3,390.1s-.1.3-.2.8-.4,1.3-.7,2.4c-.6,2.1-1.5,5.2-2.6,9.2-2.3,8-5.7,19.8-10,34.6l-.1-.2,42.2,1.2c15.9.2,33.5,1.6,52.4,2.5,9.5.5,19.3.9,29.4,1.2,5,.1,10.2.2,15.4.3,2.6,0,5.2,0,7.8-.1,1.3,0,2.6-.1,3.9-.2s2.6-.2,3.9-.4c5.3-.7,10.4-2.8,14.6-6.2,4.3-3.5,6.9-8.6,7.3-14v-2c-.1-.7-.1-1.4-.3-2.1-.2-1.4-.5-2.7-.9-4-.8-2.7-1.8-5.3-3-7.9-2.4-5.2-5.2-10.1-8.4-14.9-5.5-8.2-10.6-16.5-15.7-24.6l-15-24,.3.1-23.2,9.6.1-.3,23.4,55.4.2.4-.4-.1-40.7-10.9h0l-12.2-6.7c-2-1.1-3.9-2.2-5.8-3.1s-3.8-1.8-5.7-2.6c-6.8-2.8-14.1-4.5-21.5-5-3.1-.1-6.2.3-9.2,1-2.6.6-5.1,1.5-7.5,2.6-3.6,1.6-7.1,3.6-10.2,5.9h0l-5.6,1.7-2,.4,1.8-.5,5.6-1.8h0c3.2-2.4,6.6-4.4,10.2-6,2.4-1.1,5-2,7.5-2.6,3-.7,6.1-1.1,9.2-1,7.4.5,14.7,2.2,21.6,5,1.9.8,3.8,1.6,5.8,2.5,1.9,1,3.8,2.1,5.8,3.1l12.2,6.7h0l40.8,10.9-.3.3-23.5-55.4-.1-.2.2-.1,23.2-9.6.2-.1.1.2,15,24c5.1,8.1,10.3,16.4,15.7,24.6,3.2,4.7,6,9.7,8.4,14.9,1.2,2.6,2.2,5.2,3,7.9.4,1.4.7,2.7.9,4.1.1.7.2,1.4.3,2.1s.1,1.4,0,2.1c-.4,5.6-3.1,10.9-7.5,14.4-4.3,3.4-9.4,5.6-14.8,6.3-1.3.2-2.7.4-4,.4-1.3.1-2.6.2-4,.2-2.6.1-5.2.1-7.9.1-5.2,0-10.3-.1-15.4-.3-10.1-.3-19.9-.8-29.4-1.2-18.9-.9-36.5-2.4-52.4-2.6l-42.2-1.3h-.2l10.2-34.6,2.7-9.2c.3-1,.5-1.8.7-2.4s.6-.9.6-.9h0Z" fill="#455a64"/>
    <path d="m344.9,405.6c.3,0,.6,0,.9.1.6.1,1.5.3,2.5.6,2.8.6,5.5,1.6,8.1,2.8,2.6,1.2,5,3,6.8,5.2.3.4.6.8.9,1.2.2.3.4.7.6,1s.3.6.4.9c-.1,0-.7-1.2-2.2-2.8-1.9-2.1-4.2-3.8-6.8-5-2.6-1.2-5.3-2.2-8-2.9-1-.3-2.1-.7-3.2-1.1h0Z" fill="#455a64"/>
    <path d="m90.4,423.1s-10.4-5.9-12.5-6.1c-2.9-.2-15.7.3-17.3.2-.8-.1-1.6.6-1.6,1.4,0,.3.1.7.3,1,.6,1,2,2.6,6,2.5,2.5-.2,4.9.2,7.2,1,1,.4.7,1.6.7,1.6,0,0-5.8.3-7.4-.1-2.3-.5-9.9-5.7-9.9-5.7l-3-1.9s-1.3,1.5.7,4.4c1.4,1.9,2.9,3.7,4.5,5.5,0,0-2.8,1.7-.4,4.4,0,0-1.8,3.3,2.2,5.2.6,1.4,1.5,2.7,2.6,3.7,1.2,1,4.3.8,6.2.9,2.8,0,5.6-.2,8.4-.7,2.5-.5,5-1.2,7.4-2l9.5.5.9-16.1-4.5.3h0Z" fill="#ae7461"/>
    <path d="m64,430.2c-1.3-.2-2.5-.7-3.6-1.4-1.2-.5-2.3-1.3-3.2-2.2,1.2.5,2.4,1.1,3.4,1.8,1.2.5,2.3,1.1,3.4,1.8h0Z" fill="#6f4439"/>
    <path d="m62.8,433.8c-1.1-.1-2.1-.4-3-1-1-.4-1.8-1.1-2.5-1.9.9.4,1.9.9,2.7,1.4,1,.4,1.9.9,2.8,1.5Z" fill="#6f4439"/>
    <path d="m63,437.7c-.9,0-1.8-.2-2.6-.7-.9-.3-1.6-.9-2.1-1.7.8.3,1.6.7,2.4,1.2.7.3,1.5.7,2.3,1.2Z" fill="#6f4439"/>
    <g opacity=".3">
      <path d="m167.6,423.4c5.3-7,8.1-15.6,9.2-24.4s.9-17,.4-25.8c-1.7,17.1-5,33.9-9.6,50.2h0Z"/>
    </g>
    <path d="m178.1,363.2c.1.9,0-1.9,0-1-.2,12-7.3,62.9-16.4,72.8-7,7.6-72.4,4.4-72.4,4.4l.7-17s1.8-.5,13.5-2,35.7-7.6,35.7-7.6l8-53.3" fill="#ff7200"/>
    <path d="m147.2,359.4s0,.3-.1,1l-.4,2.8c-.4,2.5-.9,6.1-1.6,10.7-1.4,9.3-3.4,22.6-5.8,38.9v.1h-.1c-7,1.8-14.7,3.6-22.9,5.4-4.1.9-8.4,1.7-12.8,2.3s-9,1.1-13.5,2l.2-.2c-.2,5.4-.5,11.2-.7,17l-.2-.3c4.6.2,9.5.4,14.5.5,9.4.2,18.5.3,27.3,0,4.4-.1,8.7-.3,13-.7,4.1-.3,8.2-.9,12.3-1.8,1-.2,1.9-.5,2.9-.9.9-.3,1.7-.8,2.4-1.5,1.2-1.5,2.2-3.1,3-4.9,1.5-3.4,2.8-6.9,3.8-10.5,2-6.9,3.4-13.5,4.6-19.5,2.3-12,3.6-21.9,4.4-28.7.4-3.4.6-6.1.7-7.9,0-.5,0-.9.1-1.2h.1c.1,0,0,0,0,0v.8c0,.2,0,.4-.1.5v-.2.2-1.3h.1v1.2c-.1,1.8-.2,4.5-.6,7.9-.7,6.8-2,16.7-4.2,28.8-1.1,6-2.5,12.6-4.5,19.6-1,3.6-2.3,7.1-3.8,10.6-.8,1.8-1.8,3.5-3.1,5-.7.7-1.6,1.3-2.6,1.6-.9.4-1.9.7-2.9.9-4.1.9-8.2,1.5-12.4,1.8-4.2.4-8.6.6-13,.7-8.8.2-18,.2-27.4,0-5-.1-9.9-.3-14.5-.5h-.3v-.2c.2-5.9.5-11.6.7-17v-.2h.2c2.3-.5,4.6-.8,6.9-1.1l6.7-.9c4.4-.6,8.7-1.4,12.8-2.3,8.2-1.7,15.9-3.6,22.9-5.3l-.1.2c2.5-16.2,4.6-29.6,6-38.8.7-4.6,1.3-8.2,1.7-10.7.2-1.2.3-2.1.4-2.8s-.1-1.1-.1-1.1h0Z" fill="#263238"/>
  </g>
</svg>