<?xml version="1.0" encoding="UTF-8"?>
<svg id="freepik_stories-dictionary" data-name="freepik stories-dictionary" xmlns="http://www.w3.org/2000/svg" viewBox="0 0 459.9 446">
  <g id="freepik--background-complete--inject-34">
    <path id="elgithmvu2yl4" d="m135.4,12.8h-4l-.6,1.6h-2.5l4-9.3h2.5l3.9,9.3h-2.6l-.7-1.6h0Zm-.7-1.9l-1.2-3.3-1.3,3.3h2.5Z" fill="#e0e0e0"/>
    <path id="elfczbyie136l" d="m27.5,373.5c-3.1,0-6-1.3-8-3.7l2.8-4.1c1.2,1.5,2.9,2.4,4.8,2.6,1.5,0,2.4-.9,2.4-2.6v-10.5h-7.9v-5h13.9v15.5c0,5-3,7.8-8,7.8h0Z" fill="#e0e0e0"/>
    <path id="el23dnlnx4l6u" d="m137.6,285.6l-4.2-6.2-2.1,2.3v3.9h-4.2v-16.1h4.2v6.7l6-6.8h4.9l-6,6.7,6.3,9.4-4.9.1Z" fill="#e0e0e0"/>
    <path id="elc27jqllo7bv" d="m27.9,277.9l7.6,10.1v-10.1h4v16.7h-3.8l-7.6-10v10h-4.1v-16.7h3.9Z" fill="#e0e0e0"/>
    <path id="elgtedd3wkjm" d="m378.7,243.3l2.5,5.4,2.5-5.4h2.6v9.3h-2.1v-5.9l-2.1,5h-1.6l-2.2-5v5.9h-2.2v-9.3h2.6Z" fill="#e0e0e0"/>
    <path id="eluv3lbjpgtu" d="m303.7,3.2l2.5,5.4,2.5-5.4h2.6v9.3h-2.1v-5.9l-2.2,5h-1.6l-2.2-5v5.9h-2.2V3.2h2.7Z" fill="#e0e0e0"/>
    <path id="el65fs6scjau2" d="m452.7,286.3v13.3h7.2v3.8h-11.7v-17.1h4.5Z" fill="#e0e0e0"/>
    <path id="elvmn4zysxwa" d="m386.7,5.2v7.2h3.9v2.1h-6.4V5.2h2.5Z" fill="#e0e0e0"/>
    <path id="elgqs38xljj4j" d="m213.7,48.4v7.2h3.9v2.1h-6.4v-9.3h2.5Z" fill="#e0e0e0"/>
    <path id="el8ffk9pzqffd" d="m437.5,136.6c-2.1,0-3.5.8-3.5,2.3,0,5.5,17.5,2.4,17.5,14.3,0,6.8-6,10.2-13.3,10.2-5.5,0-10.9-1.9-15.3-5.3l3.4-6.8c3.4,2.9,8.6,5,12,5,2.5,0,4.2-1,4.2-2.7,0-5.6-17.5-2.2-17.5-13.9,0-6.2,5.2-10.1,13.2-10.1,4.7,0,9.3,1.3,13.3,3.7l-3.3,6.9c-3.5-2.1-7.9-3.6-10.7-3.6h0Z" fill="#e0e0e0"/>
    <path id="elmouxetpudcl" d="m338.5,299.4c-2.1,0-3.5.8-3.5,2.3,0,5.5,17.5,2.4,17.5,14.3,0,6.8-6,10.2-13.3,10.2-5.5,0-10.9-1.9-15.3-5.3l3.4-6.8c3.4,2.9,8.6,5,12,5,2.5,0,4.2-1,4.2-2.7,0-5.6-17.5-2.2-17.5-14,0-6.2,5.2-10.1,13.2-10.1,4.7,0,9.3,1.3,13.3,3.7l-3.3,6.9c-3.5-1.9-7.9-3.5-10.7-3.5h0Z" fill="#e0e0e0"/>
    <path id="elzfjarh7zxh8" d="m242.4,97.1c0,8.4-6.2,14.2-15.4,14.2h-11.9v-28.3h12.2c9,0,15.1,5.7,15.1,14.1h0Zm-7.6.1c0-4.9-3.2-8.2-7.7-8.2h-4.6v16.3h5c4.3,0,7.3-3.3,7.3-8.1h0Z" fill="#e0e0e0"/>
    <path id="elsb06mh18vdc" d="m388.9,196l-2.5-4.8h-3.4v4.8h-4.5v-17.2h7.7c4.6,0,7.2,2.2,7.2,6,.2,2.3-1,4.5-3.1,5.6l3.6,5.6h-5Zm-5.9-8.4h3.3c1.8,0,2.9-.9,2.9-2.7s-1.1-2.6-2.9-2.6h-3.3v5.3Z" fill="#e0e0e0"/>
    <path id="elae09ldbtuu4" d="m406,287.1v5.8h-8.1v21.1h-7v-21.1h-8v-5.8h23.1Z" fill="#e0e0e0"/>
    <path id="elgnzr0ox6ru8" d="m341.2,231.8c0,2.3-1.6,4.3-3.8,4.8,2.7.5,4.6,2.8,4.5,5.6,0,3.8-3.3,6.1-8.5,6.1h-10.9v-22h10.5c5,0,8.2,2.1,8.2,5.5h0Zm-5.9,1c0-1.3-1-2.1-2.6-2.1h-4.4v4.3h4.4c1.7,0,2.6-.8,2.6-2.2Zm.7,8.6c0-1.4-1.3-2.3-3.3-2.2h-4.4v4.6h4.4c2,0,3.3-.9,3.3-2.4h0Z" fill="#e0e0e0"/>
    <path id="elz9v2ckhqx5i" d="m436.9,28.6c0,2.3-1.6,4.3-3.8,4.8,2.7.5,4.6,2.8,4.5,5.6,0,3.8-3.3,6.1-8.5,6.1h-10.9v-22h10.5c5-.1,8.2,2.1,8.2,5.5h0Zm-5.9,1c0-1.3-1-2.1-2.6-2.1h-4.4v4.3h4.4c1.6,0,2.6-.8,2.6-2.2h0Zm.7,8.6c0-1.4-1.2-2.3-3.3-2.2h-4.4v4.6h4.4c2,0,3.3-.9,3.3-2.4h0Z" fill="#e0e0e0"/>
    <path id="elumb8jqcmwk" d="m178.4,238.9c-3.4.2-6.1,3.1-5.9,6.6.2,3.2,2.7,5.7,5.9,5.9,2.1-.1,4-1,5.5-2.6l3.4,3.6c-2.4,2.5-5.7,4-9.1,4.1-6.6,0-11.6-4.8-11.6-11.3s5.1-11.1,11.8-11.1c3.3,0,6.5,1.4,8.9,3.8l-3.3,4c-1.4-1.8-3.4-2.8-5.6-3h0Z" fill="#e0e0e0"/>
    <path id="el68s1kskgusq" d="m424.3,354.2c-3.4.2-6.1,3.1-5.9,6.6.2,3.2,2.7,5.7,5.9,5.9,2.1-.1,4-1,5.5-2.6l3.4,3.6c-2.4,2.5-5.7,4-9.1,4.1-6.1.2-11.3-4.6-11.5-10.7v-.6c0-6.3,5-11.1,11.8-11.1,3.3,0,6.5,1.4,8.9,3.8l-3.3,4c-1.6-1.8-3.5-2.8-5.7-3h0Z" fill="#e0e0e0"/>
    <path id="el4x0xqcrrl09" d="m360.2,59.5h-14.3l-2.4,5.9h-8.9l14.3-33.2h8.9l13.9,33.2h-9.2l-2.3-5.9Zm-2.6-6.6l-4.5-11.8-4.6,11.8h9.1Z" fill="#e0e0e0"/>
    <path id="elj01msnmiv6q" d="m284.6,44.3v7h-5.7v-6.8l-8-15h5.7l5.2,9.4,5.1-9.4h5.8s-8.1,14.8-8.1,14.8Z" fill="#e0e0e0"/>
    <path id="elaqx2r3e6a5" d="m169.2,80.2c2.8,0,4.8-1.9,4.8-5.1v-14.2h6.4v14.2c0,6.5-4.3,10.6-11.2,10.6s-11.4-4.1-11.4-10.6v-14.2h6.4v14.2c-.2,2.6,1.8,4.9,4.4,5.1h.6Z" fill="#e0e0e0"/>
    <path id="elq440oe2ao6e" d="m90.5,296v5.6h-13v6h12v5.6h-12v9.6h-7v-26.7h20v-.1Z" fill="#e0e0e0"/>
    <path id="elf8wc25yfik" d="m7.1,210.1v8.1h8v-8.1h5.2v19.9h-5.2v-7.7h-8v7.7H1.9v-19.9h5.2Z" fill="#e0e0e0"/>
    <path id="elpprhoxb3lbm" d="m375,103.2v19.8h-5.2v-19.8h5.2Z" fill="#e0e0e0"/>
    <path id="elt1bje2n15j9" d="m222.9,12c0,6.9-5.5,12.1-12.8,12.1s-12.8-5.2-12.8-12.1,5.5-12,12.8-12,12.8,5.1,12.8,12Zm-19.2,0c-.1,3.7,2.8,6.7,6.5,6.8,3.6-.1,6.4-3.1,6.3-6.7h0c.2-3.6-2.6-6.6-6.2-6.8h-.2c-3.6-.1-6.5,2.9-6.4,6.7q-.07-.07,0,0h0Z" fill="#e0e0e0"/>
    <path id="elv3f4f16mbs" d="m428.8,216.1l5.9,17.1,5.9-17.1h6.4l-9.2,23.6h-6.4l-9.2-23.6h6.6Z" fill="#e0e0e0"/>
    <path id="elnisibjdtlog" d="m311.2,98.2l3.3,9.4,3.3-9.4h3.5l-5.1,13.1h-3.5l-5.1-13.1h3.6Z" fill="#e0e0e0"/>
    <path id="elwtflndu0sq" d="m22.7,46.3c0,4.1-2.6,6.5-7.1,6.5h-3.1v4.9h-4.6v-17.5h7.7c4.5,0,7.1,2.2,7.1,6.1Zm-4.4.2c0-1.7-1.1-2.7-2.9-2.7h-2.9v5.4h2.9c1.9,0,2.9-.9,2.9-2.7Z" fill="#e0e0e0"/>
    <path id="elnn1lrxbywk" d="m438.6,77.5l3.6,8,3.6-8h3.9v13.7h-3.2v-8.7l-3.2,7.3h-2.4l-3.2-7.3v8.7h-3.2v-13.7h4.1Z" fill="#e0e0e0"/>
    <path id="elw2hi2oddl5r" d="m51.8,129.9v6.9h-17.5v6.2h15.8v6.9h-15.8v6.2h18v6.9h-26.6v-33.1h26.1Z" fill="#e0e0e0"/>
    <path id="el8dh5dbjc2i6" d="m95.5,18.1v5.7l-17.5,20.5h17.8v7h-29.4v-5.7l17.5-20.6h-16.9v-7s28.5.1,28.5.1Z" fill="#e0e0e0"/>
  </g>
  <g id="freepik--Table--inject-34">
    <path id="el8gvx1ez9uzx" d="m456.8,420.6c0,.1-102.3.3-228.4.3s-228.4-.1-228.4-.3,102.2-.3,228.4-.3,228.4.2,228.4.3Z" fill="#263238"/>
  </g>
  <g id="freepik--Dictionary--inject-34">
    <path id="elorvqmrb605b" d="m165,49.8c-.3-1-1.4-1.6-2.4-1.3h0l-8.8,2.7-120.1,31.9,42.8,166.7,14.9,7.8,122.3-34c2-.5,3.1-2.6,2.6-4.5v-.1l-51.3-169.2h0Z" fill="#ff7200"/>
    <polygon id="elbf7289ye94s" points="151.4 43.1 163.4 50.2 214.6 220.9 91.1 256.2 77.1 248.6 151.4 43.1" fill="#f5f5f5"/>
    <path id="eltre5xbxa5ci" d="m197.8,213.8l-121.4,36L27.4,84.2c-.6-2.2.6-4.5,2.7-5.2l120.1-37.7c1.2-.4,2.5.3,2.9,1.5v.1l47.4,166c.6,2.1-.6,4.3-2.7,4.9h0Z" fill="#ff7200"/>
    <path id="elfzx1tqe8upj" d="m92,242.8c-.1,0-11.4-37-25.2-82.8s-24.9-82.9-24.7-83,11.4,37,25.2,82.8,24.8,82.9,24.7,83Z" fill="#263238"/>
    <path id="elre22to13p8" d="m87.7,247.1c-.1,0-11.4-37-25.2-82.8s-24.9-82.9-24.7-83,11.4,37,25.2,82.8,24.8,82.9,24.7,83Z" fill="#263238"/>
    <path id="el68i232034gf" d="m82.4,122.2c.8,2.6-.5,4.9-3.3,5.8l-3.6,1.1-2.7-8.6,3.7-1.2c2.7-.8,5.1.3,5.9,2.9h0Zm-2.3.8c-.3-1.3-1.6-2.1-2.9-1.8-.1,0-.2,0-.2.1l-1.4.4,1.6,5,1.5-.5c1.2-.4,1.9-1.7,1.5-2.9,0-.2-.1-.3-.1-.3Z" fill="#fff"/>
    <path id="el47tdi50hbu" d="m84.4,116.8l2.7,8.6-2.2.7-2.7-8.6,2.2-.7Z" fill="#fff"/>
    <path id="elsipgypbemir" d="m90.7,116.9c-1.3.5-2,1.9-1.5,3.3.5,1.2,1.8,1.9,3.1,1.6.8-.3,1.4-.9,1.8-1.7l1.8,1c-.6,1.3-1.7,2.3-3.1,2.7-2.4.9-5-.4-5.9-2.8s.4-5,2.8-5.9c.1,0,.3-.1.4-.1,1.3-.4,2.7-.3,3.9.4l-.8,2c-.7-.6-1.6-.7-2.5-.5Z" fill="#fff"/>
    <path id="elg0jcsayudcn" d="m101.2,111.6l.6,1.9-2.6.8,2.1,6.7-2.2.7-2.1-6.8-2.6.8-.6-1.9s7.4-2.2,7.4-2.2Z" fill="#fff"/>
    <path id="el5lpvgpjc6jt" d="m104.3,110.6l2.7,8.6-2.2.7-2.7-8.6,2.2-.7Z" fill="#fff"/>
    <path id="el6834ne9otmr" d="m116.1,111.6c1,2.5-.3,5.4-2.8,6.3s-5.4-.3-6.3-2.8.3-5.4,2.8-6.3c.1,0,.2-.1.3-.1,2.4-.9,5.1.4,6,2.8v.1Zm-7,2.2c.4,1.3,1.8,2.1,3.1,1.7,1.3-.5,2-2.1,1.4-3.4-.5-1.2-1.7-1.8-3-1.5-1.2.4-1.9,1.9-1.5,3.2h0Z" fill="#fff"/>
    <path id="el70mdicno67o" d="m117.9,106.3l5.5,4-1.6-5.2,2.1-.7,2.7,8.6-2,.6-5.5-3.9,1.6,5.1-2.1.7-2.7-8.6,2-.6Z" fill="#fff"/>
    <path id="el4jqylrxbii" d="m133.5,109.2l-3.7,1.2-.1,1.7-2.3.7,1-9.8,2.3-.7,6.3,7.5-2.4.8s-1.1-1.4-1.1-1.4Zm-1.2-1.5l-2.1-2.7-.2,3.4s2.3-.7,2.3-.7Z" fill="#fff"/>
    <path id="elr9361oyxr1a" d="m142.9,107.9l-2-2h0l-1.6.5.8,2.4-2.2.7-2.7-8.6,3.9-1.2c2.3-.7,3.9,0,4.5,1.9.4,1.1.2,2.4-.7,3.3l2.7,2.2s-2.7.8-2.7.8Zm-4.3-3.3l1.6-.5c.7-.1,1.2-.8,1.1-1.5,0-.1,0-.2-.1-.3-.2-.7-.9-1.1-1.6-1-.1,0-.2.1-.3.1l-1.6.5.9,2.7h0Z" fill="#fff"/>
    <path id="elfu9khjdihu" d="m150.2,102.5l.9,2.8-2.2.7-.8-2.7-5-4.9,2.2-.7,3.2,3,.8-4.3,2.2-.7-1.3,6.8h0Z" fill="#fff"/>
    <path id="elfyi0wwme5k" d="m111,148.6l-9.8,3.1-.3,4.5-6.1,1.9,2.6-25.7,6.1-1.9,16.6,19.7-6.3,2-2.8-3.6h0Zm-3.2-4l-5.6-7.1-.6,9,6.2-1.9Z" fill="#fff"/>
    <path id="eldiufpn7ph2f" d="m126.5,135.2l1.2,3.7-8.6,2.7-1.2-3.7,8.6-2.7Z" fill="#fff"/>
    <path id="el3fadtkduwp7" d="m145.6,117.3l1.2,3.9-7.5,17.8,12.1-3.8,1.5,4.7-20,6.3-1.2-3.8,7.5-17.8-11.5,3.6-1.5-4.8s19.4-6.1,19.4-6.1Z" fill="#fff"/>
    <path id="el9db1hvs4w27" d="m204.2,218.2l-.3.1-.9.3-3.3,1-12,3.8-39.7,12.2-39.8,12.1-12.1,3.6-3.3,1-.9.2c-.1,0-.2.1-.3.1.1,0,.2-.1.3-.1l.8-.3,3.3-1,12-3.8,39.7-12.2,39.8-12.1,12.1-3.6,3.3-1,.9-.2c.2-.1.3-.1.4-.1Z" fill="#263238"/>
    <path id="elfe6uiojpi5" d="m136.1,235.9l-18.4,5.6c4.3,7.9,7.4,16.5,9.1,25.4,2.6-4,4.1-8.7,4.1-13.5,3.1,3.7,6.5,7.2,10.2,10.4.3-9.5-1.4-19-5-27.9Z" fill="#455a64"/>
    <path id="elbs4bufvf6lt" d="m201.9,215.9s-.1.1-.3.1l-.8.3-3.3,1-12,3.8-39.7,12.2-39.8,12.1-12.1,3.6-3.3,1-.9.2h-.2c.1-.1.2-.1.3-.1l.8-.3,3.3-1,12-3.8,39.7-12.2,39.8-12.1,12.1-3.5,3.3-.9.9-.2.2-.2h0Z" fill="#263238"/>
    <path id="elkiecob88jm" d="m205.7,211.2c-.1-.1-.1-.3-.1-.4l-.4-1.2-1.4-4.8c-1.2-4.2-2.9-10.1-5-17.5-4.2-14.8-10.1-35.2-16.6-57.8s-12.6-42.9-17.1-57.6c-2.2-7.3-4-13.3-5.3-17.5-.6-2-1.1-3.6-1.4-4.8-.1-.5-.3-.9-.4-1.2,0-.1-.1-.3-.1-.4.1.1.1.3.2.4.1.3.2.7.4,1.2.4,1.1.9,2.7,1.5,4.7,1.3,4.1,3.1,10.1,5.4,17.4,4.5,14.7,10.7,35,17.3,57.6,6.6,22.6,12.4,43,16.5,57.8,2,7.4,3.7,13.4,4.8,17.6l1.3,4.8c.1.5.2.9.3,1.2s.1.5.1.5h0Z" fill="#263238"/>
    <path id="ell1z0thbbic" d="m152.8,80s0-.1-.1-.3l-.3-1c-.3-.9-.7-2.2-1.3-3.9-1.1-3.4-2.6-8.3-4.6-14.6l.2.1-91.3,28.6h0l.2-.3c2.1,6.8,4.2,13.5,6.2,19.9l-.3-.2,65.1-20.2,19.2-5.9,5.2-1.6,1.4-.4.4-.2-.5.2-1.3.4-5.1,1.6-19.2,6-65.2,20.5-.2.1-.1-.2c-2-6.4-4.1-13.1-6.2-19.9l-.1-.2.2-.1h0l91.3-28.4.1-.1v.1c1.9,6.3,3.4,11.3,4.5,14.7.5,1.7.9,3,1.2,3.9.1.4.2.8.3,1,.2.2.3.3.3.4h0Z" fill="#fff"/>
  </g>
  <g id="freepik--speech-bubble--inject-34">
    <g id="elkwsp3j4vjh">
      <circle id="eljxlcmo48zqa" cx="379.4" cy="103.4" r="41.5" fill="#fff"/>
    </g>
    <path id="elslfrpt3lwl" d="m345.5,144.4s0-.4-.3-1.2c-.3-1.1-1-2-1.9-2.7-.6-.5-1.3-.8-2.1-1-.9-.2-1.8-.1-2.6.2-2.6.9-4,3.8-3.1,6.4.5,1.3,1.5,2.4,2.8,3,.8.4,1.7.5,2.5.4s1.5-.4,2.1-.8c.9-.6,1.7-1.5,2.1-2.6.3-.8.3-1.2.3-1.2v.3c0,.1,0,.3-.1.4,0,.2-.1.4-.1.5-.7,1.9-2.3,3.3-4.3,3.7-.9.2-1.9,0-2.8-.4-1-.4-1.8-1.1-2.4-2-.7-.9-1-2-1-3.1.1-1.1.5-2.2,1.2-3.1.6-.8,1.5-1.4,2.5-1.8.9-.3,1.8-.4,2.8-.2.8.2,1.6.6,2.2,1.1.9.7,1.6,1.7,1.9,2.9,0,.2.1.4.1.5v.4c.2.1.2.2.2.3h0Z" fill="#263238"/>
    <path id="elrt9fw6j6k7p" d="m372.4,144.7l.7.1,2,.2,1.5.2h3.9c.4,0,.8,0,1.1-.1l1.2-.1c4-.3,8-1.2,11.7-2.7,5-1.9,9.5-4.8,13.4-8.5l1.6-1.6c.5-.6,1-1.1,1.5-1.7l.8-.9c.3-.3.5-.6.7-.9l1.4-2c.2-.3.5-.6.7-1l.6-1.1c.4-.7.8-1.4,1.2-2.2s.7-1.5,1.1-2.3c.2-.4.4-.8.5-1.2.1-.2.2-.4.2-.6l.2-.6c.6-1.7,1.1-3.4,1.5-5.1.2-.9.4-1.8.6-2.7s.2-1.8.3-2.7c0-.5.1-.9.1-1.4v-4.2c-.1-1.9-.3-3.9-.7-5.8l-.3-1.4c0-.2-.1-.5-.1-.7l-.2-.7c-.3-1-.5-1.9-.8-2.9s-.7-1.9-1.1-2.8c-.2-.5-.4-1-.6-1.4l-.7-1.4c-.9-1.8-2-3.6-3.2-5.3-.6-.8-1.3-1.7-1.9-2.5l-.5-.6-.5-.6-1.1-1.2-1.1-1.2-1.2-1-1.2-1-.6-.5c-.2-.2-.4-.3-.7-.5l-2.7-1.9-2.9-1.6c-7.9-4.3-17-5.8-25.9-4.4l-3.2.6-3.1.9-.8.2-.8.3-1.5.6-1.5.6-1.4.7-1.4.7-.7.4-.7.4-2.7,1.7c-1.7,1.2-3.3,2.6-4.8,4l-1.1,1c-.4.3-.7.8-1,1.1-.6.8-1.3,1.5-2,2.3l-1.7,2.4-.4.6c-.1.2-.2.4-.4.6-.2.4-.5.8-.7,1.3-1,1.7-1.8,3.4-2.5,5.2-.3.9-.6,1.8-.9,2.7-.1.4-.3.9-.4,1.3s-.2.9-.3,1.4c-.2.9-.4,1.8-.6,2.7s-.2,1.8-.4,2.7c-.2,1.8-.3,3.5-.3,5.3v1.2c0,.4.1.9.1,1.3.1.9.1,1.7.2,2.5s.3,1.6.5,2.5c.1.4.1.8.2,1.2l.3,1.2c.2.8.5,1.6.7,2.3.1.4.2.8.4,1.1.1.4.3.7.4,1.1.3.7.5,1.4.9,2.1s.7,1.4,1,2c2.5,4.7,5.8,9,9.9,12.4.4.4.9.8,1.3,1.1l1.4,1,1.3.9c.2.1.4.3.6.4l.7.4,2.5,1.4c.8.4,1.6.8,2.4,1.1l1.1.5c.3.2.7.3,1.1.4l2,.7c.6.2,1.2.4,1.7.6l1.4.3,1.9.4.8.7s-.2,0-.7-.1l-1.9-.4-1.4-.3c-.5-.1-1.1-.3-1.7-.5l-2-.6c-.4-.1-.7-.2-1.1-.4l-1.1-.5c-.8-.4-1.6-.7-2.4-1.1l-2.5-1.5-.7-.4c-.2-.1-.4-.3-.6-.4l-1.3-.9-1.4-1-1.3-1.1c-4.1-3.5-7.5-7.7-10-12.5-.4-.7-.7-1.3-1-2s-.6-1.4-.9-2.1c-.1-.4-.3-.7-.4-1.1-.2-.4-.3-.7-.4-1.1-.2-.8-.5-1.5-.7-2.3-.1-.4-.2-.8-.3-1.2s-.1-.8-.2-1.2c-.1-.8-.3-1.6-.5-2.5s-.2-1.7-.2-2.6c0-.4-.1-.9-.1-1.3v-1.4c0-1.8.1-3.6.3-5.3.1-.9.2-1.8.4-2.7l.6-2.7c.1-.5.2-.9.3-1.4l.5-1.3c.3-.9.6-1.8.9-2.7.7-1.8,1.6-3.6,2.5-5.2l.7-1.3c.1-.2.2-.4.4-.7l.5-.6c.6-.8,1.2-1.6,1.7-2.5.6-.8,1.3-1.5,2-2.3.3-.4.6-.8,1-1.1l1.1-1.1c1.5-1.4,3.1-2.8,4.8-4l2.7-1.7.7-.4.7-.4,1.4-.7,1.4-.7,1.5-.6,1.5-.6.8-.3.8-.2,3.2-.9,3.3-.6c9-1.4,18.2.1,26.1,4.4l2.9,1.7,2.7,1.9c.2.2.5.3.7.5l.6.5,1.2,1.1,1.2,1.1,1.1,1.2,1.1,1.2c.2.2.4.4.5.6l.5.6,2,2.5c1.2,1.7,2.2,3.5,3.2,5.4l.7,1.4c.2.5.4,1,.6,1.4.4,1,.8,1.9,1.1,2.8l.8,2.9.2.7c.1.2.1.5.1.7.1.5.2,1,.3,1.5.4,1.9.6,3.9.7,5.8v4.3c0,.5-.1.9-.1,1.4l-.3,2.8c-.1.9-.4,1.8-.6,2.7-.4,1.7-.9,3.5-1.5,5.1l-.2.6c-.1.2-.2.4-.3.6l-.5,1.2c-.4.8-.7,1.6-1.1,2.3l-1.4,2.1-.6,1.1c-.2.3-.5.7-.7,1l-1.4,2c-.2.3-.5.6-.7.9l-.8.9c-.5.6-1,1.2-1.5,1.7l-1.6,1.6c-3.9,3.7-8.6,6.5-13.6,8.4-3.8,1.5-7.7,2.4-11.8,2.7l-1.2.1h-3.2c-.6,0-1.2,0-1.8-.1l-1.5-.2-2-.3-.8-.3h0Z" fill="#263238"/>
    <path id="elxkukdu0d6nl" d="m369.5,94.2h5.9c0-2.8,2.2-5,5-5h.1c2-.1,3.8,1.1,4.6,3,.6,1.6.5,3.3-.4,4.7-1,1.6-3.2,3.1-7.1,2.4v13.2h5.8v-7.7c4.9-1.4,8.2-6,8.1-11.1,0-8.6-7.7-10.6-11-10.6-2.6.2-11.1.8-11,11.1Z" fill="#263238"/>
    <rect id="elvs7l2yq8378" x="377.5" y="115.4" width="5.9" height="5.5" fill="#263238"/>
  </g>
  <g id="freepik--Character--inject-34">
    <path id="elqihjqlwsola" d="m231.7,114.4c-5.9-4.5-6.5-13.7-2.6-19.9s11.4-9.6,18.7-10.1c10.8-.7,21.3,3.8,28.2,12.2,3.6,4.5,6.4,10.1,11.6,12.5,4.6,2.1,10,1,15,2.1,6.6,1.5,12,6.7,14.9,12.9s3.7,13,3.9,19.8c.2,6.2.1,13,4,17.9s10.3,6.3,15.2,9.8c9.2,6.7,11.1,21.5,3.9,30.4-2.3,2.8-5.5,5.3-6.1,8.9-.5,3.3,1.4,6.4,2.1,9.7,1.9,8.4-5.6,17.4-14.2,17.2-4.3-.1-8.8-2.2-12.8-.6s-5.8,6.1-8.6,9.4c-5.8,6.6-15.3,8.2-23,3.9-3-1.8-5.8-4.6-9.3-4.7s-6.5,2.7-10.1,3c-4.6.5-8.6-3.2-10.9-7.2s-3.8-8.5-7-11.9c-4.1-4.4-10.4-5.9-15.9-8.4-23.6-10.5-34.2-38.2-23.7-61.8.9-2,1.9-4,3.1-5.8" fill="#263238"/>
    <path id="els775nu4rq7" d="m290,201.1c1.5-1.4,3.3-2.3,5.3-2.9l-.4-.1c.4-.1.7-.1,1.1-.1,1.4-.3,2.8,0,3.9.8h0c2.1,1,3.8,2.7,4.7,4.9,1.4,3.9.5,8.2-2.3,11.2-2.4,2.6-6.1,4.1-9.5,3-3-1-5.1-4.1-5.7-7.2-.7-3.4.4-7.1,2.9-9.6h0Z" fill="#455a64"/>
    <path id="elrdsmwoq3ecc" d="m299.7,159c-.1-17.6-10.4-39.8-28-39l-55.3,10.5c-5.3.2-9.6,4.5-9.8,9.9l-7.6,148.3,62.6-.3c.8-10.6,3.6-40.5,3.6-40.4s24.4-2.3,30.7-31.2c3.2-14.5,3.8-38.3,3.8-57.8h0Z" fill="#ffbf9d"/>
    <path id="elzsk0wry35a" d="m286.5,182.9c-.1,2-1.8,3.6-3.8,3.6s-3.6-1.5-3.7-3.5v-.1c.1-2,1.8-3.6,3.8-3.6,2.1-.1,3.7,1.5,3.7,3.6,0-.1.1,0,0,0Z" fill="#263238"/>
    <path id="elfqq2gn0s0yw" d="m293.8,169c-.5.5-3.2-1.8-7.2-2s-7.1,1.6-7.5,1.1c-.2-.2.3-1.1,1.7-1.9,1.8-1.1,3.9-1.6,6-1.5s4.1.9,5.8,2.2c1.1,1,1.4,1.9,1.2,2.1h0Z" fill="#263238"/>
    <path id="el2ftsvp8iaka" d="m250.3,180.4c-.1,2-1.8,3.6-3.8,3.6s-3.6-1.5-3.7-3.5v-.1c.1-2,1.8-3.6,3.8-3.6s3.7,1.5,3.7,3.6c0-.1,0,0,0,0Z" fill="#263238"/>
    <path id="elwepsxxfp78q" d="m254.2,167.4c-.5.5-3.2-1.8-7.2-2s-7.1,1.6-7.5,1.1c-.2-.2.3-1.1,1.7-1.9,1.8-1.1,3.9-1.6,6-1.5s4.1.9,5.7,2.2c1.1,1,1.5,1.9,1.3,2.1h0Z" fill="#263238"/>
    <path id="elw8m7ircfhh" d="m267,198.2c0-.2,2.5-.5,6.6-.8,1,0,2-.2,2.2-.9s-.1-1.9-.5-3.1l-2.6-8c-3.6-11.4-6.1-20.8-5.6-20.9s3.7,9,7.3,20.4c.9,2.8,1.7,5.5,2.4,8.1.3,1.2.9,2.6.3,4.1-.3.7-1,1.2-1.8,1.4-.6.1-1.2.2-1.8.1-4,0-6.5-.2-6.5-.4h0Z" fill="#263238"/>
    <path id="elzf5s4s6fqlq" d="m265.4,247.6s-18,.2-36.7-12.7c0,0,6.5,22.4,35.9,21.4l.8-8.7h0Z" fill="#ff9a6c"/>
    <path id="elfobb5v8s50s" d="m265.8,207.7c-1.7-2.8-4.6-4.6-7.9-4.8-2.1-.1-4.2.9-5.5,2.6-1.3,1.9-1.4,4.5-.3,6.5,1.4,2.1,3.9,3.2,6.4,2.7,2.3-.4,4.3-1.9,6.1-3.3.6-.4,1-.9,1.4-1.4.4-.6.4-1.4,0-2.1" fill="#ff9a6c"/>
    <path id="elsf1note2bkk" d="m255,200.3c.7,0,.4,4.4,4,7.7s8.2,3.1,8.2,3.7c0,.3-1.1.8-3.1.7-2.6-.1-5-1.1-6.9-2.9-1.8-1.7-2.9-4-3-6.4-.1-1.8.5-2.9.8-2.8h0Z" fill="#263238"/>
    <path id="elw7j4kiwmvlr" d="m256.9,151c-.5,1.1-4.5.3-9.2.6s-8.7,1.4-9.2.3c-.2-.5.5-1.5,2.1-2.4,4.3-2.4,9.5-2.7,14-.7,1.7.7,2.5,1.6,2.3,2.2h0Z" fill="#263238"/>
    <path id="el9t4so27b8dg" d="m293.2,155.1c-.8.9-3.5-.2-6.8-.5s-6.2.2-6.8-.8c-.3-.5.2-1.4,1.5-2.2,3.5-1.9,7.9-1.5,11,1,1.1,1.1,1.5,2.1,1.1,2.5h0Z" fill="#263238"/>
    <path id="elceahr1rk33j" d="m319.9,152.6c-1-4.5-3.1-8.9-6.7-11.7-2-1.6-4.3-2.6-6.1-4.3-3.9-3.8-4.4-9.8-6.5-14.7-2.9-6.5-8.8-11.2-15.8-12.6-5.7-1.1-11.8.1-17.3-1.8-4.1-1.4-7.5-4.4-11.6-5.6-8.1-2.3-16.2,2.9-22.7,8.3-.5,5.9,3.8,10.2,8,14.4,4.3,4.2,10.2,6.3,16.1,5.8,4.5-.4,9.7-2.2,13.3.5,3.9,2.9,3.5,9,6.8,12.5,4.8,4.9,13.4,1.4,19.8,4,4.9,1.9,7.7,7.1,10.7,11.4s7.7,8.7,12.9,7.6c0-4.7.1-9.3-.9-13.8h0Z" fill="#263238"/>
    <path id="el8ate7vuo39s" d="m260.5,122.3c-3.6-1.4-10.9-4.4-12.6-7.8-3.7-7.3-10.8-12.7-18.6-13-8.3-.1-15.6,5.3-18,13.2-9.3-.8-19,4.3-24.2,12.7-.7,1.1-1.2,2.2-1.8,3.3-3.4,5-4.4,11.2-2.9,17,1,3.4,2.8,7.3.8,10.3s-6.4,2.7-10,3.6c-6.3,1.8-10.5,7.8-9.8,14.3.3,2.2,1.1,4.6.5,6.7s-2.8,3.7-4.5,5.4c-6.6,6.6-6.6,17.3,0,23.8,2.1,2.1,4.6,3.6,7.4,4.3,2.6.7,5.4.8,7.6,2.4,2.4,1.8,3.3,5.1,4.9,7.6,3.3,5.1,9.4,7.6,15.2,6.3,1.2-.3,2.3-.7,3.3-1.3,1.5,2.6,4.1,4.5,8.9,4.9l4.3-61.5c.6,1.6,1.8,2.8,3.5,3.2,9.7,3.1,12.9-17.1,11.2-22.8,3.9-2.9,7.7-5.7,10.8-9.5s6.4-14.5,6.3-19.5c3.7.7,19.2-3,17.7-3.6Z" fill="#263238"/>
    <path id="elj7zxhwi708" d="m213.5,179.9c.2-6.3-7.3-8.3-13-5.6-3.1,1.4-5.7,4.7-6,11.4-.8,17.7,17.1,14.9,17.2,14.4,0-.4,1.5-12.9,1.8-20.2h0Z" fill="#ffbf9d"/>
    <path id="elz4pfwyye0vq" d="m206.6,193.1c-.1-.1-.3.2-.9.4-.7.3-1.6.3-2.3-.1-1.8-.8-3.3-3.8-3.2-7,0-1.5.4-3,1.1-4.4.4-1.1,1.3-2,2.4-2.3.7-.2,1.5.2,1.8.9.2.5.1.9.2.9s.4-.3.3-1c-.1-.4-.3-.9-.6-1.1-.5-.4-1.1-.6-1.7-.5-1.5.2-2.8,1.2-3.4,2.6-.8,1.5-1.3,3.2-1.3,4.9-.1,3.6,1.6,7,4.1,7.9.9.3,2,.2,2.8-.3.6-.5.7-.9.7-.9h0Z" fill="#ff9a6c"/>
    <path id="elpw72kphtwi8" d="m236.6,115.4c.1.2-1.8.4-3.8,2.6s-3,6.8-2.4,12.1l.1.4-.4.1c-5.3.9-9.8,4.3-12.3,9-.7,1.3-1.1,2.8-1.3,4.2-.1,1.6,0,3.2.1,4.7.2,1.7.3,3.4.2,5.1,0,1.9-.7,3.6-1.9,5.1-2.5,3.1-6.2,4.5-9.4,5.8-3.1,1.1-6.1,2.6-8.7,4.6-4.3,3.6-7.2,8.7-7.9,14.2-.5,3.8,0,7.6,1.4,11.1,1,2.5,1.9,3.8,1.7,3.8-.3-.3-.5-.6-.7-.9-.6-.9-1.1-1.8-1.5-2.8-1.6-3.6-2.2-7.5-1.8-11.4.6-5.8,3.5-11.2,8-15,2.7-2.1,5.7-3.8,9-4.9,3.2-1.3,6.6-2.7,8.8-5.4,2.2-2.5,1.6-6.1,1.4-9.3-.2-1.7-.2-3.3-.1-5,.2-1.6.7-3.2,1.4-4.6,2.7-5.1,7.5-8.5,13.2-9.4l-.2.7c-.6-5.5.7-10.2,2.9-12.6.8-.9,1.9-1.6,3-2,.4-.1.8-.2,1.2-.2h0Z" fill="#455a64"/>
    <path id="eln2ooeze0q2" d="m199.4,199.1c1.5-1.4,3.3-2.3,5.3-2.9l-.4-.1c.4,0,.7-.1,1.1-.1,1.4-.3,2.8,0,3.9.8h0c2.1,1,3.8,2.7,4.7,4.9,1.4,3.9.5,8.2-2.3,11.2-2.4,2.6-6.1,4.1-9.5,3-3-1-5.1-4-5.7-7.2-.7-3.4.3-7.1,2.9-9.6h0Z" fill="#455a64"/>
    <path id="el1wwdixkan7e" d="m135.9,279.5s-76.4,74.1-75.7,98.1c0,.4-.1.8-.2,1.2-2.8,15.7,8.6,30.4,24.5,32.4l29.5,3.7,63.1-81.3-17.1-45.4-24.1-8.7h0Z" fill="#ff7200"/>
    <path id="elb123km21av6" d="m109.5,316s12.3-20.8,26.4-36.5c13.3-14.8,31.1-19,35-19.2,14.6-.7,76.2,3.5,115.7,5,14.7.6,29.2,9.1,38.8,20.2,21.5,24.9,59.1,69.3,66.7,82.9,10.7,19.4,3.2,63.4-4.3,69.3s-238.3-4.1-238.3-4.1l-40-117.6h0Z" fill="#ff7200"/>
    <path id="eloedvchq8i9l" d="m369,368.5h-4.1c-1,0-1.9.1-2.9.1l-1.7.2c-.6.1-1.2.2-1.8.3-1.2.2-2.5.5-3.9.9-5.9,1.7-11.3,4.7-15.9,8.8-1,.9-1.9,1.8-2.8,2.8-.4.5-.8.9-1.2,1.4s-.7.9-1,1.3c-.6.8-1.1,1.5-1.6,2.3-.2.4-.5.7-.7,1l-.5.9c-.3.5-.5.9-.7,1.2s-.3.4-.3.4c0-.2.1-.3.2-.5.2-.3.4-.7.6-1.2l.5-.9c.2-.3.4-.6.6-1,.5-.8,1-1.6,1.6-2.4.3-.4.7-.9,1-1.4s.8-.9,1.2-1.4c.9-1,1.8-2,2.8-2.9,4.6-4.2,10.1-7.2,16.1-8.9,1.3-.4,2.7-.6,4-.9.6-.1,1.2-.2,1.8-.3l1.7-.1c1-.1,1.9-.1,2.9-.1h1.2l1,.1,1.4.1c.2.1.3.2.5.2h0Z" fill="#263238"/>
    <path id="elsuds2j1pmp" d="m165.1,365.4c-.1-.2-.1-.5-.2-.7l-.4-2c-.4-1.7-1-4.2-1.9-7.3-2.4-8-5.3-15.8-8.5-23.5-3.8-9-7.6-17-10.6-22.6-.7-1.4-1.4-2.7-2.1-3.8s-1.1-2.1-1.6-2.8l-1-1.8-.3-.6c.2.2.3.4.4.6l1.1,1.7c.5.7,1,1.7,1.7,2.8s1.4,2.4,2.1,3.8c4,7.3,7.6,14.8,10.7,22.5,3.3,7.7,6.1,15.5,8.4,23.6.9,3.1,1.4,5.6,1.8,7.4.1.9.2,1.5.3,2,0,.2.1.4.1.7h0Z" fill="#263238"/>
    <path id="elgx4x7mjk5wn" d="m317.5,300.9v3.7c0,2.5-.1,6-.3,10.4-.4,8.8-1.1,20.9-2.5,34.2s-3,25.3-4.4,34c-.7,4.3-1.3,7.8-1.7,10.2-.2,1.2-.4,2.1-.5,2.8l-.1.7c0,.1,0,.2-.1.2v-.2c0-.2.1-.4.1-.7.1-.7.2-1.6.4-2.8.4-2.5.9-6,1.6-10.3,1.3-8.7,2.9-20.7,4.2-34s2.1-25.4,2.6-34.1c.2-4.3.4-7.9.5-10.4.1-1.2.1-2.1.1-2.8v-.7c.1,0,.1-.1.1-.2h0Z" fill="#263238"/>
    <path id="el3pcmuy61nzp" d="m275,258c-.9-.5-1.8-.8-2.8-.8l-68.6-7.5c-2.3-.3-5-.4-6.8,1.1-2.3,2-1.9,5.6-.9,8.4s2.6,5.7,2,8.6l73.7,4.6c-.5-2.7,1.6-5,3.2-7.2s2.4-5.6.2-7.2h0Z" fill="#ff7200"/>
    <path id="elhlml0jyytdq" d="m278.2,271c-.3.1-.5.2-.8.2l-2.3.5c-1,.2-2.3.5-3.7.7s-3.1.5-5,.8l-2.9.4c-1,.1-2.1.2-3.2.3-2.2.2-4.5.3-7,.4-5.3.2-10.7,0-16-.4-5.3-.5-10.6-1.2-15.9-2.3-2.4-.5-4.7-1-6.8-1.6-1.1-.3-2.1-.5-3.1-.8l-2.8-.8c-1.8-.5-3.4-1.1-4.8-1.6s-2.6-.9-3.6-1.3l-2.2-.9c-.3-.1-.5-.2-.8-.3.3.1.5.1.8.2l2.2.8c1,.4,2.2.8,3.6,1.2s3,1,4.8,1.5l2.8.8c1,.3,2,.5,3.1.8,2.1.6,4.4,1,6.8,1.5,10.4,2.1,21.1,3,31.7,2.6,2.5-.1,4.8-.2,7-.4,1.1-.1,2.1-.1,3.1-.3l2.9-.3c1.8-.2,3.5-.5,5-.7s2.7-.4,3.7-.6l2.4-.4c.5.1.7,0,1,0h0Z" fill="#263238"/>
    <g id="elo63f02zbo8l">
      <g id="ellui3j7rmp1" opacity=".3">
        <path id="el3d9t7uxr2id" d="m110.4,343.8c-13.4,2.4-24.4,12-28.4,25,3.4-1.1,6.7-4.1,9.2-6.7,6.5-6.8,14.5-11.4,23.9-12.4,6.5-.7,12.6,1,18.7,3.4,2.7,1.1,5.8,1.7,8.2,3.3l3.2.7c-7.5-10.9-21.6-15.4-34.8-13.3Z"/>
      </g>
    </g>
    <g id="el6pvtvucjn93">
      <g id="elebnwg809x2" opacity=".3">
        <path id="elj0bf8h0ylr" d="m202.7,266.2c9.8,8.8,22.5,15.1,35.6,16.1,13.1,1,25.7-3.2,36.6-10.6-26.6,4.1-50.9,2.7-72.2-5.5Z"/>
      </g>
    </g>
    <g id="elpij82j74qd">
      <g id="elx0qvn283qkh" opacity=".3">
        <path id="el9op0znmiz78" d="m370.2,360.9c-2.1-1.4-4.9-1.3-7.4-1-15.9,1.9-31.2,12.7-32.8,30.1h0c6.7-12.9,20.4-22.4,34.9-21.1,2.4.2,5.3.5,6.9-1.4s.5-5.2-1.6-6.6Z"/>
      </g>
    </g>
    <path id="elu6imto3t34g" d="m66.3,444.2l130.1-.7s-.9,2.5,4.5,2.5l43-.3s3.2.3,3.2-2.2c0,0,100.8,1.7,125.7,2.4,1.9,0,5.2-1.1,3.6-3.5l-8.7-10.4-143.9-14-102,10.7-35-12.6h-1.2c-1,0-1.9.5-2.4,1.2l-18,25c-.4.5-.2,1.2.3,1.6.3.2.5.3.8.3Z" fill="#455a64"/>
    <g id="elnu59tnt3f9">
      <polygon id="el67w4lia5fb4" points="121.3 441.2 353 443 298.5 426.1 230.5 428 162.6 425.3 121.3 441.2" isolation="isolate" opacity=".2"/>
    </g>
    <path id="elfizhwdmgpfu" d="m222.6,436.6l1.3-28.5s.3-15.7-18.6-20.9-42.4,1.4-64.4,2.6-21.7-.5-21.7-.5l-17.8,27.6,70.1,10.2s40.6,2.4,41.4,2.6,9.7,6.9,9.7,6.9h0Z" fill="#fff"/>
    <path id="elh31f63retv5" d="m222.4,437.6l1.5-26.8s-.3-15.6,18.6-20.9c18.9-5.3,42.4,1.4,64.4,2.6,15.4.8,20.2.7,21.6.5.4,0,.8.1,1.1.5l16.9,26.1-70.1,10.2s-40.6,2.4-41.4,2.6-12.6,5.2-12.6,5.2h0Z" fill="#fff"/>
    <path id="elkjzecwvb7y" d="m70.7,442.1l30.5-25.2s63.2-10.7,84.7-6.9,33.7,11.2,36.6,26.9l-20.6,5.2c-8.5-4.3-17.9-6.7-27.4-6.9-15.5-.2-54.3,6.9-54.3,6.9h-49.5Z" fill="#e0e0e0"/>
    <path id="elz70fn2jg8i" d="m244.4,442.1l-21.7-5.5s1.6-24.9,36.9-29.1c0,0,10-3.2,45.4,3.4s39.1,6.4,39.1,6.4l29.5,26.1s-17.6,1.4-32.1-1.4-39.8-12.6-67.3-9.7-29.8,9.8-29.8,9.8h0Z" fill="#e0e0e0"/>
    <polygon id="elq2n3ehbaurd" points="101.3 416.9 118.5 390.2 87.9 414.7 68.5 442.1 70.7 442.1 101.3 416.9" fill="#e0e0e0"/>
    <path id="elu1nilmpnig" d="m343.9,417.4l-14.1-23.7s28,24.4,28.3,25.1,15.3,24.7,15.3,24.7l-29.5-26.1h0Z" fill="#e0e0e0"/>
    <polyline id="elexuoedf354b" points="200.9 442.1 244.3 442.1 222.6 436.6 221.4 436.8" fill="#263238"/>
    <path id="elvsbfr69jk9" d="m222.6,436.6c-.1,0,0-6.2.3-13.9s.7-13.9.9-13.9,0,6.2-.3,13.9-.8,13.9-.9,13.9Z" fill="#263238"/>
    <path id="eltdb2d5xzu5" d="m131.7,412.5c-.2.1-.4.1-.6.1l-1.7.3-6.4,1-21.7,3.3h.1l-4.2,3.2-20.2,15.4-6.2,4.6-1.7,1.2c-.2.2-.4.3-.6.4.2-.2.3-.3.6-.5l1.6-1.3,6.1-4.8,20.2-15.6,4.2-3.2h.2l21.7-3,6.4-.9,1.7-.2h.5Z" fill="#263238"/>
    <path id="elgxtgnar8wlc" d="m219.7,421.7s-.1-.1-.2-.2l-.5-.6c-.5-.5-1.2-1.4-2.1-2.3-2.8-2.7-5.9-5-9.4-6.8-5.1-2.6-10.6-4.4-16.3-5.2-7-1-14-1.5-21.1-1.4-12.8,0-25.6.9-38.3,2.9-4.9.8-8.8,1.5-11.5,2l-3.1.6-.8.2h-.3l.3-.1.8-.2c.7-.2,1.7-.4,3.1-.7,2.7-.6,6.6-1.4,11.4-2.2,12.7-2.1,25.5-3.1,38.3-3.1,7.1-.1,14.2.4,21.1,1.5,5.7.9,11.3,2.7,16.4,5.4,3.5,1.8,6.6,4.2,9.3,7,.7.8,1.4,1.6,2.1,2.4l.5.7c.2-.1.3,0,.3.1h0Z" fill="#263238"/>
    <path id="elxstels2u87l" d="m219.7,418.2s-.1-.1-.2-.2l-.5-.6c-.2-.3-.5-.6-.8-.9s-.7-.8-1.1-1.2c-2.5-2.5-5.4-4.7-8.6-6.5-4.7-2.6-9.8-4.4-15-5.4-6.4-1.2-12.9-1.8-19.5-1.8-11.9-.2-23.8.4-35.5,1.9-4.5.6-8.2,1.1-10.7,1.6l-2.9.5-.8.1h-.3l.2-.1.8-.2c.6-.1,1.6-.4,2.9-.6,2.5-.5,6.1-1.1,10.7-1.7,11.8-1.6,23.7-2.3,35.6-2,6.6,0,13.1.6,19.6,1.8,5.3,1,10.4,2.9,15.1,5.5,3.2,1.8,6,4,8.5,6.6.4.5.8.9,1.1,1.3s.6.7.8,1l.4.6c.1.2.2.2.2.3h0Z" fill="#263238"/>
    <path id="elos9tizrgtrb" d="m219.7,414.7s-.1,0-.2-.2l-.5-.6c-.2-.3-.5-.6-.8-.9s-.7-.8-1.1-1.2c-2.5-2.5-5.3-4.7-8.5-6.4-4.6-2.6-9.6-4.4-14.8-5.4-6.4-1.2-12.8-1.8-19.3-1.8-11.8-.3-23.5.3-35.2,1.8-4.5.5-8.1,1.1-10.6,1.5l-2.9.5-.8.1h-.3l.2-.1.7-.2c.7-.1,1.6-.3,2.9-.6,2.5-.5,6.1-1.1,10.6-1.7,11.7-1.5,23.5-2.2,35.3-1.9,6.5,0,13,.7,19.4,1.9,5.2,1,10.3,2.9,14.9,5.5,3.1,1.8,6,4,8.4,6.6.4.5.8.9,1.1,1.3s.6.7.8,1l.4.6c.2.1.3.1.3.2h0Z" fill="#263238"/>
    <path id="eluvd7u6p9dp" d="m219.7,411.2s-.1,0-.2-.2l-.5-.6c-.4-.5-1-1.2-1.9-2.1-6.1-6.2-13.8-10.6-22.3-12.4-5.7-1.3-12.1-1.3-18.9-1.2-13.5.1-25.7.7-34.5,1.6-4.4.4-8,.9-10.4,1.3l-2.8.4-.7.1h-.2c.1,0,.2,0,.2-.1l.7-.2c.6-.1,1.6-.3,2.8-.5,2.4-.4,6-1,10.4-1.5,11.5-1.2,23-1.7,34.5-1.7,6.7-.1,13.2,0,19,1.3,5.1,1.1,10,3.1,14.3,6,2.9,1.9,5.6,4.2,8,6.7.6.7,1.3,1.4,1.8,2.2l.4.6c.2.2.3.2.3.3h0Z" fill="#263238"/>
    <path id="elgisunu5itz" d="m219.7,407.7s-.1,0-.2-.2l-.5-.6c-.4-.5-1-1.2-1.8-2.2-2.3-2.6-4.9-4.9-7.7-6.9-2-1.3-4.1-2.5-6.3-3.4-2.5-1-5.2-1.7-7.9-2.2-6.2-1-12.5-1.4-18.8-1.2-13.4.4-25.5,1.7-34.2,2.4-4.4.4-7.9.6-10.4.8l-2.8.1h-.9.2l.7-.1,2.8-.2,10.4-.9c8.8-.8,20.8-2.1,34.2-2.5,6.3-.3,12.7.1,18.9,1.2,2.7.5,5.4,1.3,8,2.3,2.2.9,4.3,2.1,6.3,3.5,2.9,2,5.4,4.4,7.7,7,.8.9,1.4,1.7,1.8,2.2l.4.6c.1.2.1.3.1.3h0Z" fill="#263238"/>
    <path id="el95rim2uscq" d="m226,420.7s.1-.1.2-.2l.5-.6c.7-.8,1.4-1.6,2.1-2.4,2.8-2.8,6-5.1,9.5-6.8,5.2-2.6,10.8-4.3,16.5-5.1,7-.9,14.1-1.3,21.2-1.1,12.8.2,25.7,1.4,38.3,3.8,4.8.9,8.7,1.8,11.4,2.4,1.3.3,2.4.6,3.1.8l.8.2c.1,0,.2,0,.3.1h-.3l-.8-.2-3.1-.7c-2.7-.6-6.6-1.4-11.4-2.2-12.6-2.2-25.4-3.4-38.2-3.6-7-.2-14.1.1-21.1,1-5.7.8-11.3,2.4-16.4,4.9-3.5,1.7-6.7,3.9-9.5,6.6-1,1-1.7,1.7-2.2,2.3l-.5.6-.4.2h0Z" fill="#263238"/>
    <path id="eld65tz8mhu6o" d="m226.1,417.2l.1-.2.5-.6c.2-.3.5-.6.8-1s.7-.8,1.1-1.2c2.5-2.6,5.5-4.8,8.6-6.5,4.7-2.5,9.9-4.3,15.1-5.2,6.5-1.1,13-1.6,19.6-1.5,11.9,0,23.8.9,35.6,2.7,4.5.7,8.1,1.4,10.6,1.9,1.2.2,2.2.5,2.9.6l.7.2c.1,0,.2,0,.2.1h-.3l-.8-.1-2.9-.5c-2.5-.5-6.1-1.1-10.7-1.8-11.8-1.7-23.6-2.5-35.5-2.5-6.5-.1-13.1.4-19.5,1.4-5.3.9-10.3,2.6-15.1,5.1-3.2,1.7-6.1,3.8-8.7,6.3-.5.4-.9.9-1.2,1.2s-.6.7-.8.9l-.5.6.2.1h0Z" fill="#263238"/>
    <path id="el55rqe13h0rj" d="m226.1,413.7s0-.1.1-.2l.5-.6c.2-.3.5-.7.8-1,.4-.4.7-.9,1.1-1.2,2.5-2.6,5.4-4.7,8.5-6.4,4.7-2.5,9.8-4.3,15-5.2,6.4-1.1,12.9-1.6,19.4-1.5,11.8-.1,23.6.8,35.2,2.6,4.5.7,8.1,1.4,10.5,1.9,1.2.2,2.2.5,2.9.6l.7.2c.1,0,.2,0,.2.1h-.3l-.7-.1-2.9-.5c-2.5-.5-6.1-1.1-10.6-1.7-11.7-1.7-23.4-2.5-35.2-2.4-6.5-.1-12.9.4-19.3,1.5-5.2.9-10.2,2.6-14.9,5.1-3.1,1.7-6,3.8-8.6,6.3-.4.4-.8.8-1.2,1.2s-.6.7-.8.9l-.5.6c.2-.2.1-.2.1-.2h0Z" fill="#263238"/>
    <path id="elv9dibnh8wc" d="m226.2,407.7c.7-1,1.6-2,2.5-2.9,2.6-2.3,5.5-4.2,8.7-5.5,2.2-.9,4.4-1.8,6.7-2.5,2.6-.9,5.2-1.6,7.9-2.1,5.7-1.1,12.1-1,18.8-.8,13.3.4,25.3,2.1,34,3.1l10.3,1.2,2.8.3.7.1h.2-.9l-2.8-.2c-2.4-.2-6-.6-10.3-1.1-8.7-.9-20.6-2.5-34-2.9-6.6-.2-13-.3-18.7.7-2.7.5-5.3,1.2-7.9,2-2.5.8-4.7,1.5-6.7,2.4-3.2,1.3-6.1,3.1-8.8,5.3-.4.4-.8.7-1.2,1.1-.3.3-.6.6-.8.9l-.5.5c.1.4,0,.4,0,.4h0Z" fill="#263238"/>
    <path id="elipwnkhgsn9" d="m269.6,416.8v16.9l5.6-5.1,5.5,4.8.3-16.5c.1.1-9-.4-11.4-.1h0Z" fill="#ff7200"/>
    <path id="elvxehghpg0ih" d="m333.1,426.6h-.3l-.8-.2-3.2-.8c-2.8-.7-6.8-1.6-11.7-2.5s-10.9-2-17.5-3.1l-10.4-1.7c-3.7-.7-7.4-1.1-11.2-1.2-3.8-.2-7.5-.1-11.3.2-3.5.2-7,.7-10.4,1.5-5.8,1.4-11.2,4-15.9,7.6-1.8,1.4-3.5,2.9-5.1,4.5-1.4,1.4-2.6,2.7-3.6,3.7l-2.1,2.5-.6.6c-.1.1-.2.2-.2.2l.2-.2.5-.7c.5-.6,1.2-1.4,2.1-2.5s2.1-2.4,3.5-3.8c1.6-1.6,3.3-3.2,5.1-4.6,4.7-3.7,10.2-6.4,16-7.8,3.4-.8,6.9-1.4,10.4-1.6,3.8-.3,7.5-.3,11.3-.2,3.8.1,7.5.6,11.2,1.2l10.4,1.7c6.6,1.1,12.6,2.2,17.5,3.2s9,2,11.7,2.7c1.4.4,2.4.6,3.1.9l.8.2c.3.2.4.2.5.2h0Z" fill="#263238"/>
    <path id="elpnspwjx9rx" d="m215.2,438.2s-.1-.1-.2-.2l-.7-.8c-.3-.3-.7-.8-1.1-1.2s-1-1-1.6-1.6c-3.5-3.3-7.5-6.1-11.9-8.2-6.4-3.2-13.4-5.3-20.5-6.2-8.7-1.1-17.6-1-26.3.2-9.3,1.1-18,3-26,4.6s-15.1,3.1-21.2,3.9c-4.8.7-9.6,1.2-14.5,1.4-1.7,0-3.1.1-4,0h-1.3,1.3c.9,0,2.2-.1,3.9-.1,4.8-.3,9.7-.8,14.4-1.5,6.1-.9,13.2-2.4,21.2-4s16.7-3.5,26-4.7c8.8-1.2,17.6-1.2,26.4-.1,7.2,1,14.1,3.1,20.6,6.4,4.4,2.2,8.4,4.9,11.9,8.3l1.6,1.6c.4.5.8.9,1.1,1.3l.7.8c0-.1.1,0,.2.1h0Z" fill="#263238"/>
    <path id="elvceoc1lxv9a" d="m215.2,441.7s-.1-.1-.2-.2l-.7-.8c-.3-.3-.7-.8-1.1-1.2l-1.6-1.6c-3.5-3.3-7.5-6.1-11.9-8.2-6.4-3.2-13.4-5.3-20.5-6.2-8.7-1.1-17.6-1-26.3.2-9.3,1.1-18,3-26,4.6s-15.1,3.1-21.2,3.9c-4.8.7-9.6,1.2-14.5,1.4-1.7,0-3.1.1-4,0h-1.3,1.3c.9,0,2.2-.1,3.9-.1,4.8-.3,9.7-.8,14.4-1.5,6.1-.9,13.2-2.4,21.2-4s16.7-3.5,26-4.7c8.8-1.2,17.6-1.2,26.4-.1,7.2,1,14.1,3.1,20.6,6.4,4.3,2.2,8.3,5.1,11.8,8.4l1.6,1.6c.4.5.8.9,1.1,1.3l.7.8c.2-.1.3,0,.3,0h0Z" fill="#263238"/>
    <path id="elj53h8wsgpw" d="m204.9,438.7c-.2-.1-.4-.3-.6-.4-.4-.3-.9-.7-1.6-1.2-1.9-1.5-4-2.7-6.1-3.9-3.2-1.7-6.5-3-9.9-3.9-4.2-1.2-8.5-1.9-12.9-2.2-8-.4-15.9,0-23.8,1.2l-7.2,1-2,.3h-.7c.2-.1.4-.1.7-.2l1.9-.4c1.7-.3,4.1-.7,7.2-1.2,7.9-1.3,15.9-1.7,23.9-1.3,4.4.3,8.8,1.1,13,2.3,3.5,1,6.8,2.4,10,4.1,2.1,1.1,4.1,2.5,6,4,.7.5,1.1,1,1.5,1.3.2.1.4.3.6.5h0Z" fill="#263238"/>
    <path id="el7o9s3xwktjy" d="m166.4,368l35.3-7.6s13.2-2.7,15.8-1.3,17.3,13.2,18.6,14.3c1.3,1.1,15.4,18,15.4,18,0,0-.3,5.4-8.1,3.2-4-1.1-20.9-15.9-20.9-15.9l-4-3.1s6.2,9.6,6.1,12.7-4.1,9.4-5.4,10.3-8.1-.3-8.1-.3c0,0-4.8,5.2-8.6,1.1,0,0-6.4,6.7-11.6,2.8l-2.8-5.5-2.7-2.1s-.4,3.8-3,4.2-31.6-5.8-31.6-5.8l10-27.3,5.6,2.3h0Z" fill="#ffbf9d"/>
    <path id="elcnoyoffw5wo" d="m203.9,377.6c.3.1.6.3.8.5.5.4,1.2,1,2,1.7,2.2,2,4.1,4.2,5.8,6.6.5.7.8,1.5,1.1,2.3s.4,1.6.3,2.4c-.2,1.3-.5,2.6-1.1,3.9-.3.8-.7,1.6-1.2,2.4-.2.3-.4.5-.7.7,0,0,.2-.3.5-.8.4-.8.8-1.6,1.1-2.4.5-1.2.8-2.5.9-3.8v-1.1c-.1-.4-.2-.7-.3-1.1-.3-.8-.7-1.5-1.1-2.2-1.7-2.4-3.5-4.6-5.6-6.6-1.5-1.5-2.5-2.4-2.5-2.5Z" fill="#ff9a6c"/>
    <path id="el0oyrkov65o9" d="m185.7,380.8c.3-.2.7-.3,1.1-.4,1-.2,2.1-.3,3.1-.1,3.5.5,6.6,2.4,8.7,5.2,1.1,1.6,1.9,3.3,2.4,5.1.4,1.5.8,3,1,4.5.2,1.3.3,2.4.4,3.1v1.1c-.1,0-.3-1.6-.8-4.2-.3-1.5-.7-3-1.1-4.4-.5-1.8-1.3-3.5-2.4-5-1.1-1.5-2.5-2.7-4.1-3.6-1.3-.8-2.7-1.3-4.2-1.5-1.4-.1-2.7-.1-4.1.2h0Z" fill="#ff9a6c"/>
    <path id="elt5s67l7l8u" d="m206.6,367.2s.2-.1.6-.2c.2,0,.5-.1.8,0,.3,0,.7,0,1,.1,1.9.5,3.6,1.4,5,2.7,1.4,1.2,2.7,2.6,3.9,4.1.5.6.9,1.3,1.2,2-.6-.5-1.1-1.1-1.6-1.8-1.2-1.4-2.5-2.8-3.9-4s-3-2.2-4.7-2.7c-.8-.1-1.5-.2-2.3-.2Z" fill="#ff9a6c"/>
    <path id="elasdwf4zfi8" d="m160.2,361.9l-17.7-6.9-32.6,1.7-16.2,21.9-6.5,31.5s59.6-13.1,61.5-13.3,4.9-3.2,4.9-3.2l6.4,1.3,8.1-27.3-7.9-5.7Z" fill="#ff7200"/>
    <path id="elv9aqr4z5gpl" d="m170.8,366.1l-.2-.1-.7-.2-2.6-1-9.6-3.7-14.2-5.6-8.4-3.3c-3-1.3-6-2.3-9.1-3.1-3.1-.8-6.3-1.1-9.5-.7-3,.3-5.9,1-8.7,2.1-4.7,1.9-9.1,4.5-13.1,7.6-3.4,2.7-6,5-7.8,6.6l-2.1,1.9-.6.5c-.1.1-.2.2-.2.1s.1-.1.2-.2l.5-.5,2-1.9c1.8-1.7,4.3-4.1,7.8-6.8,4-3.2,8.4-5.9,13.2-7.8,2.8-1.1,5.8-1.8,8.8-2.2,3.3-.3,6.5-.1,9.7.7,3.1.8,6.2,1.9,9.2,3.2l8.4,3.3,14.2,5.7,9.6,3.9,2.6,1.1.7.3-.1.1Z" fill="#263238"/>
    <path id="el5tndea8mss" d="m315.9,414.1c-.7-1.2-1-2.9.7-4.9l4.8-2.1c.5-1.5,1.3-2.8,2.3-4.1,1.2-1.1,3-2.5,3-2.5,0,0,2.6-3.6,5.2-5.2s8.7-3.1,10.8-5,8.8-7.7,13.5-5.5,8,10.1,11.6,11.7,5,7.1,6.4,9.4,2.9,3.9,3.1,5.6,4.1,5.2,4.9,9.8.3,6.3-1.8,8-6.3,5.2-10.4,5.8c-2.3.3-5.5.5-7.9.7-1.9.1-3.7-1-4.5-2.7l-.3-.6s-10.6,5.4-15.7,4.7-3-5.1-3-5.1c0,0-5.2,5-8.4,4s-5-.8-5.3-3.6,2.1-6.1,2.1-6.1c0,0-4.9.1-5.3-3.1-.1-2.3.3-4.6,1.3-6.7l-3.9-.4c-1.2-.3-2.4-1-3.2-2.1h0Z" fill="#ffbf9d"/>
    <path id="elt9q2ot8ktcj" d="m343.1,392.3c-.1.4-.3.8-.5,1.1-.2.4-.4.9-.7,1.3-.3.6-.7,1.1-1,1.6-1,1.4-2.1,2.7-3.2,3.9-1.3,1.4-2.8,2.8-4.5,4.3s-3.1,2.9-4.4,4.2c-1.2,1.2-2.2,2.5-3.2,3.8-1.7,2.3-2.3,4-2.4,3.9.1-.4.3-.8.5-1.2.2-.5.4-.9.6-1.3.3-.6.6-1.1,1-1.7,1-1.4,2-2.7,3.2-3.9,1.3-1.4,2.8-2.8,4.4-4.3s3.1-2.9,4.5-4.2c1.2-1.2,2.3-2.4,3.3-3.8,1.6-2.1,2.3-3.7,2.4-3.7h0Z" fill="#ff9a6c"/>
    <path id="elkgagjdjhypd" d="m356.3,396.7c0,.1-.1.3-.1.4-.1.3-.2.6-.5,1.1-.6,1.4-1.3,2.7-2.1,4-2.6,4.3-6,8.1-10,11.1-2.3,1.8-4.6,3.3-6.7,4.8s-3.9,2.8-5.4,4c-1.2.9-2.3,1.9-3.3,3-.4.4-.7.8-1.1,1.2.3-.5.6-.9,1-1.3,1-1.1,2.1-2.2,3.2-3.2,1.5-1.2,3.3-2.6,5.3-4.1s4.4-3,6.7-4.8c2.2-1.6,4.2-3.5,6-5.5,1.5-1.7,2.8-3.5,4-5.3,1-1.6,1.7-3,2.2-3.9.3-.5.5-1,.8-1.5h0Z" fill="#ff9a6c"/>
    <path id="elbnjwvyvw4u8" d="m358,398c.1.1-.7,1-1.7,1.9s-2,1.6-2.1,1.5.7-.9,1.7-1.9c.6-.6,1.3-1.1,2.1-1.5Z" fill="#ff9a6c"/>
    <path id="elpeegwew5ptd" d="m364.3,410.2c-.1.4-.2.9-.4,1.3-.5,1.1-1,2.2-1.7,3.3-2.4,3.3-5.4,6.1-8.9,8.2-4,2.6-7.7,4.7-10.3,6.3-1.3.8-2.4,1.5-3.1,2-.4.3-.7.5-1.1.7.3-.3.6-.6,1-.9.7-.5,1.7-1.3,3-2.1,2.6-1.8,6.3-3.9,10.3-6.5,3.4-2.1,6.5-4.8,8.9-8,.7-1.3,1.6-2.8,2.3-4.3h0Z" fill="#ff9a6c"/>
    <path id="elcnibs3cgrns" d="m374.6,416.8c-.1.3-.2.6-.4.9-.3.5-.7,1.3-1.3,2.2-1.6,2.3-3.4,4.4-5.5,6.4-1.1,1-2.3,2-3.6,2.9-1,.7-2.1,1.4-3.2,2-.5.3-.9.5-1.3.6s-.7.3-1,.4-.6.2-.9.3c0-.1,1.2-.6,3-1.7,1.1-.6,2.1-1.3,3.1-2.1,1.1-.9,2.3-1.8,3.5-2.9,2-1.9,3.9-4,5.5-6.2,1.3-1.7,2-2.9,2.1-2.8h0Z" fill="#ff9a6c"/>
    <path id="elb34ucr01kp" d="m325.6,405.3c-1.4.8-2.9,1.4-4.4,2-1.5.7-3,1.3-4.5,1.8-.1-.2,1.9-1.2,4.3-2.2s4.5-1.7,4.6-1.6h0Z" fill="#ff9a6c"/>
    <path id="elcl24wsiy5gg" d="m328.5,386.8c1.7-.1,3.5,0,5.2.2-3.5.2-6.9.2-10.4,0,1.7-.2,3.5-.3,5.2-.2h0Z" fill="#ff7200"/>
  </g>
</svg>