<?xml version="1.0" encoding="UTF-8"?>
<svg id="freepik_stories-translator" data-name="freepik stories-translator" xmlns="http://www.w3.org/2000/svg" viewBox="0 0 454.8 413.8">
  <g id="freepik--background-complete--inject-14">
    <g id="elfm43ofcnail">
      <path d="m326.4,230.9h73.7c9.5,0,17.2,7.7,17.2,17.2v26.8c0,9.5-7.7,17.2-17.2,17.2h-73.7c-9.5,0-17.2-7.7-17.2-17.2v-26.8c0-9.5,7.7-17.2,17.2-17.2h0Z" fill="#f5f5f5"/>
    </g>
    <path id="eln0321ilr35p" d="m326.5,287.6h13.7l.6,1.5s-1.9,12.8-18.3,15.4c.1,0,7.2-8.2,4-16.9h0Z" fill="#f5f5f5"/>
    <g id="elpjjmckyhv6">
      <path d="m329.4,0h48.4c9.5,0,17.2,7.7,17.2,17.2v12.5c0,9.5-7.7,17.2-17.2,17.2h-48.4c-9.5,0-17.2-7.7-17.2-17.2v-12.5c-.1-9.5,7.7-17.2,17.2-17.2Z" fill="#f5f5f5"/>
    </g>
    <path id="elo8yzfalq6t" d="m325.4,43.5h10.5l.5,1.2s-1.5,9.8-14,11.8c0-.1,5.5-6.3,3-13Z" fill="#f5f5f5"/>
    <path id="elw6pybzp532j" d="m312,128.1h16.3l.7,1.8s-2.2,15.2-21.8,18.3c0,0,8.5-9.7,4.8-20.1Z" fill="#f5f5f5"/>
    <g id="eli2qzrxh0pml">
      <path d="m299.8,80.2h107.6c7.5,0,13.5,6.1,13.5,13.6v29c0,7.5-6.1,13.6-13.5,13.6h-107.6c-7.5,0-13.5-6.1-13.5-13.6v-29c-.1-7.5,6-13.6,13.5-13.6Z" fill="#f5f5f5"/>
    </g>
    <path id="eldgznph4gl95" d="m119,222.3h-15.2l-.7,1.7s2.1,14.1,20.2,17.1c0,0-7.9-9.1-4.3-18.8Z" fill="#f5f5f5"/>
    <path id="elhy6r622xftj" d="m26.4,174.7h98.2c7.5,0,13.6,6.1,13.6,13.6v25.1c0,7.5-6.1,13.5-13.6,13.5H26.4c-7.5,0-13.5-6.1-13.5-13.5v-25.1c0-7.5,6.1-13.6,13.5-13.6Z" fill="#f5f5f5"/>
    <path id="el4xnnw0rths5" d="m145,41h-11.1l-.5,1.3s1.5,11.3,14.8,13.7c0,0-5.8-7.3-3.2-15Z" fill="#f5f5f5"/>
    <path id="eloq1fzjblc1l" d="m80.9,2.8h64.7c7.5,0,13.6,6.1,13.6,13.5v14.8c0,7.5-6.1,13.6-13.6,13.6h-64.7c-7.5,0-13.6-6.1-13.6-13.6v-14.7c0-7.5,6.1-13.6,13.6-13.6Z" fill="#f5f5f5"/>
  </g>
  <g id="freepik--Table--inject-14">
    <path id="elu4mmeev7p2" d="m454.8,413.5c0,.1-101.8.3-227.4.3s-227.4-.1-227.4-.3,101.8-.3,227.4-.3,227.4.1,227.4.3Z" fill="#263238"/>
  </g>
  <g id="freepik--Books--inject-14">
    <g id="eliu5f1j3jz5">
      <rect x="334.5" y="375.3" width="19.1" height="36.2" fill="#f5f5f5"/>
    </g>
    <g id="el22war2lbjfj">
      <rect x="353.6" y="374" width="89.6" height="39.2" fill="#455a64"/>
    </g>
    <path id="elzkpbc0lckfk" d="m333,413.2h23v-2.5h-23c-.7,0-1.3.6-1.3,1.3h0c0,.6.6,1.2,1.3,1.2h0Z" fill="#455a64"/>
    <g id="el1ek0p20hp6c">
      <path d="m331.7,374h23.2c.6,0,1.1.5,1.1,1.1h0v.3c0,.6-.5,1.1-1.1,1.1h-23.2v-2.5h0Z" fill="#455a64"/>
    </g>
    <path id="eldeo62fg53ze" d="m334.5,380.1c0,.1,4.3.1,9.5.1s9.5,0,9.5-.1-4.3-.1-9.5-.1-9.5.1-9.5.1Z" fill="#e0e0e0"/>
    <path id="elh8gue1h0zoq" d="m334.5,384.7c0,.1,4.3.1,9.5.1s9.5,0,9.5-.1-4.3-.1-9.5-.1-9.5.1-9.5.1Z" fill="#e0e0e0"/>
    <path id="eljob7htddbwa" d="m334.5,389.4c0,.1,4.3.1,9.5.1s9.5,0,9.5-.1-4.3-.1-9.5-.1-9.5,0-9.5.1Z" fill="#e0e0e0"/>
    <path id="el4eyt5hjp922" d="m334.5,394c0,.1,4.3.1,9.5.1s9.5,0,9.5-.1-4.3-.1-9.5-.1-9.5.1-9.5.1Z" fill="#e0e0e0"/>
    <path id="elhdc59d6prdp" d="m334.5,398.7c0,.1,4.3.1,9.5.1s9.5,0,9.5-.1-4.3-.1-9.5-.1-9.5,0-9.5.1Z" fill="#e0e0e0"/>
    <path id="elopsjzt4b4xj" d="m334.5,403.3c0,.1,4.3.1,9.5.1s9.5,0,9.5-.1-4.3-.1-9.5-.1-9.5,0-9.5.1Z" fill="#e0e0e0"/>
    <path id="el46efei3gfsg" d="m334.5,407.9c0,.1,4.3.1,9.5.1s9.5,0,9.5-.1-4.3-.1-9.5-.1-9.5.1-9.5.1Z" fill="#e0e0e0"/>
    <rect id="el5lq2s7019ov" x="419.3" y="336.4" width="18.4" height="21.9" fill="#f5f5f5"/>
    <rect id="ellhjhfmrsbx" x="336.7" y="335" width="83.2" height="24.7" fill="#ff7200"/>
    <path id="elsnv878ps9ud" d="m438.3,337.1h-20.6v-2.1h20.6c.6,0,1,.4,1,1h0c0,.6-.4,1.1-1,1.1.1,0,0,0,0,0Z" fill="#ff7200"/>
    <path id="elgbty2wyhk5t" d="m438.3,359.7h-20.6v-2.1h20.6c.6,0,1,.4,1,1h0c0,.6-.4,1-1,1.1.1,0,0,0,0,0Z" fill="#ff7200"/>
    <g id="elugc6tvljg0e">
      <g opacity=".4">
        <rect id="elee3i9xvz3tk" x="403.6" y="335" width="9.8" height="24.7"/>
      </g>
    </g>
    <g id="elkp7cpzuguec">
      <g opacity=".4">
        <rect id="eldqm7ifdeixn" x="344.1" y="335" width="9.8" height="24.7"/>
      </g>
    </g>
    <path id="elhwfoi0poswr" d="m437.8,340c0,.1-4,.1-8.9.1s-8.9,0-8.9-.1,4-.1,8.9-.1,8.9.1,8.9.1Z" fill="#e0e0e0"/>
    <path id="el8ne600ltdlu" d="m437.8,343.3c0,.1-4,.1-8.9.1s-8.9,0-8.9-.1,4-.1,8.9-.1,8.9.1,8.9.1Z" fill="#e0e0e0"/>
    <path id="eluh40lle99dn" d="m437.8,347.4c0,.1-4,.1-8.9.1s-8.9,0-8.9-.1,4-.1,8.9-.1,8.9,0,8.9.1Z" fill="#e0e0e0"/>
    <path id="eltknih6aajfp" d="m437.8,351.4c0,.1-4,.1-8.9.1s-8.9,0-8.9-.1,4-.1,8.9-.1,8.9,0,8.9.1Z" fill="#e0e0e0"/>
    <path id="elbe5vthyv1aj" d="m437.8,355.5c0,.1-4,.1-8.9.1s-8.9,0-8.9-.1,4-.1,8.9-.1,8.9,0,8.9.1Z" fill="#e0e0e0"/>
    <g id="el8t5jca32zgv">
      <g opacity=".2">
        <rect id="elkydpp1tkbk" x="360.9" y="345.1" width="37.4" height="4.5"/>
      </g>
    </g>
    <rect id="elnm3am1u4ag9" x="418.9" y="360.2" width="18.7" height="13.3" fill="#fafafa"/>
    <rect id="elop5o12alpx" x="339.5" y="359.7" width="79.6" height="14.3" fill="#263238"/>
    <path id="elhfzxnj3crvb" d="m418.5,360.6h20.1c.3,0,.5-.2.5-.5h0c0-.3-.2-.5-.5-.5h-20.1v1Z" fill="#263238"/>
    <path id="elgs6y3ezwswe" d="m418.5,373h20.2c.2,0,.4.2.4.4h0v.1c0,.2-.2.4-.4.4h-20.2v-.9h0Z" fill="#263238"/>
    <path id="elsvly6jkb61a" d="m437.6,362.7c0,.1-4.1.1-9.2.1s-9.2,0-9.2-.1,4.1-.1,9.2-.1,9.2,0,9.2.1Z" fill="#e0e0e0"/>
    <path id="elt3bvlpsdz8" d="m437.6,365.2c0,.1-4.1.1-9.2.1s-9.2,0-9.2-.1,4.1-.1,9.2-.1,9.2.1,9.2.1Z" fill="#e0e0e0"/>
    <path id="el40nn9ua4snq" d="m437.6,367.7c0,.1-4.1.1-9.2.1s-9.2,0-9.2-.1,4.1-.1,9.2-.1,9.2.1,9.2.1Z" fill="#e0e0e0"/>
    <path id="el8fj82egix8f" d="m437.6,370.3c0,.1-4.1.1-9.2.1s-9.2,0-9.2-.1,4.1-.1,9.2-.1,9.2,0,9.2.1Z" fill="#e0e0e0"/>
    <path id="elhq24xtexfdc" d="m363.9,391.1h3.5c2.5,0,4.2,1.5,4.2,3.8s-1.7,3.8-4.2,3.8h-3.5v-7.6h0Zm3.4,6.1c1.3.1,2.4-.9,2.5-2.2s-.9-2.4-2.2-2.5h-1.9v4.7h1.6Z" fill="#fff"/>
    <path id="elt3dhaa7wfp" d="m373,391.1h1.8v7.5h-1.8v-7.5Z" fill="#fff"/>
    <path id="elabylwg9l81r" d="m376.1,394.9c0-2.2,1.8-3.9,3.9-3.9h.2c1.2-.1,2.4.4,3.2,1.3l-1.1,1c-.5-.6-1.2-.9-1.9-.9-1.3-.1-2.5.9-2.6,2.3s.9,2.5,2.3,2.6h.3c.7,0,1.5-.3,1.9-.9l1.1,1c-.8.9-2,1.4-3.2,1.3-2.1.1-4-1.5-4.1-3.6v-.2h0Z" fill="#fff"/>
    <path id="elrvukembvse" d="m386.2,392.5h-2.5v-1.4h6.7v1.4h-2.5v6.1h-1.8l.1-6.1h0Z" fill="#fff"/>
    <path id="elirza3ve7jhp" d="m391.3,391.1h1.8v7.5h-1.8v-7.5Z" fill="#fff"/>
    <path id="el4r1ywu3nut4" d="m394.4,394.9c-.2-2.3,1.6-4.3,3.9-4.5s4.3,1.6,4.5,3.9-1.6,4.3-3.9,4.5h-.3c-2.2.1-4-1.5-4.2-3.7v-.2h0Zm6.6,0c0-1.3-1.1-2.4-2.4-2.4s-2.4,1.1-2.4,2.4,1.1,2.4,2.4,2.4c1.3.1,2.4-.9,2.4-2.2v-.2h0Z" fill="#fff"/>
    <path id="elo8lnb8x0ys" d="m411.2,391.1v7.5h-1.5l-3.8-4.5v4.6h-1.8v-7.6h1.5l3.8,4.6v-4.6h1.8Z" fill="#fff"/>
    <path id="elfn71te449ln" d="m418.1,397h-3.6l-.7,1.6h-1.8l3.4-7.5h1.8l3.4,7.5h-1.9l-.6-1.6h0Zm-.6-1.3l-1.2-2.9-1.2,2.9h2.4Z" fill="#fff"/>
    <path id="elm6r78k0acr" d="m426.3,398.6l-1.5-2.1h-1.6v2.1h-1.8v-7.5h3.3c2,0,3.3,1,3.3,2.7,0,1-.6,2-1.6,2.4l1.7,2.4h-1.8Zm-1.7-6.1h-1.4v2.6h1.4c1.1,0,1.6-.5,1.6-1.3s-.5-1.3-1.6-1.3h0Z" fill="#fff"/>
    <path id="elcbygh26rzkm" d="m433,396v2.7h-1.8v-2.7l-3-4.9h1.9l2,3.4,2-3.4h1.7l-2.8,4.9h0Z" fill="#fff"/>
  </g>
  <g id="freepik--speech-bubble-4--inject-14">
    <path id="elt50r6rgly58" d="m320.1,160.1h83.8c5.2,0,9.4,4.2,9.4,9.4h0v27.4c0,5.2-4.2,9.4-9.4,9.4h-11.2c.4,6.4,4.8,11.4,4.8,11.4-10.4-1.7-15-7.4-16.9-11.4h-60.5c-5.2,0-9.4-4.2-9.4-9.4h0v-27.5c.1-5.1,4.3-9.3,9.4-9.3h0Z" fill="#fafafa"/>
    <path id="elxfozbp3hgd" d="m320.1,160.1c-.8.1-1.5.2-2.2.3-3.8.9-6.6,4.1-7,8-.1.9-.1,1.8-.1,2.7v25.2c-.1,1.4.2,2.9.8,4.2,1.3,2.8,3.9,4.9,6.9,5.4.8.1,1.6.2,2.4.1h59.8l.1.1c1.5,3.1,3.9,5.7,6.8,7.6,1.5,1,3.1,1.8,4.7,2.4,1.7.6,3.4,1,5.2,1.3l-.2.4c-1.3-1.6-2.4-3.4-3.2-5.3-.9-2-1.4-4.1-1.6-6.2v-.2h12.3c3.8-.3,7-3,8-6.7.3-1.2.4-2.4.3-3.6v-25.3c.2-2.3-.5-4.5-1.8-6.3s-3.2-3-5.4-3.5c-1.1-.2-2.1-.3-3.2-.2h-38.1l-32.5-.1h-11.9,11.9l32.5-.1h38c1.1-.1,2.2,0,3.3.2,2.3.5,4.3,1.8,5.7,3.6,1.4,1.9,2.1,4.2,1.9,6.6v25.3c.1,1.3,0,2.5-.3,3.8-1,3.9-4.4,6.7-8.4,7.1-1.3.1-2.6,0-3.9,0h-8.2l.3-.3c.4,4.1,2,8.1,4.7,11.3l.4.5-.7-.1c-1.8-.3-3.6-.8-5.3-1.4-1.7-.6-3.3-1.4-4.8-2.4-3-1.9-5.4-4.6-6.9-7.8l.2.1h-59.6c-.8,0-1.6,0-2.5-.1-1.6-.3-3.1-.9-4.4-1.9-1.2-1-2.2-2.2-2.8-3.7-.6-1.4-.9-2.9-.8-4.4v-25.2c0-.9,0-1.8.1-2.8.5-3.9,3.3-7.1,7.1-8,.6-.1,1.1-.2,1.7-.2l.7-.4h0Z" fill="#263238"/>
    <g id="freepik--speech-bubble-4--text">
      <path id="txl41" d="m329.9,186.1l-1.2,4.2h-3.8l5-16.3h4.8l5.1,16.3h-4l-1.3-4.2h-4.6Zm4.2-2.7l-1-3.5c-.3-1-.6-2.2-.8-3.1h0c-.2,1-.5,2.2-.8,3.1l-1,3.5h3.6,0Z" fill="#ff7200"/>
      <path id="txl42" d="m341.7,182.3c0-1.5,0-2.7-.1-3.8h3.1l.2,1.6h.1c.5-.7,1.5-1.9,3.6-1.9,1.5,0,2.7.8,3.2,2h0c.4-.6,1-1.1,1.5-1.4.7-.4,1.4-.6,2.2-.6,2.3,0,4,1.6,4,5.1v7h-3.6v-6.4c0-1.7-.6-2.7-1.7-2.7-.8,0-1.5.6-1.7,1.3-.1.3-.1.7-.1.9v6.9h-3.6v-6.6c0-1.5-.5-2.5-1.7-2.5-.9,0-1.5.7-1.7,1.3-.1.3-.1.6-.1.9v6.9h-3.6v-8h0Z" fill="#ff7200"/>
      <path id="txl43" d="m372.4,187.4c0,1.1,0,2.2.2,2.9h-3.3l-.2-1.2h-.1c-.8.9-2,1.5-3.4,1.5-2.4,0-3.8-1.7-3.8-3.6,0-3.1,2.8-4.5,6.9-4.5v-.2c0-.6-.3-1.5-2.2-1.5-1.2,0-2.5.4-3.3.9l-.7-2.4c.8-.5,2.4-1,4.6-1,3.9,0,5.2,2.3,5.2,5.1l.1,4h0Zm-3.6-2.7c-1.9,0-3.4.4-3.4,1.9,0,.9.6,1.4,1.5,1.4s1.7-.6,1.9-1.4c0-.2.1-.4.1-.6v-1.3h-.1Z" fill="#ff7200"/>
      <path id="txl44" d="m375.3,182.3c0-1.5,0-2.7-.1-3.8h3.2l.2,1.6h.1c.5-.8,1.7-1.9,3.7-1.9,2.4,0,4.2,1.6,4.2,5.1v7h-3.7v-6.6c0-1.5-.5-2.6-1.9-2.6-1,0-1.6.7-1.9,1.4-.1.2-.1.6-.1.9v6.8h-3.7v-7.9h0Z" fill="#ff7200"/>
      <path id="txl45" d="m400.6,186.5c0,1.5,0,2.8.1,3.8h-3.2l-.2-1.7h-.1c-.5.7-1.6,1.9-3.7,1.9-2.4,0-4.2-1.5-4.2-5.2v-6.9h3.7v6.4c0,1.7.6,2.8,1.8,2.8,1,0,1.6-.7,1.8-1.3.1-.2.1-.5.1-.8v-7h3.7v8h.2Z" fill="#ff7200"/>
    </g>
  </g>
  <g id="freepik--speech-bubble-3--inject-14">
    <path id="elze6fitql7hj" d="m265.1,18.1h-58.3c-8.2,0-14.9,6.7-14.9,14.9v26.3c0,8.2,6.7,14.9,14.9,14.9h37.6c0,7.6-5.4,13.8-5.4,13.8,12.5-2,17.5-9.3,19.5-13.8h6.7c8.2,0,14.9-6.7,14.9-14.9h0v-26.3c0-8.3-6.7-14.9-15-14.9h0Z" fill="#fafafa"/>
    <path id="ellq4vo1ppj5" d="m265.1,18.1h1.5c1.4.1,2.9.5,4.2,1,5.2,2.1,8.8,7,9.3,12.6,0,.4,0,.9.1,1.3v23.9c0,1.2,0,2.4-.1,3.7-.1.6-.2,1.3-.3,1.9-.1.6-.3,1.3-.5,1.9-1.9,5.3-6.6,9.2-12.2,9.9-1.4.2-2.9.2-4.3.2h-4.4l.2-.1c-1.6,3.8-4.3,7-7.7,9.3-1.8,1.2-3.7,2.2-5.6,2.9-2,.7-4.1,1.3-6.3,1.6l-.7.1.4-.5c1.5-1.9,2.8-4,3.7-6.2,1-2.3,1.5-4.8,1.6-7.4l.3.3h-37.5c-.6,0-1.2,0-1.9-.1-2.4-.3-4.8-1.2-6.8-2.6s-3.6-3.2-4.8-5.4c-1.1-2.1-1.7-4.4-1.8-6.8v-26.5c0-2.1.4-4.2,1.3-6.2,1.6-3.7,4.7-6.6,8.5-8.1,1.8-.7,3.7-1,5.6-1h15.7l31,.1h11.4l-.6.2h-10.6l-31,.1h-15.7c-1.9,0-3.7.3-5.5,1-3.7,1.4-6.7,4.3-8.2,7.9-1.8,3.7-1.1,8.1-1.2,12.4s0,8.8,0,13.3v6.9c0,2.3.6,4.6,1.7,6.6,1.1,2.1,2.7,3.8,4.6,5.2,2,1.3,4.2,2.2,6.6,2.5.6.1,1.2.1,1.8.1h37.8v.3c-.1,2.6-.6,5.2-1.6,7.6-1,2.3-2.2,4.4-3.8,6.4l-.2-.4c2.1-.4,4.2-.9,6.2-1.6s3.8-1.7,5.5-2.9c3.3-2.3,5.9-5.4,7.5-9.1l.1-.1h4.6c1.4,0,2.9,0,4.3-.2,5.4-.7,10-4.4,11.9-9.6.2-.6.4-1.2.5-1.8s.2-1.2.3-1.8c.1-1.2.1-2.5.1-3.7v-23.9l-.1-1.3c-.5-5.5-4-10.3-9.1-12.4-2-1.1-3.9-1.5-5.8-1.5h0Z" fill="#263238"/>
    <g id="freepik--speech-bubble-3--text">
      <path id="txl31" d="m200.8,40.7h.7l-1.1,5.5h.1c.4-.4.8-.8,1.1-1.2l4.3-4.3h.9l-4.6,4.6,2.9,6.2h-.7l-2.7-5.7-1.4,1.3-.8,4.4h-.7l2-10.8Z" fill="#ff7200"/>
      <path id="txl32" d="m211.9,51.4c0-.5.1-1.3.2-2.3h0c-.9,1.8-2,2.4-3.2,2.4-1.3,0-2.1-1.1-2.1-2.4,0-2.7,2.1-5.6,5.2-5.6.6,0,1.3.1,1.8.2l-.8,4c-.3,1.6-.4,2.8-.3,3.6h-.8v.1h0Zm1-7c-.2-.1-.5-.1-1.1-.1-2.3,0-4.3,2.2-4.3,4.8,0,.9.3,2,1.6,2,1.4,0,2.9-1.8,3.4-4l.4-2.7h0Z" fill="#ff7200"/>
      <path id="txl33" d="m214.3,54.6l1.6-8.3c.2-.9.3-1.8.4-2.6h.7l-.3,1.6h0c.7-1.1,1.8-1.8,2.9-1.8,1.7,0,2.3,1.4,2.3,2.7,0,2.7-2,5.3-4.5,5.3-.9,0-1.5-.2-1.8-.4h0l-.6,3.4h-.7v.1h0Zm1.5-4.1c.4.3,1,.4,1.7.4,2,0,3.7-2.4,3.7-4.7,0-.9-.4-2.1-1.8-2.1-1.2,0-2.8,1.3-3.2,3.9,0,0-.4,2.5-.4,2.5Z" fill="#ff7200"/>
      <path id="txl34" d="m228.6,51.4c0-.5.1-1.3.2-2.3h0c-.9,1.8-2,2.4-3.2,2.4-1.3,0-2.1-1.1-2.1-2.4,0-2.7,2.1-5.6,5.2-5.6.6,0,1.3.1,1.8.2l-.8,4c-.3,1.6-.4,2.8-.3,3.6h-.8v.1h0Zm1-7c-.2-.1-.5-.1-1.1-.1-2.3,0-4.3,2.2-4.3,4.8,0,.9.3,2,1.6,2,1.4,0,2.9-1.8,3.4-4l.4-2.7h0Z" fill="#ff7200"/>
      <path id="txl35" d="m234.6,40.1l-1.1,5.4h0c.8-1.3,1.8-1.9,2.9-1.9,1.7,0,2.3,1.4,2.3,2.8,0,2.3-1.7,5.2-4.6,5.2-1.1,0-2.1-.4-2.1-1.9,0-.3.1-.8.1-1.1l1.7-8.6.8.1h0Zm-1.7,8.5c-.1.3-.1.6-.1,1,0,.8.5,1.3,1.5,1.3,2.4,0,3.8-2.7,3.8-4.6,0-1.1-.5-2.2-1.8-2.2s-2.8,1.4-3.2,3.5l-.2,1Z" fill="#ff7200"/>
      <path id="txl36" d="m245.3,51.4c0-.5.1-1.3.2-2.3h0c-.9,1.8-2,2.4-3.2,2.4-1.3,0-2.1-1.1-2.1-2.4,0-2.7,2.1-5.6,5.2-5.6.6,0,1.3.1,1.8.2l-.8,4c-.3,1.6-.4,2.8-.3,3.6h-.8v.1h0Zm1-7c-.2-.1-.5-.1-1.1-.1-2.3,0-4.3,2.2-4.3,4.8,0,.9.3,2,1.6,2,1.4,0,2.9-1.8,3.4-4l.4-2.7h0Z" fill="#ff7200"/>
      <path id="txl37" d="m248.5,51.4l2.2-11.4h.7l-2.2,11.4h-.7Z" fill="#ff7200"/>
      <path id="txl38" d="m259.1,43.8l-1.1,5.6c-.1.8-.2,1.5-.3,2.1h-.7l.2-1.6h0c-.6,1-1.7,1.8-2.8,1.8-.8,0-2.1-.3-2.1-2.3,0-.3,0-.7.1-1.2l.8-4.4h.7l-.8,4.4c-.1.5-.1.8-.1,1.2,0,1,.4,1.6,1.5,1.6s2.6-1.2,2.9-3l.8-4.2h.9Z" fill="#ff7200"/>
      <path id="txl39" d="m265.6,51.4c0-.5.1-1.3.2-2.3h0c-.9,1.8-2,2.4-3.2,2.4-1.3,0-2.1-1.1-2.1-2.4,0-2.7,2.1-5.6,5.2-5.6.6,0,1.3.1,1.8.2l-.8,4c-.3,1.6-.4,2.8-.3,3.6h-.8v.1h0Zm1-7c-.2-.1-.5-.1-1.1-.1-2.3,0-4.3,2.2-4.3,4.8,0,.9.3,2,1.6,2,1.4,0,2.9-1.8,3.4-4l.4-2.7Z" fill="#ff7200"/>
      <path id="txl391" d="m268.9,51.4l1.1-5.6c.2-.8.3-1.5.3-2.1h.7l-.2,1.6h0c.7-1.1,1.8-1.8,3-1.8.7,0,1.9.4,1.9,2.1,0,.4-.1.8-.1,1.2l-.8,4.5h-.7l.9-4.6c0-.3.1-.7.1-1.1,0-.9-.4-1.6-1.5-1.6s-2.7,1.2-3.1,3.3l-.7,3.9h-.9v.2h0Z" fill="#ff7200"/>
    </g>
  </g>
  <g id="freepik--speech-bubble-2--inject-14">
    <path id="elfbqsvu4b1u5" d="m61.1,249.7h53.4c4.9,0,8.9,4,8.9,8.9h0v22.5c0,4.9-4,8.9-8.9,8.9h-37.6c-2.3,3.8-6.9,8.5-16.1,10,2.4-2.9,4-6.3,4.6-10h-4.3c-4.9,0-8.9-4-8.9-8.9h0v-22.5c0-4.9,4-8.9,8.9-8.9h0Z" fill="#fafafa"/>
    <path id="el97j4ih5hbp" d="m61.1,249.7c-1.3.1-2.6.4-3.8.9-1.4.7-2.6,1.7-3.5,3-.6.8-1,1.7-1.2,2.7-.3,1.1-.4,2.2-.3,3.3,0,4.8,0,10.6.1,17.3v2.5c0,.9,0,1.7.1,2.6.4,3.8,3.3,6.8,7,7.6,1,.1,2,.2,2.9.2h3.3v.3c-.7,3.7-2.3,7.2-4.6,10.1l-.2-.4c3.1-.5,6.1-1.5,8.9-3,2.9-1.6,5.3-4,7-6.8l.1-.1h36.9c.9,0,1.9,0,2.8-.2,3.7-.8,6.4-4,6.7-7.7.1-7.4,0-14.5.1-21.3.1-1.6,0-3.3-.5-4.9-1.1-3-3.8-5.2-6.9-5.6-.8-.1-1.5-.1-2.3-.1h-19.3l-24.3-.1-6.7-.1h-1.7c-.4-.1-.6-.1-.6-.2l.6.1h8.3l24.3-.1h19c.8,0,1.6,0,2.4.1,3.3.5,6.2,2.7,7.3,5.9.3.8.5,1.6.5,2.5.1.9,0,1.7,0,2.5,0,6.8.1,13.9,0,21.3-.3,4-3.2,7.3-7.1,8.2-1,.2-1.9.3-2.9.2h-36.6l.2-.1c-1.8,2.9-4.3,5.3-7.2,7-2.8,1.6-5.9,2.6-9.1,3.1l-.6.1.4-.5c2.4-2.9,3.9-6.3,4.6-10l.2.3h-3.1c-1,0-2,0-3-.2-1.9-.4-3.7-1.4-5-2.9-1.2-1.4-2-3.1-2.2-5-.1-.9-.1-1.8-.1-2.6v-2.5c0-6.7,0-12.5.1-17.3-.1-1.1.1-2.3.3-3.4.3-1,.7-1.9,1.3-2.7.9-1.3,2.2-2.3,3.6-3,.9-.4,1.9-.7,2.8-.8.6-.2,1-.2,1-.2h0Z" fill="#263238"/>
    <g id="freepik--speech-bubble-2--text">
      <path id="txl21" d="m64.5,274.6c.5.4,1.6.8,2.5.8,1.1,0,1.6-.5,1.6-1.3s-.4-1.2-1.6-1.7c-1.9-.9-2.7-2-2.7-3.4,0-2,1.5-3.5,3.8-3.5,1.1,0,2,.3,2.6.7l-.5,2c-.4-.3-1.2-.6-2-.6-.9,0-1.4.5-1.4,1.2s.4,1.1,1.7,1.6c1.8.8,2.6,1.9,2.6,3.5,0,2.2-1.5,3.6-4.1,3.6-1.2,0-2.3-.3-3-.8l.5-2.1h0Z" fill="#ff7200"/>
      <path id="txl22" d="m81.2,274.5c0,1,0,2,.2,2.7h-2.3l-.2-1.3h-.1c-.6.9-1.6,1.5-2.9,1.5-2,0-3.2-1.6-3.2-3.4,0-2.9,2.4-4.3,5.8-4.3v-.2c0-.9-.3-2-2-2-1,0-1.9.3-2.6.8l-.5-1.8c.7-.5,2-1,3.6-1,3.2,0,4.1,2.2,4.1,4.8l.1,4.2h0Zm-2.5-3c-1.6,0-3.4.4-3.4,2.2,0,1.2.7,1.7,1.4,1.7.9,0,1.6-.6,1.9-1.5,0-.2.1-.4.1-.6v-1.8h0Z" fill="#ff7200"/>
      <path id="txl23" d="m84.3,260.5h2.6v16.7h-2.6v-16.7Z" fill="#ff7200"/>
      <path id="txl24" d="m92.7,262.6c0,.9-.5,1.5-1.4,1.5-.8,0-1.4-.7-1.4-1.5,0-.9.6-1.6,1.4-1.6s1.4.7,1.4,1.6Zm-2.7,14.6v-11.5h2.6v11.5h-2.6Z" fill="#ff7200"/>
      <path id="txl25" d="m98.7,262.8v2.9h2.4v2.1h-2.4v5.3c0,1.4.4,2,1.3,2,.4,0,.7,0,1-.1v2.2c-.4.1-1,.3-1.8.3-.9,0-1.7-.3-2.2-.9s-.8-1.6-.8-3.2v-5.6h-1.4v-2.1h1.4v-2.1l2.5-.8h0Z" fill="#ff7200"/>
      <path id="txl26" d="m111.1,274.5c0,1,0,2,.2,2.7h-2.3l-.2-1.3h-.1c-.6.9-1.6,1.5-2.9,1.5-2,0-3.2-1.6-3.2-3.4,0-2.9,2.4-4.3,5.8-4.3v-.2c0-.9-.3-2-2-2-1,0-1.9.3-2.6.8l-.5-1.8c.7-.5,2-1,3.6-1,3.2,0,4.1,2.2,4.1,4.8l.1,4.2h0Zm-2.5-3c-1.6,0-3.4.4-3.4,2.2,0,1.2.7,1.7,1.4,1.7.9,0,1.6-.6,1.9-1.5,0-.2.1-.4.1-.6v-1.8h0Zm1.7-10.7l-2.6,3.4h-1.8l1.8-3.4h2.6Z" fill="#ff7200"/>
    </g>
  </g>
  <g id="freepik--speech-bubble-1--inject-14">
    <path id="els4w64nngpe9" d="m137.3,76.5H48.7c-9.5,0-17.2,7.7-17.2,17.2h0v28.2c0,9.5,7.7,17.2,17.2,17.2h74.4c1.6,4.7,6.9,15,23.1,17.6,0,0-7.2-8.2-6.1-17.9,8.3-1.4,14.4-8.6,14.4-17v-28.2c0-9.4-7.7-17.1-17.2-17.1Z" fill="#fafafa"/>
    <path id="elxdvhmsy6t2a" d="m137.3,76.5h1.4c1.4.1,2.8.4,4.1.8,2.2.7,4.2,1.9,5.9,3.4l.8.7c.2.2.5.5.7.8.5.6,1,1.1,1.4,1.8.9,1.4,1.7,2.9,2.2,4.4.5,1.8.8,3.6.9,5.4v27.1c0,1.3-.1,2.6-.2,3.9-.7,4.2-2.9,8-6.2,10.6-1.2.9-2.4,1.7-3.8,2.3-1.4.6-2.8,1.1-4.3,1.3l.2-.2c-.6,6.1,1.9,12.6,6.1,17.7l.4.5-.6-.1c-5-.7-9.7-2.6-13.9-5.4-2.1-1.5-4.1-3.3-5.7-5.4-1.6-2.1-2.9-4.5-3.8-7.1l.2.2H50.8c-1.6,0-3.2,0-4.8-.2-3.2-.5-6.1-1.8-8.6-3.8-1.2-1-2.2-2.2-3.2-3.5-.9-1.3-1.6-2.7-2.1-4.1-.3-.7-.5-1.5-.6-2.2-.1-.8-.2-1.5-.3-2.3-.1-1.5,0-3-.1-4.5v-21.8c0-1.4,0-2.8.1-4.2.2-2.8,1.1-5.5,2.5-7.9,1.4-2.3,3.4-4.3,5.7-5.7,2.3-1.4,4.8-2.3,7.5-2.5,1.3-.1,2.6-.1,3.9-.1h31.5l40.2.1h14.7-3.8l-10.9.1-40.2.1h-31.4c-1.3,0-2.6,0-3.8.1-2.6.2-5.1,1.1-7.3,2.4-1.1.7-2.2,1.5-3.1,2.4-.9,1-1.8,2-2.5,3.2-1.4,2.3-2.3,5-2.5,7.7-.1,1.4,0,2.8-.1,4.2v22.1c0,3-.2,6,1,8.9.5,1.4,1.2,2.8,2,4,.9,1.2,1.9,2.4,3.1,3.4,2.4,2,5.2,3.3,8.3,3.8,1.6.2,3.1.3,4.7.2h72.5l.1.2c.9,2.5,2.1,4.8,3.7,6.9,1.6,2,3.4,3.8,5.6,5.3,4.1,2.8,8.8,4.6,13.7,5.3l-.2.4c-2.1-2.6-3.8-5.5-4.9-8.7-1.1-3-1.6-6.2-1.3-9.4v-.1h.2c1.5-.3,2.9-.7,4.2-1.3s2.5-1.4,3.7-2.2c2.2-1.7,3.9-4,5-6.6.5-1.2.9-2.5,1.1-3.8.2-1.3.3-2.6.2-3.9v-27.1c0-1.8-.3-3.6-.8-5.3-.5-1.6-1.2-3-2.1-4.4-.4-.6-.9-1.2-1.4-1.7-.2-.3-.5-.5-.7-.8l-.8-.7c-1.7-1.5-3.7-2.7-5.8-3.4-1.3-.5-2.7-.7-4.1-.9l-1.3-.4h0Z" fill="#263238"/>
    <g id="freepik--speech-bubble-1--text">
      <path id="txl1" d="m43.1,98.2h4.1l-1.7,9.2h.1c.6-1,1.2-1.7,1.8-2.6l5.1-6.6h5l-7.6,8.8,4,11.5h-4.5l-2.8-8.8-1.9,2-1.3,6.8h-4.1s3.8-20.3,3.8-20.3Z" fill="#263238"/>
      <path id="txl2" d="m63.8,98.2l-2.3,12.1c-.2.8-.2,1.5-.2,2.3,0,1.5.9,2.6,2.5,2.6,2,0,3.2-1.3,3.9-4.8l2.3-12.2h4.2l-2.2,11.9c-1.1,5.8-3.6,8.7-8.7,8.7-3.9,0-6.1-2-6.1-6,0-.9.1-1.9.3-2.9l2.2-11.7h4.1Z" fill="#263238"/>
      <path id="txl3" d="m78.5,98.2h4.2l-3.2,16.6h6.9l-.7,3.6h-11s3.8-20.2,3.8-20.2Z" fill="#263238"/>
      <path id="txl5" d="m96.6,98.2l-3.8,20.3h-4.2l3.8-20.3h4.2Z" fill="#263238"/>
      <path id="txl6" d="m103.5,101.9h-4.8l.7-3.7h13.8l-.7,3.7h-4.8l-3.1,16.6h-4.2l3.1-16.6Z" fill="#263238"/>
      <path id="txl7" d="m115.7,113.3l-2.2,5.1h-4.4l9.4-20.3h5.2l1.7,20.3h-4.3l-.3-5.1s-5.1,0-5.1,0Zm5.1-3.1l-.2-4.4c-.1-1.1-.1-2.9-.2-4.2h0c-.5,1.3-1.1,3.1-1.6,4.2l-1.9,4.4s3.9,0,3.9,0Z" fill="#263238"/>
      <path id="txl8" d="m128.2,118.4l3.8-20.3h4.6l2.3,7.8c.7,2.6,1.2,4.7,1.6,6.7h.1c.2-2.1.5-4.7,1-7.8l1.3-6.7h3.8l-3.8,20.3h-4.1l-2.5-7.9c-.8-2.8-1.3-4.5-1.7-7h-.1c-.2,2-.7,5-1.3,8.3l-1.3,6.6h-3.7Z" fill="#263238"/>
    </g>
  </g>
  <g id="freepik--Character--inject-14">
    <path id="elon92nqm0mpi" d="m281.3,220.4c-2.8.3-5.6-.9-7.3-3.3,1.9.3,3.9.6,5.6-.3s2.7-3.4,1.3-4.7c-1-1.1-2.8-.9-4.2-1-3.5-.3-6.6-2.7-7.8-6-1.2-3.6-.1-7.5.4-11.3,1.2-11.2-3.8-22.2-13.1-28.7l-23.7-13.7c-8.6,11-11.3,25.9-9.5,39.7s7.7,26.9,14.7,39c1.9,3.6,4.3,6.9,7.2,9.9,2.8,3,6.6,4.9,10.7,5.5,1.1-3.4.4-7.1-1.8-9.9,6.5.3,12.9-2,17.6-6.4l-5.1-3.9c5.5.6,10.9-1.2,15-4.9h0Z" fill="#263238"/>
    <path id="elcr0cwmmmzrt" d="m189.9,181.7c.4-9.9,6.6-18.2,16.1-20.9l29.8-8.5c12.9-1.8,22,13.9,23.2,26.9,1.4,14.4,2.4,29.6,1,40.5-2.8,21.8-19.3,25-19.3,25,0,0,.5,19.6.7,26l-15.1,31.7-29.3-40.5-7.1-79.8c-.1-.5,0,.1,0-.4h0Z" fill="#ffbf9d"/>
    <path id="elalbzr5thbve" d="m250.1,198.1c.1,1.5-1.1,2.8-2.6,2.9-1.5.2-2.8-.9-2.9-2.4v-.1c-.1-1.5,1.1-2.8,2.6-2.9,1.4-.1,2.7,1,2.9,2.5h0Z" fill="#263238"/>
    <path id="elkcnyuxqiuw" d="m256,187.7c-.3.4-2.5-1.1-5.5-1s-5.1,1.7-5.5,1.3c-.2-.2.2-.8,1.1-1.6,1.3-.9,2.8-1.5,4.4-1.5,1.6-.1,3.1.4,4.4,1.3.9.7,1.3,1.4,1.1,1.5Z" fill="#263238"/>
    <path id="el2aw7q8ny9cl" d="m223.7,198.1c.1,1.5-1.1,2.8-2.6,2.9-1.5.2-2.8-.9-2.9-2.4v-.1c-.1-1.5,1.1-2.8,2.6-2.9,1.4-.1,2.8,1,2.9,2.5h0Z" fill="#263238"/>
    <path id="el59mf3tt6ll3" d="m227.6,188.5c-.3.4-2.5-1.1-5.5-1s-5.1,1.7-5.5,1.3c-.2-.2.2-.8,1.1-1.6,1.3-.9,2.8-1.5,4.4-1.5,1.6-.1,3.1.4,4.4,1.3.9.7,1.3,1.4,1.1,1.5Z" fill="#263238"/>
    <path id="elz5n3zip61gg" d="m237.6,211.7c0-.2,1.8-.5,4.8-1,.8-.1,1.5-.3,1.6-.8,0-.8-.2-1.6-.6-2.2l-2.4-5.7c-3.4-8.2-5.9-14.9-5.5-15.1s3.4,6.4,6.7,14.6c.8,2,1.6,4,2.3,5.8.5.9.7,2,.5,3-.2.6-.7,1-1.2,1.2-.4.1-.9.2-1.3.2-3,.2-4.9.2-4.9,0h0Z" fill="#263238"/>
    <path id="elsxwrlr867t8" d="m211.8,237.8s7.5,14.7,29.1,12l-.1-5.1c-10.2.4-20.2-2-29-6.9Z" fill="#ff9a6c"/>
    <path id="elrbk0a722msa" d="m226.4,178.9c-.3.8-3.3.5-6.8,1.1s-6.3,1.6-6.8.9c-.2-.3.2-1.1,1.4-2,3-2,6.8-2.6,10.3-1.5,1.3.5,2,1.1,1.9,1.5h0Z" fill="#263238"/>
    <path id="elczxw9onwama" d="m254.8,178.6c-.5.7-2.6.1-5.1.1s-4.6.6-5.1-.1c-.2-.3.1-1,1-1.7,1.2-.8,2.6-1.3,4.1-1.2,1.5,0,2.9.4,4.1,1.2.9.7,1.2,1.4,1,1.7Z" fill="#263238"/>
    <path id="el1n2qgwyim9p" d="m226.4,217.6c.4-1.8,2.1-3.1,3.9-3.1,1.4.1,2.6.9,3.2,2.1s.7,2.6.3,3.9v.3c-1.2,1.4-3.2,1.9-5,1.2-1.7-.7-2.7-2.6-2.4-4.4Z" fill="#ff9a6c"/>
    <path id="elkhw5r5m36q" d="m236,220.8c0-.5-3-.2-5.4-2.6s-2.3-5.7-2.7-5.6c-.2,0-.5.8-.5,2.1.1,1.8.9,3.4,2.1,4.7,1.2,1.2,2.8,1.9,4.5,2,1.3,0,2-.4,2-.6h0Z" fill="#263238"/>
    <path id="elqr8rffb4cfg" d="m199.9,147.2c3.4-5.3,11.2-10.9,17.4-12,7.1-1.2,11.3,0,15.9,4.2,0,0,3.6,3.5,7,4.1s6.2.1,10.2,2.2c5.5,2.8,7.9,10.2,10.5,15.8,3.2,7,7.7,13.5,9.8,20.9s1,16.5-5.3,21c1.1-5.7,2-11.9-.4-17.1.3,2.1.2,4.1-.4,6.1-1.2-3.3-2.4-6.8-4.8-9.4-2.3-2.4-5.4-3.9-7.8-6.2-3.5-3.5-5-8.8-9.2-11.3-4.4-2.6-9.9-1.3-15-1.3-8.7,0-16.9-4-22.3-10.8l1.3-.1c-2.6-1.6-4.9-3.7-6.9-6.1h0Z" fill="#263238"/>
    <path id="el4p49m7mci8w" d="m168,200.2c2-6.4,5.4-12.2,7.5-18.5,2.1-6.1,2.9-12.7,5.7-18.6,3.7-7.9,10.7-18.1,21.5-17.6l.7.6c3.7-.4,7.4,0,10.9,1.3l.2,8.4,2.1,1.8c-.9,1.7-1.7,3.3-2.5,4.9-.6,3.2-1.5,6.3-2.7,9.3s-3,5.6-5.2,7.9c-18.6,44.7-1.7,47.5-10.1,73.1l-5.3-14.6c-4.5-2.6-8.2-6.5-10.4-11.3-.3,1.5-.6,3.1-.9,4.6-4.3-4.5-6.9-10.4-7.3-16.6l-2.4,4.5c-4-5.4-3.7-12.8-1.8-19.2h0Z" fill="#263238"/>
    <path id="eljykfd55vtb" d="m199.8,198.6c-.3-.7-13.8-5.2-13.5,9,.2,13.8,14,10.7,14.1,10.3s-.6-19.3-.6-19.3Z" fill="#ffbf9d"/>
    <path id="elc42umi8xmy8" d="m196,212.7c-.1,0-.2.2-.6.4-.6.3-1.2.3-1.8.1-1.5-.5-2.7-2.8-2.9-5.3-.1-1.2.1-2.4.6-3.4.2-.9.9-1.6,1.8-1.9.6-.2,1.2.1,1.4.6.2.4.1.7.2.7s.3-.2.2-.8c-.1-.3-.3-.6-.6-.9-.4-.3-.9-.4-1.3-.3-1.1.3-2.1,1.1-2.5,2.2-.6,1.2-.8,2.5-.8,3.9.1,2.8,1.6,5.3,3.6,5.9.8.2,1.6.1,2.2-.4.5-.4.6-.8.5-.8h0Z" fill="#ff9a6c"/>
    <path id="elrmdkc0br1rb" d="m194.5,215.2c-1.5-.2-2.9.8-3.1,2.3-.2,1.5.8,2.9,2.3,3.1s2.9-.8,3.1-2.3c.2-1.2-.5-2.4-1.6-2.9" fill="#fff"/>
    <path id="el03q9d6ntrels" d="m195.2,215.4c.6.5,1.1,1.1,1.3,1.8.2.8,0,1.6-.5,2.2-.8,1-2.3,1.2-3.4.4-.5-.4-.8-1-.9-1.6-.1-.8.2-1.6.8-2.1s1.3-.8,2.1-.9c0,0-.2-.1-.6-.1-.6,0-1.2.3-1.7.6-.8.6-1.1,1.6-1,2.5.2,1.6,1.7,2.8,3.4,2.6.8-.1,1.4-.5,1.9-1.1.6-.7.8-1.8.5-2.7-.2-.6-.6-1.1-1.1-1.5-.6-.1-.8-.2-.8-.1h0Z" fill="#263238"/>
    <path id="eluwxltwmzmni" d="m215.5,161.2c-.3.1-1.6-4.6-5.4-8.9s-8.2-6.3-8.1-6.5c1,.2,2,.6,2.9,1.2,4.5,2.5,7.9,6.5,9.8,11.2.5.9.8,1.9.8,3Z" fill="#455a64"/>
    <path id="elnt3l4wcf0bh" d="m262.8,261.3c-1.3-.3,15.2,76.9,15.2,76.9l27,39h25.8l7.4-5.7s-13.8-27.5-20.3-37.4-32.1-66.9-55.1-72.8Z" fill="#455a64"/>
    <path id="el627o8kt6g3j" d="m262.8,261.3l-20.9-4.2c-5,19.2-31.6,17.5-46,0l-11.5,3.1c-15.4,4.5-19,6.3-19,6.3-11.2,4.4-18.2,16.5-21,24.8l27.5,76.3-7,46,118.7-.1-10.8-39,2.4-12.5,3.5-10.9c3.5-11.2-1.2-31.7-4.6-42.9l-3.7-16.2-7.6-30.7h0Z" fill="#455a64"/>
    <g id="el1sdytuv2s9">
      <g opacity=".3">
        <path id="elp92mj7gzre" d="m179.4,293.6s1.3,16,0,24-4.6,47.5-4.6,47.5l40.1,11.9,22-7.7-12.8,30.8-23.4,3.4-26.5-28.4-6.8-20.3,3.8-11,8.2-50.2h0Z"/>
      </g>
    </g>
    <path id="el8clw3zjau05" d="m261.5,388.4l-21.3-10.6,3.5-2,6.6,2.1c0,.3,6.2,3,8.5,2.4,1.5-.4,2.7-1.3,3.5-2.6.3-.6-7.8-4.8-7.8-4.8l-10.3-5.3-11,2.9-19.6,12.2-14.7-4.6c-.4.6-5.6,23.9-5.6,23.9,0,0,14.4,4.7,22.8,4,5.6-.5,10.5-4.4,13.3-7.2l2.5,1.4s9.2,4.5,13.1,4.7,1.4-3.5,1.4-3.5l-6.9-4.4-2.8-2.5,4.2,1.5s7.2,3.7,8.6,4.1c1.9.5,3.4.1,4.1-2.5s-14-11.2-14-11.2l14.3,6c1.3.6,2.8.8,4.2.6,1.2,0,2.4-.7,2.9-1.8,1.1-2.7.5-2.8.5-2.8h0Z" fill="#ffbf9d"/>
    <path id="elgijpgqiqi5b" d="m228,379.7c.4-.5.9-.9,1.4-1.2,2.7-1.7,5.9-2.2,9-1.4.6.1,1.2.4,1.8.8-.6-.1-1.2-.2-1.8-.4-3-.6-6-.1-8.7,1.3-.5.3-1.1.6-1.7.9h0Z" fill="#ff9a6c"/>
    <path id="elsrg18plkan" d="m242.1,387.8c-.7-.3-1.3-.7-1.9-1.2-1.4-1-3-1.8-4.7-2.4-1.7-.5-3.4-.6-5.1-.1-.7.3-1.4.6-2,.9.5-.6,1.1-1,1.9-1.3,1.7-.6,3.6-.6,5.4,0,1.7.6,3.3,1.5,4.7,2.6.6.4,1.2.9,1.7,1.5h0Z" fill="#ff9a6c"/>
    <path id="elw8b2iyw42gk" d="m233.5,390.9c0,.1-.4-.2-1.2-.4-.9-.3-1.9-.4-2.8-.3-1,.1-1.9.4-2.7.9-.6.4-1,.7-1,.7,0,0,.2-.5.8-1,1.7-1.3,4-1.5,5.9-.6.7.3,1,.7,1,.7h0Z" fill="#ff9a6c"/>
    <path id="elneex3d5ahk" d="m239.3,397.2c-2-1.1-3.6-2.7-4.8-4.6.9.7,1.7,1.4,2.5,2.2.8.7,1.6,1.6,2.3,2.4Z" fill="#ff9a6c"/>
    <path id="elil4quewbns" d="m181.5,306.7c5.9-31.5-28.3-40.6-36.5-17.4,0,0-8.2,23.7-11.6,36.9-3.2,12.3-7,28-9.5,43.2-1.7,10.5,1.2,23,7.1,25.5,15.6,6.6,77.4,16.5,77.4,16.5l3.8-31.5-45.8-10.8s1.9-5.2-1.6-5.6l11-38.3,5.7-18.5h0Z" fill="#455a64"/>
    <path id="elttpq9s774kf" d="m164.9,363.4l.4.2c.2.1.3.2.5.3.2.1.4.3.6.5.5.5.8,1.3.8,2,0,1-.3,2-.9,2.8l-.1-.2c3.7.7,8.9,1.8,14.9,3.2l20.4,5c3.8.9,7.5,1.7,11,2.4h.2v.2l-2.8,22.6c-.4,2.8-.7,5-.9,6.6-.1.7-.2,1.3-.3,1.8,0,.2-.1.4-.1.6v-.6c.1-.5.1-1,.2-1.8.2-1.6.4-3.8.7-6.6.7-5.6,1.6-13.5,2.7-22.6l.2.3c-3.5-.7-7.2-1.5-11-2.4-7.4-1.8-14.4-3.6-20.4-5s-11.1-2.7-14.8-3.4h-.2l.1-.2c.5-.8.9-1.7.9-2.6,0-.7-.2-1.4-.7-1.9-.2-.2-.3-.4-.5-.5-.1-.1-.3-.2-.4-.3-.3-.2-.4-.3-.5-.4h0Z" fill="#263238"/>
    <path id="el7rmk7vk8b0s" d="m178.9,316.2c0,.2,0,.3-.1.5l-.4,1.4-1.4,5.1c-1.2,4.3-2.9,10.2-4.9,16.7s-3.7,12.4-5,16.7c-.6,2.1-1.2,3.8-1.6,5-.2.5-.3,1-.5,1.4,0,.2-.1.3-.2.5,0-.2,0-.3.1-.5l.4-1.4c.4-1.3.8-3,1.4-5.1,1.2-4.3,3-10.2,4.9-16.7s3.7-12.4,5-16.7c.6-2.1,1.2-3.8,1.6-5,.2-.5.3-1,.5-1.4s.2-.5.2-.5Z" fill="#263238"/>
    <path id="eloz5h6idgj4g" d="m180.7,296.5c-.2-1.7-.5-3.4-.9-5-2.1-8.1-8.7-14.4-17-16-1.7-.3-3.4-.5-5.1-.6.5-.1.9-.1,1.4-.1,1.3,0,2.5.1,3.8.3,8.5,1.5,15.3,7.9,17.3,16.3.3,1.2.5,2.5.6,3.8-.1.4-.1.9-.1,1.3h0Z" fill="#263238"/>
    <path id="elfqypbv9lmn" d="m164.9,363.8c0,.1-.7-.1-1.8-.2-2.9-.2-5.8,1-7.7,3.2-.8.8-1.1,1.5-1.2,1.4.2-.6.5-1.2.9-1.6.9-1.2,2.2-2.2,3.6-2.7,1.4-.6,3-.8,4.5-.6.5,0,1.1.1,1.7.5h0Z" fill="#263238"/>
    <path id="elvusgqsco9k" d="m166,368.2c0,.2-1.8.3-3.9,1.2s-3.4,2.1-3.5,1.9c1.9-2.1,4.6-3.2,7.4-3.1Z" fill="#263238"/>
    <path id="eld53zisftz2w" d="m268.8,294.7c.1.2.3.4.4.6.2.5.6,1,1,1.8s.9,1.7,1.4,2.8,1.2,2.4,1.7,3.8,1.3,3,1.9,4.7c.3.9.6,1.7,1,2.7s.6,1.9.9,2.9c1.3,4.3,2.2,8.7,2.8,13.1.6,4.4.8,8.9.6,13.4-.2,2-.3,4-.6,5.8-.1.9-.2,1.8-.4,2.6s-.4,1.6-.5,2.4c-.3,1.5-.7,2.9-1,4.1-.2.6-.3,1.1-.5,1.7s-.4.9-.5,1.4l-.7,1.9c-.1.2-.2.4-.3.6,0-.2.1-.5.2-.7.1-.5.4-1.1.6-1.9.1-.4.3-.9.5-1.4s.3-1.1.5-1.7c.3-1.2.7-2.5,1-4.1.1-.8.3-1.6.5-2.4s.2-1.7.4-2.6c.3-1.8.4-3.7.5-5.8.2-4.4,0-8.9-.6-13.3s-1.5-8.7-2.8-13c-.3-1-.6-1.9-.9-2.9s-.6-1.8-.9-2.7c-.6-1.7-1.2-3.3-1.8-4.7s-1.2-2.7-1.7-3.9-1-2.1-1.3-2.9-.6-1.3-.9-1.8c-.3,0-.4-.2-.5-.5h0Z" fill="#263238"/>
    <path id="elfsnu6woue6m" d="m270.1,287.8c.1.1-.6,1.5-.9,3.4s-.3,3.5-.4,3.5c-.4-1.2-.4-2.4-.1-3.6.1-1.2.6-2.3,1.4-3.3Z" fill="#263238"/>
    <g id="elbtt3b6fm01b">
      <g opacity=".3">
        <path id="elg0tfmhy1gvp" d="m283.4,316.8c-1.3-5.1-3.7-9.8-6.1-14.4-2-3.8-3.9-7.5-5.9-11.3-.4-.7-.9-1.5-1.6-1.7-1-.2-1.9.8-2,1.8,0,1,.2,2,.7,2.8,3.4,7.5,6.4,15.2,8.9,23.1,2.5,7.7,4.2,17.9,2.8,25.9,4.7-7.8,5.4-17.4,3.2-26.2h0Z"/>
      </g>
    </g>
    <path id="els4ejzjmvmj" d="m247,337.6c0,.2,0,.3-.1.5-.1.3-.1.7-.3,1.3-.4,1.6-.9,3.1-1.5,4.6-4.2,10.1-12.8,17.7-23.4,20.4-1.6.4-3.2.7-4.8.9-.6.1-1,.1-1.3.1h-.5c.6-.1,1.2-.2,1.8-.3,1.6-.2,3.2-.6,4.7-1,10.4-2.9,18.9-10.3,23.2-20.2.6-1.5,1.2-3,1.6-4.6.2-.6.3-1.1.6-1.7h0Z" fill="#263238"/>
    <path id="elusuab5r005g" d="m370.3,353l-2.6-2.9s-19.2,8.6-25.7,12.3c-9.4,5.3-10.6,7.9-10.6,7.9l-1.2,6,4.4,3,35.7-26.3h0Z" fill="#fff"/>
    <path id="el2ou1k3eiosj" d="m334.5,379.3h0l-4.4-3h0l1.2-6c.5-.8,1.1-1.4,1.8-2,2.7-2.3,5.7-4.3,8.8-6,6.5-3.6,25.5-12.2,25.7-12.3h0l2.6,3h0l-35.7,26.3Zm-4.4-3l4.4,3,35.7-26.2-2.6-2.9c-.7.3-19.3,8.7-25.7,12.2-3.1,1.7-6.1,3.7-8.8,5.9-.7.6-1.3,1.2-1.8,2l-1.2,6Z" fill="#263238"/>
    <path id="elklty0zlr9od" d="m333.7,378.7s-1.3-12.8-9.6-16.4-33.6,9.4-34.2,9.5-51.9,33.4-51.9,33.4l2.9,3.5,46.7-5.7,46.1-24.3Z" fill="#fff"/>
    <path id="el82yvv19b04p" d="m239.7,406.7l50.7-33s26.9-13.6,34.4-9.2,6.7,12.7,6.7,12.7l-48.9,28-40.5,4.9-2.4-3.4h0Z" fill="#e0e0e0"/>
    <path id="ela3fi7z55up6" d="m331.2,372.8s-4.2-6.8-22-3.8c-6.8,1.2-13.4,3-19.8,5.4l-48.5,33.1,1.7,2,77-28.7,12.1-2.4,1-2.1-1.5-3.5h0Z" fill="#fff"/>
    <polygon id="el6zx6i42z0ud" points="236.9 411.5 281.4 381.4 326.6 374.6 333.5 377.9 371.2 351.1 373 353.2 313.1 401.6 300.2 398.5 286.2 408.4 238 413.5 236.9 411.5" fill="#ff7200"/>
    <path id="eli7vzxaesph" d="m238,413.5l-.3-.5c-.2-.4-.5-.9-.9-1.5h0c4.9-3.4,21.1-14.4,44.5-30.2h0l45.2-6.9h.2l6.8,3.3h-.2l37.7-26.8.2-.1.2.2.5.6,1.3,1.5.2.2-.2.2-38.3,28.2-.1.1-.1-.1-7.5-4h.1l-44.4,7.2h.1l-32.8,21-9,5.7-2.3,1.5-.8.5s.3-.2.8-.5l2.3-1.5,8.9-5.8,32.8-21.2h0l44.5-7.4h.2l7.5,4h-.3l38.3-28.2v.4l-1.3-1.5-.5-.6h.4l-38.1,26.8-.1.1-.1-.1-6.8-3.3h.1l-45.2,6.8h.1c-23.4,15.7-39.7,26.6-44.7,29.9v-.1c.4.7.7,1.2.9,1.5l.2.6h0Z" fill="#263238"/>
    <path id="el75f6ze5kc56" d="m280.9,382.2c.1-.1.6.4,1,1.1s.7,1.3.6,1.4-.6-.4-1-1.1-.7-1.4-.6-1.4Z" fill="#263238"/>
    <path id="elvqaued1qjyb" d="m327.4,377.7c-.1.1-.2.3-.4.4-.3.2-.7.6-1.2,1l-4.3,3.4c-3.7,2.9-8.8,6.8-14.4,11.1-2.8,2.1-5.5,4.2-8,6l-6.7,4.7-4.5,3.1-1.2.8c-.3.2-.5.3-.5.3.1-.1.3-.2.4-.3l1.2-.9,4.5-3.2,6.6-4.8c2.5-1.8,5.1-3.9,8-6,5.6-4.3,10.8-8.2,14.5-11l4.4-3.3,1.2-.9c.1-.2.2-.3.4-.4h0Z" fill="#263238"/>
    <path id="elv75hcs3d2j" d="m343.3,379.5c-1.2,1.7-4.7,7.1-4.7,7.1-.6,3.3-1.5,6.6-2.7,9.8-2.4,5.5-7.6,9.4-13.6,10.3-6.9.9-18.3-3.5-18.3-3.5l-14.7-5.5s-3.3-2.8-.6-4.5c0,0-2.4-2.7,2.4-4s18,5,18,5c0,0-5.5-4.6-8.8-5.8s-1.9-4,.9-4.3,4.8.7,9.4,2.2,8.8,4.6,10.7,4.6.7-3.1-1-4.3c-7-4.8-4.6-6.4-4.6-6.4,0,0,.7-2.4,4.3-.9,3.4,1.6,6.7,3.5,9.8,5.5,4-.3,5.3-1.2,6.2-3.6.6-1.4,1.5-2.6,2.6-3.5l1.8-1.4c.9-.7,2.2-.6,3,.3.6.7.6,1.8.1,2.5l-.2.4h0Z" fill="#ffbf9d"/>
    <path id="elqlfoetmxwih" d="m306.6,401.4c-3.1-1.2-6.2-2.5-9.2-4-3.1-1.3-6.1-2.8-9-4.5,3.1,1.2,6.2,2.5,9.2,4,3.1,1.3,6.1,2.8,9,4.5Z" fill="#ff9a6c"/>
    <path id="ela668h6snltm" d="m313.7,398.2c-1-.5-2-1.1-2.9-1.9-.9-.7-1.8-1.4-2.5-2.3,1,.5,2,1.2,2.8,1.9,1.1.6,1.9,1.4,2.6,2.3Z" fill="#ff9a6c"/>
    <path id="el2jorsxt1zhk" d="m331.4,390.8c.1,0,.2.3.2.9-.2,1.6-1.6,2.7-3.1,2.5h-.3c-.6-.1-.9-.4-.8-.5s.4.1.9.1c.7,0,1.4-.1,1.9-.5s.9-1,1.1-1.7c0-.5,0-.8.1-.8h0Z" fill="#ff9a6c"/>
    <path id="elviiticl4vej" d="m322,399.2s0,.3-.3.7c-.4.5-.9.8-1.5,1s-1.2.1-1.8-.1c-.4-.2-.6-.4-.6-.5.7.2,1.5.2,2.2.1,1.3-.3,1.8-1.3,2-1.2h0Z" fill="#ff9a6c"/>
    <path id="el2j6z9xbeqg4" d="m313.4,403.6c.1.1-.7.6-1.7.5s-1.6-.9-1.5-1,.7.3,1.6.4,1.5,0,1.6.1Z" fill="#ff9a6c"/>
    <path id="elruhoertm3oj" d="m335.7,382.1s0,.5-.4,1.1c-.6.8-1.4,1.3-2.4,1.6-.9.3-1.9.4-2.9.1-.7-.2-1.1-.5-1-.6s.4.1,1.1.2c.9.1,1.8,0,2.6-.3.8-.3,1.6-.7,2.2-1.4.5-.3.7-.7.8-.7h0Z" fill="#ff9a6c"/>
    <path id="elfoytkpk1mhd" d="m330.9,372.3c0-.1-.1-.1-.1-.2-.1-.2-.2-.4-.3-.6-.4-.8-.8-1.6-1.2-2.4-.7-1.2-1.7-2.3-2.8-3.1-.7-.5-1.5-1-2.3-1.3-.9-.3-1.9-.6-2.9-.7-1.1-.1-2.2-.2-3.3-.1-.6.1-1.1.1-1.7.2s-1.2.2-1.8.3c-2.6.6-5.1,1.4-7.6,2.4-5.8,2.2-11.4,4.7-16.9,7.4h0l-5.6,3.5c-12.5,7.9-23.8,15.1-31.9,20.4l-9.6,6.3-2.6,1.7-.7.4-.2.1.2-.2.6-.5,2.5-1.8c2.2-1.5,5.5-3.8,9.5-6.5,8-5.4,19.3-12.6,31.8-20.5l5.6-3.5h0c5.5-2.8,11.2-5.2,17-7.4,2.5-.9,5.1-1.7,7.6-2.3.6-.1,1.2-.2,1.8-.3s1.2-.1,1.8-.2c1.1,0,2.2,0,3.3.2,1,.1,2,.4,2.9.7.8.3,1.6.8,2.4,1.3,1.1.9,2,2,2.8,3.3.9,1.1,1.3,2.2,1.7,3.4h0Z" fill="#263238"/>
    <path id="eltdsqib49o8p" d="m330.7,373.7c-.1-.1-.2-.2-.3-.4-.2-.4-.5-.7-.8-1-1.1-1.2-2.5-2.1-4-2.7-2.2-.9-4.6-1.5-7-1.6-2.9-.1-5.9,0-8.8.5-5.3.8-10.5,2.2-15.5,4.1-1.9.7-3.5,1.4-4.5,1.9l-1.2.5c-.1.1-.3.1-.4.2.5-.4,1-.7,1.6-.9,1-.5,2.5-1.2,4.5-2,5-2.1,10.2-3.5,15.6-4.3,3-.4,5.9-.6,8.9-.4,2.4.2,4.8.8,7.1,1.8,1.5.7,2.9,1.6,4,2.9.3.3.6.7.8,1.1-.1.2,0,.3,0,.3h0Z" fill="#263238"/>
    <path id="elzzr9huhe5ar" d="m290.4,380c-.1.1-1-.8-1.6-2.2-.5-.8-.7-1.7-.7-2.6.8,1.6,1.6,3.2,2.3,4.8h0Z" fill="#263238"/>
  </g>
  <g id="freepik--Device--inject-14">
    <path id="el6c9wh76qt4g" d="m24,339.8l15.1,73.9h130.8c1.4,0,2.6-1.2,2.6-2.6h0c0-1.4-1.2-2.6-2.6-2.6h-26.3l-14-68.8c-.3-1.3-1.4-2.3-2.8-2.3l-99.9-1.1c-1.6,0-2.9,1.3-2.9,2.8-.1.3-.1.5,0,.7h0Z" fill="#e0e0e0"/>
    <path id="elafugay2245" d="m24,339.8v-.9c.1-1.2,1-2.2,2.2-2.5.3-.1.7-.1,1-.1h8.2l37.8.4,26.3.3,14.8.1,7.7.1h5c.3,0,.7.1,1,.3.6.3,1.2.9,1.4,1.5.1.3.2.7.3,1l.2,1c.1.7.3,1.3.4,2,.3,1.3.6,2.7.8,4,.6,2.7,1.1,5.5,1.7,8.2,1.1,5.5,2.3,11.2,3.5,17,2.4,11.6,4.8,23.7,7.3,36.1l-.2-.1h26c.3,0,.7,0,1,.1,1.5.3,2.5,1.8,2.1,3.3-.2.8-.7,1.5-1.4,1.9-.4.2-.8.3-1.2.3H38.9v-.1c-4.6-22.7-8.3-41.2-11-54-1.3-6.4-2.3-11.4-3-14.8-.3-1.7-.6-3-.8-3.9s-.2-1.3-.2-1.3c0,0,.1.5.3,1.3l.8,3.9c.7,3.4,1.7,8.4,3,14.8,2.6,12.8,6.4,31.3,11.1,54l-.1-.1h130.8c.4,0,.7-.1,1.1-.3,1.2-.6,1.6-2.1,1-3.3-.3-.6-.9-1.1-1.6-1.2-.3,0-.6-.1-.9,0h-26v-.1c-2.5-12.4-5-24.5-7.3-36.1-1.2-5.8-2.3-11.5-3.5-17-.6-2.8-1.1-5.5-1.7-8.2-.3-1.4-.6-2.7-.8-4-.1-.7-.3-1.3-.4-2l-.2-1c-.1-.3-.1-.6-.2-.9-.3-.6-.7-1.1-1.3-1.4-.3-.1-.6-.2-.9-.3h-5l-7.7-.1-14.8-.2-26.3-.3-37.9-.6-5.9-.1h-2.3c-.3,0-.7,0-1,.1s-.6.2-.8.3c-.8.5-1.3,1.2-1.4,2.1-.1.3-.1.5,0,.8h0Z" fill="#263238"/>
    <path id="el4xo8ka3ly02" d="m84.2,373.7c0,2.4-1.9,4.3-4.3,4.3s-4.3-1.9-4.3-4.3,1.9-4.3,4.3-4.3,4.3,1.9,4.3,4.3h0Z" fill="#fff"/>
    <path id="elywriymmwed" d="m24.1,340.4h6.9l18.7.1,61.7.4,8.9.1h2.2c.4,0,.8,0,1.1.1.4.1.7.2,1.1.4.7.4,1.1,1.1,1.3,1.8.2.7.3,1.4.4,2.1,1.1,5.6,2.2,10.9,3.2,16.1,2,10.2,3.9,19.5,5.4,27.2s2.7,14,3.6,18.4c.4,2.1.7,3.8,1,5,.1.6.2,1,.2,1.3,0,.1.1.3.1.4,0,0,0-.1-.1-.4s-.2-.7-.3-1.3c-.2-1.1-.6-2.8-1-5-.9-4.3-2.1-10.6-3.7-18.3l-5.4-27.2c-1-5.1-2.1-10.5-3.2-16-.1-.7-.3-1.4-.4-2.1-.2-.7-.6-1.2-1.2-1.6-.3-.2-.6-.3-.9-.4-.3,0-.7-.1-1-.1h-2.2l-8.9-.1-61.7-.5-18.7-.2-5.1-.1h-1.3l-.7-.1h0Z" fill="#263238"/>
  </g>
</svg>