<?xml version="1.0" encoding="UTF-8"?>
<svg id="freepik_stories-learning-languages" data-name="freepik stories-learning-languages" xmlns="http://www.w3.org/2000/svg" viewBox="0 0 453.6 454.31">
  <g id="freepik--background-complete--inject-33">
    <path id="elzcvp60splcd" d="m386.5,346.9h-46.7l-8.7,22.6h-31.9l48.8-116.3h30.8l48.9,116.3h-32.5l-8.7-22.6h0Zm-9.2-24.2l-14.2-37.2-14.2,37.2h28.4Z" fill="#d25f00"/>
    <path id="elnu8otah55i" d="m170.1,219.6c0,16.6-13.7,26.4-39.6,26.4h-52v-96.3h49.3c25.3,0,37.7,10.3,37.7,25.2,0,9.2-4.7,16.6-12.9,20.9,10.8,3.8,17.5,12.1,17.5,23.8h0Zm-64.6-50.3v18.6h18.7c9.1,0,13.8-3.2,13.8-9.4s-4.7-9.2-13.8-9.2h-18.7Zm37.1,47.2c0-6.6-5-9.8-14.3-9.8h-22.8v19.5h22.8c9.3.1,14.3-3.1,14.3-9.7h0Z" fill="#de6400"/>
    <path id="elwj5bfwnnd3" d="m35.7,444.4s-19.2-99.5-19.3-120c0-28.4,21.7-39.6,21.7-39.6l-8.4-24h46.4l-7.3,23.8s24.4,12.9,21,42.3c-6.3,55-16.5,117.5-16.5,117.5h-37.6Z" fill="#ea6a00"/>
    <path id="el31lbv67m3cz" d="m80,296h-.5c-.5-.1-1-.1-1.5-.1-1.9,0-3.9.5-5.6,1.2-2.8,1.3-5.3,3.1-7.2,5.5-1.2,1.5-2.3,3-3.3,4.7-1.1,1.8-2.1,3.7-2.9,5.7-.9,2.2-1.4,4.5-1.3,6.8.1,2.5,1,5,2.7,6.8.9,1,2,1.7,3.3,2,1.3.4,2.7.4,4-.1,2.7-1,4.7-3.2,5.6-6,.8-2.9.1-6-1.9-8.3-2-2.4-4.9-4.1-8-4.6-3.2-.5-6.6-.1-9.6,1.2-3.1,1.3-6.1,3-8.6,5.2-5.1,4.3-8.7,10.2-10.1,16.8-.6,3.1-.6,6.3.2,9.4.6,3,2.3,5.6,4.6,7.6,1.1.9,2.4,1.5,3.8,1.7s2.8-.1,4-.8c3.3-2.4,4.4-6.8,2.8-10.5-.5-1.1-1.3-2.1-2.2-2.9-1.8-1.5-3.9-2.5-6.3-2.9-4-.7-8.1,0-11.7,2-2.7,1.5-5.1,3.5-6.9,5.9-1.2,1.5-2.1,3.2-2.8,5.1-.5,1.2-.6,1.9-.7,1.9.1-.7.3-1.3.5-2,.6-1.9,1.5-3.6,2.7-5.2,1.8-2.5,4.2-4.6,6.9-6.1,3.6-2.1,7.9-2.8,12-2.2,2.4.4,4.7,1.4,6.5,3,1,.9,1.8,1.9,2.3,3.1.6,1.2.8,2.6.8,3.9,0,2.9-1.4,5.6-3.8,7.3-1.3.8-2.8,1.1-4.3.9s-3-.9-4.1-1.9c-2.4-2-4.1-4.8-4.8-7.9-.8-3.2-.9-6.5-.2-9.7,1.4-6.7,5-12.7,10.2-17.1,2.6-2.3,5.6-4.1,8.8-5.4,3.1-1.3,6.6-1.7,9.9-1.2,3.3.6,6.2,2.3,8.3,4.8,1,1.2,1.8,2.7,2.2,4.2.4,1.5.3,3.1-.1,4.6-.9,3-3.1,5.3-6,6.4-1.4.5-2.9.5-4.3.1s-2.6-1.2-3.5-2.2c-1.8-2-2.7-4.5-2.8-7.1,0-2.4.5-4.8,1.4-7,.8-2,1.8-3.9,3-5.8,1-1.7,2.1-3.2,3.4-4.7,2-2.4,4.5-4.3,7.4-5.5,1.8-.8,3.8-1.1,5.7-1.1.6.4,1.3.4,2,.5h0Z" fill="#d25f00"/>
    <path id="elukywr3ikpv" d="m81.2,371.2c.1,1.7,0,3.4-.4,5.1-.4,2-1.1,3.8-2,5.6-1.2,2.4-2.9,4.5-4.9,6.2-2.4,2.1-5.3,3.7-8.5,4.5-3.6.9-7.4.9-11-.2-4-1.2-7.4-3.7-9.9-7-2.7-3.5-4.1-7.9-3.8-12.4.1-2.3,1.1-4.5,2.7-6.1,1.8-1.5,4.1-2,6.3-1.3,2.1.6,3.9,2,4.9,3.9.9,1.9,1.1,4,.6,6-.4,1.9-1.3,3.6-2.7,5.1-1.2,1.3-2.8,2.4-4.4,3.1-3,1.2-6.3,1.6-9.5,1.2-2.6-.3-5.2-1.1-7.6-2.3-1.8-.9-3.4-2.1-4.9-3.4-1.3-1.1-2.4-2.4-3.3-3.9l.2.2.6.8c.8,1,1.7,1.8,2.7,2.7,3.5,3,7.8,4.9,12.4,5.5,3.1.4,6.3,0,9.2-1.2,1.6-.7,3.1-1.7,4.2-3,1.2-1.4,2.1-3,2.5-4.8.4-1.9.2-3.8-.6-5.6-.9-1.8-2.6-3.1-4.5-3.6-2-.6-4.1-.2-5.7,1.1-1.5,1.5-2.4,3.5-2.5,5.7-.3,4.3,1,8.5,3.7,11.9,2.4,3.2,5.7,5.6,9.6,6.8,3.5,1,7.2,1.1,10.7.2,3.1-.7,5.9-2.2,8.3-4.3,2-1.7,3.6-3.8,4.8-6.1.9-1.7,1.7-3.6,2.1-5.5.3-1.2.5-2.5.6-3.7,0-.4,0-.7.1-1-.1,0-.1-.1,0-.2h0Z" fill="#d25f00"/>
    <path id="el963atck0etm" d="m72.5,418.1c-.1.1-2.1-1-5.6-2-1-.3-1.9-.5-2.9-.7s-2.2-.4-3.4-.5c-2.6-.3-5.2-.3-7.8,0s-5.2.9-7.6,1.7c-1.1.4-2.2.8-3.2,1.2-.9.4-1.8.8-2.7,1.3-3.2,1.8-4.9,3.3-5,3.2.4-.4.7-.8,1.2-1.1.5-.4,1-.8,1.5-1.1.7-.5,1.4-.9,2.1-1.4.9-.5,1.8-1,2.7-1.4,1-.5,2.1-.9,3.2-1.3,5-1.8,10.4-2.4,15.7-1.8,1.2.2,2.4.3,3.4.6,1,.2,2,.5,2.9.8.8.2,1.6.5,2.3.9.6.2,1.2.5,1.7.8.6.2,1.1.5,1.5.8Z" fill="#d25f00"/>
    <path id="elfrkbt1q3lyc" d="m69.3,286c-.5.4-1,.8-1.5,1.1-1,.7-2.5,1.5-4.4,2.6-5,2.6-10.2,4.7-15.7,6.1-5.4,1.5-11,2.3-16.6,2.5-2.2.1-3.9.1-5.1,0-.6,0-1.3,0-1.9-.2.6-.1,1.2-.1,1.9-.1,1.2,0,2.9-.1,5.1-.2,11.2-.7,22.1-3.6,32.1-8.6,1.9-1,3.5-1.8,4.5-2.4.4-.3,1-.6,1.6-.8Z" fill="#d25f00"/>
    <path id="el6kebko119sc" d="m75.1,261.9c0,.1-1.1-.1-3.2-.1-4.9,0-9.7,1.4-13.9,3.9-1,.6-1.9,1.2-2.7,1.9-.9.7-1.8,1.5-2.5,2.4-.8.9-1.3,2-1.5,3.2s.2,2.4,1.1,3.3c1,.9,2.2,1.4,3.4,1.7,1.3.5,2.6.6,3.9.5,1.2-.4,2.1-1.5,2.1-2.8.1-1.3-.2-2.6-.8-3.7-1.1-2.2-2.9-4.1-5.2-5.2-2-1.1-4.2-1.7-6.5-1.8-2,0-4,.3-5.8.9-2.7.9-5.3,2.3-7.6,4-.8.6-1.4,1.1-1.9,1.5-.2.2-.4.4-.7.5.2-.2.4-.4.6-.6.4-.4,1-.9,1.8-1.6,2.3-1.8,4.9-3.3,7.6-4.3,1.9-.7,4-1,6-1,2.4.1,4.7.7,6.8,1.8,2.4,1.2,4.3,3.1,5.5,5.5.7,1.3,1,2.7.8,4.1-.1.7-.3,1.5-.7,2.1s-1.1,1.1-1.9,1.3c-1.4.2-2.9,0-4.3-.5-1.4-.3-2.6-1-3.7-1.9-1-1-1.5-2.4-1.2-3.9.3-1.3.8-2.5,1.7-3.5.8-.9,1.6-1.8,2.6-2.5.9-.7,1.8-1.3,2.8-1.9,1.8-1,3.6-1.8,5.6-2.5,2.8-.9,5.7-1.3,8.7-1.2.8,0,1.6.1,2.4.2.2,0,.4.1.7.2h0Z" fill="#d25f00"/>
    <rect id="el92m91tgnwo" x="296.4" y="18.4" width="125" height="181.2" fill="#d25f00"/>
    <rect id="elvdgpiamqd8e" x="290.2" y="18.4" width="125" height="181.2" fill="#ea6a00"/>
    <rect id="elh3a5crtd08r" x="305.7" y="38" width="94" height="142" fill="#ff7200"/>
    <path id="eltq4sc3bo6i" d="m399.6,180v-10.5c0-6.8,0-16.7-.1-29.2,0-25-.1-60.5-.2-102.2l.3.3h-94l.3-.3c0,53.6,0,103-.1,142l-.3-.3,68.4.1,18.9.1h6.8c.1-.1-.5-.1-1.6-.1h-4.9l-18.8.1-68.6.1h-.3v-.1c0-39,0-88.4-.1-142v-.3h94.7v.3c-.1,41.8-.1,77.4-.2,102.4,0,12.5-.1,22.4-.1,29.2v9.7c0,.5-.1.7-.1.7h0Z" fill="#d25f00"/>
    <path id="elg4qeudqvku7" d="m415.5,18.4c-.6,1.1-1.4,2.2-2.2,3.2-1.5,1.9-3.5,4.6-5.9,7.4s-4.5,5.4-6.2,7.2c-.8,1-1.7,1.9-2.8,2.8.7-1.1,1.5-2.1,2.4-3.1l6-7.3,6-7.3c.9-1.1,1.8-2,2.7-2.9Z" fill="#d25f00"/>
    <path id="el2tnqjgbxtpk" d="m400.1,179.5c4.7,7.4,10.2,14.3,16.4,20.5" fill="#d25f00"/>
    <path id="elyvdjbypyc6" d="m416.5,200c-1-.8-2-1.6-2.9-2.6-2.2-2.2-4.2-4.6-6.2-7-1.9-2.4-3.8-4.9-5.4-7.6-.7-1.1-1.4-2.2-1.9-3.4.9,1,1.6,2,2.3,3.1,1.4,1.9,3.3,4.6,5.6,7.4s4.4,5.3,6,7.1c.9,1,1.8,2,2.5,3Z" fill="#d25f00"/>
    <path id="elx4mvwzbg2am" d="m290.1,199.5l16.4-20.2" fill="#d25f00"/>
    <path id="eln1znrqjc6ud" d="m306.5,179.2c.1.1-3.4,4.7-7.9,10.3s-8.3,10-8.5,9.9,3.4-4.7,7.9-10.3,8.4-10,8.5-9.9Z" fill="#d25f00"/>
    <path id="ellarxlbreqk" d="m290.2,18.4c.1-.1,3.7,4.1,8,9.5s7.6,9.8,7.4,9.9-3.7-4.1-8-9.5-7.6-9.8-7.4-9.9Z" fill="#d25f00"/>
    <rect id="el1xjmwg1506j" x="338.9" y="66.8" width="31.5" height="89.3" fill="#d25f00"/>
  </g>
  <g id="freepik--Books--inject-33">
    <rect id="elskw40vzbden" x="415.5" y="364.2" width="19.2" height="22.8" fill="#f5f5f5"/>
    <rect id="elm3imi2h6tw" x="329.4" y="362.7" width="86.8" height="25.8" fill="#fff"/>
    <path id="elj2jghz9tgwf" d="m435.3,364.9h-21.5v-2.2h21.5c.6,0,1.1.5,1.1,1.1h0c0,.6-.5,1.1-1.1,1.1h0Z" fill="#fff"/>
    <path id="el6ux1yksy5gk" d="m435.3,388.5h-21.5v-2.2h21.5c.6,0,1.1.5,1.1,1.1h0c0,.6-.5,1.1-1.1,1.1h0Z" fill="#fff"/>
    <g id="el7vrwwx8ucwt">
      <g opacity=".4">
        <rect id="elrtdaafipd18" x="399.1" y="362.7" width="10.3" height="25.8"/>
      </g>
    </g>
    <g id="elivsgkd3wyk">
      <g opacity=".4">
        <rect id="elhxnhey4s06m" x="337.1" y="362.7" width="10.3" height="25.8"/>
      </g>
    </g>
    <path id="ellu7ip88bwxp" d="m434.7,368c0,.1-4.2.1-9.3.1s-9.3,0-9.3-.1,4.2-.1,9.3-.1,9.3,0,9.3.1Z" fill="#e0e0e0"/>
    <path id="elksg75hcyhva" d="m434.7,371.4c0,.1-4.2.1-9.3.1s-9.3,0-9.3-.1,4.2-.1,9.3-.1,9.3,0,9.3.1Z" fill="#e0e0e0"/>
    <path id="elkangj5zwhx" d="m434.7,375.6c0,.1-4.2.1-9.3.1s-9.3,0-9.3-.1,4.2-.1,9.3-.1,9.3,0,9.3.1Z" fill="#e0e0e0"/>
    <path id="elzds6pv8myn" d="m434.7,379.8c0,.1-4.2.1-9.3.1s-9.3,0-9.3-.1,4.2-.1,9.3-.1,9.3,0,9.3.1Z" fill="#e0e0e0"/>
    <path id="elaqvo56pw12" d="m434.7,384c0,.1-4.2.1-9.3.1s-9.3,0-9.3-.1,4.2-.1,9.3-.1,9.3.1,9.3.1Z" fill="#e0e0e0"/>
    <g id="elvpu9xfy13hn">
      <g opacity=".2">
        <rect id="eleiwhp6zsteh" x="354.5" y="373.3" width="39.1" height="4.6"/>
      </g>
    </g>
    <rect id="el8xi73jki2e5" x="415" y="389" width="19.5" height="13.9" fill="#fafafa"/>
    <rect id="elcd5wx5rl2ea" x="332.3" y="388.5" width="83" height="14.9" fill="#455a64"/>
    <path id="elpoxlz4pee5k" d="m414.7,389.5h21c.3,0,.5-.2.5-.5h0c0-.3-.2-.5-.5-.5h-21v1Z" fill="#455a64"/>
    <path id="elh0nhnf5qwf" d="m414.7,402.4h21c.2,0,.4.2.4.4h0v.2c0,.2-.2.4-.4.4h-21v-1h0Z" fill="#455a64"/>
    <path id="eltgo8u8tyjh9" d="m434.5,391.6c0,.1-4.3.1-9.6.1s-9.6,0-9.6-.1,4.3-.1,9.6-.1,9.6,0,9.6.1Z" fill="#e0e0e0"/>
    <path id="el8ua55q0d2wi" d="m434.5,394.2c0,.1-4.3.1-9.6.1s-9.6,0-9.6-.1,4.3-.1,9.6-.1,9.6.1,9.6.1Z" fill="#e0e0e0"/>
    <path id="el2se8jqip71" d="m434.5,396.9c0,.1-4.3.1-9.6.1s-9.6,0-9.6-.1,4.3-.1,9.6-.1,9.6,0,9.6.1Z" fill="#e0e0e0"/>
    <path id="elm3nlrq28qyf" d="m434.5,399.5c0,.1-4.3.1-9.6.1s-9.6,0-9.6-.1,4.3-.1,9.6-.1,9.6,0,9.6.1Z" fill="#e0e0e0"/>
    <rect id="ela3s0whlpdw4" x="417.6" y="404.7" width="19.9" height="37.7" fill="#ebebeb"/>
    <rect id="elyo8t89fmx4i" x="324.1" y="403.4" width="93.5" height="40.9" fill="#fff"/>
    <path id="elhglh74jpw6k" d="m439.1,444.3h-24v-2.7h24c.7,0,1.3.6,1.3,1.3v.1h0c0,.7-.6,1.3-1.3,1.3h0Z" fill="#fff"/>
    <path id="elolpj3emrw5a" d="m415,403.4h24.2c.6,0,1.1.5,1.1,1.1h0v.5c0,.6-.5,1.1-1.1,1.1h-24.2v-2.7h0Z" fill="#fff"/>
    <path id="el1ozf46agp5i" d="m437.5,409.8c0,.1-4.5.1-10,.1s-10,0-10-.1,4.5-.1,10-.1,10,0,10,.1Z" fill="#e0e0e0"/>
    <path id="el333kqn4j0pj" d="m437.5,414.6c0,.1-4.5.1-10,.1s-10,0-10-.1,4.5-.1,10-.1,10,0,10,.1Z" fill="#e0e0e0"/>
    <path id="eluhvfjjyttde" d="m437.5,419.4c0,.1-4.5.1-10,.1s-10,0-10-.1,4.5-.1,10-.1,10,.1,10,.1Z" fill="#e0e0e0"/>
    <path id="elapvqcrpp1vq" d="m437.5,424.3c0,.1-4.5.1-10,.1s-10-.1-10-.1c0,0,4.5-.1,10-.1s10,0,10,.1Z" fill="#e0e0e0"/>
    <path id="elt4kxev011sk" d="m437.5,429.1c0,.1-4.5.1-10,.1s-10,0-10-.1,4.5-.1,10-.1,10,0,10,.1Z" fill="#e0e0e0"/>
    <path id="elp96372de24c" d="m437.5,434c0,.1-4.5.1-10,.1s-10,0-10-.1,4.5-.1,10-.1,10,0,10,.1Z" fill="#e0e0e0"/>
    <path id="elhngkvdoih7" d="m437.5,438.8c0,.1-4.5.1-10,.1s-10,0-10-.1,4.5-.1,10-.1,10,0,10,.1Z" fill="#e0e0e0"/>
    <g id="el5iax8xcvk1m">
      <g opacity=".3">
        <polygon id="elcmg5vt7q6g5" points="347.3 403.4 334.5 444.3 324.1 444.3 324.1 403.4 347.3 403.4"/>
      </g>
    </g>
    <path id="el4avq9pre192" d="m335.4,421.2h3.6c2.6,0,4.4,1.6,4.4,4s-1.8,4-4.4,4h-3.6v-8Zm3.5,6.5c1.4,0,2.5-1.1,2.5-2.5s-1.1-2.5-2.5-2.5h-1.7v5h1.7Z" fill="#ff7200"/>
    <path id="el3t8cv97vw4d" d="m344.9,421.2h1.9v8h-1.9v-8Z" fill="#ff7200"/>
    <path id="elstpwtl4ehb" d="m348.1,425.2c.2-2.4,2.2-4.3,4.7-4.1,1.1.1,2.2.6,3,1.4l-1.2,1.1c-.5-.6-1.2-.9-2-.9-1.4,0-2.6,1.1-2.6,2.6,0,1.4,1.1,2.6,2.6,2.6.8,0,1.5-.3,2-1l1.2,1.1c-1.6,1.8-4.4,1.9-6.2.3-.9-.9-1.4-1.9-1.5-3.1Z" fill="#ff7200"/>
    <path id="el0tsxj1gzs47l" d="m358.5,422.7h-2.6v-1.5h7v1.5h-2.5v6.5h-1.9v-6.5Z" fill="#ff7200"/>
    <path id="elf7c7e1crxan" d="m364,421.2h1.9v8h-1.9v-8Z" fill="#ff7200"/>
    <path id="elwsp8d4kkduf" d="m367.2,425.2c-.1-2.4,1.7-4.5,4.1-4.6s4.5,1.7,4.6,4.1-1.7,4.5-4.1,4.6h-.2c-2.3.1-4.2-1.6-4.4-3.9v-.2Zm6.9,0c0-1.4-1.2-2.5-2.6-2.5s-2.5,1.2-2.5,2.6,1.1,2.5,2.5,2.5c1.3,0,2.5-1,2.5-2.4.07-.07.1-.13.1-.2Z" fill="#ff7200"/>
    <path id="elvnwy4hi1ua" d="m384.7,421.2v8h-1.5l-4-4.9v4.9h-1.8v-8h1.5l4,4.9v-4.9h1.8Z" fill="#ff7200"/>
    <path id="elltn0wn0eboj" d="m391.9,427.5h-3.7l-.7,1.7h-1.9l3.6-8h1.8l3.6,8h-1.9l-.8-1.7Zm-.6-1.4l-1.3-3.1-1.3,3.1h2.6,0Z" fill="#ff7200"/>
    <path id="elkny3mpheziq" d="m400.4,429.2l-1.5-2.2h-1.7v2.2h-1.8v-8h3.5c2.1,0,3.5,1.1,3.5,2.9,0,1.1-.6,2.1-1.6,2.5l1.8,2.6h-2.2,0Zm-1.7-6.5h-1.5v2.8h1.5c1.1,0,1.7-.5,1.7-1.4s-.5-1.4-1.7-1.4h0Z" fill="#ff7200"/>
    <path id="el72ahy9zhlhe" d="m407.5,426.4v2.8h-1.9v-2.9l-3.1-5.1h2l2.1,3.6,2.1-3.6h1.8l-3,5.2Z" fill="#ff7200"/>
  </g>
  <g id="freepik--Plant--inject-33">
    <rect id="elfe3pj2mliq" x="34.5" y="111.5" width="136.8" height="7" fill="#455a64"/>
    <path id="eljfnqeequi0c" d="m146.1,40.2s0-.1-.1-.2l-.3-.6c-.3-.5-.8-1.3-1.4-2.2-1.9-2.7-4.3-5-7.1-6.7-2-1.2-4.1-2-6.4-2.3-2.6-.4-5.3-.1-7.8.8-2.8,1-5.1,2.9-6.6,5.5-1.5,2.7-2,5.8-2.9,8.8-.4,1.5-1,2.9-1.9,4.2-.9,1.2-1.9,2.3-3.1,3.1-1.2.9-2.4,1.7-3.6,2.6-1.1.9-2.1,2-2.9,3.1-1.5,2.2-2.5,4.6-3,7.2-.4,2.2-.6,4.5-.4,6.8.3,3.3.9,6.5,1.7,9.7.3,1.1.6,2,.7,2.6.1.3.2.6.3.9,0-.3-.1-.6-.2-.9-.2-.6-.3-1.5-.6-2.6-.8-3.2-1.3-6.4-1.6-9.7-.1-2.2,0-4.5.4-6.7.5-2.5,1.5-4.9,2.9-7,.8-1.1,1.7-2.1,2.8-3s2.3-1.7,3.6-2.6,2.4-2,3.3-3.2c.9-1.3,1.5-2.8,1.9-4.3.9-3,1.4-6.1,2.9-8.7,1.4-2.4,3.7-4.3,6.4-5.2,2.4-.9,5-1.2,7.5-.8,2.2.3,4.3,1.1,6.3,2.2,2.8,1.7,5.2,3.9,7.2,6.5.7.9,1.2,1.7,1.5,2.2.2.1.3.3.5.5Z" fill="#e0e0e0"/>
    <path id="elrkjr9iln9qq" d="m107,51.2c.8-.8,1.2-.2,2.3,0s2.1.8,3,1.5c3.9,3.2,5.5,8.4,4.1,13.2-5.4.3-10.1-3.9-10.3-9.3-.1-1.9.4-3.8,1.3-5.4" fill="#e0e0e0"/>
    <path id="elcrugsblfxuq" d="m140.9,35.8c.4-1,1-.7,2.1-1,1.1-.2,2.2-.2,3.3.1,4.9,1.2,8.6,5.2,9.4,10.1-4.8,2.6-10.7.8-13.4-3.9-.9-1.7-1.3-3.6-1.2-5.5" fill="#e0e0e0"/>
    <path id="el99v2e34rm8h" d="m99.5,72.1c4.1-4.7,11.3-5.2,16-1.1.7.6,1.3,1.3,1.9,2.1-2.5,2.3-5.8,3.6-9.3,3.7-3.5-.1-6.8-1.4-9.3-3.8" fill="#e0e0e0"/>
    <path id="elxcj9uk3u45n" d="m102.3,56.5c-6.3.2-11.6-4.8-11.8-11.2,0-.9,0-1.7.2-2.6,5.6-1.3,11.1,2.2,12.4,7.8.4,1.9.3,4-.4,5.8" fill="#e0e0e0"/>
    <path id="elmgw27uuz0ht" d="m114.2,38.2c-5.9,2.3-12.6-.7-14.9-6.6-.3-.8-.5-1.6-.7-2.5,4.8-3,11.2-1.6,14.3,3.2,1.1,1.7,1.6,3.6,1.6,5.6" fill="#e0e0e0"/>
    <path id="el8b1yzt1ke7i" d="m118.2,32.2c5.9-2.3,12.6.7,14.9,6.6.3.8.5,1.7.7,2.5-4.8,3-11.2,1.6-14.3-3.2-1.1-1.7-1.6-3.6-1.6-5.6" fill="#e0e0e0"/>
    <path id="elvs8402ixp4k" d="m123,29c-6-2-9.3-8.6-7.2-14.6.3-.8.6-1.6,1.1-2.3,5.7.7,9.6,5.9,8.9,11.6-.3,2-1.1,3.8-2.4,5.3" fill="#e0e0e0"/>
    <path id="el5n1zee0yvb" d="m135.2,29.6c-2.2-6,.9-12.6,6.9-14.8.8-.3,1.6-.5,2.5-.6,3,4.9,1.4,11.2-3.5,14.2-1.7,1-3.7,1.6-5.7,1.5" fill="#e0e0e0"/>
    <polyline id="eleszb00vbvst" points="86 112.1 79.5 71.3 129.3 71.9 124.4 111.6" fill="#263238"/>
    <path id="elf6j8inhlseo" d="m107.5,63.8c2.4,1.7,5.6,1.9,8.3.7,2.6-1.5,4.3-4.2,4.5-7.2-4.7-2.5-10.5-.8-13,3.9-.3.6-.6,1.2-.8,1.9" fill="#fff"/>
    <path id="el2ldji4rrb9f" d="m130.3,72.6c2.4,1.7,5.6,1.9,8.3.7,2.6-1.5,4.3-4.2,4.5-7.2-4.6-2.5-10.5-.8-13,3.8-.3.6-.6,1.2-.8,1.9" fill="#fff"/>
    <path id="el4amgp5ncihs" d="m117.5,53c1.1,2.7,3.6,4.7,6.5,5.1,3,.2,5.9-1.1,7.7-3.5-2.5-4.7-8.3-6.4-12.9-3.9-.6.3-1.2.7-1.7,1.2" fill="#fff"/>
    <path id="elff35x7awif" d="m125.8,63.1c-2.9-.1-5.7,1.3-7.4,3.7-1.5,2.6-1.5,5.8-.2,8.5,5.3-.3,9.4-4.7,9.1-10,0-.7-.1-1.3-.3-2" fill="#fff"/>
    <path id="elvof7rj6v2c" d="m133.8,79.2c-1.4,2.6-1.3,5.8.2,8.3,1.7,2.4,4.6,3.8,7.6,3.7,1-2.7.8-5.7-.5-8.3-1.3-2.4-3.7-3.6-6.6-4.2" fill="#fff"/>
    <path id="elew775obra1t" d="m147.1,81.1c-.6-.5-1.3-1-2-1.2-.9-.3-1.8-.5-2.7-.5-1.2,0-2.5.1-3.7.2-1.5.2-3.1.1-4.5-.4-1.7-.7-3-2-3.7-3.6-.8-1.8-1.3-3.6-1.6-5.5-.3-2-.9-3.9-1.9-5.7-1.2-1.6-2.6-3.1-4.2-4.3-1.5-1.2-2.9-2.5-4-4.1-1.8-2.8-2.5-6.1-2-9.4.3-2.2,1.1-4.2,2.4-6,.4-.5.8-.9,1.2-1.3.3-.3.5-.4.5-.4-.1.2-.2.3-.4.5-.4.4-.8.9-1.1,1.4-3,4.5-3.1,10.4-.2,15,1.1,1.5,2.5,2.9,4,4,1.7,1.2,3.1,2.7,4.3,4.4,1,1.8,1.7,3.8,2,5.8.3,1.9.8,3.7,1.5,5.4.7,1.5,1.9,2.8,3.4,3.4,1.4.4,2.9.6,4.4.4,1.2-.1,2.5-.2,3.7-.1.9,0,1.9.2,2.8.6.6.2,1.1.6,1.5,1,0,.1.1.2.3.4-.1-.1,0,0,0,0h0Z" fill="#fff"/>
    <path id="el10nhhkfzxvp" d="m147.1,81.1c-.6-.5-1.3-1-2-1.2-.9-.3-1.8-.5-2.7-.5-1.2,0-2.5.1-3.7.2-1.5.2-3.1.1-4.5-.4-1.7-.7-3-2-3.7-3.6-.8-1.8-1.3-3.6-1.6-5.5-.3-2-.9-3.9-1.9-5.7-1.2-1.6-2.6-3.1-4.2-4.3-1.5-1.2-2.9-2.5-4-4.1-1.8-2.8-2.5-6.1-2-9.4.3-2.2,1.1-4.2,2.4-6,.4-.5.8-.9,1.2-1.3.3-.3.5-.4.5-.4-.1.2-.2.3-.4.5-.4.4-.8.9-1.1,1.4-3,4.5-3.1,10.4-.2,15,1.1,1.5,2.5,2.9,4,4,1.7,1.2,3.1,2.7,4.3,4.4,1,1.8,1.7,3.8,2,5.8.3,1.9.8,3.7,1.5,5.4.7,1.5,1.9,2.8,3.4,3.4,1.4.4,2.9.6,4.4.4,1.2-.1,2.5-.2,3.7-.1.9,0,1.9.2,2.8.6.6.2,1.1.6,1.5,1,0,.1.1.2.3.4-.1-.1,0,0,0,0h0Z" fill="#fff"/>
    <path id="elii95v9n7a0e" d="m51.9,85.3c.3-7-5-12.9-12-13.2-1.7-.1-3.5.2-5.1.8,3,6.7,9.3,11.4,16.6,12.3" fill="#fff"/>
    <path id="elymp30saws4" d="m48.6,87c-2.4,2.7-2.3,7-.5,10.2s4.8,5.4,7.8,7.4c2.1-7.1-.7-14.7-7-18.6" fill="#fff"/>
    <path id="el6s47abw7qnq" d="m60.4,74.5c.8,8,7.9,13.8,15.9,13.1.2,0,.5,0,.7-.1-1-3.9-2.5-7.9-5.6-10.5s-7.8-3.7-11.2-1.4" fill="#fff"/>
    <path id="ell3g5kjku32" d="m60.4,70.5c-.6-3.6-4.1-6.2-7.7-6.5s-7.2,1.2-10.1,3.4c4.5,5.2,12.3,5.9,17.8,1.8" fill="#fff"/>
    <path id="elnk9fqabm97o" d="m41.8,100.8c-3.4,2.9-4.3,8.1-2.9,12.4,1.4,4.3,4.8,7.7,8.5,10.2,1.4-4.2,2.3-8.8,1.6-13.2s-3.4-8.7-7.5-10.4" fill="#fff"/>
    <path id="elle80seprz7" d="m59.8,60.5c3.3-4.8,9.8-6.1,14.6-2.8.8.5,1.5,1.1,2.1,1.8-2,4.6-7.4,6.7-12,4.6-1.9-.8-3.5-2.3-4.4-4.2" fill="#fff"/>
    <path id="elvav0ca8qc9" d="m64,50.2c-7.2,2.2-14.9-1.9-17.1-9.1-.2-.5-.3-1.1-.4-1.6,2.7-.3,5.5-.3,8.2.1s5.3,1.7,7.3,3.6c1.9,1.8,2.7,4.5,2,7" fill="#fff"/>
    <path id="elbeatrls13jq" d="m71.9,47.5c-4.8-3.9-5.5-10.9-1.6-15.7.5-.6,1-1.1,1.5-1.5,2.5,3,4.1,6.6,4.9,10.4.4,1.4.4,2.9,0,4.3s-1.6,2.5-3,2.8" fill="#fff"/>
    <g id="elksndqsu5yn">
      <g opacity=".4">
        <path id="el4dgpjk17zv6" d="m51.9,85.3c.3-7-5-12.9-12-13.2-1.7-.1-3.5.2-5.1.8,3,6.7,9.3,11.4,16.6,12.3"/>
      </g>
    </g>
    <g id="el8llo3cdaija">
      <g opacity=".4">
        <path id="elgg1c9k1nj" d="m48.6,87c-2.4,2.7-2.3,7-.5,10.2s4.8,5.4,7.8,7.4c2.1-7.1-.7-14.7-7-18.6"/>
      </g>
    </g>
    <g id="eld9nd7m9khtt">
      <g opacity=".4">
        <path id="elj59zv3el91c" d="m60.4,74.5c.8,8,7.9,13.8,15.9,13.1.2,0,.5,0,.7-.1-1-3.9-2.5-7.9-5.6-10.5s-7.8-3.7-11.2-1.4"/>
      </g>
    </g>
    <g id="elz56fs9e8frd">
      <g opacity=".4">
        <path id="elo3zf4lcms6" d="m60.4,70.5c-.6-3.6-4.1-6.2-7.7-6.5s-7.2,1.2-10.1,3.4c4.5,5.2,12.3,5.9,17.8,1.8"/>
      </g>
    </g>
    <g id="el0qo3g9q7u5j">
      <g opacity=".4">
        <path id="el6yf1d7swxn5" d="m41.8,100.8c-3.4,2.9-4.3,8.1-2.9,12.4,1.4,4.3,4.8,7.7,8.5,10.2,1.4-4.2,2.3-8.8,1.6-13.2s-3.4-8.7-7.5-10.4"/>
      </g>
    </g>
    <g id="elhr1vz8q1ygq">
      <g opacity=".4">
        <path id="elk9qy2gzbvag" d="m59.8,60.5c3.3-4.8,9.8-6.1,14.6-2.8.8.5,1.5,1.1,2.1,1.8-2,4.6-7.4,6.7-12,4.6-1.9-.8-3.5-2.3-4.4-4.2"/>
      </g>
    </g>
    <g id="el2cqhgjims9s">
      <g opacity=".4">
        <path id="elp4amh14fcw" d="m64,50.2c-7.2,2.2-14.9-1.9-17.1-9.1-.2-.5-.3-1.1-.4-1.6,2.7-.3,5.5-.3,8.2.1s5.3,1.7,7.3,3.6c1.9,1.8,2.7,4.5,2,7"/>
      </g>
    </g>
    <g id="elo7m39ugu5bo">
      <g opacity=".4">
        <path id="elx8f514zwrb9" d="m71.9,47.5c-4.8-3.9-5.5-10.9-1.6-15.7.5-.6,1-1.1,1.5-1.5,2.5,3,4.1,6.6,4.9,10.4.4,1.4.4,2.9,0,4.3s-1.6,2.5-3,2.8"/>
      </g>
    </g>
    <path id="elocesuz8v44" d="m85.6,72.6v-1.1c0-.7.1-1.8.1-3.2.2-3.9-.4-7.7-1.8-11.3-1-2.5-2.5-4.7-4.5-6.4-2.3-2-5.2-3.1-8.3-3-1.6,0-3.3.4-4.7,1.1-1.5.8-2.7,2-3.6,3.4-1.8,3-2.2,6.7-2.1,10.4s.7,7.4.2,11c-.2,1.8-.6,3.5-1.4,5.1-.7,1.6-1.7,2.9-3.1,4-1.3.9-2.7,1.7-4.3,2.2-1.4.5-2.7,1.1-4,1.8-2.3,1.4-4.1,3.4-5.3,5.8-1,1.9-1.5,4.1-1.5,6.3,0,1.7.3,3.3.8,4.9.5,1.3,1.1,2.6,1.9,3.8-.07-.07-.13-.13-.2-.2-.2-.2-.3-.4-.5-.7-.6-.9-1.1-1.8-1.4-2.8-.6-1.6-.9-3.3-.9-4.9,0-2.2.5-4.5,1.5-6.5,1.2-2.5,3.1-4.5,5.4-6,2.5-1.7,5.7-2.1,8.2-4s3.8-5.3,4.2-8.8-.1-7.1-.3-10.9.4-7.6,2.3-10.7c.9-1.5,2.2-2.8,3.8-3.6,1.5-.8,3.2-1.2,4.9-1.2,3.2,0,6.2,1.1,8.6,3.2,2,1.8,3.6,4.1,4.6,6.6.8,2.1,1.4,4.2,1.6,6.5.2,1.7.2,3.3.1,5-.1,1.4-.2,2.4-.2,3.2,0,.3-.1.6-.1.8v.2Z" fill="#fff"/>
    <g id="el17m7ew39867">
      <g opacity=".4">
        <path id="elz8l1stknhdm" d="m85.6,72.6v-1.1c0-.7.1-1.8.1-3.2.2-3.9-.4-7.7-1.8-11.3-1-2.5-2.5-4.7-4.5-6.4-2.3-2-5.2-3.1-8.3-3-1.6,0-3.3.4-4.7,1.1-1.5.8-2.7,2-3.6,3.4-1.8,3-2.2,6.7-2.1,10.4s.7,7.4.2,11c-.2,1.8-.6,3.5-1.4,5.1-.7,1.6-1.7,2.9-3.1,4-1.3.9-2.7,1.7-4.3,2.2-1.4.5-2.7,1.1-4,1.8-2.3,1.4-4.1,3.4-5.3,5.8-1,1.9-1.5,4.1-1.5,6.3,0,1.7.3,3.3.8,4.9.5,1.3,1.1,2.6,1.9,3.8-.07-.07-.13-.13-.2-.2-.2-.2-.3-.4-.5-.7-.6-.9-1.1-1.8-1.4-2.8-.6-1.6-.9-3.3-.9-4.9,0-2.2.5-4.5,1.5-6.5,1.2-2.5,3.1-4.5,5.4-6,2.5-1.7,5.7-2.1,8.2-4s3.8-5.3,4.2-8.8-.1-7.1-.3-10.9.4-7.6,2.3-10.7c.9-1.5,2.2-2.8,3.8-3.6,1.5-.8,3.2-1.2,4.9-1.2,3.2,0,6.2,1.1,8.6,3.2,2,1.8,3.6,4.1,4.6,6.6.8,2.1,1.4,4.2,1.6,6.5.2,1.7.2,3.3.1,5-.1,1.4-.2,2.4-.2,3.2,0,.3-.1.6-.1.8v.2Z"/>
      </g>
    </g>
    <path id="elq1vbkitz41k" d="m158.2,63.7c.5-1.2.7-2.4.8-3.7,0-1.5-.3-2.9-1-4.2-.9-1.7-2.3-3.1-4.1-3.9-1-.5-2.1-.8-3.2-.9-1.2-.1-2.4.1-3.6.4-2.4.7-4.9,2-7.8,2.6-1.5.3-3,.3-4.5-.1-1.5-.5-2.8-1.5-3.6-2.9-1.7-2.7-2.2-6.1-4.3-8.6-1-1.2-2.4-2.1-3.9-2.6s-3.1-.6-4.6-.5c-3,.3-5.7,1.7-7.6,4-1.8,2-3.1,4.4-3.8,7-.7,2.3-1,4.6-.8,7,.2,3.4.6,6.8,1.3,10.2.2,1.2.4,2.1.5,2.8.1.3.1.5.1.7v.2c0-.1-.1-.2-.1-.2-.1-.2-.1-.4-.2-.7-.1-.7-.3-1.6-.6-2.7-.7-3.4-1.2-6.8-1.5-10.2-.1-2.4.1-4.8.8-7.1.7-2.7,2.1-5.2,3.9-7.3,1-1.1,2.2-2.1,3.5-2.8,1.4-.8,2.9-1.2,4.5-1.4s3.3,0,4.8.5c1.6.5,3.1,1.5,4.2,2.7,2.2,2.7,2.7,6.1,4.4,8.6.8,1.3,2,2.2,3.4,2.7,1.4.4,2.8.4,4.2.1,2.8-.5,5.2-1.9,7.7-2.6,1.2-.4,2.5-.5,3.7-.4s2.3.4,3.3.9c1.8.9,3.3,2.3,4.2,4.1.7,1.4,1,2.9.9,4.4,0,.9-.2,1.9-.5,2.8-.2.5-.4.8-.5,1.1h0Z" fill="#fff"/>
    <path id="elmwoi19az7" d="m129,45.6c2.7,1.6,6,1.9,8.9.6,2.6-1.5,4.3-4.2,4.5-7.2-4.7-2.5-10.5-.8-13,3.9-.3.6-.6,1.2-.8,1.9" fill="#fff"/>
    <path id="eljj42vgzd8cp" d="m138.5,54.2c0,3.1,1.6,6.1,4.1,7.8,2.6,1.5,5.8,1.5,8.5.2-.2-2.9-1.7-5.5-3.9-7.3-2.4-1.6-5.3-2.2-8.1-1.5" fill="#fff"/>
    <path id="elx10gkdhzkud" d="m154.8,52.2c2.9,1.3,6.2,1.2,8.9-.4,2.4-1.7,3.8-4.6,3.7-7.6-4.9-2-10.5.3-12.5,5.2-.3.6-.5,1.3-.6,2" fill="#fff"/>
    <path id="el4bj3uby9j62" d="m115.2,39.9c-2.4-2.1-4-5.7-3.5-8.4.6-2.9,2.7-5.3,5.5-6.4,3.8,3.7,3.9,9.7.2,13.5-.5.5-1,.9-1.6,1.3" fill="#fff"/>
    <path id="elpm1af1cero7" d="m51.2,28.2s0-.1.1-.2l.3-.6c.3-.5.8-1.3,1.4-2.2,1.9-2.7,4.3-5,7.1-6.7,2-1.2,4.1-2,6.4-2.3,2.6-.4,5.3-.1,7.8.8,2.8,1,5.1,2.9,6.7,5.5,1.5,2.7,2,5.8,2.9,8.8.4,1.5,1,2.9,1.8,4.2.9,1.2,1.9,2.3,3.2,3.1,1.2.9,2.4,1.7,3.6,2.6,1.1.9,2.1,2,2.9,3.1,1.5,2.2,2.5,4.6,3,7.2.4,2.2.6,4.5.4,6.8-.3,3.3-.9,6.5-1.7,9.7-.3,1.1-.6,2-.7,2.6-.1.3-.2.6-.3.9,0-.3.1-.6.2-.9.2-.6.3-1.5.6-2.6.8-3.2,1.3-6.4,1.5-9.7.1-2.2,0-4.5-.5-6.7-.5-2.5-1.5-4.9-2.9-7-.8-1.1-1.7-2.1-2.8-3-1.1-.9-2.3-1.7-3.6-2.6-1.3-.9-2.4-2-3.2-3.3-.9-1.3-1.5-2.8-1.9-4.3-.9-3-1.4-6.1-2.9-8.7-1.4-2.4-3.7-4.3-6.4-5.2-2.4-.9-5-1.2-7.5-.8-2.2.3-4.4,1.1-6.3,2.2-2.8,1.7-5.2,3.9-7.2,6.5-.7.9-1.2,1.7-1.5,2.2-.1.1-.3.3-.5.6Z" fill="#fff"/>
    <path id="els6jl9hwtif" d="m90.4,39.1c-.8-.8-1.2-.2-2.3,0-1.1.2-2.1.8-3,1.5-3.9,3.2-5.5,8.4-4.1,13.2,5.4.3,10.1-3.9,10.3-9.3.1-1.9-.4-3.8-1.3-5.5" fill="#fff"/>
    <path id="el8mm4vxl2l44" d="m56.5,23.7c-.4-1-1-.7-2.1-1-1.1-.2-2.2-.2-3.3.1-4.9,1.2-8.6,5.2-9.4,10.2,4.8,2.6,10.7.8,13.3-3.9.9-1.7,1.3-3.6,1.2-5.5" fill="#fff"/>
    <path id="eli7wf1f968qq" d="m97.8,60c-4.1-4.7-11.3-5.3-16-1.2-.7.6-1.3,1.3-1.8,2,2.5,2.3,5.8,3.6,9.3,3.7,3.5-.1,6.8-1.4,9.3-3.8" fill="#fff"/>
    <path id="elv9utdf4jed" d="m95.1,44.4c6.3.2,11.6-4.8,11.8-11.2,0-.9,0-1.7-.2-2.6-5.6-1.3-11.1,2.2-12.4,7.8-.4,1.9-.3,4,.4,5.8" fill="#fff"/>
    <path id="elr2wl65xbb98" d="m83.2,26.1c5.9,2.3,12.6-.7,14.9-6.6.3-.8.5-1.7.7-2.5-4.8-3-11.2-1.6-14.3,3.2-1.1,1.7-1.6,3.6-1.6,5.6" fill="#fff"/>
    <path id="eluafbgokwslk" d="m79.2,20.1c-5.9-2.3-12.6.7-14.9,6.6-.3.8-.5,1.6-.6,2.5,4.8,3,11.2,1.6,14.3-3.2,1.1-1.7,1.6-3.6,1.6-5.6" fill="#fff"/>
    <path id="el96kk2meaall" d="m74.4,16.9c6-2,9.2-8.6,7.2-14.6-.3-.8-.6-1.6-1.1-2.3-5.7.7-9.7,5.9-8.9,11.6.3,2,1.1,3.9,2.4,5.4" fill="#fff"/>
    <path id="el8w2fdtbafe3" d="m62.2,17.5c2.2-6-.9-12.6-6.9-14.8-.8-.3-1.6-.5-2.5-.6-3,4.9-1.4,11.2,3.5,14.2,1.7,1,3.7,1.6,5.7,1.5" fill="#fff"/>
    <polygon id="el8bvnzvpthjn" points="78.8 107.4 82.6 112.1 129.6 112.1 132.8 107.4 78.8 107.4" fill="#263238"/>
    <path id="elf6m5agenxa" d="m131.7,107.3c0,.1-11.5.3-25.8.3s-25.7-.1-25.7-.3,11.5-.3,25.7-.3,25.8.2,25.8.3Z" fill="#455a64"/>
    <path id="elnmz2or8mt" d="m126.5,89.5c-.1.1-.2.3-.3.4-.3.4-.6.7-.9,1-1.2,1.2-2.7,2.1-4.2,2.9-2.3,1.1-4.8,1.8-7.3,1.9-1.5.1-3-.1-4.5-.4-1.6-.4-3.1-.9-4.6-1.5-3-1.3-5.8-2.8-8.4-3.6-2.3-.9-4.8-1.1-7.3-.7-1.7.3-3.2,1-4.5,2.1l-1.3,1.3s.1-.2.2-.4c.3-.4.6-.7.9-1.1,1.3-1.2,2.8-2,4.5-2.3,2.5-.5,5.1-.2,7.5.6,2.7.8,5.5,2.3,8.5,3.6,1.4.6,2.9,1.1,4.5,1.5,1.4.3,2.9.5,4.4.4,2.5-.1,4.9-.7,7.2-1.7,2-1.1,3.9-2.4,5.6-4h0Z" fill="#455a64"/>
    <path id="el23jckpsdftc" d="m126.9,85.8s-.1.1-.3.4c-.3.3-.6.6-1,.9-1.3,1.1-2.8,2-4.3,2.7-2.3,1-4.8,1.6-7.4,1.8-1.5.1-3,0-4.5-.3-1.6-.3-3.1-.7-4.6-1.3-3.1-1.1-5.9-2.4-8.7-3.2-2.4-.8-4.9-1-7.4-.7-1.7.2-3.2.8-4.6,1.8-1,.7-1.4,1.2-1.4,1.2,0,0,.1-.1.3-.4.3-.4.6-.7,1-1,1.4-1,3-1.7,4.7-2,2.5-.4,5.1-.2,7.6.6,2.8.7,5.6,2,8.7,3.1,1.5.6,3,1,4.6,1.3,1.4.3,2.9.4,4.4.3,2.5-.1,4.9-.6,7.2-1.6,2-.9,3.9-2.1,5.7-3.6h0Z" fill="#455a64"/>
    <rect id="elx1m4ybhaadm" x="71.6" y="116.7" width="4.1" height="11.4" fill="#455a64"/>
    <rect id="el6mnbsparfow" x="130.2" y="116.7" width="4.1" height="11.4" fill="#455a64"/>
  </g>
  <g id="freepik--Character--inject-33">
    <polyline id="el7jvilgaq5k8" points="186.8 223.4 205.2 215.7 248.9 207 296.1 216.3 233.7 283.3 204.2 285 181.8 240.5 186.8 223.4" fill="#ffbe9d"/>
    <path id="elffg205i1grp" d="m345.8,274.5s-29.8-47.9-37.8-53.6-33.6-9.3-33.6-9.3c0,0-28.2,63.6-55,61.4s-29.8-50.9-29.8-50.9l-11.8,4.7c-4.2,1.7-7.5,5.1-9,9.4l-23.6,68.8,40.2,9.6c7.1,26.3,17,49.2,29.5,69l1.3-6.6,83.5-1.3,24.2-9.4-29.1-66.2,51-25.6h0Z" fill="#fff"/>
    <path id="elg3c3gqooht" d="m191.5,333.6c-.1-.2-.2-.3-.2-.5-.1-.4-.3-.9-.6-1.6-.5-1.4-1.2-3.4-2-5.8-1.7-4.9-4-11.7-6.1-19.3-1-3.8-1.9-7.5-2.6-10.9s-1.1-6.5-1.3-9c-.1-1.3-.2-2.5-.2-3.5s-.1-2-.1-2.7v-2.3c0,.2.1.4.1.6,0,.4,0,1,.1,1.7s.1,1.6.2,2.6.1,2.2.3,3.5c.3,2.6.7,5.6,1.4,9s1.5,7,2.6,10.8c2.1,7.6,4.4,14.4,6,19.3.8,2.5,1.4,4.5,1.9,5.9.2.6.4,1.2.5,1.6-.1.2,0,.4,0,.6h0Z" fill="#263238"/>
    <path id="elcafpktyz5a5" d="m275.6,322.6c-.1.1-.3.2-.4.2-.3.1-.7.4-1.3.6-1.7.7-3.4,1.3-5.1,1.7-11.8,3-24.4-.2-33.2-8.6-1.3-1.2-2.5-2.6-3.6-4-.4-.5-.7-.9-.9-1.2-.1-.1-.2-.3-.3-.4,0,0,.5.5,1.3,1.5,1.2,1.4,2.4,2.7,3.7,3.9,8.9,8.1,21.2,11.3,32.9,8.5,1.7-.4,3.5-.9,5.1-1.6.6-.2,1.2-.4,1.8-.6Z" fill="#263238"/>
    <path id="elnpqunl8pcvi" d="m284.5,247.3c0-.4.1-.8.2-1.2.2-.8.5-1.9,1-3.2,1.3-3.4,2.9-6.7,4.9-9.8s4.4-5.9,7-8.5c.8-.8,1.6-1.5,2.5-2.2.3-.3.6-.5,1-.7.1.1-1.3,1.2-3.2,3.2-5.1,5.2-9.1,11.4-11.8,18.1-1.1,2.7-1.6,4.4-1.6,4.3h0Z" fill="#263238"/>
    <path id="elp0mfizinq4" d="m287.2,300.7c-.1,0-1.3-8.9-2.6-19.9s-2.2-19.9-2.1-19.9,1.3,8.9,2.6,19.9,2.3,19.9,2.1,19.9Z" fill="#263238"/>
    <g id="elz8xnez3vz2o">
      <g opacity=".3">
        <path id="el9wzufw7uqua" d="m231.3,312.8c4.3,6.3,8.7,12.6,14.8,17.2s14.1,7.1,21.4,4.9c2.3-.7,4.5-1.8,6.5-3.2,2.9-1.9,5.7-4.5,6.1-8,.2-.8-.1-1.6-.7-2.1-.5-.2-1-.2-1.4-.1-5.1,1-9.5,4.6-14.7,5-2.7.1-5.3-.3-7.9-1.1-9.2-2.4-17.9-5.7-24.1-12.6"/>
      </g>
    </g>
    <g id="elqq0flo6ftmh">
      <g opacity=".3">
        <path id="eljexsqxqoot" d="m291.3,340.5c1.3-1.6,2.2-2.9,3.4-4.3.6-.8,1-1.6,1.3-2.6.2-1.1.2-2.2,0-3.3-1.3-9.3-3.6-18.4-6.7-27.2-.3-.4-.2-1.1.2-1.4.1-.1.3-.2.4-.2,1.5-.5,3.3-1.1,4.8-1.6,2.2,11,4.1,23.2,6.3,33.8,0-.1-6.5,4.7-9.7,6.8"/>
      </g>
    </g>
    <g id="elyr0r7e33hn">
      <g opacity=".3">
        <path id="elm0zrpu0zccb" d="m185,314.8c-3.6-3.5-6.6-7.7-8.8-12.2-1-1.9-1.7-4-2.1-6.1-.4-2.4-.6-4.8-.4-7.2.2-8.2,1.3-16.3,3.3-24.2.3.5.5,1,.6,1.6,1.5,8.2.6,16.6,1.9,24.9.5,3.3,1.4,6.6,1.9,9.9.2,1.7.6,3.4,1,5.1.4,1.5,1.1,2.9,1.6,4.4.4,1.4.8,2.9,1,4.3"/>
      </g>
    </g>
    <path id="elkx0uijmdhlq" d="m247.3,371.9l53.7-38.3-6.3-33.6,35.2-18.2s12.8,53.5,4.3,74.1c-2.8,7.1-89.8,34.7-89.8,34.7l2.9-18.7Z" fill="#ffbe9d"/>
    <path id="elj46cn0d3zwg" d="m321.3,330.3c0,.1-1.2-.4-3.2-.7-1.1-.2-2.3-.3-3.5-.3-2.9-.1-5.7.4-8.4,1.5-1.1.4-2.1.9-3.1,1.5-1.7,1-2.7,1.8-2.7,1.7s.2-.2.6-.6c.6-.5,1.2-1,1.9-1.4,1-.6,2.1-1.2,3.2-1.6,1.4-.5,2.8-.9,4.2-1.2,1.4-.2,2.9-.3,4.4-.3,1.2,0,2.4.2,3.5.5.8.2,1.6.4,2.3.7.3-.1.5,0,.8.2h0Z" fill="#eb996e"/>
    <path id="el9a536536f0w" d="m313.7,323.6c-.7.4-1.5.8-2.2,1.2-1.4.8-3.2,1.9-5.2,3.2-1.7,1.1-3.2,2.4-4.5,4-.9,1.2-1.3,2.1-1.4,2.1.2-.8.5-1.6,1.1-2.3,1.2-1.7,2.7-3.1,4.5-4.2,1.7-1.2,3.5-2.2,5.3-3.1.7-.4,1.5-.7,2.4-.9h0Z" fill="#eb996e"/>
    <path id="elxbq8wrlhqx" d="m204.5,397.7c2.9,0,5.2,0,5.2.1s-2.3.1-5.2.1-5.2,0-5.2-.1,2.3-.1,5.2-.1Z" fill="#eb996e"/>
    <path id="eloazmsrph158" d="m211,375.6s-99.3-40.8-115.8-44.3-45.3-5.3-57.5,19c-8.5,16.9-9.4,37,23,54.1,32.4,17.1,128.9,33,128.9,33,0,0,87.1,21.8,101.2,15.9s33.6-18.2,27.7-41.8-4.6-35.7-25.8-37c-20.9-1.3-26.1-2-46,17.2l-35.7-16.1h0Z" fill="#263238"/>
    <path id="el805larqbvo9" d="m323.4,365.3s17.8,29.8,11.1,47-24,28.4-24,28.4l-28.7-62.7,41.6-12.7h0Z" fill="#263238"/>
    <path id="elqu8dlpvl35j" d="m201.3,417.4l-.4-.2-1.1-.5c-.9-.5-2.3-1.2-4-2.2-3.4-1.9-8.4-4.8-14.2-8.8s-12.6-9.1-19.9-15c-3.6-2.9-7.5-6-11.4-9.2s-8-6.6-12.4-9.7c-4.2-3.1-8.7-5.8-13.4-8.2-4.4-2.2-8.9-4.1-13.5-5.8-7.8-2.7-15.8-5-23.9-6.6-6.9-1.5-12.6-2.4-16.5-3.1l-4.5-.8-1.2-.2-.4-.1h.4l1.2.2,4.5.7c3.9.6,9.6,1.5,16.5,2.9,8.1,1.6,16.2,3.8,24,6.5,4.6,1.6,9.1,3.6,13.5,5.7,4.7,2.4,9.2,5.1,13.5,8.2,4.4,3.2,8.5,6.5,12.4,9.7s7.8,6.3,11.4,9.2c7.3,5.9,13.9,11,19.8,15s10.7,7,14.1,9c1.7,1,3.1,1.8,4,2.3.4.2.8.4,1,.6.3.2.4.3.5.4h0Z" fill="#455a64"/>
    <path id="ell5k3ejklvb" d="m202.5,416.8c4.2-1.7-9.1,2.7-13.5,1.4-7-2-11.8-10-19.1-10.1-4.7-.1-8.7,3.1-13.1,4.7-5.4,2-11.3,1.5-17,.6s-11.4-2-17.1-1.4c-1.7,0-3.3.7-4.6,1.8-1.5,1.7-1.7,4.2-.5,6.1s3,3.2,5.2,3.9c2.1.6,4.3,1,6.5,1.2,10.2,1.5,19.9,5.6,29.9,8.1,10.3,2.6,21,3.5,31.6,4.4,0,0-.7-15.6,11.7-20.7h0Z" fill="#ffbe9d"/>
    <path id="ely0nvw87c52b" d="m294.7,417.4c.1.1.1.3.2.4.2.4.3.8.4,1.2.4,1.5.7,3,.8,4.5.2,2.3.1,4.6-.3,6.8-.5,2.8-1.6,5.4-3.1,7.7-1.6,2.3-3.7,4.3-6.1,5.7-2,1.2-4.1,2-6.4,2.3-1.5.2-3.1.2-4.6,0-.4-.1-.8-.1-1.2-.3-.1,0-.3-.1-.4-.1,2,.3,4.1.3,6.2,0,2.2-.4,4.3-1.2,6.2-2.4,2.3-1.4,4.4-3.3,5.9-5.6,1.5-2.3,2.6-4.9,3.1-7.5.4-2.2.6-4.4.4-6.7-.1-1.5-.3-3-.7-4.5-.2-.4-.4-.9-.4-1.5Z" fill="#455a64"/>
    <polygon id="elfowtcq6m07" points="226.1 397.8 286.6 370.1 305.9 374.1 306.8 376.2 236 404.6 226.1 402.2 226.1 397.8" fill="#fff"/>
    <polygon id="elq23k2qwi00p" points="288.3 372.6 226.1 402.2 246.5 407.1 310.8 377 288.3 372.6" fill="#455a64"/>
    <path id="elqvcg2uwh0a" d="m202.5,416.8s32-21.9,40.4-26.2,53-14.6,64.1-9.9-33.2,44.4-33.2,44.4l-71.3-8.3h0Z" fill="#263238"/>
    <path id="eltiqnltw10ea" d="m267.6,399.3c-.1,0-.2-.1-.2-.1l-.7-.3-2.6-1.1c-3.2-1.4-6.4-2.6-9.8-3.6-2.3-.6-4.7-1-7-1.1-1.3,0-2.7,0-4,.2-1.4.2-2.8.5-4.1.9-5.6,1.7-10.9,5.4-16.3,9.3s-11,7.2-15.8,10.4c-2.4,1.6-4.7,3.1-6.9,4.6-2,1.3-3.7,2.9-5.1,4.9-1.1,1.6-2,3.4-2.7,5.2-.6,1.6-1,3.1-1.3,4.3s-.5,2.1-.7,2.7l-.2.7c0,.1,0,.2-.1.2v-.3c0-.2.1-.4.1-.7.1-.6.3-1.6.6-2.8.3-1.5.8-2.9,1.3-4.3.6-1.9,1.5-3.7,2.6-5.4,1.4-2,3.2-3.7,5.2-5,2.1-1.5,4.4-3.1,6.8-4.6,4.9-3.2,10.3-6.6,15.8-10.4s10.8-7.6,16.5-9.3c2.7-.8,5.4-1.2,8.2-1,2.4.1,4.8.5,7.1,1.2,3.3,1,6.6,2.2,9.7,3.8,1.1.5,2,.9,2.5,1.2l.7.3c.3,0,.4,0,.4.1h0Z" fill="#455a64"/>
    <path id="elr8hljmso3t9" d="m272.8,397.5c-.1.1-.9-.7-2.5-1.6-2.1-1.1-4.4-1.8-6.8-2.1-2.4-.3-4.8-.4-7.2-.2-1,.1-2,.1-3,.1,1-.3,2-.4,3-.5,2.4-.2,4.9-.2,7.3.1,2.5.3,4.9,1,7,2.3.6.4,1.2.8,1.8,1.3.3.3.5.6.4.6h0Z" fill="#455a64"/>
    <path id="elthvvjewtr0a" d="m314.7,384.8s-.6-.4-1.8-1.2c-1.7-1-3.4-1.9-5.3-2.5-2.7-.9-5.6-1.5-8.5-1.7-3.5-.3-7.1-.2-10.6.3-3.8.5-7.3,1.1-10.6,1.8s-6.1,1.3-8.5,1.8-4.4,1-5.7,1.4l-1.6.4c-.2.1-.4.1-.5.1.2-.1.3-.2.5-.2l1.5-.5c1.3-.4,3.3-1,5.7-1.6s5.3-1.3,8.5-1.9,6.8-1.4,10.6-1.8c3.6-.4,7.2-.5,10.7-.2,2.9.2,5.8.9,8.6,1.9,1.9.7,3.6,1.6,5.3,2.7.6.4,1,.8,1.3,1s.4.2.4.2h0Z" fill="#455a64"/>
    <path id="ellk7dia9g79" d="m161.7,309.5s5.4,40.4,7.5,46.9,19.1,29.9,19.1,29.9l22.6-10.7-15.1-28.5-10.3-32.1-23.8-5.5h0Z" fill="#ffbe9d"/>
    <path id="elg9v3f474ga" d="m210.1,374.1c2-.3,3.9-.4,5.9-.3.8,0,1.5.2,2.1.6.4.3.7.7.9,1.1,1.1,2,1.8,4.3,1.8,6.6.1.4-.1.9-.3,1.2-.5.6-1.4.4-2.1.1-1-.4-1.9-1-2.7-1.7-1.1-1-2-2-2.8-3.2l-.9-1.1c-.8-1-1.5-1.9-2.2-2.9" fill="#eb996e"/>
    <path id="ellh10g2ngn6p" d="m201.9,356.7c1.6,4.2,6.6,17.6,6.6,17.6l3.4,3.8-7.8-22.3c-.2-.6-.9-.9-1.5-.8h0c-.7.2-1,.9-.9,1.5.13.07.2.13.2.2h0Z" fill="#e0e0e0"/>
    <path id="elx4t3rg4yvqb" d="m197.6,375.5s-4.8.4-6.2,1.8-1.8,5.7-1.8,5.7c0,0-2.8,3.9-1.3,7.3,0,0-2.3,5.4-.4,7.1.8.8,1.7,1.6,2.7,2.1h21.8l8.6-13.2-8.6-8.2s-5.4-8-8.3-8.3-8.8.2-6.5,5.7Z" fill="#ffbe9d"/>
    <path id="el1ru7ey050aq" d="m197.6,375.5c-.1-.1-.1-.3-.2-.4-.2-.4-.3-.8-.4-1.2-.1-.7-.1-1.4.2-2,.4-.8,1.1-1.5,2-1.8,1.1-.4,2.2-.6,3.3-.6.6,0,1.3,0,1.9.2.7.2,1.3.6,1.8,1,2.4,2.1,4.5,4.5,6.2,7.2h0l8.6,8.2.1.1-.1.2-8.6,13.2-.1.1h-22c-.9-.5-1.7-1.1-2.4-1.8-.4-.3-.7-.7-.9-1.2s-.3-.9-.3-1.4c.1-1.8.5-3.5,1.2-5.2v.2c-.5-1.3-.6-2.8-.2-4.1.3-1.2.8-2.3,1.5-3.4v.1c.2-1.8.6-3.5,1.4-5.1.2-.3.4-.6.8-.9.3-.2.6-.4.9-.5.6-.2,1.1-.4,1.7-.5.8-.2,1.6-.3,2.4-.4h1.2c.1.1,0,.1-.1.1l-.6.1c-.6.1-1.4.2-2.4.5-.6.1-1.1.3-1.7.5-.3.1-.6.3-.9.5-.3.2-.5.5-.7.8-.7,1.6-1.2,3.3-1.3,5h0c-.7,1-1.1,2.1-1.4,3.3-.4,1.3-.3,2.6.2,3.9v.2c-.7,1.6-1.1,3.3-1.1,5,0,.4.1.9.2,1.3.2.4.5.7.8,1,.7.6,1.4,1.2,2.2,1.7h-.1,21.7l-.2.1,8.6-13.2v.3l-8.6-8.3h0c-1.7-2.6-3.8-5-6.1-7.2-.5-.4-1.1-.8-1.7-1-.6-.1-1.2-.2-1.8-.2-1.1,0-2.2.2-3.2.5-.8.3-1.5.9-1.9,1.6-.3.6-.4,1.2-.2,1.9.1.4.2.8.3,1.2v.4h0Z" fill="#eb996e"/>
    <path id="elvnibggihc3" d="m207.8,393.1c-.9,0-1.9-.1-2.8-.2-.9-.1-1.9-.2-3-.4-.6-.1-1.2-.2-1.8-.5s-1.2-.6-1.7-1c-1.8-1.4-3.5-3-4.9-4.8-.6-.7-1.1-1.5-1.5-2.4.1,0,.7.8,1.8,2.1,1.5,1.7,3.1,3.2,4.9,4.6.5.4,1,.7,1.6,1,.5.2,1.1.4,1.7.5l3,.5c.9.1,1.9.3,2.7.6h0Z" fill="#eb996e"/>
    <path id="eleb9y3m7j22l" d="m206.9,398.7c-.9.2-1.8.3-2.7.3-1,.1-2,0-3-.1-1.2-.2-2.4-.5-3.5-1.1-2-1-3.8-2.4-5.3-4-.7-.6-1.3-1.3-1.8-2.1.7.5,1.4,1.1,2.1,1.8,1.6,1.5,3.3,2.8,5.2,3.8,2,.9,4.1,1.3,6.3,1.3.9,0,1.8,0,2.7.1h0Z" fill="#eb996e"/>
    <path id="el9uw2b0hg6rw" d="m210.8,387.5c-.8-.3-1.5-.6-2.2-1.1-1.7-1-3.2-2.2-4.7-3.4-1.5-1.3-2.8-2.7-4.1-4.2-.6-.6-1-1.3-1.4-2,.1-.1,2.4,2.8,5.8,5.8s6.7,4.8,6.6,4.9h0Z" fill="#eb996e"/>
    <polygon id="elw10hjjbg2gg" points="161.7 405.5 161.7 397.8 226.1 397.8 226.1 400.3 226.1 400.8 217 407.1 161.7 405.5" fill="#fff"/>
    <polygon id="elart8uwrla7" points="215.9 407.7 156.9 407.7 156.9 404.6 220.5 404.6 215.9 407.7" fill="#455a64"/>
    <path id="elm0r0tr94tae" d="m236.9,374.2c-.7.1-15,2.6-15,2.6l-10.2,12.3v8.7s3.1,1.8,4.6-.9c0,0-3.1,8.9-1.9,10.2s3.2,2.4,4.9,0c1.6-2.6,2.9-5.4,4.1-8.3l.4,3.7s8.6-4.2,9.5-5.4,6.5-9.3,6.5-9.3l2.6-2.3-2.6,4.1s-4.6,4.9-2.7,5.9,5.3-2.6,5.3-2.6l5.3-6.1,4.5-.5c.1-3-.1-5.9-.7-8.9-.3-1.9-3.5-5.7-3.2-6.1v-.1l-11.4,3h0Z" fill="#ffbe9d"/>
    <path id="el286sdzvy9ez" d="m225.1,380.7c-.5.8-1.1,1.5-1.8,2.2-1.4,1.7-2.8,3.5-4,5.4-.5,1.1-.9,2.2-1.1,3.4-.3,1.1-.6,2.1-.9,2.9-.3.9-.6,1.8-1.1,2.6.2-.9.4-1.8.7-2.7.2-.8.5-1.8.8-2.9.1-.6.2-1.1.4-1.7.1-.7.4-1.3.8-1.9,1.2-1.9,2.6-3.7,4.2-5.3.5-.8,1.2-1.4,2-2h0Z" fill="#eb996e"/>
    <path id="elfhfkt9vydwm" d="m232.3,382.8s-.2.2-.5.6l-1.4,1.6c-.6.7-1.3,1.5-2,2.4-.4.5-.8.9-1.2,1.4s-.8,1-1,1.6c-1.2,4.1-2.3,7.7-2.7,8.9l-.1.3v-.3c0-.4-.1-.5,0-.5s.1.2.2.5h-.2c.2-1.2,1.1-4.8,2.4-9,.1-.3.3-.7.5-1s.4-.5.6-.8c.4-.5.8-1,1.2-1.4.8-.9,1.5-1.7,2.1-2.3.6-.9,1.3-1.5,2.1-2h0Z" fill="#eb996e"/>
    <path id="elnrdq3bkuei" d="m236,385.4c-.4.7-.9,1.3-1.4,1.9l-1.7,1.9c-.3.4-.6.7-.9,1.1s-.5.9-.7,1.4c-.4,1-.6,2-.9,2.9l-.7,2.4c-.2.8-.4,1.5-.8,2.2.1-.8.2-1.5.4-2.3l.6-2.5c.2-1,.5-2,.9-3,.2-.5.4-1,.7-1.5.3-.4.6-.8,1-1.2.6-.7,1.2-1.3,1.8-1.8.5-.5,1.1-1,1.7-1.5h0Z" fill="#eb996e"/>
    <path id="elnk3orrx015" d="m252.8,385.5c-.1,0-.2.1-.3.1l-1,.2-3.7.9h0c-.7.9-1.6,1.9-2.5,3l-1.5,1.8c-.5.7-1.1,1.3-1.7,1.9-.7.7-1.5,1.2-2.3,1.7-.4.3-.9.5-1.4.6-.6.2-1.2,0-1.6-.4-.2-.2-.3-.6-.2-.9,0-.3.1-.6.2-.8.2-.5.5-1,.8-1.5.7-1,1.4-1.9,2.2-2.7h0l2.6-4.1.3.3-2.6,2.3h0l-6.2,8.8c-.1.2-.3.4-.4.6-.2.2-.4.4-.6.5-.4.3-.8.5-1.2.8-.8.5-1.7,1-2.5,1.4-1.7.9-3.5,1.8-5.3,2.7l-.3.2v-.4c-.1-1.1-.3-2.4-.4-3.7l.5.1c-.7,1.6-1.4,3.3-2.2,4.9-.4.8-.8,1.6-1.3,2.5s-1.1,1.6-2,2.1c-.6.3-1.3.3-2,.1-.6-.2-1.2-.6-1.6-1.1-.1-.1-.2-.2-.4-.4-.1-.2-.2-.3-.2-.5-.1-.3-.1-.7-.1-1,0-.6.1-1.2.2-1.9.5-2.4,1.2-4.7,2-7l.5.2c-.5.9-1.3,1.5-2.3,1.6-.9.1-1.9-.2-2.7-.6l-.1-.1v-8.8.1-.1c3.7-4.4,7.1-8.5,10.3-12.2v-.1h.1l15-2.5h0l8.5-2.3,2.3-.6.6-.1h.1s-.2,0-.7.2l-2.3.7-8.5,2.4h0l-15,2.6.1-.1-10.2,12.3.1-.1v8.7l-.1-.2c.7.4,1.6.6,2.4.5.8-.1,1.5-.6,1.9-1.4l.5.2c-.8,2.2-1.4,4.5-1.9,6.9-.1.6-.2,1.2-.2,1.8,0,.3,0,.6.1.9,0,.3.2.5.4.6.7.9,2,1.3,3.1.9.8-.5,1.4-1.2,1.7-2,.5-.8.9-1.6,1.3-2.4.8-1.6,1.5-3.3,2.2-4.9l.4-.9.1,1c.1,1.2.3,2.5.4,3.6l-.4-.2c1.8-.9,3.6-1.8,5.3-2.7.9-.5,1.7-.9,2.5-1.4.4-.2.8-.5,1.2-.8.2-.1.3-.3.5-.4.1-.2.3-.4.4-.6,2.2-3,4.2-6,6.2-8.7h0l2.6-2.3,1.2-1-.8,1.3-2.6,4.1h0c-.8.8-1.5,1.7-2.1,2.7-.3.4-.6.9-.8,1.4s-.3,1-.1,1.3c.4.3.8.4,1.3.3s.9-.3,1.3-.5c.8-.5,1.6-1,2.2-1.6s1.2-1.2,1.7-1.9l1.5-1.8,2.6-2.9h0l3.7-.8,1-.2c-.1-.2.1-.2.2-.2Z" fill="#eb996e"/>
    <path id="el0nnj6n5tcvjq" d="m179.6,162.6c-4.7-3.5-7-9.4-5.8-15.2.5-1,.2-2.2-.8-2.7-.1-.1-.3-.1-.5-.2-2.7-1.4-4.7-3.9-5.6-6.9-.8-3,.1-6.2,2.3-8.4-4.4-1.6-6.3-7.5-4.2-11.7s7.2-6.4,11.9-5.8c-1.6-2.4-.9-5.8,1-7.9,2.1-2,4.7-3.3,7.6-3.7,3.8-.7,8.3-.2,10.5,2.9.2-2.3,2.6-3.9,4.9-4.5,6.4-1.4,12.8,2.3,14.9,8.6,1.9-1.6,4.2-2.5,6.6-2.7,2.4,0,5,1.5,5.5,3.8,1-2.1,3.6-3,6-3.3,1.7-.2,3.5,0,5,.8,1.6.8,2.5,2.5,2.2,4.3,3.5-1.3,7.4.4,8.7,3.9,1.2,3.1,0,6.5-2.9,8.2,4.1,2.3,5.6,7.5,3.3,11.6-.7,1.2-1.6,2.2-2.7,2.9,1.4.1,2.2,2.1,1.5,3.4-.8,1.3-2.1,2.1-3.6,2.2l1.7,14.9c.5,3.2.6,6.4.1,9.6-.6,3.2-2.5,6.2-5.5,7.6" fill="#263238"/>
    <path id="elbmtvejqkktu" d="m178,148.3c-.7-12.1,10.7-25.7,22.8-25.9l39.7,2.5.7,6.5,9.2,83.4-43.2,24.6-2.7-31.4s-15.6-.6-21.3-20.2c-2.8-9.7-4.3-26.1-5.2-39.5Z" fill="#ffbe9d"/>
    <path id="el38mmbvgoca4" d="m184.4,162.9c.2,1.4,1.4,2.4,2.8,2.3,1.4-.1,2.4-1.2,2.4-2.6v-.1c-.2-1.4-1.4-2.4-2.8-2.3-1.4.1-2.5,1.3-2.4,2.7h0Z" fill="#263238"/>
    <path id="el4iyy3jdqmlt" d="m182.6,156.3c.4.3,2.1-1.4,4.9-1.7s5,.8,5.2.4c.1-.2-.3-.7-1.2-1.3-1.3-.7-2.8-.9-4.2-.7s-2.8.8-3.8,1.8c-.8.8-1,1.4-.9,1.5Z" fill="#263238"/>
    <path id="ell7dayra8n8" d="m209.1,160.9c.2,1.4,1.4,2.4,2.8,2.3,1.4-.1,2.4-1.2,2.4-2.6v-.1c-.2-1.4-1.4-2.4-2.8-2.3-1.4.1-2.5,1.3-2.4,2.7h0Z" fill="#263238"/>
    <path id="elzy2p8rnrd4d" d="m209.8,154c.4.3,2.1-1.4,4.9-1.7s4.9.8,5.2.4c.1-.2-.3-.7-1.2-1.3-1.3-.7-2.8-.9-4.2-.8-1.4.2-2.8.8-3.8,1.8-.8.9-1,1.5-.9,1.6Z" fill="#263238"/>
    <path id="elihhzd1qess9" d="m202.4,175.2c0-.2-1.8-.2-4.6-.2-.7,0-1.4,0-1.6-.5-.2-.7-.1-1.5.2-2.1.4-1.8.9-3.7,1.4-5.6,1.9-8,3.2-14.6,2.9-14.6s-2.1,6.4-4.1,14.4l-1.2,5.4c-.3.9-.3,1.9,0,2.8.3.5.7.8,1.3.9.4.1.8.1,1.2,0,2.8-.2,4.5-.4,4.5-.5h0Z" fill="#263238"/>
    <path id="elf8gjwuelsbq" d="m204.6,208.1c9.4-1,18.4-4.7,25.9-10.5,0,0-5.4,14.9-25.6,15.5l-.3-5h0Z" fill="#eb996e"/>
    <path id="elj8t06as54bp" d="m204.4,181.7c.9-1.5,2.5-2.4,4.2-2.4,1.2,0,2.5.4,3.4,1.3.9.8,1.1,2.1.6,3.3-.8,1.1-2.2,1.7-3.5,1.4-1.4-.3-2.6-.9-3.8-1.7-.3-.2-.6-.4-.9-.7-.2-.3-.3-.7-.1-1" fill="#eb996e"/>
    <path id="elmk576s63sbg" d="m210.8,176.1c-.4,0-.1,3-2.4,5.5s-5.5,2.5-5.5,2.9c0,.2.8.5,2.1.4,1.8-.2,3.4-1,4.6-2.3,1.2-1.2,1.8-2.9,1.8-4.5,0-1.4-.4-2.1-.6-2h0Z" fill="#263238"/>
    <path id="elzfagak1lg8l" d="m207.8,144.3c.4.7,3.1,0,6.4,0s6,.5,6.4-.2c.1-.3-.4-1-1.5-1.6-1.5-.7-3.2-1.1-4.9-1-1.7,0-3.3.4-4.8,1.2-1.3.6-1.8,1.3-1.6,1.6h0Z" fill="#263238"/>
    <path id="ellkd4l43pi5" d="m182.7,148.2c.6.6,2.4-.3,4.7-.6s4.3-.1,4.6-.8c.2-.4-.2-.9-1.1-1.4-2.5-1.2-5.5-.7-7.5,1.2-.8.6-1,1.3-.7,1.6Z" fill="#263238"/>
    <path id="el4r9w0cmtaqp" d="m183.4,124.2c-1.2,5.3,2.2,10.5,7.4,11.7,2.6.6,5.4,0,7.6-1.5-1.2,1.4-.7,3.8.7,5,1.5,1.1,3.4,1.7,5.2,1.4,3.9-.3,7.6-2.3,9.9-5.4,1.4,5.3,6.8,8.5,12.1,7.1,1-.3,2-.7,2.8-1.2-3.2,3.9-2.6,9.6,1.3,12.8,3.9,3.2,9.6,2.6,12.8-1.3,1.1-1.4,1.8-3,2-4.7,4.8-2.8,6.5-9,3.7-13.8-.5-.8-1-1.5-1.7-2.2,1.9-1,3.2-3,3.3-5.1s-.4-4.3-1.4-6.1c-2.2-4.7-6.1-8.8-11-10.4s-11-.3-14.1,3.8c-.3.5-.7.9-1.3,1.2-.8.1-1.6-.2-2.2-.8-2.8-2.3-5.6-4.7-9.2-5.2-4.4-.5-8.6,2.1-10.1,6.2-2.9-3.8-8.3-5.8-12.7-3.9s-6.7,7.9-4,11.9" fill="#263238"/>
    <path id="elucqv6o3goyb" d="m235.7,151.6c.7,4,2,8,3.8,11.6.8,1.6,1.9,3.2,3.6,3.4,1.6,0,3.1-1,3.6-2.6.4-1.5.5-3.1.2-4.7-.9-5.6-2.2-11-3.8-16.4" fill="#263238"/>
    <path id="el6ya4ed16jfj" d="m240.7,155.8c.2-.2,9.6-4.8,11.1,5.4s-9.1,9.5-9.1,9.2-2-14.6-2-14.6h0Z" fill="#ffbe9d"/>
    <path id="elcrckl9lnm7w" d="m245.2,166.1s.2.1.5.2c.4.1.9.1,1.3-.2,1-.6,1.7-2.4,1.5-4.2-.1-.9-.4-1.7-.9-2.5-.3-.6-.9-1.1-1.5-1.2-.4-.1-.9.2-1,.6-.1.3,0,.5-.1.5s-.2-.1-.2-.6c0-.3.1-.5.3-.7.3-.3.6-.4,1-.4.9.1,1.7.6,2.1,1.3.6.8.9,1.8,1,2.8.2,2.1-.5,4.1-2,4.8-.5.2-1.1.2-1.7,0-.3-.1-.3-.4-.3-.4h0Z" fill="#eb996e"/>
    <path id="elvee3gsk2ef" d="m185.9,172.9c-2.4,0-5.5-.2-6.5-1-1.5-1.2-3.4-5.9-5-10.4-.2-.6-.4-1-.4-1.1l.9-.5c.2.4.3.8.5,1.2.9,2.4,3.2,8.8,4.7,9.9,1.7,1.4,14.6.6,15.7-.4.7-.7,1.8-6.8,2.4-10.9l.1-.4,5.1-.7.2.3c1.3,2.6,5.2,9.5,7.6,10.6,3,1.4,13.9-.7,14.6-2,.6-1.1,1.8-8.1,2.4-12.6l.1-.4,15.7-1.1.1,1-14.9,1.1c-.3,2.2-1.7,11.1-2.5,12.6-1.1,2-12.8,3.8-15.9,2.4s-7-9-7.9-10.7l-3.6.5c-.3,2.3-1.5,9.9-2.6,11.1s-7.5,1.3-8.2,1.4-1.7.1-2.6.1h0Z" fill="#455a64"/>
    <path id="ell0z53twaz1s" d="m203.8,160.5l-1.2-1.6c6.3-4.7,18.2-7.7,26.3-4.4l-.8,1.9c-7.1-3-18.3-.3-24.3,4.1Z" fill="#455a64"/>
    <path id="el9kg93tf5ajc" d="m174.8,161.5l-.9-1.8c7.9-4.2,18.5-4.4,25.4-.4l-1,1.7c-6.3-3.6-16.4-3.4-23.5.5Z" fill="#455a64"/>
    <path id="elkohhacslrx" d="m248.5,161.2c-1.1-.7-2.5-.7-3.7,0-1,.8-1.2,2.2-.4,3.3.4.5.9.8,1.4.9.5,0,.9.1,1.4.3.4.3.7.8.7,1.3s0,1-.1,1.5c-.2,1.2-.1,2.4.2,3.5.1.3.2.6.5.9.2.2.5.3.8.2.9,0,1.7-.5,2.2-1.3s.8-1.6.9-2.5c.2-1.4.3-2.7.1-4.1-.1-.8-.3-1.7-.8-2.4-.8-1.1-3.8-2-5.2-2.1" fill="#263238"/>
    <path id="eli8mk9zwmi3" d="m214.6,133.3c-.1.1-.2.1-.3.1-.2.1-.5.2-.9.3-1.2.3-2.4.5-3.6.4-.9,0-1.7-.1-2.6-.4-2.2-.6-4-2.1-4.9-4.2-.5-1.2-.6-2.6-.2-3.9l.4.2c-2.2,2-4.9,3.2-7.8,3.5-1.6.2-3.2,0-4.8-.4-.8-.2-1.6-.6-2.3-1-.7-.5-1.3-1.1-1.7-1.9-.4-.9-.6-1.9-.6-2.9s.1-1.9.2-2.9c.1-.9.4-1.9.7-2.7.4-.9,1.1-1.6,2-1.9l.2.5c-1.7.7-3.5.9-5.3.4-1.6-.4-3.1-1.2-4.2-2.4-1-1-1.7-2.4-2-3.8-.5-3,.6-6.1,2.9-8.1.5-.4,1-.8,1.6-1,0,.1-.6.3-1.5,1.1-1.3,1.1-2.2,2.7-2.6,4.3-.3,1.2-.3,2.4-.1,3.5.3,1.4.9,2.6,1.9,3.6,1.1,1.1,2.5,1.8,4,2.2,1.7.4,3.4.3,5-.4l.2.5c-.8.3-1.4.9-1.7,1.6-.4.8-.6,1.7-.7,2.6-.2,1.8-.5,3.8.4,5.5.8,1.4,2.2,2.3,3.7,2.6,1.5.4,3,.5,4.6.4,2.8-.3,5.5-1.4,7.6-3.3l.7-.6-.3.9c-.4,1.2-.3,2.5.1,3.6.4,1,1.1,2,2,2.7.8.6,1.7,1.1,2.6,1.4.8.2,1.7.4,2.5.4,1.2,0,2.4-.1,3.6-.3.8-.1,1.2-.2,1.2-.2h0Z" fill="#fff"/>
    <path id="el8y1ododeik5" d="m182.5,132.8c-.2.2-.4.3-.6.4-.6.3-1.3.4-2,.5-1.1.1-2.1-.2-3-.8-.6-.4-1-.9-1.1-1.6-.2-.7.1-1.5.7-2l.3.4-.2.1c-2.2.9-4.7.8-6.9-.3-.6-.3-1.2-.7-1.7-1.2-.4-.4-.5-.6-.5-.6.7.6,1.5,1.1,2.4,1.5,2.1.9,4.4,1,6.5.1l.2-.1,2.4-1-2.1,1.4c-.4.3-.6.9-.5,1.5.1.5.5,1,.9,1.3.8.5,1.8.8,2.8.8.7,0,1.6-.1,2.4-.4h0Z" fill="#fff"/>
    <path id="el24j204kl2t9" d="m193.9,154.5c-.1.1-.7-.4-1.8-.9-2.9-1.3-6.2-1-8.9.6-1,.6-1.6,1.1-1.6,1.1.4-.6.9-1.1,1.4-1.4,1.4-.9,2.9-1.5,4.6-1.6,1.6-.1,3.3.2,4.7,1,.6.3,1.1.7,1.6,1.2h0Z" fill="#eb996e"/>
    <path id="elx28iz32b62l" d="m220.9,151.1c-.5-.2-1-.4-1.4-.7-2.3-1-5-.8-7.2.5-.4.3-.9.6-1.3.8,0,0,.3-.6,1.1-1.1,2.2-1.6,5.1-1.8,7.6-.5.8.5,1.3.9,1.2,1h0Z" fill="#eb996e"/>
    <path id="eldbzicsxjh4" d="m213.3,176.8c-.1,0-.2-.2-.5-.4-.4-.3-.8-.5-1.2-.5-1.1-.2-2-.1-2.1-.3.7-.4,1.4-.4,2.2-.2.5.1,1,.4,1.4.8.3.3.3.6.2.6h0Z" fill="#eb996e"/>
    <path id="elkmcpjryzvza" d="m215.4,178c-.1,0-.4-.7-1-1.5s-1-1.4-.9-1.6.8.4,1.4,1.3.7,1.8.5,1.8Z" fill="#eb996e"/>
    <path id="elcjw8ny11epi" d="m194.2,204.3c.1.1.1.3.1.4.1.3.2.7.3,1.3.2,1.1.6,2.8,1,4.9.9,4.2,2.2,10.3,4.5,17.6s5.9,15.9,12.3,23.8c1.6,2,3.3,3.9,5.1,5.9.8,1,1.8,2,2.9,2.8,1.1.8,2.4,1.1,3.7.9,1.3-.3,2.6-.8,3.7-1.6,1.1-.8,2.2-1.8,3.2-2.8,2.1-2,4.1-4.1,6-6.2,7.8-8.8,13.6-18.6,16.4-28.4,1.3-4.6,2.1-9.4,2.2-14.2.1-4.2-.2-8.4-.8-12.5-.9-6-2.2-12-3.7-17.8-.5-2.1-1-3.7-1.2-4.8-.1-.5-.2-.9-.3-1.2,0-.1-.1-.3-.1-.4.1.1.1.3.1.4.1.3.2.7.4,1.2.3,1.1.8,2.7,1.3,4.8,1.7,5.9,3,11.8,3.9,17.8.6,4.2.9,8.4.8,12.6-.1,4.8-.8,9.7-2.1,14.3-2.8,9.9-8.6,19.8-16.4,28.6-2,2.2-4,4.3-6.1,6.3-1,1-2.1,1.9-3.3,2.8s-2.5,1.4-3.9,1.7c-1.4.2-2.9-.1-4.1-1-1.1-.8-2.1-1.8-2.9-2.8-1.8-2-3.5-3.9-5.1-5.9-5.5-7.2-9.7-15.3-12.2-24-1.8-5.8-3.2-11.7-4.4-17.7-.4-2.1-.7-3.7-.9-4.9-.1-.5-.2-1-.2-1.3-.2-.4-.2-.5-.2-.6h0Z" fill="#263238"/>
    <path id="elhq02xeuqhu" d="m231.1,373.2s0-.1-.1-.3-.1-.5-.2-.9-.2-.9-.4-1.4c-.1-.6-.2-1.3-.3-1.9-.4-4.2,0-8.3,1.1-12.4,1.2-5.1,3.4-11,5-17.7.9-3.5,1.3-7.1,1.3-10.7-.1-3.9-1-7.7-2.4-11.3-1.4-3.7-3.2-7.2-4.8-10.7s-3.2-6.8-3.4-10.4,1.2-6.7,2-9.7c.4-1.4.6-2.9.6-4.4,0-1.4-.3-2.7-.8-4-.9-2.2-2-4.3-3.2-6.3-.9-1.5-1.6-3.2-2.2-4.9-.2-.6-.3-1.3-.4-1.9v-1.4l.1-.9c0-.1,0-.2.1-.3-.2,1.5-.1,3,.3,4.5.6,1.7,1.3,3.3,2.2,4.8,1.3,2,2.4,4.1,3.3,6.3.5,1.3.8,2.7.9,4.1,0,1.5-.2,3-.6,4.5-.8,3-2.1,6.1-1.9,9.5s1.8,6.8,3.4,10.2,3.4,6.9,4.8,10.7c1.5,3.6,2.3,7.5,2.5,11.5,0,3.7-.4,7.3-1.3,10.8-1.7,6.8-4,12.6-5.1,17.7-1.1,4-1.5,8.1-1.3,12.3,0,.6.1,1.3.2,1.9.1.5.2,1,.3,1.4s.1.6.2.9c.1.2.1.3.1.4h0Z" fill="#263238"/>
    <polygon id="eladkw5ql8zeq" points="220.5 260.7 220.2 261.8 222.6 264.9 223.6 264.9 226.3 261.8 225.9 260.7 220.5 260.7" fill="#455a64"/>
  </g>
  <g id="freepik--Device--inject-33">
    <path id="elzsk6a68h05" d="m17.8,365.4l44.8,78.9,173.7.1c1.5,0,2.6-1.2,2.6-2.7h0c0-1.5-1.2-2.6-2.6-2.7l-57.7-1.6c-2.6,0-5.1-1.5-6.3-3.9l-37.5-71.5c-.8-1.5-2.3-2.4-3.9-2.4l-109.1-1.1c-2.5,0-4.5,2-4.5,4.5-.1.9.1,1.7.5,2.4h0Z" fill="#455a64"/>
    <path id="eltocviz2iz9" d="m18,362.4h7.9l21.6.2,71.1.8,5.2.1h2.6c1.8,0,3.5.9,4.6,2.4.5.8.8,1.5,1.2,2.2l2.3,4.4,8.8,16.7c5.6,10.7,10.6,20.3,14.8,28.3l10,19.1c1.1,2.2,2.1,4,2.7,5.2l.7,1.4c.2.4.2.5.2.5l-.3-.5c-.2-.3-.4-.8-.7-1.3-.6-1.2-1.6-2.9-2.8-5.2-2.4-4.5-5.9-11-10.1-19s-9.3-17.6-15-28.3l-8.8-16.7-2.3-4.4c-.4-.7-.8-1.5-1.2-2.2-.5-.7-1.1-1.2-1.8-1.6s-1.5-.6-2.3-.6h-2.6l-5.2-.1-71.2-.8-21.6-.4-5.9-.1h-1.5l-.4-.1h0Z" fill="#263238"/>
    <path id="elm3ajn1q7vwk" d="m90.6,399.5c.2,2.3-1.5,4.4-3.9,4.6-2.3.2-4.4-1.5-4.6-3.9s1.5-4.4,3.9-4.6h.4c2.2-.1,4.1,1.6,4.2,3.9Z" fill="#fff"/>
  </g>
  <g id="freepik--Floor--inject-33">
    <path id="el0hl1d3uaearn" d="m453.6,444.3c0,.1-101.6.3-226.8.3s-226.8-.1-226.8-.3,101.5-.3,226.8-.3,226.8.1,226.8.3Z" fill="#263238"/>
  </g>
  <g id="freepik--speech-bubble--inject-33">
    <path id="eloo1ibbg7kw" d="m282.6,185.5l16.5-9.4c20.8,12.8,48.1,6.4,60.9-14.4,12.8-20.8,6.4-48.1-14.4-60.9s-48.1-6.4-60.9,14.4c-9.7,15.7-8.6,35.7,2.6,50.3h0l-4.7,20h0Z" fill="#fff"/>
    <path id="elflqe94qzxyq" d="m282.6,185.5l4.6-20v-.2l.2.1h0l-.2.2c-2.2-2.8-4-5.9-5.5-9.1-1.7-3.9-2.9-7.9-3.5-12.1-.3-2.3-.4-4.7-.4-7,.1-1.2.1-2.4.2-3.7s.4-2.5.6-3.7c2.2-11.1,8.5-21,17.7-27.6,5.1-3.7,10.9-6.2,17.1-7.5,6.5-1.3,13.2-1.1,19.6.5,6.7,1.7,13,4.9,18.2,9.5l2,1.8c.7.6,1.2,1.3,1.8,1.9s1.2,1.3,1.7,2l1.6,2.1c.5.7,1,1.4,1.5,2.2l1.4,2.2,1.1,2.4c.4.8.8,1.6,1.1,2.4,2.5,6.3,3.5,13.1,3,19.8-.4,6.4-2.3,12.6-5.4,18.2-5.6,10.1-14.8,17.6-25.8,21-4.7,1.4-9.5,2-14.4,1.9-4.2-.1-8.4-.8-12.4-2.2-3.3-1.1-6.5-2.6-9.5-4.4h.1l-16.4,9.3,16.5-9.5h.2c3,1.8,6.2,3.3,9.5,4.4,4,1.3,8.1,2,12.3,2.1,4.8.1,9.6-.6,14.2-1.9,10.9-3.4,20-10.9,25.5-20.8,3.1-5.5,4.9-11.7,5.3-18,.5-6.7-.5-13.4-3-19.6-.3-.8-.6-1.6-1-2.3l-1.1-2.3-1.4-2.2c-.4-.8-.9-1.5-1.4-2.2l-1.6-2.1c-.5-.7-1.2-1.3-1.7-2s-1.1-1.3-1.8-1.9l-2-1.8c-5.2-4.5-11.3-7.7-18-9.4-6.4-1.6-13-1.8-19.4-.5-6.1,1.2-11.8,3.7-16.9,7.4-9.1,6.5-15.4,16.3-17.6,27.3-.2,1.2-.4,2.5-.6,3.7s-.1,2.4-.2,3.6c-.1,2.3,0,4.6.3,6.9,1,7.7,4,15,8.8,21.1l.6.8-.8-.6h0l.2-.1-4.9,19.9h0Z" fill="#263238"/>
    <g id="freepik--speech-bubble--text">
      <path id="tx3" d="m298.7,140.4h0c0-6.6,5-9.7,12.1-9.7,3,0,5.2.5,7.3,1.2v-.5c0-3.5-2.2-5.5-6.4-5.5-2.3,0-4.2.3-5.9.8-.5.2-.8.2-1.2.2-2,0-3.5-1.5-3.5-3.5,0-1.5,1-2.8,2.3-3.3,2.7-1,5.6-1.6,9.6-1.6,4.6,0,8,1.2,10.1,3.4,2.2,2.2,3.2,5.5,3.2,9.6v13.6c0,2.3-1.8,4.1-4.1,4.1-2.5,0-4.1-1.7-4.1-3.5v-.1c-2.1,2.3-4.9,3.8-9.1,3.8-5.7.2-10.3-3-10.3-9h0Zm19.5-1.9v-1.5c-1.5-.7-3.4-1.1-5.4-1.1-3.6,0-5.9,1.5-5.9,4.1v.1c0,2.3,1.9,3.6,4.6,3.6,4,0,6.7-2.1,6.7-5.2h0Z" fill="#b9b9b9"/>
      <path id="tx2" d="m317.5,139.9c4.9-.3,7.9-.3,9.9,2.9s-5.1,14.6,2.2,16.5c7.3,1.9,10.8-4,13.8-9.7,3-5.8,4.4-12.7,4.5-16.2" fill="none" stroke="#ff7200" stroke-linecap="round" stroke-linejoin="round" stroke-width="8"/>
      <path id="tx1" d="m318.6,160.7c2.2-2.9,4.7-3.4,7.9-3.8" fill="none" stroke="#ff7200" stroke-linecap="round" stroke-linejoin="round" stroke-width="8"/>
    </g>
  </g>
</svg>