<?xml version="1.0" encoding="UTF-8"?>
<svg id="Layer_1" data-name="Layer 1" xmlns="http://www.w3.org/2000/svg" viewBox="0 0 717.8 689.39">
  <g>
    <path d="m75,196c92-5.9,148-5.9,185.6,54.9,37.7,60.8-95.6,273.8,40.3,309.7,135.9,36,202.3-74.2,258.6-182.5,56.4-108.2,83.2-238.2,83.3-303.1" fill="none" stroke="#e06d17" stroke-linecap="round" stroke-linejoin="round" stroke-width="150"/>
    <path d="m95.2,585.8c40.4-54.1,87.5-63.3,147-70.9" fill="none" stroke="#e06d17" stroke-linecap="round" stroke-linejoin="round" stroke-width="150"/>
  </g>
  <g id="freepik--background-complete--inject-32">
    <path d="m299.3,325.7h-149.2l24.3,17.5v34.5c0,4,3.2,7.2,7.2,7.2h117.7c4,0,7.2-3.2,7.2-7.2h0v-44.8c0-4-3.2-7.2-7.2-7.2h0Z" fill="#f5f5f5"/>
    <path d="m293.1,350.1c0,.1-22.5.3-50.2.3s-50.3-.1-50.3-.3c0-.1,22.5-.3,50.3-.3s50.2.2,50.2.3Z" fill="#e0e0e0"/>
    <path d="m293.1,363.3c0,.1-22.5.3-50.2.3s-50.3-.1-50.3-.3,22.5-.3,50.3-.3,50.2.2,50.2.3Z" fill="#e0e0e0"/>
    <path d="m71.3,260h106.5l-17.3,12.5v24.6c0,2.8-2.3,5.1-5.1,5.1h-84c-2.8,0-5.1-2.3-5.1-5.1v-32c-.1-2.8,2.2-5.1,5-5.1Z" fill="#f5f5f5"/>
    <path d="m75.7,277.4c0,.1,16.1.2,35.9.2s35.9-.1,35.9-.2-16.1-.2-35.9-.2-35.9.1-35.9.2Z" fill="#e0e0e0"/>
    <path d="m75.7,286.9c0,.1,16.1.2,35.9.2s35.9-.1,35.9-.2-16.1-.2-35.9-.2-35.9.1-35.9.2Z" fill="#e0e0e0"/>
    <path d="m588.1,355h106.5l-17.4,12.5v24.6c0,2.8-2.3,5.1-5.1,5.1h-84c-2.8,0-5.1-2.3-5.2-5.1v-32c0-2.8,2.3-5.1,5.2-5.1h0Z" fill="#f5f5f5"/>
    <path d="m592.5,372.4c0,.1,16,.2,35.9.2s35.9-.1,35.9-.2-16-.2-35.9-.2-35.9.1-35.9.2Z" fill="#e0e0e0"/>
    <path d="m592.5,381.8c0,.1,16,.2,35.9.2s35.9-.1,35.9-.2-16-.2-35.9-.2-35.9.1-35.9.2Z" fill="#e0e0e0"/>
    <path d="m621.1,639.7c-.7-2.8,1.2-5.6,3.2-7.7s4.6-3.8,5.7-6.5c1.8-4.4-.5-10.1,2.5-13.7,1.8-2.1,4.9-2.8,6.5-5.1.7-1.3,1.2-2.7,1.4-4.1,1.7-7.3,5.3-14,10.5-19.4.3,6.5-1.1,12.9-4.1,18.7-1.2,2.3-2.7,4.5-3.1,7.1-.7,4.2,1.6,8.5.6,12.5-1.2,4.7-6.5,7.8-6.8,12.6-.2,4.1,3.3,7.7,3,11.7-.2,1.7-.9,3.4-1.8,4.8-3.2,5.2-7.8,8.8-14.8,8.6l-8.6.3,5.8-19.8h0Z" fill="#f5f5f5"/>
    <path d="m613.4,659.7c-.8.1-1.6.1-2.4-.1-1-.1-1.9-.4-2.8-.7-1.2-.4-2.4-1.1-3.4-1.9-.6-.5-1.1-1.2-1.4-1.9-.3-.8-.4-1.7-.4-2.6s-.1-1.9-.2-2.8c-.1-1-.5-1.9-1-2.8-1-1.8-2.7-3.5-3.2-5.9s-.1-4.9.3-7.5c.4-2.6.8-5.4-.2-8.1s-2.8-5.1-3.7-8.2c-.9-3-.5-6.3-.6-9.6-.1-1.6-.4-3.3-1.1-4.8-.7-1.5-1.6-3-2.4-4.6-1.5-3.2-1.8-6.9-2.2-10.5-.2-1.8-.4-3.6-.6-5.5-.1-1.9-.4-3.7-.9-5.5-.6-1.8-1.2-3.6-2-5.3-.4-.9-.7-1.8-1-2.8-.2-1-.2-2-.3-3-.1-2,0-4,.3-5.9.2-2,.6-3.9.8-5.9v-.7l.3.2c1.8.9,3.4,2.3,4.6,3.9,1.2,1.6,2.1,3.4,2.8,5.2,1.4,3.7,1.9,7.6,2.6,11.3.5,3.7,1.7,7.2,3.5,10.4.9,1.5,2.1,2.9,3,4.4,1.1,1.5,1.8,3.1,2.1,4.9.5,3.6-1.5,6.8-1.1,10,.2,1.6.7,3.1,1.5,4.5s1.7,2.6,2.5,3.9c.9,1.3,1.6,2.6,2.3,4,.6,1.4.9,2.8,1,4.3.2,2.9-.2,5.6,0,8.2.2,2.5.9,4.9,2.1,7.1,1,2.1,2.2,4,3.1,5.9.5.9.9,1.8,1.3,2.8.3.9.6,1.8.7,2.7.2,1.6.2,3.3,0,4.9-.2,2.3-1.1,4.4-2.5,6.2-.2.3-.4.5-.7.7-.2.2-.4.3-.6.5l-.1.6c.5-.5,1.1-1.1,1.6-1.7,1.3-1.8,2.2-4,2.4-6.2.2-1.6.2-3.2-.1-4.8-.2-.9-.4-1.8-.8-2.7-.4-.9-.8-1.8-1.3-2.7-1-1.9-2.1-3.8-3.2-5.9-1.2-2.2-1.9-4.7-2.2-7.2-.2-2.7.2-5.4,0-8.2-.1-1.4-.4-2.8-1-4.2s-1.4-2.7-2.3-3.9c-.9-1.3-1.8-2.6-2.6-4-.9-1.4-1.4-3-1.6-4.7-.4-3.4,1.6-6.6,1.1-10-.3-1.7-1-3.3-2-4.7-1-1.5-2.1-2.9-3.1-4.5-1.8-3.3-3-6.9-3.5-10.6-.7-3.7-1.2-7.5-2.6-11.2-.7-1.8-1.6-3.5-2.7-5.1-1.2-1.6-2.7-2.9-4.4-3.8l.4-.2v.3c-.2,2-.6,4-.8,5.9-.3,1.9-.3,3.9-.3,5.9,0,1,.1,2,.2,2.9.3.9.6,1.8,1,2.7.8,1.8,1.4,3.5,2,5.4.5,1.8.8,3.7.9,5.6.2,1.9.4,3.7.6,5.5.4,3.6.6,7.2,2.1,10.4.7,1.6,1.7,3,2.4,4.6s1.1,3.2,1.1,5c.2,3.3-.3,6.5.6,9.5s2.7,5.4,3.7,8.2c.9,2.8.6,5.7.1,8.3-.4,2.6-.9,5.1-.3,7.4.5,2.3,2.1,4,3.1,5.8.5.9.9,1.9,1,2.9.1.9.2,1.9.2,2.8,0,.8.1,1.7.3,2.5.3.7.7,1.3,1.3,1.8,1,.8,2.1,1.5,3.3,1.9.9.3,1.8.6,2.8.8.6.1,1.2.2,1.7.2h.9Z" fill="#e0e0e0"/>
    <path d="m586.8,558.4c0,.1.1.2.1.3,0,.2.1.5.2.8.2.7.4,1.7.7,3s1.1,2.7,1.8,4.5c.8,2,1.4,4,2,6.1.6,2.3,1.2,4.8,1.8,7.6.5,2.9,1.4,5.7,2.7,8.4.7,1.4,1.5,2.8,2.1,4.4.6,1.6,1,3.2,1.2,4.9.4,3.5,1,7,1.8,10.4,1.7,7,3.3,13.8,4.8,19.9l4,16.2,2.6,10.9c.3,1.3.5,2.3.7,3,.1.3.1.6.2.8v.3c0-.1-.1-.2-.1-.2l-.2-.8c-.2-.7-.5-1.7-.8-3-.7-2.6-1.6-6.3-2.8-10.9l-4.1-16.2-4.8-19.9c-.8-3.4-1.4-6.9-1.8-10.4-.2-1.6-.6-3.3-1.2-4.8-.6-1.5-1.4-2.9-2.1-4.3-1.3-2.7-2.2-5.6-2.7-8.5-.6-2.7-1.1-5.3-1.7-7.6-.6-2.3-1.3-4.3-1.9-6.1s-1.4-3.2-1.7-4.5-.5-2.3-.6-3c0-.3-.1-.6-.1-.8-.1-.3-.1-.4-.1-.5h0Z" fill="#e0e0e0"/>
    <path d="m611.9,659.8c-5.6-3.4-7.2-13.5-4.8-19.6s6.5-11.6,7.2-18.1c.5-5-1.1-10.1.1-15,1.6-6.6,8.1-11.6,8-18.4,0-3.8-2.2-7.4-2-11.2.2-4.6,3.8-8.3,6.1-12.4,3.4-6.3,3.7-13.7,4.9-20.7s3.9-14.5,10.2-18c.9,6,2.4,10.1,1.9,18.2-.2,2.9-3.6,8.5-4.1,14.8-.3,3.8-.5,7.6-.8,11.4-.2,3.8-.5,7.5-1.9,10.9-1,2.7-2.7,5.1-3.5,7.8-1.5,5.2.4,10.8-.8,16-1,4.4-4.1,8.2-4.7,12.7-.9,6.3,3.1,12.9,1,18.9-1.1,3-3.5,5.4-4.2,8.5-.6,2.4,0,4.9-.5,7.3-.8,3.9-8.2,6.8-12.2,6.6" fill="#e0e0e0"/>
    <path d="m640,532.3v.3l-.1,1c-.1.9-.3,2.1-.6,3.8s-1.2,3.5-1.9,5.7-1.5,4.8-2.1,7.7-1.2,6.1-1.8,9.5c-.5,3.7-1.5,7.3-2.9,10.7-.8,1.8-1.7,3.6-2.4,5.5-.7,2-1.1,4-1.2,6.1-.3,4.4-.9,8.7-1.7,13.1-1.8,8.8-3.5,17.3-5,24.9s-3.1,14.5-4.3,20.3-2.3,10.4-3,13.7c-.3,1.6-.6,2.8-.8,3.7-.1.4-.2.7-.2,1,0,.1,0,.2-.1.3v-.3c0-.2.1-.6.2-1,.2-.9.4-2.1.7-3.7.7-3.3,1.6-8,2.8-13.7l4.1-20.5c1.5-7.7,3.2-16.1,4.9-24.9.8-4.3,1.4-8.6,1.7-13,.2-2.1.6-4.2,1.3-6.2s1.6-3.8,2.4-5.5c1.5-3.4,2.5-6.9,3-10.6.6-3.4,1.2-6.6,1.9-9.5s1.4-5.5,2.2-7.7,1.6-4.1,2-5.7c.4-1.6.5-2.9.7-3.7l.2-1v-.3h0Z" fill="#ebebeb"/>
    <path d="m31.5,492.7s-9.6,2-2.8,22.7c6.8,20.8,12,31.4,12,31.4,0,0,1,4.7-2.8,4.8s-11.9-2.5-14.3,1.8c-2.5,4.5.3,9.5,6.7,14.6s20,16.7,21.2,17.7,2.2,3.3-.4,3.8-21.5-.5-21.5,8.5,20.2,20.2,22.4,21.5,2.6,2.3,2.2,3.6-6.7.3-12.1.2-11.7.8-11.2,6,11.5,17.7,41.7,25.6l14.3,2.8,9.7-10.9c19.4-24.5,20.6-41.1,17.9-45.5s-8.3-1.3-12.5,2c-4.3,3.3-8.8,7.9-9.8,7.1s-1.4-1.8-.4-4.2,10.3-23.4,4.9-30.6c-5.4-7.2-19.9,5-22.3,6.2s-3-1.2-2.6-2.8c.4-1.5,4.2-19,6.3-26.9s1.2-13.6-3.5-15.7c-4.5-2-9.4,5-12.5,7.2s-5.2-2.2-5.2-2.2c0,0-2.2-11.6-9.3-32.3s-16.4-16.4-16.4-16.4" fill="#ebebeb"/>
    <path d="m86.9,661.1c-5.2-15.2-13.9-42.4-21.5-65.6-7.6-23.3-14.5-44.3-19.6-59.6-2.5-7.6-4.6-13.7-6.1-18-.7-2.1-1.3-3.8-1.6-4.9-.2-.5-.3-1-.4-1.3-.1-.1-.1-.3-.1-.4l.2.4.5,1.3,1.7,4.9c1.5,4.2,3.6,10.4,6.2,18,5,15.1,12,36.2,19.6,59.5,7.6,23.3,16.3,50.5,21.4,65.7" fill="#e0e0e0"/>
    <path d="m34.6,557.6c.3.1.7.3,1,.4.6.3,1.5.8,2.5,1.4,2.1,1.2,5,2.9,8.1,4.8l8,5,2.4,1.5c.3.2.6.4.9.6-.4-.1-.7-.2-1-.4-.6-.3-1.5-.8-2.5-1.4-2.1-1.2-4.9-2.9-8.1-4.9l-8-4.9-2.4-1.5c-.3-.2-.6-.4-.9-.6h0Z" fill="#e0e0e0"/>
    <path d="m58.6,570.5c-.1-.1,3.1-6.1,7.2-13.5s7.5-13.4,7.6-13.3c.1.1-3.1,6.1-7.2,13.5s-7.5,13.3-7.6,13.3Z" fill="#e0e0e0"/>
    <path d="m68.7,606.8c.2-.3.5-.6.7-.8l2.1-2c1.8-1.7,4.1-4.1,6.7-6.9s4.8-5.3,6.4-7.2c.8-.9,1.4-1.6,1.9-2.2.2-.3.5-.6.7-.8-.2.3-.4.6-.6.9-.4.6-1,1.3-1.8,2.3-1.5,1.9-3.7,4.5-6.3,7.3s-5,5.1-6.8,6.8c-.9.8-1.6,1.5-2.2,2-.2.1-.5.4-.8.6h0Z" fill="#e0e0e0"/>
    <path d="m44.4,599.9c.3,0,.7.1,1,.2l2.6.6c2.2.6,5.2,1.4,8.6,2.2,3.3.9,6.4,1.8,8.6,2.4l2.6.8c.3.1.6.2.9.3-.3,0-.7-.1-1-.2l-2.6-.6c-2.2-.5-5.2-1.3-8.6-2.2-3.3-.9-6.4-1.8-8.6-2.4l-2.6-.8c-.3-.1-.6-.2-.9-.3Z" fill="#e0e0e0"/>
    <path d="m49.3,633c.4,0,.8.1,1.2.2l3.4.8c2.8.7,6.7,1.7,11,2.8,4.3,1.1,8.2,2.2,11,2.9l3.3.9c.4.1.8.2,1.2.4-.4,0-.8-.1-1.2-.2l-3.4-.8c-2.8-.7-6.7-1.7-11-2.8s-8.2-2.2-11-2.9l-3.3-.9c-.4-.1-.8-.2-1.2-.4Z" fill="#e0e0e0"/>
    <path d="m79.8,640.7c.3-.4.6-.7.9-1l2.5-2.7c2.1-2.3,5.1-5.4,8.2-9s5.9-6.9,7.9-9.3l2.3-2.9c.3-.4.6-.7.9-1-.2.4-.5.8-.8,1.1-.5.7-1.3,1.7-2.2,2.9-1.9,2.5-4.7,5.8-7.8,9.4-3.2,3.6-6.1,6.7-8.3,9-1.1,1.1-2,2-2.6,2.6-.3.4-.7.7-1,.9Z" fill="#e0e0e0"/>
  </g>
  <g id="freepik--Floor--inject-32">
    <path d="m687.2,659.8c0,.1-147.8.3-330,.3s-330-.1-330-.3,147.7-.3,330-.3,330,.1,330,.3Z" fill="#263238"/>
  </g>
  <g id="freepik--character-3--inject-32">
    <path d="m504.4,392.8l12.6,9.6,5.4,2.4-5.4-8.1-10.2-7.2c-.9-.7-2.1-.5-2.8.4h0c-.7,1-.5,2.2.4,2.9h0Z" fill="#263238"/>
    <path d="m554.4,415.4c-.6,0-17.8-6.8-18.2-7.7s-.2-3.5-3.6-4.5c-3.4-.9-7-2.2-7-2.2l-8.8-5.8s-2.4.8-.2,3.4c1.2,1.4,2.6,2.8,4.1,4,.8.7-.9,1.7-.9,1.7l-11.9-9.1c.3,2.2,1.1,4.3,2.5,6.1l1.7,2.3c-.6,1.8-.1,3.7,1.3,4.9,2.5,2.3,6.4,8.1,10.6,8.3s7.1.5,7.1.5l21.7,10.6,1.6-12.5h0Z" fill="#ffbe9d"/>
    <path d="m588.5,290.6c.8,4.6,7.4,6.6,7.9,11.2.2,2-.7,3.9-.7,6,0,2.7,1.9,5,2.8,7.5,1.9,5.2-.5,11.4-4.7,14.9s-10,5-15.5,5" fill="#263238"/>
    <path d="m551.1,294.6c.5,2.5-.8,4.9-2.2,7s-3,4.3-3,6.8c0,4.4,4.8,7.9,4.5,12.4-.2,2.4-1.8,4.5-1.8,6.9s1.5,4.4,3.2,5.9,3.5,1,5,2.7c1.8,1.9,4,3.4,6.5,4.3,5.2,2,10.4-2.6,12.6-3.6" fill="#263238"/>
    <path d="m589.8,293.2c-.2-2.3-2.6-3.7-4.8-4.2s-4.6-.5-6.6-1.5c-1.8-.9-3.2-2.5-4.8-3.7-6.1-4.7-14.9-3.5-19.6,2.6-1.5,2-2.5,4.4-2.8,7-.4,3.3.7,7,3.5,8.8,3.3,2.1,7.5.9,11.2-.4s7.8-2.6,11.3-.9c2.1,1.1,3.5,3.1,4.9,4.9s3.2,3.7,5.5,4.1c2.3.5,5.1-1.3,4.8-3.6" fill="#263238"/>
    <path d="m581.1,293.8l-20.7-2.3c-6.5.2-9.7,8.7-9.2,15.1.5,7.2,1.4,16,3,21.2,3.2,10.5,11.6,10.7,11.6,10.7,0,0,1.8,13.1,2.6,18.2l22.7-2.8-6-56.9c-.3-1.8-2-3.3-4-3.2h0Z" fill="#ffbe9d"/>
    <path d="m553.9,314.2c.1.7.8,1.3,1.5,1.2.7,0,1.3-.7,1.3-1.4h0c-.1-.7-.8-1.3-1.5-1.2-.8,0-1.4.6-1.3,1.4q0-.07,0,0Z" fill="#263238"/>
    <path d="m553.5,311.9c.2.2,1.1-.8,2.6-1s2.7.4,2.8.2-.2-.4-.7-.7c-.7-.4-1.5-.5-2.3-.4s-1.5.5-2,1c-.3.5-.5.9-.4.9h0Z" fill="#263238"/>
    <path d="m568.3,312.1c.1.7.8,1.3,1.5,1.2.7,0,1.3-.7,1.3-1.4h0c-.1-.7-.8-1.3-1.5-1.2-.8,0-1.3.6-1.3,1.4,0-.1,0,0,0,0Z" fill="#263238"/>
    <path d="m568.1,310.3c.2.1,1.1-.8,2.6-1s2.7.4,2.8.2-.2-.4-.7-.7c-.7-.4-1.5-.5-2.3-.4s-1.5.5-2,1c-.4.4-.5.8-.4.9h0Z" fill="#263238"/>
    <path d="m564.2,322c-.8-.1-1.6-.2-2.5-.1-.4,0-.8,0-.8-.3-.1-.4-.1-.8.1-1.2l.7-3c1-4.3,1.7-7.8,1.5-7.9s-1.1,3.4-2.1,7.7c-.2,1.1-.5,2.1-.7,3-.2.5-.2,1,0,1.5.2.2.4.4.7.5h.7c.8.1,1.7,0,2.4-.2h0Z" fill="#263238"/>
    <path d="m565.6,339.6c5.1-.6,9.8-2.6,13.8-5.8-.1,0-2.9,8-13.3,8.3l-.5-2.5Z" fill="#eb996e"/>
    <path d="m565.4,325.4c.5-.8,1.3-1.3,2.2-1.3.7,0,1.3.2,1.8.7s.6,1.2.3,1.8c-.4.6-1.2.9-1.9.8-.7-.2-1.4-.5-2-.9-.2-.1-.3-.2-.5-.4,0-.2,0-.4.1-.7" fill="#dfdfdf"/>
    <path d="m568.7,322.4c-.2,0,0,1.6-1.2,3s-3,1.4-2.9,1.6c0,.2.4.3,1.2.2.9-.1,1.8-.6,2.5-1.2.6-.7,1-1.5.9-2.5-.1-.8-.3-1.1-.5-1.1Z" fill="#263238"/>
    <path d="m567.1,307.8c.2.4,1.7,0,3.4,0s3.2.3,3.4-.1c.1-.2-.2-.5-.8-.8-1.7-.8-3.6-.7-5.2.1-.6.2-.9.6-.8.8h0Z" fill="#263238"/>
    <path d="m553.5,307.6c.3.3,1.3-.2,2.5-.4s2.3-.1,2.5-.5c.1-.2-.1-.5-.6-.8-.7-.3-1.4-.4-2.1-.3-.7.1-1.4.5-1.9,1-.4.5-.5.8-.4,1h0Z" fill="#263238"/>
    <path d="m590.4,330.1c-2.9,1-3.3-.5-5.8-2.2-2.5-1.8-4-4.7-4.1-7.8,0-2.7,1-5.6-.2-7.9-1.7-3.1-6.4-3.5-8.1-6.6-1-1.8-.7-4.1-1.7-5.9-1.1-1.8-3-2.4-4.9-2.8s-3.9-.6-5.6-1.6c-1.7-1-2.9-3.1-2.2-4.9,8.1-.1,16.3.7,24.2,2.5,1.8.4,3.8.9,5,2.3s1.6,3.6,1.7,5.6l2.6,29.1" fill="#263238"/>
    <path d="m594.2,307.3c-.2-4.6,3.4-8.5,7.9-8.6,2.9-.1,5.6,1.3,7.2,3.6,1.9,2.8,1.9,6.6.9,9.9-1.2,3.9-4.1,7.7-8.1,8-3.8.4-7.3-2.5-8.9-6-1.6-3.5-1.7-7.4-1.8-11.2" fill="#263238"/>
    <path d="m598.3,321.7c.2-.2.4-.4.5-.7.3-.7.5-1.5.5-2.2,0-1.1-.2-2.3-.6-3.4-.4-1.2-1-2.5-1.5-3.8-.5-1.2-.8-2.6-.8-3.9.1-1.2.5-2.3.6-3.3.1-.8.1-1.6-.2-2.3-.2-.5-.5-.7-.5-.7,0,0,.2.2.3.7.2.7.3,1.5.1,2.2-.3,1.1-.5,2.2-.7,3.3,0,1.4.2,2.8.8,4.1.5,1.4,1.1,2.7,1.5,3.8.4,1,.6,2.1.6,3.2,0,1-.2,2.1-.6,3h0Z" fill="#455a64"/>
    <path d="m596.7,308.8c.5.6,1.2,1.1,1.9,1.4,3.5,1.8,7.7,1.3,10.7-1.3.6-.5,1.1-1.1,1.5-1.8-.1-.1-.6.7-1.7,1.5-2.9,2.3-6.9,2.8-10.3,1.2-1.4-.5-2.1-1.1-2.1-1h0Z" fill="#455a64"/>
    <path d="m597.4,310.4c.3.6.7,1.1,1.1,1.6,1.1,1.1,2.4,2,3.8,2.6,1.4.6,3,1,4.6,1,.6,0,1.3,0,1.9-.2-.6-.1-1.3-.1-1.9-.1-3-.2-5.9-1.4-8.2-3.5-.3-.5-.8-1-1.3-1.4h0Z" fill="#455a64"/>
    <path d="m596.8,325.5l.1-.1c.1-.2.2-.3.2-.5.3-.6.4-1.3.5-2,.1-1.1-.2-2.2-.6-3.1-.6-1.3-1.7-2.4-3-3-1.4-.7-3.1-1.1-4.4-2.4-.6-.6-1-1.5-.9-2.4.1-1,.3-2,.5-2.9.6-2.2.2-4.5-1-6.4-.6-1-1.5-1.8-2.5-2.4-1.1-.5-2.3-.9-3.5-.9-1.2-.1-2.4-.1-3.5-.3-1.1-.1-2.1-.5-3-1.2-.8-.7-1.4-1.6-1.6-2.6-.2-1-.6-2-.9-3-.7-1.9-2-3.5-3.6-4.7-1.4-1-3.1-1.6-4.9-1.6-1.4,0-2.9.4-4.1,1.2-.9.6-1.6,1.4-2.1,2.4-.3.6-.5,1.3-.6,1.9v.7c.1-.9.3-1.8.8-2.6.5-.9,1.2-1.7,2.1-2.3,1.2-.8,2.5-1.1,3.9-1.1,1.7.1,3.3.6,4.6,1.6,1.5,1.2,2.7,2.7,3.4,4.5.4,1,.7,2,.9,3,.2,1.1.9,2.1,1.8,2.9,1,.7,2.1,1.1,3.3,1.3,1.2.2,2.4.2,3.5.3,1.1.1,2.3.3,3.3.8s1.8,1.3,2.4,2.2c1.1,1.8,1.5,3.9,1,6-.3,1-.5,2-.5,3s.3,2,1.1,2.7c1.4,1.4,3.2,1.7,4.5,2.4,1.3.6,2.3,1.6,2.9,2.8.5.9.7,2,.7,3-.3,1.1-.5,2-.8,2.8h0Z" fill="#455a64"/>
    <path d="m591.9,295.7c.1-.2.1-.3.1-.5,0-.5-.2-1-.5-1.4-.5-.6-1.2-1-2-1.2-1-.2-2.1-.1-3.1.3-1.1.4-2.2,1-3.4,1.4-1.3.6-2.7.5-4-.1-1.3-.7-2-2.1-2.8-3.5-.8-1.5-1.8-2.9-3.1-4.1-2.4-2.3-5.5-3.8-8.8-4.1-1.5-.1-2.9.1-4.3.7-1.2.5-2.2,1.4-2.8,2.5-.6.9-.9,1.9-.8,3,0,.8.3,1.6.7,2.2.3.4.6.8,1,1.1.1.1.3.2.4.3-.5-.4-.9-.9-1.3-1.5-.4-.7-.5-1.4-.6-2.2,0-1,.2-2,.8-2.8.7-1,1.6-1.8,2.7-2.3,1.3-.6,2.7-.8,4.1-.6,3.2.4,6.2,1.8,8.5,4,1.2,1.2,2.2,2.5,3,4,.6,1.5,1.7,2.8,3,3.7.7.4,1.4.5,2.2.5.7,0,1.4-.2,2.1-.4,1.3-.5,2.4-1.1,3.4-1.5.9-.4,1.9-.5,2.9-.4.7.2,1.4.5,1.9,1.1.3.4.5.8.6,1.3.1.3.1.5.1.5h0Z" fill="#455a64"/>
    <path d="m583.7,502.4c.5,1.5,15.1,65.5,15.1,65.5l44.4,53.6,15.6-13.2-33.3-50.2-6.4-63.4-35.4,7.7h0Z" fill="#ffbe9d"/>
    <path d="m658.9,608.2l.5.7,9.7,12.6,12,8.2-16.1,30.9h-17.7s1.3-4.2,9.8-6.4l.6-17-15.3-16.7" fill="#dfdfdf"/>
    <g opacity=".6">
      <polygon points="681.1 629.7 665 660.6 647.4 660.6 649.4 658 663.7 657.2 678.5 628 681.1 629.7" fill="#fff"/>
    </g>
    <path d="m657.2,646.4c.1.2,1.2-.4,2.5-.4,1.4,0,2.4.6,2.5.4s-.8-1.2-2.5-1.2-2.6,1.1-2.5,1.2Z" fill="#263238"/>
    <path d="m657.5,642.2c.2.1,1-.9,2.4-1.2s2.5.4,2.7.2-.1-.4-.6-.6c-1.4-.7-3-.3-4,.8-.5.4-.6.8-.5.8h0Z" fill="#263238"/>
    <path d="m657.4,636.8c.2.1.8-.9,2-1.4s2.3,0,2.4-.2c.1-.2-.2-.3-.7-.5-.6-.2-1.4-.2-2,0-.7.2-1.2.7-1.6,1.3-.2.4-.2.8-.1.8h0Z" fill="#263238"/>
    <path d="m652.7,632.6c.2.1.7-.9,1.8-1.6s2.2-.8,2.2-1-1.3-.5-2.6.4-1.6,2.2-1.4,2.2h0Z" fill="#263238"/>
    <path d="m650.4,629c.1.1.7-.7,1.5-1.9l1.5-2.1c.3-.4.6-.9.8-1.4.1-.4.1-.7-.1-1.1-.2-.4-.6-.6-1.1-.6-.6.1-1.2.4-1.7.9-1.1,1-1.8,2.3-2,3.8-.2.8,0,1.7.4,2.4,0-.8,0-1.6.1-2.3.2-.8.5-1.6,1-2.2.3-.4.6-.7,1-1,.3-.3.8-.5,1.2-.7.1,0,.3,0,.3.2.1.2.1.3,0,.5-.2.4-.4.8-.7,1.2l-1.3,2.2c-.3.6-.7,1.4-.9,2.1h0Z" fill="#263238"/>
    <path d="m649.7,629.5c.1,0,0-.9-.9-2-1.3-1.4-3.5-1.8-5.2-.9-.2.2-.3.4-.3.6s.1.4.2.6l.6.6c.4.3.8.5,1.2.7.7.3,1.5.6,2.3.7.7.2,1.5.1,2.1-.3.1,0-.7,0-2-.2-.7-.2-1.4-.4-2.1-.8-.4-.2-.8-.4-1.1-.7-.2-.1-.3-.2-.5-.4-.1-.2-.1-.1,0-.2.2-.1.3-.2.5-.2s.4-.1.7-.1c.4,0,.8,0,1.3.1.7.2,1.4.5,1.9,1,1,.8,1.2,1.6,1.3,1.5h0Z" fill="#263238"/>
    <g opacity=".6">
      <path d="m667,629.2c0,1.2.9,2.1,2.1,2.1s2.1-.9,2.1-2.1-.9-2.1-2.1-2.1h0c-1.2,0-2.1.9-2.1,2.1h0Z" fill="#fff"/>
    </g>
    <path d="m584.5,513.7l-34.8,55.6s-.4,13.7-4.1,21.9c-3.7,8.2-20.4,42.4-20.4,42.4l-15.2-6.9,18.8-67.9,26.5-68.4,29.2,23.3Z" fill="#ffbe9d"/>
    <path d="m529,628l-12.4,31.1-39-14.9c1.6-3.6,26.2-2.7,26.2-2.7l7.9-21,17.3,7.5h0Z" fill="#dfdfdf"/>
    <g opacity=".6">
      <path d="m515,643.7c.7.5.9,1.5.4,2.2s-1.5.9-2.2.4c-.7-.6-.9-1.6-.4-2.4.6-.7,1.6-.8,2.4-.2" fill="#fff"/>
    </g>
    <g opacity=".6">
      <path d="m516.6,659.1l1.1-3.2-37.8-13.1s-2,.1-2.3,1.4l39,14.9h0Z" fill="#fff"/>
    </g>
    <path d="m503.1,641.7c-.1.2.8.6,1.5,1.6s.9,2,1.1,2,.3-1.2-.5-2.4-2-1.4-2.1-1.2h0Z" fill="#263238"/>
    <path d="m497.4,641.5c-.1.2.6.8.9,1.9s.2,2,.4,2,.7-1,.3-2.3-1.6-1.8-1.6-1.6h0Z" fill="#263238"/>
    <path d="m493.3,645.3c.2.1.8-.8.7-2s-.8-2-1-1.9.2.9.2,1.9-.1,1.9.1,2h0Z" fill="#263238"/>
    <path d="m505.4,636.6c0,.2,1,.3,2,.8s1.8,1.1,1.9,1-.4-1.1-1.6-1.7c-1.2-.6-2.3-.3-2.3-.1Z" fill="#263238"/>
    <path d="m506.5,631.6c.6.4,1.3.7,2,.7.8.1,1.5.2,2.3.1.5,0,.9-.1,1.3-.2.3,0,.5-.1.8-.2.4-.2.6-.6.5-1-.1-.3-.3-.6-.7-.8-.2-.1-.5-.2-.8-.2h-1.4c-.8,0-1.5.2-2.2.5-1.2.5-1.8,1.1-1.8,1.1,0,.1.7-.3,1.9-.7.7-.2,1.4-.3,2.1-.3.4,0,.8,0,1.3.1.5,0,.8.2.8.4,0,.07-.03.13-.1.2-.2.1-.4.1-.6.2-.4.1-.8.1-1.3.2-.7.1-1.4.1-2.2,0-.5,0-1.2,0-1.9-.1Z" fill="#263238"/>
    <path d="m506.7,632c0,.1.7-.5,1.2-1.7.3-.7.5-1.5.5-2.2v-1.4c0-.6-.3-1.2-.9-1.5-.4-.1-.7,0-1,.2-.2.2-.3.4-.5.6-.2.4-.4.9-.5,1.3-.2.8-.1,1.6.1,2.3.4,1.3,1.1,1.8,1.1,1.8-.3-.6-.5-1.2-.6-1.9s-.1-1.4.1-2.1c.1-.4.3-.8.5-1.1.2-.4.5-.7.6-.6.1.1.4.5.4.9.1.4.1.8.1,1.2,0,.7-.1,1.4-.4,2.1-.4,1.4-.8,2-.7,2.1h0Z" fill="#263238"/>
    <path d="m591.1,342.4s9.1,6.3,13.2,13.1c4.1,6.8,4.9,17.1,5.2,23.6.6,9.8-1.5,27.9.8,37.4,2.2,9.6,12.8,28.7,15.8,50.3,3,21.6,1.1,62.8,1.1,62.8,0,0-33.4,13.2-48.5-1.5-17.7-17.2-37.6-11.5-37.6-11.5,0,0,17.6-47,21.4-57.2s2.8-46,2.8-46c0,0-13.5-17.9-9.5-28.1,4.1-10.5,12.5-32.4,12.5-32.4l22.8-10.5h0Z" fill="#dfdfdf"/>
    <path d="m661.4,441l-32.2-52.3s-15,2.9-21.7,8.1-20.1,17.1-20.1,17.1l21.6,57.3s1.3.2,7.9-1.2,44.5-29,44.5-29Z" fill="#263238"/>
    <path d="m590.4,342.4l-1.3-6s-24.5,9.8-23.9,11.1c.6,1.4,2.1,6.5,2.1,6.5l23.1-11.6h0Z" fill="#dfdfdf"/>
    <path d="m622.7,389.9c-3.9-9.8-8.9-19.1-14.9-27.7-6.5-9-15-15.9-20.4-14,0,0,4.8.8,10.2,7.8,6.8,9,16.4,37.1,16.4,37.1l8.7-3.2h0Z" fill="#263238"/>
    <path d="m579.9,353.6l-7.8,56.5-33.4-3.9-3.2,14.3s49.7,29.1,58.1,5.2c8.8-24.9,7.2-55.6,7.2-55.6,0,0-4.1-23.5-20.9-16.5h0Z" fill="#dfdfdf"/>
    <path d="m557.6,431c.1,0,.2,0,.2.1l.7.2,2.6.9c3.2,1.1,6.5,1.9,9.8,2.6,2.3.4,4.6.6,6.9.5,2.7-.1,5.3-.7,7.7-1.7,2.7-1.1,5.1-3,6.8-5.4,1.7-2.6,2.9-5.6,3.5-8.7,2.1-11,3.6-22,4.4-33.1.3-4.3.5-7.7.7-10.1.1-1.2.1-2.1.1-2.8v-.9,3.7c-.1,2.4-.2,5.9-.5,10.1-.7,11.2-2.2,22.2-4.3,33.2-.6,3.2-1.8,6.2-3.6,8.9-1.8,2.5-4.2,4.4-7,5.5-2.5,1-5.2,1.6-7.9,1.7-2.3,0-4.7-.1-7-.6-3.3-.7-6.6-1.6-9.8-2.8-1.1-.4-2-.7-2.6-1l-.7-.3q.07,0,0,0h0Z" fill="#263238"/>
    <path d="m577.3,372.5v.7c-.1.5-.1,1.2-.2,2.1-.2,1.9-.6,4.4-1,7.6-.9,6.5-2.1,15.3-3.4,25.1-.1.7-.2,1.4-.3,2.1v.3h-.2l-23.7-2.8-7.1-.9-1.9-.3c-.2,0-.4-.1-.7-.1h.7l1.9.2,7.1.7,23.7,2.6-.3.2c.1-.7.2-1.4.3-2.1,1.4-9.8,2.6-18.6,3.5-25,.5-3.2.9-5.7,1.1-7.6.1-.9.2-1.5.3-2.1.1-.2.1-.5.2-.7h0Z" fill="#263238"/>
    <path d="m571.7,409.6c0-.1.5,0,1.2.4,1.8,1,3,2.7,3.3,4.7.1.8,0,1.2,0,1.2-.3-1.3-.8-2.5-1.5-3.7-.9-1-1.9-1.9-3-2.6Z" fill="#263238"/>
    <path d="m576.3,363.7c-.1-.3-.1-.6,0-.9.1-.6.2-1.4.4-2.4.4-2.7,1.4-5.3,2.8-7.6,1.5-2.3,3.9-4,6.7-4.5.8-.2,1.7-.2,2.5,0,.3,0,.6.1.8.3-1.1-.2-2.2-.2-3.3,0-2.6.6-4.8,2.2-6.3,4.4-1.4,2.3-2.4,4.8-2.9,7.4-.2,1.1-.4,2.3-.7,3.3h0Z" fill="#263238"/>
    <path d="m580,352.1c-1.7,1.5-5.3,8.7-6.2,16.4-.6,5.9.6,11.9,1.6,17.7.2-2.9,1.5-11,1.5-11,0,0-.3-4-.3-7.7,0-2.4.4-4.8,1.1-7.1l2.3-8.3h0Z" fill="#263238"/>
    <path d="m601,378c.2-.8.6-1.5,1-2.2.3-.8.7-1.5,1.2-2.1,0,.8-.3,1.7-.8,2.4-.6,1.1-1.3,2-1.4,1.9h0Z" fill="#263238"/>
    <path d="m567.3,353.1c1.2.1,2.5,0,3.7-.5,2.2-.8,4.6-3,7.6-4.9,2.5-1.7,5.2-3.2,7.9-4.6,1-.5,1.9-.9,2.5-1.1.3-.2.7-.3,1-.3,0,.1-1.3.7-3.3,1.8s-4.8,2.7-7.8,4.6c-1.5,1-2.8,2-4.1,2.9-1.1.8-2.3,1.5-3.7,2-.9.3-1.8.4-2.8.4-.3,0-.7-.1-1-.3h0Z" fill="#263238"/>
    <path d="m580.4,523.7c1.4-1.8,2.7-3.8,3.7-5.8.3-.5.5-1,.7-1.5s.4-1.1.7-1.7c.3-1.2.8-2.5,1.1-3.9.7-3,1.1-6,1.3-9.1.4-5.6.2-11.2-.4-16.7-.2-2.1-.5-3.8-.7-5-.1-.5-.1-1-.2-1.4v-.5c.1.1.1.3.1.5.1.4.2.8.3,1.4.2,1.2.5,2.9.8,5,.8,5.6.9,11.2.6,16.8-.2,3.1-.6,6.1-1.3,9.2-.3,1.4-.8,2.7-1.1,3.9-.2.6-.5,1.2-.7,1.7s-.4,1-.7,1.5c-.4.9-.9,1.7-1.5,2.5-.4.6-.8,1.2-1.3,1.8l-.9,1c-.3.1-.4.2-.5.3h0Z" fill="#263238"/>
  </g>
  <g id="freepik--Device--inject-32">
    <path d="m410.6,660l-144.2-.7c-17.4-.1-31.4-14.2-31.3-31.6l1.5-361.6c.1-17.4,14.2-31.4,31.6-31.3h0l144.2.6c17.4.1,31.4,14.2,31.3,31.6l-1.5,361.7c-.1,17.4-14.2,31.4-31.6,31.3h0Z" fill="#263238"/>
    <path d="m412.1,247.8l-28-.1c-3.8.1-6.9,3.2-6.8,7.1h0v5.1c0,3.8-3,7-6.8,7.1l-54.5-.2c-3.8-.1-6.9-3.3-6.8-7.2v-5c.1-3.8-2.9-7-6.8-7.1h-9.8l-24.4-.2c-12.2-.1-22,9.7-22.1,21.9h0l-1.5,353c-.1,12.2,9.7,22,21.9,22.1h0l144,.7c12.2.1,22-9.7,22.1-21.9h0l1.5-353c.1-12.3-9.7-22.2-22-22.3q.07,0,0,0h0Z" fill="#fff"/>
    <path d="m434.2,309.4v-39.5c.1-12.1-9.7-22-21.9-22.1h-.1l-28-.1c-3.8.1-6.9,3.2-6.8,7.1h0v5.1c0,3.8-3,7-6.8,7.1l-54.5-.2c-3.8-.1-6.9-3.3-6.8-7.2v-5c.1-3.8-2.9-7-6.8-7.1h-9.8l-24.4-.2c-12.2-.1-22,9.7-22.1,21.9h0l-.2,40.3" fill="#ff7200"/>
    <path d="m418.7,286.7c0,.6-.4,1-1,1s-1-.4-1-1,.4-1,1-1,1,.4,1,1Z" fill="#263238"/>
    <path d="m418.7,290.4c0,.6-.4,1-1,1s-1-.4-1-1,.4-1,1-1,1,.5,1,1Z" fill="#263238"/>
    <path d="m418.6,294.1c0,.6-.5,1-1,1s-1-.5-1-1c0-.6.5-1,1-1s1,.5,1,1Z" fill="#263238"/>
    <path d="m395.6,303.5h-109.3c-7.4,0-13.4-5.3-13.4-11.8v-.5c0-6.5,6-11.8,13.4-11.8h109.3c7.4,0,13.4,5.3,13.4,11.8v.5c0,6.5-6,11.8-13.4,11.8h0Z" fill="#f4a569"/>
    <path d="m261.8,294.1c-.1,0-.3-.1-.4-.1l-3.3-3.4c-.1-.1-.1-.2-.1-.4,0-.1.1-.3.2-.4l3.3-2.9c.2-.2.5-.2.7.1.2.2.2.5,0,.7h0l-3.1,2.6,3,3c.2.2.2.5,0,.7h0c-.1,0-.2.1-.3.1h0Z" fill="#263238"/>
    <g>
      <path d="m411.4,387.8h-141c-5.6,0-10.1-4.5-10.1-10.1v-46c0-5.6,4.5-10.1,10.1-10.1h141c5.6,0,10.1,4.5,10.1,10.1v46c0,5.5-4.5,10.1-10.1,10.1Z" fill="#ebebeb"/>
      <path d="m409.3,337.6c0,.1-31.3.3-70,.3s-70-.1-70-.3c0-.1,31.3-.3,70-.3s70,.1,70,.3Z" fill="#263238"/>
      <path d="m409.3,345.7c0,.1-31.3.3-70,.3s-70-.1-70-.3c0-.1,31.3-.3,70-.3s70,.2,70,.3Z" fill="#263238"/>
      <path d="m409.3,353.9c0,.1-31.3.3-70,.3s-70-.1-70-.3,31.3-.3,70-.3,70,.1,70,.3Z" fill="#263238"/>
      <path d="m409.3,362c0,.1-31.3.3-70,.3s-70-.1-70-.3,31.3-.3,70-.3,70,.2,70,.3Z" fill="#263238"/>
      <path d="m339.5,370.2c-.9.1-1.8.1-2.8.1l-7.5.1c-6.4,0-15.1.1-24.8.1s-18.5,0-24.8-.1l-7.5-.1c-.9,0-1.9,0-2.8-.1.9-.1,1.8-.1,2.8-.1l7.5-.1c6.4,0,15.1-.1,24.8-.1s18.5,0,24.8.1l7.5.1c1,0,1.9,0,2.8.1Z" fill="#263238"/>
    </g>
    <g>
      <path d="m409.8,463.1h-141c-5.6,0-10.1-4.5-10.1-10.1v-46c0-5.6,4.5-10.1,10.1-10.1h141c5.6,0,10.1,4.5,10.1,10.1v46c0,5.6-4.5,10.1-10.1,10.1Z" fill="#ebebeb"/>
      <path d="m407.7,412.9c0,.1-31.3.3-70,.3s-70-.1-70-.3c0-.1,31.3-.3,70-.3s70,.2,70,.3Z" fill="#263238"/>
      <path d="m407.7,421.1c0,.1-31.3.3-70,.3s-70-.1-70-.3c0-.1,31.3-.3,70-.3s70,.1,70,.3Z" fill="#263238"/>
      <path d="m407.7,429.2c0,.1-31.3.3-70,.3s-70-.1-70-.3,31.3-.3,70-.3,70,.2,70,.3Z" fill="#263238"/>
      <path d="m407.7,437.4c0,.1-31.3.3-70,.3s-70-.1-70-.3,31.3-.3,70-.3,70,.1,70,.3Z" fill="#263238"/>
      <path d="m338,445.6c-.9.1-1.8.1-2.8.1l-7.5.1c-6.4,0-15.1.1-24.8.1s-18.5,0-24.8-.1l-7.5-.1c-.9,0-1.9,0-2.8-.1.9-.1,1.8-.1,2.8-.1l7.5-.1c6.4,0,15.1-.1,24.8-.1s18.5,0,24.8.1l7.5.1c.9-.1,1.8,0,2.8.1Z" fill="#263238"/>
    </g>
    <g>
      <path d="m410,540.1h-141c-5.6,0-10.1-4.5-10.1-10.1v-46c0-5.6,4.5-10.1,10.1-10.1h141c5.6,0,10.1,4.5,10.1,10.1v46c.1,5.6-4.5,10.1-10.1,10.1Z" fill="#ebebeb"/>
      <path d="m407.9,489.9c0,.1-31.3.3-70,.3s-70-.1-70-.3c0-.1,31.3-.3,70-.3s70,.2,70,.3Z" fill="#263238"/>
      <path d="m407.9,498.1c0,.1-31.3.3-70,.3s-70-.1-70-.3,31.3-.3,70-.3,70,.1,70,.3Z" fill="#263238"/>
      <path d="m407.9,506.2c0,.2-31.3.3-70,.3s-70-.1-70-.3c0-.1,31.3-.3,70-.3s70,.2,70,.3Z" fill="#263238"/>
      <path d="m407.9,514.4c0,.1-31.3.3-70,.3s-70-.1-70-.3,31.3-.3,70-.3,70,.2,70,.3Z" fill="#263238"/>
      <path d="m338.2,522.6c-.9.1-1.8.1-2.8.1l-7.5.1c-6.4,0-15.1.1-24.8.1s-18.5,0-24.8-.1l-7.5-.1c-.9,0-1.9,0-2.8-.1.9-.1,1.8-.1,2.8-.1l7.5-.1c6.4,0,15.1-.1,24.8-.1s18.5,0,24.8.1l7.5.1c1-.1,1.9,0,2.8.1Z" fill="#263238"/>
    </g>
    <g>
      <path d="m408.2,616.3h-141c-5.6,0-10.1-4.5-10.1-10.1v-46c0-5.6,4.5-10.1,10.1-10.1h141c5.6,0,10.1,4.5,10.1,10.1v46c.1,5.6-4.5,10.1-10.1,10.1Z" fill="#ebebeb"/>
      <path d="m406.2,566.1c0,.1-31.3.3-70,.3s-70-.1-70-.3c0-.1,31.3-.3,70-.3s70,.2,70,.3Z" fill="#263238"/>
      <path d="m406.2,574.3c0,.1-31.3.3-70,.3s-70-.1-70-.3,31.3-.3,70-.3,70,.1,70,.3Z" fill="#263238"/>
      <path d="m406.2,582.4c0,.2-31.3.3-70,.3s-70-.1-70-.3c0-.1,31.3-.3,70-.3s70,.2,70,.3Z" fill="#263238"/>
      <path d="m406.2,590.6c0,.1-31.3.3-70,.3s-70-.1-70-.3,31.3-.3,70-.3,70,.1,70,.3Z" fill="#263238"/>
      <path d="m336.4,598.8c-.9.1-1.8.1-2.8.1l-7.5.1c-6.4,0-15.1.1-24.8.1s-18.5,0-24.8-.1l-7.5-.1c-.9,0-1.9,0-2.8-.1.9-.1,1.8-.1,2.8-.1l7.5-.1c6.4,0,15.1-.1,24.8-.1s18.5,0,24.8.1l7.5.1c1-.1,1.9,0,2.8.1Z" fill="#263238"/>
    </g>
  </g>
  <g id="freepik--character-2--inject-32">
    <path d="m542.1,572.1l-81.5,38.3,18.3-85.4h31.3c3.6,0,16.4,4.3,19.5,12.6,0-.1,13.7,32.7,12.4,34.5" fill="#dfdfdf"/>
    <path d="m538.9,560.6l22.1,84.5-15.7,4.3s-30.1-64.9-29.6-66,23.2-22.8,23.2-22.8Z" fill="#dfdfdf"/>
    <g opacity=".2">
      <path d="m521.5,556c3,0,5.6,2,7.2,4.5,1.4,2.6,2.4,5.4,2.7,8.4.9,5.4,1.4,11,1.5,16.5,0,2.9,0,6.1,1.5,8.6s4.5,3.9,7,5.5c6.9,4.7,11,12.5,10.9,20.9-.2,8.2-5.5,13.6-12.4,17.8l-11-35-8.9-39.7,1.5-7.5Z"/>
    </g>
    <path d="m524.2,543c-.3,2.9-.8,5.8-1.5,8.7-.5,2.9-1.2,5.8-2,8.6.3-2.9.8-5.8,1.5-8.7.5-2.9,1.2-5.8,2-8.6Z" fill="#263238"/>
    <path d="m510,526c.1.3.1.5,0,.8,0,.7-.1,1.4-.3,2.1-1.3,4.8-5.6,8.2-10.6,8.2-.7,0-1.5-.1-2.2-.2-.3,0-.5-.1-.8-.2,0-.1,1.1.2,2.9.1,4.8-.2,8.9-3.4,10.2-8,.7-1.7.7-2.9.8-2.8h0Z" fill="#263238"/>
    <path d="m504.5,547.1c.3-1,.7-2,1.3-2.8.4-.9,1-1.8,1.8-2.6-.3,1-.7,1.9-1.3,2.8-.5.9-1.1,1.8-1.8,2.6Z" fill="#fafafa"/>
    <path d="m517.2,552.1c-.8-.9-1.4-1.9-1.8-3-.5-1.1-.8-2.2-.9-3.4.5,1,1,2.1,1.4,3.2.5,1,1,2.1,1.3,3.2Z" fill="#fafafa"/>
    <path d="m520.4,537.9c-1.1,0-2.2-.3-3.1-.8-1-.3-2-.9-2.8-1.7,1,.3,2,.7,3,1.2,1.1.3,2,.8,2.9,1.3h0Z" fill="#fafafa"/>
    <path d="m530.7,559.1c.7-1.8,1.5-3.7,2.1-5.6,0,2.1-.8,4-2.1,5.6Z" fill="#fafafa"/>
    <path d="m540.5,596.7c-.9-.3-1.8-.8-2.6-1.5-.9-.5-1.6-1.1-2.3-1.9,1.9.8,3.5,2,4.9,3.4h0Z" fill="#fafafa"/>
    <path d="m548.4,639.9c.8-2.3,1.8-4.5,2.9-6.6-.4,2.4-1.4,4.6-2.9,6.6Z" fill="#fafafa"/>
    <path d="m489.1,497.2c-2.1-6.7-1.1-18,3.5-23.6,4.7-5.6,12.7-8.7,19.9-9.6,1.2-.2,2.4-.1,3.5.4s1.6,1.8,1.2,3c1.5-.8,3-1.4,4.7-1.7,1.7-.3,3.4.3,4.6,1.5,1.1,1.3,1,3.3-.3,4.4h0c2.9-.8,5.9,1,6.6,3.9.3,1.3.2,2.8-.5,4-1.2,1.9-2.7,3.5-4.4,4.9-1.6,1.2-2,2.6-1.9,4.6" fill="#263238"/>
    <path d="m526.5,489.4c1.2-9.7-5.3-18.7-14.9-20.7l-1-.2c-10.4-1.5-17.5,6.5-18.7,16.9l-5.2,38.2c-.9,6.4,3.5,12.2,9.9,13.2h0c6.4,1,12.5-3.4,13.5-9.9,0-.1,0-.2.1-.4.3-2.3.5-4,.5-4.1s10.2.5,12.3-9.4c1-4.6,2.4-14.6,3.5-23.6h0Z" fill="#eb996e"/>
    <path d="m510.6,522.5c-4.6-1-8.7-3.2-12.1-6.4,0,0,1.7,7.7,11.8,8.9l.3-2.5h0Z" fill="#d16f43"/>
    <path d="m522.2,495.4c-.1.8-.9,1.3-1.7,1.2s-1.3-.8-1.2-1.5h0c.2-.8.9-1.3,1.7-1.2.8,0,1.3.7,1.2,1.5h0Z" fill="#263238"/>
    <path d="m523.3,493.8c-.2.2-1.1-.9-2.6-1.2s-2.8.2-2.9,0c-.1-.2.2-.4.7-.7.7-.3,1.6-.4,2.4-.2.8.2,1.5.6,2,1.2.5.5.5.8.4.9h0Z" fill="#263238"/>
    <path d="m507.2,492.9c-.1.8-.9,1.3-1.7,1.1-.8-.1-1.3-.8-1.2-1.5h0c.1-.8.9-1.3,1.7-1.1.8,0,1.3.7,1.2,1.5,0-.1,0,0,0,0Z" fill="#263238"/>
    <path d="m508.4,491c-.2.1-1.1-.9-2.6-1.2s-2.8.2-2.9,0,.2-.4.7-.6c.8-.3,1.6-.4,2.4-.2.8.2,1.5.6,2,1.2.4.4.5.8.4.8h0Z" fill="#263238"/>
    <path d="m511.6,503.4c.9-.1,1.7-.1,2.6.1.4,0,.8,0,.9-.2.1-.4.1-.8,0-1.2-.2-1-.4-2.1-.5-3.2-.7-4.5-1.2-8.2-1-8.2s.9,3.6,1.7,8.1c.2,1.1.3,2.2.5,3.2.1.5.1,1.1-.1,1.6-.2.2-.4.4-.8.4h-.7c-1-.1-1.8-.3-2.6-.6h0Z" fill="#263238"/>
    <path d="m506.9,503.5c.2,0-.1,1.7,1.1,3.1,1.2,1.5,3,1.6,2.9,1.9s-.5.2-1.2.1c-1-.2-1.8-.7-2.5-1.5-.6-.7-.9-1.7-.8-2.6.1-.6.4-1,.5-1Z" fill="#263238"/>
    <path d="m510,485.2c-.2.4-1.7-.1-3.5-.3s-3.4,0-3.5-.4c-.1-.2.3-.5.9-.8.9-.3,1.8-.5,2.8-.4.9.1,1.8.4,2.6.9.5.4.8.8.7,1h0Z" fill="#263238"/>
    <path d="m523.7,489.3c-.3.3-1.3-.3-2.6-.5-1.3-.3-2.4-.2-2.5-.7-.1-.2.2-.5.7-.7,1.4-.5,3.1-.1,4.1,1,.4.4.4.7.3.9h0Z" fill="#263238"/>
    <path d="m491.2,492.9c-.2-.1-6.4-3.4-7.5,3.4s5.9,6.6,5.9,6.4,1.6-9.8,1.6-9.8Z" fill="#eb996e"/>
    <path d="m488,499.8s-.1.1-.4.1c-.3.1-.6,0-.9-.1-.8-.7-1.1-1.8-.9-2.9.1-.6.3-1.1.6-1.6.2-.4.6-.7,1-.8.3,0,.6.2.6.5.1.2,0,.3,0,.3,0,0,.2-.1.2-.4,0-.2-.1-.3-.2-.5-.2-.2-.4-.3-.6-.3-.6,0-1.1.3-1.4.8-.4.5-.6,1.2-.7,1.8-.2,1.4.3,2.8,1.2,3.2.4.2.8.2,1.1,0,.4,0,.4-.1.4-.1h0Z" fill="#d16f43"/>
    <path d="m533,477.3c-.7,9-12.2,10.8-16.1,5-1.8-2.7-3.2-5.8-6-7.4-2-1-4.2-1.1-6.3-.4h-.1c-3,1-5.3,3.9-6.2,7-1.4,4.2-1.3,8.2-3.2,12-.2.6-.6,1.1-1.1,1.4-.9.5-2-.3-2.6-1.1-.8-1.5-1.1-3.1-.9-4.8,0-3.8.8-7.5,2.3-10.9,1.5-3.5,4-6.4,7.1-8.5,4.1-2.5,8.9-3.2,13.5-2.2,4.6,1.1,8.7,3.6,11.8,7.2,1.5,1.6,2.6,3.5,3.2,5.6" fill="#263238"/>
    <path d="m526.7,471.2c.3,0,.6.1.9.2.8.4,1.5.9,2,1.6.8,1.1,1.2,2.4,1.1,3.7-.1,1.6-.9,3.1-2.1,4.2-1.2,1.1-2.6,1.9-4.2,2.2-1.3.3-2.6.3-3.8.2-.9-.1-1.7-.3-2.5-.5-.3-.1-.6-.2-.9-.3,0-.1,1.3.3,3.5.5,1.2.1,2.5,0,3.7-.3,1.5-.3,2.8-1.1,3.9-2.1,1.1-1,1.8-2.4,2-3.9.1-1.2-.2-2.4-.9-3.5-.5-.7-1.1-1.3-1.8-1.7-.4,0-.7-.1-.9-.3h0Z" fill="#455a64"/>
    <path d="m522.6,467.3s.3,0,.6.2c.5.4.8,1,.8,1.6,0,.9-.4,1.8-1,2.5-.7.9-1.4,1.6-2.3,2.3-1.6,1.2-3.4,2-5.4,2.2-.8.2-1.6.2-2.4,0,0-.1.9-.1,2.4-.4,1.9-.4,3.6-1.2,5.1-2.3.8-.6,1.6-1.3,2.2-2.1.6-.6.9-1.4,1-2.2,0-.5-.2-1.1-.6-1.5-.1-.2-.4-.2-.4-.3h0Z" fill="#455a64"/>
    <path d="m478.3,621c1,.1,49.1-16.1,49.1-16.1,0,0,21.8-4.8,24.3,9.2s-20,30.6-20,30.6l-39.9,20.1-20.7-16.2,3-12.3,4.2-15.3h0Z" fill="#eb996e"/>
    <path d="m496,638.9l-26.8,16.3c-1.6,1-2.2,3-1.3,4.7l17.5,29.4s3.1,2.5-1.5-19.4l23.3-12.9-11.2-18.1Z" fill="#ebebeb"/>
    <path d="m509.1,629.4c-2,1.8-4.1,3.5-6.3,5-2.1,1.7-4.3,3.2-6.6,4.6,2-1.8,4.1-3.5,6.3-5,2-1.7,4.3-3.3,6.6-4.6Z" fill="#d16f43"/>
    <path d="m483.5,643.8c6.9-12.9,13.4-29.7,19.7-48.6l6.6,36.6,3.8,21,17.4-2.3-3.2-77.9s-3.9-16-17.8-17c-12-.8-22.6,6.2-30.1,22.3-4.6,9.9-10,19.4-16.1,28.4l19.7,37.5h0Z" fill="#eb996e"/>
    <path d="m426.8,652.7c11.7,8,26.7,9.5,39.8,4.1l17-11.4s-1.6-19.8-7.2-28.2l-4.9,1.2,3.3-4.1-8.2-12.2-21.6,21.3-18.2,29.3h0Z" fill="#455a64"/>
    <path d="m501.5,600.4c0,.2-.1.3-.1.5l-.5,1.3c-.4,1.2-1,2.7-1.7,4.6-1.4,3.9-3.2,9.4-5.4,15.4-1.8,5.1-4,10.2-6.5,15-.5.9-1,1.8-1.4,2.5s-.8,1.3-1.1,1.8c-.3.5-.6.8-.8,1.1-.1.1-.2.3-.3.4l.2-.4.7-1.1c.3-.5.7-1.1,1.1-1.8s.9-1.5,1.3-2.5c2.4-4.9,4.5-9.9,6.3-15,2.2-6,4.1-11.4,5.6-15.3.8-2,1.4-3.5,1.8-4.6l.5-1.2c.1-.4.2-.6.3-.7Z" fill="#d16f43"/>
    <path d="m504.2,600.5c.2.4.3.7.3,1.1.2.7.4,1.8.7,3.1.5,2.7,1.3,6.3,2,10.4s1.3,7.8,1.7,10.5c.2,1.3.3,2.4.4,3.2.1.4.1.8.1,1.2-.1-.4-.2-.8-.3-1.2-.1-.8-.3-1.9-.5-3.2-.5-2.8-1.1-6.4-1.8-10.4s-1.3-7.6-1.8-10.4c-.2-1.2-.4-2.3-.5-3.2-.2-.3-.3-.7-.3-1.1h0Z" fill="#d16f43"/>
    <path d="m529.1,626.8c-.1,0-.3-7.5-.4-16.8s-.1-16.8.1-16.8.3,7.5.4,16.8.1,16.8-.1,16.8Z" fill="#d16f43"/>
    <path d="m508.4,630.4l5.4,30c.4,2.4,2.6,4,5,3.6l34.2-4.5s2-3.2-20.1-6.8l-2.9-26.2-21.6,3.9Z" fill="#e0e0e0"/>
    <g opacity=".2">
      <path d="m512.5,571.6c-5.1-.4-10.5,5.7-10.6,11.1,0,.6,0,1.2.2,1.7.2.6.7,1,1.3,1.1.9.1,1.8-.4,2.1-1.3.3-.8.5-1.6.5-2.4-.2-5.6,2.5-9,6.4-10.4"/>
    </g>
    <path d="m547.2,648.9l3.7,10.6h29.6s-1.6-2.5-7.7-3.1l-11.1-1-2.7-9.7-11.8,3.2Z" fill="#eb996e"/>
    <path d="m487.2,520.9s-19.6,3.5-26.8,12.9c-5.7,7.5-27.3,49.2-36,66.1-2.7,5.2-4.5,10.9-5.3,16.7-1.7,12.5-2.7,33.1,8.1,36.1,0,0,12.3-6.3,18.2-18.8.9-1.9,1.9-3.7,3-5.5l8.2-12.3s9.2-10.2,13.6-18.6l8-15.2,2-4.5,6.4-52.3.6-4.6h0Z" fill="#dfdfdf"/>
    <path d="m474.1,563c-3.2-.2-6-2.1-7.4-5,1,1.1,2.1,2.2,3.3,3.1,1.3.7,2.6,1.3,4.1,1.9Z" fill="#263238"/>
    <path d="m443.7,597c.5-.1,1-.1,1.4-.1.5,0,1,0,1.7-.1s1.4-.1,2.2-.3c1.9-.3,3.8-.6,5.7-1.1,4.6-1.2,9-3.2,13-5.8,1.6-1.1,3.2-2.2,4.7-3.5.6-.5,1.2-1,1.7-1.5s.9-.8,1.2-1.2c.3-.4.7-.7,1.1-1-.3.4-.6.8-.9,1.1-.4.4-.8.9-1.2,1.2-.5.5-1,1-1.6,1.6-1.5,1.3-3,2.5-4.6,3.6-4,2.7-8.4,4.7-13.1,5.9-1.9.5-3.8.8-5.8,1.1-.8.1-1.6.1-2.3.2h-1.7c-.5-.1-1-.1-1.5-.1h0Z" fill="#263238"/>
    <path d="m429.6,626.5c.1-.4.2-.9.4-1.3.5-1.1,1-2.2,1.7-3.2,4.4-6.9,12.2-10.9,20.4-10.3,1.2.1,2.4.3,3.6.5.4.1.9.2,1.3.4-1.6-.3-3.2-.5-4.9-.6-8-.3-15.6,3.5-20.1,10.1-.9,1.5-1.7,2.9-2.4,4.4h0Z" fill="#263238"/>
    <path d="m460.1,609.7c0,.2-3.1.3-7,.7s-7,.7-7,.5c.6-.2,1.3-.4,2-.5,1.2-.2,3-.4,4.9-.6s3.7-.2,5-.2c.7-.1,1.4-.1,2.1.1Z" fill="#263238"/>
    <g opacity=".2">
      <path d="m456.3,616.1c.2.1.9-2.3.7-3.5-3.9-1.6-6.1-.4-8.9-.8-.4,0-3.9,1.4-4.1,1.1-.4-.5,2.1-2,2.8-2.1,5.1-1.2,9.3-1.8,12.6-3.7,1.8-.9,3.2-2.6,3.7-4.6.5-1.6,1-3.3,1.6-4.9.3-.9.5-2.2-.4-2.6-.6-.3-1.4.1-2,.4s-1.6.4-1.9-.2c-.4-.8.6-1.5,1.5-1.8,8-3.1,13.7-10.3,14.9-18.8l-.4-6.6,3.6,10.1-10.1,19.4c-3.8,6.7-8.4,12.9-13.6,18.6h0Z"/>
    </g>
    <path d="m455.3,572.5c-.4-2-.6-4.1-.7-6.1-.2-2.1-.3-4.1-.2-6.2.4,2,.6,4.1.7,6.1.3,2.1.3,4.1.2,6.2Z" fill="#fafafa"/>
    <path d="m467.8,578.1c-1.4,2.5-3.1,4.8-5,6.8.6-1.3,1.4-2.5,2.3-3.6.7-1.2,1.6-2.2,2.7-3.2Z" fill="#fafafa"/>
    <path d="m450,595.3c-.5-.6-.9-1.4-1.1-2.2-.3-.7-.5-1.5-.6-2.3.5.6.9,1.4,1,2.2.5.7.7,1.5.7,2.3Z" fill="#fafafa"/>
    <path d="m439.4,604.8c-.6,1-1.2,2-1.8,3-.5,1.1-1.1,2.1-1.7,3.1.4-2.4,1.7-4.6,3.5-6.1h0Z" fill="#fafafa"/>
    <path d="m436.7,596.7c-1.1-2.5-1.8-5-2.2-7.7.6,1.2,1.1,2.5,1.4,3.8.4,1.2.7,2.6.8,3.9h0Z" fill="#fafafa"/>
    <path d="m451.4,578.1c-2.4.7-4.9.8-7.4.4,1.2-.2,2.4-.3,3.7-.2,1.3-.3,2.5-.3,3.7-.2h0Z" fill="#fafafa"/>
    <path d="m469.9,568.9c0-1.6.1-3.1.4-4.7.4,1.6.3,3.3-.4,4.7Z" fill="#fafafa"/>
    <path d="m466.8,547.6c-1,.5-2.1.8-3.2.9-1.1.2-2.3.2-3.4,0,1.1-.3,2.2-.4,3.3-.5,1.1-.2,2.2-.4,3.3-.4h0Z" fill="#fafafa"/>
    <path d="m579.8,549.1l-14.3,10.9-6.1,2.7,6.1-9.2,11.6-8.1c1-.7,2.4-.5,3.2.5h0c.8,1,.5,2.4-.5,3.2h0Z" fill="#263238"/>
    <path d="m523.2,574.6c.7,0,20.2-7.7,20.6-8.8.4-1.1.2-4,4.1-5.1,3.9-1.1,7.9-2.4,7.9-2.4l9.9-6.6s2.8.9.3,3.9c-1.4,1.6-3,3.1-4.6,4.5-.9.8.4,1.5.4,1.5l14-9.9c-.3,2.5-1.3,4.9-2.8,6.9l-1.9,2.6c.7,2,.1,4.2-1.5,5.6-2.8,2.6-7.3,9.2-12,9.4s-8.1.5-8.1.5l-24.6,12-1.7-14.1h0Z" fill="#eb996e"/>
    <path d="m571.7,560.3c-2.2,2.1-4.6,4-7.2,5.5,2.2-2.1,4.7-4,7.2-5.5Z" fill="#d16f43"/>
    <path d="m469.9,528.4s12.1-6,19.5-1.7c5.9,3.5,10.1,19.1,14.1,27.5,1,2.1,3.2,3.7,4,4.7,4,4.7,5,12.8,5,12.8l27.9-5.1,3,17.8s-27.2,20.4-42.8,15.7c-16.2-4.9-21.6-24.6-21.6-24.6l-9.1-47.1h0Z" fill="#dfdfdf"/>
    <path d="m506.1,582.4v-.2c0-.2,0-.4-.1-.7v-1.1c0-.5.1-1,.2-1.5.2-1.4.8-2.8,1.7-3.9,1.2-1.6,2.8-2.7,4.7-3.4h0l27.9-5.2h.2v.2c.9,5.5,1.9,11.5,3,17.8v.1l-.1.1c-6,4.2-12.3,7.9-18.9,11l-1.9.9c-.6.3-1.3.5-2,.8s-1.3.5-2,.8l-2,.7c-1.3.5-2.7.8-4,1.1-.7.2-1.3.3-2,.4-.7.1-1.3.2-2,.3-2.6.4-5.3.3-7.9-.1-2.5-.4-4.9-1.4-7-2.9-3.8-2.7-7.1-6.1-9.5-10.1-2.1-3.4-3.9-7.1-5.4-10.9-1.3-3.5-2.3-6.7-3.2-9.5s-1.7-5.2-2.3-7.2-1.2-3.5-1.6-4.5l-.5-1.2c-.1-.1-.1-.3-.1-.4.1.1.1.2.2.4l.5,1.1c.4,1,1,2.5,1.7,4.5s1.5,4.3,2.4,7.1,2,6,3.3,9.4c1.4,3.8,3.2,7.4,5.4,10.8,2.4,3.9,5.6,7.3,9.4,10,4,2.8,9.3,3.6,14.5,2.9.7-.1,1.3-.2,2-.3s1.3-.2,2-.4c1.3-.4,2.6-.6,3.9-1.1l2-.7c.7-.2,1.3-.5,1.9-.8s1.3-.5,1.9-.8l1.9-.9c6.6-3.1,12.9-6.8,18.8-11l-.1.2c-1-6.3-2.1-12.3-3-17.8l.3.2-27.9,5h0c-1.8.6-3.4,1.8-4.6,3.3-.9,1.1-1.5,2.4-1.7,3.8-.1.5-.2,1-.2,1.5v1.8l.2.4h0Z" fill="#263238"/>
    <path d="m512.5,571.6c-.1-.2-.1-.4-.2-.6-.1-.4-.2-1-.4-1.8-.5-2.2-1.3-4.3-2.3-6.3-1.3-2.5-3.7-5-6-8-1.2-1.6-2.3-3.3-3.1-5.1-.9-2-1.6-4-2.2-6s-1.2-4-2-6c-.8-1.8-1.7-3.5-2.8-5.2-.9-1.5-2-2.9-3.2-4.3-1-1.1-2.3-2-3.8-2.6-2.1-.8-4.3-1.1-6.6-1-1.6.1-2.4.4-2.5.3.2-.1.4-.2.6-.2.6-.2,1.2-.3,1.8-.3,2.3-.2,4.6.1,6.7.8,1.5.5,2.9,1.4,3.9,2.6,1.2,1.3,2.3,2.8,3.3,4.3,1.1,1.7,2,3.4,2.8,5.3.8,2,1.5,4,2,6.1.6,2,1.3,4,2.2,6,.8,1.8,1.8,3.5,3,5,2.3,3,4.6,5.5,6,8.1,1,2,1.7,4.2,2.2,6.4.2.8.2,1.4.3,1.8.3.3.3.5.3.7Z" fill="#263238"/>
    <path d="m470.6,536.5c-.1-1,0-2.1.3-3.1.1-1,.4-2,.8-3,.1,1,0,2.1-.3,3.1-.1,1-.4,2.1-.8,3Z" fill="#fafafa"/>
    <path d="m487.8,532.9c-1,.4-2,.6-3.1.6-1,.2-2.1.2-3.2.1,1-.4,2-.6,3.1-.6,1.1-.2,2.2-.2,3.2-.1Z" fill="#fafafa"/>
    <path d="m478.2,553.3c-.7-2.3-1.1-4.6-1.1-7,.7,2.3,1.1,4.6,1.1,7Z" fill="#fafafa"/>
    <path d="m495.4,550.6c-1.1.2-2.2.2-3.3.1-1.1,0-2.2-.1-3.3-.4,1.1-.2,2.2-.2,3.3-.1,1.1,0,2.2.1,3.3.4Z" fill="#fafafa"/>
    <path d="m485.9,568.2c.2-1.2.5-2.3,1-3.4.3-1.1.9-2.2,1.5-3.2-.5,2.3-1.4,4.5-2.5,6.6h0Z" fill="#fafafa"/>
    <path d="m502.9,567.7c-1.4-1.9-2.3-4.2-2.5-6.6.5,1.1,1,2.2,1.3,3.3.5,1,.9,2.1,1.2,3.3Z" fill="#fafafa"/>
    <path d="m495.3,580.1c-.9-.1-1.7-.3-2.5-.7-.9-.2-1.6-.6-2.3-1.2.9.1,1.7.3,2.5.7.9.2,1.6.6,2.3,1.2Z" fill="#fafafa"/>
    <path d="m500.7,593.5c-1.3-.5-2.5-1-3.8-1.7-1.3-.5-2.6-1.1-3.8-1.7,1.4.2,2.8.6,4,1.2,1.4.5,2.6,1.3,3.6,2.2h0Z" fill="#fafafa"/>
    <path d="m513.8,588.6c-1.5,2.1-3.2,3.9-5.2,5.5.7-1.1,1.5-2.1,2.4-3,.8-.9,1.7-1.8,2.8-2.5Z" fill="#fafafa"/>
    <path d="m515.2,579.9c-.7-.8-1.3-1.6-1.9-2.5-.7-.8-1.4-1.5-2-2.4,1,.4,1.8,1.1,2.4,2,.8.8,1.3,1.8,1.5,2.9Z" fill="#fafafa"/>
    <path d="m523.1,584.3c.2-1.1.6-2.3,1-3.3.2-1.1.6-2.2,1-3.3,0,2.4-.7,4.7-2,6.6h0Z" fill="#fafafa"/>
    <path d="m533.9,573.2c-1.2.2-2.4.2-3.6,0-1.2,0-2.4-.2-3.6-.5,1.2-.2,2.4-.2,3.6,0,1.2,0,2.4.2,3.6.5Z" fill="#fafafa"/>
    <path d="m534,584.8c-.9.7-1.9,1.2-3,1.6-1,.5-2.1.9-3.2,1.1,1.9-1.2,4.1-2.1,6.2-2.7h0Z" fill="#fafafa"/>
    <path d="m439.8,629.3c-.1-1.1,0-2.3.3-3.4.1-1.1.4-2.2.8-3.3.1,1.1,0,2.3-.3,3.4-.1,1.2-.4,2.3-.8,3.3Z" fill="#fafafa"/>
    <path d="m433.7,636.2c-1.2-.1-2.4-.4-3.5-.9-1.2-.3-2.3-.8-3.3-1.4,1.2.1,2.4.5,3.5.9,1.1.3,2.2.7,3.3,1.4Z" fill="#fafafa"/>
    <path d="m428.6,639.5c0,1.3-.1,2.6-.4,3.9-.1,1.3-.5,2.6-.9,3.8,0-2.6.5-5.2,1.3-7.7Z" fill="#fafafa"/>
    <path d="m428.3,613.2c-.8,1-1.6,1.9-2.5,2.8-.8,1-1.6,1.9-2.5,2.7.5-1.2,1.2-2.2,2.2-3.1.7-1,1.7-1.8,2.8-2.4Z" fill="#fafafa"/>
    <path d="m461,602.3c-1,.8-2.3,1.4-3.6,1.7-1.3.4-2.7.5-4,.3,0-.2,1.8-.2,3.8-.8,2.1-.6,3.7-1.3,3.8-1.2h0Z" fill="#fafafa"/>
  </g>
  <g id="freepik--character-1--inject-32">
    <path d="m244.6,544h-6.4l-17.5.1-57.8.1-57.8-.1-17.5-.1h-6.4,6.4l17.5-.1,57.8-.1,57.8.1,17.5.1h6.4Z" fill="#263238"/>
    <polygon points="115.4 428.6 137.5 416.7 159.3 413.7 179.4 489.9 177.5 513.4 121 516.4 123.3 461.8 115.4 428.6" fill="#ebebeb"/>
    <path d="m153.6,373.5c-10.4-6.4-23.5-6.7-34.2-.7,0,0,.7,22.4,1.8,32.1s11,10.2,11,10.2l.4,3.5c.8,6.7,6.8,11.5,13.5,10.8h0c6.5-.7,11.3-6.3,11-12.8l-1.8-42.1-1.7-1Z" fill="#b78876"/>
    <path d="m132.1,414.9c4.5-.4,8.7-2.1,12.2-4.9,0,0-2.2,7.3-12,7.4l-.2-2.5Z" fill="#aa6550"/>
    <path d="m155,384.6c.2-.1,6.4-2.7,6.9,4s-6.3,5.8-6.3,5.6-.6-9.6-.6-9.6h0Z" fill="#b78876"/>
    <path d="m157.5,391.5s.1.1.3.1c.3.1.6.1.9,0,.8-.6,1.3-1.6,1.1-2.7,0-.6-.2-1.1-.4-1.6-.2-.4-.5-.7-.9-.8-.3,0-.6.1-.7.4-.1.2,0,.3,0,.3,0,0-.2-.1-.1-.4,0-.2.1-.3.2-.4.2-.1.4-.2.6-.2.6.1,1,.4,1.3.9.3.6.5,1.2.5,1.8.2,1.2-.4,2.4-1.5,3-.4.1-.7.1-1.1-.1-.2-.1-.2-.3-.2-.3h0Z" fill="#aa6550"/>
    <path d="m124,388.7c.1.7.7,1.3,1.5,1.2.7,0,1.3-.6,1.3-1.4h0c-.1-.8-.7-1.3-1.5-1.3-.8.1-1.4.8-1.3,1.5q-.07,0,0,0h0Z" fill="#263238"/>
    <path d="m122.6,386.3c.2.2,1.2-.7,2.6-.9,1.5-.1,2.6.5,2.8.3.1-.2-.1-.4-.6-.7-.7-.4-1.4-.5-2.2-.5-.8.1-1.5.4-2.1.9-.5.4-.6.8-.5.9h0Z" fill="#263238"/>
    <path d="m138.8,387.8c.1.7.7,1.3,1.5,1.2.7,0,1.3-.6,1.3-1.3v-.1c-.1-.8-.7-1.3-1.5-1.3-.7.1-1.3.7-1.3,1.5h0Z" fill="#263238"/>
    <path d="m137.3,385c.2.2,1.2-.7,2.6-.9,1.5-.2,2.6.5,2.8.3s-.1-.4-.6-.7c-.7-.4-1.5-.5-2.3-.5-.8.1-1.5.4-2.1.9-.4.5-.5.8-.4.9h0Z" fill="#263238"/>
    <path d="m133,396.6c-.8-.2-1.6-.2-2.5-.2-.4,0-.8,0-.8-.3-.1-.4,0-.8.1-1.1.3-1,.5-2,.8-3,1.1-4.3,1.9-7.8,1.7-7.8s-1.2,3.4-2.4,7.7c-.3,1.1-.5,2.1-.8,3-.2.5-.2,1,0,1.5.1.3.4.4.7.5h.6c1-.1,1.8-.1,2.6-.3h0Z" fill="#263238"/>
    <path d="m136.3,379.2c.2.4,1.6,0,3.4.1s3.2.4,3.4,0c.1-.2-.2-.5-.8-.9-.8-.4-1.7-.6-2.6-.6s-1.8.2-2.6.6c-.6.3-.9.6-.8.8h0Z" fill="#263238"/>
    <path d="m122.7,381.9c.3.3,1.3-.1,2.5-.3,1.2-.1,2.3,0,2.5-.4.1-.2-.1-.5-.6-.8-1.3-.6-2.9-.4-4,.6-.4.4-.5.7-.4.9h0Z" fill="#263238"/>
    <path d="m114,367.2c-.3-1.2.1-2.5,1-3.3s2.3-.9,3.3-.1c-.5-1.6.3-3.3,1.9-3.8.1,0,.2,0,.2-.1,1.6-.3,3,.8,4.6,1s3.1-.2,4.5-1c1.4-.7,2.6-1.7,4-2.4,6.2-3,13.6-.5,16.6,5.7,2.2-.8,4.6-.1,6.1,1.6,1.4,1.7,2.2,4,2.1,6.2-.1,1.5-.3,3-.6,4.5,0,.1,0,.2.1.4.5,5.3.5,11.6-1.8,11.9-3.9.5-3.8-7.1-3.8-7.1-5-1.4-4-8.8-5.3-9.8s-4.1-3.3-13.8,3c-3.7,2.4-9,2.9-11.9,2.6h-.5c-.9-.1-1.9-.4-2.7-.8-1-.4-1.8-1.2-2.4-2.2-.5-1-.4-2.2.2-3.1-.9-.9-1.5-2-1.8-3.2h0Z" fill="#263238"/>
    <path d="m132.3,401.3c.3.6.6,1.1,1,1.6s1,.8,1.7.8c.7-.1,1.3-.5,1.6-1.1s.4-1.3.3-2c-.1-.6-.4-1.3-1.1-1.3-.3,0-.5.1-.7.2l-3.1,1.6" fill="#aa6550"/>
    <path d="m133.8,403.8c.6,0,1.2-.2,1.7-.4.5-.3,1-.7,1.2-1.3.2-.7.2-1.5-.2-2.1-.1-.2-.2-.3-.3-.4s-.1-.1-.2-.1c-.2.1-.3.2-.5.3l-.5.3-1.8.9c-.5.3-1.1.6-1.7.7.4-.4.9-.8,1.5-1.1.5-.3,1.1-.6,1.7-1l.5-.3c.2-.1.4-.2.6-.3.2-.1.3-.1.5,0,.1,0,.3.1.4.2.2.2.3.4.4.6.4.8.5,1.7.2,2.6-.3.7-.8,1.2-1.5,1.5-.4.2-.9.3-1.4.2-.4-.2-.6-.3-.6-.3h0Z" fill="#263238"/>
    <path d="m147,370c0-.4,0-.8-.1-1.2-.3-1-.9-1.9-1.8-2.6-1.3-.9-2.9-1.3-4.5-1-1.9.3-3.8,1-5.5,1.9-1,.4-1.9.8-2.8,1.2-.9.3-1.8.5-2.8.6-1.6.2-3.2.2-4.8-.1-1.1-.2-2.1-.6-3.1-1-.4-.1-.6-.3-.8-.4l-.3-.2s.4.2,1.1.4c1,.4,2,.7,3.1.9,2.5.4,5.1.2,7.5-.6.9-.3,1.9-.7,2.8-1.1,1.8-.9,3.7-1.5,5.6-1.9,1.6-.3,3.3.1,4.7,1.1.9.7,1.5,1.6,1.8,2.7,0,.4,0,.8-.1,1.3h0Z" fill="#455a64"/>
    <path d="m156.2,385.5s-.1-.1-.1-.2-.2-.3-.4-.6c-.4-.7-.8-1.5-1-2.3-.4-1.2-.6-2.5-.6-3.7,0-1.5.2-3.1.4-4.6s.1-3-.4-4.5c-.3-.6-.6-1.1-1.1-1.6-.4-.4-.9-.6-1.5-.8-.8-.2-1.7-.1-2.4.3-.2.2-.5.4-.7.6.2-.3.4-.5.6-.7.7-.5,1.6-.6,2.5-.4.6.1,1.1.4,1.6.8.5.5.9,1,1.2,1.7.6,1.5.7,3,.5,4.6-.2,1.5-.4,3-.4,4.6,0,1.2.2,2.5.6,3.7.2.8.6,1.6.9,2.3.2.5.4.8.3.8h0Z" fill="#455a64"/>
    <path d="m147.8,369.1v-.4c0-.3,0-.6-.1-1.1-.1-1.4-.4-2.7-.9-4-.4-.9-.9-1.6-1.6-2.3-.7-.8-1.7-1.3-2.8-1.4-1.2-.1-2.4,0-3.4.5-1.2.5-2.3,1.2-3.3,1.9-1,.8-2.1,1.5-3.2,2.1-1.1.6-2.3.9-3.5,1.1-1.1.1-2.2.1-3.3-.1-.9-.2-1.9-.4-2.7-.8-1.3-.5-2.4-1.3-3.4-2.3-.3-.3-.5-.5-.7-.9-.1-.1-.2-.2-.2-.3.1.1.2.2.3.3.2.3.5.6.8.8,1,.9,2.1,1.7,3.4,2.2.9.3,1.8.6,2.7.8,1.1.2,2.1.2,3.2,0,1.2-.2,2.3-.5,3.4-1.1,1.1-.6,2.2-1.3,3.2-2.1,1-.8,2.2-1.5,3.4-2,1.1-.5,2.4-.7,3.6-.5,1.1.2,2.1.7,2.9,1.5.7.7,1.2,1.5,1.6,2.4.5,1.3.8,2.6.8,4v1.1c-.1.2-.1.4-.2.6h0Z" fill="#455a64"/>
    <path d="m88.6,624.9l-3.1,28.1-8.9,21.5c-.6,1.5.1,3.2,1.6,3.8.07,0,.13.03.2.1h0c.9.3,1.9.2,2.6-.4,4.8-3.5,22.5-16.6,22.7-18.6.1-2.4,5.3-29.4,5.3-29.4l-20.4-5.1h0Z" fill="#dfdfdf"/>
    <g opacity=".6">
      <path d="m78.3,678.4l25.5-20.9-.2,1.2c-.1,1-.6,2-1.4,2.7-2.1,1.9-7.9,6.8-21.2,16.7-.8.5-1.8.6-2.7.3h0Z" fill="#fff"/>
    </g>
    <g opacity=".6">
      <path d="m99.3,647.6c-.8.4-1.1,1.4-.8,2.2.4.8,1.4,1.2,2.2.8.8-.5,1.2-1.5.8-2.3-.5-.8-1.5-1-2.3-.6" fill="#fff"/>
    </g>
    <path d="m86.4,667c-.2.1-.6-1.5-2.2-2.5s-3.1-.9-3.1-1,.4-.2,1-.2c.9,0,1.7.3,2.4.8.7.5,1.3,1.2,1.7,2,.2.5.2.9.2.9Z" fill="#263238"/>
    <path d="m83.9,670.5c-.2.1-.9-.9-2.3-1.5-.9-.3-1.8-.5-2.7-.7-.1-.2,1.4-.6,2.9.1,1.6.7,2.2,2,2.1,2.1h0Z" fill="#263238"/>
    <path d="m90.7,662.7c-.2.1-1.3-1.5-3.4-2.6s-4-1.3-4-1.5,2.1-.3,4.3,1c2.2,1.2,3.3,3,3.1,3.1Z" fill="#263238"/>
    <path d="m92.4,654.2c-.1.2-1.6-.7-3.6-1s-3.7-.1-3.7-.3c2.5-.9,5.3-.4,7.3,1.3h0Z" fill="#263238"/>
    <path d="m93.5,646c-.1.1-1.5-1-3.7-1.2-1.3,0-2.6.1-3.8.4,0-.1.3-.4,1-.7.9-.4,1.9-.5,2.9-.4s1.9.4,2.8,1c.6.5.9.8.8.9Z" fill="#263238"/>
    <path d="m90.1,643.3c0-.4,0-.7.1-1.1.2-1,.6-1.9,1.2-2.7.4-.6.9-1.1,1.6-1.4.5-.1,1,0,1.3.4.2.4.3.9.3,1.3-.4,1.9-2.1,3.3-4.1,3.3-1.9-.1-3.6-1.3-4.3-3.1-.2-.4-.1-1,.1-1.4.3-.4.8-.6,1.3-.4.7.2,1.3.7,1.7,1.2.7.7,1.2,1.5,1.6,2.4.2.3.3.6.3,1-.6-1.2-1.3-2.2-2.2-3.2-.4-.5-.9-.8-1.5-1-.3-.1-.5,0-.7.2-.1.3-.1.6,0,.9.6,1.5,2.1,2.6,3.8,2.6s3.1-1.1,3.5-2.7c.1-.3,0-.6-.2-.9-.2-.2-.4-.3-.7-.2-.6.2-1.1.6-1.4,1.1-.8,1.2-1.4,2.4-1.7,3.7h0Z" fill="#263238"/>
    <path d="m217.5,626l-.9,21.6s21.6,8.2,21.8,12.2l-41.9-.2v-33.7l21,.1h0Z" fill="#dfdfdf"/>
    <path d="m203.7,645.6c-.8.3-1.3,1.1-1.2,2,.2.8,1.1,1.4,1.9,1.2.9-.3,1.4-1.2,1.3-2.1-.3-.8-1.3-1.3-2.1-1" fill="#e0e0e0"/>
    <g opacity=".6">
      <path d="m196.6,659.4l.1-3.4,40.1,1.5s1.9.8,1.6,2.1l-41.8-.2h0Z" fill="#fff"/>
    </g>
    <path d="m217.3,647.3c0,.2-1,.3-2,1s-1.6,1.5-1.7,1.4c-.2-.1.1-1.3,1.4-2s2.3-.6,2.3-.4Z" fill="#263238"/>
    <path d="m221.7,649.2c.1.2-.8.5-1.5,1.4s-.9,1.8-1.1,1.8-.3-1.2.6-2.2,2-1.2,2-1Z" fill="#263238"/>
    <path d="m224.2,654.4c-.2,0-.5-1,.1-2.1.5-1.1,1.5-1.5,1.6-1.4s-.5.8-.9,1.7-.7,1.8-.8,1.8h0Z" fill="#263238"/>
    <path d="m217,642.4c-.1.2-1-.1-2.2,0s-2.1.4-2.2.2.8-.9,2.1-1c1.4-.1,2.4.6,2.3.8h0Z" fill="#263238"/>
    <path d="m217.1,638c-.7.2-1.4.2-2.1,0-.8-.1-1.5-.4-2.2-.7-.4-.2-.8-.4-1.2-.6-.2-.1-.4-.3-.6-.5-.3-.3-.3-.8-.1-1.1s.5-.5.9-.5c.3,0,.5,0,.8.1,1.2.3,2.3.9,3.2,1.7,1,.9,1.3,1.7,1.2,1.7s-.6-.6-1.5-1.3c-.6-.4-1.2-.8-1.9-1.1-.4-.2-.8-.3-1.2-.4-.4-.1-.8-.1-.9.1s0,.1,0,.2c.1.1.3.3.5.4.4.2.7.4,1.1.6.6.3,1.3.6,2,.8.6.2,1.3.4,2,.6Z" fill="#263238"/>
    <path d="m216.8,638.3c-.4-.6-.6-1.3-.5-2,0-.8.1-1.5.3-2.3.1-.4.3-.9.5-1.3.2-.6.7-1,1.4-1,.4,0,.7.2.9.6.1.2.2.5.2.8.1.5.1.9,0,1.4-.1.8-.4,1.5-.9,2.2-.8,1.1-1.7,1.3-1.7,1.2s.6-.5,1.3-1.5c.4-.6.6-1.3.7-2,.1-.4.1-.8,0-1.2-.1-.5-.2-.8-.4-.8s-.6.3-.7.7c-.2.4-.4.7-.5,1.1-.2.7-.4,1.4-.4,2.1-.3,1.2-.1,2-.2,2h0Z" fill="#263238"/>
    <path d="m82,635.8l5.7-92.1c1-14.1,3.3-20.5,14.7-26.1l4.8-3.4,50.4-4.7,3.1,33.7-39.4,8.8-10.3,88.3s-29-4.5-29-4.5Z" fill="#263238"/>
    <path d="m160.8,543.4l25.1,10.4,5.4,80.2,32.6-4-2-86.7c-.2-6.5-3.1-12.6-8-16.8l-22.7-19.5-33.5,2.7-2.4,35,5.5-1.3h0Z" fill="#263238"/>
    <path d="m122.4,540.8c-.1,3.1-.3,6.3-.7,9.4-.2,3.1-.7,6.2-1.2,9.3.1-3.1.3-6.3.7-9.4.3-3.1.7-6.2,1.2-9.3Z" fill="#455a64"/>
    <path d="m117.6,526.4l-.3.2-.8.5-3.2,1.8-11.7,6.5.1-.2c-.6,10.7-1.3,25.2-2.1,41.3-.9,16.5-1.7,31.3-2.4,42.1-.4,5.4-.7,9.7-.9,12.8-.1,1.5-.2,2.6-.3,3.5l-.1.9c0,.1,0,.2-.1.3v-1.2c0-.8.1-2,.2-3.5.2-3,.4-7.4.7-12.8.6-10.8,1.4-25.7,2.3-42.1.8-16,1.6-30.6,2.3-41.3v-.1h.1c5-2.7,9-4.8,11.8-6.4l3.2-1.7.8-.4.4-.2h0Z" fill="#455a64"/>
    <path d="m184.7,537.1c.5,2.8.8,5.7.9,8.5.3,2.8.5,5.7.4,8.5-.5-2.8-.8-5.7-.9-8.5-.3-2.8-.4-5.6-.4-8.5Z" fill="#455a64"/>
    <path d="m185.9,553.8c-.8-1.5-1.5-3.1-2-4.8-.7-1.6-1.2-3.3-1.6-5,.8,1.5,1.5,3.1,2,4.8.7,1.6,1.2,3.3,1.6,5Z" fill="#455a64"/>
    <path d="m184.1,521.8c.2.1.3.2.4.2l1.3.8,4.8,3,17.2,11,.1.1v.1c.3,9.5.6,20.9.9,33.2.4,17,.8,32.3,1,43.4.1,5.5.1,10,.2,13.1v4.8-1.2c0-.9-.1-2-.1-3.6-.1-3.1-.2-7.6-.4-13.2-.3-11.1-.7-26.5-1.1-43.4-.3-12.2-.6-23.7-.8-33.2l.1.2-17.1-11.2-4.8-3.1-1.2-.8c-.2,0-.3-.1-.5-.2h0Z" fill="#455a64"/>
    <path d="m157.6,539.7c.6.5,1.2,1.2,1.7,1.9.6.6,1.1,1.3,1.4,2.1-.1.1-.9-.7-1.8-1.8-.9-1.1-1.5-2.1-1.3-2.2h0Z" fill="#455a64"/>
    <path d="m157.6,539.7c-.4-2.4-.6-4.7-.7-7.1-.2-2.4-.3-4.8-.2-7.2.4,2.4.6,4.7.7,7.1.2,2.4.3,4.8.2,7.2Z" fill="#455a64"/>
    <path d="m123.4,547.6c0,.1-.3.3-.7.4-.4.1-.8.1-.8-.1,0-.1.3-.3.7-.4.4,0,.8,0,.8.1Z" fill="#455a64"/>
    <path d="m129.3,546.2c0,.1-.6.4-1.4.6-.8.2-1.5.2-1.5.1s.6-.4,1.4-.6c.7-.2,1.4-.2,1.5-.1Z" fill="#455a64"/>
    <path d="m135.1,544.8c0,.1-.6.4-1.4.6-.8.2-1.5.2-1.5.1s.6-.4,1.4-.6c.8-.2,1.5-.3,1.5-.1Z" fill="#455a64"/>
    <path d="m140.9,543.4c0,.1-.6.4-1.4.6-.8.2-1.5.2-1.5.1s.6-.4,1.4-.6c.8-.2,1.5-.3,1.5-.1Z" fill="#455a64"/>
    <path d="m146.8,541.9c0,.1-.6.4-1.4.6-.8.2-1.5.2-1.5.1s.6-.4,1.4-.6c.8-.1,1.4-.2,1.5-.1Z" fill="#455a64"/>
    <path d="m152.6,540.5c0,.1-.6.4-1.4.6-.8.2-1.5.2-1.5.1s.6-.4,1.4-.6c.8-.2,1.5-.2,1.5-.1Z" fill="#455a64"/>
    <path d="m157,539.4c0,.1-.3.3-.7.4-.4.1-.8.1-.8-.1s.3-.3.7-.4c.4,0,.8,0,.8.1Z" fill="#455a64"/>
    <path d="m159.4,539.8c0,.1-.4.2-.8.1-.4-.1-.7-.3-.7-.4s.4-.2.8-.1c.4.1.7.3.7.4Z" fill="#455a64"/>
    <path d="m164.9,541.5c0,.1-.7,0-1.5-.2s-1.3-.5-1.3-.7.7,0,1.5.2,1.4.5,1.3.7Z" fill="#455a64"/>
    <path d="m170.4,543.5c0,.1-.7,0-1.4-.3s-1.3-.6-1.3-.8.7,0,1.4.3c.8.3,1.3.6,1.3.8Z" fill="#455a64"/>
    <path d="m175.7,545.8c-.1.1-.7,0-1.4-.4s-1.3-.7-1.2-.8.7,0,1.4.4,1.2.6,1.2.8Z" fill="#455a64"/>
    <path d="m180.8,548.4c-.1.1-.7-.1-1.4-.4s-1.2-.8-1.2-.9.7.1,1.4.4,1.3.8,1.2.9Z" fill="#455a64"/>
    <path d="m184.7,550.6c-.1.1-.4,0-.8-.2-.4-.2-.6-.5-.5-.6s.4,0,.8.2c.3.2.5.4.5.6Z" fill="#455a64"/>
    <path d="m155.6,422.4s-6.9,31.9-1.6,45.2c5.3,13.3,25.8,40.3,25.8,40.3l15.6-.9s-5.6-82.5-7-84.1-31.6-10.5-31.6-10.5l-1.2,10Z" fill="#dfdfdf"/>
    <path d="m176.2,525.2s36.4-13.1,39.3-20.5c7.1-17.8-18.7-78.4-26.9-81.9s-13,15.7-11.6,21.2c5.2,21.2,15.5,43.1,15.5,43.1l-24.5,15.8,8.2,22.3Z" fill="#dfdfdf"/>
    <path d="m135.1,445.1c-1.6-6.4-4.2-24.8-4.2-24.8l-18.6,9.7c-3.3,2.5-10.9,11.1-10.9,20.9,0,17.7,2.5,58,5.8,63.5,4,6.7,20.9,17,20.9,17l11.9-18.4-4.9-3.9c2.9-5.8,9.4-18.9,10.2-23.2,1.1-5.7-8.9-35.6-10.2-40.8Z" fill="#dfdfdf"/>
    <path d="m176.6,449.3l.3.6c.2.5.5,1.1.8,1.9.7,1.7,1.7,4.1,2.9,7,2.4,6,5.7,14.2,9.3,23.2.9,2.3,1.8,4.5,2.6,6.7l.1.2-.2.1-17.5,10.1-5.2,2.9c-.6.3-1,.6-1.4.8-.2.1-.3.2-.5.2.1-.1.3-.2.5-.3l1.4-.8,5.1-3.1,17.4-10.2-.1.3c-.9-2.1-1.8-4.4-2.6-6.6-3.6-9.1-6.8-17.3-9.2-23.3-1.1-2.9-2.1-5.4-2.7-7.1-.3-.8-.5-1.5-.7-1.9-.2-.3-.2-.5-.3-.7h0Z" fill="#263238"/>
    <path d="m202.5,494.8c-.5-.4-.9-.9-1.3-1.4-.9-1.2-2-2.2-3.2-3.2-1.2-.9-2.6-1.4-4.1-1.5-1.1,0-1.8.2-1.9.1.6-.4,1.2-.5,1.9-.5,1.6,0,3.2.5,4.4,1.5,1.3.9,2.3,2.1,3.2,3.4.5.5.8,1,1,1.6h0Z" fill="#263238"/>
    <path d="m187.4,422.5c-1,.5-2,1-3,1.6-2.2,1.6-4,3.6-5.2,6.1-1.2,2.4-2.1,5-2.8,7.6-.2,1.1-.6,2.2-.9,3.3,0-.3,0-.6.1-.9.1-.6.2-1.4.5-2.4.5-2.7,1.4-5.3,2.7-7.8s3.1-4.6,5.5-6.1c.7-.4,1.5-.8,2.3-1.1.2-.2.5-.3.8-.3h0Z" fill="#263238"/>
    <path d="m126.3,498.4s-.1-.1-.2-.4-.2-.8-.4-1.3c-.4-1.2-.9-2.8-1.5-4.8-1.2-4-2.9-9.6-4.7-15.8s-3.4-11.8-4.5-15.8c-.5-2-1-3.6-1.3-4.8-.1-.5-.2-1-.3-1.3-.1-.2-.1-.3-.1-.5.1.1.1.3.2.4l.4,1.3,1.5,4.8c1.2,4,2.9,9.6,4.7,15.8s3.4,11.8,4.5,15.8c.5,2,1,3.6,1.3,4.8.1.5.2,1,.3,1.3.1.2.1.4.1.5Z" fill="#263238"/>
    <path d="m126.4,422.6c.1.2.1.5.1.7.1.5.1,1.2.2,2.1.2,1.9.4,4.5.8,7.6.6,6.5,1.4,15.4,2.4,25.2.2,1.7.4,3.4.5,5.1l-.1-.2,5.7,3.3.3.2-.2.2-3.3,3.3.1-.3c.6,1.3,1.2,2.5,1.9,3.7s1.4,2.1,2.1,3.1c1.4,1.9,2.8,3.4,4,4.6l2.7,2.9.7.8c.2.2.2.3.2.3-.1-.1-.2-.1-.3-.2l-.8-.7c-.7-.6-1.6-1.6-2.8-2.8-1.4-1.5-2.8-3-4.1-4.6-.8-1-1.5-2-2.2-3.1s-1.3-2.4-1.9-3.7l-.1-.1.1-.1,3.3-3.4.1.4-5.7-3.2-.1-.1v-.2c-.2-1.7-.4-3.4-.5-5.1-.9-9.8-1.7-18.8-2.2-25.2-.2-3.2-.4-5.8-.6-7.6-.1-.9-.1-1.6-.1-2.1-.2-.3-.2-.5-.2-.8h0Z" fill="#263238"/>
    <polygon points="144.2 509.3 135.1 497.1 113.3 500.4 112.8 501.8 135.8 529.7 155.5 525.9 144.2 509.3" fill="#455a64"/>
    <polygon points="143.7 510.7 134.6 498.5 112.8 501.8 135.3 531.1 154.4 527.2 155.5 525.9 143.7 510.7" fill="#455a64"/>
    <path d="m125.6,505.7c.5.3,1.2.1,1.5-.4s.1-1.2-.4-1.5-1.2-.1-1.5.4h0c-.3.5-.2,1.2.4,1.5Z" fill="#ebebeb"/>
    <path d="m169,506l-8.2,2.2c-2.7-2.5-6.4-3.6-10-3.1l-3,.5-1.7,2.6s-14.6,2.8-14.9,4.7l.1.6v.3l12.7-1s-10.7,1.6-11.4,1.7-3,.3-2.8,1.5c.2,1,1.5,1.7,3.4,1.6.8,0,10.2-.6,10.2-.6l-10.2,1.4c-1.1.2-.7,2,0,2.1s14.2,2,14.2,2c-1.1,1-2.4,1.6-3.8,1.9-1.8.1-5.2-1.7-5.7-.5s-.2,1.8.2,2c2.1.8,4.3,1.4,6.4,1.9,1.5.2,15.4-3.5,15.4-3.5l14.8-2.6-5.7-15.7h0Z" fill="#b78876"/>
    <path d="m116.4,506.5s-2,1.1-.4,3.9c1.5,2.5,3.4,4.8,5.7,6.6-.1,1,.4,2,1.3,2.5,0,0-1.6.7-.1,3.2-.4,1.7.7,3.3,2.3,3.7h.2s-.5,2.4,2.6,3.1c2,.3,4.1-.3,5.6-1.7,0,0-17.2-21.3-17.2-21.3Z" fill="#b78876"/>
    <path d="m122.8,516.6c2.2.2,4.5.3,6.5.8.7.1,1.3.1,1.8.5.5.5.7,1.2.3,1.8-.4.4-1,.7-1.6.6-2.3,0-4.5-.3-6.7-.8" fill="#b78876"/>
    <path d="m124.2,519.9c2.2.2,4.5.4,6.5.8.7.1,1.3.1,1.8.5.5.5.7,1.2.3,1.8-.4.4-1,.7-1.6.6-2.3,0-4.5-.3-6.7-.8" fill="#b78876"/>
    <path d="m125.9,523.3c2.1.2,4.5.4,6.5.8.7.1,1.3.1,1.8.5.5.5.7,1.2.3,1.8-.4.4-1,.7-1.6.6-2.3,0-4.5-.3-6.7-.8" fill="#b78876"/>
    <path d="m123.3,519.6c0-.1,1.6.2,3.5.4,1.9.2,3.5.3,3.5.4-1.2.1-2.4.1-3.5-.1-1.3,0-2.4-.3-3.5-.7h0Z" fill="#aa6550"/>
    <path d="m123.3,522.7c0-.1,1.8.2,4,.5,1.3.1,2.6.3,3.9.6-1.3.1-2.7,0-4-.3-1.3-.1-2.6-.4-3.9-.8Z" fill="#aa6550"/>
    <path d="m125.3,526.4c1.2,0,2.5,0,3.7.2,1.2.1,2.4.2,3.6.5-1.2,0-2.4,0-3.7-.2-1.2,0-2.4-.2-3.6-.5Z" fill="#aa6550"/>
    <path d="m121,516.4c0-.1,1.9.3,4.3.5s4.4.3,4.4.4c-.4.1-.9.1-1.3.1-2.1,0-4.1-.2-6.2-.7-.3,0-.8-.1-1.2-.3Z" fill="#b78876"/>
    <path d="m141.1,509.2c1.7-.4,3.4-.8,5.1-1,1.7-.3,3.5-.5,5.2-.6-1.7.4-3.4.8-5.1,1-1.7.2-3.4.5-5.2.6Z" fill="#aa6550"/>
    <path d="m142,508.4s-.2-.2-.6-.7l-1.5-2c-1.4-1.8-3.1-4.2-5.2-7h.1l-5,.7-12,1.8-3.6.5-1,.1h-.4l.4-.1,1-.2,3.6-.6,12-1.8,5-.7h.1c2,2.8,3.8,5.2,5.1,7.1l1.5,2.1c.3.5.5.8.5.8h0Z" fill="#263238"/>
    <g opacity=".3">
      <path d="m173.6,499.5c.5-2.4,2.1-3.8,4.4-4.8s4.8-1.8,6.1-3.9c1.7-2.6.7-6,0-9-1.5-5.9-5.1-20.6-4.8-26.6l13,33.7-18.7,10.6h0Z"/>
    </g>
    <g opacity=".3">
      <path d="m168.9,492.8c.8-.9,1.2-2.1,1.1-3.4-.1-1.2-.3-2.4-.7-3.6-1.1-4.5-1.4-9.1-1.8-13.7-.4-3.7-.8-6.8-.8-6.6l-4.8-2.5c1-.5,1.9-1.2,2.6-2,0,0-1-3.2-1.2-4.2,0,0-2.2-11-2.8-14.5l.2,15.5-4.1,6.4,6.6,2.3,4.4,24.4,1.3,1.9h0Z"/>
    </g>
    <path d="m167.9,491.2c-.1-.1-.1-.3-.2-.4-.1-.3-.3-.7-.4-1.3-.5-1.7-.9-3.4-1.1-5.1-.4-2.2-.6-4.9-.9-8-.2-1.6-.5-3.2-.9-4.8-.2-.8-.5-1.7-.8-2.5l-.8-2.6.1.1c-.4-.3-.9-.5-1.3-.6-.5-.2-1-.4-1.5-.5-1-.3-2.1-.6-3.2-.9l-.3-.1.2-.3,4.1-6.4v.1c0-.8.1-1.8.1-2.7.2-5.8-.3-11.3-.6-16.4-.3-4.5-.4-9-.1-13.4.2-3,.7-6,1.6-8.9.1-.5.3-.9.5-1.3.1-.4.3-.7.4-1,.1-.3.2-.5.4-.8-.1.3-.2.6-.3.8-.1.3-.2.6-.4,1s-.3.9-.4,1.4c-.8,2.9-1.3,5.9-1.5,8.9-.2,4.5-.1,8.9.2,13.4.3,5,.8,10.6.7,16.4,0,.9-.1,1.8-.2,2.7v.1h0c-1.4,2.2-2.8,4.4-4.1,6.4l-.1-.4c1.1.3,2.2.6,3.2,1,.5.2,1,.3,1.6.5.5.2,1,.4,1.5.8h0v.1c.3.9.6,1.8.8,2.6.3.9.6,1.7.8,2.6.4,1.6.7,3.2.9,4.8.4,3.1.5,5.8.8,8,.2,1.7.6,3.4,1,5.1.1.6.3,1,.4,1.3-.2,0-.2.2-.2.3h0Z" fill="#263238"/>
    <path d="m159.8,484.8c.1.3.1.7.1,1,0,.9-.1,1.9-.2,2.8-1.1,6.3-5.7,11.5-11.8,13.4-.9.3-1.8.5-2.8.6h-1c0-.1,1.5-.2,3.7-1,5.9-2,10.3-7,11.6-13.1.4-2.2.3-3.7.4-3.7h0Z" fill="#263238"/>
  </g>
  <g id="freepik--speech-bubble--inject-32">
    <path d="m491.5,309.2h-3.5l-1.5.2-1.7.2-1.9.5c-3.3.8-6.5,2.2-9.4,4.1-8.6,5.5-14.2,14.6-15.1,24.8-.1,1.5-.2,3-.1,4.5.1.8,0,1.5.1,2.3s.2,1.6.4,2.3c.6,3.2,1.7,6.3,3.1,9.2,1.6,3,3.6,5.8,6,8.3,2.6,2.5,5.5,4.6,8.7,6.2,3.3,1.7,6.9,2.9,10.6,3.3.9.2,1.9.2,2.8.2.9.1,1.9.1,2.8.1,1.9-.1,3.8-.3,5.7-.7,4-.9,7.9-2.5,11.3-4.8h-.3l11.6,4.6.7.3-.2-.7c-1.2-4.2-2.3-8.4-3.4-12.4l-.1.3c3.1-4.2,5.2-9,6.2-14.1.4-2.4.6-4.8.5-7.2,0-1.2-.1-2.3-.3-3.5-.1-.6-.2-1.1-.3-1.7s-.3-1.1-.4-1.6c-1.9-7.6-6.5-14.3-12.9-18.8-2.4-1.7-4.9-3-7.7-4l-1.7-.6-1.6-.4-1.5-.4c-.5-.1-1-.1-1.4-.2-.9-.1-1.7-.3-2.3-.3l-1.7-.1h-1c-.2.1-.3.1-.5.1.2.1.3.1.4.1" fill="#f5f5f5"/>
    <path d="m500.2,342.2c0,1.6,1.3,2.8,2.8,2.8,1.6,0,2.8-1.3,2.8-2.8,0-1.6-1.3-2.8-2.8-2.8h0c-1.5,0-2.8,1.2-2.8,2.8Z" fill="#263238"/>
    <circle cx="491.7" cy="342.2" r="2.8" fill="#263238"/>
    <path d="m477.6,340.8c-.8,1.3-.3,3.1,1,3.9s3.1.3,3.9-1,.3-3.1-1-3.9h0c-1.4-.8-3.1-.4-3.9,1Z" fill="#263238"/>
  </g>
</svg>