<svg width="1955" height="2218" xmlns="http://www.w3.org/2000/svg" xmlns:xlink="http://www.w3.org/1999/xlink" xml:space="preserve" overflow="hidden"><defs><clipPath id="clip0"><rect x="477" y="555" width="1955" height="2218"/></clipPath></defs><g clip-path="url(#clip0)" transform="translate(-477 -555)"><path d="M664.252 1078.34C920.325 1061.87 1076.21 1061.95 1181.04 1231.11 1285.88 1400.27 914.801 1993.21 1293.23 2093.31 1671.65 2193.41 1856.46 1886.63 2013.36 1585.36 2170.29 1284.09 2244.98 922.201 2245.25 741.63" stroke="#F4791E" stroke-width="372.737" stroke-linecap="round" stroke-linejoin="round" stroke-miterlimit="10" fill="none" fill-rule="evenodd"/><path d="M721.253 2163.63C833.738 2013.32 964.859 1987.73 1130.25 1966.63" stroke="#F4791E" stroke-width="372.737" stroke-linecap="round" stroke-linejoin="round" stroke-miterlimit="10" fill="none" fill-rule="evenodd"/><path d="M1436.38 2561.72 1399.71 2649.08 1473.05 2649.08ZM800.431 2561.72 763.759 2649.08 837.103 2649.08ZM1016.31 2493.65 1022.73 2493.65C1028.96 2493.73 1034.26 2495.17 1038.65 2497.95 1043.03 2500.73 1046.55 2504.34 1049.19 2508.77L1119.54 2623.34 1190.27 2508.4C1193.27 2503.48 1196.91 2499.79 1201.19 2497.34 1205.46 2494.88 1210.51 2493.65 1216.35 2493.65L1222.77 2493.65C1231.09 2493.84 1237.97 2496.67 1243.41 2502.11 1248.85 2507.55 1251.67 2514.44 1251.86 2522.76L1251.86 2732.99C1251.67 2741.32 1248.85 2748.21 1243.41 2753.65 1237.97 2759.09 1231.09 2761.91 1222.77 2762.11 1214.63 2761.89 1207.86 2759.02 1202.46 2753.51 1197.06 2747.99 1194.26 2741.16 1194.06 2732.99L1194.06 2601.03 1142.99 2679.68C1140 2684.27 1136.53 2687.86 1132.59 2690.46 1128.65 2693.06 1124.05 2694.38 1118.78 2694.43 1113.52 2694.38 1108.92 2693.06 1104.98 2690.46 1101.04 2687.86 1097.57 2684.27 1094.58 2679.68L1044.27 2602.17 1044.27 2733.75C1044.06 2741.88 1041.26 2748.59 1035.86 2753.89 1030.46 2759.18 1023.69 2761.92 1015.55 2762.11 1007.43 2761.92 1000.72 2759.18 995.436 2753.89 990.146 2748.59 987.407 2741.88 987.218 2733.75L987.218 2522.76C987.415 2514.44 990.232 2507.55 995.672 2502.11 1001.11 2496.67 1007.99 2493.84 1016.31 2493.65ZM1957.48 2492.89C1965.8 2493.09 1972.68 2495.91 1978.12 2501.35 1983.56 2506.8 1986.38 2513.68 1986.57 2522.01L1986.57 2644.92C1986.73 2666.51 1991.81 2682.8 2001.8 2693.8 2011.79 2704.8 2025.76 2710.31 2043.69 2710.35 2061.63 2710.32 2075.6 2704.98 2085.59 2694.32 2095.58 2683.66 2100.66 2667.82 2100.82 2646.81L2100.82 2522.01C2101.01 2513.68 2103.83 2506.8 2109.27 2501.35 2114.71 2495.91 2121.59 2493.09 2129.91 2492.89 2138.23 2493.09 2145.11 2495.91 2150.55 2501.35 2155.99 2506.8 2158.8 2513.68 2159 2522.01L2159 2644.54C2158.61 2684.59 2148.15 2714.52 2127.63 2734.33 2107.11 2754.14 2078.88 2764.03 2042.94 2764 2007.06 2763.97 1979.08 2754.11 1959 2734.43 1938.92 2714.74 1928.72 2685.41 1928.39 2646.43L1928.39 2522.01C1928.58 2513.68 1931.4 2506.8 1936.84 2501.35 1942.28 2495.91 1949.16 2493.09 1957.48 2492.89ZM1829.6 2492.89C1837.74 2493.1 1844.51 2495.9 1849.91 2501.31 1855.31 2506.71 1858.11 2513.48 1858.32 2521.63L1858.32 2732.24C1858.12 2740.56 1855.3 2747.45 1849.86 2752.89 1844.42 2758.34 1837.54 2761.16 1829.22 2761.35L1827.34 2761.35C1820.46 2761.28 1814.66 2759.72 1809.96 2756.67 1805.25 2753.62 1800.96 2749.51 1797.11 2744.34L1680.6 2591.58 1680.6 2733.37C1680.39 2741.52 1677.59 2748.29 1672.19 2753.7 1666.79 2759.1 1660.02 2761.9 1651.88 2762.11 1643.74 2761.9 1636.97 2759.1 1631.57 2753.7 1626.17 2748.29 1623.37 2741.52 1623.17 2733.37L1623.17 2522.76C1623.36 2514.44 1626.18 2507.55 1631.62 2502.11 1637.06 2496.67 1643.94 2493.84 1652.26 2493.65L1658.3 2493.65C1665.18 2493.72 1670.98 2495.28 1675.68 2498.33 1680.39 2501.38 1684.68 2505.49 1688.54 2510.66L1800.89 2658.13 1800.89 2521.63C1801.09 2513.48 1803.9 2506.71 1809.29 2501.31 1814.69 2495.9 1821.46 2493.1 1829.6 2492.89ZM1435.62 2491 1439.03 2491C1446.97 2491.06 1453.76 2493.11 1459.39 2497.15 1465.03 2501.18 1469.45 2506.82 1472.67 2514.07L1564.92 2722.4C1565.87 2724.47 1566.61 2726.47 1567.14 2728.4 1567.67 2730.33 1567.94 2732.24 1567.95 2734.12 1567.77 2742.07 1565.1 2748.68 1559.96 2753.93 1554.82 2759.19 1548.28 2761.91 1540.35 2762.11 1533.56 2762.03 1527.85 2760.2 1523.24 2756.63 1518.62 2753.05 1515 2748.2 1512.37 2742.07L1494.6 2700.47 1378.16 2700.47 1359.63 2743.96C1357.12 2749.68 1353.54 2754.12 1348.91 2757.29 1344.27 2760.45 1338.89 2762.06 1332.79 2762.11 1325.06 2761.92 1318.69 2759.27 1313.7 2754.17 1308.7 2749.06 1306.12 2742.63 1305.95 2734.88 1305.97 2732.8 1306.3 2730.72 1306.94 2728.64 1307.58 2726.56 1308.38 2724.48 1309.35 2722.4L1401.6 2514.07C1404.84 2506.82 1409.32 2501.18 1415.07 2497.15 1420.81 2493.11 1427.66 2491.06 1435.62 2491ZM799.675 2491 803.078 2491C811.025 2491.06 817.814 2493.11 823.446 2497.15 829.078 2501.18 833.504 2506.82 836.725 2514.07L928.972 2722.4C929.926 2724.47 930.666 2726.47 931.194 2728.4 931.722 2730.33 931.99 2732.24 931.998 2734.12 931.817 2742.07 929.154 2748.68 924.011 2753.93 918.867 2759.19 912.33 2761.91 904.399 2762.11 897.609 2762.03 891.907 2760.2 887.291 2756.63 882.676 2753.05 879.053 2748.2 876.422 2742.07L858.653 2700.47 742.21 2700.47 723.685 2743.96C721.172 2749.68 717.596 2754.12 712.957 2757.29 708.318 2760.45 702.946 2762.06 696.842 2762.11 689.108 2761.92 682.744 2759.27 677.75 2754.17 672.756 2749.06 670.173 2742.63 670 2734.88 670.023 2732.8 670.354 2730.72 670.992 2728.64 671.63 2726.56 672.433 2724.48 673.402 2722.4L765.65 2514.07C768.887 2506.82 773.376 2501.18 779.118 2497.15 784.86 2493.11 791.712 2491.06 799.675 2491Z" stroke="#F4791E" stroke-width="18.3333" stroke-linejoin="round" stroke-miterlimit="10" fill="#F4791E" fill-rule="evenodd"/></g></svg>