<svg width="368" height="654" xmlns="http://www.w3.org/2000/svg" xmlns:xlink="http://www.w3.org/1999/xlink" xml:space="preserve" overflow="hidden"><defs><clipPath id="clip0"><rect x="1538" y="561" width="368" height="654"/></clipPath><clipPath id="clip1"><rect x="1593" y="600" width="314" height="572"/></clipPath><clipPath id="clip2"><rect x="1593" y="600" width="314" height="572"/></clipPath><clipPath id="clip3"><rect x="1593" y="600" width="314" height="572"/></clipPath><clipPath id="clip4"><rect x="1593" y="600" width="314" height="572"/></clipPath></defs><g clip-path="url(#clip0)" transform="translate(-1538 -561)"><g clip-path="url(#clip1)"><g clip-path="url(#clip2)"><g clip-path="url(#clip3)"><g clip-path="url(#clip4)"><path d="M221.152-59.4389C242.534-60.811 255.55-60.8043 264.304-46.7174 273.057-32.6304 242.073 16.7467 273.672 25.0829 305.271 33.419 320.7 7.87168 333.803-17.2171 346.905-42.3057 353.141-72.442 353.164-87.4791" stroke="#F4791E" stroke-width="31.082" stroke-linecap="round" stroke-linejoin="round" stroke-miterlimit="10" fill="none" fill-rule="evenodd" transform="matrix(1.00017 0 0 1 1467.98 704.078)"/><path d="M225.937 30.9973C235.335 18.4704 246.29 16.3386 260.107 14.5798" stroke="#F4791E" stroke-width="31.082" stroke-linecap="round" stroke-linejoin="round" stroke-miterlimit="10" fill="none" fill-rule="evenodd" transform="matrix(1.00017 0 0 1 1467.98 704.078)"/><path d="M290.338 143.328C311.72 141.957 324.738 141.963 333.491 156.05 342.245 170.136 311.259 219.514 342.858 227.851 374.458 236.186 389.887 210.639 402.99 185.551 416.092 160.462 422.328 130.325 422.351 115.288" stroke="#F4791E" stroke-width="31.082" stroke-linecap="round" stroke-linejoin="round" stroke-miterlimit="10" fill="none" fill-rule="evenodd" transform="matrix(1.00017 0 0 1 1467.98 704.078)"/><path d="M295.124 233.764C304.522 221.237 315.477 219.105 329.295 217.348" stroke="#F4791E" stroke-width="31.082" stroke-linecap="round" stroke-linejoin="round" stroke-miterlimit="10" fill="none" fill-rule="evenodd" transform="matrix(1.00017 0 0 1 1467.98 704.078)"/><path d="M159.518 149.371C159.94 150.975 168.992 146.626 173.976 160.361 178.962 174.098 161.215 223.893 189.428 231.788 217.643 239.683 229.078 209.187 235.879 188.872 242.679 168.558 238.942 141.741 254.183 118.473 269.422 95.2049 331.877 76.5164 331.796 76.1209" stroke="#F4791E" stroke-width="31.082" stroke-linecap="round" stroke-linejoin="round" stroke-miterlimit="10" fill="none" fill-rule="evenodd" transform="matrix(1.00017 0 0 1 1467.98 704.078)"/><path d="M141.573 207.295C174.261 184.575 215.35 182.946 267.402 182.746" stroke="#F4791E" stroke-width="31.082" stroke-linecap="round" stroke-linejoin="round" stroke-miterlimit="10" fill="none" fill-rule="evenodd" transform="matrix(1.00017 0 0 1 1467.98 704.078)"/><path d="M240.672 434.431C237.182 444.582 230.486 448.281 221.842 452.34" stroke="#F4791E" stroke-width="31.082" stroke-linecap="round" stroke-linejoin="round" stroke-miterlimit="10" fill="none" fill-rule="evenodd" transform="matrix(1.00017 0 0 1 1467.98 704.078)"/><path d="M223.062 324.012C254.172 267.011 312.356 267.604 342.71 324.804" stroke="#F4791E" stroke-width="31.082" stroke-linecap="round" stroke-linejoin="round" stroke-miterlimit="10" fill="none" fill-rule="evenodd" transform="matrix(1.00017 0 0 1 1467.98 704.078)"/><path d="M281.092 284.483 281.092 451.588" stroke="#F4791E" stroke-width="31.082" stroke-linecap="round" stroke-linejoin="round" stroke-miterlimit="10" fill="none" fill-rule="evenodd" transform="matrix(1.00017 0 0 1 1467.98 704.078)"/></g></g></g></g><path d="M1549.5 572.5 1549.5 1202.81" stroke="#F4791E" stroke-width="22.9167" stroke-linecap="round" stroke-linejoin="round" stroke-miterlimit="10" fill="none" fill-rule="evenodd"/></g></svg>