<svg width="4663" height="1500" xmlns="http://www.w3.org/2000/svg" xmlns:xlink="http://www.w3.org/1999/xlink" xml:space="preserve" overflow="hidden"><defs><clipPath id="clip0"><rect x="1515" y="-1111" width="4663" height="1500"/></clipPath></defs><g clip-path="url(#clip0)" transform="translate(-1515 1111)"><path d="M1630.56-438.245C1788.21-448.361 1884.18-448.312 1948.72-344.449 2013.26-240.585 1784.81 123.474 2017.79 184.937 2250.77 246.399 2364.53 58.0381 2461.14-126.942 2557.74-311.921 2603.72-534.117 2603.89-644.986" stroke="#ED7D31" stroke-width="229.167" stroke-linecap="round" stroke-linejoin="round" stroke-miterlimit="10" fill="none" fill-rule="evenodd"/><path d="M1665.84 228.544C1735.13 136.183 1815.9 120.465 1917.78 107.497" stroke="#ED7D31" stroke-width="229.167" stroke-linecap="round" stroke-linejoin="round" stroke-miterlimit="10" fill="none" fill-rule="evenodd"/><path d="M3889.16-429.379C4046.81-439.496 4142.79-439.447 4207.32-335.583 4271.86-231.719 4043.41 132.34 4276.39 193.802 4509.37 255.264 4623.13 66.9038 4719.74-118.076 4816.35-303.056 4862.32-525.251 4862.49-636.12" stroke="#ED7D31" stroke-width="229.167" stroke-linecap="round" stroke-linejoin="round" stroke-miterlimit="10" fill="none" fill-rule="evenodd"/><path d="M3924.44 237.409C3993.73 145.049 4074.5 129.331 4176.39 116.363" stroke="#ED7D31" stroke-width="229.167" stroke-linecap="round" stroke-linejoin="round" stroke-miterlimit="10" fill="none" fill-rule="evenodd"/><path d="M2924.61-384.82C2927.73-373.007 2994.46-405.068 3031.22-303.791 3067.97-202.514 2937.13 164.631 3145.15 222.841 3353.17 281.052 3437.49 56.2018 3487.63-93.5804 3537.76-243.363 3510.22-441.086 3622.58-612.64 3734.95-784.194 4195.42-921.984 4194.82-924.901" stroke="#ED7D31" stroke-width="229.167" stroke-linecap="round" stroke-linejoin="round" stroke-miterlimit="10" fill="none" fill-rule="evenodd"/><path d="M2792.3 42.2455C3033.32-125.261 3336.27-137.274 3720.05-138.756" stroke="#ED7D31" stroke-width="229.167" stroke-linecap="round" stroke-linejoin="round" stroke-miterlimit="10" fill="none" fill-rule="evenodd"/><path d="M5310.49 149.73C5283.85 219.61 5234.23 245.6 5170.27 274.245" stroke="#ED7D31" stroke-width="229.167" stroke-linecap="round" stroke-linejoin="round" stroke-miterlimit="10" fill="none" fill-rule="evenodd"/><path d="M5181.71-607.788C5406.87-995.614 5835.37-987.531 6062.85-594.083" stroke="#ED7D31" stroke-width="229.167" stroke-linecap="round" stroke-linejoin="round" stroke-miterlimit="10" fill="none" fill-rule="evenodd"/><path d="M5608.5-873.5 5608.5 268.258" stroke="#ED7D31" stroke-width="229.167" stroke-linecap="round" stroke-linejoin="round" stroke-miterlimit="10" fill="none" fill-rule="evenodd"/></g></svg>