<?xml version="1.0" encoding="utf-8"?>
<!-- Generator: Adobe Illustrator 27.2.0, SVG Export Plug-In . SVG Version: 6.00 Build 0)  -->
<svg version="1.1" id="freepik_stories-dictionary" xmlns:svgjs="http://svgjs.com/svgjs"
	 xmlns="http://www.w3.org/2000/svg" xmlns:xlink="http://www.w3.org/1999/xlink" x="0px" y="0px" viewBox="0 0 500 500"
	 style="enable-background:new 0 0 500 500;" xml:space="preserve">
<style type="text/css">
	.st0{fill:#E0E0E0;}
	.st1{fill:#263238;}
	.st2{fill:#FF7200;}
	.st3{fill:#F5F5F5;}
	.st4{fill:#FFFFFF;}
	.st5{fill:#455A64;}
	.st6{fill:#FFBF9D;}
	.st7{fill:#FF9A6C;}
	.st8{opacity:0.3;}
	.st9{opacity:0.2;enable-background:new    ;}
</style>
<g id="freepik--background-complete--inject-34">
	<path id="elgithmvu2yl4" class="st0" d="M155.9,41.6h-4l-0.6,1.6h-2.5l4-9.3h2.5l3.9,9.3h-2.6L155.9,41.6z M155.2,39.7l-1.2-3.3
		l-1.3,3.3H155.2z"/>
	<path id="elfczbyie136l" class="st0" d="M48,402.3c-3.1,0-6-1.3-8-3.7l2.8-4.1c1.2,1.5,2.9,2.4,4.8,2.6c1.5,0,2.4-0.9,2.4-2.6V384
		h-7.9v-5H56v15.5C56,399.5,53,402.3,48,402.3z"/>
	<path id="el23dnlnx4l6u" class="st0" d="M158.1,314.4l-4.2-6.2l-2.1,2.3v3.9h-4.2v-16.1h4.2v6.7l6-6.8h4.9l-6,6.7l6.3,9.4
		L158.1,314.4z"/>
	<path id="elc27jqllo7bv" class="st0" d="M48.4,306.7l7.6,10.1v-10.1h4v16.7h-3.8l-7.6-10v10h-4.1v-16.7H48.4z"/>
	<path id="elgtedd3wkjm" class="st0" d="M399.2,272.1l2.5,5.4l2.5-5.4h2.6v9.3h-2.1v-5.9l-2.1,5h-1.6l-2.2-5v5.9h-2.2v-9.3H399.2z"
		/>
	<path id="eluv3lbjpgtu" class="st0" d="M324.2,32l2.5,5.4l2.5-5.4h2.6v9.3h-2.1v-5.9l-2.2,5h-1.6l-2.2-5v5.9h-2.2V32H324.2z"/>
	<path id="el65fs6scjau2" class="st0" d="M473.2,315.1v13.3h7.2v3.8h-11.7v-17.1H473.2z"/>
	<path id="elvmn4zysxwa" class="st0" d="M407.2,34v7.2h3.9v2.1h-6.4V34H407.2z"/>
	<path id="elgqs38xljj4j" class="st0" d="M234.2,77.2v7.2h3.9v2.1h-6.4v-9.3H234.2z"/>
	<path id="el8ffk9pzqffd" class="st0" d="M458,165.4c-2.1,0-3.5,0.8-3.5,2.3c0,5.5,17.5,2.4,17.5,14.3c0,6.8-6,10.2-13.3,10.2
		c-5.5,0-10.9-1.9-15.3-5.3l3.4-6.8c3.4,2.9,8.6,5,12,5c2.5,0,4.2-1,4.2-2.7c0-5.6-17.5-2.2-17.5-13.9c0-6.2,5.2-10.1,13.2-10.1
		c4.7,0,9.3,1.3,13.3,3.7l-3.3,6.9C465.2,166.9,460.8,165.4,458,165.4z"/>
	<path id="elmouxetpudcl" class="st0" d="M359,328.2c-2.1,0-3.5,0.8-3.5,2.3c0,5.5,17.5,2.4,17.5,14.3c0,6.8-6,10.2-13.3,10.2
		c-5.5,0-10.9-1.9-15.3-5.3l3.4-6.8c3.4,2.9,8.6,5,12,5c2.5,0,4.2-1,4.2-2.7c0-5.6-17.5-2.2-17.5-14c0-6.2,5.2-10.1,13.2-10.1
		c4.7,0,9.3,1.3,13.3,3.7l-3.3,6.9C366.2,329.8,361.8,328.2,359,328.2z"/>
	<path id="elzfjarh7zxh8" class="st0" d="M262.9,125.9c0,8.4-6.2,14.2-15.4,14.2h-11.9v-28.3h12.2
		C256.8,111.8,262.9,117.5,262.9,125.9z M255.3,126c0-4.9-3.2-8.2-7.7-8.2H243v16.3h5C252.3,134.1,255.3,130.8,255.3,126L255.3,126z
		"/>
	<path id="elsb06mh18vdc" class="st0" d="M409.4,224.8l-2.5-4.8h-3.4v4.8H399v-17.2h7.7c4.6,0,7.2,2.2,7.2,6c0.2,2.3-1,4.5-3.1,5.6
		l3.6,5.6L409.4,224.8z M403.5,216.4h3.3c1.8,0,2.9-0.9,2.9-2.7s-1.1-2.6-2.9-2.6h-3.3V216.4z"/>
	<path id="elae09ldbtuu4" class="st0" d="M426.5,315.9v5.8h-8.1v21.1h-7v-21.1h-8v-5.8L426.5,315.9z"/>
	<path id="elgnzr0ox6ru8" class="st0" d="M361.7,260.6c0,2.3-1.6,4.3-3.8,4.8c2.7,0.5,4.6,2.8,4.5,5.6c0,3.8-3.3,6.1-8.5,6.1h-10.9
		v-22h10.5C358.5,255.1,361.7,257.2,361.7,260.6z M355.8,261.6c0-1.3-1-2.1-2.6-2.1h-4.4v4.3h4.4C354.9,263.8,355.8,263,355.8,261.6
		z M356.5,270.2c0-1.4-1.3-2.3-3.3-2.2h-4.4v4.6h4.4C355.2,272.6,356.5,271.7,356.5,270.2z"/>
	<path id="elz9v2ckhqx5i" class="st0" d="M457.4,57.4c0,2.3-1.6,4.3-3.8,4.8c2.7,0.5,4.6,2.8,4.5,5.6c0,3.8-3.3,6.1-8.5,6.1h-10.9
		v-22h10.5C454.2,51.8,457.4,54,457.4,57.4z M451.5,58.4c0-1.3-1-2.1-2.6-2.1h-4.4v4.3h4.4C450.5,60.6,451.5,59.8,451.5,58.4
		L451.5,58.4z M452.2,67c0-1.4-1.2-2.3-3.3-2.2h-4.4v4.6h4.4C450.9,69.4,452.2,68.5,452.2,67L452.2,67z"/>
	<path id="elumb8jqcmwk" class="st0" d="M198.9,267.7c-3.4,0.2-6.1,3.1-5.9,6.6c0.2,3.2,2.7,5.7,5.9,5.9c2.1-0.1,4-1,5.5-2.6
		l3.4,3.6c-2.4,2.5-5.7,4-9.1,4.1c-6.6,0-11.6-4.8-11.6-11.3s5.1-11.1,11.8-11.1c3.3,0,6.5,1.4,8.9,3.8l-3.3,4
		C203.1,268.9,201.1,267.9,198.9,267.7z"/>
	<path id="el68s1kskgusq" class="st0" d="M444.8,383c-3.4,0.2-6.1,3.1-5.9,6.6c0.2,3.2,2.7,5.7,5.9,5.9c2.1-0.1,4-1,5.5-2.6l3.4,3.6
		c-2.4,2.5-5.7,4-9.1,4.1c-6.1,0.2-11.3-4.6-11.5-10.7c0-0.2,0-0.4,0-0.6c0-6.3,5-11.1,11.8-11.1c3.3,0,6.5,1.4,8.9,3.8l-3.3,4
		C448.9,384.2,447,383.2,444.8,383z"/>
	<path id="el4x0xqcrrl09" class="st0" d="M380.7,88.3h-14.3l-2.4,5.9h-8.9L369.4,61h8.9l13.9,33.2H383L380.7,88.3z M378.1,81.7
		l-4.5-11.8L369,81.7H378.1z"/>
	<path id="elj01msnmiv6q" class="st0" d="M305.1,73.1v7h-5.7v-6.8l-8-15h5.7l5.2,9.4l5.1-9.4h5.8L305.1,73.1z"/>
	<path id="elaqx2r3e6a5" class="st0" d="M189.7,109c2.8,0,4.8-1.9,4.8-5.1V89.7h6.4v14.2c0,6.5-4.3,10.6-11.2,10.6
		s-11.4-4.1-11.4-10.6V89.7h6.4v14.2c-0.2,2.6,1.8,4.9,4.4,5.1C189.4,109,189.5,109,189.7,109z"/>
	<path id="elq440oe2ao6e" class="st0" d="M111,324.8v5.6H98v6h12v5.6H98v9.6h-7v-26.7H111z"/>
	<path id="elf8wc25yfik" class="st0" d="M27.6,238.9v8.1h8v-8.1h5.2v19.9h-5.2v-7.7h-8v7.7h-5.2v-19.9H27.6z"/>
	<path id="elpprhoxb3lbm" class="st0" d="M395.5,132v19.8h-5.2V132H395.5z"/>
	<path id="elt1bje2n15j9" class="st0" d="M243.4,40.8c0,6.9-5.5,12.1-12.8,12.1s-12.8-5.2-12.8-12.1s5.5-12,12.8-12
		S243.4,33.9,243.4,40.8z M224.2,40.8c-0.1,3.7,2.8,6.7,6.5,6.8c3.6-0.1,6.4-3.1,6.3-6.7c0,0,0,0,0,0c0.2-3.6-2.6-6.6-6.2-6.8
		c-0.1,0-0.1,0-0.2,0C227,34,224.1,37,224.2,40.8C224.1,40.7,224.1,40.7,224.2,40.8L224.2,40.8z"/>
	<path id="elv3f4f16mbs" class="st0" d="M449.3,244.9l5.9,17.1l5.9-17.1h6.4l-9.2,23.6h-6.4l-9.2-23.6H449.3z"/>
	<path id="elnisibjdtlog" class="st0" d="M331.7,127l3.3,9.4l3.3-9.4h3.5l-5.1,13.1h-3.5l-5.1-13.1H331.7z"/>
	<path id="elwtflndu0sq" class="st0" d="M43.2,75.1c0,4.1-2.6,6.5-7.1,6.5H33v4.9h-4.6V69h7.7C40.6,69,43.2,71.2,43.2,75.1z
		 M38.8,75.3c0-1.7-1.1-2.7-2.9-2.7H33V78h2.9C37.8,78,38.8,77.1,38.8,75.3z"/>
	<path id="elnn1lrxbywk" class="st0" d="M459.1,106.3l3.6,8l3.6-8h3.9V120h-3.2v-8.7l-3.2,7.3h-2.4l-3.2-7.3v8.7h-3.2v-13.7
		L459.1,106.3z"/>
	<path id="elw2hi2oddl5r" class="st0" d="M72.3,158.7v6.9H54.8v6.2h15.8v6.9H54.8v6.2h18v6.9H46.2v-33.1H72.3z"/>
	<path id="el8dh5dbjc2i6" class="st0" d="M116,46.9v5.7L98.5,73.1h17.8v7H86.9v-5.7l17.5-20.6H87.5v-7L116,46.9z"/>
</g>
<g id="freepik--Table--inject-34">
	<path id="el8gvx1ez9uzx" class="st1" d="M477.3,449.4c0,0.1-102.3,0.3-228.4,0.3s-228.4-0.1-228.4-0.3s102.2-0.3,228.4-0.3
		S477.3,449.3,477.3,449.4z"/>
</g>
<g id="freepik--Dictionary--inject-34">
	<path id="elorvqmrb605b" class="st2" d="M185.5,78.6c-0.3-1-1.4-1.6-2.4-1.3c0,0,0,0,0,0l-8.8,2.7L54.2,111.9l42.8,166.7l14.9,7.8
		l122.3-34c2-0.5,3.1-2.6,2.6-4.5c0,0,0-0.1,0-0.1L185.5,78.6z"/>
	<polygon id="elbf7289ye94s" class="st3" points="171.9,71.9 183.9,79 235.1,249.7 111.6,285 97.6,277.4 	"/>
	<path id="eltre5xbxa5ci" class="st2" d="M218.3,242.6l-121.4,36L47.9,113c-0.6-2.2,0.6-4.5,2.7-5.2l120.1-37.7
		c1.2-0.4,2.5,0.3,2.9,1.5c0,0,0,0,0,0.1l47.4,166C221.6,239.8,220.4,242,218.3,242.6z"/>
	<path id="elfzx1tqe8upj" class="st1" d="M112.5,271.6c-0.1,0-11.4-37-25.2-82.8s-24.9-82.9-24.7-83s11.4,37,25.2,82.8
		S112.6,271.5,112.5,271.6z"/>
	<path id="elre22to13p8" class="st1" d="M108.2,275.9c-0.1,0-11.4-37-25.2-82.8s-24.9-82.9-24.7-83s11.4,37,25.2,82.8
		S108.3,275.8,108.2,275.9z"/>
	<path id="el68i232034gf" class="st4" d="M102.9,151c0.8,2.6-0.5,4.9-3.3,5.8l-3.6,1.1l-2.7-8.6l3.7-1.2
		C99.7,147.3,102.1,148.4,102.9,151z M100.6,151.8c-0.3-1.3-1.6-2.1-2.9-1.8c-0.1,0-0.2,0-0.2,0.1l-1.4,0.4l1.6,5l1.5-0.5
		c1.2-0.4,1.9-1.7,1.5-2.9C100.7,151.9,100.6,151.8,100.6,151.8z"/>
	<path id="el47tdi50hbu" class="st4" d="M104.9,145.6l2.7,8.6l-2.2,0.7l-2.7-8.6L104.9,145.6z"/>
	<path id="elsipgypbemir" class="st4" d="M111.2,145.7c-1.3,0.5-2,1.9-1.5,3.3c0.5,1.2,1.8,1.9,3.1,1.6c0.8-0.3,1.4-0.9,1.8-1.7
		l1.8,1c-0.6,1.3-1.7,2.3-3.1,2.7c-2.4,0.9-5-0.4-5.9-2.8c-0.9-2.4,0.4-5,2.8-5.9c0.1,0,0.3-0.1,0.4-0.1c1.3-0.4,2.7-0.3,3.9,0.4
		l-0.8,2C113,145.6,112.1,145.5,111.2,145.7z"/>
	<path id="elg0jcsayudcn" class="st4" d="M121.7,140.4l0.6,1.9l-2.6,0.8l2.1,6.7l-2.2,0.7l-2.1-6.8l-2.6,0.8l-0.6-1.9L121.7,140.4z"
		/>
	<path id="el5lpvgpjc6jt" class="st4" d="M124.8,139.4l2.7,8.6l-2.2,0.7l-2.7-8.6L124.8,139.4z"/>
	<path id="el6834ne9otmr" class="st4" d="M136.6,140.4c1,2.5-0.3,5.4-2.8,6.3s-5.4-0.3-6.3-2.8s0.3-5.4,2.8-6.3
		c0.1,0,0.2-0.1,0.3-0.1c2.4-0.9,5.1,0.4,6,2.8C136.6,140.3,136.6,140.3,136.6,140.4z M129.6,142.6c0.4,1.3,1.8,2.1,3.1,1.7
		c1.3-0.5,2-2.1,1.4-3.4c-0.5-1.2-1.7-1.8-3-1.5C129.9,139.8,129.2,141.3,129.6,142.6C129.6,142.6,129.6,142.6,129.6,142.6
		L129.6,142.6z"/>
	<path id="el70mdicno67o" class="st4" d="M138.4,135.1l5.5,4l-1.6-5.2l2.1-0.7l2.7,8.6l-2,0.6l-5.5-3.9l1.6,5.1l-2.1,0.7l-2.7-8.6
		L138.4,135.1z"/>
	<path id="el4jqylrxbii" class="st4" d="M154,138l-3.7,1.2l-0.1,1.7l-2.3,0.7l1-9.8l2.3-0.7l6.3,7.5l-2.4,0.8L154,138z M152.8,136.5
		l-2.1-2.7l-0.2,3.4L152.8,136.5z"/>
	<path id="elr9361oyxr1a" class="st4" d="M163.4,136.7l-2-2l0,0l-1.6,0.5l0.8,2.4l-2.2,0.7l-2.7-8.6l3.9-1.2c2.3-0.7,3.9,0,4.5,1.9
		c0.4,1.1,0.2,2.4-0.7,3.3l2.7,2.2L163.4,136.7z M159.1,133.4l1.6-0.5c0.7-0.1,1.2-0.8,1.1-1.5c0-0.1,0-0.2-0.1-0.3
		c-0.2-0.7-0.9-1.1-1.6-1c-0.1,0-0.2,0.1-0.3,0.1l-1.6,0.5L159.1,133.4z"/>
	<path id="elfu9khjdihu" class="st4" d="M170.7,131.3l0.9,2.8l-2.2,0.7l-0.8-2.7l-5-4.9l2.2-0.7l3.2,3l0.8-4.3l2.2-0.7L170.7,131.3z
		"/>
	<path id="elfyi0wwme5k" class="st4" d="M131.5,177.4l-9.8,3.1l-0.3,4.5l-6.1,1.9l2.6-25.7l6.1-1.9l16.6,19.7l-6.3,2L131.5,177.4z
		 M128.3,173.4l-5.6-7.1l-0.6,9L128.3,173.4z"/>
	<path id="eldiufpn7ph2f" class="st4" d="M147,164l1.2,3.7l-8.6,2.7l-1.2-3.7L147,164z"/>
	<path id="el3fadtkduwp7" class="st4" d="M166.1,146.1l1.2,3.9l-7.5,17.8l12.1-3.8l1.5,4.7l-20,6.3l-1.2-3.8l7.5-17.8l-11.5,3.6
		l-1.5-4.8L166.1,146.1z"/>
	<path id="el9db1hvs4w27" class="st1" d="M224.7,247l-0.3,0.1l-0.9,0.3l-3.3,1l-12,3.8l-39.7,12.2l-39.8,12.1l-12.1,3.6l-3.3,1
		l-0.9,0.2c-0.1,0-0.2,0.1-0.3,0.1c0.1,0,0.2-0.1,0.3-0.1l0.8-0.3l3.3-1l12-3.8l39.7-12.2l39.8-12.1l12.1-3.6l3.3-1l0.9-0.2
		C224.5,247,224.6,247,224.7,247z"/>
	<path id="elfe6uiojpi5" class="st5" d="M156.6,264.7l-18.4,5.6c4.3,7.9,7.4,16.5,9.1,25.4c2.6-4,4.1-8.7,4.1-13.5
		c3.1,3.7,6.5,7.2,10.2,10.4C161.9,283.1,160.2,273.6,156.6,264.7z"/>
	<path id="elbs4bufvf6lt" class="st1" d="M222.4,244.7c0,0-0.1,0.1-0.3,0.1l-0.8,0.3l-3.3,1l-12,3.8l-39.7,12.2l-39.8,12.1
		l-12.1,3.6l-3.3,1l-0.9,0.2L110,279c0.1-0.1,0.2-0.1,0.3-0.1l0.8-0.3l3.3-1l12-3.8l39.7-12.2l39.8-12.1L218,246l3.3-0.9l0.9-0.2
		L222.4,244.7z"/>
	<path id="elkiecob88jm" class="st1" d="M226.2,240c-0.1-0.1-0.1-0.3-0.1-0.4l-0.4-1.2l-1.4-4.8c-1.2-4.2-2.9-10.1-5-17.5
		c-4.2-14.8-10.1-35.2-16.6-57.8s-12.6-42.9-17.1-57.6c-2.2-7.3-4-13.3-5.3-17.5c-0.6-2-1.1-3.6-1.4-4.8c-0.1-0.5-0.3-0.9-0.4-1.2
		c0-0.1-0.1-0.3-0.1-0.4c0.1,0.1,0.1,0.3,0.2,0.4c0.1,0.3,0.2,0.7,0.4,1.2c0.4,1.1,0.9,2.7,1.5,4.7c1.3,4.1,3.1,10.1,5.4,17.4
		c4.5,14.7,10.7,35,17.3,57.6s12.4,43,16.5,57.8c2,7.4,3.7,13.4,4.8,17.6l1.3,4.8c0.1,0.5,0.2,0.9,0.3,1.2S226.2,240,226.2,240z"/>
	<path id="ell1z0thbbic" class="st4" d="M173.3,108.8c0,0,0-0.1-0.1-0.3l-0.3-1c-0.3-0.9-0.7-2.2-1.3-3.9c-1.1-3.4-2.6-8.3-4.6-14.6
		l0.2,0.1l-91.3,28.6l0,0l0.2-0.3c2.1,6.8,4.2,13.5,6.2,19.9l-0.3-0.2l65.1-20.2l19.2-5.9l5.2-1.6l1.4-0.4L173.3,108.8l-0.5,0.2
		l-1.3,0.4l-5.1,1.6l-19.2,6l-65.2,20.5l-0.2,0.1l-0.1-0.2c-2-6.4-4.1-13.1-6.2-19.9l-0.1-0.2l0.2-0.1l0,0l91.3-28.4l0.1-0.1v0.1
		c1.9,6.3,3.4,11.3,4.5,14.7c0.5,1.7,0.9,3,1.2,3.9c0.1,0.4,0.2,0.8,0.3,1C173.2,108.6,173.3,108.7,173.3,108.8z"/>
</g>
<g id="freepik--speech-bubble--inject-34">
	<g id="elkwsp3j4vjh">
		<circle id="eljxlcmo48zqa" class="st4" cx="399.9" cy="132.2" r="41.5"/>
	</g>
	<path id="elslfrpt3lwl" class="st1" d="M366,173.2c0,0,0-0.4-0.3-1.2c-0.3-1.1-1-2-1.9-2.7c-0.6-0.5-1.3-0.8-2.1-1
		c-0.9-0.2-1.8-0.1-2.6,0.2c-2.6,0.9-4,3.8-3.1,6.4c0.5,1.3,1.5,2.4,2.8,3c0.8,0.4,1.7,0.5,2.5,0.4c0.8-0.1,1.5-0.4,2.1-0.8
		c0.9-0.6,1.7-1.5,2.1-2.6c0.3-0.8,0.3-1.2,0.3-1.2c0,0.1,0,0.2,0,0.3c0,0.1,0,0.3-0.1,0.4c0,0.2-0.1,0.4-0.1,0.5
		c-0.7,1.9-2.3,3.3-4.3,3.7c-0.9,0.2-1.9,0-2.8-0.4c-1-0.4-1.8-1.1-2.4-2c-0.7-0.9-1-2-1-3.1c0.1-1.1,0.5-2.2,1.2-3.1
		c0.6-0.8,1.5-1.4,2.5-1.8c0.9-0.3,1.8-0.4,2.8-0.2c0.8,0.2,1.6,0.6,2.2,1.1c0.9,0.7,1.6,1.7,1.9,2.9c0,0.2,0.1,0.4,0.1,0.5
		c0,0.1,0,0.3,0,0.4C366,173,366,173.1,366,173.2z"/>
	<path id="elrt9fw6j6k7p" class="st1" d="M392.9,173.5l0.7,0.1l2,0.2l1.5,0.2c0.5,0,1.1,0,1.8,0h2.1c0.4,0,0.8,0,1.1-0.1l1.2-0.1
		c4-0.3,8-1.2,11.7-2.7c5-1.9,9.5-4.8,13.4-8.5l1.6-1.6c0.5-0.6,1-1.1,1.5-1.7l0.8-0.9c0.3-0.3,0.5-0.6,0.7-0.9l1.4-2
		c0.2-0.3,0.5-0.6,0.7-1l0.6-1.1c0.4-0.7,0.8-1.4,1.2-2.2s0.7-1.5,1.1-2.3c0.2-0.4,0.4-0.8,0.5-1.2c0.1-0.2,0.2-0.4,0.2-0.6l0.2-0.6
		c0.6-1.7,1.1-3.4,1.5-5.1c0.2-0.9,0.4-1.8,0.6-2.7s0.2-1.8,0.3-2.7c0-0.5,0.1-0.9,0.1-1.4s0-0.9,0-1.4c0-0.9,0-1.9,0-2.8
		c-0.1-1.9-0.3-3.9-0.7-5.8l-0.3-1.4c0-0.2-0.1-0.5-0.1-0.7l-0.2-0.7c-0.3-1-0.5-1.9-0.8-2.9s-0.7-1.9-1.1-2.8
		c-0.2-0.5-0.4-1-0.6-1.4l-0.7-1.4c-0.9-1.8-2-3.6-3.2-5.3c-0.6-0.8-1.3-1.7-1.9-2.5l-0.5-0.6l-0.5-0.6l-1.1-1.2l-1.1-1.2l-1.2-1
		l-1.2-1l-0.6-0.5c-0.2-0.2-0.4-0.3-0.7-0.5l-2.7-1.9l-2.9-1.6c-7.9-4.3-17-5.8-25.9-4.4l-3.2,0.6l-3.1,0.9l-0.8,0.2l-0.8,0.3
		l-1.5,0.6l-1.5,0.6l-1.4,0.7l-1.4,0.7l-0.7,0.4l-0.7,0.4l-2.7,1.7c-1.7,1.2-3.3,2.6-4.8,4l-1.1,1c-0.4,0.3-0.7,0.8-1,1.1
		c-0.6,0.8-1.3,1.5-2,2.3l-1.7,2.4l-0.4,0.6c-0.1,0.2-0.2,0.4-0.4,0.6c-0.2,0.4-0.5,0.8-0.7,1.3c-1,1.7-1.8,3.4-2.5,5.2
		c-0.3,0.9-0.6,1.8-0.9,2.7c-0.1,0.4-0.3,0.9-0.4,1.3s-0.2,0.9-0.3,1.4c-0.2,0.9-0.4,1.8-0.6,2.7s-0.2,1.8-0.4,2.7
		c-0.2,1.8-0.3,3.5-0.3,5.3v0.6c0,0.2,0,0.4,0,0.6c0,0.4,0.1,0.9,0.1,1.3c0.1,0.9,0.1,1.7,0.2,2.5s0.3,1.6,0.5,2.5
		c0.1,0.4,0.1,0.8,0.2,1.2l0.3,1.2c0.2,0.8,0.5,1.6,0.7,2.3c0.1,0.4,0.2,0.8,0.4,1.1c0.1,0.4,0.3,0.7,0.4,1.1
		c0.3,0.7,0.5,1.4,0.9,2.1s0.7,1.4,1,2c2.5,4.7,5.8,9,9.9,12.4c0.4,0.4,0.9,0.8,1.3,1.1l1.4,1l1.3,0.9c0.2,0.1,0.4,0.3,0.6,0.4
		l0.7,0.4l2.5,1.4c0.8,0.4,1.6,0.8,2.4,1.1l1.1,0.5c0.3,0.2,0.7,0.3,1.1,0.4l2,0.7c0.6,0.2,1.2,0.4,1.7,0.6l1.4,0.3l1.9,0.4
		L392.9,173.5c0,0-0.2,0-0.7-0.1l-1.9-0.4l-1.4-0.3c-0.5-0.1-1.1-0.3-1.7-0.5l-2-0.6c-0.4-0.1-0.7-0.2-1.1-0.4l-1.1-0.5
		c-0.8-0.4-1.6-0.7-2.4-1.1l-2.5-1.5l-0.7-0.4c-0.2-0.1-0.4-0.3-0.6-0.4l-1.3-0.9l-1.4-1l-1.3-1.1c-4.1-3.5-7.5-7.7-10-12.5
		c-0.4-0.7-0.7-1.3-1-2s-0.6-1.4-0.9-2.1c-0.1-0.4-0.3-0.7-0.4-1.1c-0.2-0.4-0.3-0.7-0.4-1.1c-0.2-0.8-0.5-1.5-0.7-2.3
		c-0.1-0.4-0.2-0.8-0.3-1.2s-0.1-0.8-0.2-1.2c-0.1-0.8-0.3-1.6-0.5-2.5s-0.2-1.7-0.2-2.6c0-0.4-0.1-0.9-0.1-1.3c0-0.2,0-0.4,0-0.6
		V133c0-1.8,0.1-3.6,0.3-5.3c0.1-0.9,0.2-1.8,0.4-2.7l0.6-2.7c0.1-0.5,0.2-0.9,0.3-1.4l0.5-1.3c0.3-0.9,0.6-1.8,0.9-2.7
		c0.7-1.8,1.6-3.6,2.5-5.2l0.7-1.3c0.1-0.2,0.2-0.4,0.4-0.7l0.5-0.6c0.6-0.8,1.2-1.6,1.7-2.5c0.6-0.8,1.3-1.5,2-2.3
		c0.3-0.4,0.6-0.8,1-1.1l1.1-1.1c1.5-1.4,3.1-2.8,4.8-4l2.7-1.7l0.7-0.4l0.7-0.4l1.4-0.7l1.4-0.7l1.5-0.6l1.5-0.6l0.8-0.3l0.8-0.2
		l3.2-0.9l3.3-0.6c9-1.4,18.2,0.1,26.1,4.4l2.9,1.7l2.7,1.9c0.2,0.2,0.5,0.3,0.7,0.5l0.6,0.5l1.2,1.1l1.2,1.1l1.1,1.2l1.1,1.2
		c0.2,0.2,0.4,0.4,0.5,0.6l0.5,0.6l2,2.5c1.2,1.7,2.2,3.5,3.2,5.4l0.7,1.4c0.2,0.5,0.4,1,0.6,1.4c0.4,1,0.8,1.9,1.1,2.8l0.8,2.9
		l0.2,0.7c0.1,0.2,0.1,0.5,0.1,0.7c0.1,0.5,0.2,1,0.3,1.5c0.4,1.9,0.6,3.9,0.7,5.8c0,1,0,1.9,0,2.9c0,0.5,0,0.9,0,1.4
		s-0.1,0.9-0.1,1.4l-0.3,2.8c-0.1,0.9-0.4,1.8-0.6,2.7c-0.4,1.7-0.9,3.5-1.5,5.1l-0.2,0.6c-0.1,0.2-0.2,0.4-0.3,0.6l-0.5,1.2
		c-0.4,0.8-0.7,1.6-1.1,2.3l-1.4,2.1l-0.6,1.1c-0.2,0.3-0.5,0.7-0.7,1l-1.4,2c-0.2,0.3-0.5,0.6-0.7,0.9l-0.8,0.9
		c-0.5,0.6-1,1.2-1.5,1.7l-1.6,1.6c-3.9,3.7-8.6,6.5-13.6,8.4c-3.8,1.5-7.7,2.4-11.8,2.7l-1.2,0.1c-0.4,0-0.8,0-1.1,0h-2.1
		c-0.6,0-1.2,0-1.8-0.1l-1.5-0.2l-2-0.3L392.9,173.5z"/>
	<path id="elxkukdu0d6nl" class="st1" d="M390,123h5.9c0-2.8,2.2-5,5-5c0,0,0.1,0,0.1,0c2-0.1,3.8,1.1,4.6,3
		c0.6,1.6,0.5,3.3-0.4,4.7c-1,1.6-3.2,3.1-7.1,2.4v13.2h5.8v-7.7c4.9-1.4,8.2-6,8.1-11.1c0-8.6-7.7-10.6-11-10.6
		C398.4,112.1,389.9,112.7,390,123z"/>
	<rect id="elvs7l2yq8378" x="398" y="144.2" class="st1" width="5.9" height="5.5"/>
</g>
<g id="freepik--Character--inject-34">
	<path id="elqihjqlwsola" class="st1" d="M252.2,143.2c-5.9-4.5-6.5-13.7-2.6-19.9s11.4-9.6,18.7-10.1c10.8-0.7,21.3,3.8,28.2,12.2
		c3.6,4.5,6.4,10.1,11.6,12.5c4.6,2.1,10,1,15,2.1c6.6,1.5,12,6.7,14.9,12.9s3.7,13,3.9,19.8c0.2,6.2,0.1,13,4,17.9
		s10.3,6.3,15.2,9.8c9.2,6.7,11.1,21.5,3.9,30.4c-2.3,2.8-5.5,5.3-6.1,8.9c-0.5,3.3,1.4,6.4,2.1,9.7c1.9,8.4-5.6,17.4-14.2,17.2
		c-4.3-0.1-8.8-2.2-12.8-0.6s-5.8,6.1-8.6,9.4c-5.8,6.6-15.3,8.2-23,3.9c-3-1.8-5.8-4.6-9.3-4.7s-6.5,2.7-10.1,3
		c-4.6,0.5-8.6-3.2-10.9-7.2s-3.8-8.5-7-11.9c-4.1-4.4-10.4-5.9-15.9-8.4c-23.6-10.5-34.2-38.2-23.7-61.8c0.9-2,1.9-4,3.1-5.8"/>
	<path id="els775nu4rq7" class="st5" d="M310.5,229.9c1.5-1.4,3.3-2.3,5.3-2.9l-0.4-0.1c0.4-0.1,0.7-0.1,1.1-0.1
		c1.4-0.3,2.8,0,3.9,0.8l0,0c2.1,1,3.8,2.7,4.7,4.9c1.4,3.9,0.5,8.2-2.3,11.2c-2.4,2.6-6.1,4.1-9.5,3c-3-1-5.1-4.1-5.7-7.2
		C306.9,236.1,308,232.4,310.5,229.9z"/>
	<path id="elrdsmwoq3ecc" class="st6" d="M320.2,187.8c-0.1-17.6-10.4-39.8-28-39l-55.3,10.5c-5.3,0.2-9.6,4.5-9.8,9.9l-7.6,148.3
		l62.6-0.3c0.8-10.6,3.6-40.5,3.6-40.4s24.4-2.3,30.7-31.2C319.6,231.1,320.2,207.3,320.2,187.8z"/>
	<path id="elzsk0wry35a" class="st1" d="M307,211.7c-0.1,2-1.8,3.6-3.8,3.6c-2,0-3.6-1.5-3.7-3.5c0,0,0-0.1,0-0.1
		c0.1-2,1.8-3.6,3.8-3.6C305.4,208,307,209.6,307,211.7C307,211.6,307.1,211.7,307,211.7z"/>
	<path id="elfqq2gn0s0yw" class="st1" d="M314.3,197.8c-0.5,0.5-3.2-1.8-7.2-2s-7.1,1.6-7.5,1.1c-0.2-0.2,0.3-1.1,1.7-1.9
		c1.8-1.1,3.9-1.6,6-1.5c2.1,0.1,4.1,0.9,5.8,2.2C314.2,196.7,314.5,197.6,314.3,197.8z"/>
	<path id="el2ftsvp8iaka" class="st1" d="M270.8,209.2c-0.1,2-1.8,3.6-3.8,3.6c-2,0-3.6-1.5-3.7-3.5c0,0,0-0.1,0-0.1
		c0.1-2,1.8-3.6,3.8-3.6C269.1,205.6,270.8,207.1,270.8,209.2C270.8,209.1,270.8,209.2,270.8,209.2z"/>
	<path id="elwepsxxfp78q" class="st1" d="M274.7,196.2c-0.5,0.5-3.2-1.8-7.2-2s-7.1,1.6-7.5,1.1c-0.2-0.2,0.3-1.1,1.7-1.9
		c1.8-1.1,3.9-1.6,6-1.5c2.1,0.1,4.1,0.9,5.7,2.2C274.5,195.1,274.9,196,274.7,196.2z"/>
	<path id="elw8m7ircfhh" class="st1" d="M287.5,227c0-0.2,2.5-0.5,6.6-0.8c1,0,2-0.2,2.2-0.9s-0.1-1.9-0.5-3.1l-2.6-8
		c-3.6-11.4-6.1-20.8-5.6-20.9s3.7,9,7.3,20.4c0.9,2.8,1.7,5.5,2.4,8.1c0.3,1.2,0.9,2.6,0.3,4.1c-0.3,0.7-1,1.2-1.8,1.4
		c-0.6,0.1-1.2,0.2-1.8,0.1C290,227.4,287.5,227.2,287.5,227z"/>
	<path id="elzf5s4s6fqlq" class="st7" d="M285.9,276.4c0,0-18,0.2-36.7-12.7c0,0,6.5,22.4,35.9,21.4L285.9,276.4z"/>
	<path id="elfobb5v8s50s" class="st7" d="M286.3,236.5c-1.7-2.8-4.6-4.6-7.9-4.8c-2.1-0.1-4.2,0.9-5.5,2.6c-1.3,1.9-1.4,4.5-0.3,6.5
		c1.4,2.1,3.9,3.2,6.4,2.7c2.3-0.4,4.3-1.9,6.1-3.3c0.6-0.4,1-0.9,1.4-1.4c0.4-0.6,0.4-1.4,0-2.1"/>
	<path id="elsf1note2bkk" class="st1" d="M275.5,229.1c0.7,0,0.4,4.4,4,7.7s8.2,3.1,8.2,3.7c0,0.3-1.1,0.8-3.1,0.7
		c-2.6-0.1-5-1.1-6.9-2.9c-1.8-1.7-2.9-4-3-6.4C274.6,230.1,275.2,229,275.5,229.1z"/>
	<path id="elw7j4kiwmvlr" class="st1" d="M277.4,179.8c-0.5,1.1-4.5,0.3-9.2,0.6s-8.7,1.4-9.2,0.3c-0.2-0.5,0.5-1.5,2.1-2.4
		c4.3-2.4,9.5-2.7,14-0.7C276.8,178.3,277.6,179.2,277.4,179.8z"/>
	<path id="el9t4so27b8dg" class="st1" d="M313.7,183.9c-0.8,0.9-3.5-0.2-6.8-0.5s-6.2,0.2-6.8-0.8c-0.3-0.5,0.2-1.4,1.5-2.2
		c3.5-1.9,7.9-1.5,11,1C313.7,182.5,314.1,183.5,313.7,183.9z"/>
	<path id="elceahr1rk33j" class="st1" d="M340.4,181.4c-1-4.5-3.1-8.9-6.7-11.7c-2-1.6-4.3-2.6-6.1-4.3c-3.9-3.8-4.4-9.8-6.5-14.7
		c-2.9-6.5-8.8-11.2-15.8-12.6c-5.7-1.1-11.8,0.1-17.3-1.8c-4.1-1.4-7.5-4.4-11.6-5.6c-8.1-2.3-16.2,2.9-22.7,8.3
		c-0.5,5.9,3.8,10.2,8,14.4c4.3,4.2,10.2,6.3,16.1,5.8c4.5-0.4,9.7-2.2,13.3,0.5c3.9,2.9,3.5,9,6.8,12.5c4.8,4.9,13.4,1.4,19.8,4
		c4.9,1.9,7.7,7.1,10.7,11.4s7.7,8.7,12.9,7.6C341.3,190.5,341.4,185.9,340.4,181.4z"/>
	<path id="el8ate7vuo39s" class="st1" d="M281,151.1c-3.6-1.4-10.9-4.4-12.6-7.8c-3.7-7.3-10.8-12.7-18.6-13
		c-8.3-0.1-15.6,5.3-18,13.2c-9.3-0.8-19,4.3-24.2,12.7c-0.7,1.1-1.2,2.2-1.8,3.3c-3.4,5-4.4,11.2-2.9,17c1,3.4,2.8,7.3,0.8,10.3
		s-6.4,2.7-10,3.6c-6.3,1.8-10.5,7.8-9.8,14.3c0.3,2.2,1.1,4.6,0.5,6.7s-2.8,3.7-4.5,5.4c-6.6,6.6-6.6,17.3,0,23.8
		c2.1,2.1,4.6,3.6,7.4,4.3c2.6,0.7,5.4,0.8,7.6,2.4c2.4,1.8,3.3,5.1,4.9,7.6c3.3,5.1,9.4,7.6,15.2,6.3c1.2-0.3,2.3-0.7,3.3-1.3
		c1.5,2.6,4.1,4.5,8.9,4.9l4.3-61.5c0.6,1.6,1.8,2.8,3.5,3.2c9.7,3.1,12.9-17.1,11.2-22.8c3.9-2.9,7.7-5.7,10.8-9.5
		s6.4-14.5,6.3-19.5C267,155.4,282.5,151.7,281,151.1z"/>
	<path id="elj7zxhwi708" class="st6" d="M234,208.7c0.2-6.3-7.3-8.3-13-5.6c-3.1,1.4-5.7,4.7-6,11.4c-0.8,17.7,17.1,14.9,17.2,14.4
		C232.2,228.5,233.7,216,234,208.7z"/>
	<path id="elz4pfwyye0vq" class="st7" d="M227.1,221.9c-0.1-0.1-0.3,0.2-0.9,0.4c-0.7,0.3-1.6,0.3-2.3-0.1c-1.8-0.8-3.3-3.8-3.2-7
		c0-1.5,0.4-3,1.1-4.4c0.4-1.1,1.3-2,2.4-2.3c0.7-0.2,1.5,0.2,1.8,0.9c0.2,0.5,0.1,0.9,0.2,0.9s0.4-0.3,0.3-1
		c-0.1-0.4-0.3-0.9-0.6-1.1c-0.5-0.4-1.1-0.6-1.7-0.5c-1.5,0.2-2.8,1.2-3.4,2.6c-0.8,1.5-1.3,3.2-1.3,4.9c-0.1,3.6,1.6,7,4.1,7.9
		c0.9,0.3,2,0.2,2.8-0.3C227,222.3,227.1,221.9,227.1,221.9z"/>
	<path id="elpw72kphtwi8" class="st5" d="M257.1,144.2c0.1,0.2-1.8,0.4-3.8,2.6s-3,6.8-2.4,12.1l0.1,0.4l-0.4,0.1
		c-5.3,0.9-9.8,4.3-12.3,9c-0.7,1.3-1.1,2.8-1.3,4.2c-0.1,1.6,0,3.2,0.1,4.7c0.2,1.7,0.3,3.4,0.2,5.1c0,1.9-0.7,3.6-1.9,5.1
		c-2.5,3.1-6.2,4.5-9.4,5.8c-3.1,1.1-6.1,2.6-8.7,4.6c-4.3,3.6-7.2,8.7-7.9,14.2c-0.5,3.8,0,7.6,1.4,11.1c1,2.5,1.9,3.8,1.7,3.8
		c-0.3-0.3-0.5-0.6-0.7-0.9c-0.6-0.9-1.1-1.8-1.5-2.8c-1.6-3.6-2.2-7.5-1.8-11.4c0.6-5.8,3.5-11.2,8-15c2.7-2.1,5.7-3.8,9-4.9
		c3.2-1.3,6.6-2.7,8.8-5.4c2.2-2.5,1.6-6.1,1.4-9.3c-0.2-1.7-0.2-3.3-0.1-5c0.2-1.6,0.7-3.2,1.4-4.6c2.7-5.1,7.5-8.5,13.2-9.4
		L250,159c-0.6-5.5,0.7-10.2,2.9-12.6c0.8-0.9,1.9-1.6,3-2C256.3,144.3,256.7,144.2,257.1,144.2z"/>
	<path id="eln2ooeze0q2" class="st5" d="M219.9,227.9c1.5-1.4,3.3-2.3,5.3-2.9l-0.4-0.1c0.4,0,0.7-0.1,1.1-0.1
		c1.4-0.3,2.8,0,3.9,0.8l0,0c2.1,1,3.8,2.7,4.7,4.9c1.4,3.9,0.5,8.2-2.3,11.2c-2.4,2.6-6.1,4.1-9.5,3c-3-1-5.1-4-5.7-7.2
		C216.3,234.1,217.3,230.4,219.9,227.9z"/>
	<path id="el1wwdixkan7e" class="st2" d="M156.4,308.3c0,0-76.4,74.1-75.7,98.1c0,0.4-0.1,0.8-0.2,1.2c-2.8,15.7,8.6,30.4,24.5,32.4
		l29.5,3.7l63.1-81.3l-17.1-45.4L156.4,308.3z"/>
	<path id="elb123km21av6" class="st2" d="M130,344.8c0,0,12.3-20.8,26.4-36.5c13.3-14.8,31.1-19,35-19.2c14.6-0.7,76.2,3.5,115.7,5
		c14.7,0.6,29.2,9.1,38.8,20.2c21.5,24.9,59.1,69.3,66.7,82.9c10.7,19.4,3.2,63.4-4.3,69.3s-238.3-4.1-238.3-4.1L130,344.8z"/>
	<path id="eloedvchq8i9l" class="st1" d="M389.5,397.3c-0.2,0-0.3,0-0.5,0l-1.4,0l-1,0c-0.4,0-0.8,0-1.2,0c-1,0-1.9,0.1-2.9,0.1
		l-1.7,0.2c-0.6,0.1-1.2,0.2-1.8,0.3c-1.2,0.2-2.5,0.5-3.9,0.9c-5.9,1.7-11.3,4.7-15.9,8.8c-1,0.9-1.9,1.8-2.8,2.8
		c-0.4,0.5-0.8,0.9-1.2,1.4s-0.7,0.9-1,1.3c-0.6,0.8-1.1,1.5-1.6,2.3c-0.2,0.4-0.5,0.7-0.7,1l-0.5,0.9c-0.3,0.5-0.5,0.9-0.7,1.2
		s-0.3,0.4-0.3,0.4c0-0.2,0.1-0.3,0.2-0.5c0.2-0.3,0.4-0.7,0.6-1.2l0.5-0.9c0.2-0.3,0.4-0.6,0.6-1c0.5-0.8,1-1.6,1.6-2.4
		c0.3-0.4,0.7-0.9,1-1.4s0.8-0.9,1.2-1.4c0.9-1,1.8-2,2.8-2.9c4.6-4.2,10.1-7.2,16.1-8.9c1.3-0.4,2.7-0.6,4-0.9
		c0.6-0.1,1.2-0.2,1.8-0.3l1.7-0.1c1-0.1,1.9-0.1,2.9-0.1c0.4,0,0.8,0,1.2,0l1,0.1l1.4,0.1C389.2,397.2,389.3,397.3,389.5,397.3z"/>
	<path id="elsuds2j1pmp" class="st1" d="M185.6,394.2c-0.1-0.2-0.1-0.5-0.2-0.7l-0.4-2c-0.4-1.7-1-4.2-1.9-7.3
		c-2.4-8-5.3-15.8-8.5-23.5c-3.8-9-7.6-17-10.6-22.6c-0.7-1.4-1.4-2.7-2.1-3.8s-1.1-2.1-1.6-2.8l-1-1.8c-0.1-0.2-0.2-0.4-0.3-0.6
		c0.2,0.2,0.3,0.4,0.4,0.6l1.1,1.7c0.5,0.7,1,1.7,1.7,2.8s1.4,2.4,2.1,3.8c4,7.3,7.6,14.8,10.7,22.5c3.3,7.7,6.1,15.5,8.4,23.6
		c0.9,3.1,1.4,5.6,1.8,7.4c0.1,0.9,0.2,1.5,0.3,2C185.5,393.7,185.6,393.9,185.6,394.2z"/>
	<path id="elgx4x7mjk5wn" class="st1" d="M338,329.7c0,0.1,0,0.2,0,0.2v0.7c0,0.7,0,1.6,0,2.8c0,2.5-0.1,6-0.3,10.4
		c-0.4,8.8-1.1,20.9-2.5,34.2s-3,25.3-4.4,34c-0.7,4.3-1.3,7.8-1.7,10.2c-0.2,1.2-0.4,2.1-0.5,2.8l-0.1,0.7c0,0.1,0,0.2-0.1,0.2
		c0-0.1,0-0.2,0-0.2c0-0.2,0.1-0.4,0.1-0.7c0.1-0.7,0.2-1.6,0.4-2.8c0.4-2.5,0.9-6,1.6-10.3c1.3-8.7,2.9-20.7,4.2-34
		s2.1-25.4,2.6-34.1c0.2-4.3,0.4-7.9,0.5-10.4c0.1-1.2,0.1-2.1,0.1-2.8c0-0.3,0-0.5,0-0.7C338,329.9,338,329.8,338,329.7z"/>
	<path id="el3pcmuy61nzp" class="st2" d="M295.5,286.8c-0.9-0.5-1.8-0.8-2.8-0.8l-68.6-7.5c-2.3-0.3-5-0.4-6.8,1.1
		c-2.3,2-1.9,5.6-0.9,8.4s2.6,5.7,2,8.6l73.7,4.6c-0.5-2.7,1.6-5,3.2-7.2S297.7,288.4,295.5,286.8z"/>
	<path id="elhlml0jyytdq" class="st1" d="M298.7,299.8c-0.3,0.1-0.5,0.2-0.8,0.2l-2.3,0.5c-1,0.2-2.3,0.5-3.7,0.7s-3.1,0.5-5,0.8
		l-2.9,0.4c-1,0.1-2.1,0.2-3.2,0.3c-2.2,0.2-4.5,0.3-7,0.4c-5.3,0.2-10.7,0-16-0.4c-5.3-0.5-10.6-1.2-15.9-2.3
		c-2.4-0.5-4.7-1-6.8-1.6c-1.1-0.3-2.1-0.5-3.1-0.8l-2.8-0.8c-1.8-0.5-3.4-1.1-4.8-1.6s-2.6-0.9-3.6-1.3l-2.2-0.9
		c-0.3-0.1-0.5-0.2-0.8-0.3c0.3,0.1,0.5,0.1,0.8,0.2l2.2,0.8c1,0.4,2.2,0.8,3.6,1.2s3,1,4.8,1.5l2.8,0.8c1,0.3,2,0.5,3.1,0.8
		c2.1,0.6,4.4,1,6.8,1.5c10.4,2.1,21.1,3,31.7,2.6c2.5-0.1,4.8-0.2,7-0.4c1.1-0.1,2.1-0.1,3.1-0.3l2.9-0.3c1.8-0.2,3.5-0.5,5-0.7
		s2.7-0.4,3.7-0.6l2.4-0.4C298.2,299.9,298.4,299.8,298.7,299.8z"/>
	<g id="elo63f02zbo8l">
		<g id="ellui3j7rmp1" class="st8">
			<path id="el3d9t7uxr2id" d="M130.9,372.6c-13.4,2.4-24.4,12-28.4,25c3.4-1.1,6.7-4.1,9.2-6.7c6.5-6.8,14.5-11.4,23.9-12.4
				c6.5-0.7,12.6,1,18.7,3.4c2.7,1.1,5.8,1.7,8.2,3.3l3.2,0.7C158.2,375,144.1,370.5,130.9,372.6z"/>
		</g>
	</g>
	<g id="el6pvtvucjn93">
		<g id="elebnwg809x2" class="st8">
			<path id="elj0bf8h0ylr" d="M223.2,295c9.8,8.8,22.5,15.1,35.6,16.1c13.1,1,25.7-3.2,36.6-10.6C268.8,304.6,244.5,303.2,223.2,295
				z"/>
		</g>
	</g>
	<g id="elpij82j74qd">
		<g id="elx0qvn283qkh" class="st8">
			<path id="el9op0znmiz78" d="M390.7,389.7c-2.1-1.4-4.9-1.3-7.4-1c-15.9,1.9-31.2,12.7-32.8,30.1l0,0
				c6.7-12.9,20.4-22.4,34.9-21.1c2.4,0.2,5.3,0.5,6.9-1.4S392.8,391.1,390.7,389.7z"/>
		</g>
	</g>
	<path id="elu6imto3t34g" class="st5" d="M86.8,473l130.1-0.7c0,0-0.9,2.5,4.5,2.5l43-0.3c0,0,3.2,0.3,3.2-2.2
		c0,0,100.8,1.7,125.7,2.4c1.9,0,5.2-1.1,3.6-3.5l-8.7-10.4l-143.9-14l-102,10.7l-35-12.6h-1.2c-1,0-1.9,0.5-2.4,1.2l-18,25
		c-0.4,0.5-0.2,1.2,0.3,1.6C86.3,472.9,86.5,473,86.8,473z"/>
	<g id="elnu59tnt3f9">
		<polygon id="el67w4lia5fb4" class="st9" points="141.8,470 373.5,471.8 319,454.9 251,456.8 183.1,454.1 		"/>
	</g>
	<path id="elfizhwdmgpfu" class="st4" d="M243.1,465.4l1.3-28.5c0,0,0.3-15.7-18.6-20.9s-42.4,1.4-64.4,2.6s-21.7-0.5-21.7-0.5
		l-17.8,27.6l70.1,10.2c0,0,40.6,2.4,41.4,2.6S243.1,465.4,243.1,465.4z"/>
	<path id="elh31f63retv5" class="st4" d="M242.9,466.4l1.5-26.8c0,0-0.3-15.6,18.6-20.9s42.4,1.4,64.4,2.6
		c15.4,0.8,20.2,0.7,21.6,0.5c0.4,0,0.8,0.1,1.1,0.5l16.9,26.1l-70.1,10.2c0,0-40.6,2.4-41.4,2.6S242.9,466.4,242.9,466.4z"/>
	<path id="elkjzecwvb7y" class="st0" d="M91.2,470.9l30.5-25.2c0,0,63.2-10.7,84.7-6.9s33.7,11.2,36.6,26.9l-20.6,5.2
		c-8.5-4.3-17.9-6.7-27.4-6.9c-15.5-0.2-54.3,6.9-54.3,6.9L91.2,470.9z"/>
	<path id="elz70fn2jg8i" class="st0" d="M264.9,470.9l-21.7-5.5c0,0,1.6-24.9,36.9-29.1c0,0,10-3.2,45.4,3.4s39.1,6.4,39.1,6.4
		l29.5,26.1c0,0-17.6,1.4-32.1-1.4s-39.8-12.6-67.3-9.7S264.9,470.9,264.9,470.9z"/>
	<polygon id="elq2n3ehbaurd" class="st0" points="121.8,445.7 139,419 108.4,443.5 89,470.9 91.2,470.9 	"/>
	<path id="elu1nilmpnig" class="st0" d="M364.4,446.2l-14.1-23.7c0,0,28,24.4,28.3,25.1s15.3,24.7,15.3,24.7L364.4,446.2z"/>
	<polyline id="elexuoedf354b" class="st1" points="221.4,470.9 264.8,470.9 243.1,465.4 241.9,465.6 	"/>
	<path id="elvsbfr69jk9" class="st1" d="M243.1,465.4c-0.1,0,0-6.2,0.3-13.9s0.7-13.9,0.9-13.9s0,6.2-0.3,13.9
		S243.2,465.4,243.1,465.4z"/>
	<path id="eltdb2d5xzu5" class="st1" d="M152.2,441.3c-0.2,0.1-0.4,0.1-0.6,0.1l-1.7,0.3l-6.4,1l-21.7,3.3l0.1,0l-4.2,3.2
		l-20.2,15.4l-6.2,4.6l-1.7,1.2c-0.2,0.2-0.4,0.3-0.6,0.4c0.2-0.2,0.3-0.3,0.6-0.5l1.6-1.3l6.1-4.8l20.2-15.6l4.2-3.2h0.1h0.1
		l21.7-3l6.4-0.9l1.7-0.2C151.8,441.3,152,441.3,152.2,441.3z"/>
	<path id="elgxtgnar8wlc" class="st1" d="M240.2,450.5c0,0-0.1-0.1-0.2-0.2l-0.5-0.6c-0.5-0.5-1.2-1.4-2.1-2.3
		c-2.8-2.7-5.9-5-9.4-6.8c-5.1-2.6-10.6-4.4-16.3-5.2c-7-1-14-1.5-21.1-1.4c-12.8,0-25.6,0.9-38.3,2.9c-4.9,0.8-8.8,1.5-11.5,2
		l-3.1,0.6l-0.8,0.2c-0.1,0-0.2,0-0.3,0l0.3-0.1l0.8-0.2c0.7-0.2,1.7-0.4,3.1-0.7c2.7-0.6,6.6-1.4,11.4-2.2
		c12.7-2.1,25.5-3.1,38.3-3.1c7.1-0.1,14.2,0.4,21.1,1.5c5.7,0.9,11.3,2.7,16.4,5.4c3.5,1.8,6.6,4.2,9.3,7c0.7,0.8,1.4,1.6,2.1,2.4
		l0.5,0.7C240.1,450.3,240.2,450.4,240.2,450.5z"/>
	<path id="elxstels2u87l" class="st1" d="M240.2,447c0,0-0.1-0.1-0.2-0.2l-0.5-0.6c-0.2-0.3-0.5-0.6-0.8-0.9s-0.7-0.8-1.1-1.2
		c-2.5-2.5-5.4-4.7-8.6-6.5c-4.7-2.6-9.8-4.4-15-5.4c-6.4-1.2-12.9-1.8-19.5-1.8c-11.9-0.2-23.8,0.4-35.5,1.9
		c-4.5,0.6-8.2,1.1-10.7,1.6l-2.9,0.5l-0.8,0.1h-0.3l0.2-0.1l0.8-0.2c0.6-0.1,1.6-0.4,2.9-0.6c2.5-0.5,6.1-1.1,10.7-1.7
		c11.8-1.6,23.7-2.3,35.6-2c6.6,0,13.1,0.6,19.6,1.8c5.3,1,10.4,2.9,15.1,5.5c3.2,1.8,6,4,8.5,6.6c0.4,0.5,0.8,0.9,1.1,1.3
		s0.6,0.7,0.8,1l0.4,0.6C240.1,446.9,240.2,446.9,240.2,447z"/>
	<path id="elos9tizrgtrb" class="st1" d="M240.2,443.5c0,0-0.1,0-0.2-0.2l-0.5-0.6c-0.2-0.3-0.5-0.6-0.8-0.9
		c-0.3-0.3-0.7-0.8-1.1-1.2c-2.5-2.5-5.3-4.7-8.5-6.4c-4.6-2.6-9.6-4.4-14.8-5.4c-6.4-1.2-12.8-1.8-19.3-1.8
		c-11.8-0.3-23.5,0.3-35.2,1.8c-4.5,0.5-8.1,1.1-10.6,1.5l-2.9,0.5l-0.8,0.1c-0.1,0-0.2,0-0.3,0l0.2-0.1l0.7-0.2
		c0.7-0.1,1.6-0.3,2.9-0.6c2.5-0.5,6.1-1.1,10.6-1.7c11.7-1.5,23.5-2.2,35.3-1.9c6.5,0,13,0.7,19.4,1.9c5.2,1,10.3,2.9,14.9,5.5
		c3.1,1.8,6,4,8.4,6.6c0.4,0.5,0.8,0.9,1.1,1.3s0.6,0.7,0.8,1l0.4,0.6C240.1,443.4,240.2,443.4,240.2,443.5z"/>
	<path id="eluvd7u6p9dp" class="st1" d="M240.2,440c0,0-0.1,0-0.2-0.2l-0.5-0.6c-0.4-0.5-1-1.2-1.9-2.1
		c-6.1-6.2-13.8-10.6-22.3-12.4c-5.7-1.3-12.1-1.3-18.9-1.2c-13.5,0.1-25.7,0.7-34.5,1.6c-4.4,0.4-8,0.9-10.4,1.3l-2.8,0.4l-0.7,0.1
		c-0.1,0-0.2,0-0.2,0c0.1,0,0.2,0,0.2-0.1l0.7-0.2c0.6-0.1,1.6-0.3,2.8-0.5c2.4-0.4,6-1,10.4-1.5c11.5-1.2,23-1.7,34.5-1.7
		c6.7-0.1,13.2,0,19,1.3c5.1,1.1,10,3.1,14.3,6c2.9,1.9,5.6,4.2,8,6.7c0.6,0.7,1.3,1.4,1.8,2.2l0.4,0.6
		C240.1,439.9,240.2,439.9,240.2,440z"/>
	<path id="elgisunu5itz" class="st1" d="M240.2,436.5c0,0-0.1,0-0.2-0.2l-0.5-0.6c-0.4-0.5-1-1.2-1.8-2.2c-2.3-2.6-4.9-4.9-7.7-6.9
		c-2-1.3-4.1-2.5-6.3-3.4c-2.5-1-5.2-1.7-7.9-2.2c-6.2-1-12.5-1.4-18.8-1.2c-13.4,0.4-25.5,1.7-34.2,2.4c-4.4,0.4-7.9,0.6-10.4,0.8
		l-2.8,0.1h-0.7h-0.2h0.2l0.7-0.1l2.8-0.2l10.4-0.9c8.8-0.8,20.8-2.1,34.2-2.5c6.3-0.3,12.7,0.1,18.9,1.2c2.7,0.5,5.4,1.3,8,2.3
		c2.2,0.9,4.3,2.1,6.3,3.5c2.9,2,5.4,4.4,7.7,7c0.8,0.9,1.4,1.7,1.8,2.2l0.4,0.6C240.2,436.4,240.2,436.5,240.2,436.5z"/>
	<path id="el95rim2uscq" class="st1" d="M246.5,449.5c0,0,0.1-0.1,0.2-0.2l0.5-0.6c0.7-0.8,1.4-1.6,2.1-2.4c2.8-2.8,6-5.1,9.5-6.8
		c5.2-2.6,10.8-4.3,16.5-5.1c7-0.9,14.1-1.3,21.2-1.1c12.8,0.2,25.7,1.4,38.3,3.8c4.8,0.9,8.7,1.8,11.4,2.4c1.3,0.3,2.4,0.6,3.1,0.8
		l0.8,0.2c0.1,0,0.2,0,0.3,0.1c-0.1,0-0.2,0-0.3,0l-0.8-0.2l-3.1-0.7c-2.7-0.6-6.6-1.4-11.4-2.2c-12.6-2.2-25.4-3.4-38.2-3.6
		c-7-0.2-14.1,0.1-21.1,1c-5.7,0.8-11.3,2.4-16.4,4.9c-3.5,1.7-6.7,3.9-9.5,6.6c-1,1-1.7,1.7-2.2,2.3l-0.5,0.6L246.5,449.5z"/>
	<path id="eld65tz8mhu6o" class="st1" d="M246.6,446l0.1-0.2l0.5-0.6c0.2-0.3,0.5-0.6,0.8-1s0.7-0.8,1.1-1.2
		c2.5-2.6,5.5-4.8,8.6-6.5c4.7-2.5,9.9-4.3,15.1-5.2c6.5-1.1,13-1.6,19.6-1.5c11.9,0,23.8,0.9,35.6,2.7c4.5,0.7,8.1,1.4,10.6,1.9
		c1.2,0.2,2.2,0.5,2.9,0.6l0.7,0.2c0.1,0,0.2,0,0.2,0.1c-0.1,0-0.2,0-0.3,0l-0.8-0.1l-2.9-0.5c-2.5-0.5-6.1-1.1-10.7-1.8
		c-11.8-1.7-23.6-2.5-35.5-2.5c-6.5-0.1-13.1,0.4-19.5,1.4c-5.3,0.9-10.3,2.6-15.1,5.1c-3.2,1.7-6.1,3.8-8.7,6.3
		c-0.5,0.4-0.9,0.9-1.2,1.2s-0.6,0.7-0.8,0.9l-0.5,0.6L246.6,446z"/>
	<path id="el55rqe13h0rj" class="st1" d="M246.6,442.5c0,0,0-0.1,0.1-0.2l0.5-0.6c0.2-0.3,0.5-0.7,0.8-1c0.4-0.4,0.7-0.9,1.1-1.2
		c2.5-2.6,5.4-4.7,8.5-6.4c4.7-2.5,9.8-4.3,15-5.2c6.4-1.1,12.9-1.6,19.4-1.5c11.8-0.1,23.6,0.8,35.2,2.6c4.5,0.7,8.1,1.4,10.5,1.9
		c1.2,0.2,2.2,0.5,2.9,0.6l0.7,0.2c0.1,0,0.2,0,0.2,0.1c-0.1,0-0.2,0-0.3,0l-0.7-0.1l-2.9-0.5c-2.5-0.5-6.1-1.1-10.6-1.7
		c-11.7-1.7-23.4-2.5-35.2-2.4c-6.5-0.1-12.9,0.4-19.3,1.5c-5.2,0.9-10.2,2.6-14.9,5.1c-3.1,1.7-6,3.8-8.6,6.3
		c-0.4,0.4-0.8,0.8-1.2,1.2s-0.6,0.7-0.8,0.9l-0.5,0.6C246.7,442.5,246.6,442.5,246.6,442.5z"/>
	<path id="elv9dibnh8wc" class="st1" d="M246.7,436.5c0.7-1,1.6-2,2.5-2.9c2.6-2.3,5.5-4.2,8.7-5.5c2.2-0.9,4.4-1.8,6.7-2.5
		c2.6-0.9,5.2-1.6,7.9-2.1c5.7-1.1,12.1-1,18.8-0.8c13.3,0.4,25.3,2.1,34,3.1l10.3,1.2l2.8,0.3l0.7,0.1l0.2,0h-0.2h-0.7l-2.8-0.2
		c-2.4-0.2-6-0.6-10.3-1.1c-8.7-0.9-20.6-2.5-34-2.9c-6.6-0.2-13-0.3-18.7,0.7c-2.7,0.5-5.3,1.2-7.9,2c-2.5,0.8-4.7,1.5-6.7,2.4
		c-3.2,1.3-6.1,3.1-8.8,5.3c-0.4,0.4-0.8,0.7-1.2,1.1c-0.3,0.3-0.6,0.6-0.8,0.9l-0.5,0.5C246.8,436.5,246.7,436.5,246.7,436.5z"/>
	<path id="elipwnkhgsn9" class="st2" d="M290.1,445.6v16.9l5.6-5.1l5.5,4.8l0.3-16.5C301.6,445.8,292.5,445.3,290.1,445.6z"/>
	<path id="elvxehghpg0ih" class="st1" d="M353.6,455.4l-0.3,0l-0.8-0.2l-3.2-0.8c-2.8-0.7-6.8-1.6-11.7-2.5s-10.9-2-17.5-3.1
		l-10.4-1.7c-3.7-0.7-7.4-1.1-11.2-1.2c-3.8-0.2-7.5-0.1-11.3,0.2c-3.5,0.2-7,0.7-10.4,1.5c-5.8,1.4-11.2,4-15.9,7.6
		c-1.8,1.4-3.5,2.9-5.1,4.5c-1.4,1.4-2.6,2.7-3.6,3.7l-2.1,2.5l-0.6,0.6c-0.1,0.1-0.2,0.2-0.2,0.2l0.2-0.2l0.5-0.7
		c0.5-0.6,1.2-1.4,2.1-2.5s2.1-2.4,3.5-3.8c1.6-1.6,3.3-3.2,5.1-4.6c4.7-3.7,10.2-6.4,16-7.8c3.4-0.8,6.9-1.4,10.4-1.6
		c3.8-0.3,7.5-0.3,11.3-0.2c3.8,0.1,7.5,0.6,11.2,1.2l10.4,1.7c6.6,1.1,12.6,2.2,17.5,3.2s9,2,11.7,2.7c1.4,0.4,2.4,0.6,3.1,0.9
		l0.8,0.2C353.4,455.4,353.5,455.4,353.6,455.4z"/>
	<path id="elpnspwjx9rx" class="st1" d="M235.7,467c0,0-0.1-0.1-0.2-0.2l-0.7-0.8c-0.3-0.3-0.7-0.8-1.1-1.2s-1-1-1.6-1.6
		c-3.5-3.3-7.5-6.1-11.9-8.2c-6.4-3.2-13.4-5.3-20.5-6.2c-8.7-1.1-17.6-1-26.3,0.2c-9.3,1.1-18,3-26,4.6s-15.1,3.1-21.2,3.9
		c-4.8,0.7-9.6,1.2-14.5,1.4c-1.7,0-3.1,0.1-4,0h-1h-0.3h0.3h1c0.9,0,2.2-0.1,3.9-0.1c4.8-0.3,9.7-0.8,14.4-1.5
		c6.1-0.9,13.2-2.4,21.2-4s16.7-3.5,26-4.7c8.8-1.2,17.6-1.2,26.4-0.1c7.2,1,14.1,3.1,20.6,6.4c4.4,2.2,8.4,4.9,11.9,8.3l1.6,1.6
		c0.4,0.5,0.8,0.9,1.1,1.3l0.7,0.8C235.5,466.8,235.6,466.9,235.7,467z"/>
	<path id="elvceoc1lxv9a" class="st1" d="M235.7,470.5c0,0-0.1-0.1-0.2-0.2l-0.7-0.8c-0.3-0.3-0.7-0.8-1.1-1.2l-1.6-1.6
		c-3.5-3.3-7.5-6.1-11.9-8.2c-6.4-3.2-13.4-5.3-20.5-6.2c-8.7-1.1-17.6-1-26.3,0.2c-9.3,1.1-18,3-26,4.6s-15.1,3.1-21.2,3.9
		c-4.8,0.7-9.6,1.2-14.5,1.4c-1.7,0-3.1,0.1-4,0h-1h-0.3h0.3h1c0.9,0,2.2-0.1,3.9-0.1c4.8-0.3,9.7-0.8,14.4-1.5
		c6.1-0.9,13.2-2.4,21.2-4s16.7-3.5,26-4.7c8.8-1.2,17.6-1.2,26.4-0.1c7.2,1,14.1,3.1,20.6,6.4c4.3,2.2,8.3,5.1,11.8,8.4l1.6,1.6
		c0.4,0.5,0.8,0.9,1.1,1.3l0.7,0.8C235.6,470.4,235.7,470.5,235.7,470.5z"/>
	<path id="elj53h8wsgpw" class="st1" d="M225.4,467.5c-0.2-0.1-0.4-0.3-0.6-0.4c-0.4-0.3-0.9-0.7-1.6-1.2c-1.9-1.5-4-2.7-6.1-3.9
		c-3.2-1.7-6.5-3-9.9-3.9c-4.2-1.2-8.5-1.9-12.9-2.2c-8-0.4-15.9,0-23.8,1.2l-7.2,1l-2,0.3c-0.2,0-0.5,0-0.7,0
		c0.2-0.1,0.4-0.1,0.7-0.2l1.9-0.4c1.7-0.3,4.1-0.7,7.2-1.2c7.9-1.3,15.9-1.7,23.9-1.3c4.4,0.3,8.8,1.1,13,2.3c3.5,1,6.8,2.4,10,4.1
		c2.1,1.1,4.1,2.5,6,4c0.7,0.5,1.1,1,1.5,1.3C225,467.1,225.2,467.3,225.4,467.5z"/>
	<path id="el7o9s3xwktjy" class="st6" d="M186.9,396.8l35.3-7.6c0,0,13.2-2.7,15.8-1.3s17.3,13.2,18.6,14.3c1.3,1.1,15.4,18,15.4,18
		s-0.3,5.4-8.1,3.2c-4-1.1-20.9-15.9-20.9-15.9l-4-3.1c0,0,6.2,9.6,6.1,12.7s-4.1,9.4-5.4,10.3s-8.1-0.3-8.1-0.3s-4.8,5.2-8.6,1.1
		c0,0-6.4,6.7-11.6,2.8l-2.8-5.5l-2.7-2.1c0,0-0.4,3.8-3,4.2s-31.6-5.8-31.6-5.8l10-27.3L186.9,396.8z"/>
	<path id="elcnoyoffw5wo" class="st7" d="M224.4,406.4c0.3,0.1,0.6,0.3,0.8,0.5c0.5,0.4,1.2,1,2,1.7c2.2,2,4.1,4.2,5.8,6.6
		c0.5,0.7,0.8,1.5,1.1,2.3c0.3,0.8,0.4,1.6,0.3,2.4c-0.2,1.3-0.5,2.6-1.1,3.9c-0.3,0.8-0.7,1.6-1.2,2.4c-0.2,0.3-0.4,0.5-0.7,0.7
		c0,0,0.2-0.3,0.5-0.8c0.4-0.8,0.8-1.6,1.1-2.4c0.5-1.2,0.8-2.5,0.9-3.8c0-0.4,0-0.7,0-1.1c-0.1-0.4-0.2-0.7-0.3-1.1
		c-0.3-0.8-0.7-1.5-1.1-2.2c-1.7-2.4-3.5-4.6-5.6-6.6C225.4,407.4,224.4,406.5,224.4,406.4z"/>
	<path id="el0oyrkov65o9" class="st7" d="M206.2,409.6c0.3-0.2,0.7-0.3,1.1-0.4c1-0.2,2.1-0.3,3.1-0.1c3.5,0.5,6.6,2.4,8.7,5.2
		c1.1,1.6,1.9,3.3,2.4,5.1c0.4,1.5,0.8,3,1,4.5c0.2,1.3,0.3,2.4,0.4,3.1c0,0.4,0,0.8,0,1.1c-0.1,0-0.3-1.6-0.8-4.2
		c-0.3-1.5-0.7-3-1.1-4.4c-0.5-1.8-1.3-3.5-2.4-5c-1.1-1.5-2.5-2.7-4.1-3.6c-1.3-0.8-2.7-1.3-4.2-1.5
		C208.9,409.3,207.6,409.3,206.2,409.6z"/>
	<path id="elt5s67l7l8u" class="st7" d="M227.1,396c0,0,0.2-0.1,0.6-0.2c0.2,0,0.5-0.1,0.8,0c0.3,0,0.7,0,1,0.1
		c1.9,0.5,3.6,1.4,5,2.7c1.4,1.2,2.7,2.6,3.9,4.1c0.5,0.6,0.9,1.3,1.2,2c-0.6-0.5-1.1-1.1-1.6-1.8c-1.2-1.4-2.5-2.8-3.9-4
		c-1.4-1.2-3-2.2-4.7-2.7C228.6,396.1,227.9,396,227.1,396z"/>
	<path id="elasdwf4zfi8" class="st2" d="M180.7,390.7l-17.7-6.9l-32.6,1.7l-16.2,21.9l-6.5,31.5c0,0,59.6-13.1,61.5-13.3
		s4.9-3.2,4.9-3.2l6.4,1.3l8.1-27.3L180.7,390.7z"/>
	<path id="elv9aqr4z5gpl" class="st1" d="M191.3,394.9l-0.2-0.1l-0.7-0.2l-2.6-1l-9.6-3.7l-14.2-5.6l-8.4-3.3c-3-1.3-6-2.3-9.1-3.1
		c-3.1-0.8-6.3-1.1-9.5-0.7c-3,0.3-5.9,1-8.7,2.1c-4.7,1.9-9.1,4.5-13.1,7.6c-3.4,2.7-6,5-7.8,6.6l-2.1,1.9l-0.6,0.5
		c-0.1,0.1-0.2,0.2-0.2,0.1c0-0.1,0.1-0.1,0.2-0.2l0.5-0.5l2-1.9c1.8-1.7,4.3-4.1,7.8-6.8c4-3.2,8.4-5.9,13.2-7.8
		c2.8-1.1,5.8-1.8,8.8-2.2c3.3-0.3,6.5-0.1,9.7,0.7c3.1,0.8,6.2,1.9,9.2,3.2l8.4,3.3l14.2,5.7l9.6,3.9l2.6,1.1l0.7,0.3L191.3,394.9z
		"/>
	<path id="el5tndea8mss" class="st6" d="M336.4,442.9c-0.7-1.2-1-2.9,0.7-4.9l4.8-2.1c0.5-1.5,1.3-2.8,2.3-4.1c1.2-1.1,3-2.5,3-2.5
		s2.6-3.6,5.2-5.2s8.7-3.1,10.8-5s8.8-7.7,13.5-5.5s8,10.1,11.6,11.7s5,7.1,6.4,9.4s2.9,3.9,3.1,5.6s4.1,5.2,4.9,9.8s0.3,6.3-1.8,8
		s-6.3,5.2-10.4,5.8c-2.3,0.3-5.5,0.5-7.9,0.7c-1.9,0.1-3.7-1-4.5-2.7l-0.3-0.6c0,0-10.6,5.4-15.7,4.7s-3-5.1-3-5.1s-5.2,5-8.4,4
		s-5-0.8-5.3-3.6s2.1-6.1,2.1-6.1s-4.9,0.1-5.3-3.1c-0.1-2.3,0.3-4.6,1.3-6.7l-3.9-0.4C338.4,444.7,337.2,444,336.4,442.9z"/>
	<path id="elt9q2ot8ktcj" class="st7" d="M363.6,421.1c-0.1,0.4-0.3,0.8-0.5,1.1c-0.2,0.4-0.4,0.9-0.7,1.3c-0.3,0.6-0.7,1.1-1,1.6
		c-1,1.4-2.1,2.7-3.2,3.9c-1.3,1.4-2.8,2.8-4.5,4.3s-3.1,2.9-4.4,4.2c-1.2,1.2-2.2,2.5-3.2,3.8c-1.7,2.3-2.3,4-2.4,3.9
		c0.1-0.4,0.3-0.8,0.5-1.2c0.2-0.5,0.4-0.9,0.6-1.3c0.3-0.6,0.6-1.1,1-1.7c1-1.4,2-2.7,3.2-3.9c1.3-1.4,2.8-2.8,4.4-4.3
		s3.1-2.9,4.5-4.2c1.2-1.2,2.3-2.4,3.3-3.8C362.8,422.7,363.5,421.1,363.6,421.1z"/>
	<path id="elkgagjdjhypd" class="st7" d="M376.8,425.5c0,0.1-0.1,0.3-0.1,0.4c-0.1,0.3-0.2,0.6-0.5,1.1c-0.6,1.4-1.3,2.7-2.1,4
		c-2.6,4.3-6,8.1-10,11.1c-2.3,1.8-4.6,3.3-6.7,4.8s-3.9,2.8-5.4,4c-1.2,0.9-2.3,1.9-3.3,3c-0.4,0.4-0.7,0.8-1.1,1.2
		c0.3-0.5,0.6-0.9,1-1.3c1-1.1,2.1-2.2,3.2-3.2c1.5-1.2,3.3-2.6,5.3-4.1s4.4-3,6.7-4.8c2.2-1.6,4.2-3.5,6-5.5c1.5-1.7,2.8-3.5,4-5.3
		c1-1.6,1.7-3,2.2-3.9C376.3,426.5,376.5,426,376.8,425.5z"/>
	<path id="elbnjwvyvw4u8" class="st7" d="M378.5,426.8c0.1,0.1-0.7,1-1.7,1.9s-2,1.6-2.1,1.5s0.7-0.9,1.7-1.9
		C377,427.7,377.7,427.2,378.5,426.8z"/>
	<path id="elpeegwew5ptd" class="st7" d="M384.8,439c-0.1,0.4-0.2,0.9-0.4,1.3c-0.5,1.1-1,2.2-1.7,3.3c-2.4,3.3-5.4,6.1-8.9,8.2
		c-4,2.6-7.7,4.7-10.3,6.3c-1.3,0.8-2.4,1.5-3.1,2c-0.4,0.3-0.7,0.5-1.1,0.7c0.3-0.3,0.6-0.6,1-0.9c0.7-0.5,1.7-1.3,3-2.1
		c2.6-1.8,6.3-3.9,10.3-6.5c3.4-2.1,6.5-4.8,8.9-8C383.2,442,384.1,440.5,384.8,439z"/>
	<path id="elcnibs3cgrns" class="st7" d="M395.1,445.6c-0.1,0.3-0.2,0.6-0.4,0.9c-0.3,0.5-0.7,1.3-1.3,2.2c-1.6,2.3-3.4,4.4-5.5,6.4
		c-1.1,1-2.3,2-3.6,2.9c-1,0.7-2.1,1.4-3.2,2c-0.5,0.3-0.9,0.5-1.3,0.6s-0.7,0.3-1,0.4c-0.3,0.1-0.6,0.2-0.9,0.3
		c0-0.1,1.2-0.6,3-1.7c1.1-0.6,2.1-1.3,3.1-2.1c1.1-0.9,2.3-1.8,3.5-2.9c2-1.9,3.9-4,5.5-6.2C394.3,446.7,395,445.5,395.1,445.6z"/>
	<path id="elb34ucr01kp" class="st7" d="M346.1,434.1c-1.4,0.8-2.9,1.4-4.4,2c-1.5,0.7-3,1.3-4.5,1.8c-0.1-0.2,1.9-1.2,4.3-2.2
		S346,434,346.1,434.1z"/>
	<path id="elcl24wsiy5gg" class="st2" d="M349,415.6c1.7-0.1,3.5,0,5.2,0.2c-3.5,0.2-6.9,0.2-10.4,0
		C345.5,415.6,347.3,415.5,349,415.6z"/>
</g>
</svg>
