<?xml version="1.0" encoding="utf-8"?>
<!-- Generator: Adobe Illustrator 27.2.0, SVG Export Plug-In . SVG Version: 6.00 Build 0)  -->
<svg version="1.1" id="freepik_stories-translator" xmlns:svgjs="http://svgjs.com/svgjs"
	 xmlns="http://www.w3.org/2000/svg" xmlns:xlink="http://www.w3.org/1999/xlink" x="0px" y="0px" viewBox="0 0 500 500"
	 style="enable-background:new 0 0 500 500;" xml:space="preserve">
<style type="text/css">
	.st0{fill:#F5F5F5;}
	.st1{fill:#263238;}
	.st2{fill:#455A64;}
	.st3{fill:#E0E0E0;}
	.st4{fill:#FF7200;}
	.st5{opacity:0.4;}
	.st6{opacity:0.2;}
	.st7{fill:#FAFAFA;}
	.st8{fill:#FFFFFF;}
	.st9{fill:#FFBF9D;}
	.st10{fill:#FF9A6C;}
	.st11{opacity:0.3;}
</style>
<g id="freepik--background-complete--inject-14">
	<g id="elfm43ofcnail">
		<path class="st0" d="M349,275.8h73.7c9.5,0,17.2,7.7,17.2,17.2v26.8c0,9.5-7.7,17.2-17.2,17.2H349c-9.5,0-17.2-7.7-17.2-17.2V293
			C331.8,283.5,339.5,275.8,349,275.8z"/>
	</g>
	<path id="eln0321ilr35p" class="st0" d="M349.1,332.5h13.7l0.6,1.5c0,0-1.9,12.8-18.3,15.4C345.2,349.4,352.3,341.2,349.1,332.5z"
		/>
	<g id="elpjjmckyhv6">
		<path class="st0" d="M352,44.9h48.4c9.5,0,17.2,7.7,17.2,17.2v12.5c0,9.5-7.7,17.2-17.2,17.2H352c-9.5,0-17.2-7.7-17.2-17.2V62.1
			C334.7,52.6,342.5,44.9,352,44.9z"/>
	</g>
	<path id="elo8yzfalq6t" class="st0" d="M348,88.4h10.5l0.5,1.2c0,0-1.5,9.8-14,11.8C345,101.3,350.5,95.1,348,88.4z"/>
	<path id="elw6pybzp532j" class="st0" d="M334.6,173h16.3l0.7,1.8c0,0-2.2,15.2-21.8,18.3C329.8,193.1,338.3,183.4,334.6,173z"/>
	<g id="eli2qzrxh0pml">
		<path class="st0" d="M322.4,125.1H430c7.5,0,13.5,6.1,13.5,13.6v29c0,7.5-6.1,13.6-13.5,13.6H322.4c-7.5,0-13.5-6.1-13.5-13.6v-29
			C308.8,131.2,314.9,125.1,322.4,125.1z"/>
	</g>
	<path id="eldgznph4gl95" class="st0" d="M141.6,267.2h-15.2l-0.7,1.7c0,0,2.1,14.1,20.2,17.1C145.9,286,138,276.9,141.6,267.2z"/>
	<path id="elhy6r622xftj" class="st0" d="M49,219.6h98.2c7.5,0,13.6,6.1,13.6,13.6v25.1c0,7.5-6.1,13.5-13.6,13.5H49
		c-7.5,0-13.5-6.1-13.5-13.5v-25.1C35.5,225.7,41.6,219.6,49,219.6z"/>
	<path id="el4xnnw0rths5" class="st0" d="M167.6,85.9h-11.1l-0.5,1.3c0,0,1.5,11.3,14.8,13.7C170.8,100.9,165,93.6,167.6,85.9z"/>
	<path id="eloq1fzjblc1l" class="st0" d="M103.5,47.7h64.7c7.5,0,13.6,6.1,13.6,13.5V76c0,7.5-6.1,13.6-13.6,13.6h-64.7
		c-7.5,0-13.6-6.1-13.6-13.6V61.3C89.9,53.8,96,47.7,103.5,47.7z"/>
</g>
<g id="freepik--Table--inject-14">
	<path id="elu4mmeev7p2" class="st1" d="M477.4,458.4c0,0.1-101.8,0.3-227.4,0.3s-227.4-0.1-227.4-0.3s101.8-0.3,227.4-0.3
		S477.4,458.2,477.4,458.4z"/>
</g>
<g id="freepik--Books--inject-14">
	<g id="eliu5f1j3jz5">
		<rect x="357.1" y="420.2" class="st0" width="19.1" height="36.2"/>
	</g>
	<g id="el22war2lbjfj">
		<rect x="376.2" y="418.9" class="st2" width="89.6" height="39.2"/>
	</g>
	<path id="elzkpbc0lckfk" class="st2" d="M355.6,458.1h23v-2.5h-23c-0.7,0-1.3,0.6-1.3,1.3c0,0,0,0,0,0l0,0
		C354.3,457.5,354.9,458.1,355.6,458.1C355.6,458.1,355.6,458.1,355.6,458.1z"/>
	<g id="el1ek0p20hp6c">
		<path class="st2" d="M354.3,418.9h23.2c0.6,0,1.1,0.5,1.1,1.1l0,0v0.3c0,0.6-0.5,1.1-1.1,1.1l0,0h-23.2l0,0V418.9L354.3,418.9z"/>
	</g>
	<path id="eldeo62fg53ze" class="st3" d="M357.1,425c0,0.1,4.3,0.1,9.5,0.1s9.5,0,9.5-0.1s-4.3-0.1-9.5-0.1S357.1,425,357.1,425z"/>
	<path id="elh8gue1h0zoq" class="st3" d="M357.1,429.6c0,0.1,4.3,0.1,9.5,0.1s9.5,0,9.5-0.1s-4.3-0.1-9.5-0.1
		S357.1,429.6,357.1,429.6z"/>
	<path id="eljob7htddbwa" class="st3" d="M357.1,434.3c0,0.1,4.3,0.1,9.5,0.1s9.5,0,9.5-0.1s-4.3-0.1-9.5-0.1
		S357.1,434.2,357.1,434.3z"/>
	<path id="el4eyt5hjp922" class="st3" d="M357.1,438.9c0,0.1,4.3,0.1,9.5,0.1s9.5,0,9.5-0.1s-4.3-0.1-9.5-0.1
		S357.1,438.9,357.1,438.9z"/>
	<path id="elhdc59d6prdp" class="st3" d="M357.1,443.6c0,0.1,4.3,0.1,9.5,0.1s9.5,0,9.5-0.1s-4.3-0.1-9.5-0.1
		S357.1,443.5,357.1,443.6z"/>
	<path id="elopsjzt4b4xj" class="st3" d="M357.1,448.2c0,0.1,4.3,0.1,9.5,0.1s9.5,0,9.5-0.1s-4.3-0.1-9.5-0.1
		S357.1,448.1,357.1,448.2z"/>
	<path id="el46efei3gfsg" class="st3" d="M357.1,452.8c0,0.1,4.3,0.1,9.5,0.1s9.5,0,9.5-0.1s-4.3-0.1-9.5-0.1
		S357.1,452.8,357.1,452.8z"/>
	<rect id="el5lq2s7019ov" x="441.9" y="381.3" class="st0" width="18.4" height="21.9"/>
	<rect id="ellhjhfmrsbx" x="359.3" y="379.9" class="st4" width="83.2" height="24.7"/>
	<path id="elsnv878ps9ud" class="st4" d="M460.9,382h-20.6v-2.1h20.6c0.6,0,1,0.4,1,1l0,0C461.9,381.5,461.5,382,460.9,382
		C461,382,460.9,382,460.9,382z"/>
	<path id="elgbty2wyhk5t" class="st4" d="M460.9,404.6h-20.6v-2.1h20.6c0.6,0,1,0.4,1,1l0,0C461.9,404.1,461.5,404.5,460.9,404.6
		C461,404.6,460.9,404.6,460.9,404.6z"/>
	<g id="elugc6tvljg0e">
		<g class="st5">
			<rect id="elee3i9xvz3tk" x="426.2" y="379.9" width="9.8" height="24.7"/>
		</g>
	</g>
	<g id="elkp7cpzuguec">
		<g class="st5">
			<rect id="eldqm7ifdeixn" x="366.7" y="379.9" width="9.8" height="24.7"/>
		</g>
	</g>
	<path id="elhwfoi0poswr" class="st3" d="M460.4,384.9c0,0.1-4,0.1-8.9,0.1s-8.9,0-8.9-0.1s4-0.1,8.9-0.1S460.4,384.9,460.4,384.9z"
		/>
	<path id="el8ne600ltdlu" class="st3" d="M460.4,388.2c0,0.1-4,0.1-8.9,0.1s-8.9,0-8.9-0.1s4-0.1,8.9-0.1S460.4,388.2,460.4,388.2z"
		/>
	<path id="eluh40lle99dn" class="st3" d="M460.4,392.3c0,0.1-4,0.1-8.9,0.1s-8.9,0-8.9-0.1s4-0.1,8.9-0.1S460.4,392.2,460.4,392.3z"
		/>
	<path id="eltknih6aajfp" class="st3" d="M460.4,396.3c0,0.1-4,0.1-8.9,0.1s-8.9,0-8.9-0.1s4-0.1,8.9-0.1S460.4,396.2,460.4,396.3z"
		/>
	<path id="elbe5vthyv1aj" class="st3" d="M460.4,400.4c0,0.1-4,0.1-8.9,0.1s-8.9,0-8.9-0.1s4-0.1,8.9-0.1S460.4,400.3,460.4,400.4z"
		/>
	<g id="el8t5jca32zgv">
		<g class="st6">
			<rect id="elkydpp1tkbk" x="383.5" y="390" width="37.4" height="4.5"/>
		</g>
	</g>
	<rect id="elnm3am1u4ag9" x="441.5" y="405.1" class="st7" width="18.7" height="13.3"/>
	<rect id="elop5o12alpx" x="362.1" y="404.6" class="st1" width="79.6" height="14.3"/>
	<path id="elhfzxnj3crvb" class="st1" d="M441.1,405.5h20.1c0.3,0,0.5-0.2,0.5-0.5c0,0,0,0,0,0l0,0c0-0.3-0.2-0.5-0.5-0.5h-20.1
		V405.5z"/>
	<path id="elgs6y3ezwswe" class="st1" d="M441.1,417.9h20.2c0.2,0,0.4,0.2,0.4,0.4v0v0.1c0,0.2-0.2,0.4-0.4,0.4h0h-20.2l0,0V417.9
		L441.1,417.9z"/>
	<path id="elsvly6jkb61a" class="st3" d="M460.2,407.6c0,0.1-4.1,0.1-9.2,0.1s-9.2,0-9.2-0.1s4.1-0.1,9.2-0.1
		S460.2,407.5,460.2,407.6z"/>
	<path id="elt3bvlpsdz8" class="st3" d="M460.2,410.1c0,0.1-4.1,0.1-9.2,0.1s-9.2,0-9.2-0.1s4.1-0.1,9.2-0.1
		S460.2,410.1,460.2,410.1z"/>
	<path id="el40nn9ua4snq" class="st3" d="M460.2,412.6c0,0.1-4.1,0.1-9.2,0.1s-9.2,0-9.2-0.1s4.1-0.1,9.2-0.1
		S460.2,412.6,460.2,412.6z"/>
	<path id="el8fj82egix8f" class="st3" d="M460.2,415.2c0,0.1-4.1,0.1-9.2,0.1s-9.2,0-9.2-0.1s4.1-0.1,9.2-0.1
		S460.2,415.1,460.2,415.2z"/>
	<path id="elhq24xtexfdc" class="st8" d="M386.5,436h3.5c2.5,0,4.2,1.5,4.2,3.8s-1.7,3.8-4.2,3.8h-3.5L386.5,436z M389.9,442.1
		c1.3,0.1,2.4-0.9,2.5-2.2s-0.9-2.4-2.2-2.5c-0.1,0-0.2,0-0.3,0h-1.6v4.7H389.9z"/>
	<path id="elt3dhaa7wfp" class="st8" d="M395.6,436h1.8v7.5h-1.8V436z"/>
	<path id="elabylwg9l81r" class="st8" d="M398.7,439.8c0-2.2,1.8-3.9,3.9-3.9c0.1,0,0.2,0,0.2,0c1.2-0.1,2.4,0.4,3.2,1.3l-1.1,1
		c-0.5-0.6-1.2-0.9-1.9-0.9c-1.3-0.1-2.5,0.9-2.6,2.3s0.9,2.5,2.3,2.6c0.1,0,0.2,0,0.3,0c0.7,0,1.5-0.3,1.9-0.9l1.1,1
		c-0.8,0.9-2,1.4-3.2,1.3c-2.1,0.1-4-1.5-4.1-3.6C398.7,439.9,398.7,439.8,398.7,439.8z"/>
	<path id="elrvukembvse" class="st8" d="M408.8,437.4h-2.5V436h6.7v1.4h-2.5v6.1h-1.8L408.8,437.4z"/>
	<path id="elirza3ve7jhp" class="st8" d="M413.9,436h1.8v7.5h-1.8V436z"/>
	<path id="el4r1ywu3nut4" class="st8" d="M417,439.8c-0.2-2.3,1.6-4.3,3.9-4.5c2.3-0.2,4.3,1.6,4.5,3.9c0.2,2.3-1.6,4.3-3.9,4.5
		c-0.1,0-0.2,0-0.3,0c-2.2,0.1-4-1.5-4.2-3.7C417,439.9,417,439.8,417,439.8z M423.6,439.8c0-1.3-1.1-2.4-2.4-2.4
		c-1.3,0-2.4,1.1-2.4,2.4c0,1.3,1.1,2.4,2.4,2.4c1.3,0.1,2.4-0.9,2.4-2.2C423.6,439.9,423.6,439.8,423.6,439.8L423.6,439.8z"/>
	<path id="elo8lnb8x0ys" class="st8" d="M433.8,436v7.5h-1.5l-3.8-4.5v4.6h-1.8V436h1.5l3.8,4.6V436H433.8z"/>
	<path id="elfn71te449ln" class="st8" d="M440.7,441.9h-3.6l-0.7,1.6h-1.8l3.4-7.5h1.8l3.4,7.5h-1.9L440.7,441.9z M440.1,440.6
		l-1.2-2.9l-1.2,2.9H440.1z"/>
	<path id="elm6r78k0acr" class="st8" d="M448.9,443.5l-1.5-2.1h-1.6v2.1H444V436h3.3c2,0,3.3,1,3.3,2.7c0,1-0.6,2-1.6,2.4l1.7,2.4
		H448.9z M447.2,437.4h-1.4v2.6h1.4c1.1,0,1.6-0.5,1.6-1.3S448.3,437.4,447.2,437.4z"/>
	<path id="elcbygh26rzkm" class="st8" d="M455.6,440.9v2.7h-1.8v-2.7l-3-4.9h1.9l2,3.4l2-3.4h1.7L455.6,440.9z"/>
</g>
<g id="freepik--speech-bubble-4--inject-14">
	<path id="elt50r6rgly58" class="st7" d="M342.7,205h83.8c5.2,0,9.4,4.2,9.4,9.4c0,0,0,0,0,0v27.4c0,5.2-4.2,9.4-9.4,9.4l0,0h-11.2
		c0.4,6.4,4.8,11.4,4.8,11.4c-10.4-1.7-15-7.4-16.9-11.4h-60.5c-5.2,0-9.4-4.2-9.4-9.4c0,0,0,0,0,0v-27.5
		C333.4,209.2,337.6,205,342.7,205z"/>
	<path id="elxfozbp3hgd" class="st1" d="M342.7,205c-0.8,0.1-1.5,0.2-2.2,0.3c-3.8,0.9-6.6,4.1-7,8c-0.1,0.9-0.1,1.8-0.1,2.7
		s0,2,0,3c0,4.1,0,8.8,0,14c0,2.6,0,5.4,0,8.2c-0.1,1.4,0.2,2.9,0.8,4.2c1.3,2.8,3.9,4.9,6.9,5.4c0.8,0.1,1.6,0.2,2.4,0.1h12.8h46.8
		h0.2l0.1,0.1c1.5,3.1,3.9,5.7,6.8,7.6c1.5,1,3.1,1.8,4.7,2.4c1.7,0.6,3.4,1,5.2,1.3l-0.2,0.4c-1.3-1.6-2.4-3.4-3.2-5.3
		c-0.9-2-1.4-4.1-1.6-6.2V251h8.5c1.3,0,2.6,0,3.8,0c3.8-0.3,7-3,8-6.7c0.3-1.2,0.4-2.4,0.3-3.6v-3.7c0-4.9,0-9.8,0-14.5v-7.1
		c0.2-2.3-0.5-4.5-1.8-6.3c-1.3-1.8-3.2-3-5.4-3.5c-1.1-0.2-2.1-0.3-3.2-0.2h-15.7h-22.4l-32.5-0.1h-8.8h-2.3c-0.5,0-0.8,0-0.8,0
		s0.3,0,0.8,0h2.3h8.8l32.5-0.1h22.4H422h3.2c1.1-0.1,2.2,0,3.3,0.2c2.3,0.5,4.3,1.8,5.7,3.6c1.4,1.9,2.1,4.2,1.9,6.6
		c0,2.3,0,4.7,0,7.1v18.2c0.1,1.3,0,2.5-0.3,3.8c-1,3.9-4.4,6.7-8.4,7.1c-1.3,0.1-2.6,0-3.9,0h-8.2l0.3-0.3c0.4,4.1,2,8.1,4.7,11.3
		l0.4,0.5l-0.7-0.1c-1.8-0.3-3.6-0.8-5.3-1.4c-1.7-0.6-3.3-1.4-4.8-2.4c-3-1.9-5.4-4.6-6.9-7.8l0.2,0.1h-46.8h-12.8
		c-0.8,0-1.6,0-2.5-0.1c-1.6-0.3-3.1-0.9-4.4-1.9c-1.2-1-2.2-2.2-2.8-3.7c-0.6-1.4-0.9-2.9-0.8-4.4c0-2.9,0-5.6,0-8.2
		c0-5.2,0-9.9,0-14c0-1,0-2,0-3c0-0.9,0-1.8,0.1-2.8c0.5-3.9,3.3-7.1,7.1-8c0.6-0.1,1.1-0.2,1.7-0.2L342.7,205z"/>
	<g id="freepik--speech-bubble-4--text">
		<path id="txl41" class="st4" d="M352.5,231l-1.2,4.2h-3.8l5-16.3h4.8l5.1,16.3h-4l-1.3-4.2H352.5z M356.7,228.3l-1-3.5
			c-0.3-1-0.6-2.2-0.8-3.1l0,0c-0.2,1-0.5,2.2-0.8,3.1l-1,3.5H356.7z"/>
		<path id="txl42" class="st4" d="M364.3,227.2c0-1.5,0-2.7-0.1-3.8h3.1l0.2,1.6h0.1c0.5-0.7,1.5-1.9,3.6-1.9c1.5,0,2.7,0.8,3.2,2
			l0,0c0.4-0.6,1-1.1,1.5-1.4c0.7-0.4,1.4-0.6,2.2-0.6c2.3,0,4,1.6,4,5.1v7h-3.6v-6.4c0-1.7-0.6-2.7-1.7-2.7c-0.8,0-1.5,0.6-1.7,1.3
			c-0.1,0.3-0.1,0.7-0.1,0.9v6.9h-3.6v-6.6c0-1.5-0.5-2.5-1.7-2.5c-0.9,0-1.5,0.7-1.7,1.3c-0.1,0.3-0.1,0.6-0.1,0.9v6.9h-3.6
			L364.3,227.2L364.3,227.2z"/>
		<path id="txl43" class="st4" d="M395,232.3c0,1.1,0,2.2,0.2,2.9h-3.3l-0.2-1.2h-0.1c-0.8,0.9-2,1.5-3.4,1.5
			c-2.4,0-3.8-1.7-3.8-3.6c0-3.1,2.8-4.5,6.9-4.5v-0.2c0-0.6-0.3-1.5-2.2-1.5c-1.2,0-2.5,0.4-3.3,0.9l-0.7-2.4c0.8-0.5,2.4-1,4.6-1
			c3.9,0,5.2,2.3,5.2,5.1L395,232.3L395,232.3z M391.4,229.6c-1.9,0-3.4,0.4-3.4,1.9c0,0.9,0.6,1.4,1.5,1.4s1.7-0.6,1.9-1.4
			c0-0.2,0.1-0.4,0.1-0.6v-1.3H391.4z"/>
		<path id="txl44" class="st4" d="M397.9,227.2c0-1.5,0-2.7-0.1-3.8h3.2l0.2,1.6h0.1c0.5-0.8,1.7-1.9,3.7-1.9c2.4,0,4.2,1.6,4.2,5.1
			v7h-3.7v-6.6c0-1.5-0.5-2.6-1.9-2.6c-1,0-1.6,0.7-1.9,1.4c-0.1,0.2-0.1,0.6-0.1,0.9v6.8h-3.7L397.9,227.2L397.9,227.2z"/>
		<path id="txl45" class="st4" d="M423.2,231.4c0,1.5,0,2.8,0.1,3.8h-3.2l-0.2-1.7h-0.1c-0.5,0.7-1.6,1.9-3.7,1.9
			c-2.4,0-4.2-1.5-4.2-5.2v-6.9h3.7v6.4c0,1.7,0.6,2.8,1.8,2.8c1,0,1.6-0.7,1.8-1.3c0.1-0.2,0.1-0.5,0.1-0.8v-7h3.7v8H423.2z"/>
	</g>
</g>
<g id="freepik--speech-bubble-3--inject-14">
	<path id="elze6fitql7hj" class="st7" d="M287.7,63h-58.3c-8.2,0-14.9,6.7-14.9,14.9v26.3c0,8.2,6.7,14.9,14.9,14.9c0,0,0,0,0,0H267
		c0,7.6-5.4,13.8-5.4,13.8c12.5-2,17.5-9.3,19.5-13.8h6.7c8.2,0,14.9-6.7,14.9-14.9c0,0,0,0,0,0V77.9C302.7,69.6,296,63,287.7,63
		C287.7,63,287.7,63,287.7,63z"/>
	<path id="ellq4vo1ppj5" class="st1" d="M287.7,63c0.1,0,0.3,0,0.4,0h1.1c1.4,0.1,2.9,0.5,4.2,1c5.2,2.1,8.8,7,9.3,12.6
		c0,0.4,0,0.9,0.1,1.3v1.4c0,0.9,0,1.9,0,2.8c0,1.9,0,4,0,6.1c0,4.2,0,8.8,0,13.6c0,1.2,0,2.4-0.1,3.7c-0.1,0.6-0.2,1.3-0.3,1.9
		c-0.1,0.6-0.3,1.3-0.5,1.9c-1.9,5.3-6.6,9.2-12.2,9.9c-1.4,0.2-2.9,0.2-4.3,0.2H281l0.2-0.1c-1.6,3.8-4.3,7-7.7,9.3
		c-1.8,1.2-3.7,2.2-5.6,2.9c-2,0.7-4.1,1.3-6.3,1.6l-0.7,0.1l0.4-0.5c1.5-1.9,2.8-4,3.7-6.2c1-2.3,1.5-4.8,1.6-7.4l0.3,0.3h-37.5
		c-0.6,0-1.2,0-1.9-0.1c-2.4-0.3-4.8-1.2-6.8-2.6c-2-1.4-3.6-3.2-4.8-5.4c-1.1-2.1-1.7-4.4-1.8-6.8c0-2.3,0-4.6,0-6.9
		c0-4.5,0-8.9,0-13.3V78c0-2.1,0.4-4.2,1.3-6.2c1.6-3.7,4.7-6.6,8.5-8.1c1.8-0.7,3.7-1,5.6-1h5.5h10.2l31,0.1h8.4h2.2
		c0.5,0,0.8,0,0.8,0L287,63h-2.2h-8.4l-31,0.1h-10.2h-5.5c-1.9,0-3.7,0.3-5.5,1c-3.7,1.4-6.7,4.3-8.2,7.9c-1.8,3.7-1.1,8.1-1.2,12.4
		s0,8.8,0,13.3c0,2.3,0,4.6,0,6.9c0,2.3,0.6,4.6,1.7,6.6c1.1,2.1,2.7,3.8,4.6,5.2c2,1.3,4.2,2.2,6.6,2.5c0.6,0.1,1.2,0.1,1.8,0.1
		h37.8v0.3c-0.1,2.6-0.6,5.2-1.6,7.6c-1,2.3-2.2,4.4-3.8,6.4l-0.2-0.4c2.1-0.4,4.2-0.9,6.2-1.6c2-0.7,3.8-1.7,5.5-2.9
		c3.3-2.3,5.9-5.4,7.5-9.1l0.1-0.1h4.6c1.4,0,2.9,0,4.3-0.2c5.4-0.7,10-4.4,11.9-9.6c0.2-0.6,0.4-1.2,0.5-1.8
		c0.1-0.6,0.2-1.2,0.3-1.8c0.1-1.2,0.1-2.5,0.1-3.7c0-4.9,0-9.4,0-13.6c0-2.1,0-4.1,0-6.1v-2.8c0-0.5,0-0.9,0-1.4l-0.1-1.3
		c-0.5-5.5-4-10.3-9.1-12.4C291.5,63.4,289.6,63,287.7,63z"/>
	<g id="freepik--speech-bubble-3--text">
		<path id="txl31" class="st4" d="M223.4,85.6h0.7l-1.1,5.5h0.1c0.4-0.4,0.8-0.8,1.1-1.2l4.3-4.3h0.9l-4.6,4.6l2.9,6.2H227l-2.7-5.7
			l-1.4,1.3l-0.8,4.4h-0.7L223.4,85.6z"/>
		<path id="txl32" class="st4" d="M234.5,96.3c0-0.5,0.1-1.3,0.2-2.3l0,0c-0.9,1.8-2,2.4-3.2,2.4c-1.3,0-2.1-1.1-2.1-2.4
			c0-2.7,2.1-5.6,5.2-5.6c0.6,0,1.3,0.1,1.8,0.2l-0.8,4c-0.3,1.6-0.4,2.8-0.3,3.6h-0.8V96.3z M235.5,89.3c-0.2-0.1-0.5-0.1-1.1-0.1
			c-2.3,0-4.3,2.2-4.3,4.8c0,0.9,0.3,2,1.6,2c1.4,0,2.9-1.8,3.4-4L235.5,89.3z"/>
		<path id="txl33" class="st4" d="M236.9,99.5l1.6-8.3c0.2-0.9,0.3-1.8,0.4-2.6h0.7l-0.3,1.6l0,0c0.7-1.1,1.8-1.8,2.9-1.8
			c1.7,0,2.3,1.4,2.3,2.7c0,2.7-2,5.3-4.5,5.3c-0.9,0-1.5-0.2-1.8-0.4l0,0l-0.6,3.4h-0.7V99.5z M238.4,95.4c0.4,0.3,1,0.4,1.7,0.4
			c2,0,3.7-2.4,3.7-4.7c0-0.9-0.4-2.1-1.8-2.1c-1.2,0-2.8,1.3-3.2,3.9L238.4,95.4z"/>
		<path id="txl34" class="st4" d="M251.2,96.3c0-0.5,0.1-1.3,0.2-2.3l0,0c-0.9,1.8-2,2.4-3.2,2.4c-1.3,0-2.1-1.1-2.1-2.4
			c0-2.7,2.1-5.6,5.2-5.6c0.6,0,1.3,0.1,1.8,0.2l-0.8,4c-0.3,1.6-0.4,2.8-0.3,3.6h-0.8V96.3z M252.2,89.3c-0.2-0.1-0.5-0.1-1.1-0.1
			c-2.3,0-4.3,2.2-4.3,4.8c0,0.9,0.3,2,1.6,2c1.4,0,2.9-1.8,3.4-4L252.2,89.3z"/>
		<path id="txl35" class="st4" d="M257.2,85l-1.1,5.4l0,0c0.8-1.3,1.8-1.9,2.9-1.9c1.7,0,2.3,1.4,2.3,2.8c0,2.3-1.7,5.2-4.6,5.2
			c-1.1,0-2.1-0.4-2.1-1.9c0-0.3,0.1-0.8,0.1-1.1l1.7-8.6L257.2,85L257.2,85z M255.5,93.5c-0.1,0.3-0.1,0.6-0.1,1
			c0,0.8,0.5,1.3,1.5,1.3c2.4,0,3.8-2.7,3.8-4.6c0-1.1-0.5-2.2-1.8-2.2s-2.8,1.4-3.2,3.5L255.5,93.5z"/>
		<path id="txl36" class="st4" d="M267.9,96.3c0-0.5,0.1-1.3,0.2-2.3l0,0c-0.9,1.8-2,2.4-3.2,2.4c-1.3,0-2.1-1.1-2.1-2.4
			c0-2.7,2.1-5.6,5.2-5.6c0.6,0,1.3,0.1,1.8,0.2l-0.8,4c-0.3,1.6-0.4,2.8-0.3,3.6h-0.8V96.3z M268.9,89.3c-0.2-0.1-0.5-0.1-1.1-0.1
			c-2.3,0-4.3,2.2-4.3,4.8c0,0.9,0.3,2,1.6,2c1.4,0,2.9-1.8,3.4-4L268.9,89.3z"/>
		<path id="txl37" class="st4" d="M271.1,96.3l2.2-11.4h0.7l-2.2,11.4H271.1z"/>
		<path id="txl38" class="st4" d="M281.7,88.7l-1.1,5.6c-0.1,0.8-0.2,1.5-0.3,2.1h-0.7l0.2-1.6l0,0c-0.6,1-1.7,1.8-2.8,1.8
			c-0.8,0-2.1-0.3-2.1-2.3c0-0.3,0-0.7,0.1-1.2l0.8-4.4h0.7l-0.8,4.4c-0.1,0.5-0.1,0.8-0.1,1.2c0,1,0.4,1.6,1.5,1.6s2.6-1.2,2.9-3
			l0.8-4.2H281.7z"/>
		<path id="txl39" class="st4" d="M288.2,96.3c0-0.5,0.1-1.3,0.2-2.3l0,0c-0.9,1.8-2,2.4-3.2,2.4c-1.3,0-2.1-1.1-2.1-2.4
			c0-2.7,2.1-5.6,5.2-5.6c0.6,0,1.3,0.1,1.8,0.2l-0.8,4c-0.3,1.6-0.4,2.8-0.3,3.6h-0.8V96.3z M289.2,89.3c-0.2-0.1-0.5-0.1-1.1-0.1
			c-2.3,0-4.3,2.2-4.3,4.8c0,0.9,0.3,2,1.6,2c1.4,0,2.9-1.8,3.4-4L289.2,89.3z"/>
		<path id="txl391" class="st4" d="M291.5,96.3l1.1-5.6c0.2-0.8,0.3-1.5,0.3-2.1h0.7l-0.2,1.6l0,0c0.7-1.1,1.8-1.8,3-1.8
			c0.7,0,1.9,0.4,1.9,2.1c0,0.4-0.1,0.8-0.1,1.2l-0.8,4.5h-0.7l0.9-4.6c0-0.3,0.1-0.7,0.1-1.1c0-0.9-0.4-1.6-1.5-1.6
			s-2.7,1.2-3.1,3.3l-0.7,3.9h-0.9V96.3z"/>
	</g>
</g>
<g id="freepik--speech-bubble-2--inject-14">
	<path id="elfbqsvu4b1u5" class="st7" d="M83.7,294.6h53.4c4.9,0,8.9,4,8.9,8.9l0,0v22.5c0,4.9-4,8.9-8.9,8.9c0,0,0,0,0,0H99.5
		c-2.3,3.8-6.9,8.5-16.1,10c2.4-2.9,4-6.3,4.6-10h-4.3c-4.9,0-8.9-4-8.9-8.9c0,0,0,0,0,0v-22.5C74.8,298.6,78.8,294.6,83.7,294.6
		L83.7,294.6z"/>
	<path id="el97j4ih5hbp" class="st1" d="M83.7,294.6c-1.3,0.1-2.6,0.4-3.8,0.9c-1.4,0.7-2.6,1.7-3.5,3c-0.6,0.8-1,1.7-1.2,2.7
		c-0.3,1.1-0.4,2.2-0.3,3.3c0,4.8,0,10.6,0.1,17.3v2.5c0,0.9,0,1.7,0.1,2.6c0.4,3.8,3.3,6.8,7,7.6c1,0.1,2,0.2,2.9,0.2h3.3v0.3
		c-0.7,3.7-2.3,7.2-4.6,10.1l-0.2-0.4c3.1-0.5,6.1-1.5,8.9-3c2.9-1.6,5.3-4,7-6.8l0.1-0.1h36.9c0.9,0,1.9,0,2.8-0.2
		c3.7-0.8,6.4-4,6.7-7.7c0.1-7.4,0-14.5,0.1-21.3c0.1-1.6,0-3.3-0.5-4.9c-1.1-3-3.8-5.2-6.9-5.6c-0.8-0.1-1.5-0.1-2.3-0.1h-2.3H117
		l-24.3-0.1l-6.7-0.1h-1.7C83.9,294.7,83.7,294.7,83.7,294.6l0.6,0.1H86l6.6,0l24.3-0.1h16.8h2.2c0.8,0,1.6,0,2.4,0.1
		c3.3,0.5,6.2,2.7,7.3,5.9c0.3,0.8,0.5,1.6,0.5,2.5c0.1,0.9,0,1.7,0,2.5c0,6.8,0.1,13.9,0,21.3c-0.3,4-3.2,7.3-7.1,8.2
		c-1,0.2-1.9,0.3-2.9,0.2H99.5l0.2-0.1c-1.8,2.9-4.3,5.3-7.2,7c-2.8,1.6-5.9,2.6-9.1,3.1l-0.6,0.1l0.4-0.5c2.4-2.9,3.9-6.3,4.6-10
		l0.2,0.3h-3.1c-1,0-2,0-3-0.2c-1.9-0.4-3.7-1.4-5-2.9c-1.2-1.4-2-3.1-2.2-5c-0.1-0.9-0.1-1.8-0.1-2.6c0-0.9,0-1.7,0-2.5
		c0-6.7,0-12.5,0.1-17.3c-0.1-1.1,0.1-2.3,0.3-3.4c0.3-1,0.7-1.9,1.3-2.7c0.9-1.3,2.2-2.3,3.6-3c0.9-0.4,1.9-0.7,2.8-0.8
		C83.3,294.6,83.7,294.6,83.7,294.6z"/>
	<g id="freepik--speech-bubble-2--text">
		<path id="txl21" class="st4" d="M87.1,319.5c0.5,0.4,1.6,0.8,2.5,0.8c1.1,0,1.6-0.5,1.6-1.3s-0.4-1.2-1.6-1.7
			c-1.9-0.9-2.7-2-2.7-3.4c0-2,1.5-3.5,3.8-3.5c1.1,0,2,0.3,2.6,0.7l-0.5,2c-0.4-0.3-1.2-0.6-2-0.6c-0.9,0-1.4,0.5-1.4,1.2
			s0.4,1.1,1.7,1.6c1.8,0.8,2.6,1.9,2.6,3.5c0,2.2-1.5,3.6-4.1,3.6c-1.2,0-2.3-0.3-3-0.8L87.1,319.5z"/>
		<path id="txl22" class="st4" d="M103.8,319.4c0,1,0,2,0.2,2.7h-2.3l-0.2-1.3h-0.1c-0.6,0.9-1.6,1.5-2.9,1.5c-2,0-3.2-1.6-3.2-3.4
			c0-2.9,2.4-4.3,5.8-4.3v-0.2c0-0.9-0.3-2-2-2c-1,0-1.9,0.3-2.6,0.8l-0.5-1.8c0.7-0.5,2-1,3.6-1c3.2,0,4.1,2.2,4.1,4.8L103.8,319.4
			L103.8,319.4z M101.3,316.4c-1.6,0-3.4,0.4-3.4,2.2c0,1.2,0.7,1.7,1.4,1.7c0.9,0,1.6-0.6,1.9-1.5c0-0.2,0.1-0.4,0.1-0.6V316.4z"/>
		<path id="txl23" class="st4" d="M106.9,305.4h2.6v16.7h-2.6V305.4z"/>
		<path id="txl24" class="st4" d="M115.3,307.5c0,0.9-0.5,1.5-1.4,1.5c-0.8,0-1.4-0.7-1.4-1.5c0-0.9,0.6-1.6,1.4-1.6
			C114.7,305.9,115.3,306.6,115.3,307.5z M112.6,322.1v-11.5h2.6v11.5H112.6z"/>
		<path id="txl25" class="st4" d="M121.3,307.7v2.9h2.4v2.1h-2.4v5.3c0,1.4,0.4,2,1.3,2c0.4,0,0.7,0,1-0.1v2.2
			c-0.4,0.1-1,0.3-1.8,0.3c-0.9,0-1.7-0.3-2.2-0.9s-0.8-1.6-0.8-3.2v-5.6h-1.4v-2.1h1.4v-2.1L121.3,307.7z"/>
		<path id="txl26" class="st4" d="M133.7,319.4c0,1,0,2,0.2,2.7h-2.3l-0.2-1.3h-0.1c-0.6,0.9-1.6,1.5-2.9,1.5c-2,0-3.2-1.6-3.2-3.4
			c0-2.9,2.4-4.3,5.8-4.3v-0.2c0-0.9-0.3-2-2-2c-1,0-1.9,0.3-2.6,0.8l-0.5-1.8c0.7-0.5,2-1,3.6-1c3.2,0,4.1,2.2,4.1,4.8L133.7,319.4
			L133.7,319.4z M131.2,316.4c-1.6,0-3.4,0.4-3.4,2.2c0,1.2,0.7,1.7,1.4,1.7c0.9,0,1.6-0.6,1.9-1.5c0-0.2,0.1-0.4,0.1-0.6V316.4z
			 M132.9,305.7l-2.6,3.4h-1.8l1.8-3.4H132.9z"/>
	</g>
</g>
<g id="freepik--speech-bubble-1--inject-14">
	<path id="els4w64nngpe9" class="st7" d="M159.9,121.4H71.3c-9.5,0-17.2,7.7-17.2,17.2l0,0v28.2c0,9.5,7.7,17.2,17.2,17.2h74.4
		c1.6,4.7,6.9,15,23.1,17.6c0,0-7.2-8.2-6.1-17.9c8.3-1.4,14.4-8.6,14.4-17v-28.2C177.1,129.1,169.4,121.4,159.9,121.4z"/>
	<path id="elxdvhmsy6t2a" class="st1" d="M159.9,121.4c0,0,0.5,0,1.4,0c1.4,0.1,2.8,0.4,4.1,0.8c2.2,0.7,4.2,1.9,5.9,3.4l0.8,0.7
		c0.2,0.2,0.5,0.5,0.7,0.8c0.5,0.6,1,1.1,1.4,1.8c0.9,1.4,1.7,2.9,2.2,4.4c0.5,1.8,0.8,3.6,0.9,5.4c0,1.9,0,3.9,0,6
		c0,4.2,0,8.7,0,13.6c0,2.4,0,4.9,0,7.5c0,1.3-0.1,2.6-0.2,3.9c-0.7,4.2-2.9,8-6.2,10.6c-1.2,0.9-2.4,1.7-3.8,2.3
		c-1.4,0.6-2.8,1.1-4.3,1.3l0.2-0.2c-0.6,6.1,1.9,12.6,6.1,17.7l0.4,0.5l-0.6-0.1c-5-0.7-9.7-2.6-13.9-5.4c-2.1-1.5-4.1-3.3-5.7-5.4
		c-1.6-2.1-2.9-4.5-3.8-7.1l0.2,0.2H87.7H73.4c-1.6,0-3.2,0-4.8-0.2c-3.2-0.5-6.1-1.8-8.6-3.8c-1.2-1-2.2-2.2-3.2-3.5
		c-0.9-1.3-1.6-2.7-2.1-4.1c-0.3-0.7-0.5-1.5-0.6-2.2c-0.1-0.8-0.2-1.5-0.3-2.3c-0.1-1.5,0-3-0.1-4.5V146c0-1.4,0-2.9,0-4.3
		s0-2.8,0.1-4.2c0.2-2.8,1.1-5.5,2.5-7.9c1.4-2.3,3.4-4.3,5.7-5.7c2.3-1.4,4.8-2.3,7.5-2.5c1.3-0.1,2.6-0.1,3.9-0.1h3.8h27.7
		l40.2,0.1H156h2.8h1h-1H156l-10.9,0.1l-40.2,0.1H77.2h-3.7c-1.3,0-2.6,0-3.8,0.1c-2.6,0.2-5.1,1.1-7.3,2.4
		c-1.1,0.7-2.2,1.5-3.1,2.4c-0.9,1-1.8,2-2.5,3.2c-1.4,2.3-2.3,5-2.5,7.7c-0.1,1.4,0,2.8-0.1,4.2v4.5c0,2.9,0,5.8,0,8.7v8.9
		c0,3-0.2,6,1,8.9c0.5,1.4,1.2,2.8,2,4c0.9,1.2,1.9,2.4,3.1,3.4c2.4,2,5.2,3.3,8.3,3.8c1.6,0.2,3.1,0.3,4.7,0.2h72.5l0.1,0.2
		c0.9,2.5,2.1,4.8,3.7,6.9c1.6,2,3.4,3.8,5.6,5.3c4.1,2.8,8.8,4.6,13.7,5.3l-0.2,0.4c-2.1-2.6-3.8-5.5-4.9-8.7
		c-1.1-3-1.6-6.2-1.3-9.4v-0.1h0.2c1.5-0.3,2.9-0.7,4.2-1.3c1.3-0.6,2.5-1.4,3.7-2.2c2.2-1.7,3.9-4,5-6.6c0.5-1.2,0.9-2.5,1.1-3.8
		c0.2-1.3,0.3-2.6,0.2-3.9c0-2.6,0-5.1,0-7.5c0-4.9,0-9.4,0-13.6c0-2.1,0-4.1,0-6c0-1.8-0.3-3.6-0.8-5.3c-0.5-1.6-1.2-3-2.1-4.4
		c-0.4-0.6-0.9-1.2-1.4-1.7c-0.2-0.3-0.5-0.5-0.7-0.8l-0.8-0.7c-1.7-1.5-3.7-2.7-5.8-3.4c-1.3-0.5-2.7-0.7-4.1-0.9L159.9,121.4z"/>
	<g id="freepik--speech-bubble-1--text">
		<path id="txl1" class="st1" d="M65.7,143.1h4.1l-1.7,9.2h0.1c0.6-1,1.2-1.7,1.8-2.6l5.1-6.6h5l-7.6,8.8l4,11.5H72l-2.8-8.8l-1.9,2
			l-1.3,6.8h-4.1L65.7,143.1z"/>
		<path id="txl2" class="st1" d="M86.4,143.1l-2.3,12.1c-0.2,0.8-0.2,1.5-0.2,2.3c0,1.5,0.9,2.6,2.5,2.6c2,0,3.2-1.3,3.9-4.8
			l2.3-12.2h4.2L94.6,155c-1.1,5.8-3.6,8.7-8.7,8.7c-3.9,0-6.1-2-6.1-6c0-0.9,0.1-1.9,0.3-2.9l2.2-11.7H86.4z"/>
		<path id="txl3" class="st1" d="M101.1,143.1h4.2l-3.2,16.6h6.9l-0.7,3.6h-11L101.1,143.1z"/>
		<path id="txl5" class="st1" d="M119.2,143.1l-3.8,20.3h-4.2l3.8-20.3H119.2z"/>
		<path id="txl6" class="st1" d="M126.1,146.8h-4.8l0.7-3.7h13.8l-0.7,3.7h-4.8l-3.1,16.6H123L126.1,146.8z"/>
		<path id="txl7" class="st1" d="M138.3,158.2l-2.2,5.1h-4.4l9.4-20.3h5.2l1.7,20.3h-4.3l-0.3-5.1H138.3z M143.4,155.1l-0.2-4.4
			c-0.1-1.1-0.1-2.9-0.2-4.2l0,0c-0.5,1.3-1.1,3.1-1.6,4.2l-1.9,4.4H143.4z"/>
		<path id="txl8" class="st1" d="M150.8,163.3l3.8-20.3h4.6l2.3,7.8c0.7,2.6,1.2,4.7,1.6,6.7h0.1c0.2-2.1,0.5-4.7,1-7.8l1.3-6.7h3.8
			l-3.8,20.3h-4.1l-2.5-7.9c-0.8-2.8-1.3-4.5-1.7-7h-0.1c-0.2,2-0.7,5-1.3,8.3l-1.3,6.6L150.8,163.3L150.8,163.3z"/>
	</g>
</g>
<g id="freepik--Character--inject-14">
	<path id="elon92nqm0mpi" class="st1" d="M303.9,265.3c-2.8,0.3-5.6-0.9-7.3-3.3c1.9,0.3,3.9,0.6,5.6-0.3s2.7-3.4,1.3-4.7
		c-1-1.1-2.8-0.9-4.2-1c-3.5-0.3-6.6-2.7-7.8-6c-1.2-3.6-0.1-7.5,0.4-11.3c1.2-11.2-3.8-22.2-13.1-28.7l-23.7-13.7
		c-8.6,11-11.3,25.9-9.5,39.7s7.7,26.9,14.7,39c1.9,3.6,4.3,6.9,7.2,9.9c2.8,3,6.6,4.9,10.7,5.5c1.1-3.4,0.4-7.1-1.8-9.9
		c6.5,0.3,12.9-2,17.6-6.4l-5.1-3.9C294.4,270.8,299.8,269,303.9,265.3z"/>
	<path id="elcr0cwmmmzrt" class="st9" d="M212.5,226.6c0.4-9.9,6.6-18.2,16.1-20.9l29.8-8.5c12.9-1.8,22,13.9,23.2,26.9
		c1.4,14.4,2.4,29.6,1,40.5c-2.8,21.8-19.3,25-19.3,25s0.5,19.6,0.7,26l-15.1,31.7l-29.3-40.5l-7.1-79.8
		C212.4,226.5,212.5,227.1,212.5,226.6z"/>
	<path id="elalbzr5thbve" class="st1" d="M272.7,243c0.1,1.5-1.1,2.8-2.6,2.9c-1.5,0.2-2.8-0.9-2.9-2.4c0,0,0,0,0-0.1
		c-0.1-1.5,1.1-2.8,2.6-2.9C271.2,240.4,272.5,241.5,272.7,243C272.7,243,272.7,243,272.7,243z"/>
	<path id="elkcnyuxqiuw" class="st1" d="M278.6,232.6c-0.3,0.4-2.5-1.1-5.5-1s-5.1,1.7-5.5,1.3c-0.2-0.2,0.2-0.8,1.1-1.6
		c1.3-0.9,2.8-1.5,4.4-1.5c1.6-0.1,3.1,0.4,4.4,1.3C278.4,231.8,278.8,232.5,278.6,232.6z"/>
	<path id="el2aw7q8ny9cl" class="st1" d="M246.3,243c0.1,1.5-1.1,2.8-2.6,2.9c-1.5,0.2-2.8-0.9-2.9-2.4c0,0,0,0,0-0.1
		c-0.1-1.5,1.1-2.8,2.6-2.9C244.8,240.4,246.2,241.5,246.3,243C246.3,243,246.3,243,246.3,243z"/>
	<path id="el59mf3tt6ll3" class="st1" d="M250.2,233.4c-0.3,0.4-2.5-1.1-5.5-1s-5.1,1.7-5.5,1.3c-0.2-0.2,0.2-0.8,1.1-1.6
		c1.3-0.9,2.8-1.5,4.4-1.5c1.6-0.1,3.1,0.4,4.4,1.3C250,232.6,250.4,233.3,250.2,233.4z"/>
	<path id="elz5n3zip61gg" class="st1" d="M260.2,256.6c0-0.2,1.8-0.5,4.8-1c0.8-0.1,1.5-0.3,1.6-0.8c0-0.8-0.2-1.6-0.6-2.2l-2.4-5.7
		c-3.4-8.2-5.9-14.9-5.5-15.1s3.4,6.4,6.7,14.6c0.8,2,1.6,4,2.3,5.8c0.5,0.9,0.7,2,0.5,3c-0.2,0.6-0.7,1-1.2,1.2
		c-0.4,0.1-0.9,0.2-1.3,0.2C262.1,256.8,260.2,256.8,260.2,256.6z"/>
	<path id="elsxwrlr867t8" class="st10" d="M234.4,282.7c0,0,7.5,14.7,29.1,12l-0.1-5.1C253.2,290,243.2,287.6,234.4,282.7z"/>
	<path id="elrbk0a722msa" class="st1" d="M249,223.8c-0.3,0.8-3.3,0.5-6.8,1.1s-6.3,1.6-6.8,0.9c-0.2-0.3,0.2-1.1,1.4-2
		c3-2,6.8-2.6,10.3-1.5C248.4,222.8,249.1,223.4,249,223.8z"/>
	<path id="elczxw9onwama" class="st1" d="M277.4,223.5c-0.5,0.7-2.6,0.1-5.1,0.1s-4.6,0.6-5.1-0.1c-0.2-0.3,0.1-1,1-1.7
		c1.2-0.8,2.6-1.3,4.1-1.2c1.5,0,2.9,0.4,4.1,1.2C277.3,222.5,277.6,223.2,277.4,223.5z"/>
	<path id="el1n2qgwyim9p" class="st10" d="M249,262.5c0.4-1.8,2.1-3.1,3.9-3.1c1.4,0.1,2.6,0.9,3.2,2.1c0.6,1.2,0.7,2.6,0.3,3.9
		l0,0.3c-1.2,1.4-3.2,1.9-5,1.2C249.7,266.2,248.7,264.3,249,262.5z"/>
	<path id="elkhw5r5m36q" class="st1" d="M258.6,265.7c0-0.5-3-0.2-5.4-2.6s-2.3-5.7-2.7-5.6c-0.2,0-0.5,0.8-0.5,2.1
		c0.1,1.8,0.9,3.4,2.1,4.7c1.2,1.2,2.8,1.9,4.5,2C257.9,266.3,258.6,265.9,258.6,265.7z"/>
	<path id="elqr8rffb4cfg" class="st1" d="M222.5,192.1c3.4-5.3,11.2-10.9,17.4-12c7.1-1.2,11.3,0,15.9,4.2c0,0,3.6,3.5,7,4.1
		s6.2,0.1,10.2,2.2c5.5,2.8,7.9,10.2,10.5,15.8c3.2,7,7.7,13.5,9.8,20.9s1,16.5-5.3,21c1.1-5.7,2-11.9-0.4-17.1
		c0.3,2.1,0.2,4.1-0.4,6.1c-1.2-3.3-2.4-6.8-4.8-9.4c-2.3-2.4-5.4-3.9-7.8-6.2c-3.5-3.5-5-8.8-9.2-11.3c-4.4-2.6-9.9-1.3-15-1.3
		c-8.7,0-16.9-4-22.3-10.8l1.3-0.1C226.8,196.6,224.5,194.5,222.5,192.1z"/>
	<path id="el4p49m7mci8w" class="st1" d="M190.6,245.1c2-6.4,5.4-12.2,7.5-18.5c2.1-6.1,2.9-12.7,5.7-18.6
		c3.7-7.9,10.7-18.1,21.5-17.6l0.7,0.6c3.7-0.4,7.4,0,10.9,1.3l0.2,8.4l2.1,1.8c-0.9,1.7-1.7,3.3-2.5,4.9c-0.6,3.2-1.5,6.3-2.7,9.3
		c-1.2,3-3,5.6-5.2,7.9c-18.6,44.7-1.7,47.5-10.1,73.1l-5.3-14.6c-4.5-2.6-8.2-6.5-10.4-11.3c-0.3,1.5-0.6,3.1-0.9,4.6
		c-4.3-4.5-6.9-10.4-7.3-16.6l-2.4,4.5C188.4,258.9,188.7,251.5,190.6,245.1z"/>
	<path id="eljykfd55vtb" class="st9" d="M222.4,243.5c-0.3-0.7-13.8-5.2-13.5,9c0.2,13.8,14,10.7,14.1,10.3S222.4,243.5,222.4,243.5
		z"/>
	<path id="elc42umi8xmy8" class="st10" d="M218.6,257.6c-0.1,0-0.2,0.2-0.6,0.4c-0.6,0.3-1.2,0.3-1.8,0.1c-1.5-0.5-2.7-2.8-2.9-5.3
		c-0.1-1.2,0.1-2.4,0.6-3.4c0.2-0.9,0.9-1.6,1.8-1.9c0.6-0.2,1.2,0.1,1.4,0.6c0.2,0.4,0.1,0.7,0.2,0.7s0.3-0.2,0.2-0.8
		c-0.1-0.3-0.3-0.6-0.6-0.9c-0.4-0.3-0.9-0.4-1.3-0.3c-1.1,0.3-2.1,1.1-2.5,2.2c-0.6,1.2-0.8,2.5-0.8,3.9c0.1,2.8,1.6,5.3,3.6,5.9
		c0.8,0.2,1.6,0.1,2.2-0.4C218.6,258,218.7,257.6,218.6,257.6z"/>
	<path id="elrmdkc0br1rb" class="st8" d="M217.1,260.1c-1.5-0.2-2.9,0.8-3.1,2.3c-0.2,1.5,0.8,2.9,2.3,3.1c1.5,0.2,2.9-0.8,3.1-2.3
		c0.2-1.2-0.5-2.4-1.6-2.9"/>
	<path id="el03q9d6ntrels" class="st1" d="M217.8,260.3c0.6,0.5,1.1,1.1,1.3,1.8c0.2,0.8,0,1.6-0.5,2.2c-0.8,1-2.3,1.2-3.4,0.4
		c-0.5-0.4-0.8-1-0.9-1.6c-0.1-0.8,0.2-1.6,0.8-2.1c0.6-0.5,1.3-0.8,2.1-0.9c0,0-0.2-0.1-0.6-0.1c-0.6,0-1.2,0.3-1.7,0.6
		c-0.8,0.6-1.1,1.6-1,2.5c0.2,1.6,1.7,2.8,3.4,2.6c0.8-0.1,1.4-0.5,1.9-1.1c0.6-0.7,0.8-1.8,0.5-2.7c-0.2-0.6-0.6-1.1-1.1-1.5
		C218,260.3,217.8,260.2,217.8,260.3z"/>
	<path id="eluwxltwmzmni" class="st2" d="M238.1,206.1c-0.3,0.1-1.6-4.6-5.4-8.9s-8.2-6.3-8.1-6.5c1,0.2,2,0.6,2.9,1.2
		c4.5,2.5,7.9,6.5,9.8,11.2C237.8,204,238.1,205,238.1,206.1z"/>
	<path id="elnt3l4wcf0bh" class="st2" d="M285.4,306.2c-1.3-0.3,15.2,76.9,15.2,76.9l27,39h25.8l7.4-5.7c0,0-13.8-27.5-20.3-37.4
		S308.4,312.1,285.4,306.2z"/>
	<path id="el627o8kt6g3j" class="st2" d="M285.4,306.2l-20.9-4.2c-5,19.2-31.6,17.5-46,0l-11.5,3.1c-15.4,4.5-19,6.3-19,6.3
		c-11.2,4.4-18.2,16.5-21,24.8l27.5,76.3l-7,46l118.7-0.1l-10.8-39l2.4-12.5l3.5-10.9c3.5-11.2-1.2-31.7-4.6-42.9l-3.7-16.2
		L285.4,306.2z"/>
	<g id="el1sdytuv2s9">
		<g class="st11">
			<path id="elp92mj7gzre" d="M202,338.5c0,0,1.3,16,0,24s-4.6,47.5-4.6,47.5l40.1,11.9l22-7.7L246.7,445l-23.4,3.4L196.8,420
				l-6.8-20.3l3.8-11L202,338.5z"/>
		</g>
	</g>
	<path id="el8clw3zjau05" class="st9" d="M284.1,433.3l-21.3-10.6l3.5-2l6.6,2.1c0,0.3,6.2,3,8.5,2.4c1.5-0.4,2.7-1.3,3.5-2.6
		c0.3-0.6-7.8-4.8-7.8-4.8l-10.3-5.3l-11,2.9l-19.6,12.2l-14.7-4.6c-0.4,0.6-5.6,23.9-5.6,23.9s14.4,4.7,22.8,4
		c5.6-0.5,10.5-4.4,13.3-7.2l2.5,1.4c0,0,9.2,4.5,13.1,4.7s1.4-3.5,1.4-3.5l-6.9-4.4l-2.8-2.5l4.2,1.5c0,0,7.2,3.7,8.6,4.1
		c1.9,0.5,3.4,0.1,4.1-2.5s-14-11.2-14-11.2l14.3,6c1.3,0.6,2.8,0.8,4.2,0.6c1.2,0,2.4-0.7,2.9-1.8
		C284.7,433.4,284.1,433.3,284.1,433.3z"/>
	<path id="elgijpgqiqi5b" class="st10" d="M250.6,424.6c0.4-0.5,0.9-0.9,1.4-1.2c2.7-1.7,5.9-2.2,9-1.4c0.6,0.1,1.2,0.4,1.8,0.8
		c-0.6-0.1-1.2-0.2-1.8-0.4c-3-0.6-6-0.1-8.7,1.3C251.8,424,251.2,424.3,250.6,424.6z"/>
	<path id="elsrg18plkan" class="st10" d="M264.7,432.7c-0.7-0.3-1.3-0.7-1.9-1.2c-1.4-1-3-1.8-4.7-2.4c-1.7-0.5-3.4-0.6-5.1-0.1
		c-0.7,0.3-1.4,0.6-2,0.9c0.5-0.6,1.1-1,1.9-1.3c1.7-0.6,3.6-0.6,5.4,0c1.7,0.6,3.3,1.5,4.7,2.6
		C263.6,431.6,264.2,432.1,264.7,432.7z"/>
	<path id="elw8b2iyw42gk" class="st10" d="M256.1,435.8c0,0.1-0.4-0.2-1.2-0.4c-0.9-0.3-1.9-0.4-2.8-0.3c-1,0.1-1.9,0.4-2.7,0.9
		c-0.6,0.4-1,0.7-1,0.7s0.2-0.5,0.8-1c1.7-1.3,4-1.5,5.9-0.6C255.8,435.4,256.1,435.8,256.1,435.8z"/>
	<path id="elneex3d5ahk" class="st10" d="M261.9,442.1c-2-1.1-3.6-2.7-4.8-4.6c0.9,0.7,1.7,1.4,2.5,2.2
		C260.4,440.4,261.2,441.3,261.9,442.1z"/>
	<path id="elil4quewbns" class="st2" d="M204.1,351.6c5.9-31.5-28.3-40.6-36.5-17.4c0,0-8.2,23.7-11.6,36.9c-3.2,12.3-7,28-9.5,43.2
		c-1.7,10.5,1.2,23,7.1,25.5c15.6,6.6,77.4,16.5,77.4,16.5l3.8-31.5l-45.8-10.8c0,0,1.9-5.2-1.6-5.6l11-38.3L204.1,351.6z"/>
	<path id="elttpq9s774kf" class="st1" d="M187.5,408.3l0.4,0.2c0.2,0.1,0.3,0.2,0.5,0.3c0.2,0.1,0.4,0.3,0.6,0.5
		c0.5,0.5,0.8,1.3,0.8,2c0,1-0.3,2-0.9,2.8l-0.1-0.2c3.7,0.7,8.9,1.8,14.9,3.2l20.4,5c3.8,0.9,7.5,1.7,11,2.4h0.2v0.2l-2.8,22.6
		c-0.4,2.8-0.7,5-0.9,6.6c-0.1,0.7-0.2,1.3-0.3,1.8c0,0.2-0.1,0.4-0.1,0.6c0-0.2,0-0.4,0-0.6c0.1-0.5,0.1-1,0.2-1.8
		c0.2-1.6,0.4-3.8,0.7-6.6c0.7-5.6,1.6-13.5,2.7-22.6l0.2,0.3c-3.5-0.7-7.2-1.5-11-2.4c-7.4-1.8-14.4-3.6-20.4-5s-11.1-2.7-14.8-3.4
		h-0.2l0.1-0.2c0.5-0.8,0.9-1.7,0.9-2.6c0-0.7-0.2-1.4-0.7-1.9c-0.2-0.2-0.3-0.4-0.5-0.5c-0.1-0.1-0.3-0.2-0.4-0.3
		C187.7,408.5,187.6,408.4,187.5,408.3z"/>
	<path id="el7rmk7vk8b0s" class="st1" d="M201.5,361.1c0,0.2,0,0.3-0.1,0.5L201,363l-1.4,5.1c-1.2,4.3-2.9,10.2-4.9,16.7
		s-3.7,12.4-5,16.7c-0.6,2.1-1.2,3.8-1.6,5c-0.2,0.5-0.3,1-0.5,1.4c0,0.2-0.1,0.3-0.2,0.5c0-0.2,0-0.3,0.1-0.5l0.4-1.4
		c0.4-1.3,0.8-3,1.4-5.1c1.2-4.3,3-10.2,4.9-16.7s3.7-12.4,5-16.7c0.6-2.1,1.2-3.8,1.6-5c0.2-0.5,0.3-1,0.5-1.4
		S201.5,361.1,201.5,361.1z"/>
	<path id="eloz5h6idgj4g" class="st1" d="M203.3,341.4c-0.2-1.7-0.5-3.4-0.9-5c-2.1-8.1-8.7-14.4-17-16c-1.7-0.3-3.4-0.5-5.1-0.6
		c0.5-0.1,0.9-0.1,1.4-0.1c1.3,0,2.5,0.1,3.8,0.3c8.5,1.5,15.3,7.9,17.3,16.3c0.3,1.2,0.5,2.5,0.6,3.8
		C203.3,340.5,203.3,341,203.3,341.4z"/>
	<path id="elfqypbv9lmn" class="st1" d="M187.5,408.7c0,0.1-0.7-0.1-1.8-0.2c-2.9-0.2-5.8,1-7.7,3.2c-0.8,0.8-1.1,1.5-1.2,1.4
		c0.2-0.6,0.5-1.2,0.9-1.6c0.9-1.2,2.2-2.2,3.6-2.7c1.4-0.6,3-0.8,4.5-0.6C186.3,408.2,186.9,408.3,187.5,408.7z"/>
	<path id="elvusgqsco9k" class="st1" d="M188.6,413.1c0,0.2-1.8,0.3-3.9,1.2s-3.4,2.1-3.5,1.9C183.1,414.1,185.8,413,188.6,413.1z"
		/>
	<path id="eld53zisftz2w" class="st1" d="M291.4,339.6c0.1,0.2,0.3,0.4,0.4,0.6c0.2,0.5,0.6,1,1,1.8s0.9,1.7,1.4,2.8
		s1.2,2.4,1.7,3.8s1.3,3,1.9,4.7c0.3,0.9,0.6,1.7,1,2.7s0.6,1.9,0.9,2.9c1.3,4.3,2.2,8.7,2.8,13.1c0.6,4.4,0.8,8.9,0.6,13.4
		c-0.2,2-0.3,4-0.6,5.8c-0.1,0.9-0.2,1.8-0.4,2.6s-0.4,1.6-0.5,2.4c-0.3,1.5-0.7,2.9-1,4.1c-0.2,0.6-0.3,1.1-0.5,1.7
		s-0.4,0.9-0.5,1.4l-0.7,1.9c-0.1,0.2-0.2,0.4-0.3,0.6c0-0.2,0.1-0.5,0.2-0.7c0.1-0.5,0.4-1.1,0.6-1.9c0.1-0.4,0.3-0.9,0.5-1.4
		s0.3-1.1,0.5-1.7c0.3-1.2,0.7-2.5,1-4.1c0.1-0.8,0.3-1.6,0.5-2.4s0.2-1.7,0.4-2.6c0.3-1.8,0.4-3.7,0.5-5.8c0.2-4.4,0-8.9-0.6-13.3
		c-0.6-4.4-1.5-8.7-2.8-13c-0.3-1-0.6-1.9-0.9-2.9s-0.6-1.8-0.9-2.7c-0.6-1.7-1.2-3.3-1.8-4.7s-1.2-2.7-1.7-3.9s-1-2.1-1.3-2.9
		s-0.6-1.3-0.9-1.8C291.6,340.1,291.5,339.9,291.4,339.6z"/>
	<path id="elfsnu6woue6m" class="st1" d="M292.7,332.7c0.1,0.1-0.6,1.5-0.9,3.4s-0.3,3.5-0.4,3.5c-0.4-1.2-0.4-2.4-0.1-3.6
		C291.4,334.8,291.9,333.7,292.7,332.7z"/>
	<g id="elbtt3b6fm01b">
		<g class="st11">
			<path id="elg0tfmhy1gvp" d="M306,361.7c-1.3-5.1-3.7-9.8-6.1-14.4c-2-3.8-3.9-7.5-5.9-11.3c-0.4-0.7-0.9-1.5-1.6-1.7
				c-1-0.2-1.9,0.8-2,1.8c0,1,0.2,2,0.7,2.8c3.4,7.5,6.4,15.2,8.9,23.1c2.5,7.7,4.2,17.9,2.8,25.9
				C307.5,380.1,308.2,370.5,306,361.7z"/>
		</g>
	</g>
	<path id="els4ejzjmvmj" class="st1" d="M269.6,382.5c0,0.2,0,0.3-0.1,0.5c-0.1,0.3-0.1,0.7-0.3,1.3c-0.4,1.6-0.9,3.1-1.5,4.6
		c-4.2,10.1-12.8,17.7-23.4,20.4c-1.6,0.4-3.2,0.7-4.8,0.9c-0.6,0.1-1,0.1-1.3,0.1c-0.2,0-0.3,0-0.5,0c0.6-0.1,1.2-0.2,1.8-0.3
		c1.6-0.2,3.2-0.6,4.7-1c10.4-2.9,18.9-10.3,23.2-20.2c0.6-1.5,1.2-3,1.6-4.6C269.2,383.6,269.3,383.1,269.6,382.5z"/>
	<path id="elusuab5r005g" class="st8" d="M392.9,397.9l-2.6-2.9c0,0-19.2,8.6-25.7,12.3c-9.4,5.3-10.6,7.9-10.6,7.9l-1.2,6l4.4,3
		L392.9,397.9z"/>
	<path id="el2ou1k3eiosj" class="st1" d="M357.1,424.2L357.1,424.2l-4.4-3l0,0l1.2-6c0.5-0.8,1.1-1.4,1.8-2c2.7-2.3,5.7-4.3,8.8-6
		c6.5-3.6,25.5-12.2,25.7-12.3l0,0l2.6,3l0,0L357.1,424.2z M352.7,421.2l4.4,3l35.7-26.2l-2.6-2.9c-0.7,0.3-19.3,8.7-25.7,12.2
		c-3.1,1.7-6.1,3.7-8.8,5.9c-0.7,0.6-1.3,1.2-1.8,2L352.7,421.2z"/>
	<path id="elklty0zlr9od" class="st8" d="M356.3,423.6c0,0-1.3-12.8-9.6-16.4s-33.6,9.4-34.2,9.5s-51.9,33.4-51.9,33.4l2.9,3.5
		l46.7-5.7L356.3,423.6z"/>
	<path id="el82yvv19b04p" class="st3" d="M262.3,451.6l50.7-33c0,0,26.9-13.6,34.4-9.2s6.7,12.7,6.7,12.7l-48.9,28l-40.5,4.9
		L262.3,451.6z"/>
	<path id="ela3fi7z55up6" class="st8" d="M353.8,417.7c0,0-4.2-6.8-22-3.8c-6.8,1.2-13.4,3-19.8,5.4l-48.5,33.1l1.7,2l77-28.7
		l12.1-2.4l1-2.1L353.8,417.7z"/>
	<polygon id="el6zx6i42z0ud" class="st4" points="259.5,456.4 304,426.3 349.2,419.5 356.1,422.8 393.8,396 395.6,398.1 
		335.7,446.5 322.8,443.4 308.8,453.3 260.6,458.4 	"/>
	<path id="eli7vzxaesph" class="st1" d="M260.6,458.4l-0.3-0.5c-0.2-0.4-0.5-0.9-0.9-1.5l0,0l0,0c4.9-3.4,21.1-14.4,44.5-30.2l0,0
		l0,0l45.2-6.9h0.1h0.1l6.8,3.3h-0.2l37.7-26.8l0.2-0.1l0.2,0.2l0.5,0.6l1.3,1.5l0.2,0.2l-0.2,0.2l-38.3,28.2l-0.1,0.1l-0.1-0.1
		l-7.5-4h0.1l-44.4,7.2h0.1l-32.8,21l-9,5.7l-2.3,1.5l-0.8,0.5c0,0,0.3-0.2,0.8-0.5l2.3-1.5l8.9-5.8l32.8-21.2l0,0l0,0l44.5-7.4h0.1
		h0.1l7.5,4h-0.3l38.3-28.2v0.4l-1.3-1.5l-0.5-0.6h0.4L356.2,423l-0.1,0.1L356,423l-6.8-3.3h0.1l-45.2,6.8h0.1
		c-23.4,15.7-39.7,26.6-44.7,29.9v-0.1c0.4,0.7,0.7,1.2,0.9,1.5L260.6,458.4z"/>
	<path id="el75f6ze5kc56" class="st1" d="M303.5,427.1c0.1-0.1,0.6,0.4,1,1.1s0.7,1.3,0.6,1.4s-0.6-0.4-1-1.1
		S303.4,427.1,303.5,427.1z"/>
	<path id="elvqaued1qjyb" class="st1" d="M350,422.6c-0.1,0.1-0.2,0.3-0.4,0.4c-0.3,0.2-0.7,0.6-1.2,1l-4.3,3.4
		c-3.7,2.9-8.8,6.8-14.4,11.1c-2.8,2.1-5.5,4.2-8,6l-6.7,4.7l-4.5,3.1l-1.2,0.8c-0.3,0.2-0.5,0.3-0.5,0.3c0.1-0.1,0.3-0.2,0.4-0.3
		l1.2-0.9l4.5-3.2l6.6-4.8c2.5-1.8,5.1-3.9,8-6c5.6-4.3,10.8-8.2,14.5-11l4.4-3.3l1.2-0.9C349.7,422.8,349.8,422.7,350,422.6z"/>
	<path id="elv75hcs3d2j" class="st9" d="M365.9,424.4c-1.2,1.7-4.7,7.1-4.7,7.1c-0.6,3.3-1.5,6.6-2.7,9.8
		c-2.4,5.5-7.6,9.4-13.6,10.3c-6.9,0.9-18.3-3.5-18.3-3.5l-14.7-5.5c0,0-3.3-2.8-0.6-4.5c0,0-2.4-2.7,2.4-4s18,5,18,5
		s-5.5-4.6-8.8-5.8s-1.9-4,0.9-4.3s4.8,0.7,9.4,2.2s8.8,4.6,10.7,4.6s0.7-3.1-1-4.3c-7-4.8-4.6-6.4-4.6-6.4s0.7-2.4,4.3-0.9
		c3.4,1.6,6.7,3.5,9.8,5.5c4-0.3,5.3-1.2,6.2-3.6c0.6-1.4,1.5-2.6,2.6-3.5l1.8-1.4c0.9-0.7,2.2-0.6,3,0.3c0.6,0.7,0.6,1.8,0.1,2.5
		L365.9,424.4z"/>
	<path id="elqlfoetmxwih" class="st10" d="M329.2,446.3c-3.1-1.2-6.2-2.5-9.2-4c-3.1-1.3-6.1-2.8-9-4.5c3.1,1.2,6.2,2.5,9.2,4
		C323.3,443.1,326.3,444.6,329.2,446.3z"/>
	<path id="ela668h6snltm" class="st10" d="M336.3,443.1c-1-0.5-2-1.1-2.9-1.9c-0.9-0.7-1.8-1.4-2.5-2.3c1,0.5,2,1.2,2.8,1.9
		C334.8,441.4,335.6,442.2,336.3,443.1z"/>
	<path id="el2jorsxt1zhk" class="st10" d="M354,435.7c0.1,0,0.2,0.3,0.2,0.9c-0.2,1.6-1.6,2.7-3.1,2.5c-0.1,0-0.2,0-0.3,0
		c-0.6-0.1-0.9-0.4-0.8-0.5s0.4,0.1,0.9,0.1c0.7,0,1.4-0.1,1.9-0.5c0.5-0.4,0.9-1,1.1-1.7C353.9,436,353.9,435.7,354,435.7z"/>
	<path id="elviiticl4vej" class="st10" d="M344.6,444.1c0,0,0,0.3-0.3,0.7c-0.4,0.5-0.9,0.8-1.5,1c-0.6,0.2-1.2,0.1-1.8-0.1
		c-0.4-0.2-0.6-0.4-0.6-0.5c0.7,0.2,1.5,0.2,2.2,0.1C343.9,445,344.4,444,344.6,444.1z"/>
	<path id="el2j6z9xbeqg4" class="st10" d="M336,448.5c0.1,0.1-0.7,0.6-1.7,0.5s-1.6-0.9-1.5-1s0.7,0.3,1.6,0.4
		S335.9,448.4,336,448.5z"/>
	<path id="elruhoertm3oj" class="st10" d="M358.3,427c0,0,0,0.5-0.4,1.1c-0.6,0.8-1.4,1.3-2.4,1.6c-0.9,0.3-1.9,0.4-2.9,0.1
		c-0.7-0.2-1.1-0.5-1-0.6s0.4,0.1,1.1,0.2c0.9,0.1,1.8,0,2.6-0.3c0.8-0.3,1.6-0.7,2.2-1.4C358,427.4,358.2,427,358.3,427z"/>
	<path id="elfoytkpk1mhd" class="st1" d="M353.5,417.2c0-0.1-0.1-0.1-0.1-0.2c-0.1-0.2-0.2-0.4-0.3-0.6c-0.4-0.8-0.8-1.6-1.2-2.4
		c-0.7-1.2-1.7-2.3-2.8-3.1c-0.7-0.5-1.5-1-2.3-1.3c-0.9-0.3-1.9-0.6-2.9-0.7c-1.1-0.1-2.2-0.2-3.3-0.1c-0.6,0.1-1.1,0.1-1.7,0.2
		s-1.2,0.2-1.8,0.3c-2.6,0.6-5.1,1.4-7.6,2.4c-5.8,2.2-11.4,4.7-16.9,7.4l0,0l-5.6,3.5c-12.5,7.9-23.8,15.1-31.9,20.4l-9.6,6.3
		l-2.6,1.7l-0.7,0.4l-0.2,0.1c0,0,0.1-0.1,0.2-0.2l0.6-0.5l2.5-1.8c2.2-1.5,5.5-3.8,9.5-6.5c8-5.4,19.3-12.6,31.8-20.5l5.6-3.5l0,0
		c5.5-2.8,11.2-5.2,17-7.4c2.5-0.9,5.1-1.7,7.6-2.3c0.6-0.1,1.2-0.2,1.8-0.3s1.2-0.1,1.8-0.2c1.1,0,2.2,0,3.3,0.2
		c1,0.1,2,0.4,2.9,0.7c0.8,0.3,1.6,0.8,2.4,1.3c1.1,0.9,2,2,2.8,3.3C352.7,414.9,353.1,416,353.5,417.2z"/>
	<path id="eltdsqib49o8p" class="st1" d="M353.3,418.6c-0.1-0.1-0.2-0.2-0.3-0.4c-0.2-0.4-0.5-0.7-0.8-1c-1.1-1.2-2.5-2.1-4-2.7
		c-2.2-0.9-4.6-1.5-7-1.6c-2.9-0.1-5.9,0-8.8,0.5c-5.3,0.8-10.5,2.2-15.5,4.1c-1.9,0.7-3.5,1.4-4.5,1.9l-1.2,0.5
		c-0.1,0.1-0.3,0.1-0.4,0.2c0.5-0.4,1-0.7,1.6-0.9c1-0.5,2.5-1.2,4.5-2c5-2.1,10.2-3.5,15.6-4.3c3-0.4,5.9-0.6,8.9-0.4
		c2.4,0.2,4.8,0.8,7.1,1.8c1.5,0.7,2.9,1.6,4,2.9c0.3,0.3,0.6,0.7,0.8,1.1C353.2,418.5,353.3,418.6,353.3,418.6z"/>
	<path id="elzzr9huhe5ar" class="st1" d="M313,424.9c-0.1,0.1-1-0.8-1.6-2.2c-0.5-0.8-0.7-1.7-0.7-2.6
		C311.5,421.7,312.3,423.3,313,424.9z"/>
</g>
<g id="freepik--Device--inject-14">
	<path id="el6c9wh76qt4g" class="st3" d="M46.6,384.7l15.1,73.9h130.8c1.4,0,2.6-1.2,2.6-2.6l0,0c0-1.4-1.2-2.6-2.6-2.6h-26.3
		l-14-68.8c-0.3-1.3-1.4-2.3-2.8-2.3l-99.9-1.1c-1.6,0-2.9,1.3-2.9,2.8C46.5,384.3,46.5,384.5,46.6,384.7z"/>
	<path id="elafugay2245" class="st1" d="M46.6,384.7c0-0.1,0-0.1,0-0.2c0-0.2,0-0.4,0-0.7c0.1-1.2,1-2.2,2.2-2.5
		c0.3-0.1,0.7-0.1,1-0.1h2.4H58l37.8,0.4l26.3,0.3l14.8,0.1l7.7,0.1h4c0.3,0,0.7,0,1,0c0.3,0,0.7,0.1,1,0.3c0.6,0.3,1.2,0.9,1.4,1.5
		c0.1,0.3,0.2,0.7,0.3,1l0.2,1c0.1,0.7,0.3,1.3,0.4,2c0.3,1.3,0.6,2.7,0.8,4c0.6,2.7,1.1,5.5,1.7,8.2c1.1,5.5,2.3,11.2,3.5,17
		c2.4,11.6,4.8,23.7,7.3,36.1l-0.2-0.1H192c0.3,0,0.7,0,1,0.1c1.5,0.3,2.5,1.8,2.1,3.3c-0.2,0.8-0.7,1.5-1.4,1.9
		c-0.4,0.2-0.8,0.3-1.2,0.3H123H61.6h-0.1v-0.1c-4.6-22.7-8.3-41.2-11-54c-1.3-6.4-2.3-11.4-3-14.8c-0.3-1.7-0.6-3-0.8-3.9
		s-0.2-1.3-0.2-1.3s0.1,0.5,0.3,1.3l0.8,3.9c0.7,3.4,1.7,8.4,3,14.8c2.6,12.8,6.4,31.3,11.1,54l-0.1-0.1h61.4h69.4
		c0.4,0,0.7-0.1,1.1-0.3c1.2-0.6,1.6-2.1,1-3.3c-0.3-0.6-0.9-1.1-1.6-1.2c-0.3,0-0.6-0.1-0.9,0h-26v-0.1c-2.5-12.4-5-24.5-7.3-36.1
		c-1.2-5.8-2.3-11.5-3.5-17c-0.6-2.8-1.1-5.5-1.7-8.2c-0.3-1.4-0.6-2.7-0.8-4c-0.1-0.7-0.3-1.3-0.4-2l-0.2-1
		c-0.1-0.3-0.1-0.6-0.2-0.9c-0.3-0.6-0.7-1.1-1.3-1.4c-0.3-0.1-0.6-0.2-0.9-0.3c-0.3,0-0.6,0-1,0l-4,0l-7.7-0.1l-14.8-0.2l-26.3-0.3
		L58,381.5l-5.9-0.1h-2.3c-0.3,0-0.7,0-1,0.1c-0.3,0.1-0.6,0.2-0.8,0.3c-0.8,0.5-1.3,1.2-1.4,2.1C46.5,384.2,46.5,384.4,46.6,384.7z
		"/>
	<path id="el4xo8ka3ly02" class="st8" d="M106.8,418.6c0,2.4-1.9,4.3-4.3,4.3c-2.4,0-4.3-1.9-4.3-4.3c0-2.4,1.9-4.3,4.3-4.3
		C104.9,414.3,106.8,416.2,106.8,418.6C106.8,418.6,106.8,418.6,106.8,418.6z"/>
	<path id="elywriymmwed" class="st1" d="M46.7,385.3h6.9l18.7,0.1l61.7,0.4l8.9,0.1h2.2c0.4,0,0.8,0,1.1,0.1
		c0.4,0.1,0.7,0.2,1.1,0.4c0.7,0.4,1.1,1.1,1.3,1.8c0.2,0.7,0.3,1.4,0.4,2.1c1.1,5.6,2.2,10.9,3.2,16.1c2,10.2,3.9,19.5,5.4,27.2
		s2.7,14,3.6,18.4c0.4,2.1,0.7,3.8,1,5c0.1,0.6,0.2,1,0.2,1.3c0,0.1,0.1,0.3,0.1,0.4c0,0,0-0.1-0.1-0.4s-0.2-0.7-0.3-1.3
		c-0.2-1.1-0.6-2.8-1-5c-0.9-4.3-2.1-10.6-3.7-18.3l-5.4-27.2c-1-5.1-2.1-10.5-3.2-16c-0.1-0.7-0.3-1.4-0.4-2.1
		c-0.2-0.7-0.6-1.2-1.2-1.6c-0.3-0.2-0.6-0.3-0.9-0.4c-0.3,0-0.7-0.1-1-0.1h-2.2l-8.9-0.1l-61.7-0.5l-18.7-0.2l-5.1-0.1h-1.3
		L46.7,385.3z"/>
</g>
</svg>
