<?xml version="1.0" encoding="utf-8"?>
<!-- Generator: Adobe Illustrator 27.2.0, SVG Export Plug-In . SVG Version: 6.00 Build 0)  -->
<svg version="1.1" id="freepik_stories-learning-languages" xmlns:svgjs="http://svgjs.com/svgjs"
	 xmlns="http://www.w3.org/2000/svg" xmlns:xlink="http://www.w3.org/1999/xlink" x="0px" y="0px" viewBox="0 0 500 500"
	 style="enable-background:new 0 0 500 500;" xml:space="preserve">
<style type="text/css">
	.st0{fill:#D25F00;}
	.st1{fill:#DE6400;}
	.st2{fill:#EA6A00;}
	.st3{fill:#FF7200;}
	.st4{fill:#F5F5F5;}
	.st5{fill:#FFFFFF;}
	.st6{opacity:0.4;}
	.st7{fill:#E0E0E0;}
	.st8{opacity:0.2;}
	.st9{fill:#FAFAFA;}
	.st10{fill:#455A64;}
	.st11{fill:#EBEBEB;}
	.st12{opacity:0.3;}
	.st13{fill:#263238;}
	.st14{fill:#FFBE9D;}
	.st15{fill:#EB996E;}
	.st16{fill:#B9B9B9;}
	.st17{fill:none;stroke:#FF7200;stroke-width:8;stroke-linecap:round;stroke-linejoin:round;stroke-miterlimit:10;}
</style>
<g id="freepik--background-complete--inject-33">
	<path id="elzcvp60splcd" class="st0" d="M411.1,371.9h-46.7l-8.7,22.6h-31.9l48.8-116.3h30.8l48.9,116.3h-32.5L411.1,371.9z
		 M401.9,347.7l-14.2-37.2l-14.2,37.2H401.9z"/>
	<path id="elnu8otah55i" class="st1" d="M194.7,244.6c0,16.6-13.7,26.4-39.6,26.4h-52v-96.3h49.3c25.3,0,37.7,10.3,37.7,25.2
		c0,9.2-4.7,16.6-12.9,20.9C188,224.6,194.7,232.9,194.7,244.6z M130.1,194.3v18.6h18.7c9.1,0,13.8-3.2,13.8-9.4s-4.7-9.2-13.8-9.2
		H130.1z M167.2,241.5c0-6.6-5-9.8-14.3-9.8h-22.8v19.5h22.8C162.2,251.3,167.2,248.1,167.2,241.5L167.2,241.5z"/>
	<path id="elwj5bfwnnd3" class="st2" d="M60.3,469.4c0,0-19.2-99.5-19.3-120C41,321,62.7,309.8,62.7,309.8l-8.4-24h46.4l-7.3,23.8
		c0,0,24.4,12.9,21,42.3c-6.3,55-16.5,117.5-16.5,117.5H60.3z"/>
	<path id="el31lbv67m3cz" class="st0" d="M104.6,321c-0.2,0-0.3,0-0.5,0c-0.5-0.1-1-0.1-1.5-0.1c-1.9,0-3.9,0.5-5.6,1.2
		c-2.8,1.3-5.3,3.1-7.2,5.5c-1.2,1.5-2.3,3-3.3,4.7c-1.1,1.8-2.1,3.7-2.9,5.7c-0.9,2.2-1.4,4.5-1.3,6.8c0.1,2.5,1,5,2.7,6.8
		c0.9,1,2,1.7,3.3,2c1.3,0.4,2.7,0.4,4-0.1c2.7-1,4.7-3.2,5.6-6c0.8-2.9,0.1-6-1.9-8.3c-2-2.4-4.9-4.1-8-4.6
		c-3.2-0.5-6.6-0.1-9.6,1.2c-3.1,1.3-6.1,3-8.6,5.2c-5.1,4.3-8.7,10.2-10.1,16.8c-0.6,3.1-0.6,6.3,0.2,9.4c0.6,3,2.3,5.6,4.6,7.6
		c1.1,0.9,2.4,1.5,3.8,1.7c1.4,0.2,2.8-0.1,4-0.8c3.3-2.4,4.4-6.8,2.8-10.5c-0.5-1.1-1.3-2.1-2.2-2.9c-1.8-1.5-3.9-2.5-6.3-2.9
		c-4-0.7-8.1,0-11.7,2c-2.7,1.5-5.1,3.5-6.9,5.9c-1.2,1.5-2.1,3.2-2.8,5.1c-0.5,1.2-0.6,1.9-0.7,1.9c0.1-0.7,0.3-1.3,0.5-2
		c0.6-1.9,1.5-3.6,2.7-5.2c1.8-2.5,4.2-4.6,6.9-6.1c3.6-2.1,7.9-2.8,12-2.2c2.4,0.4,4.7,1.4,6.5,3c1,0.9,1.8,1.9,2.3,3.1
		c0.6,1.2,0.8,2.6,0.8,3.9c0,2.9-1.4,5.6-3.8,7.3c-1.3,0.8-2.8,1.1-4.3,0.9c-1.5-0.2-3-0.9-4.1-1.9c-2.4-2-4.1-4.8-4.8-7.9
		c-0.8-3.2-0.9-6.5-0.2-9.7c1.4-6.7,5-12.7,10.2-17.1c2.6-2.3,5.6-4.1,8.8-5.4c3.1-1.3,6.6-1.7,9.9-1.2c3.3,0.6,6.2,2.3,8.3,4.8
		c1,1.2,1.8,2.7,2.2,4.2c0.4,1.5,0.3,3.1-0.1,4.6c-0.9,3-3.1,5.3-6,6.4c-1.4,0.5-2.9,0.5-4.3,0.1c-1.4-0.4-2.6-1.2-3.5-2.2
		c-1.8-2-2.7-4.5-2.8-7.1c0-2.4,0.5-4.8,1.4-7c0.8-2,1.8-3.9,3-5.8c1-1.7,2.1-3.2,3.4-4.7c2-2.4,4.5-4.3,7.4-5.5
		c1.8-0.8,3.8-1.1,5.7-1.1C103.2,320.9,103.9,320.9,104.6,321z"/>
	<path id="elukywr3ikpv" class="st0" d="M105.8,396.2c0.1,1.7,0,3.4-0.4,5.1c-0.4,2-1.1,3.8-2,5.6c-1.2,2.4-2.9,4.5-4.9,6.2
		c-2.4,2.1-5.3,3.7-8.5,4.5c-3.6,0.9-7.4,0.9-11-0.2c-4-1.2-7.4-3.7-9.9-7c-2.7-3.5-4.1-7.9-3.8-12.4c0.1-2.3,1.1-4.5,2.7-6.1
		c1.8-1.5,4.1-2,6.3-1.3c2.1,0.6,3.9,2,4.9,3.9c0.9,1.9,1.1,4,0.6,6c-0.4,1.9-1.3,3.6-2.7,5.1c-1.2,1.3-2.8,2.4-4.4,3.1
		c-3,1.2-6.3,1.6-9.5,1.2c-2.6-0.3-5.2-1.1-7.6-2.3c-1.8-0.9-3.4-2.1-4.9-3.4c-1.3-1.1-2.4-2.4-3.3-3.9c0,0,0.1,0.1,0.2,0.2l0.6,0.8
		c0.8,1,1.7,1.8,2.7,2.7c3.5,3,7.8,4.9,12.4,5.5c3.1,0.4,6.3,0,9.2-1.2c1.6-0.7,3.1-1.7,4.2-3c1.2-1.4,2.1-3,2.5-4.8
		c0.4-1.9,0.2-3.8-0.6-5.6c-0.9-1.8-2.6-3.1-4.5-3.6c-2-0.6-4.1-0.2-5.7,1.1c-1.5,1.5-2.4,3.5-2.5,5.7c-0.3,4.3,1,8.5,3.7,11.9
		c2.4,3.2,5.7,5.6,9.6,6.8c3.5,1,7.2,1.1,10.7,0.2c3.1-0.7,5.9-2.2,8.3-4.3c2-1.7,3.6-3.8,4.8-6.1c0.9-1.7,1.7-3.6,2.1-5.5
		c0.3-1.2,0.5-2.5,0.6-3.7c0-0.4,0-0.7,0.1-1C105.7,396.4,105.7,396.3,105.8,396.2z"/>
	<path id="el963atck0etm" class="st0" d="M97.1,443.1c-0.1,0.1-2.1-1-5.6-2c-1-0.3-1.9-0.5-2.9-0.7c-1-0.2-2.2-0.4-3.4-0.5
		c-2.6-0.3-5.2-0.3-7.8,0c-2.6,0.3-5.2,0.9-7.6,1.7c-1.1,0.4-2.2,0.8-3.2,1.2c-0.9,0.4-1.8,0.8-2.7,1.3c-3.2,1.8-4.9,3.3-5,3.2
		c0.4-0.4,0.7-0.8,1.2-1.1c0.5-0.4,1-0.8,1.5-1.1c0.7-0.5,1.4-0.9,2.1-1.4c0.9-0.5,1.8-1,2.7-1.4c1-0.5,2.1-0.9,3.2-1.3
		c5-1.8,10.4-2.4,15.7-1.8c1.2,0.2,2.4,0.3,3.4,0.6c1,0.2,2,0.5,2.9,0.8c0.8,0.2,1.6,0.5,2.3,0.9c0.6,0.2,1.2,0.5,1.7,0.8
		C96.2,442.5,96.7,442.8,97.1,443.1z"/>
	<path id="elfrkbt1q3lyc" class="st0" d="M93.9,311c-0.5,0.4-1,0.8-1.5,1.1c-1,0.7-2.5,1.5-4.4,2.6c-5,2.6-10.2,4.7-15.7,6.1
		c-5.4,1.5-11,2.3-16.6,2.5c-2.2,0.1-3.9,0.1-5.1,0c-0.6,0-1.3,0-1.9-0.2c0.6-0.1,1.2-0.1,1.9-0.1c1.2,0,2.9-0.1,5.1-0.2
		c11.2-0.7,22.1-3.6,32.1-8.6c1.9-1,3.5-1.8,4.5-2.4C92.7,311.5,93.3,311.2,93.9,311z"/>
	<path id="el6kebko119sc" class="st0" d="M99.7,286.9c0,0.1-1.1-0.1-3.2-0.1c-4.9,0-9.7,1.4-13.9,3.9c-1,0.6-1.9,1.2-2.7,1.9
		c-0.9,0.7-1.8,1.5-2.5,2.4c-0.8,0.9-1.3,2-1.5,3.2c-0.2,1.2,0.2,2.4,1.1,3.3c1,0.9,2.2,1.4,3.4,1.7c1.3,0.5,2.6,0.6,3.9,0.5
		c1.2-0.4,2.1-1.5,2.1-2.8c0.1-1.3-0.2-2.6-0.8-3.7c-1.1-2.2-2.9-4.1-5.2-5.2c-2-1.1-4.2-1.7-6.5-1.8c-2,0-4,0.3-5.8,0.9
		c-2.7,0.9-5.3,2.3-7.6,4c-0.8,0.6-1.4,1.1-1.9,1.5c-0.2,0.2-0.4,0.4-0.7,0.5c0.2-0.2,0.4-0.4,0.6-0.6c0.4-0.4,1-0.9,1.8-1.6
		c2.3-1.8,4.9-3.3,7.6-4.3c1.9-0.7,4-1,6-1c2.4,0.1,4.7,0.7,6.8,1.8c2.4,1.2,4.3,3.1,5.5,5.5c0.7,1.3,1,2.7,0.8,4.1
		c-0.1,0.7-0.3,1.5-0.7,2.1c-0.4,0.6-1.1,1.1-1.9,1.3c-1.4,0.2-2.9,0-4.3-0.5c-1.4-0.3-2.6-1-3.7-1.9c-1-1-1.5-2.4-1.2-3.9
		c0.3-1.3,0.8-2.5,1.7-3.5c0.8-0.9,1.6-1.8,2.6-2.5c0.9-0.7,1.8-1.3,2.8-1.9c1.8-1,3.6-1.8,5.6-2.5c2.8-0.9,5.7-1.3,8.7-1.2
		c0.8,0,1.6,0.1,2.4,0.2C99.2,286.7,99.4,286.8,99.7,286.9z"/>
	<rect id="el92m91tgnwo" x="321" y="43.4" class="st0" width="125" height="181.2"/>
	<rect id="elvdgpiamqd8e" x="314.8" y="43.4" class="st2" width="125" height="181.2"/>
	<rect id="elh3a5crtd08r" x="330.3" y="63" class="st3" width="94" height="142"/>
	<path id="eltq4sc3bo6i" class="st0" d="M424.2,205c0,0,0-0.2,0-0.7s0-1.1,0-2c0-1.8,0-4.4,0-7.8c0-6.8,0-16.7-0.1-29.2
		c0-25-0.1-60.5-0.2-102.2l0.3,0.3h-94l0,0l0.3-0.3c0,53.6,0,103-0.1,142l-0.3-0.3l68.4,0.1l18.9,0.1h5L424.2,205
		c0.1-0.1-0.5-0.1-1.6-0.1h-4.9l-18.8,0.1l-68.6,0.1H330V205c0-39,0-88.4-0.1-142v-0.3h0.4h94h0.3V63c-0.1,41.8-0.1,77.4-0.2,102.4
		c0,12.5-0.1,22.4-0.1,29.2c0,3.4,0,6,0,7.7c0,0.9,0,1.5,0,2S424.2,205,424.2,205z"/>
	<path id="elg4qeudqvku7" class="st0" d="M440.1,43.4c-0.6,1.1-1.4,2.2-2.2,3.2c-1.5,1.9-3.5,4.6-5.9,7.4s-4.5,5.4-6.2,7.2
		c-0.8,1-1.7,1.9-2.8,2.8c0.7-1.1,1.5-2.1,2.4-3.1l6-7.3l6-7.3C438.3,45.2,439.2,44.3,440.1,43.4z"/>
	<path id="el2tnqjgbxtpk" class="st0" d="M424.7,204.5c4.7,7.4,10.2,14.3,16.4,20.5"/>
	<path id="elyvdjbypyc6" class="st0" d="M441.1,225c-1-0.8-2-1.6-2.9-2.6c-2.2-2.2-4.2-4.6-6.2-7c-1.9-2.4-3.8-4.9-5.4-7.6
		c-0.7-1.1-1.4-2.2-1.9-3.4c0.9,1,1.6,2,2.3,3.1c1.4,1.9,3.3,4.6,5.6,7.4s4.4,5.3,6,7.1C439.5,223,440.4,224,441.1,225z"/>
	<path id="elx4mvwzbg2am" class="st0" d="M314.7,224.5l16.4-20.2"/>
	<path id="eln1znrqjc6ud" class="st0" d="M331.1,204.2c0.1,0.1-3.4,4.7-7.9,10.3s-8.3,10-8.5,9.9s3.4-4.7,7.9-10.3
		S331,204.1,331.1,204.2z"/>
	<path id="ellarxlbreqk" class="st0" d="M314.8,43.4c0.1-0.1,3.7,4.1,8,9.5s7.6,9.8,7.4,9.9s-3.7-4.1-8-9.5S314.6,43.5,314.8,43.4z"
		/>
	<rect id="el1xjmwg1506j" x="363.5" y="91.8" class="st0" width="31.5" height="89.3"/>
</g>
<g id="freepik--Books--inject-33">
	<rect id="elskw40vzbden" x="440.1" y="389.2" class="st4" width="19.2" height="22.8"/>
	<rect id="elm3imi2h6tw" x="354" y="387.7" class="st5" width="86.8" height="25.8"/>
	<path id="elj2jghz9tgwf" class="st5" d="M459.9,389.9h-21.5v-2.2h21.5c0.6,0,1.1,0.5,1.1,1.1l0,0
		C461,389.4,460.5,389.9,459.9,389.9L459.9,389.9z"/>
	<path id="el6ux1yksy5gk" class="st5" d="M459.9,413.5h-21.5v-2.2h21.5c0.6,0,1.1,0.5,1.1,1.1c0,0,0,0,0,0l0,0
		C461,413,460.5,413.5,459.9,413.5L459.9,413.5z"/>
	<g id="el7vrwwx8ucwt">
		<g class="st6">
			<rect id="elrtdaafipd18" x="423.7" y="387.7" width="10.3" height="25.8"/>
		</g>
	</g>
	<g id="elivsgkd3wyk">
		<g class="st6">
			<rect id="elhxnhey4s06m" x="361.7" y="387.7" width="10.3" height="25.8"/>
		</g>
	</g>
	<path id="ellu7ip88bwxp" class="st7" d="M459.3,393c0,0.1-4.2,0.1-9.3,0.1s-9.3,0-9.3-0.1s4.2-0.1,9.3-0.1S459.3,392.9,459.3,393z"
		/>
	<path id="elksg75hcyhva" class="st7" d="M459.3,396.4c0,0.1-4.2,0.1-9.3,0.1s-9.3,0-9.3-0.1s4.2-0.1,9.3-0.1
		S459.3,396.3,459.3,396.4z"/>
	<path id="elkangj5zwhx" class="st7" d="M459.3,400.6c0,0.1-4.2,0.1-9.3,0.1s-9.3,0-9.3-0.1s4.2-0.1,9.3-0.1
		S459.3,400.5,459.3,400.6z"/>
	<path id="elzds6pv8myn" class="st7" d="M459.3,404.8c0,0.1-4.2,0.1-9.3,0.1s-9.3,0-9.3-0.1s4.2-0.1,9.3-0.1
		S459.3,404.7,459.3,404.8z"/>
	<path id="elaqvo56pw12" class="st7" d="M459.3,409c0,0.1-4.2,0.1-9.3,0.1s-9.3,0-9.3-0.1s4.2-0.1,9.3-0.1S459.3,409,459.3,409z"/>
	<g id="elvpu9xfy13hn">
		<g class="st8">
			<rect id="eleiwhp6zsteh" x="379.1" y="398.3" width="39.1" height="4.6"/>
		</g>
	</g>
	<rect id="el8xi73jki2e5" x="439.6" y="414" class="st9" width="19.5" height="13.9"/>
	<rect id="elcd5wx5rl2ea" x="356.9" y="413.5" class="st10" width="83" height="14.9"/>
	<path id="elpoxlz4pee5k" class="st10" d="M439.3,414.5h21c0.3,0,0.5-0.2,0.5-0.5c0,0,0,0,0,0l0,0c0-0.3-0.2-0.5-0.5-0.5
		c0,0,0,0,0,0h-21V414.5z"/>
	<path id="elh0nhnf5qwf" class="st10" d="M439.3,427.4h21c0.2,0,0.4,0.2,0.4,0.4v0v0.2c0,0.2-0.2,0.4-0.4,0.4h0h-21l0,0V427.4
		L439.3,427.4z"/>
	<path id="eltgo8u8tyjh9" class="st7" d="M459.1,416.6c0,0.1-4.3,0.1-9.6,0.1s-9.6,0-9.6-0.1s4.3-0.1,9.6-0.1
		S459.1,416.5,459.1,416.6z"/>
	<path id="el8ua55q0d2wi" class="st7" d="M459.1,419.2c0,0.1-4.3,0.1-9.6,0.1s-9.6,0-9.6-0.1s4.3-0.1,9.6-0.1
		S459.1,419.2,459.1,419.2z"/>
	<path id="el2se8jqip71" class="st7" d="M459.1,421.9c0,0.1-4.3,0.1-9.6,0.1s-9.6,0-9.6-0.1s4.3-0.1,9.6-0.1
		S459.1,421.8,459.1,421.9z"/>
	<path id="elm3nlrq28qyf" class="st7" d="M459.1,424.5c0,0.1-4.3,0.1-9.6,0.1s-9.6,0-9.6-0.1s4.3-0.1,9.6-0.1
		S459.1,424.4,459.1,424.5z"/>
	<rect id="ela3s0whlpdw4" x="442.2" y="429.7" class="st11" width="19.9" height="37.7"/>
	<rect id="elyo8t89fmx4i" x="348.7" y="428.4" class="st5" width="93.5" height="40.9"/>
	<path id="elhglh74jpw6k" class="st5" d="M463.7,469.3h-24v-2.7h24c0.7,0,1.3,0.6,1.3,1.3c0,0,0,0,0,0.1l0,0
		C465,468.7,464.4,469.3,463.7,469.3z"/>
	<path id="elolpj3emrw5a" class="st5" d="M439.6,428.4h24.2c0.6,0,1.1,0.5,1.1,1.1l0,0v0.5c0,0.6-0.5,1.1-1.1,1.1l0,0h-24.2l0,0
		V428.4L439.6,428.4z"/>
	<path id="el1ozf46agp5i" class="st7" d="M462.1,434.8c0,0.1-4.5,0.1-10,0.1s-10,0-10-0.1s4.5-0.1,10-0.1S462.1,434.7,462.1,434.8z"
		/>
	<path id="el333kqn4j0pj" class="st7" d="M462.1,439.6c0,0.1-4.5,0.1-10,0.1s-10,0-10-0.1s4.5-0.1,10-0.1S462.1,439.5,462.1,439.6z"
		/>
	<path id="eluhvfjjyttde" class="st7" d="M462.1,444.4c0,0.1-4.5,0.1-10,0.1s-10,0-10-0.1s4.5-0.1,10-0.1S462.1,444.4,462.1,444.4z"
		/>
	<path id="elapvqcrpp1vq" class="st7" d="M462.1,449.3c0,0.1-4.5,0.1-10,0.1s-10-0.1-10-0.1s4.5-0.1,10-0.1S462.1,449.2,462.1,449.3
		z"/>
	<path id="elt4kxev011sk" class="st7" d="M462.1,454.1c0,0.1-4.5,0.1-10,0.1s-10,0-10-0.1s4.5-0.1,10-0.1S462.1,454,462.1,454.1z"/>
	<path id="elp96372de24c" class="st7" d="M462.1,459c0,0.1-4.5,0.1-10,0.1s-10,0-10-0.1s4.5-0.1,10-0.1S462.1,458.9,462.1,459z"/>
	<path id="elhngkvdoih7" class="st7" d="M462.1,463.8c0,0.1-4.5,0.1-10,0.1s-10,0-10-0.1s4.5-0.1,10-0.1S462.1,463.7,462.1,463.8z"
		/>
	<g id="el5iax8xcvk1m">
		<g class="st12">
			<polygon id="elcmg5vt7q6g5" points="371.9,428.4 359.1,469.3 348.7,469.3 348.7,428.4 			"/>
		</g>
	</g>
	<path id="el4avq9pre192" class="st3" d="M360,446.2h3.6c2.6,0,4.4,1.6,4.4,4s-1.8,4-4.4,4H360V446.2z M363.5,452.7
		c1.4,0,2.5-1.1,2.5-2.5s-1.1-2.5-2.5-2.5h-1.7v5H363.5z"/>
	<path id="el3t8cv97vw4d" class="st3" d="M369.5,446.2h1.9v8h-1.9V446.2z"/>
	<path id="elstpwtl4ehb" class="st3" d="M372.7,450.2c0.2-2.4,2.2-4.3,4.7-4.1c1.1,0.1,2.2,0.6,3,1.4l-1.2,1.1
		c-0.5-0.6-1.2-0.9-2-0.9c-1.4,0-2.6,1.1-2.6,2.6c0,1.4,1.1,2.6,2.6,2.6c0.8,0,1.5-0.3,2-1l1.2,1.1c-1.6,1.8-4.4,1.9-6.2,0.3
		C373.3,452.4,372.8,451.4,372.7,450.2z"/>
	<path id="el0tsxj1gzs47l" class="st3" d="M383.1,447.7h-2.6v-1.5h7v1.5H385v6.5h-1.9L383.1,447.7z"/>
	<path id="elf7c7e1crxan" class="st3" d="M388.6,446.2h1.9v8h-1.9V446.2z"/>
	<path id="elwsp8d4kkduf" class="st3" d="M391.8,450.2c-0.1-2.4,1.7-4.5,4.1-4.6s4.5,1.7,4.6,4.1s-1.7,4.5-4.1,4.6
		c-0.1,0-0.2,0-0.2,0c-2.3,0.1-4.2-1.6-4.4-3.9C391.8,450.4,391.8,450.3,391.8,450.2z M398.7,450.2c0-1.4-1.2-2.5-2.6-2.5
		c-1.4,0-2.5,1.2-2.5,2.6c0,1.4,1.1,2.5,2.5,2.5c1.3,0,2.5-1,2.5-2.4C398.7,450.3,398.7,450.3,398.7,450.2z"/>
	<path id="elvnwy4hi1ua" class="st3" d="M409.3,446.2v8h-1.5l-4-4.9v4.9H402v-8h1.5l4,4.9v-4.9H409.3z"/>
	<path id="elltn0wn0eboj" class="st3" d="M416.5,452.5h-3.7l-0.7,1.7h-1.9l3.6-8h1.8l3.6,8h-1.9L416.5,452.5z M415.9,451.1l-1.3-3.1
		l-1.3,3.1L415.9,451.1z"/>
	<path id="elkny3mpheziq" class="st3" d="M425,454.2l-1.5-2.2h-1.7v2.2H420v-8h3.5c2.1,0,3.5,1.1,3.5,2.9c0,1.1-0.6,2.1-1.6,2.5
		l1.8,2.6L425,454.2z M423.3,447.7h-1.5v2.8h1.5c1.1,0,1.7-0.5,1.7-1.4S424.5,447.7,423.3,447.7L423.3,447.7z"/>
	<path id="el72ahy9zhlhe" class="st3" d="M432.1,451.4v2.8h-1.9v-2.9l-3.1-5.1h2l2.1,3.6l2.1-3.6h1.8L432.1,451.4z"/>
</g>
<g id="freepik--Plant--inject-33">
	<rect id="elfe3pj2mliq" x="59.1" y="136.5" class="st10" width="136.8" height="7"/>
	<path id="eljfnqeequi0c" class="st7" d="M170.7,65.2c0,0,0-0.1-0.1-0.2l-0.3-0.6c-0.3-0.5-0.8-1.3-1.4-2.2c-1.9-2.7-4.3-5-7.1-6.7
		c-2-1.2-4.1-2-6.4-2.3c-2.6-0.4-5.3-0.1-7.8,0.8c-2.8,1-5.1,2.9-6.6,5.5c-1.5,2.7-2,5.8-2.9,8.8c-0.4,1.5-1,2.9-1.9,4.2
		c-0.9,1.2-1.9,2.3-3.1,3.1c-1.2,0.9-2.4,1.7-3.6,2.6c-1.1,0.9-2.1,2-2.9,3.1c-1.5,2.2-2.5,4.6-3,7.2c-0.4,2.2-0.6,4.5-0.4,6.8
		c0.3,3.3,0.9,6.5,1.7,9.7c0.3,1.1,0.6,2,0.7,2.6c0.1,0.3,0.2,0.6,0.3,0.9c0-0.3-0.1-0.6-0.2-0.9c-0.2-0.6-0.3-1.5-0.6-2.6
		c-0.8-3.2-1.3-6.4-1.6-9.7c-0.1-2.2,0-4.5,0.4-6.7c0.5-2.5,1.5-4.9,2.9-7c0.8-1.1,1.7-2.1,2.8-3c1.1-0.9,2.3-1.7,3.6-2.6
		c1.3-0.9,2.4-2,3.3-3.2c0.9-1.3,1.5-2.8,1.9-4.3c0.9-3,1.4-6.1,2.9-8.7c1.4-2.4,3.7-4.3,6.4-5.2c2.4-0.9,5-1.2,7.5-0.8
		c2.2,0.3,4.3,1.1,6.3,2.2c2.8,1.7,5.2,3.9,7.2,6.5c0.7,0.9,1.2,1.7,1.5,2.2C170.4,64.8,170.5,65,170.7,65.2z"/>
	<path id="elrkjr9iln9qq" class="st7" d="M131.6,76.2c0.8-0.8,1.2-0.2,2.3,0c1.1,0.2,2.1,0.8,3,1.5c3.9,3.2,5.5,8.4,4.1,13.2
		c-5.4,0.3-10.1-3.9-10.3-9.3c-0.1-1.9,0.4-3.8,1.3-5.4"/>
	<path id="elcrugsblfxuq" class="st7" d="M165.5,60.8c0.4-1,1-0.7,2.1-1c1.1-0.2,2.2-0.2,3.3,0.1c4.9,1.2,8.6,5.2,9.4,10.1
		c-4.8,2.6-10.7,0.8-13.4-3.9c-0.9-1.7-1.3-3.6-1.2-5.5"/>
	<path id="el99v2e34rm8h" class="st7" d="M124.1,97.1c4.1-4.7,11.3-5.2,16-1.1c0.7,0.6,1.3,1.3,1.9,2.1c-2.5,2.3-5.8,3.6-9.3,3.7
		c-3.5-0.1-6.8-1.4-9.3-3.8"/>
	<path id="elxcj9uk3u45n" class="st7" d="M126.9,81.5c-6.3,0.2-11.6-4.8-11.8-11.2c0-0.9,0-1.7,0.2-2.6c5.6-1.3,11.1,2.2,12.4,7.8
		c0.4,1.9,0.3,4-0.4,5.8"/>
	<path id="elmgw27uuz0ht" class="st7" d="M138.8,63.2c-5.9,2.3-12.6-0.7-14.9-6.6c-0.3-0.8-0.5-1.6-0.7-2.5c4.8-3,11.2-1.6,14.3,3.2
		c1.1,1.7,1.6,3.6,1.6,5.6"/>
	<path id="el8b1yzt1ke7i" class="st7" d="M142.8,57.2c5.9-2.3,12.6,0.7,14.9,6.6c0.3,0.8,0.5,1.7,0.7,2.5c-4.8,3-11.2,1.6-14.3-3.2
		c-1.1-1.7-1.6-3.6-1.6-5.6"/>
	<path id="elvs8402ixp4k" class="st7" d="M147.6,54c-6-2-9.3-8.6-7.2-14.6c0.3-0.8,0.6-1.6,1.1-2.3c5.7,0.7,9.6,5.9,8.9,11.6
		c-0.3,2-1.1,3.8-2.4,5.3"/>
	<path id="el5n1zee0yvb" class="st7" d="M159.8,54.6c-2.2-6,0.9-12.6,6.9-14.8c0.8-0.3,1.6-0.5,2.5-0.6c3,4.9,1.4,11.2-3.5,14.2
		c-1.7,1-3.7,1.6-5.7,1.5"/>
	<polyline id="eleszb00vbvst" class="st13" points="110.6,137.1 104.1,96.3 153.9,96.9 149,136.6 	"/>
	<path id="elf6j8inhlseo" class="st5" d="M132.1,88.8c2.4,1.7,5.6,1.9,8.3,0.7c2.6-1.5,4.3-4.2,4.5-7.2c-4.7-2.5-10.5-0.8-13,3.9
		c-0.3,0.6-0.6,1.2-0.8,1.9"/>
	<path id="el2ldji4rrb9f" class="st5" d="M154.9,97.6c2.4,1.7,5.6,1.9,8.3,0.7c2.6-1.5,4.3-4.2,4.5-7.2c-4.6-2.5-10.5-0.8-13,3.8
		c-0.3,0.6-0.6,1.2-0.8,1.9"/>
	<path id="el4amgp5ncihs" class="st5" d="M142.1,78c1.1,2.7,3.6,4.7,6.5,5.1c3,0.2,5.9-1.1,7.7-3.5c-2.5-4.7-8.3-6.4-12.9-3.9
		c-0.6,0.3-1.2,0.7-1.7,1.2"/>
	<path id="elff35x7awif" class="st5" d="M150.4,88.1c-2.9-0.1-5.7,1.3-7.4,3.7c-1.5,2.6-1.5,5.8-0.2,8.5c5.3-0.3,9.4-4.7,9.1-10
		c0-0.7-0.1-1.3-0.3-2"/>
	<path id="elvof7rj6v2c" class="st5" d="M158.4,104.2c-1.4,2.6-1.3,5.8,0.2,8.3c1.7,2.4,4.6,3.8,7.6,3.7c1-2.7,0.8-5.7-0.5-8.3
		c-1.3-2.4-3.7-3.6-6.6-4.2"/>
	<path id="elew775obra1t" class="st5" d="M171.7,106.1c-0.6-0.5-1.3-1-2-1.2c-0.9-0.3-1.8-0.5-2.7-0.5c-1.2,0-2.5,0.1-3.7,0.2
		c-1.5,0.2-3.1,0.1-4.5-0.4c-1.7-0.7-3-2-3.7-3.6c-0.8-1.8-1.3-3.6-1.6-5.5c-0.3-2-0.9-3.9-1.9-5.7c-1.2-1.6-2.6-3.1-4.2-4.3
		c-1.5-1.2-2.9-2.5-4-4.1c-1.8-2.8-2.5-6.1-2-9.4c0.3-2.2,1.1-4.2,2.4-6c0.4-0.5,0.8-0.9,1.2-1.3c0.3-0.3,0.5-0.4,0.5-0.4
		c-0.1,0.2-0.2,0.3-0.4,0.5c-0.4,0.4-0.8,0.9-1.1,1.4c-3,4.5-3.1,10.4-0.2,15c1.1,1.5,2.5,2.9,4,4c1.7,1.2,3.1,2.7,4.3,4.4
		c1,1.8,1.7,3.8,2,5.8c0.3,1.9,0.8,3.7,1.5,5.4c0.7,1.5,1.9,2.8,3.4,3.4c1.4,0.4,2.9,0.6,4.4,0.4c1.2-0.1,2.5-0.2,3.7-0.1
		c0.9,0,1.9,0.2,2.8,0.6c0.6,0.2,1.1,0.6,1.5,1C171.4,105.8,171.5,105.9,171.7,106.1C171.6,106,171.7,106.1,171.7,106.1z"/>
	<path id="el10nhhkfzxvp" class="st5" d="M171.7,106.1c-0.6-0.5-1.3-1-2-1.2c-0.9-0.3-1.8-0.5-2.7-0.5c-1.2,0-2.5,0.1-3.7,0.2
		c-1.5,0.2-3.1,0.1-4.5-0.4c-1.7-0.7-3-2-3.7-3.6c-0.8-1.8-1.3-3.6-1.6-5.5c-0.3-2-0.9-3.9-1.9-5.7c-1.2-1.6-2.6-3.1-4.2-4.3
		c-1.5-1.2-2.9-2.5-4-4.1c-1.8-2.8-2.5-6.1-2-9.4c0.3-2.2,1.1-4.2,2.4-6c0.4-0.5,0.8-0.9,1.2-1.3c0.3-0.3,0.5-0.4,0.5-0.4
		c-0.1,0.2-0.2,0.3-0.4,0.5c-0.4,0.4-0.8,0.9-1.1,1.4c-3,4.5-3.1,10.4-0.2,15c1.1,1.5,2.5,2.9,4,4c1.7,1.2,3.1,2.7,4.3,4.4
		c1,1.8,1.7,3.8,2,5.8c0.3,1.9,0.8,3.7,1.5,5.4c0.7,1.5,1.9,2.8,3.4,3.4c1.4,0.4,2.9,0.6,4.4,0.4c1.2-0.1,2.5-0.2,3.7-0.1
		c0.9,0,1.9,0.2,2.8,0.6c0.6,0.2,1.1,0.6,1.5,1C171.4,105.8,171.5,105.9,171.7,106.1C171.6,106,171.7,106.1,171.7,106.1z"/>
	<path id="elii95v9n7a0e" class="st5" d="M76.5,110.3c0.3-7-5-12.9-12-13.2c-1.7-0.1-3.5,0.2-5.1,0.8c3,6.7,9.3,11.4,16.6,12.3"/>
	<path id="elymp30saws4" class="st5" d="M73.2,112c-2.4,2.7-2.3,7-0.5,10.2s4.8,5.4,7.8,7.4c2.1-7.1-0.7-14.7-7-18.6"/>
	<path id="el6s47abw7qnq" class="st5" d="M85,99.5c0.8,8,7.9,13.8,15.9,13.1c0.2,0,0.5,0,0.7-0.1c-1-3.9-2.5-7.9-5.6-10.5
		s-7.8-3.7-11.2-1.4"/>
	<path id="ell3g5kjku32" class="st5" d="M85,95.5c-0.6-3.6-4.1-6.2-7.7-6.5s-7.2,1.2-10.1,3.4c4.5,5.2,12.3,5.9,17.8,1.8"/>
	<path id="elnk9fqabm97o" class="st5" d="M66.4,125.8c-3.4,2.9-4.3,8.1-2.9,12.4s4.8,7.7,8.5,10.2c1.4-4.2,2.3-8.8,1.6-13.2
		s-3.4-8.7-7.5-10.4"/>
	<path id="elle80seprz7" class="st5" d="M84.4,85.5c3.3-4.8,9.8-6.1,14.6-2.8c0.8,0.5,1.5,1.1,2.1,1.8c-2,4.6-7.4,6.7-12,4.6
		c-1.9-0.8-3.5-2.3-4.4-4.2"/>
	<path id="elvav0ca8qc9" class="st5" d="M88.6,75.2c-7.2,2.2-14.9-1.9-17.1-9.1c-0.2-0.5-0.3-1.1-0.4-1.6c2.7-0.3,5.5-0.3,8.2,0.1
		c2.7,0.4,5.3,1.7,7.3,3.6C88.5,70,89.3,72.7,88.6,75.2"/>
	<path id="elbeatrls13jq" class="st5" d="M96.5,72.5c-4.8-3.9-5.5-10.9-1.6-15.7c0.5-0.6,1-1.1,1.5-1.5c2.5,3,4.1,6.6,4.9,10.4
		c0.4,1.4,0.4,2.9,0,4.3c-0.4,1.4-1.6,2.5-3,2.8"/>
	<g id="elksndqsu5yn">
		<g class="st6">
			<path id="el4dgpjk17zv6" d="M76.5,110.3c0.3-7-5-12.9-12-13.2c-1.7-0.1-3.5,0.2-5.1,0.8c3,6.7,9.3,11.4,16.6,12.3"/>
		</g>
	</g>
	<g id="el8llo3cdaija">
		<g class="st6">
			<path id="elgg1c9k1nj" d="M73.2,112c-2.4,2.7-2.3,7-0.5,10.2s4.8,5.4,7.8,7.4c2.1-7.1-0.7-14.7-7-18.6"/>
		</g>
	</g>
	<g id="eld9nd7m9khtt">
		<g class="st6">
			<path id="elj59zv3el91c" d="M85,99.5c0.8,8,7.9,13.8,15.9,13.1c0.2,0,0.5,0,0.7-0.1c-1-3.9-2.5-7.9-5.6-10.5s-7.8-3.7-11.2-1.4"
				/>
		</g>
	</g>
	<g id="elz56fs9e8frd">
		<g class="st6">
			<path id="elo3zf4lcms6" d="M85,95.5c-0.6-3.6-4.1-6.2-7.7-6.5s-7.2,1.2-10.1,3.4c4.5,5.2,12.3,5.9,17.8,1.8"/>
		</g>
	</g>
	<g id="el0qo3g9q7u5j">
		<g class="st6">
			<path id="el6yf1d7swxn5" d="M66.4,125.8c-3.4,2.9-4.3,8.1-2.9,12.4s4.8,7.7,8.5,10.2c1.4-4.2,2.3-8.8,1.6-13.2s-3.4-8.7-7.5-10.4
				"/>
		</g>
	</g>
	<g id="elhr1vz8q1ygq">
		<g class="st6">
			<path id="elk9qy2gzbvag" d="M84.4,85.5c3.3-4.8,9.8-6.1,14.6-2.8c0.8,0.5,1.5,1.1,2.1,1.8c-2,4.6-7.4,6.7-12,4.6
				c-1.9-0.8-3.5-2.3-4.4-4.2"/>
		</g>
	</g>
	<g id="el2cqhgjims9s">
		<g class="st6">
			<path id="elp4amh14fcw" d="M88.6,75.2c-7.2,2.2-14.9-1.9-17.1-9.1c-0.2-0.5-0.3-1.1-0.4-1.6c2.7-0.3,5.5-0.3,8.2,0.1
				c2.7,0.4,5.3,1.7,7.3,3.6C88.5,70,89.3,72.7,88.6,75.2"/>
		</g>
	</g>
	<g id="elo7m39ugu5bo">
		<g class="st6">
			<path id="elx8f514zwrb9" d="M96.5,72.5c-4.8-3.9-5.5-10.9-1.6-15.7c0.5-0.6,1-1.1,1.5-1.5c2.5,3,4.1,6.6,4.9,10.4
				c0.4,1.4,0.4,2.9,0,4.3c-0.4,1.4-1.6,2.5-3,2.8"/>
		</g>
	</g>
	<path id="elocesuz8v44" class="st5" d="M110.2,97.6c0-0.1,0-0.2,0-0.3c0-0.2,0-0.5,0-0.8c0-0.7,0.1-1.8,0.1-3.2
		c0.2-3.9-0.4-7.7-1.8-11.3c-1-2.5-2.5-4.7-4.5-6.4c-2.3-2-5.2-3.1-8.3-3c-1.6,0-3.3,0.4-4.7,1.1c-1.5,0.8-2.7,2-3.6,3.4
		c-1.8,3-2.2,6.7-2.1,10.4s0.7,7.4,0.2,11c-0.2,1.8-0.6,3.5-1.4,5.1c-0.7,1.6-1.7,2.9-3.1,4c-1.3,0.9-2.7,1.7-4.3,2.2
		c-1.4,0.5-2.7,1.1-4,1.8c-2.3,1.4-4.1,3.4-5.3,5.8c-1,1.9-1.5,4.1-1.5,6.3c0,1.7,0.3,3.3,0.8,4.9c0.5,1.3,1.1,2.6,1.9,3.8
		c-0.1-0.1-0.1-0.1-0.2-0.2c-0.2-0.2-0.3-0.4-0.5-0.7c-0.6-0.9-1.1-1.8-1.4-2.8c-0.6-1.6-0.9-3.3-0.9-4.9c0-2.2,0.5-4.5,1.5-6.5
		c1.2-2.5,3.1-4.5,5.4-6c2.5-1.7,5.7-2.1,8.2-4s3.8-5.3,4.2-8.8s-0.1-7.1-0.3-10.9S85,80,86.9,76.9c0.9-1.5,2.2-2.8,3.8-3.6
		c1.5-0.8,3.2-1.2,4.9-1.2c3.2,0,6.2,1.1,8.6,3.2c2,1.8,3.6,4.1,4.6,6.6c0.8,2.1,1.4,4.2,1.6,6.5c0.2,1.7,0.2,3.3,0.1,5
		c-0.1,1.4-0.2,2.4-0.2,3.2c0,0.3-0.1,0.6-0.1,0.8C110.2,97.4,110.2,97.5,110.2,97.6z"/>
	<g id="el17m7ew39867">
		<g class="st6">
			<path id="elz8l1stknhdm" d="M110.2,97.6c0-0.1,0-0.2,0-0.3c0-0.2,0-0.5,0-0.8c0-0.7,0.1-1.8,0.1-3.2c0.2-3.9-0.4-7.7-1.8-11.3
				c-1-2.5-2.5-4.7-4.5-6.4c-2.3-2-5.2-3.1-8.3-3c-1.6,0-3.3,0.4-4.7,1.1c-1.5,0.8-2.7,2-3.6,3.4c-1.8,3-2.2,6.7-2.1,10.4
				s0.7,7.4,0.2,11c-0.2,1.8-0.6,3.5-1.4,5.1c-0.7,1.6-1.7,2.9-3.1,4c-1.3,0.9-2.7,1.7-4.3,2.2c-1.4,0.5-2.7,1.1-4,1.8
				c-2.3,1.4-4.1,3.4-5.3,5.8c-1,1.9-1.5,4.1-1.5,6.3c0,1.7,0.3,3.3,0.8,4.9c0.5,1.3,1.1,2.6,1.9,3.8c-0.1-0.1-0.1-0.1-0.2-0.2
				c-0.2-0.2-0.3-0.4-0.5-0.7c-0.6-0.9-1.1-1.8-1.4-2.8c-0.6-1.6-0.9-3.3-0.9-4.9c0-2.2,0.5-4.5,1.5-6.5c1.2-2.5,3.1-4.5,5.4-6
				c2.5-1.7,5.7-2.1,8.2-4s3.8-5.3,4.2-8.8s-0.1-7.1-0.3-10.9S85,80,86.9,76.9c0.9-1.5,2.2-2.8,3.8-3.6c1.5-0.8,3.2-1.2,4.9-1.2
				c3.2,0,6.2,1.1,8.6,3.2c2,1.8,3.6,4.1,4.6,6.6c0.8,2.1,1.4,4.2,1.6,6.5c0.2,1.7,0.2,3.3,0.1,5c-0.1,1.4-0.2,2.4-0.2,3.2
				c0,0.3-0.1,0.6-0.1,0.8C110.2,97.4,110.2,97.5,110.2,97.6z"/>
		</g>
	</g>
	<path id="elq1vbkitz41k" class="st5" d="M182.8,88.7c0.5-1.2,0.7-2.4,0.8-3.7c0-1.5-0.3-2.9-1-4.2c-0.9-1.7-2.3-3.1-4.1-3.9
		c-1-0.5-2.1-0.8-3.2-0.9c-1.2-0.1-2.4,0.1-3.6,0.4c-2.4,0.7-4.9,2-7.8,2.6c-1.5,0.3-3,0.3-4.5-0.1c-1.5-0.5-2.8-1.5-3.6-2.9
		c-1.7-2.7-2.2-6.1-4.3-8.6c-1-1.2-2.4-2.1-3.9-2.6c-1.5-0.5-3.1-0.6-4.6-0.5c-3,0.3-5.7,1.7-7.6,4c-1.8,2-3.1,4.4-3.8,7
		c-0.7,2.3-1,4.6-0.8,7c0.2,3.4,0.6,6.8,1.3,10.2c0.2,1.2,0.4,2.1,0.5,2.8c0.1,0.3,0.1,0.5,0.1,0.7c0,0.1,0,0.2,0,0.2
		c0-0.1-0.1-0.2-0.1-0.2c-0.1-0.2-0.1-0.4-0.2-0.7c-0.1-0.7-0.3-1.6-0.6-2.7c-0.7-3.4-1.2-6.8-1.5-10.2c-0.1-2.4,0.1-4.8,0.8-7.1
		c0.7-2.7,2.1-5.2,3.9-7.3c1-1.1,2.2-2.1,3.5-2.8c1.4-0.8,2.9-1.2,4.5-1.4c1.6-0.2,3.3,0,4.8,0.5c1.6,0.5,3.1,1.5,4.2,2.7
		c2.2,2.7,2.7,6.1,4.4,8.6c0.8,1.3,2,2.2,3.4,2.7c1.4,0.4,2.8,0.4,4.2,0.1c2.8-0.5,5.2-1.9,7.7-2.6c1.2-0.4,2.5-0.5,3.7-0.4
		c1.2,0.1,2.3,0.4,3.3,0.9c1.8,0.9,3.3,2.3,4.2,4.1c0.7,1.4,1,2.9,0.9,4.4c0,0.9-0.2,1.9-0.5,2.8C183.1,88.1,182.9,88.4,182.8,88.7z
		"/>
	<path id="elmwoi19az7" class="st5" d="M153.6,70.6c2.7,1.6,6,1.9,8.9,0.6c2.6-1.5,4.3-4.2,4.5-7.2c-4.7-2.5-10.5-0.8-13,3.9
		c-0.3,0.6-0.6,1.2-0.8,1.9"/>
	<path id="eljj42vgzd8cp" class="st5" d="M163.1,79.2c0,3.1,1.6,6.1,4.1,7.8c2.6,1.5,5.8,1.5,8.5,0.2c-0.2-2.9-1.7-5.5-3.9-7.3
		c-2.4-1.6-5.3-2.2-8.1-1.5"/>
	<path id="elx10gkdhzkud" class="st5" d="M179.4,77.2c2.9,1.3,6.2,1.2,8.9-0.4c2.4-1.7,3.8-4.6,3.7-7.6c-4.9-2-10.5,0.3-12.5,5.2
		c-0.3,0.6-0.5,1.3-0.6,2"/>
	<path id="el4bj3uby9j62" class="st5" d="M139.8,64.9c-2.4-2.1-4-5.7-3.5-8.4c0.6-2.9,2.7-5.3,5.5-6.4c3.8,3.7,3.9,9.7,0.2,13.5
		c-0.5,0.5-1,0.9-1.6,1.3"/>
	<path id="elpm1af1cero7" class="st5" d="M75.8,53.2c0,0,0-0.1,0.1-0.2l0.3-0.6c0.3-0.5,0.8-1.3,1.4-2.2c1.9-2.7,4.3-5,7.1-6.7
		c2-1.2,4.1-2,6.4-2.3c2.6-0.4,5.3-0.1,7.8,0.8c2.8,1,5.1,2.9,6.7,5.5c1.5,2.7,2,5.8,2.9,8.8c0.4,1.5,1,2.9,1.8,4.2
		c0.9,1.2,1.9,2.3,3.2,3.1c1.2,0.9,2.4,1.7,3.6,2.6c1.1,0.9,2.1,2,2.9,3.1c1.5,2.2,2.5,4.6,3,7.2c0.4,2.2,0.6,4.5,0.4,6.8
		c-0.3,3.3-0.9,6.5-1.7,9.7c-0.3,1.1-0.6,2-0.7,2.6c-0.1,0.3-0.2,0.6-0.3,0.9c0-0.3,0.1-0.6,0.2-0.9c0.2-0.6,0.3-1.5,0.6-2.6
		c0.8-3.2,1.3-6.4,1.5-9.7c0.1-2.2,0-4.5-0.5-6.7c-0.5-2.5-1.5-4.9-2.9-7c-0.8-1.1-1.7-2.1-2.8-3c-1.1-0.9-2.3-1.7-3.6-2.6
		c-1.3-0.9-2.4-2-3.2-3.3c-0.9-1.3-1.5-2.8-1.9-4.3c-0.9-3-1.4-6.1-2.9-8.7c-1.4-2.4-3.7-4.3-6.4-5.2c-2.4-0.9-5-1.2-7.5-0.8
		c-2.2,0.3-4.4,1.1-6.3,2.2c-2.8,1.7-5.2,3.9-7.2,6.5c-0.7,0.9-1.2,1.7-1.5,2.2C76.2,52.7,76,52.9,75.8,53.2z"/>
	<path id="els6jl9hwtif" class="st5" d="M115,64.1c-0.8-0.8-1.2-0.2-2.3,0c-1.1,0.2-2.1,0.8-3,1.5c-3.9,3.2-5.5,8.4-4.1,13.2
		c5.4,0.3,10.1-3.9,10.3-9.3c0.1-1.9-0.4-3.8-1.3-5.5"/>
	<path id="el8mm4vxl2l44" class="st5" d="M81.1,48.7c-0.4-1-1-0.7-2.1-1c-1.1-0.2-2.2-0.2-3.3,0.1c-4.9,1.2-8.6,5.2-9.4,10.2
		c4.8,2.6,10.7,0.8,13.3-3.9c0.9-1.7,1.3-3.6,1.2-5.5"/>
	<path id="eli7wf1f968qq" class="st5" d="M122.4,85c-4.1-4.7-11.3-5.3-16-1.2c-0.7,0.6-1.3,1.3-1.8,2c2.5,2.3,5.8,3.6,9.3,3.7
		c3.5-0.1,6.8-1.4,9.3-3.8"/>
	<path id="elv9utdf4jed" class="st5" d="M119.7,69.4c6.3,0.2,11.6-4.8,11.8-11.2c0-0.9,0-1.7-0.2-2.6c-5.6-1.3-11.1,2.2-12.4,7.8
		c-0.4,1.9-0.3,4,0.4,5.8"/>
	<path id="elr2wl65xbb98" class="st5" d="M107.8,51.1c5.9,2.3,12.6-0.7,14.9-6.6c0.3-0.8,0.5-1.7,0.7-2.5c-4.8-3-11.2-1.6-14.3,3.2
		c-1.1,1.7-1.6,3.6-1.6,5.6"/>
	<path id="eluafbgokwslk" class="st5" d="M103.8,45.1c-5.9-2.3-12.6,0.7-14.9,6.6c-0.3,0.8-0.5,1.6-0.6,2.5c4.8,3,11.2,1.6,14.3-3.2
		c1.1-1.7,1.6-3.6,1.6-5.6"/>
	<path id="el96kk2meaall" class="st5" d="M99,41.9c6-2,9.2-8.6,7.2-14.6c-0.3-0.8-0.6-1.6-1.1-2.3c-5.7,0.7-9.7,5.9-8.9,11.6
		c0.3,2,1.1,3.9,2.4,5.4"/>
	<path id="el8w2fdtbafe3" class="st5" d="M86.8,42.5c2.2-6-0.9-12.6-6.9-14.8c-0.8-0.3-1.6-0.5-2.5-0.6c-3,4.9-1.4,11.2,3.5,14.2
		c1.7,1,3.7,1.6,5.7,1.5"/>
	<polygon id="el8bvnzvpthjn" class="st13" points="103.4,132.4 107.2,137.1 154.2,137.1 157.4,132.4 	"/>
	<path id="elf6m5agenxa" class="st10" d="M156.3,132.3c0,0.1-11.5,0.3-25.8,0.3s-25.7-0.1-25.7-0.3s11.5-0.3,25.7-0.3
		S156.3,132.2,156.3,132.3z"/>
	<path id="elnmz2or8mt" class="st10" d="M151.1,114.5c-0.1,0.1-0.2,0.3-0.3,0.4c-0.3,0.4-0.6,0.7-0.9,1c-1.2,1.2-2.7,2.1-4.2,2.9
		c-2.3,1.1-4.8,1.8-7.3,1.9c-1.5,0.1-3-0.1-4.5-0.4c-1.6-0.4-3.1-0.9-4.6-1.5c-3-1.3-5.8-2.8-8.4-3.6c-2.3-0.9-4.8-1.1-7.3-0.7
		c-1.7,0.3-3.2,1-4.5,2.1c-0.4,0.4-0.9,0.9-1.3,1.3c0,0,0.1-0.2,0.2-0.4c0.3-0.4,0.6-0.7,0.9-1.1c1.3-1.2,2.8-2,4.5-2.3
		c2.5-0.5,5.1-0.2,7.5,0.6c2.7,0.8,5.5,2.3,8.5,3.6c1.4,0.6,2.9,1.1,4.5,1.5c1.4,0.3,2.9,0.5,4.4,0.4c2.5-0.1,4.9-0.7,7.2-1.7
		C147.5,117.4,149.4,116.1,151.1,114.5z"/>
	<path id="el23jckpsdftc" class="st10" d="M151.5,110.8c0,0-0.1,0.1-0.3,0.4c-0.3,0.3-0.6,0.6-1,0.9c-1.3,1.1-2.8,2-4.3,2.7
		c-2.3,1-4.8,1.6-7.4,1.8c-1.5,0.1-3,0-4.5-0.3c-1.6-0.3-3.1-0.7-4.6-1.3c-3.1-1.1-5.9-2.4-8.7-3.2c-2.4-0.8-4.9-1-7.4-0.7
		c-1.7,0.2-3.2,0.8-4.6,1.8c-1,0.7-1.4,1.2-1.4,1.2s0.1-0.1,0.3-0.4c0.3-0.4,0.6-0.7,1-1c1.4-1,3-1.7,4.7-2c2.5-0.4,5.1-0.2,7.6,0.6
		c2.8,0.7,5.6,2,8.7,3.1c1.5,0.6,3,1,4.6,1.3c1.4,0.3,2.9,0.4,4.4,0.3c2.5-0.1,4.9-0.6,7.2-1.6C147.8,113.5,149.7,112.3,151.5,110.8
		z"/>
	<rect id="elx1m4ybhaadm" x="96.2" y="141.7" class="st10" width="4.1" height="11.4"/>
	<rect id="el6mnbsparfow" x="154.8" y="141.7" class="st10" width="4.1" height="11.4"/>
</g>
<g id="freepik--Character--inject-33">
	<polyline id="el7jvilgaq5k8" class="st14" points="211.4,248.4 229.8,240.7 273.5,232 320.7,241.3 258.3,308.3 228.8,310 
		206.4,265.5 211.4,248.4 	"/>
	<path id="elffg205i1grp" class="st5" d="M370.4,299.5c0,0-29.8-47.9-37.8-53.6s-33.6-9.3-33.6-9.3s-28.2,63.6-55,61.4
		s-29.8-50.9-29.8-50.9l-11.8,4.7c-4.2,1.7-7.5,5.1-9,9.4l-23.6,68.8l40.2,9.6c7.1,26.3,17,49.2,29.5,69l1.3-6.6l83.5-1.3l24.2-9.4
		l-29.1-66.2L370.4,299.5z"/>
	<path id="elg3c3gqooht" class="st13" d="M216.1,358.6c-0.1-0.2-0.2-0.3-0.2-0.5c-0.1-0.4-0.3-0.9-0.6-1.6c-0.5-1.4-1.2-3.4-2-5.8
		c-1.7-4.9-4-11.7-6.1-19.3c-1-3.8-1.9-7.5-2.6-10.9s-1.1-6.5-1.3-9c-0.1-1.3-0.2-2.5-0.2-3.5s-0.1-2-0.1-2.7v-1.7
		c0-0.2,0-0.4,0-0.6c0,0.2,0.1,0.4,0.1,0.6c0,0.4,0,1,0.1,1.7s0.1,1.6,0.2,2.6s0.1,2.2,0.3,3.5c0.3,2.6,0.7,5.6,1.4,9
		s1.5,7,2.6,10.8c2.1,7.6,4.4,14.4,6,19.3c0.8,2.5,1.4,4.5,1.9,5.9c0.2,0.6,0.4,1.2,0.5,1.6C216,358.2,216.1,358.4,216.1,358.6z"/>
	<path id="elcafpktyz5a5" class="st13" d="M300.2,347.6c-0.1,0.1-0.3,0.2-0.4,0.2c-0.3,0.1-0.7,0.4-1.3,0.6
		c-1.7,0.7-3.4,1.3-5.1,1.7c-11.8,3-24.4-0.2-33.2-8.6c-1.3-1.2-2.5-2.6-3.6-4c-0.4-0.5-0.7-0.9-0.9-1.2c-0.1-0.1-0.2-0.3-0.3-0.4
		c0,0,0.5,0.5,1.3,1.5c1.2,1.4,2.4,2.7,3.7,3.9c8.9,8.1,21.2,11.3,32.9,8.5c1.7-0.4,3.5-0.9,5.1-1.6
		C299,348,299.6,347.8,300.2,347.6z"/>
	<path id="elnpqunl8pcvi" class="st13" d="M309.1,272.3c0-0.4,0.1-0.8,0.2-1.2c0.2-0.8,0.5-1.9,1-3.2c1.3-3.4,2.9-6.7,4.9-9.8
		c2-3.1,4.4-5.9,7-8.5c0.8-0.8,1.6-1.5,2.5-2.2c0.3-0.3,0.6-0.5,1-0.7c0.1,0.1-1.3,1.2-3.2,3.2c-5.1,5.2-9.1,11.4-11.8,18.1
		C309.6,270.7,309.1,272.4,309.1,272.3z"/>
	<path id="elp0mfizinq4" class="st13" d="M311.8,325.7c-0.1,0-1.3-8.9-2.6-19.9s-2.2-19.9-2.1-19.9s1.3,8.9,2.6,19.9
		S312,325.7,311.8,325.7z"/>
	<g id="elz8xnez3vz2o">
		<g class="st12">
			<path id="el9wzufw7uqua" d="M255.9,337.8c4.3,6.3,8.7,12.6,14.8,17.2s14.1,7.1,21.4,4.9c2.3-0.7,4.5-1.8,6.5-3.2
				c2.9-1.9,5.7-4.5,6.1-8c0.2-0.8-0.1-1.6-0.7-2.1c-0.5-0.2-1-0.2-1.4-0.1c-5.1,1-9.5,4.6-14.7,5c-2.7,0.1-5.3-0.3-7.9-1.1
				C270.8,348,262.1,344.7,255.9,337.8"/>
		</g>
	</g>
	<g id="elqq0flo6ftmh">
		<g class="st12">
			<path id="eljexsqxqoot" d="M315.9,365.5c1.3-1.6,2.2-2.9,3.4-4.3c0.6-0.8,1-1.6,1.3-2.6c0.2-1.1,0.2-2.2,0-3.3
				c-1.3-9.3-3.6-18.4-6.7-27.2c-0.3-0.4-0.2-1.1,0.2-1.4c0.1-0.1,0.3-0.2,0.4-0.2c1.5-0.5,3.3-1.1,4.8-1.6
				c2.2,11,4.1,23.2,6.3,33.8C325.6,358.6,319.1,363.4,315.9,365.5"/>
		</g>
	</g>
	<g id="elyr0r7e33hn">
		<g class="st12">
			<path id="elm0zrpu0zccb" d="M209.6,339.8c-3.6-3.5-6.6-7.7-8.8-12.2c-1-1.9-1.7-4-2.1-6.1c-0.4-2.4-0.6-4.8-0.4-7.2
				c0.2-8.2,1.3-16.3,3.3-24.2c0.3,0.5,0.5,1,0.6,1.6c1.5,8.2,0.6,16.6,1.9,24.9c0.5,3.3,1.4,6.6,1.9,9.9c0.2,1.7,0.6,3.4,1,5.1
				c0.4,1.5,1.1,2.9,1.6,4.4c0.4,1.4,0.8,2.9,1,4.3"/>
		</g>
	</g>
	<path id="elkx0uijmdhlq" class="st14" d="M271.9,396.9l53.7-38.3l-6.3-33.6l35.2-18.2c0,0,12.8,53.5,4.3,74.1
		C356,388,269,415.6,269,415.6L271.9,396.9z"/>
	<path id="elj46cn0d3zwg" class="st15" d="M345.9,355.3c0,0.1-1.2-0.4-3.2-0.7c-1.1-0.2-2.3-0.3-3.5-0.3c-2.9-0.1-5.7,0.4-8.4,1.5
		c-1.1,0.4-2.1,0.9-3.1,1.5c-1.7,1-2.7,1.8-2.7,1.7s0.2-0.2,0.6-0.6c0.6-0.5,1.2-1,1.9-1.4c1-0.6,2.1-1.2,3.2-1.6
		c1.4-0.5,2.8-0.9,4.2-1.2c1.4-0.2,2.9-0.3,4.4-0.3c1.2,0,2.4,0.2,3.5,0.5c0.8,0.2,1.6,0.4,2.3,0.7
		C345.4,355,345.6,355.1,345.9,355.3z"/>
	<path id="el9a536536f0w" class="st15" d="M338.3,348.6c-0.7,0.4-1.5,0.8-2.2,1.2c-1.4,0.8-3.2,1.9-5.2,3.2c-1.7,1.1-3.2,2.4-4.5,4
		c-0.9,1.2-1.3,2.1-1.4,2.1c0.2-0.8,0.5-1.6,1.1-2.3c1.2-1.7,2.7-3.1,4.5-4.2c1.7-1.2,3.5-2.2,5.3-3.1
		C336.6,349.1,337.4,348.8,338.3,348.6z"/>
	<path id="elxbq8wrlhqx" class="st15" d="M229.1,422.7c2.9,0,5.2,0,5.2,0.1s-2.3,0.1-5.2,0.1s-5.2,0-5.2-0.1
		S226.2,422.7,229.1,422.7z"/>
	<path id="eloazmsrph158" class="st13" d="M235.6,400.6c0,0-99.3-40.8-115.8-44.3s-45.3-5.3-57.5,19c-8.5,16.9-9.4,37,23,54.1
		s128.9,33,128.9,33s87.1,21.8,101.2,15.9s33.6-18.2,27.7-41.8s-4.6-35.7-25.8-37c-20.9-1.3-26.1-2-46,17.2L235.6,400.6z"/>
	<path id="el805larqbvo9" class="st13" d="M348,390.3c0,0,17.8,29.8,11.1,47s-24,28.4-24,28.4L306.4,403L348,390.3z"/>
	<path id="elqu8dlpvl35j" class="st10" d="M225.9,442.4l-0.4-0.2l-1.1-0.5c-0.9-0.5-2.3-1.2-4-2.2c-3.4-1.9-8.4-4.8-14.2-8.8
		s-12.6-9.1-19.9-15c-3.6-2.9-7.5-6-11.4-9.2s-8-6.6-12.4-9.7c-4.2-3.1-8.7-5.8-13.4-8.2c-4.4-2.2-8.9-4.1-13.5-5.8
		c-7.8-2.7-15.8-5-23.9-6.6c-6.9-1.5-12.6-2.4-16.5-3.1l-4.5-0.8l-1.2-0.2l-0.4-0.1h0.4l1.2,0.2l4.5,0.7c3.9,0.6,9.6,1.5,16.5,2.9
		c8.1,1.6,16.2,3.8,24,6.5c4.6,1.6,9.1,3.6,13.5,5.7c4.7,2.4,9.2,5.1,13.5,8.2c4.4,3.2,8.5,6.5,12.4,9.7s7.8,6.3,11.4,9.2
		c7.3,5.9,13.9,11,19.8,15s10.7,7,14.1,9c1.7,1,3.1,1.8,4,2.3c0.4,0.2,0.8,0.4,1,0.6C225.7,442.2,225.8,442.3,225.9,442.4z"/>
	<path id="ell5k3ejklvb" class="st14" d="M227.1,441.8c4.2-1.7-9.1,2.7-13.5,1.4c-7-2-11.8-10-19.1-10.1c-4.7-0.1-8.7,3.1-13.1,4.7
		c-5.4,2-11.3,1.5-17,0.6s-11.4-2-17.1-1.4c-1.7,0-3.3,0.7-4.6,1.8c-1.5,1.7-1.7,4.2-0.5,6.1c1.2,1.9,3,3.2,5.2,3.9
		c2.1,0.6,4.3,1,6.5,1.2c10.2,1.5,19.9,5.6,29.9,8.1c10.3,2.6,21,3.5,31.6,4.4C215.4,462.5,214.7,446.9,227.1,441.8z"/>
	<path id="ely0nvw87c52b" class="st10" d="M319.3,442.4c0.1,0.1,0.1,0.3,0.2,0.4c0.2,0.4,0.3,0.8,0.4,1.2c0.4,1.5,0.7,3,0.8,4.5
		c0.2,2.3,0.1,4.6-0.3,6.8c-0.5,2.8-1.6,5.4-3.1,7.7c-1.6,2.3-3.7,4.3-6.1,5.7c-2,1.2-4.1,2-6.4,2.3c-1.5,0.2-3.1,0.2-4.6,0
		c-0.4-0.1-0.8-0.1-1.2-0.3c-0.1,0-0.3-0.1-0.4-0.1c2,0.3,4.1,0.3,6.2,0c2.2-0.4,4.3-1.2,6.2-2.4c2.3-1.4,4.4-3.3,5.9-5.6
		c1.5-2.3,2.6-4.9,3.1-7.5c0.4-2.2,0.6-4.4,0.4-6.7c-0.1-1.5-0.3-3-0.7-4.5C319.5,443.5,319.3,443,319.3,442.4z"/>
	<polygon id="elfowtcq6m07" class="st5" points="250.7,422.8 311.2,395.1 330.5,399.1 331.4,401.2 260.6,429.6 250.7,427.2 	"/>
	<polygon id="elq23k2qwi00p" class="st10" points="312.9,397.6 250.7,427.2 271.1,432.1 335.4,402 	"/>
	<path id="elqvcg2uwh0a" class="st13" d="M227.1,441.8c0,0,32-21.9,40.4-26.2s53-14.6,64.1-9.9s-33.2,44.4-33.2,44.4L227.1,441.8z"
		/>
	<path id="eltiqnltw10ea" class="st10" d="M292.2,424.3c-0.1,0-0.2-0.1-0.2-0.1l-0.7-0.3l-2.6-1.1c-3.2-1.4-6.4-2.6-9.8-3.6
		c-2.3-0.6-4.7-1-7-1.1c-1.3,0-2.7,0-4,0.2c-1.4,0.2-2.8,0.5-4.1,0.9c-5.6,1.7-10.9,5.4-16.3,9.3s-11,7.2-15.8,10.4
		c-2.4,1.6-4.7,3.1-6.9,4.6c-2,1.3-3.7,2.9-5.1,4.9c-1.1,1.6-2,3.4-2.7,5.2c-0.6,1.6-1,3.1-1.3,4.3s-0.5,2.1-0.7,2.7l-0.2,0.7
		c0,0.1,0,0.2-0.1,0.2c0-0.1,0-0.2,0-0.3c0-0.2,0.1-0.4,0.1-0.7c0.1-0.6,0.3-1.6,0.6-2.8c0.3-1.5,0.8-2.9,1.3-4.3
		c0.6-1.9,1.5-3.7,2.6-5.4c1.4-2,3.2-3.7,5.2-5c2.1-1.5,4.4-3.1,6.8-4.6c4.9-3.2,10.3-6.6,15.8-10.4s10.8-7.6,16.5-9.3
		c2.7-0.8,5.4-1.2,8.2-1c2.4,0.1,4.8,0.5,7.1,1.2c3.3,1,6.6,2.2,9.7,3.8c1.1,0.5,2,0.9,2.5,1.2l0.7,0.3
		C292.1,424.2,292.2,424.2,292.2,424.3z"/>
	<path id="elr8hljmso3t9" class="st10" d="M297.4,422.5c-0.1,0.1-0.9-0.7-2.5-1.6c-2.1-1.1-4.4-1.8-6.8-2.1
		c-2.4-0.3-4.8-0.4-7.2-0.2c-1,0.1-2,0.1-3,0.1c1-0.3,2-0.4,3-0.5c2.4-0.2,4.9-0.2,7.3,0.1c2.5,0.3,4.9,1,7,2.3
		c0.6,0.4,1.2,0.8,1.8,1.3C297.3,422.2,297.5,422.5,297.4,422.5z"/>
	<path id="elthvvjewtr0a" class="st10" d="M339.3,409.8c0,0-0.6-0.4-1.8-1.2c-1.7-1-3.4-1.9-5.3-2.5c-2.7-0.9-5.6-1.5-8.5-1.7
		c-3.5-0.3-7.1-0.2-10.6,0.3c-3.8,0.5-7.3,1.1-10.6,1.8s-6.1,1.3-8.5,1.8s-4.4,1-5.7,1.4l-1.6,0.4c-0.2,0.1-0.4,0.1-0.5,0.1
		c0.2-0.1,0.3-0.2,0.5-0.2l1.5-0.5c1.3-0.4,3.3-1,5.7-1.6s5.3-1.3,8.5-1.9s6.8-1.4,10.6-1.8c3.6-0.4,7.2-0.5,10.7-0.2
		c2.9,0.2,5.8,0.9,8.6,1.9c1.9,0.7,3.6,1.6,5.3,2.7c0.6,0.4,1,0.8,1.3,1S339.3,409.8,339.3,409.8z"/>
	<path id="ellk7dia9g79" class="st14" d="M186.3,334.5c0,0,5.4,40.4,7.5,46.9s19.1,29.9,19.1,29.9l22.6-10.7l-15.1-28.5L210.1,340
		L186.3,334.5z"/>
	<path id="elg9v3f474ga" class="st15" d="M234.7,399.1c2-0.3,3.9-0.4,5.9-0.3c0.8,0,1.5,0.2,2.1,0.6c0.4,0.3,0.7,0.7,0.9,1.1
		c1.1,2,1.8,4.3,1.8,6.6c0.1,0.4-0.1,0.9-0.3,1.2c-0.5,0.6-1.4,0.4-2.1,0.1c-1-0.4-1.9-1-2.7-1.7c-1.1-1-2-2-2.8-3.2l-0.9-1.1
		c-0.8-1-1.5-1.9-2.2-2.9"/>
	<path id="ellh10g2ngn6p" class="st7" d="M226.5,381.7c1.6,4.2,6.6,17.6,6.6,17.6l3.4,3.8l-7.8-22.3c-0.2-0.6-0.9-0.9-1.5-0.8l0,0
		c-0.7,0.2-1,0.9-0.9,1.5C226.5,381.6,226.5,381.6,226.5,381.7z"/>
	<path id="elx4t3rg4yvqb" class="st14" d="M222.2,400.5c0,0-4.8,0.4-6.2,1.8s-1.8,5.7-1.8,5.7s-2.8,3.9-1.3,7.3c0,0-2.3,5.4-0.4,7.1
		c0.8,0.8,1.7,1.6,2.7,2.1H237l8.6-13.2l-8.6-8.2c0,0-5.4-8-8.3-8.3S219.9,395,222.2,400.5z"/>
	<path id="el1ru7ey050aq" class="st15" d="M222.2,400.5c-0.1-0.1-0.1-0.3-0.2-0.4c-0.2-0.4-0.3-0.8-0.4-1.2c-0.1-0.7-0.1-1.4,0.2-2
		c0.4-0.8,1.1-1.5,2-1.8c1.1-0.4,2.2-0.6,3.3-0.6c0.6,0,1.3,0,1.9,0.2c0.7,0.2,1.3,0.6,1.8,1c2.4,2.1,4.5,4.5,6.2,7.2l0,0l8.6,8.2
		l0.1,0.1l-0.1,0.2l-8.6,13.2l-0.1,0.1h-1.3h-20.6h-0.1l0,0c-0.9-0.5-1.7-1.1-2.4-1.8c-0.4-0.3-0.7-0.7-0.9-1.2
		c-0.2-0.5-0.3-0.9-0.3-1.4c0.1-1.8,0.5-3.5,1.2-5.2v0.2c-0.5-1.3-0.6-2.8-0.2-4.1c0.3-1.2,0.8-2.3,1.5-3.4v0.1
		c0.2-1.8,0.6-3.5,1.4-5.1c0.2-0.3,0.4-0.6,0.8-0.9c0.3-0.2,0.6-0.4,0.9-0.5c0.6-0.2,1.1-0.4,1.7-0.5c0.8-0.2,1.6-0.3,2.4-0.4h0.6
		L222.2,400.5c0.1,0.1,0,0.1-0.1,0.1l-0.6,0.1c-0.6,0.1-1.4,0.2-2.4,0.5c-0.6,0.1-1.1,0.3-1.7,0.5c-0.3,0.1-0.6,0.3-0.9,0.5
		c-0.3,0.2-0.5,0.5-0.7,0.8c-0.7,1.6-1.2,3.3-1.3,5l0,0l0,0c-0.7,1-1.1,2.1-1.4,3.3c-0.4,1.3-0.3,2.6,0.2,3.9v0.1v0.1
		c-0.7,1.6-1.1,3.3-1.1,5c0,0.4,0.1,0.9,0.2,1.3c0.2,0.4,0.5,0.7,0.8,1c0.7,0.6,1.4,1.2,2.2,1.7h-0.1H236h1l-0.2,0.1l8.6-13.2v0.3
		l-8.6-8.3l0,0l0,0c-1.7-2.6-3.8-5-6.1-7.2c-0.5-0.4-1.1-0.8-1.7-1c-0.6-0.1-1.2-0.2-1.8-0.2c-1.1,0-2.2,0.2-3.2,0.5
		c-0.8,0.3-1.5,0.9-1.9,1.6c-0.3,0.6-0.4,1.2-0.2,1.9c0.1,0.4,0.2,0.8,0.3,1.2C222.2,400.3,222.2,400.5,222.2,400.5z"/>
	<path id="elvnibggihc3" class="st15" d="M232.4,418.1c-0.9,0-1.9-0.1-2.8-0.2c-0.9-0.1-1.9-0.2-3-0.4c-0.6-0.1-1.2-0.2-1.8-0.5
		c-0.6-0.3-1.2-0.6-1.7-1c-1.8-1.4-3.5-3-4.9-4.8c-0.6-0.7-1.1-1.5-1.5-2.4c0.1,0,0.7,0.8,1.8,2.1c1.5,1.7,3.1,3.2,4.9,4.6
		c0.5,0.4,1,0.7,1.6,1c0.5,0.2,1.1,0.4,1.7,0.5l3,0.5C230.6,417.6,231.6,417.8,232.4,418.1z"/>
	<path id="eleb9y3m7j22l" class="st15" d="M231.5,423.7c-0.9,0.2-1.8,0.3-2.7,0.3c-1,0.1-2,0-3-0.1c-1.2-0.2-2.4-0.5-3.5-1.1
		c-2-1-3.8-2.4-5.3-4c-0.7-0.6-1.3-1.3-1.8-2.1c0.7,0.5,1.4,1.1,2.1,1.8c1.6,1.5,3.3,2.8,5.2,3.8c2,0.9,4.1,1.3,6.3,1.3
		C229.7,423.6,230.6,423.6,231.5,423.7z"/>
	<path id="el9uw2b0hg6rw" class="st15" d="M235.4,412.5c-0.8-0.3-1.5-0.6-2.2-1.1c-1.7-1-3.2-2.2-4.7-3.4c-1.5-1.3-2.8-2.7-4.1-4.2
		c-0.6-0.6-1-1.3-1.4-2c0.1-0.1,2.4,2.8,5.8,5.8S235.5,412.4,235.4,412.5z"/>
	<polygon id="elw10hjjbg2gg" class="st5" points="186.3,430.5 186.3,422.8 250.7,422.8 250.7,425.3 250.7,425.8 241.6,432.1 	"/>
	<polygon id="elart8uwrla7" class="st10" points="240.5,432.7 181.5,432.7 181.5,429.6 245.1,429.6 	"/>
	<path id="elm0r0tr94tae" class="st14" d="M261.5,399.2c-0.7,0.1-15,2.6-15,2.6l-10.2,12.3v8.7c0,0,3.1,1.8,4.6-0.9
		c0,0-3.1,8.9-1.9,10.2s3.2,2.4,4.9,0c1.6-2.6,2.9-5.4,4.1-8.3l0.4,3.7c0,0,8.6-4.2,9.5-5.4s6.5-9.3,6.5-9.3l2.6-2.3l-2.6,4.1
		c0,0-4.6,4.9-2.7,5.9s5.3-2.6,5.3-2.6l5.3-6.1l4.5-0.5c0.1-3-0.1-5.9-0.7-8.9c-0.3-1.9-3.5-5.7-3.2-6.1c0,0,0-0.1,0-0.1
		L261.5,399.2z"/>
	<path id="el286sdzvy9ez" class="st15" d="M249.7,405.7c-0.5,0.8-1.1,1.5-1.8,2.2c-1.4,1.7-2.8,3.5-4,5.4c-0.5,1.1-0.9,2.2-1.1,3.4
		c-0.3,1.1-0.6,2.1-0.9,2.9c-0.3,0.9-0.6,1.8-1.1,2.6c0.2-0.9,0.4-1.8,0.7-2.7c0.2-0.8,0.5-1.8,0.8-2.9c0.1-0.6,0.2-1.1,0.4-1.7
		c0.1-0.7,0.4-1.3,0.8-1.9c1.2-1.9,2.6-3.7,4.2-5.3C248.2,406.9,248.9,406.3,249.7,405.7z"/>
	<path id="elfhfkt9vydwm" class="st15" d="M256.9,407.8c0,0-0.2,0.2-0.5,0.6l-1.4,1.6c-0.6,0.7-1.3,1.5-2,2.4
		c-0.4,0.5-0.8,0.9-1.2,1.4c-0.4,0.5-0.8,1-1,1.6c-1.2,4.1-2.3,7.7-2.7,8.9l-0.1,0.3v-0.3c0-0.4-0.1-0.5,0-0.5s0.1,0.2,0.2,0.5H248
		c0.2-1.2,1.1-4.8,2.4-9c0.1-0.3,0.3-0.7,0.5-1c0.2-0.3,0.4-0.5,0.6-0.8c0.4-0.5,0.8-1,1.2-1.4c0.8-0.9,1.5-1.7,2.1-2.3
		C255.4,408.9,256.1,408.3,256.9,407.8z"/>
	<path id="elnrdq3bkuei" class="st15" d="M260.6,410.4c-0.4,0.7-0.9,1.3-1.4,1.9l-1.7,1.9c-0.3,0.4-0.6,0.7-0.9,1.1
		c-0.3,0.4-0.5,0.9-0.7,1.4c-0.4,1-0.6,2-0.9,2.9l-0.7,2.4c-0.2,0.8-0.4,1.5-0.8,2.2c0.1-0.8,0.2-1.5,0.4-2.3l0.6-2.5
		c0.2-1,0.5-2,0.9-3c0.2-0.5,0.4-1,0.7-1.5c0.3-0.4,0.6-0.8,1-1.2c0.6-0.7,1.2-1.3,1.8-1.8C259.4,411.4,260,410.9,260.6,410.4z"/>
	<path id="elnk3orrx015" class="st15" d="M277.4,410.5c-0.1,0-0.2,0.1-0.3,0.1l-1,0.2l-3.7,0.9l0,0c-0.7,0.9-1.6,1.9-2.5,3l-1.5,1.8
		c-0.5,0.7-1.1,1.3-1.7,1.9c-0.7,0.7-1.5,1.2-2.3,1.7c-0.4,0.3-0.9,0.5-1.4,0.6c-0.6,0.2-1.2,0-1.6-0.4c-0.2-0.2-0.3-0.6-0.2-0.9
		c0-0.3,0.1-0.6,0.2-0.8c0.2-0.5,0.5-1,0.8-1.5c0.7-1,1.4-1.9,2.2-2.7l0,0l2.6-4.1l0.3,0.3l-2.6,2.3l0,0l-6.2,8.8
		c-0.1,0.2-0.3,0.4-0.4,0.6c-0.2,0.2-0.4,0.4-0.6,0.5c-0.4,0.3-0.8,0.5-1.2,0.8c-0.8,0.5-1.7,1-2.5,1.4c-1.7,0.9-3.5,1.8-5.3,2.7
		l-0.3,0.2v-0.4c-0.1-1.1-0.3-2.4-0.4-3.7l0.5,0.1c-0.7,1.6-1.4,3.3-2.2,4.9c-0.4,0.8-0.8,1.6-1.3,2.5c-0.5,0.9-1.1,1.6-2,2.1
		c-0.6,0.3-1.3,0.3-2,0.1c-0.6-0.2-1.2-0.6-1.6-1.1c-0.1-0.1-0.2-0.2-0.4-0.4c-0.1-0.2-0.2-0.3-0.2-0.5c-0.1-0.3-0.1-0.7-0.1-1
		c0-0.6,0.1-1.2,0.2-1.9c0.5-2.4,1.2-4.7,2-7l0.5,0.2c-0.5,0.9-1.3,1.5-2.3,1.6c-0.9,0.1-1.9-0.2-2.7-0.6l-0.1-0.1v-0.1
		c0-3,0-5.9,0-8.7V414v-0.1c3.7-4.4,7.1-8.5,10.3-12.2v-0.1h0.1l15-2.5l0,0l8.5-2.3l2.3-0.6l0.6-0.1c0.1,0,0.1,0,0.1,0s0,0,0,0
		s-0.2,0-0.7,0.2L270,397l-8.5,2.4l0,0l-15,2.6l0.1-0.1l-10.2,12.3l0.1-0.1c0,2.8,0,5.7,0,8.7l-0.1-0.2c0.7,0.4,1.6,0.6,2.4,0.5
		c0.8-0.1,1.5-0.6,1.9-1.4l0.5,0.2c-0.8,2.2-1.4,4.5-1.9,6.9c-0.1,0.6-0.2,1.2-0.2,1.8c0,0.3,0,0.6,0.1,0.9c0,0.3,0.2,0.5,0.4,0.6
		c0.7,0.9,2,1.3,3.1,0.9c0.8-0.5,1.4-1.2,1.7-2c0.5-0.8,0.9-1.6,1.3-2.4c0.8-1.6,1.5-3.3,2.2-4.9l0.4-0.9l0.1,1
		c0.1,1.2,0.3,2.5,0.4,3.6l-0.4-0.2c1.8-0.9,3.6-1.8,5.3-2.7c0.9-0.5,1.7-0.9,2.5-1.4c0.4-0.2,0.8-0.5,1.2-0.8
		c0.2-0.1,0.3-0.3,0.5-0.4c0.1-0.2,0.3-0.4,0.4-0.6c2.2-3,4.2-6,6.2-8.7l0,0l0,0l2.6-2.3l1.2-1l-0.8,1.3l-2.6,4.1l0,0l0,0
		c-0.8,0.8-1.5,1.7-2.1,2.7c-0.3,0.4-0.6,0.9-0.8,1.4c-0.2,0.5-0.3,1-0.1,1.3c0.4,0.3,0.8,0.4,1.3,0.3c0.5-0.1,0.9-0.3,1.3-0.5
		c0.8-0.5,1.6-1,2.2-1.6c0.6-0.6,1.2-1.2,1.7-1.9l1.5-1.8l2.6-2.9l0,0l0,0l3.7-0.8l1-0.2C277.1,410.5,277.3,410.5,277.4,410.5z"/>
	<path id="el0nnj6n5tcvjq" class="st13" d="M204.2,187.6c-4.7-3.5-7-9.4-5.8-15.2c0.5-1,0.2-2.2-0.8-2.7c-0.1-0.1-0.3-0.1-0.5-0.2
		c-2.7-1.4-4.7-3.9-5.6-6.9c-0.8-3,0.1-6.2,2.3-8.4c-4.4-1.6-6.3-7.5-4.2-11.7s7.2-6.4,11.9-5.8c-1.6-2.4-0.9-5.8,1-7.9
		c2.1-2,4.7-3.3,7.6-3.7c3.8-0.7,8.3-0.2,10.5,2.9c0.2-2.3,2.6-3.9,4.9-4.5c6.4-1.4,12.8,2.3,14.9,8.6c1.9-1.6,4.2-2.5,6.6-2.7
		c2.4,0,5,1.5,5.5,3.8c1-2.1,3.6-3,6-3.3c1.7-0.2,3.5,0,5,0.8c1.6,0.8,2.5,2.5,2.2,4.3c3.5-1.3,7.4,0.4,8.7,3.9
		c1.2,3.1,0,6.5-2.9,8.2c4.1,2.3,5.6,7.5,3.3,11.6c-0.7,1.2-1.6,2.2-2.7,2.9c1.4,0.1,2.2,2.1,1.5,3.4c-0.8,1.3-2.1,2.1-3.6,2.2
		l1.7,14.9c0.5,3.2,0.6,6.4,0.1,9.6c-0.6,3.2-2.5,6.2-5.5,7.6"/>
	<path id="elbmtvejqkktu" class="st14" d="M202.6,173.3c-0.7-12.1,10.7-25.7,22.8-25.9l39.7,2.5l0.7,6.5l9.2,83.4l-43.2,24.6
		l-2.7-31.4c0,0-15.6-0.6-21.3-20.2C205,203.1,203.5,186.7,202.6,173.3z"/>
	<path id="el38mmbvgoca4" class="st13" d="M209,187.9c0.2,1.4,1.4,2.4,2.8,2.3c1.4-0.1,2.4-1.2,2.4-2.6c0,0,0-0.1,0-0.1
		c-0.2-1.4-1.4-2.4-2.8-2.3C210,185.3,208.9,186.5,209,187.9C209,187.9,209,187.9,209,187.9z"/>
	<path id="el4iyy3jdqmlt" class="st13" d="M207.2,181.3c0.4,0.3,2.1-1.4,4.9-1.7s5,0.8,5.2,0.4c0.1-0.2-0.3-0.7-1.2-1.3
		c-1.3-0.7-2.8-0.9-4.2-0.7c-1.4,0.2-2.8,0.8-3.8,1.8C207.3,180.6,207.1,181.2,207.2,181.3z"/>
	<path id="ell7dayra8n8" class="st13" d="M233.7,185.9c0.2,1.4,1.4,2.4,2.8,2.3c1.4-0.1,2.4-1.2,2.4-2.6c0,0,0,0,0-0.1
		c-0.2-1.4-1.4-2.4-2.8-2.3C234.7,183.3,233.6,184.5,233.7,185.9C233.7,185.9,233.7,185.9,233.7,185.9z"/>
	<path id="elzy2p8rnrd4d" class="st13" d="M234.4,179c0.4,0.3,2.1-1.4,4.9-1.7s4.9,0.8,5.2,0.4c0.1-0.2-0.3-0.7-1.2-1.3
		c-1.3-0.7-2.8-0.9-4.2-0.8c-1.4,0.2-2.8,0.8-3.8,1.8C234.5,178.3,234.3,178.9,234.4,179z"/>
	<path id="elihhzd1qess9" class="st13" d="M227,200.2c0-0.2-1.8-0.2-4.6-0.2c-0.7,0-1.4,0-1.6-0.5c-0.2-0.7-0.1-1.5,0.2-2.1
		c0.4-1.8,0.9-3.7,1.4-5.6c1.9-8,3.2-14.6,2.9-14.6s-2.1,6.4-4.1,14.4L220,197c-0.3,0.9-0.3,1.9,0,2.8c0.3,0.5,0.7,0.8,1.3,0.9
		c0.4,0.1,0.8,0.1,1.2,0C225.3,200.5,227,200.3,227,200.2z"/>
	<path id="elf8gjwuelsbq" class="st15" d="M229.2,233.1c9.4-1,18.4-4.7,25.9-10.5c0,0-5.4,14.9-25.6,15.5L229.2,233.1z"/>
	<path id="elj8t06as54bp" class="st15" d="M229,206.7c0.9-1.5,2.5-2.4,4.2-2.4c1.2,0,2.5,0.4,3.4,1.3c0.9,0.8,1.1,2.1,0.6,3.3
		c-0.8,1.1-2.2,1.7-3.5,1.4c-1.4-0.3-2.6-0.9-3.8-1.7c-0.3-0.2-0.6-0.4-0.9-0.7c-0.2-0.3-0.3-0.7-0.1-1"/>
	<path id="elmk576s63sbg" class="st13" d="M235.4,201.1c-0.4,0-0.1,3-2.4,5.5s-5.5,2.5-5.5,2.9c0,0.2,0.8,0.5,2.1,0.4
		c1.8-0.2,3.4-1,4.6-2.3c1.2-1.2,1.8-2.9,1.8-4.5C236,201.7,235.6,201,235.4,201.1z"/>
	<path id="elzfagak1lg8l" class="st13" d="M232.4,169.3c0.4,0.7,3.1,0,6.4,0s6,0.5,6.4-0.2c0.1-0.3-0.4-1-1.5-1.6
		c-1.5-0.7-3.2-1.1-4.9-1c-1.7,0-3.3,0.4-4.8,1.2C232.7,168.3,232.2,169,232.4,169.3z"/>
	<path id="ellkd4l43pi5" class="st13" d="M207.3,173.2c0.6,0.6,2.4-0.3,4.7-0.6s4.3-0.1,4.6-0.8c0.2-0.4-0.2-0.9-1.1-1.4
		c-2.5-1.2-5.5-0.7-7.5,1.2C207.2,172.2,207,172.9,207.3,173.2z"/>
	<path id="el4r9w0cmtaqp" class="st13" d="M208,149.2c-1.2,5.3,2.2,10.5,7.4,11.7c2.6,0.6,5.4,0,7.6-1.5c-1.2,1.4-0.7,3.8,0.7,5
		c1.5,1.1,3.4,1.7,5.2,1.4c3.9-0.3,7.6-2.3,9.9-5.4c1.4,5.3,6.8,8.5,12.1,7.1c1-0.3,2-0.7,2.8-1.2c-3.2,3.9-2.6,9.6,1.3,12.8
		c3.9,3.2,9.6,2.6,12.8-1.3c1.1-1.4,1.8-3,2-4.7c4.8-2.8,6.5-9,3.7-13.8c-0.5-0.8-1-1.5-1.7-2.2c1.9-1,3.2-3,3.3-5.1
		c0.1-2.1-0.4-4.3-1.4-6.1c-2.2-4.7-6.1-8.8-11-10.4s-11-0.3-14.1,3.8c-0.3,0.5-0.7,0.9-1.3,1.2c-0.8,0.1-1.6-0.2-2.2-0.8
		c-2.8-2.3-5.6-4.7-9.2-5.2c-4.4-0.5-8.6,2.1-10.1,6.2c-2.9-3.8-8.3-5.8-12.7-3.9s-6.7,7.9-4,11.9"/>
	<path id="elucqv6o3goyb" class="st13" d="M260.3,176.6c0.7,4,2,8,3.8,11.6c0.8,1.6,1.9,3.2,3.6,3.4c1.6,0,3.1-1,3.6-2.6
		c0.4-1.5,0.5-3.1,0.2-4.7c-0.9-5.6-2.2-11-3.8-16.4"/>
	<path id="el6ya4ed16jfj" class="st14" d="M265.3,180.8c0.2-0.2,9.6-4.8,11.1,5.4s-9.1,9.5-9.1,9.2S265.3,180.8,265.3,180.8z"/>
	<path id="elcrckl9lnm7w" class="st15" d="M269.8,191.1c0,0,0.2,0.1,0.5,0.2c0.4,0.1,0.9,0.1,1.3-0.2c1-0.6,1.7-2.4,1.5-4.2
		c-0.1-0.9-0.4-1.7-0.9-2.5c-0.3-0.6-0.9-1.1-1.5-1.2c-0.4-0.1-0.9,0.2-1,0.6c-0.1,0.3,0,0.5-0.1,0.5s-0.2-0.1-0.2-0.6
		c0-0.3,0.1-0.5,0.3-0.7c0.3-0.3,0.6-0.4,1-0.4c0.9,0.1,1.7,0.6,2.1,1.3c0.6,0.8,0.9,1.8,1,2.8c0.2,2.1-0.5,4.1-2,4.8
		c-0.5,0.2-1.1,0.2-1.7,0C269.8,191.4,269.8,191.1,269.8,191.1z"/>
	<path id="elvee3gsk2ef" class="st10" d="M210.5,197.9c-2.4,0-5.5-0.2-6.5-1c-1.5-1.2-3.4-5.9-5-10.4c-0.2-0.6-0.4-1-0.4-1.1
		l0.9-0.5c0.2,0.4,0.3,0.8,0.5,1.2c0.9,2.4,3.2,8.8,4.7,9.9c1.7,1.4,14.6,0.6,15.7-0.4c0.7-0.7,1.8-6.8,2.4-10.9l0.1-0.4l5.1-0.7
		l0.2,0.3c1.3,2.6,5.2,9.5,7.6,10.6c3,1.4,13.9-0.7,14.6-2c0.6-1.1,1.8-8.1,2.4-12.6l0.1-0.4l15.7-1.1l0.1,1l-14.9,1.1
		c-0.3,2.2-1.7,11.1-2.5,12.6c-1.1,2-12.8,3.8-15.9,2.4s-7-9-7.9-10.7l-3.6,0.5c-0.3,2.3-1.5,9.9-2.6,11.1s-7.5,1.3-8.2,1.4
		S211.4,197.9,210.5,197.9z"/>
	<path id="ell0z53twaz1s" class="st10" d="M228.4,185.5l-1.2-1.6c6.3-4.7,18.2-7.7,26.3-4.4l-0.8,1.9
		C245.6,178.4,234.4,181.1,228.4,185.5z"/>
	<path id="el9kg93tf5ajc" class="st10" d="M199.4,186.5l-0.9-1.8c7.9-4.2,18.5-4.4,25.4-0.4l-1,1.7
		C216.6,182.4,206.5,182.6,199.4,186.5z"/>
	<path id="elkohhacslrx" class="st13" d="M273.1,186.2c-1.1-0.7-2.5-0.7-3.7,0c-1,0.8-1.2,2.2-0.4,3.3c0.4,0.5,0.9,0.8,1.4,0.9
		c0.5,0,0.9,0.1,1.4,0.3c0.4,0.3,0.7,0.8,0.7,1.3c0,0.5,0,1-0.1,1.5c-0.2,1.2-0.1,2.4,0.2,3.5c0.1,0.3,0.2,0.6,0.5,0.9
		c0.2,0.2,0.5,0.3,0.8,0.2c0.9,0,1.7-0.5,2.2-1.3c0.5-0.8,0.8-1.6,0.9-2.5c0.2-1.4,0.3-2.7,0.1-4.1c-0.1-0.8-0.3-1.7-0.8-2.4
		c-0.8-1.1-3.8-2-5.2-2.1"/>
	<path id="eli8mk9zwmi3" class="st5" d="M239.2,158.3c-0.1,0.1-0.2,0.1-0.3,0.1c-0.2,0.1-0.5,0.2-0.9,0.3c-1.2,0.3-2.4,0.5-3.6,0.4
		c-0.9,0-1.7-0.1-2.6-0.4c-2.2-0.6-4-2.1-4.9-4.2c-0.5-1.2-0.6-2.6-0.2-3.9l0.4,0.2c-2.2,2-4.9,3.2-7.8,3.5c-1.6,0.2-3.2,0-4.8-0.4
		c-0.8-0.2-1.6-0.6-2.3-1c-0.7-0.5-1.3-1.1-1.7-1.9c-0.4-0.9-0.6-1.9-0.6-2.9c0-1,0.1-1.9,0.2-2.9c0.1-0.9,0.4-1.9,0.7-2.7
		c0.4-0.9,1.1-1.6,2-1.9l0.2,0.5c-1.7,0.7-3.5,0.9-5.3,0.4c-1.6-0.4-3.1-1.2-4.2-2.4c-1-1-1.7-2.4-2-3.8c-0.5-3,0.6-6.1,2.9-8.1
		c0.5-0.4,1-0.8,1.6-1c0,0.1-0.6,0.3-1.5,1.1c-1.3,1.1-2.2,2.7-2.6,4.3c-0.3,1.2-0.3,2.4-0.1,3.5c0.3,1.4,0.9,2.6,1.9,3.6
		c1.1,1.1,2.5,1.8,4,2.2c1.7,0.4,3.4,0.3,5-0.4l0.2,0.5c-0.8,0.3-1.4,0.9-1.7,1.6c-0.4,0.8-0.6,1.7-0.7,2.6
		c-0.2,1.8-0.5,3.8,0.4,5.5c0.8,1.4,2.2,2.3,3.7,2.6c1.5,0.4,3,0.5,4.6,0.4c2.8-0.3,5.5-1.4,7.6-3.3l0.7-0.6l-0.3,0.9
		c-0.4,1.2-0.3,2.5,0.1,3.6c0.4,1,1.1,2,2,2.7c0.8,0.6,1.7,1.1,2.6,1.4c0.8,0.2,1.7,0.4,2.5,0.4c1.2,0,2.4-0.1,3.6-0.3
		C238.8,158.4,239.2,158.3,239.2,158.3z"/>
	<path id="el8y1ododeik5" class="st5" d="M207.1,157.8c-0.2,0.2-0.4,0.3-0.6,0.4c-0.6,0.3-1.3,0.4-2,0.5c-1.1,0.1-2.1-0.2-3-0.8
		c-0.6-0.4-1-0.9-1.1-1.6c-0.2-0.7,0.1-1.5,0.7-2l0.3,0.4l-0.2,0.1c-2.2,0.9-4.7,0.8-6.9-0.3c-0.6-0.3-1.2-0.7-1.7-1.2
		c-0.4-0.4-0.5-0.6-0.5-0.6c0.7,0.6,1.5,1.1,2.4,1.5c2.1,0.9,4.4,1,6.5,0.1l0.2-0.1l2.4-1l-2.1,1.4c-0.4,0.3-0.6,0.9-0.5,1.5
		c0.1,0.5,0.5,1,0.9,1.3c0.8,0.5,1.8,0.8,2.8,0.8C205.4,158.2,206.3,158.1,207.1,157.8z"/>
	<path id="el24j204kl2t9" class="st15" d="M218.5,179.5c-0.1,0.1-0.7-0.4-1.8-0.9c-2.9-1.3-6.2-1-8.9,0.6c-1,0.6-1.6,1.1-1.6,1.1
		c0.4-0.6,0.9-1.1,1.4-1.4c1.4-0.9,2.9-1.5,4.6-1.6c1.6-0.1,3.3,0.2,4.7,1C217.5,178.6,218,179,218.5,179.5z"/>
	<path id="elx28iz32b62l" class="st15" d="M245.5,176.1c-0.5-0.2-1-0.4-1.4-0.7c-2.3-1-5-0.8-7.2,0.5c-0.4,0.3-0.9,0.6-1.3,0.8
		c0,0,0.3-0.6,1.1-1.1c2.2-1.6,5.1-1.8,7.6-0.5C245.1,175.6,245.6,176,245.5,176.1z"/>
	<path id="eldbzicsxjh4" class="st15" d="M237.9,201.8c-0.1,0-0.2-0.2-0.5-0.4c-0.4-0.3-0.8-0.5-1.2-0.5c-1.1-0.2-2-0.1-2.1-0.3
		c0.7-0.4,1.4-0.4,2.2-0.2c0.5,0.1,1,0.4,1.4,0.8C238,201.5,238,201.8,237.9,201.8z"/>
	<path id="elkmcpjryzvza" class="st15" d="M240,203c-0.1,0-0.4-0.7-1-1.5s-1-1.4-0.9-1.6s0.8,0.4,1.4,1.3S240.2,203,240,203z"/>
	<path id="elcjw8ny11epi" class="st13" d="M218.8,229.3c0.1,0.1,0.1,0.3,0.1,0.4c0.1,0.3,0.2,0.7,0.3,1.3c0.2,1.1,0.6,2.8,1,4.9
		c0.9,4.2,2.2,10.3,4.5,17.6s5.9,15.9,12.3,23.8c1.6,2,3.3,3.9,5.1,5.9c0.8,1,1.8,2,2.9,2.8c1.1,0.8,2.4,1.1,3.7,0.9
		c1.3-0.3,2.6-0.8,3.7-1.6c1.1-0.8,2.2-1.8,3.2-2.8c2.1-2,4.1-4.1,6-6.2c7.8-8.8,13.6-18.6,16.4-28.4c1.3-4.6,2.1-9.4,2.2-14.2
		c0.1-4.2-0.2-8.4-0.8-12.5c-0.9-6-2.2-12-3.7-17.8c-0.5-2.1-1-3.7-1.2-4.8c-0.1-0.5-0.2-0.9-0.3-1.2c0-0.1-0.1-0.3-0.1-0.4
		c0.1,0.1,0.1,0.3,0.1,0.4c0.1,0.3,0.2,0.7,0.4,1.2c0.3,1.1,0.8,2.7,1.3,4.8c1.7,5.9,3,11.8,3.9,17.8c0.6,4.2,0.9,8.4,0.8,12.6
		c-0.1,4.8-0.8,9.7-2.1,14.3c-2.8,9.9-8.6,19.8-16.4,28.6c-2,2.2-4,4.3-6.1,6.3c-1,1-2.1,1.9-3.3,2.8c-1.2,0.9-2.5,1.4-3.9,1.7
		c-1.4,0.2-2.9-0.1-4.1-1c-1.1-0.8-2.1-1.8-2.9-2.8c-1.8-2-3.5-3.9-5.1-5.9c-5.5-7.2-9.7-15.3-12.2-24c-1.8-5.8-3.2-11.7-4.4-17.7
		c-0.4-2.1-0.7-3.7-0.9-4.9c-0.1-0.5-0.2-1-0.2-1.3C218.8,229.5,218.8,229.4,218.8,229.3z"/>
	<path id="elhq02xeuqhu" class="st13" d="M255.7,398.2c0,0,0-0.1-0.1-0.3s-0.1-0.5-0.2-0.9s-0.2-0.9-0.4-1.4
		c-0.1-0.6-0.2-1.3-0.3-1.9c-0.4-4.2,0-8.3,1.1-12.4c1.2-5.1,3.4-11,5-17.7c0.9-3.5,1.3-7.1,1.3-10.7c-0.1-3.9-1-7.7-2.4-11.3
		c-1.4-3.7-3.2-7.2-4.8-10.7s-3.2-6.8-3.4-10.4s1.2-6.7,2-9.7c0.4-1.4,0.6-2.9,0.6-4.4c0-1.4-0.3-2.7-0.8-4c-0.9-2.2-2-4.3-3.2-6.3
		c-0.9-1.5-1.6-3.2-2.2-4.9c-0.2-0.6-0.3-1.3-0.4-1.9c0-0.5,0-1,0-1.4l0.1-0.9c0-0.1,0-0.2,0.1-0.3c-0.2,1.5-0.1,3,0.3,4.5
		c0.6,1.7,1.3,3.3,2.2,4.8c1.3,2,2.4,4.1,3.3,6.3c0.5,1.3,0.8,2.7,0.9,4.1c0,1.5-0.2,3-0.6,4.5c-0.8,3-2.1,6.1-1.9,9.5
		s1.8,6.8,3.4,10.2s3.4,6.9,4.8,10.7c1.5,3.6,2.3,7.5,2.5,11.5c0,3.7-0.4,7.3-1.3,10.8c-1.7,6.8-4,12.6-5.1,17.7
		c-1.1,4-1.5,8.1-1.3,12.3c0,0.6,0.1,1.3,0.2,1.9c0.1,0.5,0.2,1,0.3,1.4s0.1,0.6,0.2,0.9C255.7,398,255.7,398.1,255.7,398.2z"/>
	<polygon id="eladkw5ql8zeq" class="st10" points="245.1,285.7 244.8,286.8 247.2,289.9 248.2,289.9 250.9,286.8 250.5,285.7 	"/>
</g>
<g id="freepik--Device--inject-33">
	<path id="elzsk6a68h05" class="st10" d="M42.4,390.4l44.8,78.9l173.7,0.1c1.5,0,2.6-1.2,2.6-2.7l0,0c0-1.5-1.2-2.6-2.6-2.7
		l-57.7-1.6c-2.6,0-5.1-1.5-6.3-3.9l-37.5-71.5c-0.8-1.5-2.3-2.4-3.9-2.4l-109.1-1.1c-2.5,0-4.5,2-4.5,4.5
		C41.8,388.9,42,389.7,42.4,390.4z"/>
	<path id="eltocviz2iz9" class="st13" d="M42.6,387.4c0,0,0.2,0,0.5,0h1.5h5.9l21.6,0.2l71.1,0.8l5.2,0.1h2.6c1.8,0,3.5,0.9,4.6,2.4
		c0.5,0.8,0.8,1.5,1.2,2.2l2.3,4.4l8.8,16.7c5.6,10.7,10.6,20.3,14.8,28.3l10,19.1c1.1,2.2,2.1,4,2.7,5.2c0.3,0.6,0.5,1,0.7,1.4
		s0.2,0.5,0.2,0.5l-0.3-0.5c-0.2-0.3-0.4-0.8-0.7-1.3c-0.6-1.2-1.6-2.9-2.8-5.2c-2.4-4.5-5.9-11-10.1-19s-9.3-17.6-15-28.3
		l-8.8-16.7l-2.3-4.4c-0.4-0.7-0.8-1.5-1.2-2.2c-0.5-0.7-1.1-1.2-1.8-1.6c-0.7-0.4-1.5-0.6-2.3-0.6h-2.6l-5.2-0.1L72,388l-21.6-0.4
		l-5.9-0.1l-1.5,0L42.6,387.4z"/>
	<path id="elm3ajn1q7vwk" class="st5" d="M115.2,424.5c0.2,2.3-1.5,4.4-3.9,4.6c-2.3,0.2-4.4-1.5-4.6-3.9s1.5-4.4,3.9-4.6
		c0.1,0,0.2,0,0.4,0C113.2,420.5,115.1,422.2,115.2,424.5z"/>
</g>
<g id="freepik--Floor--inject-33">
	<path id="el0hl1d3uaearn" class="st13" d="M478.2,469.3c0,0.1-101.6,0.3-226.8,0.3s-226.8-0.1-226.8-0.3s101.5-0.3,226.8-0.3
		S478.2,469.1,478.2,469.3z"/>
</g>
<g id="freepik--speech-bubble--inject-33">
	<path id="eloo1ibbg7kw" class="st5" d="M307.2,210.5l16.5-9.4c20.8,12.8,48.1,6.4,60.9-14.4c12.8-20.8,6.4-48.1-14.4-60.9
		s-48.1-6.4-60.9,14.4c-9.7,15.7-8.6,35.7,2.6,50.3l0,0L307.2,210.5z"/>
	<path id="elflqe94qzxyq" class="st13" d="M307.2,210.5l4.6-20l0-0.2l0.2,0.1l0,0l-0.2,0.2c-2.2-2.8-4-5.9-5.5-9.1
		c-1.7-3.9-2.9-7.9-3.5-12.1c-0.3-2.3-0.4-4.7-0.4-7c0.1-1.2,0.1-2.4,0.2-3.7s0.4-2.5,0.6-3.7c2.2-11.1,8.5-21,17.7-27.6
		c5.1-3.7,10.9-6.2,17.1-7.5c6.5-1.3,13.2-1.1,19.6,0.5c6.7,1.7,13,4.9,18.2,9.5l2,1.8c0.7,0.6,1.2,1.3,1.8,1.9s1.2,1.3,1.7,2
		l1.6,2.1c0.5,0.7,1,1.4,1.5,2.2l1.4,2.2l1.1,2.4c0.4,0.8,0.8,1.6,1.1,2.4c2.5,6.3,3.5,13.1,3,19.8c-0.4,6.4-2.3,12.6-5.4,18.2
		c-5.6,10.1-14.8,17.6-25.8,21c-4.7,1.4-9.5,2-14.4,1.9c-4.2-0.1-8.4-0.8-12.4-2.2c-3.3-1.1-6.5-2.6-9.5-4.4h0.1L307.2,210.5
		l16.5-9.5h0.1h0.1c3,1.8,6.2,3.3,9.5,4.4c4,1.3,8.1,2,12.3,2.1c4.8,0.1,9.6-0.6,14.2-1.9c10.9-3.4,20-10.9,25.5-20.8
		c3.1-5.5,4.9-11.7,5.3-18c0.5-6.7-0.5-13.4-3-19.6c-0.3-0.8-0.6-1.6-1-2.3l-1.1-2.3l-1.4-2.2c-0.4-0.8-0.9-1.5-1.4-2.2l-1.6-2.1
		c-0.5-0.7-1.2-1.3-1.7-2s-1.1-1.3-1.8-1.9l-2-1.8c-5.2-4.5-11.3-7.7-18-9.4c-6.4-1.6-13-1.8-19.4-0.5c-6.1,1.2-11.8,3.7-16.9,7.4
		c-9.1,6.5-15.4,16.3-17.6,27.3c-0.2,1.2-0.4,2.5-0.6,3.7s-0.1,2.4-0.2,3.6c-0.1,2.3,0,4.6,0.3,6.9c1,7.7,4,15,8.8,21.1l0.6,0.8
		l-0.8-0.6l0,0l0.2-0.1L307.2,210.5z"/>
	<g id="freepik--speech-bubble--text" transform="translate(-1499 -652)">
		<path id="tx3" class="st16" d="M1822.3,817.4L1822.3,817.4c0-6.6,5-9.7,12.1-9.7c3,0,5.2,0.5,7.3,1.2v-0.5c0-3.5-2.2-5.5-6.4-5.5
			c-2.3,0-4.2,0.3-5.9,0.8c-0.5,0.2-0.8,0.2-1.2,0.2c-2,0-3.5-1.5-3.5-3.5c0-1.5,1-2.8,2.3-3.3c2.7-1,5.6-1.6,9.6-1.6
			c4.6,0,8,1.2,10.1,3.4c2.2,2.2,3.2,5.5,3.2,9.6v13.6c0,2.3-1.8,4.1-4.1,4.1c-2.5,0-4.1-1.7-4.1-3.5v-0.1c-2.1,2.3-4.9,3.8-9.1,3.8
			C1826.9,826.6,1822.3,823.4,1822.3,817.4z M1841.8,815.5V814c-1.5-0.7-3.4-1.1-5.4-1.1c-3.6,0-5.9,1.5-5.9,4.1v0.1
			c0,2.3,1.9,3.6,4.6,3.6C1839.1,820.7,1841.8,818.6,1841.8,815.5z"/>
		<path id="tx2" class="st17" d="M1841.1,816.9c4.9-0.3,7.9-0.3,9.9,2.9s-5.1,14.6,2.2,16.5c7.3,1.9,10.8-4,13.8-9.7
			c3-5.8,4.4-12.7,4.5-16.2"/>
		<path id="tx1" class="st17" d="M1842.2,837.7c2.2-2.9,4.7-3.4,7.9-3.8"/>
	</g>
</g>
</svg>
