<svg width="2804" height="3182" xmlns="http://www.w3.org/2000/svg" xmlns:xlink="http://www.w3.org/1999/xlink" xml:space="preserve" overflow="hidden"><defs><clipPath id="clip0"><rect x="1" y="224" width="2804" height="3182"/></clipPath><linearGradient x1="1969.29" y1="3030.77" x2="837.364" y2="-79.172" gradientUnits="userSpaceOnUse" spreadMethod="reflect" id="stroke1"><stop offset="0" stop-color="#F2A068"/><stop offset="0.75" stop-color="#F4791E"/><stop offset="1" stop-color="#F4791E"/></linearGradient><linearGradient x1="643.828" y1="1981.9" x2="643.828" y2="2799.7" gradientUnits="userSpaceOnUse" spreadMethod="reflect" id="stroke2"><stop offset="0" stop-color="#F38B40"/><stop offset="0.0714286" stop-color="#F38C41"/><stop offset="0.142857" stop-color="#F38D43"/><stop offset="0.214286" stop-color="#F38D45"/><stop offset="0.285714" stop-color="#F38E47"/><stop offset="0.357143" stop-color="#F38F48"/><stop offset="0.428571" stop-color="#F39049"/><stop offset="0.5" stop-color="#F3904A"/><stop offset="0.571429" stop-color="#F3914B"/><stop offset="0.642857" stop-color="#F3914C"/><stop offset="0.714286" stop-color="#F3924D"/><stop offset="0.785714" stop-color="#F3924E"/><stop offset="0.857143" stop-color="#F3924E"/><stop offset="0.928571" stop-color="#F3924E"/><stop offset="1" stop-color="#F3934F"/></linearGradient><linearGradient x1="1538.36" y1="3729.02" x2="1151.3" y2="2665.58" gradientUnits="userSpaceOnUse" spreadMethod="reflect" id="stroke3"><stop offset="0" stop-color="#F2A068"/><stop offset="0.75" stop-color="#F4791E"/><stop offset="1" stop-color="#F4791E"/></linearGradient><linearGradient x1="1532.59" y1="3713.18" x2="1157.06" y2="2681.42" gradientUnits="userSpaceOnUse" spreadMethod="reflect" id="fill4"><stop offset="0" stop-color="#F2A068"/><stop offset="0.75" stop-color="#F4791E"/><stop offset="1" stop-color="#F4791E"/></linearGradient></defs><g clip-path="url(#clip0)" transform="translate(-1 -224)"><path d="M269.328 975.384C636.674 951.754 860.297 951.869 1010.68 1194.57 1161.08 1437.26 628.75 2287.97 1171.62 2431.58 1714.48 2575.2 1979.59 2135.05 2204.67 1702.82 2429.8 1270.58 2536.94 751.368 2537.33 492.3" stroke="url(#stroke1)" stroke-width="534.797" stroke-linecap="round" stroke-linejoin="round" stroke-miterlimit="10" fill="none" fill-rule="evenodd"/><path d="M350.328 2532.3C511.768 2316.37 699.956 2279.61 937.328 2249.3" stroke="url(#stroke2)" stroke-width="534.797" stroke-linecap="round" stroke-linejoin="round" stroke-miterlimit="10" fill="none" fill-rule="evenodd"/><path d="M1376.22 3103.09 1323.61 3228.21 1428.82 3228.21ZM463.934 3103.09 411.327 3228.21 516.541 3228.21ZM773.616 3005.6 782.826 3005.6C791.763 3005.71 799.366 3007.77 805.664 3011.75 811.947 3015.74 816.996 3020.91 820.783 3027.25L921.702 3191.34 1023.17 3026.72C1027.47 3019.67 1032.69 3014.39 1038.83 3010.88 1044.96 3007.36 1052.2 3005.6 1060.58 3005.6L1069.79 3005.6C1081.72 3005.87 1091.59 3009.92 1099.4 3017.71 1107.2 3025.5 1111.25 3035.37 1111.52 3047.29L1111.52 3348.39C1111.25 3360.32 1107.2 3370.19 1099.4 3377.98 1091.59 3385.77 1081.72 3389.81 1069.79 3390.09 1058.11 3389.78 1048.4 3385.67 1040.65 3377.78 1032.91 3369.87 1028.89 3360.09 1028.6 3348.39L1028.6 3159.39 955.342 3272.03C951.052 3278.61 946.075 3283.75 940.423 3287.47 934.771 3291.2 928.172 3293.09 920.612 3293.16 913.066 3293.09 906.467 3291.2 900.815 3287.47 895.163 3283.75 890.185 3278.61 885.896 3272.03L813.726 3161.02 813.726 3349.48C813.425 3361.12 809.408 3370.73 801.661 3378.32 793.915 3385.9 784.203 3389.82 772.526 3390.09 760.878 3389.82 751.253 3385.9 743.672 3378.32 736.084 3370.73 732.155 3361.12 731.884 3349.48L731.884 3047.29C732.166 3035.37 736.207 3025.5 744.011 3017.71 751.812 3009.92 761.681 3005.87 773.616 3005.6ZM2123.74 3004.51C2135.68 3004.79 2145.55 3008.83 2153.35 3016.62 2161.16 3024.43 2165.2 3034.28 2165.47 3046.21L2165.47 3222.25C2165.7 3253.17 2172.99 3276.5 2187.32 3292.26 2201.65 3308.01 2221.69 3315.9 2247.41 3315.96 2273.15 3315.92 2293.19 3308.27 2307.52 3293 2321.85 3277.73 2329.14 3255.05 2329.37 3224.96L2329.37 3046.21C2329.64 3034.28 2333.69 3024.43 2341.49 3016.62 2349.29 3008.83 2359.16 3004.79 2371.1 3004.51 2383.03 3004.79 2392.9 3008.83 2400.71 3016.62 2408.51 3024.43 2412.54 3034.28 2412.83 3046.21L2412.83 3221.71C2412.27 3279.07 2397.26 3321.93 2367.83 3350.31 2338.39 3378.68 2297.89 3392.84 2246.34 3392.8 2194.87 3392.76 2154.73 3378.64 2125.92 3350.45 2097.12 3322.25 2082.49 3280.24 2082.01 3224.41L2082.01 3046.21C2082.29 3034.28 2086.33 3024.43 2094.14 3016.62 2101.94 3008.83 2111.81 3004.79 2123.74 3004.51ZM1940.3 3004.51C1951.97 3004.81 1961.69 3008.82 1969.43 3016.57 1977.18 3024.3 1981.2 3034 1981.5 3045.67L1981.5 3347.31C1981.21 3359.23 1977.16 3369.1 1969.36 3376.89 1961.56 3384.69 1951.69 3388.73 1939.75 3389.01L1937.06 3389.01C1927.19 3388.9 1918.87 3386.67 1912.12 3382.3 1905.37 3377.93 1899.21 3372.05 1893.69 3364.64L1726.55 3145.85 1726.55 3348.93C1726.25 3360.6 1722.24 3370.3 1714.49 3378.05 1706.74 3385.78 1697.03 3389.79 1685.35 3390.09 1673.68 3389.79 1663.97 3385.78 1656.22 3378.05 1648.47 3370.3 1644.46 3360.6 1644.17 3348.93L1644.17 3047.29C1644.44 3035.37 1648.49 3025.5 1656.29 3017.71 1664.09 3009.92 1673.96 3005.87 1685.9 3005.6L1694.56 3005.6C1704.43 3005.7 1712.75 3007.93 1719.5 3012.3 1726.25 3016.67 1732.41 3022.55 1737.94 3029.96L1899.11 3241.17 1899.11 3045.67C1899.4 3034 1903.43 3024.3 1911.16 3016.57 1918.91 3008.82 1928.62 3004.81 1940.3 3004.51ZM1375.13 3001.8 1380.02 3001.8C1391.41 3001.89 1401.15 3004.82 1409.22 3010.61 1417.31 3016.38 1423.65 3024.46 1428.27 3034.84L1560.61 3333.22C1561.97 3336.18 1563.03 3339.05 1563.79 3341.81 1564.55 3344.58 1564.94 3347.31 1564.96 3350.01 1564.7 3361.39 1560.87 3370.86 1553.49 3378.38 1546.12 3385.91 1536.74 3389.81 1525.36 3390.09 1515.62 3389.98 1507.43 3387.36 1500.82 3382.24 1494.19 3377.12 1489 3370.17 1485.22 3361.39L1459.73 3301.81 1292.7 3301.81 1266.12 3364.1C1262.52 3372.29 1257.38 3378.65 1250.74 3383.19 1244.08 3387.72 1236.36 3390.02 1227.61 3390.09 1216.52 3389.82 1207.39 3386.03 1200.23 3378.72 1193.06 3371.4 1189.35 3362.19 1189.11 3351.09 1189.14 3348.11 1189.61 3345.14 1190.53 3342.16 1191.45 3339.18 1192.6 3336.2 1193.99 3333.22L1326.32 3034.84C1330.97 3024.46 1337.4 3016.38 1345.65 3010.61 1353.88 3004.82 1363.71 3001.89 1375.13 3001.8ZM462.849 3001.8 467.731 3001.8C479.131 3001.89 488.87 3004.82 496.949 3010.61 505.029 3016.38 511.378 3024.46 515.998 3034.84L648.329 3333.22C649.697 3336.18 650.758 3339.05 651.516 3341.81 652.273 3344.58 652.658 3347.31 652.669 3350.01 652.41 3361.39 648.589 3370.86 641.212 3378.38 633.833 3385.91 624.455 3389.81 613.078 3390.09 603.338 3389.98 595.158 3387.36 588.536 3382.24 581.916 3377.12 576.719 3370.17 572.944 3361.39L547.455 3301.81 380.415 3301.81 353.84 3364.1C350.235 3372.29 345.105 3378.65 338.451 3383.19 331.796 3387.72 324.09 3390.02 315.333 3390.09 304.239 3389.82 295.11 3386.03 287.945 3378.72 280.782 3371.4 277.076 3362.19 276.828 3351.09 276.861 3348.11 277.336 3345.14 278.251 3342.16 279.166 3339.18 280.318 3336.2 281.708 3333.22L414.04 3034.84C418.683 3024.46 425.123 3016.38 433.36 3010.61 441.597 3004.82 451.426 3001.89 462.849 3001.8Z" stroke="url(#stroke3)" stroke-width="26.3044" stroke-linejoin="round" stroke-miterlimit="10" fill="url(#fill4)" fill-rule="evenodd"/></g></svg>