<svg width="1833" height="1834" xmlns="http://www.w3.org/2000/svg" xmlns:xlink="http://www.w3.org/1999/xlink" xml:space="preserve" overflow="hidden"><defs><clipPath id="clip0"><rect x="-2375" y="157" width="1833" height="1834"/></clipPath><clipPath id="clip1"><rect x="-2077" y="528" width="1207" height="1106"/></clipPath><clipPath id="clip2"><rect x="-2077" y="528" width="1207" height="1106"/></clipPath><clipPath id="clip3"><rect x="-2077" y="528" width="1207" height="1106"/></clipPath><clipPath id="clip4"><rect x="-2077" y="528" width="1207" height="1106"/></clipPath></defs><g clip-path="url(#clip0)" transform="translate(2375 -157)"><g clip-path="url(#clip1)"><g clip-path="url(#clip2)"><g clip-path="url(#clip3)"><g clip-path="url(#clip4)"><path d="M1617.26 975.341C1775.19 965.206 1871.35 965.255 1936 1069.31 2000.65 1173.36 1771.79 1538.07 2005.19 1599.66 2238.59 1661.23 2352.57 1472.53 2449.34 1287.21 2546.13 1101.89 2592.18 879.295 2592.35 768.225" stroke="#FFFFFF" stroke-width="229.582" stroke-linecap="round" stroke-linejoin="round" stroke-miterlimit="10" fill="none" fill-rule="evenodd" transform="matrix(1.00068 0 0 1 -3579.73 -125.182)"/><path d="M1652.6 1643.33C1722.02 1550.81 1802.93 1535.07 1905.01 1522.08" stroke="#FFFFFF" stroke-width="229.582" stroke-linecap="round" stroke-linejoin="round" stroke-miterlimit="10" fill="none" fill-rule="evenodd" transform="matrix(1.00068 0 0 1 -3579.73 -125.182)"/></g></g></g></g><path d="M-1047 249-841 249C-727.226 249-634.997 341.229-634.997 455L-634.997 661.003" stroke="#FFFFFF" stroke-width="184.479" stroke-linecap="round" stroke-linejoin="round" stroke-miterlimit="10" fill="none" fill-rule="evenodd"/><path d="M-1871 1898-2077 1898C-2190.77 1898-2283 1805.54-2283 1691.5L-2283 1485" stroke="#FFFFFF" stroke-width="184.479" stroke-linecap="round" stroke-linejoin="round" stroke-miterlimit="10" fill="none" fill-rule="evenodd"/><path d="M-634.997 1485-634.997 1691.5C-634.997 1805.54-727.226 1898-841 1898L-1047 1898" stroke="#FFFFFF" stroke-width="184.479" stroke-linecap="round" stroke-linejoin="round" stroke-miterlimit="10" fill="none" fill-rule="evenodd"/><path d="M-2283 661.003-2283 455C-2283 341.229-2190.77 249-2077 249L-1871 249" stroke="#FFFFFF" stroke-width="184.479" stroke-linecap="round" stroke-linejoin="round" stroke-miterlimit="10" fill="none" fill-rule="evenodd"/></g></svg>