<svg width="1444" height="2005" xmlns="http://www.w3.org/2000/svg" xmlns:xlink="http://www.w3.org/1999/xlink" xml:space="preserve" overflow="hidden"><defs><clipPath id="clip0"><rect x="3968" y="-1871" width="1444" height="2005"/></clipPath></defs><g clip-path="url(#clip0)" transform="translate(-3968 1871)"><path d="M3968-1458.49C3968-1602.87 3968-1675.06 3996.05-1730.23 4020.78-1778.77 4060.25-1818.23 4108.79-1842.95 4163.97-1871 4236.17-1871 4380.57-1871L4999.43-1871C5143.83-1871 5216.03-1871 5271.21-1842.95 5319.72-1818.21 5359.14-1778.75 5383.84-1730.23 5412-1675.06 5412-1602.87 5412-1458.49L5412-96.3867C5412 12.5156 5412 66.864 5389.62 95.0175 5370.16 119.504 5340.65 133.842 5309.37 134 5273.38 134.206 5230.57 100.587 5145.07 33.3475L4690-324.092 4235.04 33.3475C4149.43 100.587 4106.62 134.206 4070.63 134 4039.35 133.842 4009.84 119.504 3990.38 95.0175 3968 66.864 3968 12.5156 3968-96.3867L3968-1458.49Z" fill="#FFFFFF" fill-rule="evenodd"/></g></svg>