<svg width="1789" height="1790" xmlns="http://www.w3.org/2000/svg" xmlns:xlink="http://www.w3.org/1999/xlink" xml:space="preserve" overflow="hidden"><defs><clipPath id="clip0"><rect x="4845" y="519" width="1789" height="1790"/></clipPath></defs><g clip-path="url(#clip0)" transform="translate(-4845 -519)"><path d="M2292 1027.5C2253.75 989.252 2200.91 965.594 2142.55 965.594L1388.31 965.595 1388.31 211.357C1388.31 94.6278 1293.68 0 1176.95 0 1060.22 0 965.595 94.6278 965.595 211.357L965.595 965.595 211.357 965.595C94.6278 965.595 0 1060.22 0 1176.95L0.000360892 1176.95C0.000360892 1293.68 94.6282 1388.31 211.358 1388.31L965.595 1388.31 965.595 2142.55C965.595 2259.28 1060.22 2353.9 1176.95 2353.9L1176.95 2353.9C1293.68 2353.9 1388.31 2259.28 1388.31 2142.55L1388.31 1388.31 2142.55 1388.31C2259.28 1388.31 2353.9 1293.68 2353.9 1176.95 2353.9 1118.59 2330.25 1065.75 2292 1027.5Z" fill-rule="evenodd" transform="matrix(-0.707107 -0.707107 -0.707107 0.707107 7404.24 1413.93)"/></g></svg>