<svg width="2060" height="1753" xmlns="http://www.w3.org/2000/svg" xmlns:xlink="http://www.w3.org/1999/xlink" xml:space="preserve" overflow="hidden"><defs><clipPath id="clip0"><rect x="5275" y="545" width="2060" height="1753"/></clipPath></defs><g clip-path="url(#clip0)" transform="translate(-5275 -545)"><path d="M5584 1009C5584 752.74 5791.74 545 6048 545 6304.26 545 6512 752.74 6512 1009 6512 1265.26 6304.26 1473 6048 1473 5791.74 1473 5584 1265.26 5584 1009Z" fill="#FFFFFF" fill-rule="evenodd"/><path d="M6549.5 1273.38C6544.8 1282.27 6546.8 1293.35 6554.88 1299.34 6614.92 1343.74 6689.23 1370 6769.66 1370 6969.22 1370 7131 1208.38 7131 1009 7131 809.625 6969.22 648 6769.66 648 6689.23 648 6614.92 674.26 6554.88 718.666 6546.8 724.648 6544.8 735.731 6549.5 744.623 6591.2 823.569 6614.8 913.531 6614.8 1009 6614.8 1104.47 6591.2 1194.43 6549.5 1273.38Z" fill="#FFFFFF" fill-rule="evenodd"/><path d="M5546.78 1676.98C5673.9 1599.74 5840.69 1576 6047.97 1576 6255.44 1576 6422.35 1599.78 6549.51 1677.2 6688.03 1761.51 6772.23 1905.13 6816.35 2107.91 6837.04 2202.96 6786.04 2298 6715.76 2298L5380.39 2298C5310.02 2298 5258.92 2202.81 5279.66 2107.59 5323.85 1904.78 5408.17 1761.21 5546.78 1676.98Z" fill="#FFFFFF" fill-rule="evenodd"/><path d="M6595.79 1477.73C6553.09 1481 6550.59 1551.76 6589.82 1572.8L6589.82 1572.8C6697.32 1630.47 6778.27 1715.37 6836.32 1823.73 6883.96 1912.65 6957.94 1982 7044.33 1982L7227.97 1982C7300.9 1982 7354.12 1892.6 7328.46 1805.26 7326.98 1800.23 7325.45 1795.24 7323.86 1790.3 7288.55 1680.3 7228.02 1599.32 7138.4 1547.7 7054.25 1499.24 6948.91 1479.24 6824.81 1473.2L6822.77 1473.09 6820.74 1473.09C6747.64 1473.09 6671.29 1471.94 6595.79 1477.73Z" fill="#FFFFFF" fill-rule="evenodd"/></g></svg>