<svg width="2326" height="2475" xmlns="http://www.w3.org/2000/svg" xmlns:xlink="http://www.w3.org/1999/xlink" xml:space="preserve" overflow="hidden"><defs><clipPath id="clip0"><rect x="134" y="-62" width="2326" height="2475"/></clipPath></defs><g clip-path="url(#clip0)" transform="translate(-134 62)"><path d="M2307.9 2105.87 2302.75 2116.31C2303.14 2116.66 2299.53 2129.56 2287.47 2145.11 2269.73 2168.81 2235.79 2198.11 2192.36 2219.55 2148.86 2241.25 2096.3 2255.73 2039.52 2255.69 1973.28 2255.49 1900.84 2236.87 1823.48 2183.33 1749.38 2131.6 1710.98 2090.15 1685.38 2048.44 1666.18 2016.91 1653.24 1983.19 1640.88 1939.68 1622.33 1874.73 1606.4 1789.05 1571.81 1677.09 1537.14 1565.02 1483.5 1427.14 1388.97 1253.32 1313.57 1115.25 1248.83 909.312 1249.26 714.358 1249.26 632.591 1260.32 552.86 1284.97 480.002 1309.69 407.033 1347.59 340.895 1402.72 283.592 1533.11 148.86 1683.46 95.7103 1826.44 95.3234 1929.91 95.2462 2029.19 124.24 2109.7 172.865 2190.41 221.447 2251.45 289.007 2282.63 364.165 2326.86 460.216 2468.6 406.833 2427.76 303.639 2381.45 192.641 2296.14 101.617 2190.87 38.0939 2085.4-25.3953 1959.04-61.9208 1826.43-61.9984 1643.56-62.3849 1448.1 9.36074 1289.53 174.432 1216.93 249.629 1167.1 337.428 1135.99 429.608 1104.82 521.859 1092.04 618.529 1092 714.353 1092.46 943.141 1163.76 1167.4 1250.83 1328.44 1330.65 1475.42 1378.26 1591.99 1410.28 1688.39 1434.27 1760.75 1449.56 1821.81 1462.95 1877.31 1483.19 1960.04 1498.7 2032.93 1537.44 2106.33 1556.75 2142.74 1581.82 2178.07 1614.03 2212.06 1646.28 2246.09 1685.44 2278.89 1733.67 2312.45 1835.6 2383.62 1942.38 2413.23 2039.51 2413 2154.61 2412.84 2254.9 2373.44 2328.69 2320.55 2365.7 2293.9 2396.42 2263.83 2419.53 2230.8 2442.34 2197.65 2459.46 2161.25 2460 2116.77 2457.28 2029.86 2337.33 2022.85 2307.9 2105.87Z" fill="#FFFFFF" fill-rule="evenodd"/><path d="M1977.3 1180.01C1922.2 1190.26 1871.98 1221.67 1837.4 1268.74 1802.55 1315.79 1783.3 1377.46 1783.38 1447.71 1783.38 1485.34 1788.79 1525.58 1800.13 1568.04 1819.69 1641.25 1853.27 1701.01 1897.99 1743.67 1942.44 1786.29 1999.28 1811.15 2058.25 1811 2119.65 1811.15 2180.36 1784.26 2229.47 1736.14 2261.97 1704.47 2281.95 1664.12 2293.78 1621.08 2305.69 1577.88 2309.92 1531.07 2310 1481.34 2309.92 1398.37 2297.78 1306.75 2281.95 1211.94 2266.04 1117.21 2246.26 1019.41 2230.04 926.173 2212.25 825.292 2184.17 717.533 2127.41 628.914 2098.97 584.757 2062.63 545.171 2016.14 516.695 1969.8 488.181 1913.62 471.846 1851.14 472.001 1846.38 472.001 1841.62 472.074 1836.85 472.267 1760.66 474.686 1695.83 503.089 1651.96 549.36 1607.85 595.437 1585.1 655.005 1576.57 716.338 1572.07 748.659 1594.59 778.479 1626.91 782.939 1659.18 787.437 1689 764.917 1693.45 732.634L1693.45 732.595C1699.53 688.864 1714.82 654.197 1737.11 631.139 1759.58 608.27 1789.51 592.631 1841.31 590.247L1851.14 590.058C1893.95 590.213 1926.26 600.279 1954.51 617.421 1996.54 642.941 2030.78 688.017 2057.25 747.005 2083.72 805.654 2101.66 876.521 2113.77 946.387 2128.98 1033.78 2146.5 1122.55 2161.22 1207.64 2121.3 1186.15 2076.62 1174.86 2031.16 1174.9 2013.23 1174.89 1995.2 1176.59 1977.3 1180.01ZM2190.47 1451.25C2190.58 1452.17 2190.89 1453.02 2191.05 1453.94 2191.36 1463.04 2191.97 1472.65 2191.97 1481.34 2192.04 1524 2188.01 1561.05 2180.06 1589.72 2172.07 1618.62 2160.74 1638.29 2147.17 1651.51 2115.58 1681.91 2085.53 1692.83 2058.25 1692.94 2032.01 1692.83 2005.54 1682.79 1979.37 1658.16 1953.48 1633.56 1929.12 1593.75 1914.17 1537.6 1905.21 1504.01 1901.41 1473.96 1901.41 1447.71 1901.48 1398.52 1914.47 1363.04 1932.26 1338.92 1950.28 1314.86 1973.03 1301.1 1999.27 1295.99 2009.99 1293.95 2020.67 1292.95 2031.16 1292.95 2070.32 1293.03 2106.59 1306.56 2134.83 1332.11 2162.96 1357.82 2184.36 1395.79 2190.47 1451.25Z" fill="#FFFFFF" fill-rule="evenodd"/><path d="M786.579 583.769C765.508 547.503 719.02 535.194 682.765 556.362 646.461 577.48 634.248 623.933 655.313 660.243 672.033 688.982 687.757 718.119 701.801 747.848 858.683 1079.17 839.248 1449.09 681.669 1751.91 662.335 1789.21 676.776 1835.02 713.965 1854.41 751.259 1873.75 797.055 1859.36 816.446 1822.11 994.991 1479.2 1017.1 1058.79 839.093 682.75 822.784 648.27 804.974 615.372 786.579 583.769Z" fill="#FFFFFF" fill-rule="evenodd"/><path d="M532.793 784.814C511.655 748.538 465.125 736.218 428.798 757.296 392.516 778.48 380.243 825.002 401.275 861.272 413.205 881.708 424.245 902.051 433.994 922.687 544.075 1155.18 530.364 1414.35 419.84 1626.85 400.44 1664.07 414.943 1709.99 452.161 1729.39 489.384 1748.79 535.316 1734.29 554.722 1697.08 686.285 1444.59 702.619 1134.79 571.456 857.659 559.32 832.071 546.206 807.922 532.793 784.814Z" fill="#FFFFFF" fill-rule="evenodd"/><path d="M300.166 1025.41C291.974 1008.09 283.297 992.807 275.31 978.902 254.308 942.586 207.955 930.218 171.76 951.247 135.566 972.32 123.24 1018.88 144.248 1055.15L144.248 1055.2C151.596 1067.91 158.1 1079.59 163.226 1090.42 226.194 1223.95 218.114 1371.83 154.898 1493.89 135.516 1531.14 149.964 1576.96 187.046 1596.35 224.128 1615.79 269.837 1601.35 289.113 1564.14L289.212 1564.09C362.78 1422.59 380.331 1252.7 327.281 1093.05 319.691 1070.28 310.617 1047.68 300.166 1025.41Z" fill="#FFFFFF" fill-rule="evenodd"/></g></svg>