<svg width="2062" height="1444" xmlns="http://www.w3.org/2000/svg" xmlns:xlink="http://www.w3.org/1999/xlink" xml:space="preserve" overflow="hidden"><defs><clipPath id="clip0"><rect x="-2372" y="29" width="2062" height="1444"/></clipPath></defs><g clip-path="url(#clip0)" transform="translate(2372 -29)"><path d="M-1959.67 1370C-1953.1 1370-1946.34 1370-1939.36 1370L-1341 1370M-1959.67 1370C-2061.57 1369.92-2115.02 1368.64-2156.42 1347.53-2195.23 1327.75-2226.75 1296.1-2246.52 1257.28-2269 1213.15-2269 1155.44-2269 1039.89L-2269 462.154C-2269 346.596-2269 288.774-2246.52 244.637-2226.75 205.813-2195.23 174.27-2156.42 154.489-2112.31 132-2054.52 132-1939.02 132L-742.935 132C-627.44 132-569.77 132-525.659 154.489-486.858 174.27-455.224 205.813-435.457 244.637-413 288.731-413 346.482-413 461.815L-413 1040.19C-413 1155.52-413 1213.19-435.457 1257.28-455.224 1296.1-486.858 1327.75-525.659 1347.53-569.729 1370-627.368 1370-742.636 1370L-1341 1370M-1959.67 1370C-1959.66 1256.04-1821.17 1163.67-1650.33 1163.67-1479.49 1163.67-1341 1256.04-1341 1370M-1959.67 1370C-1959.67 1370-1959.67 1369.99-1959.67 1370ZM-722.333 957.333-1134.78 957.333M-722.333 647.833-1031.67 647.833M-1650.33 854.167C-1764.23 854.167-1856.56 761.791-1856.56 647.833-1856.56 533.878-1764.23 441.5-1650.33 441.5-1536.44 441.5-1444.11 533.878-1444.11 647.833-1444.11 761.791-1536.44 854.167-1650.33 854.167Z" stroke="#FFFFFF" stroke-width="206.25" stroke-linecap="round" stroke-linejoin="round" stroke-miterlimit="10" fill="none" fill-rule="evenodd"/></g></svg>