<svg width="2485" height="1861" xmlns="http://www.w3.org/2000/svg" xmlns:xlink="http://www.w3.org/1999/xlink" xml:space="preserve" overflow="hidden"><defs><clipPath id="clip0"><rect x="-4740" y="153" width="2485" height="1861"/></clipPath></defs><g clip-path="url(#clip0)" transform="translate(4740 -153)"><path d="M-3239.69 1072.33C-3296.65 1072.33-3342.81 1118.49-3342.81 1175.44-3342.81 1232.39-3296.65 1278.55-3239.69 1278.55L-2827.19 1278.55C-2770.24 1278.55-2724.07 1232.39-2724.07 1175.44-2724.07 1118.49-2770.24 1072.33-2827.19 1072.33ZM-3910 762.996C-3824.56 762.996-3755.31 832.242-3755.31 917.663-3755.31 1003.08-3824.56 1072.33-3910 1072.33-3995.43 1072.33-4064.68 1003.08-4064.68 917.663-4064.68 832.242-3995.43 762.996-3910 762.996ZM-3342.81 659.885C-3399.77 659.885-3445.94 706.05-3445.94 762.996-3445.94 819.942-3399.77 866.107-3342.81 866.107L-2724.07 866.107C-2667.11 866.107-2620.95 819.942-2620.95 762.996-2620.95 706.05-2667.11 659.885-2724.07 659.885ZM-3910 556.774C-4109.33 556.774-4270.93 718.349-4270.93 917.663-4270.93 1006.32-4238.96 1087.51-4185.92 1150.33-4303.69 1226.93-4374.05 1351.44-4374.05 1484.77-4374.05 1541.72-4327.88 1587.89-4270.93 1587.89-4213.98 1587.89-4167.81 1541.72-4167.81 1484.77-4167.81 1393.47-4085.26 1278.55-3910 1278.55-3734.73 1278.55-3652.19 1393.47-3652.19 1484.77-3652.19 1541.72-3606.02 1587.89-3549.06 1587.89-3492.11 1587.89-3445.94 1541.72-3445.94 1484.77-3445.94 1351.44-3516.3 1226.93-3634.08 1150.33-3581.03 1087.51-3549.06 1006.32-3549.06 917.663-3549.06 718.349-3710.66 556.774-3910 556.774ZM-4428.12 155.5-2566.88 155.5C-2396.01 155.5-2257.5 293.996-2257.5 464.839L-2257.5 1702.16C-2257.5 1873-2396.01 2011.5-2566.88 2011.5L-4428.12 2011.5C-4598.99 2011.5-4737.5 1873-4737.5 1702.16L-4737.5 464.839C-4737.5 293.996-4598.99 155.5-4428.12 155.5Z" stroke="#2F528F" stroke-width="4.58333" stroke-miterlimit="8" fill-rule="evenodd"/></g></svg>