<svg width="2063" height="2165" xmlns="http://www.w3.org/2000/svg" xmlns:xlink="http://www.w3.org/1999/xlink" xml:space="preserve" overflow="hidden"><defs><clipPath id="clip0"><rect x="1830" y="144" width="2063" height="2165"/></clipPath></defs><g clip-path="url(#clip0)" transform="translate(-1830 -144)"><path d="M3326.2 1400.79C3278.94 1400.79 3240.63 1439.08 3240.63 1486.31L3240.63 1659.27 3067.58 1659.27C3020.32 1659.27 2982.01 1697.56 2982.01 1744.79L2982.01 1744.79C2982.01 1792.02 3020.32 1830.31 3067.58 1830.31L3240.63 1830.31 3240.63 2003.27C3240.63 2050.5 3278.94 2088.79 3326.2 2088.79L3326.2 2088.79C3373.45 2088.79 3411.76 2050.5 3411.76 2003.27L3411.76 1830.31 3584.81 1830.31C3632.07 1830.31 3670.38 1792.02 3670.38 1744.79 3670.38 1697.56 3632.07 1659.27 3584.81 1659.27L3411.76 1659.27 3411.76 1486.31C3411.76 1439.08 3373.45 1400.79 3326.2 1400.79ZM3325.67 1174.95C3639 1174.95 3893 1428.81 3893 1741.98 3893 2055.14 3639 2309 3325.67 2309 3012.35 2309 2758.35 2055.14 2758.35 1741.98 2758.35 1428.81 3012.35 1174.95 3325.67 1174.95ZM2242.6 453.286C2185.63 453.286 2139.45 499.444 2139.45 556.381L2139.45 659.476C2139.45 716.414 2185.63 762.571 2242.6 762.571L3067.8 762.571C3124.77 762.571 3170.95 716.414 3170.95 659.476L3170.95 556.381C3170.95 499.444 3124.77 453.286 3067.8 453.286ZM2087.88 144 3274.1 144C3410.82 144 3522.7 250.347 3531.43 384.792L3531.98 401.738 3531.98 1104.18C3466.98 1083.2 3397.65 1071.86 3325.67 1071.86 2955.38 1071.86 2655.2 1371.87 2655.2 1741.98 2655.2 1801.93 2663.08 1860.04 2677.85 1915.33L2687.54 1948.17 1984.73 1948.17C1984.73 2001.04 2024.55 2044.61 2075.85 2050.57L2087.88 2051.26 2730.73 2051.26C2755.41 2098.6 2785.59 2142.62 2820.41 2182.49L2841.86 2205.9 2087.88 2205.9C1951.15 2205.9 1839.28 2099.56 1830.55 1965.11L1830 1948.17 1830 401.738C1830 265.087 1936.4 153.275 2070.92 144.548Z" fill-rule="evenodd"/></g></svg>