<svg width="2286" height="2002" xmlns="http://www.w3.org/2000/svg" xmlns:xlink="http://www.w3.org/1999/xlink" xml:space="preserve" overflow="hidden"><defs><clipPath id="clip0"><rect x="2920" y="1474" width="2286" height="2002"/></clipPath></defs><g clip-path="url(#clip0)" transform="translate(-2920 -1474)"><path d="M4967.61 1474 3159.36 1474C3027.56 1474 2920 1581.61 2920 1713.46L2920 2898.18C2920 3031 3027.56 3137.65 3159.36 3137.65L4532.5 3137.65 4796.08 3405.23C4841.63 3451.76 4903.65 3476 4966.64 3476 4997.65 3476 5028.66 3470.18 5057.73 3457.58 5147.85 3420.74 5205.99 3332.52 5205.99 3235.57L5205.99 1713.46C5206.96 1581.61 5099.4 1474 4967.61 1474ZM4172.02 2790.57C4172.02 2872.98 4108.06 2936.96 4022.78 2936.96 3937.5 2936.96 3873.55 2872.98 3873.55 2790.57L3873.55 2786.69C3873.55 2704.29 3937.5 2641.27 4022.78 2641.27 4108.06 2641.27 4172.02 2704.29 4172.02 2786.69L4172.02 2790.57ZM4471.45 2069.27C4471.45 2286.43 4320.28 2376.6 4134.22 2413.44L4129.38 2444.46C4122.59 2489.06 4086.74 2528.81 4037.32 2528.81L4023.75 2528.81C3974.33 2528.81 3938.47 2491 3930.72 2444.46L3913.28 2328.12C3904.56 2270.92 3937.5 2232.14 3991.77 2225.36 4141.01 2205.97 4209.81 2160.4 4209.81 2076.05L4209.81 2073.15C4209.81 1996.56 4151.67 1950.99 4051.85 1950.99 3978.21 1950.99 3915.22 1973.29 3853.2 2019.82 3832.85 2035.34 3804.74 2046.97 3776.64 2046.97 3711.72 2046.97 3656.48 1991.71 3656.48 1926.75 3656.48 1893.79 3670.05 1859.86 3701.06 1833.68 3792.15 1758.06 3906.5 1710.56 4057.67 1710.56 4304.78 1710.56 4472.42 1837.56 4472.42 2065.39L4471.45 2069.27 4471.45 2069.27Z" fill="#FFFFFF" fill-rule="evenodd"/></g></svg>