<svg width="1856" height="1856" xmlns="http://www.w3.org/2000/svg" xmlns:xlink="http://www.w3.org/1999/xlink" xml:space="preserve" overflow="hidden"><defs><clipPath id="clip0"><rect x="-4415" y="-1114" width="1856" height="1856"/></clipPath></defs><g clip-path="url(#clip0)" transform="translate(4415 1114)"><path d="M-3899.51-186-3487.01-186M-3487.01-186-3074.52-186M-3487.01-186-3487.01 226.5M-3487.01-186-3487.01-598.5M-4312 309.021-4312-680.979C-4312-796.491-4312-854.289-4289.52-898.408-4269.75-937.217-4238.22-968.747-4199.41-988.52-4155.29-1011-4097.49-1011-3981.98-1011L-2992-1011C-2876.49-1011-2818.76-1011-2774.64-988.52-2735.84-968.747-2704.25-937.217-2684.48-898.408-2662-854.289-2662-796.534-2662-681.023L-2662 308.979C-2662 424.49-2662 482.25-2684.48 526.367-2704.25 565.173-2735.84 596.771-2774.64 616.54-2818.72 639-2876.36 639-2991.65 639L-3982.32 639C-4097.61 639-4155.33 639-4199.41 616.54-4238.22 596.771-4269.75 565.184-4289.52 526.378-4312 482.261-4312 424.531-4312 309.021Z" stroke="#000000" stroke-width="206.25" stroke-linecap="round" stroke-linejoin="round" stroke-miterlimit="10" fill="none" fill-rule="evenodd"/></g></svg>