<svg width="2026" height="2475" xmlns="http://www.w3.org/2000/svg" xmlns:xlink="http://www.w3.org/1999/xlink" xml:space="preserve" overflow="hidden"><defs><clipPath id="clip0"><rect x="1188" y="-1" width="2026" height="2475"/></clipPath></defs><g clip-path="url(#clip0)" transform="translate(-1188 1)"><path d="M1413.11 223.998 1413.11 2249 2988.89 2249 2988.89 608.08 2604.63 223.998ZM1300.55-1.00003 2651.22-1.00003C2681.07-0.988845 2709.7 10.8611 2730.8 31.9624L3181.02 481.958C3202.13 503.059 3213.99 531.662 3214 561.495L3214 2361.5C3214 2423.63 3163.61 2474 3101.44 2474L1300.55 2474C1238.4 2474 1188 2423.63 1188 2361.5L1188 111.499C1188 49.3697 1238.4-1.00003 1300.55-1.00003Z" fill-rule="evenodd"/><path d="M2541.23 865.412C2571.33 865.412 2601.43 876.895 2624.39 899.859 2670.32 945.787 2670.32 1020.25 2624.39 1066.18L2123.12 1567.44 2116.84 1575.14 2116.84 1575.14C2093.88 1598.1 2063.78 1609.59 2033.68 1609.59L2032.97 1609.52 2032.27 1609.59C2002.17 1609.59 1972.07 1598.1 1949.11 1575.14L1949.11 1575.14 1942.83 1567.45 1729.23 1353.85C1683.3 1307.92 1683.3 1233.46 1729.23 1187.53 1775.16 1141.6 1849.62 1141.6 1895.55 1187.53L2032.97 1324.95 2458.07 899.859C2481.03 876.895 2511.13 865.412 2541.23 865.412Z" fill-rule="evenodd"/></g></svg>