<svg width="2044" height="2044" xmlns="http://www.w3.org/2000/svg" xmlns:xlink="http://www.w3.org/1999/xlink" xml:space="preserve" overflow="hidden"><defs><clipPath id="clip0"><rect x="-803" y="-186" width="2044" height="2044"/></clipPath></defs><g clip-path="url(#clip0)" transform="translate(803 186)"><path d="M1187.22 1255.12 772.697 836 1122.26 486.478C1273.03 336.458 1273.63 92.632 1123.59-58.1241 1123.15-58.5694 1122.7-59.0135 1122.26-59.457 971.348-209.879 727.172-209.879 576.261-59.457L438.601 76.6401 220.512 294.705-200.201-130.598C-275.906-204.467-396.721-204.467-472.426-130.598L-746.198 143.142C-821.799 218.543-821.953 340.946-746.544 416.538-746.429 416.653-746.314 416.768-746.198 416.883L-320.846 836-354.874 870.025-492.534 1006.12-763.213 1572.16C-809.78 1668.24-769.633 1783.88-673.542 1830.44-620.292 1856.24-558.157 1856.24-504.908 1830.44L55.0107 1559.79 130.801 1484.01 191.124 1423.69 220.512 1388.12 635.037 1802.6C710.743 1876.47 831.558 1876.47 907.263 1802.6L1181.04 1528.86C1258.34 1455.2 1261.29 1332.84 1187.63 1255.54 1187.49 1255.4 1187.36 1255.26 1187.22 1255.12ZM848.487 17.8711C899.892 17.7051 949.313 37.6934 986.146 73.5472 1061.75 148.948 1061.9 271.351 986.492 346.942 986.377 347.058 986.262 347.173 986.146 347.288L712.374 81.2799C748.823 45.7992 797.617 25.8401 848.487 25.6038ZM-610.086 279.239-336.313 7.04512-209.481 133.863-344.047 269.96-207.934 406.057-71.8215 269.96 82.8521 424.616-184.733 704.543ZM-589.978 1657.22-347.141 1157.68-88.8356 1414.41ZM55.0107 1286.05-218.762 1012.31 576.261 217.377 848.487 489.571ZM777.337 1664.96 362.811 1252.02 636.584 978.283 780.43 1122.11 644.318 1258.21 780.43 1395.85 918.09 1258.21 1051.11 1392.76Z" fill-rule="evenodd"/></g></svg>