<svg width="1793" height="2191" xmlns="http://www.w3.org/2000/svg" xmlns:xlink="http://www.w3.org/1999/xlink" xml:space="preserve" overflow="hidden"><defs><clipPath id="clip0"><rect x="-2287" y="1723" width="1793" height="2191"/></clipPath></defs><g clip-path="url(#clip0)" transform="translate(2287 -1723)"><path d="M-2187.39 3914-593.611 3914C-538.597 3914-494 3869.41-494 3814.41L-494 2220.95C-494.006 2194.54-504.504 2169.22-523.186 2150.54L-921.63 1752.18C-940.307 1733.5-965.639 1723.01-992.056 1723L-2187.39 1723C-2242.4 1723-2287 1767.59-2287 1822.59L-2287 3814.41C-2287 3869.41-2242.4 3914-2187.39 3914ZM-2087.78 1922.18-1033.29 1922.18-693.222 2262.19-693.222 3714.82-2087.78 3714.82ZM-1071.05 2639.93-1249.65 2818.5-1071.05 2997.07C-1031.48 3035.28-1030.38 3098.33-1068.6 3137.89-1106.82 3177.45-1169.88 3178.55-1209.45 3140.34-1210.28 3139.53-1211.1 3138.72-1211.9 3137.89L-1390.5 2959.32-1569.1 3137.89C-1608.67 3176.1-1671.73 3175-1709.95 3135.44-1747.24 3096.85-1747.24 3035.66-1709.95 2997.07L-1531.35 2818.5-1709.95 2639.93C-1748.17 2600.37-1747.08 2537.32-1707.5 2499.11-1668.9 2461.84-1607.7 2461.84-1569.1 2499.11L-1390.5 2677.68-1211.9 2499.11C-1172.33 2460.9-1109.27 2462-1071.05 2501.56-1033.76 2540.15-1033.76 2601.34-1071.05 2639.93Z" fill-rule="evenodd"/></g></svg>