<svg width="2355" height="2673" xmlns="http://www.w3.org/2000/svg" xmlns:xlink="http://www.w3.org/1999/xlink" xml:space="preserve" overflow="hidden"><defs><clipPath id="clip0"><rect x="1" y="224" width="2355" height="2673"/></clipPath></defs><g clip-path="url(#clip0)" transform="translate(-1 -224)"><path d="M226.328 855.022C534.879 835.176 722.711 835.273 849.024 1039.1 975.349 1242.93 528.223 1957.4 984.206 2078.02 1440.18 2198.64 1662.86 1828.98 1851.92 1465.96 2041.01 1102.94 2131 666.881 2131.33 449.3" stroke="#FFFFFF" stroke-width="448.941" stroke-linecap="round" stroke-linejoin="round" stroke-miterlimit="10" fill="none" fill-rule="evenodd"/><path d="M294.328 2163.3C429.916 1981.71 587.968 1950.79 787.328 1925.3" stroke="#FFFFFF" stroke-width="448.941" stroke-linecap="round" stroke-linejoin="round" stroke-miterlimit="10" fill="none" fill-rule="evenodd"/><path d="M1156.19 2642.03 1112.01 2747.31 1200.37 2747.31ZM389.976 2642.03 345.792 2747.31 434.159 2747.31ZM650.075 2559.99 657.81 2559.99C665.316 2560.09 671.701 2561.83 676.991 2565.18 682.268 2568.53 686.509 2572.88 689.69 2578.22L774.45 2716.29 859.668 2577.77C863.282 2571.84 867.668 2567.39 872.825 2564.44 877.969 2561.48 884.054 2559.99 891.09 2559.99L898.825 2559.99C908.849 2560.22 917.138 2563.63 923.693 2570.19 930.247 2576.75 933.645 2585.05 933.874 2595.07L933.874 2848.43C933.645 2858.47 930.247 2866.77 923.693 2873.33 917.138 2879.88 908.849 2883.28 898.825 2883.52 889.017 2883.26 880.861 2879.8 874.355 2873.16 867.849 2866.51 864.475 2858.27 864.234 2848.43L864.234 2689.4 802.703 2784.18C799.101 2789.72 794.92 2794.04 790.173 2797.17 785.426 2800.31 779.884 2801.9 773.534 2801.96 767.197 2801.9 761.654 2800.31 756.907 2797.17 752.16 2794.04 747.979 2789.72 744.377 2784.18L683.762 2690.77 683.762 2849.34C683.509 2859.14 680.135 2867.23 673.629 2873.62 667.123 2879.99 658.966 2883.29 649.159 2883.52 639.376 2883.29 631.291 2879.99 624.925 2873.62 618.551 2867.23 615.251 2859.14 615.024 2849.34L615.024 2595.07C615.261 2585.05 618.655 2576.75 625.209 2570.19 631.761 2563.63 640.051 2560.22 650.075 2559.99ZM1784.03 2559.08C1794.05 2559.32 1802.34 2562.72 1808.9 2569.27 1815.45 2575.84 1818.85 2584.13 1819.08 2594.17L1819.08 2742.29C1819.27 2768.31 1825.39 2787.94 1837.43 2801.2 1849.46 2814.46 1866.3 2821.1 1887.9 2821.15 1909.51 2821.11 1926.34 2814.67 1938.38 2801.83 1950.42 2788.98 1956.54 2769.89 1956.73 2744.57L1956.73 2594.17C1956.96 2584.13 1960.36 2575.84 1966.91 2569.27 1973.47 2562.72 1981.76 2559.32 1991.78 2559.08 2001.8 2559.32 2010.09 2562.72 2016.65 2569.27 2023.2 2575.84 2026.59 2584.13 2026.83 2594.17L2026.83 2741.84C2026.36 2790.1 2013.76 2826.17 1989.03 2850.04 1964.31 2873.92 1930.3 2885.84 1887 2885.8 1843.77 2885.76 1810.05 2873.88 1785.86 2850.16 1761.67 2826.44 1749.38 2791.09 1748.98 2744.11L1748.98 2594.17C1749.21 2584.13 1752.61 2575.84 1759.16 2569.27 1765.72 2562.72 1774.01 2559.32 1784.03 2559.08ZM1629.96 2559.08C1639.76 2559.33 1647.92 2562.71 1654.43 2569.22 1660.93 2575.73 1664.31 2583.89 1664.56 2593.71L1664.56 2847.53C1664.32 2857.55 1660.92 2865.86 1654.37 2872.41 1647.81 2878.98 1639.52 2882.38 1629.5 2882.61L1627.23 2882.61C1618.94 2882.52 1611.96 2880.64 1606.29 2876.97 1600.62 2873.29 1595.45 2868.34 1590.81 2862.11L1450.43 2678.01 1450.43 2848.89C1450.18 2858.71 1446.81 2866.87 1440.3 2873.39 1433.8 2879.9 1425.64 2883.27 1415.83 2883.52 1406.02 2883.27 1397.87 2879.9 1391.36 2873.39 1384.86 2866.87 1381.48 2858.71 1381.24 2848.89L1381.24 2595.07C1381.47 2585.05 1384.87 2576.75 1391.42 2570.19 1397.98 2563.63 1406.27 2560.22 1416.29 2559.99L1423.57 2559.99C1431.86 2560.08 1438.84 2561.96 1444.51 2565.63 1450.18 2569.31 1455.35 2574.26 1460 2580.49L1595.36 2758.21 1595.36 2593.71C1595.61 2583.89 1598.99 2575.73 1605.49 2569.22 1611.99 2562.71 1620.15 2559.33 1629.96 2559.08ZM1155.27 2556.8 1159.38 2556.8C1168.95 2556.87 1177.13 2559.34 1183.91 2564.21 1190.71 2569.07 1196.03 2575.87 1199.91 2584.6L1311.06 2835.67C1312.2 2838.16 1313.1 2840.57 1313.73 2842.9 1314.37 2845.22 1314.7 2847.53 1314.71 2849.79 1314.49 2859.37 1311.28 2867.34 1305.08 2873.66 1298.89 2880 1291.01 2883.28 1281.46 2883.52 1273.28 2883.43 1266.4 2881.22 1260.84 2876.92 1255.28 2872.6 1250.91 2866.76 1247.75 2859.37L1226.34 2809.24 1086.04 2809.24 1063.72 2861.65C1060.69 2868.54 1056.38 2873.89 1050.8 2877.71 1045.21 2881.52 1038.73 2883.46 1031.38 2883.52 1022.07 2883.29 1014.39 2880.1 1008.38 2873.95 1002.36 2867.8 999.248 2860.05 999.043 2850.71 999.067 2848.2 999.465 2845.69 1000.24 2843.19 1001.01 2840.68 1001.97 2838.17 1003.14 2835.67L1114.29 2584.6C1118.19 2575.87 1123.59 2569.07 1130.51 2564.21 1137.43 2559.34 1145.68 2556.87 1155.27 2556.8ZM389.065 2556.8 393.165 2556.8C402.74 2556.87 410.919 2559.34 417.705 2564.21 424.491 2569.07 429.823 2575.87 433.704 2584.6L544.847 2835.67C545.996 2838.16 546.888 2840.57 547.524 2842.9 548.16 2845.22 548.483 2847.53 548.492 2849.79 548.274 2859.37 545.066 2867.34 538.869 2873.66 532.672 2880 524.796 2883.28 515.24 2883.52 507.06 2883.43 500.189 2881.22 494.628 2876.92 489.068 2872.6 484.703 2866.76 481.533 2859.37L460.124 2809.24 319.829 2809.24 297.509 2861.65C294.482 2868.54 290.173 2873.89 284.584 2877.71 278.995 2881.52 272.522 2883.46 265.168 2883.52 255.85 2883.29 248.182 2880.1 242.166 2873.95 236.149 2867.8 233.036 2860.05 232.828 2850.71 232.856 2848.2 233.254 2845.69 234.023 2843.19 234.792 2840.68 235.759 2838.17 236.927 2835.67L348.071 2584.6C351.971 2575.87 357.379 2569.07 364.297 2564.21 371.215 2559.34 379.471 2556.87 389.065 2556.8Z" stroke="#FFFFFF" stroke-width="22.0816" stroke-linejoin="round" stroke-miterlimit="10" fill="#FFFFFF" fill-rule="evenodd"/></g></svg>