<svg width="2300" height="4210" xmlns="http://www.w3.org/2000/svg" xmlns:xlink="http://www.w3.org/1999/xlink" xml:space="preserve" overflow="hidden"><defs><clipPath id="clip0"><rect x="929" y="-760" width="2300" height="4210"/></clipPath></defs><g clip-path="url(#clip0)" transform="translate(-929 760)"><path d="M1630.56-438.245C1788.21-448.361 1884.18-448.312 1948.72-344.449 2013.26-240.585 1784.81 123.474 2017.79 184.937 2250.77 246.399 2364.53 58.0381 2461.14-126.942 2557.74-311.921 2603.72-534.117 2603.89-644.986" stroke="#FFFFFF" stroke-width="229.167" stroke-linecap="round" stroke-linejoin="round" stroke-miterlimit="10" fill="none" fill-rule="evenodd"/><path d="M1665.84 228.544C1735.13 136.183 1815.9 120.465 1917.78 107.497" stroke="#FFFFFF" stroke-width="229.167" stroke-linecap="round" stroke-linejoin="round" stroke-miterlimit="10" fill="none" fill-rule="evenodd"/><path d="M2140.67 1056.76C2298.32 1046.65 2394.3 1046.7 2458.84 1150.56 2523.38 1254.42 2294.92 1618.48 2527.9 1679.95 2760.89 1741.41 2874.65 1553.05 2971.26 1368.07 3067.86 1183.09 3113.84 960.892 3114.01 850.023" stroke="#FFFFFF" stroke-width="229.167" stroke-linecap="round" stroke-linejoin="round" stroke-miterlimit="10" fill="none" fill-rule="evenodd"/><path d="M2175.96 1723.55C2245.25 1631.19 2326.02 1615.47 2427.9 1602.51" stroke="#FFFFFF" stroke-width="229.167" stroke-linecap="round" stroke-linejoin="round" stroke-miterlimit="10" fill="none" fill-rule="evenodd"/><path d="M1176.13 1101.32C1179.24 1113.14 1245.98 1081.08 1282.73 1182.35 1319.49 1283.63 1188.64 1650.77 1396.66 1708.98 1604.69 1767.19 1689 1542.34 1739.14 1392.56 1789.28 1242.78 1761.73 1045.06 1874.1 873.503 1986.46 701.949 2446.94 564.158 2446.34 561.242" stroke="#FFFFFF" stroke-width="229.167" stroke-linecap="round" stroke-linejoin="round" stroke-miterlimit="10" fill="none" fill-rule="evenodd"/><path d="M1043.82 1528.39C1284.83 1360.88 1587.78 1348.87 1971.56 1347.39" stroke="#FFFFFF" stroke-width="229.167" stroke-linecap="round" stroke-linejoin="round" stroke-miterlimit="10" fill="none" fill-rule="evenodd"/><path d="M1774.48 3203.07C1748.75 3277.92 1699.38 3305.19 1635.65 3335.12" stroke="#FFFFFF" stroke-width="229.167" stroke-linecap="round" stroke-linejoin="round" stroke-miterlimit="10" fill="none" fill-rule="evenodd"/><path d="M1644.64 2388.95C1874.02 1968.68 2303.01 1973.05 2526.81 2394.79" stroke="#FFFFFF" stroke-width="229.167" stroke-linecap="round" stroke-linejoin="round" stroke-miterlimit="10" fill="none" fill-rule="evenodd"/><path d="M2072.5 2097.5 2072.5 3329.57" stroke="#FFFFFF" stroke-width="229.167" stroke-linecap="round" stroke-linejoin="round" stroke-miterlimit="10" fill="none" fill-rule="evenodd"/></g></svg>