<svg width="816" height="262" xmlns="http://www.w3.org/2000/svg" xmlns:xlink="http://www.w3.org/1999/xlink" xml:space="preserve" overflow="hidden"><defs><clipPath id="clip0"><rect x="0" y="397" width="816" height="262"/></clipPath></defs><g clip-path="url(#clip0)" transform="matrix(1 0 0 1 0 -397)"><path d="M284.805-76.5468C312.341-78.3137 329.103-78.3052 340.376-60.1638 351.649-42.0222 311.747 21.5668 352.441 32.3023 393.135 43.0377 413.005 10.1373 429.879-22.1725 446.752-54.4822 454.783-93.2924 454.813-112.658" stroke="#FFFFFF" stroke-width="40.0278" stroke-linecap="round" stroke-linejoin="round" stroke-miterlimit="10" fill="none" fill-rule="evenodd" transform="matrix(1.00188 0 0 1 -265.117 591.055)"/><path d="M290.967 39.919C303.069 23.7866 317.177 21.0412 334.972 18.7761" stroke="#FFFFFF" stroke-width="40.0278" stroke-linecap="round" stroke-linejoin="round" stroke-miterlimit="10" fill="none" fill-rule="evenodd" transform="matrix(1.00188 0 0 1 -265.117 591.055)"/><path d="M679.307-74.9982C706.843-76.7653 723.607-76.7567 734.879-58.6152 746.152-40.4736 706.249 23.1154 746.943 33.8507 787.637 44.5861 807.507 11.6859 824.381-20.6239 841.256-52.9338 849.285-91.7438 849.315-111.109" stroke="#FFFFFF" stroke-width="40.0278" stroke-linecap="round" stroke-linejoin="round" stroke-miterlimit="10" fill="none" fill-rule="evenodd" transform="matrix(1.00188 0 0 1 -265.117 591.055)"/><path d="M685.469 41.4674C697.572 25.3352 711.679 22.5898 729.476 20.3247" stroke="#FFFFFF" stroke-width="40.0278" stroke-linecap="round" stroke-linejoin="round" stroke-miterlimit="10" fill="none" fill-rule="evenodd" transform="matrix(1.00188 0 0 1 -265.117 591.055)"/><path d="M510.832-67.2152C511.377-65.1519 523.032-70.7519 529.453-53.0622 535.872-35.3724 513.019 28.7555 549.353 38.9229 585.687 49.0904 600.415 9.81658 609.173-16.3454 617.929-42.5074 613.118-77.043 632.744-107.008 652.371-136.973 732.8-161.04 732.695-161.549" stroke="#FFFFFF" stroke-width="40.0278" stroke-linecap="round" stroke-linejoin="round" stroke-miterlimit="10" fill="none" fill-rule="evenodd" transform="matrix(1.00188 0 0 1 -265.117 591.055)"/><path d="M487.722 7.37888C529.82-21.8789 582.735-23.9772 649.769-24.236" stroke="#FFFFFF" stroke-width="40.0278" stroke-linecap="round" stroke-linejoin="round" stroke-miterlimit="10" fill="none" fill-rule="evenodd" transform="matrix(1.00188 0 0 1 -265.117 591.055)"/><path d="M927.566 26.1528C922.913 38.3585 914.246 42.8981 903.074 47.9015" stroke="#FFFFFF" stroke-width="40.0278" stroke-linecap="round" stroke-linejoin="round" stroke-miterlimit="10" fill="none" fill-rule="evenodd" transform="matrix(1.00188 0 0 1 -265.117 591.055)"/><path d="M905.072-106.16C944.4-173.901 1019.24-172.489 1058.98-103.767" stroke="#FFFFFF" stroke-width="40.0278" stroke-linecap="round" stroke-linejoin="round" stroke-miterlimit="10" fill="none" fill-rule="evenodd" transform="matrix(1.00188 0 0 1 -265.117 591.055)"/><path d="M979.618-152.571 979.618 46.8557" stroke="#FFFFFF" stroke-width="40.0278" stroke-linecap="round" stroke-linejoin="round" stroke-miterlimit="10" fill="none" fill-rule="evenodd" transform="matrix(1.00188 0 0 1 -265.117 591.055)"/></g></svg>