<svg width="2222" height="2222" xmlns="http://www.w3.org/2000/svg" xmlns:xlink="http://www.w3.org/1999/xlink" xml:space="preserve" overflow="hidden"><defs><clipPath id="clip0"><rect x="476" y="191" width="2222" height="2222"/></clipPath><clipPath id="clip1"><rect x="1076" y="833" width="1022" height="937"/></clipPath><clipPath id="clip2"><rect x="1076" y="833" width="1022" height="937"/></clipPath><clipPath id="clip3"><rect x="1076" y="833" width="1022" height="937"/></clipPath><clipPath id="clip4"><rect x="1076" y="833" width="1022" height="937"/></clipPath></defs><g clip-path="url(#clip0)" transform="translate(-476 -191)"><path d="M1587 362.121C1067.92 362.121 647.121 782.919 647.121 1302 647.121 1821.08 1067.92 2241.88 1587 2241.88 2106.08 2241.88 2526.88 1821.08 2526.88 1302 2526.88 782.919 2106.08 362.121 1587 362.121ZM1587 191C2200.59 191 2698 688.412 2698 1302 2698 1915.59 2200.59 2413 1587 2413 973.412 2413 476 1915.59 476 1302 476 688.412 973.412 191 1587 191Z" fill="#FFFFFF" fill-rule="evenodd"/><g clip-path="url(#clip1)"><g clip-path="url(#clip2)"><g clip-path="url(#clip3)"><g clip-path="url(#clip4)"><path d="M1382.43-371.556C1516.09-380.132 1597.46-380.091 1652.18-292.033 1706.89-203.974 1513.21 104.684 1710.74 156.794 1908.26 208.904 2004.71 49.2062 2086.62-107.625 2168.52-264.455 2207.5-452.838 2207.65-546.836" stroke="#FFFFFF" stroke-width="194.294" stroke-linecap="round" stroke-linejoin="round" stroke-miterlimit="10" fill="none" fill-rule="evenodd" transform="matrix(1.00021 0 0 1 -207.73 1478.35)"/><path d="M1412.34 193.766C1471.09 115.46 1539.57 102.133 1625.94 91.1388" stroke="#FFFFFF" stroke-width="194.294" stroke-linecap="round" stroke-linejoin="round" stroke-miterlimit="10" fill="none" fill-rule="evenodd" transform="matrix(1.00021 0 0 1 -207.73 1478.35)"/></g></g></g></g></g></svg>