<svg width="2166" height="2165" xmlns="http://www.w3.org/2000/svg" xmlns:xlink="http://www.w3.org/1999/xlink" xml:space="preserve" overflow="hidden"><defs><clipPath id="clip0"><rect x="1117" y="155" width="2166" height="2165"/></clipPath></defs><g clip-path="url(#clip0)" transform="translate(-1117 -155)"><path d="M2200 155C1601.88 155 1117 639.652 1117 1237.5 1117 1835.35 1601.88 2320 2200 2320 2798.12 2320 3283 1835.35 3283 1237.5 3283 639.652 2798.12 155 2200 155ZM1851.89 850.893 1851.89 850.893C1958.7 850.893 2045.29 937.438 2045.29 1044.2 2045.29 1150.96 1958.7 1237.5 1851.89 1237.5 1745.08 1237.5 1658.5 1150.96 1658.5 1044.2 1657.61 938.296 1742.79 851.728 1848.74 850.843 1850.82 850.826 1852.9 850.843 1854.99 850.893ZM2597.62 1849.89C2465.38 1630.39 2180.16 1559.6 1960.56 1691.78 1895.73 1730.8 1841.43 1785.08 1802.38 1849.89L1670.1 1772.56C1846.66 1480.05 2227.02 1385.97 2519.68 1562.44 2605.79 1614.37 2677.95 1686.49 2729.9 1772.56ZM2548.11 1237.5C2441.3 1237.5 2354.71 1150.96 2354.71 1044.2 2354.71 937.438 2441.3 850.893 2548.11 850.893L2548.11 850.893C2654.92 850.893 2741.5 937.438 2741.5 1044.2 2741.5 1150.96 2654.92 1237.5 2548.11 1237.5Z" fill-rule="evenodd"/></g></svg>