<svg width="2166" height="2166" xmlns="http://www.w3.org/2000/svg" xmlns:xlink="http://www.w3.org/1999/xlink" xml:space="preserve" overflow="hidden"><defs><clipPath id="clip0"><rect x="-1083" y="217" width="2166" height="2166"/></clipPath></defs><g clip-path="url(#clip0)" transform="translate(1083 -217)"><path d="M0 217C-598.124 217-1083 701.876-1083 1300-1083 1898.12-598.124 2383 0 2383 598.125 2383 1083 1898.12 1083 1300 1083 701.876 598.125 217 0 217ZM-541.5 1106.61C-541.5 999.799-454.915 913.214-348.107 913.214-241.299 913.214-154.714 999.799-154.714 1106.61-154.714 1213.42-241.299 1300-348.107 1300-454.915 1300-541.5 1213.42-541.5 1106.61ZM464.143 1764.14-464.143 1764.14-464.143 1609.43 464.143 1609.43ZM348.107 1300C241.299 1300 154.714 1213.42 154.714 1106.61 154.714 999.799 241.299 913.214 348.107 913.214 454.915 913.214 541.5 999.799 541.5 1106.61 541.5 1213.42 454.915 1300 348.107 1300Z" fill-rule="evenodd"/></g></svg>