<svg width="2475" height="2475" xmlns="http://www.w3.org/2000/svg" xmlns:xlink="http://www.w3.org/1999/xlink" xml:space="preserve" overflow="hidden"><defs><clipPath id="clip0"><rect x="-1605" y="-338" width="2475" height="2475"/></clipPath></defs><g clip-path="url(#clip0)" transform="translate(1605 338)"><path d="M-367.5-338C-1050.95-338-1605 216.048-1605 899.5-1605 1582.95-1050.95 2137-367.5 2137 315.953 2137 870 1582.95 870 899.5 870 216.048 315.953-338-367.5-338ZM-869.306 368.303C-751.279 148.028-247.463 349.741-722.044 899.5-1417.52 652.619-1085.56 234.653-869.306 368.303ZM145.289 1211.04C186.868 1201.25 228.51 1227.02 238.3 1268.6 242.804 1287.73 239.857 1307.86 230.058 1324.89 105.735 1540.35-124.157 1673.05-372.914 1672.94-621.67 1673.05-851.563 1540.35-975.886 1324.89-997.185 1287.86-984.434 1240.58-947.407 1219.28-930.372 1209.48-910.246 1206.54-891.117 1211.04L-890.344 1211.04-887.714 1211.81-877.35 1214.13-838.369 1222.64C-805.111 1229.76-758.704 1239.35-705.802 1248.78-598.603 1267.97-470.367 1286.22-372.914 1286.22-275.461 1286.22-147.07 1267.97-40.0266 1248.78 17.3958 1238.45 74.5913 1226.9 131.522 1214.13L141.886 1211.81 144.516 1211.2 145.289 1210.89ZM134.461 368.303C350.56 234.653 682.519 652.619-12.9561 899.5-487.383 349.741 16.4347 148.028 134.306 368.303Z" fill-rule="evenodd"/></g></svg>