<svg width="2475" height="2475" xmlns="http://www.w3.org/2000/svg" xmlns:xlink="http://www.w3.org/1999/xlink" xml:space="preserve" overflow="hidden"><defs><clipPath id="clip0"><rect x="797" y="0" width="2475" height="2475"/></clipPath></defs><g clip-path="url(#clip0)" transform="translate(-797 0)"><path d="M2034.49 1429.15C1785.74 1429.04 1555.84 1561.74 1431.52 1777.2 1421.72 1794.23 1418.78 1814.36 1423.28 1833.49 1431.85 1869.87 1464.8 1894.15 1500.76 1893.09 1505.89 1892.94 1511.09 1892.27 1516.29 1891.05L1516.29 1891.2 1517.06 1890.9 1519.69 1890.28 1530.06 1887.96C1586.99 1875.19 1644.18 1863.64 1701.61 1853.31 1808.65 1834.13 1937.04 1815.87 2034.49 1815.87 2131.95 1815.87 2260.18 1834.13 2367.38 1853.31 2420.28 1862.74 2466.69 1872.33 2499.95 1879.45L2538.93 1887.96 2549.29 1890.28 2551.92 1891.05 2552.7 1891.05C2571.83 1895.55 2591.95 1892.61 2608.99 1882.81 2646.01 1861.51 2658.76 1814.23 2637.47 1777.2 2513.14 1561.74 2283.25 1429.04 2034.49 1429.15ZM1360.76 1172.78C1360.76 1172.78 1126.91 1286.57 1081.25 1370.07 1041.37 1443 1068.2 1534.56 1141.13 1574.44 1214.06 1614.32 1305.62 1587.5 1345.5 1514.57 1391.45 1430.53 1360.76 1172.78 1360.76 1172.78ZM2708.24 1172.78C2708.24 1172.78 2677.55 1430.53 2723.5 1514.57 2763.38 1587.5 2854.94 1614.32 2927.87 1574.44 3000.8 1534.56 3027.63 1443 2987.75 1370.07 2942.09 1286.57 2708.24 1172.78 2708.24 1172.78ZM2432.27 795.536C2310.22 795.536 2211.29 894.473 2211.29 1016.52 2211.29 1138.56 2310.22 1237.5 2432.27 1237.5 2433.45 1237.51 2434.64 1237.51 2435.82 1237.5 2556.88 1236.52 2654.23 1137.58 2653.25 1016.52 2653.25 894.473 2554.31 795.536 2432.27 795.536ZM1633.18 795.536C1512.12 796.517 1414.77 895.454 1415.75 1016.52 1415.75 1138.56 1514.69 1237.5 1636.73 1237.5 1758.78 1237.5 1857.71 1138.56 1857.71 1016.52 1857.71 894.473 1758.78 795.536 1636.73 795.536 1635.55 795.526 1634.37 795.526 1633.18 795.536ZM2034.5 0C2717.95 0 3272 554.048 3272 1237.5 3272 1920.95 2717.95 2475 2034.5 2475 1351.05 2475 797 1920.95 797 1237.5 797 554.048 1351.05 0 2034.5 0Z" fill-rule="evenodd"/></g></svg>